<?xml version="1.0" encoding="UTF-8"?>
<svg id="_圖層_2" data-name="圖層 2" xmlns="http://www.w3.org/2000/svg" viewBox="0 0 94.68 81.6">
  <defs>
    <style>
      .cls-1 {
        fill: #401915;
      }

      .cls-2 {
        fill: #959547;
      }

      .cls-3 {
        fill: #dfc18e;
      }

      .cls-4 {
        fill: #72482f;
      }

      .cls-5 {
        fill: #f47171;
      }

      .cls-6 {
        fill: #f8d59c;
      }
    </style>
  </defs>
  <g id="_圖層_1-2" data-name="圖層 1">
    <g>
      <polygon class="cls-3" points="85.87 31.68 2.23 65.99 2.96 53.95 86.08 19.13 85.87 31.68"/>
      <path class="cls-3" d="M88.66,41.78l-48.4,26.42,6.6,11.32,45.59-25.49c1.93-1.05-1.86-13.3-3.79-12.24Z"/>
      <path class="cls-1" d="M37.65,69.62c-1.92,1.05-2.63,3.46-1.58,5.39l2.47,4.52c1.05,1.93,3.46,2.64,5.39,1.59l2.94-1.6-6.6-11.32-2.62,1.43Z"/>
      <g>
        <path class="cls-4" d="M42.69,18.63c.06,0,.13,0,.19-.02.31-.04.63-.13.97-.24-.3-.85-1.37-4.26-1.14-8.5-.66-.42-1.27-.9-1.8-1.43-.29-.29-.32-.73-.07-1.07.8-1.07,1.79-1.99,2.86-2.76.27-.8.6-1.6,1-2.4.4-.79.05-1.71-.78-2.07-.83-.35-1.83,0-2.22.78-3.75,7.43-2.1,14.93-1.26,17.7.77.1,1.47.13,2.09.05.06,0,.12-.02.19-.03Z"/>
        <path class="cls-5" d="M72.9,20.4c-4.23-5.09-10.88-7.73-17.55-6.86-4.57.58-8.51,3.85-11.51,4.83-.34.11-.66.19-.97.24-.06,0-.12.01-.19.02-.06.01-.12.03-.18.03-.61.09-1.32.06-2.09-.05-3.09-.41-7.27-1.94-11.32-1.28-6.64,1.06-12.26,5.48-14.88,11.56-5.29,12.24,2.26,28.16,10.32,36.3,3.94,3.98,8.59,8.43,13.72,7.51,3.14-.57,4.88-2.03,7.28-3.25,1.19-.6,2.53-1.14,4.29-1.48,2.68-.26,4.6.17,6.44.62,1.85.44,3.61.89,5.99.64,5.19-.56,8.38-6.15,11.03-11.09,5.42-10.09,8.15-27.5-.39-37.74Z"/>
        <path class="cls-2" d="M40.9,8.44c.54.53,1.14,1.01,1.8,1.43.9.57,1.92,1.05,3.04,1.41,2.4.77,5.15.99,7.75.61,4.75-.7,9.11-3.06,11.66-6.34.28-.37.22-.87-.14-1.15-1.18-.92-2.72-1.7-4.46-2.26-2.69-.87-5.62-1.16-8.23-.82-2.66.33-5.95,1.36-8.63,3.29-1.08.77-2.06,1.69-2.86,2.76-.25.33-.22.78.07,1.07Z"/>
      </g>
      <path class="cls-1" d="M20.24,27.95c-2.17.31-3.67,2.33-3.36,4.5l.74,5.1c.31,2.17,2.33,3.68,4.5,3.36l3.33-.48-1.87-12.96-3.33.48h0Z"/>
      <path class="cls-6" d="M83.76,18.77l-60.18,8.71,1.87,12.96,60.18-8.71c2.17-.31,3.68-2.33,3.36-4.5l-.74-5.1c-.31-2.17-2.33-3.68-4.5-3.36Z"/>
      <path class="cls-6" d="M94.64,49.88c.31,2.17-1.19,4.19-3.36,4.5L5.28,66.82c-2.17.31-4.18-1.19-4.5-3.36L.04,58.36c-.31-2.17,1.19-4.18,3.36-4.5l86-12.44c2.17-.31,4.19,1.19,4.5,3.36l.74,5.1h0Z"/>
      <path class="cls-1" d="M33.92,25.98l1.17,8.11c.08.55.59.93,1.15.85s.94-.59.86-1.14l-1.17-8.11-2,.29Z"/>
      <path class="cls-1" d="M47.54,24.01l1.17,8.11c.08.55.59.93,1.14.85s.93-.59.85-1.14l-1.17-8.11-2,.29Z"/>
      <path class="cls-1" d="M40.76,24.99l.62,4.28c.07.46.5.79.96.72s.78-.5.72-.96l-.62-4.28-1.68.24Z"/>
      <path class="cls-1" d="M54.68,22.97l.62,4.28c.07.46.5.79.96.72s.78-.5.72-.96l-.62-4.28-1.68.24Z"/>
      <path class="cls-1" d="M68.65,20.95l.62,4.28c.07.46.5.79.96.72s.78-.5.72-.96l-.62-4.28-1.68.24Z"/>
      <path class="cls-1" d="M46.88,47.57l.62,4.28c.07.46.5.78.96.72s.78-.5.72-.96l-.62-4.28-1.68.24Z"/>
      <path class="cls-1" d="M60.79,45.56l.62,4.28c.07.46.5.78.96.72s.78-.5.72-.96l-.62-4.28-1.68.24Z"/>
      <path class="cls-1" d="M74.77,43.54l.62,4.28c.07.46.49.78.96.72s.78-.5.72-.96l-.62-4.28-1.68.24Z"/>
      <path class="cls-1" d="M33.45,49.51l.62,4.28c.07.46.5.78.96.72s.78-.5.72-.96l-.62-4.28-1.68.24Z"/>
      <path class="cls-1" d="M19.95,51.46l.62,4.28c.07.46.5.78.96.72s.78-.5.72-.96l-.62-4.28-1.68.24Z"/>
      <path class="cls-1" d="M61.15,22.04l1.17,8.11c.08.55.59.93,1.14.85s.93-.59.85-1.14l-1.17-8.11-2,.29Z"/>
      <path class="cls-1" d="M74.77,20.07l1.17,8.11c.08.55.59.93,1.15.85s.93-.59.85-1.14l-1.17-8.11-2,.29Z"/>
      <path class="cls-1" d="M12.94,52.48l1.17,8.11c.08.55.59.94,1.14.86s.93-.59.85-1.14l-1.17-8.11-2,.29Z"/>
      <path class="cls-1" d="M26.56,50.51l1.17,8.11c.08.55.59.94,1.15.86s.93-.59.85-1.14l-1.17-8.11-2,.29Z"/>
      <path class="cls-1" d="M40.18,48.54l1.17,8.11c.08.55.59.94,1.15.86s.93-.59.85-1.14l-1.17-8.11-2,.29Z"/>
      <path class="cls-1" d="M53.8,46.57l1.17,8.11c.08.55.59.94,1.15.86s.93-.59.85-1.14l-1.17-8.11-2,.29Z"/>
      <path class="cls-1" d="M67.42,44.6l1.17,8.11c.08.55.59.94,1.14.86s.93-.59.85-1.14l-1.17-8.11-2,.29Z"/>
      <path class="cls-1" d="M81.03,42.63l1.17,8.11c.08.55.59.94,1.14.86s.93-.59.85-1.14l-1.17-8.11-2,.29Z"/>
    </g>
  </g>
</svg>