<?xml version="1.0" encoding="UTF-8"?>
<svg id="_圖層_2" data-name="圖層 2" xmlns="http://www.w3.org/2000/svg" viewBox="0 0 345.63 521.16">
  <defs>
    <style>
      .cls-1 {
        stroke: #deecf3;
      }

      .cls-1, .cls-2, .cls-3 {
        fill: none;
        stroke-linecap: round;
        stroke-linejoin: round;
      }

      .cls-1, .cls-3 {
        stroke-width: 1.47px;
      }

      .cls-4 {
        fill: #1e447d;
      }

      .cls-5 {
        fill: #dda291;
      }

      .cls-6 {
        fill: #eab9a7;
      }

      .cls-7 {
        fill: #fff;
      }

      .cls-8 {
        fill: #deecf3;
      }

      .cls-9 {
        fill: #5e5748;
      }

      .cls-2 {
        stroke: #595043;
        stroke-width: 1.1px;
      }

      .cls-3 {
        stroke: #564f40;
      }

      .cls-10 {
        fill: #3e86c7;
      }
    </style>
  </defs>
  <g id="_圖層_1-2" data-name="圖層 1">
    <g>
      <g>
        <g>
          <path class="cls-6" d="M162.34,129.77c-3.53-10.86-10.79-19.9-17.61-28.86-3.76-4.94-6.84-10.4-10.58-15.31-1.26-1.66-2.65-3.61-3.62-5.46-1.09-2.08-1.18-5-1.65-7.29-1.12-5.43-2.34-10.83-3.65-16.22-2.62-10.77-5.63-21.44-9.01-31.99-.03-.11-.07-.21-.1-.32-3.19,1.45-6.6,2.42-10.08,2.85.11-.01-.7,13.58-.84,14.82-.56,5.04-1.3,10.07-1.94,15.1-.64,4.99-1.18,10-1.34,15.04-.15,4.68-.44,10.33.99,14.84,2.15,6.81,4.35,13.64,6.99,20.31,9.26,23.39,19.63,48.4,37.03,66.99l15.4-44.52Z"/>
          <path class="cls-5" d="M156.31,117.06c-13.19.97-26.26,4.47-37.64,11.22,1.8,4.78,3.8,9.56,6.49,13.9l31.15-25.12Z"/>
          <path class="cls-2" d="M130.19,80.22c-1.44-1.62-3.32-2.86-5.38-3.54"/>
        </g>
        <g>
          <path class="cls-6" d="M106.85,28.35c-1.2-.26-2.13-1.21-2.82-2.22-2.5-3.67-2.62-8.42-4.13-12.59-.47-1.31-1.09-2.58-1.47-3.92-.38-1.34-.52-2.81-.04-4.12.22-.61.67-1.22,1.31-1.29.48-.05.95.24,1.25.62.3.38.46.85.61,1.31.65,1.94,1.3,3.89,1.95,5.83-.31-1.79-.61-3.59-.92-5.38-.16-.92-.31-1.83-.47-2.75-.12-.7-.44-1.59-.33-2.29.09-.55.29-1.14.77-1.41.54-.31,1.25-.1,1.7.32.45.42.69,1.01.91,1.59.93,2.48,1.6,5.06,2.26,7.62-.45-2.56-.9-5.13-.95-7.73-.01-.59.03-1.27.49-1.64.52-.43,1.36-.22,1.83.26.47.49.66,1.17.83,1.83.63,2.48,1.11,4.99,1.59,7.51-.25-2.21-.38-4.43-.38-6.65,0-.32.01-.68.22-.92.31-.36.93-.3,1.3.01.37.31.54.79.7,1.24,1.29,3.75,2.27,7.61,2.94,11.52.07.41.17.87.54,1.07.33.18.75.05,1.03-.21.79-.73,1.18-1.88,1.67-2.81.64-1.21,1.72-2.18,2.99-2.69.37-.15.82-.25,1.16-.04.4.25.46.81.39,1.27-.17,1.1-.82,2.06-1.35,3.04-1.21,2.24-1.82,4.74-2.8,7.08-.99,2.34-2.48,4.64-4.79,5.7l-7.97.83Z"/>
          <g>
            <path class="cls-2" d="M105.31,2.9c1.4,3.25,2.69,7.62,3.29,11.11"/>
            <path class="cls-2" d="M110.22,3.52c1,3.31,1.75,7.15,2.07,10.6"/>
            <path class="cls-2" d="M101.41,5.65c1.37,2.94,2.59,5.94,3.67,9"/>
            <path class="cls-2" d="M103.37,15.5c3.01-1.44,7.19-1.74,10.4-.88"/>
          </g>
          <path class="cls-2" d="M115.32,16.95c-2.77,2.04-4.52,5.42-4.59,8.86"/>
        </g>
      </g>
      <g>
        <g>
          <path class="cls-6" d="M219.21,147.03c8.48-1.79,16.89-3.91,25.21-6.35,6.93-2.03,13.8-4.29,20.58-6.77,3.39-1.24,6.76-2.53,10.11-3.88,3.1-1.25,5-3.47,7.47-5.64,4.16-3.66,8.39-7.24,12.68-10.74,8.58-7.01,17.41-13.72,26.47-20.1.09-.06.18-.13.27-.19,1.67,3.08,3.81,5.91,6.32,8.35-.08-.08-7.63,11.26-8.26,12.33-2.6,4.36-5.03,8.82-7.55,13.22-2.5,4.37-5.09,8.7-7.99,12.81-2.7,3.82-5.87,8.5-9.73,11.25-5.82,4.14-11.69,8.26-17.82,12-21.48,13.08-44.83,26.79-69.93,31.14l12.17-47.41Z"/>
          <path class="cls-5" d="M234.06,143.33c7.76,10.55,14.32,21.61,19.19,33.77-5.71,3.64-12.15,6.84-18.69,8.61"/>
          <path class="cls-2" d="M276.92,129.45c1.32.12,2.64.33,3.93.64"/>
        </g>
        <g>
          <path class="cls-6" d="M318.49,95.7c.04.6.15,1.18.37,1.69,1.18,2.68,2.74,4.96,5.22,6.62.38.25.81.52,1.26.44.55-.1,1.13-.41,1.65-.61,1.07-.4,2.13-.82,3.19-1.27,2.1-.9,4.15-1.91,6.09-3.12,3.67-2.28,7.09-5.31,8.9-9.31.23-.5.43-1.03.46-1.58s-.15-1.13-.57-1.49c-.42-.35-1.12-.39-1.51,0,.33-.6.76-1.14,1.14-1.7.38-.57.71-1.19.8-1.87.09-.68-.1-1.42-.63-1.86-.53-.44-1.4-.45-1.85.07.39-.68.75-1.42.69-2.2-.06-.78-.69-1.56-1.47-1.51-.36.02-.69.21-1,.4-.78.47-1.53.98-2.27,1.51.37-.57.37-1.36,0-1.93-.38-.57-1.11-.88-1.78-.75-.76.14-1.33.76-1.85,1.34-1,1.11-2.02,2.2-3.07,3.26-.98.99-2.07,1.9-3.04,2.89-.79.82-1.61,1.6-2.47,2.36-.42.37-.85.76-1.3,1.1-.35.26-.64.35-.5-.24.34-1.42.47-2.89.39-4.34-.06-1.2-.11-3.05-.85-4.06-.32-.45-.99-.68-1.44-.38-.23.16-.37.42-.49.68-1.31,2.7-2.47,5.49-3.21,8.4-.4,1.57-.68,3.17-.79,4.79-.06.82-.14,1.76-.08,2.65Z"/>
          <path class="cls-2" d="M325.3,88.41c.61,1.29.61,2.95.56,4.35-.05,1.56-.32,3.12-.8,4.6"/>
          <g>
            <path class="cls-2" d="M331.6,86.37c2.45,2.6,4.42,5.43,5.5,8.84"/>
            <path class="cls-2" d="M336.52,93.17c2.86-1.48,5.37-3.61,7.31-6.18"/>
            <path class="cls-2" d="M343.15,81.59c-2.37,2.99-5.07,5.72-8.04,8.11"/>
            <path class="cls-2" d="M339.07,79.74c-1.73,2.83-3.9,5.38-6.41,7.55"/>
          </g>
        </g>
      </g>
      <g>
        <path class="cls-6" d="M185,130.82c-.79,3.03-1.59,6.08-2.91,8.91-1.32,2.84-3.21,5.48-5.81,7.23-1.38.93-3.06,1.73-3.63,3.29-.69,1.87.55,3.89,1.95,5.3,5.2,5.27,13.21,7.09,20.55,6.07,1.1-.15,2.22-.37,3.19-.91s1.8-1.43,2.01-2.53c.38-2-1.31-3.72-2.27-5.52-1.27-2.37-1.32-5.22-.83-7.86.5-2.64,1.5-5.16,2.25-7.73.86-2.93,1.32-6.34-.46-8.82-1.77-2.49-5.41-3.16-8.26-2.06-2.85,1.1-4.94,3.65-6.19,6.44"/>
        <path class="cls-5" d="M190.87,132.76c-2.59-.13-5.25,1.11-6.86,3.14-.93,1.17-1.49,2.68-1.36,4.17.21,2.36,2.18,4.34,4.46,4.96,2.29.62,4.78.01,6.8-1.23,2.02-1.24,3.6-3.08,4.95-5.03.25-.36.5-.77.42-1.2-.07-.36-.36-.62-.64-.86-1.15-.97-2.41-1.8-3.73-2.52-1.31-.72-2.49-1.35-4.04-1.43Z"/>
      </g>
      <g>
        <path class="cls-9" d="M177.6,106.4c-.41-4.31,1.1-8.76,4.04-11.93,2.95-3.17,7.28-5,11.6-4.91,2.3.05,4.75.74,6.14,2.57.57.76.92,1.66,1.13,2.59.64,2.83-.02,5.89-1.57,8.35-1.56,2.45-3.96,4.32-6.64,5.44-2.49,1.04-5.26,1.47-7.92,1-2.66-.47-5.18-1.86-6.82-4"/>
        <path class="cls-6" d="M211.38,127.32c-9.27,23.42-54.01,12.18-35.06-21.99,13.18-25.59,45.75-.59,35.06,21.99Z"/>
        <g>
          <g>
            <g>
              <path class="cls-9" d="M223.62,105.58c3.56-6.13,10.14-10.4,17.18-11.15,5.37-.57,11.26,1.07,14.57,5.34,2.59,3.34,3.3,7.88,2.6,12.06-.38,2.24-1.15,4.46-2.57,6.24-1.1,1.38-2.54,2.46-4.05,3.37-4.82,2.93-10.69,4.39-16.18,3.13-5.49-1.26-10.4-5.55-11.56-11.06v-7.92Z"/>
              <path class="cls-3" d="M225.33,106.86c8.18-8.3,38.2-9.6,25.27,9.77-5.26,7.87-19.44,2.65-24.76-4.42"/>
              <path class="cls-3" d="M225.41,108.78c3.49-2.41,7.9-3.46,12.1-2.89,1.46.2,2.95.61,4.08,1.57,1.12.96,1.8,2.56,1.32,3.96-.38,1.1-1.37,1.88-2.41,2.39-2.3,1.13-5,1.24-7.5.72-2.51-.52-4.85-1.63-7.09-2.86"/>
            </g>
            <path class="cls-10" d="M225.29,115.84c-9.03,6.46-12.98-9.4-4.6-12.47,6.67-1.14,10.1,8.79,4.6,12.47Z"/>
          </g>
          <g>
            <path class="cls-9" d="M222.31,111.59c-.72-12.93-14.29-24.18-26.76-20.67-23.41,6.58,2.48,22.12,11.04,24.6-11.6,10.94,17.36,25.47,15.72-3.93Z"/>
            <path class="cls-3" d="M195.88,90.83c-4.19.42-7.14,2.5-9.54,5.97"/>
            <path class="cls-3" d="M204.37,91.68c-1.88.35-2.38.28-4.12.98-1.78.71-2.97,2.71-2.98,4.62,0,1.53.8,2.95,1.75,4.14,2.42,3.04,5.84,5.12,9.4,6.67,2,.87,4.08,1.61,6.25,1.92,2.16.32,4.42.2,6.46-.57"/>
            <path class="cls-3" d="M210.99,94.53c-1.37.12-1.85.48-2.3,1.78-.45,1.3-.22,2.78.43,3.99.65,1.21,1.69,2.18,2.84,2.94,2.39,1.58,5.34,2.3,8.19,1.99"/>
          </g>
          <path class="cls-10" d="M177.44,99.76c4.38.53,12.78,2.25,21.21,7.99,10.92,7.44,15.51,19.17,17.18,23.28,2.6-1.06,4.51-5.07,5.72-7.8-1.4-3.94-5.9-14.96-18.34-22.77-8.14-5.11-16.85-7.31-21.16-7.65-1.48,1.27-3.78,3.6-4.62,6.95Z"/>
        </g>
        <g>
          <path class="cls-6" d="M214.1,121.13c1.91.97,3.04,3.14,3.12,5.28.08,2.14-.78,4.24-2.02,5.98-.86,1.21-1.94,2.3-3.27,2.97-1.33.67-2.93.88-4.33.36-2.53-.94-3.71-4.06-3.24-6.71.68-3.87,5.12-10.25,9.75-7.89Z"/>
          <path class="cls-5" d="M209.83,132.35c-.39.12-.86.07-1.15-.23-.34-.35-.34-.92-.13-1.36.21-.44.58-.78.92-1.12.35-.34.69-.72.83-1.18.14-.48.03-1-.09-1.49-.13-.49-.27-.98-.21-1.48.06-.5.39-1.01.88-1.1.34-.06.7.09.95.33.25.24.41.56.53.89.38,1.05.36,2.19.01,3.24-.29.89-.42,1.6-1.05,2.33-.4.46-.88.98-1.49,1.16Z"/>
        </g>
        <g>
          <path class="cls-2" d="M187.91,114.68c-.94-.25-1.98-.17-2.83.29-.85.46-1.5,1.33-1.6,2.3-.1.88.26,1.79.93,2.37.67.58,1.63.8,2.48.58"/>
          <path class="cls-5" d="M201.48,128.37c.4,5.71-9.95,6.15-9.33.11.47-5.12,8.92-5.47,9.33-.11Z"/>
          <path class="cls-5" d="M177.7,118.46c-.17,1.56-1.01,3.04-2.26,3.99-.39.3-.84.55-1.32.65-.49.09-1.02,0-1.41-.3-.51-.42-.66-1.14-.71-1.81-.09-1.03-.06-2.06.09-3.08.16-1.09.47-2.2,1.21-3.02.75-.82,2.47-1.47,3.33-.5.91,1.03,1.22,2.74,1.07,4.06Z"/>
          <path class="cls-2" d="M187.21,128.19c-1.86.32-3.83-.07-5.43-1.07-1.6-1-2.82-2.59-3.36-4.4"/>
          <path class="cls-9" d="M196.85,116.44c-.1.62-.43,1.2-.91,1.61-.36.3-.84.51-1.29.39-.48-.12-.81-.56-.97-1.02-.36-1.05.06-2.31.98-2.94.27-.18.58-.31.9-.32,1.11-.01,1.42,1.41,1.28,2.28Z"/>
          <path class="cls-9" d="M182.64,111.83c-.1.62-.43,1.2-.91,1.61-.36.3-.84.51-1.29.39-.48-.12-.81-.56-.97-1.02-.36-1.05.07-2.31.98-2.94.27-.18.58-.31.9-.32,1.11-.01,1.42,1.41,1.28,2.28Z"/>
        </g>
      </g>
      <g>
        <g>
          <path class="cls-6" d="M210.2,150.79c9.23.8,9.13,5.72,9.83,13.64.66,7.44.57,14.95-.25,22.38-.41,3.71-1.25,7.34-1.75,11.02-.15,1.12,0,2.27-.3,3.36-.45,1.6-1.52,3.17-2.31,4.63-3.47,6.44-7.38,12.63-10.78,19.1-4.41,8.39-8.01,17.46-8.3,26.93-.31,10.27,6.56,21.23,2.46,31.29-1.97,4.82-6.41,8.32-11.26,10.21-4.85,1.9-10.13,2.38-15.33,2.67-11.11.61-22.39.35-33.15-2.49-15.19-4.01-28.95-14.02-36.43-28.01-3.14-5.88-4.66-12.94-2.61-19.29,2.87-8.91,11.7-14.26,17.85-21.32,8.69-9.98,11.98-23.45,14.55-36.43,1.98-10.02,3.73-20.24,7.87-29.65,4.05-9.22,10.68-17.96,16.42-26.26,1.27-1.83,3.37-3.89,5.36-2.89,1.66.83,1.75,3.09,2.3,4.85.86,2.72,3.19,4.69,5.54,6.32,9.21,6.37,20.38,9.86,31.57,9.86,2.86,0,5.86-.18,8.73.07Z"/>
          <path class="cls-5" d="M125.95,212.45c1.32,2.85,11.24,23.33,34.9,29.47,19.34,5.02,34.96-2.89,38.58-4.84-24.49-8.21-48.98-16.42-73.48-24.63Z"/>
        </g>
        <g>
          <path class="cls-7" d="M125.79,212.69c-3.12-1.96-8.14-7.95-10.6-10.26,6.32-12.12,13.2-23.94,20.61-35.42-6.42-7.48-13.45-16.1-15.7-25.79,9.46-11.32,23.93-20.26,38.09-24.68,4.56,10.02,12.43,17.91,18.49,26.53.1,5.05,3.9,9.97,8.74,11.48,10.12,2.78,11.96-3.87,18.8-6.6,9.66-1.48,19.22-3.62,28.59-6.39,8.16,12.79,11.61,28.5,9.57,43.53-6.83,3.54-14.27,6.41-21.9,7.6-.83,13.79-1.53,28.12-4.75,41.46-30.33,9.74-63.74-5-89.93-21.46Z"/>
          <g>
            <path class="cls-8" d="M164.52,185.38c.85.38,1.88.1,2.63-.46.75-.56,1.27-1.36,1.78-2.14.9-1.38,2.14-3.45,1.09-5.09-.81-1.26-2.22-1.15-3.45-.57-2.32,1.1-5.59,6.68-2.04,8.25Z"/>
            <path class="cls-8" d="M181.84,189.84c.11,1.07.52,2.27,1.53,2.64.78.29,1.67-.04,2.35-.52,1.26-.9,2.08-2.39,2.18-3.93.12-1.85-1.5-5.89-4.03-4.86-1.93.78-2.19,5.01-2.03,6.68Z"/>
            <path class="cls-1" d="M155.55,183.7c-11.7,25.45,27.53,42.49,36.3,11.44"/>
          </g>
          <path class="cls-2" d="M135.97,166.81c.53-6.12,4.3-11.86,9.7-14.77"/>
          <path class="cls-2" d="M219.98,192.66c2.49-2.92,3.85-6.78,3.74-10.62-.11-3.84-1.69-7.61-4.34-10.39"/>
          <path class="cls-2" d="M173.54,140.4c-1.28,3.95-.59,8.42,1.53,11.99,2.13,3.57,5.61,6.24,9.5,7.68,4.33,1.6,9.32,1.69,13.46-.34,4.14-2.04,7.22-6.37,7.2-10.98"/>
        </g>
      </g>
      <g>
        <g>
          <path class="cls-6" d="M111.61,231.17c-.65-.46-16.42,15.04-17.89,16.63-7.03,7.59-11.56,20.13-15.73,29.48-9.28,20.8-15.91,42.72-20.81,64.94-2.11,9.6-3.91,19.26-5.47,28.96-1.51,9.33-3.7,18.21-5.42,27.39-3.8,20.28-6.22,40.81-7.22,61.42-.11,2.19-.76,5.9.19,7.95,1.27,2.74,3.87,2.66,6.74,3.55,4.18,1.4,7.88,2.15,12.28,2.67,10.66-26.4,28.88-49.81,35.36-77.53,2.13-9.12,2.95-18.54,5.78-27.46,2.53-7.97,6.62-15.34,10.88-22.54,14.93-25.21,31.07-48.92,36.5-78.21.62-3.37,1.11-6.76,1.46-10.16-12.21-9.03-24.43-18.05-36.64-27.08Z"/>
          <path class="cls-2" d="M100.16,367.35c-1.57,1.96-3.6,3.55-5.87,4.61"/>
        </g>
        <g>
          <path class="cls-10" d="M68.03,452.99c-4.39-1.68-8.78-3.36-13.18-5.04-2.44-.93-4.84-1.97-7.28-2.91-2.35-.91-4.76-1.42-7.16-2.16.49.15-3,23.28-3.15,25.53,0,.06-.01.11-.02.16-.11,1.13-.33,2.37-.17,3.49-.02.49-.05.98-.06,1.46l.2-.9c.04.13.05.26.1.38.9,2.19,2.77,3.5,4.51,4.48,1.17.66,2.39,1.2,3.62,1.67,1.93.74,3.94,1.08,5.96,1.02,1.27-.04,2.55-.4,3.8-.33,1.12.06,2.25.33,3.21-.62.46-.45.77-1.09,1.06-1.72,3.65-7.78,7.02-15.77,10.08-23.92-.1.26-1.35-.54-1.52-.6Z"/>
          <g>
            <path class="cls-7" d="M0,470.23c7.41-9.1,19.74-15.76,31.49-15.39,5.53-15.91,27.27-2.49,17.9,10.51,2.34,1.07,5.33,2.17,8.91,2.87,1.89.36,3.65.56,5.23.65.25,2.09.4,5.61-.79,9.73-1.33,4.61-3.71,7.75-5.14,9.38"/>
            <g>
              <path class="cls-2" d="M27.97,455.59c4.98,2.46,8.6,7.49,9.36,12.99"/>
              <path class="cls-2" d="M21.44,456.67c3.45,2.87,5.67,7.15,6.04,11.62"/>
              <path class="cls-2" d="M14.49,459.28c2.8,2.46,4.77,5.86,5.49,9.51-.09-.06-.18-.11-.27-.17"/>
            </g>
          </g>
        </g>
      </g>
      <g>
        <g>
          <path class="cls-6" d="M197.42,258.98c1.83,2.52,2.21,5.72,2.89,8.76.93,4.17,1.29,8.47,1.52,12.76.66,12.73-.09,26.1-3.1,38.54-5.19,21.45-11.24,37.45-13.48,43.21-6.36,16.37-13.67,32.36-21.72,47.96-3.68,7.13-45.26,87.17-42.31,88.37-4.95-2.03-10.11-3.41-15.05-5.04-5.14-1.7-5.41-5.79-4.69-10.93,4.09-28.9,8.32-58.29,20.62-84.76,4.24-9.12,9.44-17.91,11.86-27.67,2.82-11.34,1.71-23.22,1.99-34.9.6-25.11,5.91-60.89,30.48-73.52,5.9-3.03,12.12-4.09,18.55-5.48,3.14-.68,6.56-1.33,9.44.09.64.32,1.24.73,1.77,1.21.48.43.89.9,1.25,1.39Z"/>
          <path class="cls-2" d="M133.66,371.5c-.44,2.56.04,5.27,1.34,7.53"/>
        </g>
        <g>
          <path class="cls-10" d="M98.87,491.32c-.12-.55-.16-1.13-.1-1.73.68-6.84,1.69-13.72,3.03-20.6.12-.6.29-1.29.8-1.66.31-.22.67-.26,1.01-.29,2.9-.23,5.81-.09,8.48.56,2.3.55,4.51,1.51,6.82,2.13,4.37,1.18,8.9,3.41,12.98,5.05-3.94,8.75-9.54,17.14-13.88,25.88-.36.72-5.83-.12-6.48-.24-2.03-.38-3.95-1.06-5.71-2.01-2.52-1.36-6.25-3.7-6.97-7.08Z"/>
          <g>
            <path class="cls-7" d="M147.23,521.16c.73-12.17-5.63-22.18-12.3-30.6-.07-13.96-19.26-16.07-21.19.23-2.08-.11-5.69-.57-9.54-2.66-2.58-1.39-4.42-3.05-5.63-4.33-1.52,1.46-3.29,3.41-4.95,5.92-2.29,3.44-4.45,9.27-5.21,11.73l58.82,19.72Z"/>
            <g>
              <path class="cls-2" d="M136.86,493.23c-5.26-1.37-11.18.2-15.07,3.98"/>
              <path class="cls-2" d="M126.34,501.42c4.01-2.98,9.67-3.57,14.22-1.48"/>
              <path class="cls-2" d="M133.03,505.36c2.35-.88,4.83-1.43,7.34-1.62,1.03-.08,2.13-.08,3.01.46"/>
            </g>
          </g>
        </g>
      </g>
      <g>
        <path class="cls-7" d="M116.01,246.63c12.04,10.16,26.79,17.07,42.3,19.83,14.37,2.56,29.36,1.53,43.26-2.91-.75-2.23-1.6-4.2-2.56-5.83-7.39,1.98-24.63,5.53-45.08-.51-23.96-7.08-37.55-22.95-42.11-28.82-1.66.87-3.78,2.06-6.17,3.6,1.29,5.87,5.71,10.7,10.36,14.63Z"/>
        <path class="cls-7" d="M154.56,317.72c-7.1-3.03-14.06-7.69-18.14-14.24-7.01,2.82-14.98,2.45-22.26.43-7.28-2.02-14.02-5.59-20.7-9.13-7.54-4-15.19-8.13-21.29-14.05-.48,2.3-.8,4.32-1.02,5.99,3.41,4.19,12.81,14.62,29.04,19.75,16.3,5.16,30.03,1.99,35.23.52,11.81,17.58,44.67,27.14,62.77,20.33,1.43-2.37,2.62-5.22,3.61-8.4-7.7,3.12-16.32,3.88-24.68,3.49-7.71-.36-15.46-1.64-22.56-4.68Z"/>
        <g>
          <path class="cls-10" d="M158.32,266.46c-15.51-2.76-30.26-9.68-42.3-19.83-4.65-3.92-9.07-8.75-10.36-14.63-6.52,4.22-15.1,11.16-22.29,21.97-6.63,9.96-9.71,19.66-11.2,26.76,6.11,5.92,13.76,10.04,21.29,14.05,6.67,3.54,13.41,7.11,20.7,9.13,7.28,2.02,15.25,2.39,22.26-.43,4.08,6.55,11.04,11.21,18.14,14.24,7.1,3.03,14.85,4.31,22.56,4.68,8.36.39,16.98-.37,24.68-3.49,5.06-16.24,4.57-41.17-.22-55.36-13.9,4.44-28.89,5.47-43.26,2.91Z"/>
          <path class="cls-4" d="M136.21,303.6c.98-2.72,1.96-5.44,2.94-8.16,0,.05,0,.11,0,.16,4.55-.29,9.02.02,13.56.49-1.49,1.45-3.85,3.42-7.16,5-3.75,1.79-7.15,2.34-9.34,2.52Z"/>
        </g>
      </g>
    </g>
  </g>
</svg>