<?xml version="1.0" encoding="UTF-8"?>
<svg id="_圖層_2" data-name="圖層 2" xmlns="http://www.w3.org/2000/svg" viewBox="0 0 375.41 531.1">
  <defs>
    <style>
      .cls-1 {
        stroke: #d5d5d5;
      }

      .cls-1, .cls-2, .cls-3 {
        fill: none;
        stroke-linecap: round;
        stroke-linejoin: round;
      }

      .cls-1, .cls-3 {
        stroke-width: 1.45px;
      }

      .cls-4 {
        fill: #d3a394;
      }

      .cls-5 {
        fill: #1e447d;
      }

      .cls-6 {
        fill: #fff;
      }

      .cls-7 {
        fill: #855e4f;
      }

      .cls-8 {
        fill: #5e5748;
      }

      .cls-2 {
        stroke: #595043;
        stroke-width: 1.09px;
      }

      .cls-3 {
        stroke: #564f40;
      }

      .cls-9 {
        fill: #3e86c7;
      }
    </style>
  </defs>
  <g id="_圖層_1-2" data-name="圖層 1">
    <g>
      <g>
        <path class="cls-4" d="M100.97,133c1.11,2.87,2.22,5.77,2.79,8.79.57,3.03.58,6.22-.49,9.11-.57,1.54-1.45,3.13-1.02,4.71.52,1.89,2.67,2.79,4.6,3.12,7.18,1.23,14.62-1.92,19.9-6.94.79-.75,1.56-1.57,2.03-2.56.47-.99.62-2.18.16-3.17-.85-1.82-3.18-2.22-4.98-3.11-2.37-1.16-4.05-3.41-5.17-5.81-1.12-2.39-1.76-4.98-2.64-7.47-1-2.83-2.59-5.82-5.43-6.79-2.84-.97-6.14.58-7.78,3.1-1.64,2.52-1.85,5.75-1.26,8.7"/>
        <path class="cls-7" d="M103.62,139.57c.62,2.2,2.3,4.08,4.41,4.94,2.12.86,4.63.69,6.61-.45,1.98-1.14,3.39-3.23,3.7-5.49.4-2.84-1-5.86-3.42-7.4-2.42-1.54-5.74-1.53-8.15.02-2.41,1.56-3.79,4.58-3.38,7.42.08.59.25,1.2.66,1.64"/>
      </g>
      <g>
        <g>
          <path class="cls-4" d="M108.45,155.37c-21.81-10.39-44.96-17.98-68.69-22.51-.95-.18-2.34-5.14-2.57-5.85-.86-2.69-1.76-5.37-2.69-8.03-1.87-5.33-3.9-10.6-6.08-15.8-4.36-10.42-9.32-20.58-14.86-30.42-3.59,1.97-7.51,3.34-11.54,4.03-.06,9.03.37,18.06,1.27,27.04.87,8.67,1.29,17.6,3.27,26.11,1.56,6.7,4.25,13.25,8.72,18.49,5.42,6.36,13.04,10.36,20.47,14.2,17.96,9.3,35.92,18.6,53.88,27.91l18.83-35.17Z"/>
          <path class="cls-7" d="M69.89,140.33c-7.59,9.14-14.3,19.01-20.02,29.43,4.29,2.79,8.68,5.1,13.41,7.07l6.61-36.5Z"/>
          <path class="cls-2" d="M39.51,132.93c-1.4.22-2.79.44-4.19.66"/>
        </g>
        <g>
          <path class="cls-4" d="M12.87,78.73c-.51.3-1.04.53-1.59.63-2.83.51-5.56.49-8.27-.61-.41-.17-.87-.37-1.05-.79-.22-.5-.29-1.15-.41-1.68-.26-1.09-.5-2.19-.71-3.3-.42-2.21-.72-4.44-.81-6.68-.16-4.25.43-8.7,2.69-12.38.28-.46.6-.92,1.03-1.24.43-.32,1.01-.5,1.53-.35.52.15.93.69.83,1.23.31-.6.51-1.24.76-1.86.25-.62.58-1.24,1.08-1.68.5-.45,1.22-.7,1.86-.51.65.19,1.14.9.96,1.54.34-.69.74-1.39,1.41-1.77.67-.38,1.65-.3,2.04.36.18.31.21.68.22,1.04.04.89.04,1.79.02,2.68.26-.62.9-1.05,1.57-1.06.67,0,1.32.42,1.59,1.03.3.7.11,1.51-.07,2.25-.36,1.43-.68,2.86-.97,4.3-.27,1.35-.41,2.74-.69,4.07-.23,1.09-.42,2.2-.56,3.31-.07.55-.16,1.11-.18,1.67-.02.43.07.72.47.28.97-1.06,2.1-1.97,3.32-2.71,1.02-.61,2.55-1.58,3.77-1.54.54.02,1.1.43,1.1.97,0,.28-.14.53-.28.78-1.49,2.55-3.12,5.03-5.09,7.24-1.06,1.19-2.21,2.3-3.47,3.28-.64.5-1.35,1.08-2.11,1.52Z"/>
          <path class="cls-2" d="M15.07,69.16c-1.39.21-2.74,1.13-3.86,1.94-1.25.9-2.37,1.98-3.31,3.19"/>
          <g>
            <path class="cls-2" d="M13.26,62.9c-3.47-.57-6.86-.61-10.23.38"/>
            <path class="cls-2" d="M5.01,62.63c-.37-3.14-.02-6.37,1.02-9.36"/>
            <path class="cls-2" d="M10.81,50.86c-1.14,3.58-1.87,7.28-2.19,11.02"/>
            <path class="cls-2" d="M14.56,53.16c-1.35,2.97-2.24,6.14-2.63,9.38"/>
          </g>
        </g>
      </g>
      <g>
        <g>
          <path class="cls-4" d="M124.5,148.18c8.66-22.56,20.22-44,34.31-63.62.56-.78-1.84-5.34-2.17-6.02-1.23-2.54-2.42-5.1-3.57-7.68-2.31-5.15-4.47-10.37-6.47-15.65-4.01-10.55-7.41-21.34-10.17-32.29,3.96-1.04,7.75-2.74,11.15-5.03,6.26,6.5,12.17,13.35,17.7,20.48,5.34,6.89,11.18,13.65,15.61,21.19,3.48,5.93,6.04,12.54,6.41,19.41.45,8.35-2.32,16.49-5.06,24.39-6.62,19.11-13.24,38.23-19.85,57.34l-37.87-12.54Z"/>
          <path class="cls-7" d="M142.72,109.41c11.8,1.59,23.34,5.08,34.05,10.3-1.43,6.27-3.31,12.41-5.51,18.45l-28.53-28.74Z"/>
          <path class="cls-2" d="M159.02,84.13c1.13-.62,2.42-.95,3.71-.93"/>
        </g>
        <g>
          <path class="cls-4" d="M140.1,25.56c.58-.12,1.13-.3,1.6-.58,2.46-1.49,4.49-3.31,5.78-5.94.2-.4.41-.85.27-1.29-.16-.52-.54-1.05-.8-1.53-.53-.99-1.08-1.98-1.65-2.94-1.15-1.93-2.4-3.8-3.82-5.54-2.7-3.29-6.09-6.23-10.22-7.49-.52-.16-1.06-.29-1.6-.25-.54.04-1.09.29-1.38.75-.29.46-.24,1.14.19,1.47-.63-.24-1.2-.59-1.81-.89-.6-.3-1.25-.54-1.92-.54-.67,0-1.37.28-1.73.85-.36.57-.26,1.43.3,1.79-.71-.29-1.48-.55-2.23-.39-.75.16-1.43.87-1.29,1.63.07.35.3.65.52.93.56.69,1.15,1.37,1.77,2.02-.6-.29-1.37-.19-1.88.25-.5.44-.71,1.19-.5,1.83.24.73.91,1.2,1.55,1.64,1.21.83,2.41,1.69,3.58,2.58,1.09.83,2.12,1.78,3.21,2.59.9.67,1.77,1.37,2.61,2.1.42.37.85.73,1.24,1.13.3.31.42.58-.17.52-1.43-.15-2.88-.08-4.29.17-1.17.21-2.96.5-3.85,1.35-.39.37-.54,1.05-.18,1.45.19.21.46.31.73.39,2.81.93,5.67,1.7,8.61,2.05,1.58.19,3.18.25,4.77.16.81-.05,1.73-.09,2.59-.26Z"/>
          <path class="cls-2" d="M132.12,19.86c1.18-.76,2.8-.97,4.18-1.11,1.53-.15,3.08-.09,4.59.19"/>
          <g>
            <path class="cls-2" d="M129.32,13.97c2.22-2.73,4.73-5.01,7.91-6.5"/>
            <path class="cls-2" d="M135.32,8.3c-1.81-2.6-4.21-4.78-6.96-6.33"/>
            <path class="cls-2" d="M123.18,3.33c3.22,1.92,6.23,4.21,8.94,6.8"/>
            <path class="cls-2" d="M121.89,7.54c2.98,1.33,5.75,3.11,8.19,5.28"/>
          </g>
        </g>
      </g>
      <g>
        <g>
          <path class="cls-4" d="M168.72,354.74c1.27-8.07,2.86-16.11,3.81-24.18,1.97-16.62,1.31-38.18-12.32-49.99-3.78-3.28-8.5-5.65-13.49-5.91-7.76-.41-15.07,4.33-19.78,10.51-4,5.26-9.31,14.44-9.21,21.2.13,8.53.46,17.16.73,25.71.57,17.97,1.7,35.91,3.37,53.81,1.72,18.45,4.03,36.85,6.91,55.15.72,4.58,8.93,54.24,10.25,54.06,9.39-1.25,19.62.03,24.04-10.41,2.54-6.01,2.21-12.78,2.54-19.3.89-17.84,6.98-35.34,5.8-53.16-.66-9.91-3.56-19.56-4.38-29.46-.78-9.42.27-18.74,1.74-28.03Z"/>
          <path class="cls-2" d="M167.79,382.64c-.83,2.49-2,4.87-3.48,7.03"/>
          <path class="cls-7" d="M172.21,350.84c.58,8.98-3.19,13.68-3.91,23.67-8.56-1.2-17.14-2.6-26.06-4.29-8.49-1.61-12.67-3.99-22.34-9.13-.24-2.25-.05-4.46,0-6.72l52.31-3.53Z"/>
        </g>
        <path class="cls-9" d="M166.35,494.39c.83-.98,1.38-2.2,1.46-3.47.08-1.28-.19-2.54-.43-3.8-.99-5.27-1.42-10.65-1.27-16.01.02-.62-.02-1.37-.55-1.7-.28-.18-.63-.18-.97-.18-1.95,0-3.78-.25-5.71-.32-2.05-.08-4.15-.26-6.2-.13-6.61.41-13.26,1.67-19.71,3.05.98,8.74,3.12,17.34,6.33,25.52,1.56,3.96,8.45,3.82,12.68,3.44,3.12-.28,6.1-1.23,8.86-2.67,1.45-.76,2.84-1.64,4.19-2.56.48-.33.91-.72,1.29-1.17Z"/>
        <g>
          <path class="cls-6" d="M122.61,531.1c.24-11.48,5.84-22.58,14.63-29.93-4.37-9.77,15.17-15.37,19.4-5.33.88,2.08,7.69-2.37,11.55-6.3,3.15,5.25,9.91,12.82,10.98,19.59l-56.57,21.98Z"/>
          <g>
            <path class="cls-2" d="M128.55,512.17c4.03-2.08,9.1-1.99,13.05.24"/>
            <path class="cls-2" d="M132.63,505.98c4.2-.96,8.8-.08,12.34,2.37"/>
            <path class="cls-2" d="M136.93,501.03c4.39-1.45,9.43-.74,13.25,1.85"/>
          </g>
        </g>
      </g>
      <path class="cls-4" d="M339.03,418.74c-4.13,2.97-8.53,5.62-12.59,8.67-2.38,1.78-4.87,5.96-8.09,5.72-2.47-.18-4.52-1.88-6.39-3.5-6.04-5.23-12.08-10.47-18.12-15.7-10.71-9.28-21.57-18.73-29.21-30.67-5.59-8.73-9.4-18.71-16.42-26.34-7.47-8.12-17.84-12.79-27.22-18.62-16.88-10.5-31.07-25.29-40.85-42.59-2.91-5.16-5.51-10.99-4.45-16.82,1.65-9.04,12.43-16.92,20.41-20.16,4.66-1.89,9.75-3.18,14.71-2.34,21.32,3.6,132.33,159.39,128.22,162.35Z"/>
      <path class="cls-2" d="M241.98,350.78c2.57,1.9,5.86,2.79,9.04,2.43"/>
      <path class="cls-7" d="M258.42,303.76c-1.14,6.69-4.33,12.87-8.1,18.51-4.97,7.44-9.81,12.53-12.99,15.57-2.68,2.56-5.09,4.56-6.93,5.99-2.27-1.01-4.82-2.31-7.49-3.98-3.06-1.92-5.62-3.9-7.7-5.72l43.21-30.37Z"/>
      <path class="cls-9" d="M318.71,436.38c-1.42-.94-2.7-2.2-4-3.29-5.05-4.25-10.09-8.5-15.14-12.76,3.63-4.1,7.67-8.38,12.01-11.77,5.22-4.07,11.04-7.54,16.78-10.78,5.05,7.19,9.16,15.05,12.18,23.31,1.46,4-3.79,8.46-7.21,10.99-3,2.21-6.45,3.54-10.09,4.24-1.44.28-3.18.93-4.44.11-.03-.02-.05-.03-.08-.05Z"/>
      <g>
        <path class="cls-6" d="M375.41,435.28c-7.79-8.44-19.34-13.04-30.8-12.72-3.21-10.21-21.54-1.45-18.06,8.87.73,2.14-7.33,3.32-12.83,2.94,1.12,6.02,1.08,16.17,4.76,21.95l56.92-21.04Z"/>
        <g>
          <path class="cls-2" d="M345.09,423.08c-4.01,1.16-7.38,4.32-8.8,8.25.07-.05.14-.1.21-.15"/>
          <path class="cls-2" d="M344.54,432.6c.43-2.05,1.45-3.97,2.91-5.46,1.46-1.49,3.36-2.56,5.4-3.03"/>
          <path class="cls-2" d="M350.18,433.05c1.58-3.82,5.27-6.69,9.37-7.28"/>
        </g>
      </g>
      <path class="cls-8" d="M120.06,94.43c2.61,2.87,3.99,6.82,3.74,10.69-.11,1.69-.57,3.45-1.79,4.64-1.47,1.44-3.73,1.73-5.76,1.43-4.76-.7-8.93-4.44-10.14-9.09-.81-3.1-.28-6.48,1.29-9.25.68-1.21,1.66-2.89,3.17-3.06,1.5-.16,3.41.62,4.75,1.23,1.79.81,3.42,1.97,4.74,3.42Z"/>
      <path class="cls-4" d="M87.1,127.91c10,22.66,53.55,9.91,33.62-22.96-13.93-24.65-44.99,1.17-33.62,22.96Z"/>
      <path class="cls-8" d="M93.86,122.98c1.92-4.69-.41-9.77-3.12-13.66,8.75-.74,22.44-5.04,23.12-14.73,1.44-20.43-19.05-11.03-28.31-2-4.21,4.02-7.79,9.63-6.83,15.67.11,1,.06,1.2-.68,1.94-2.42,2.44-3.59,6.05-2.91,9.44,1.28,8.63,15.26,12.32,18.73,3.33Z"/>
      <path class="cls-3" d="M80.23,102.7c12.28,5.16,31.63-4.42,26.39-19.25"/>
      <path class="cls-3" d="M84.25,95.24c7.42,5.11,18.14-2.55,16.54-11.35"/>
      <path class="cls-3" d="M76.52,121.68c.67-12.64,12.94-8.09,16.09.46"/>
      <path class="cls-4" d="M84.19,121.94c-1.84,1.03-2.87,3.2-2.86,5.31,0,2.11.92,4.13,2.22,5.8.9,1.16,2,2.19,3.33,2.8,1.33.61,2.91.76,4.27.19,2.45-1.02,3.49-4.13,2.93-6.72-.82-3.78-5.42-9.88-9.88-7.38Z"/>
      <path class="cls-7" d="M88.82,132.81c.39.1.85.03,1.12-.27.32-.35.3-.92.08-1.35-.22-.42-.6-.74-.95-1.07-.35-.32-.71-.68-.86-1.13-.15-.47-.07-.98.03-1.46.1-.48.23-.98.15-1.47-.08-.49-.42-.97-.91-1.04-.34-.05-.68.11-.92.36-.24.25-.38.57-.48.9-.33,1.04-.27,2.17.11,3.19.32.86.47,1.56,1.12,2.25.41.44.91.93,1.51,1.09Z"/>
      <path class="cls-2" d="M109.69,114.59c.91-.28,1.94-.24,2.79.18.86.42,1.52,1.25,1.67,2.2.13.86-.19,1.77-.82,2.37-.63.59-1.57.85-2.42.67"/>
      <path class="cls-7" d="M96.87,128.57c-.18,5.63,10.01,5.66,9.17-.25-.65-5.01-8.98-5.04-9.17.25Z"/>
      <path class="cls-7" d="M119.87,117.92c.23,1.53,1.11,2.95,2.38,3.84.4.28.84.51,1.33.59s1.01-.03,1.37-.35c.49-.43.6-1.15.63-1.8.05-1.01-.02-2.03-.21-3.02-.2-1.06-.55-2.15-1.31-2.92-.77-.78-2.48-1.36-3.29-.36-.85,1.05-1.09,2.74-.9,4.03Z"/>
      <path class="cls-8" d="M100.97,116.66c.12.61.47,1.17.96,1.55.36.28.84.47,1.28.34.46-.13.77-.58.91-1.04.31-1.05-.15-2.27-1.08-2.85-.27-.17-.58-.29-.9-.28-1.09.03-1.34,1.44-1.18,2.29Z"/>
      <path class="cls-8" d="M109.26,126.61c2.17,4.74,9.08,2.67,10.11-1.88l-10.11,1.88Z"/>
      <path class="cls-8" d="M114.76,111.6c.12.61.47,1.17.96,1.55.36.28.84.47,1.28.34.46-.13.77-.58.91-1.04.31-1.05-.15-2.27-1.08-2.85-.27-.17-.58-.29-.9-.28-1.09.03-1.34,1.44-1.18,2.29Z"/>
      <path class="cls-9" d="M266.77,295.17c-8.85,17.32-37.1,35.19-54.8,46.26-10.44-13.45-23.34-27.9-35.61-43.29,2.96,20.77,2.8,35.01,5.76,55.78-23.08,8.01-46.84,10.51-70.97,6.68-4.33-28.46-1.71-59.71,1.49-88.32-2.19-4.23-2.66-7.97-4.85-12.2,31.21-7.09,63.23-19.35,90.92-35.42,1.58,4.31,2.8,8.25,4.38,12.56,19.52,15.57,45.47,40.88,63.69,57.96Z"/>
      <path class="cls-5" d="M176.31,298.14c-7.12,1.25-14.52.82-21.45-1.23,5.37,12.98,13.04,25.4,24.76,33.68l-3.31-32.45Z"/>
      <g>
        <path class="cls-6" d="M151.81,278.39c.52,1.09,2.04,1.54,3.08.92,1.03-.62,1.36-2.16.68-3.15-1.55-2.24-4.89-.13-3.76,2.23Z"/>
        <path class="cls-6" d="M169.93,272.17c.33.53.88.96,1.5,1.06.93.16,1.89-.45,2.26-1.32.7-1.62-.61-3.96-2.46-4-2.1-.04-2.11,2.95-1.29,4.26Z"/>
      </g>
      <path class="cls-6" d="M111.91,275.55c-.83.08-1.67.16-2.51.22-4.94-14.4-9.33-28.97-13.88-43.5-2.27-7.27-4.58-14.52-7.02-21.73-1.21-3.6-2.46-7.18-3.74-10.75-1.21-3.38-2.74-6.76-3.65-10.2-.17-.66-.34-1.17-.86-1.65-.57-.52-1.29-.85-2-1.16-1.87-.83-21.58-10.04-21.62-9.91,4.03-12.71,8.59-25.23,13.83-37.53,5.54,1.89,11.16,3.56,16.83,5,2.8.71,5.62,1.37,8.45,1.97,2.45.52,5.32.81,7.42,2.32,1.33.96,2.32,1.91,3.95,2.47,3.34,1.16,7.13.92,10.34-.53,2.07-.93,3.97-2.37,5.07-4.35.59-1.07.94-2.26,1.3-3.44,1.77-5.76,4.31-11.19,6.79-16.67,1.33-2.94,2.66-5.88,3.98-8.81.35-.78,3.68-8.88,3.98-8.81,15.1,3.23,27.85,12.38,38.94,22.76-3.79,7.41-6.89,15.39-12.04,22.08-.35.47,1.57,4.53,1.81,5.19,10.06,27.36,23.96,52.96,38.04,78.44-24.42,25.28-59.86,33.57-93.43,38.62Z"/>
      <path class="cls-2" d="M165.39,153.31c-.78-.89-1.56-1.78-2.34-2.67"/>
      <path class="cls-2" d="M80.73,187.92c-.38-1.84-.15-3.8.64-5.5"/>
      <g>
        <path class="cls-1" d="M118.05,186.18c-4.13.59-7.74,3.89-8.69,7.96-.97,4.13.7,8.55,3.5,11.74,2.81,3.18,6.62,5.3,10.5,7.02,5.95,2.65,12.24,4.53,18.67,5.57,4.2-5.92,7.46-12.5,9.63-19.43,1.59-5.09,2.55-10.74.46-15.64-1.6-3.74-5.01-6.7-8.98-7.58-3.97-.88-8.39.41-11.15,3.4-1.26,1.37-2.13,3.08-2.55,4.88-.34,1.45.01,3.63-1.69,4.3-1.54.61-3.08-1.03-4.43-1.57-1.66-.66-3.49-.91-5.26-.65Z"/>
        <path class="cls-1" d="M122.17,202.78c1.93-.72,3.86-1.44,5.79-2.15,1.04,1.91,2.07,3.83,3.11,5.74.25-4.03.5-8.06.75-12.09,1.8,1.76,3.47,3.65,5,5.64l8.72-3.3"/>
      </g>
    </g>
  </g>
</svg>