<?xml version="1.0" encoding="UTF-8"?>
<svg id="_圖層_2" data-name="圖層 2" xmlns="http://www.w3.org/2000/svg" viewBox="0 0 372.02 148.73">
  <defs>
    <style>
      .cls-1 {
        opacity: .3;
      }

      .cls-2 {
        fill: #c6ba8b;
      }
    </style>
  </defs>
  <g id="_圖層_1-2" data-name="圖層 1">
    <g class="cls-1">
      <path class="cls-2" d="M0,0h69.05c17,0,30.38,4.67,38.88,13.17,6.8,6.8,10.2,15.09,10.2,25.71,0,16.78-8.92,26.13-19.55,32.08,17.21,6.59,27.83,16.57,27.83,36.97,0,27.2-22.1,40.79-55.67,40.79H0V0h0ZM62.04,60.13c14.45,0,23.58-4.67,23.58-16.15,0-9.77-7.65-15.3-21.46-15.3H31.87v31.45h30.17ZM70.75,120.04c14.45,0,23.16-5.1,23.16-16.57,0-9.99-7.44-16.15-24.22-16.15H31.87v32.72h38.88Z"/>
      <path class="cls-2" d="M153.4,0h35.27l39.09,62.89L266.85,0h35.27v148.73h-32.51V51.63l-41.86,63.53h-.85l-41.43-62.89v96.46h-32.08V0Z"/>
      <path class="cls-2" d="M339.3,0h32.72v148.73h-32.72V0Z"/>
    </g>
  </g>
</svg>