<?xml version="1.0" encoding="UTF-8"?>
<svg id="_圖層_2" data-name="圖層 2" xmlns="http://www.w3.org/2000/svg" viewBox="0 0 697.02 151.83">
  <defs>
    <style>
      .cls-1 {
        fill: #fff;
      }

      .cls-2 {
        font-family: FZLTTHB--B51-0, 'Lantinghei TC';
        font-size: 30px;
      }

      .cls-3 {
        fill: #5e5748;
      }

      .cls-4 {
        fill: #c6ba8b;
      }
    </style>
  </defs>
  <g id="_圖層_1-2" data-name="圖層 1">
    <g>
      <g>
        <path d="M92.73,111.64h-10.9v-24.02h10.31c5.08.16,7.77,2.07,8.09,5.74-.08,3.05-1.72,4.92-4.92,5.62v.12c3.67.63,5.66,2.54,5.98,5.74,0,4.53-2.85,6.8-8.55,6.8ZM91.44,90.43h-5.98v7.38h5.98c3.2-.08,4.84-1.37,4.92-3.87-.08-2.34-1.72-3.52-4.92-3.52ZM91.91,100.75h-6.45v8.2h6.68c3.44,0,5.16-1.44,5.16-4.34-.16-2.5-1.95-3.79-5.39-3.87Z"/>
        <path d="M115.93,111.64l-7.5-21.09h-.12v21.09h-3.52v-24.02h5.98l6.8,20.04h.12l6.56-20.04h6.09v24.02h-3.63v-21.09h-.12c-.47,1.8-2.85,8.83-7.15,21.09h-3.52Z"/>
        <path d="M136.44,111.64v-24.02h3.63v24.02h-3.63Z"/>
        <path d="M166.09,97.35h-16.41v-2.58h16.41v2.58ZM166.09,104.73h-16.41v-2.58h16.41v2.58Z"/>
        <path d="M193.63,114.1h-7.5v-28.95h7.5c-2.89,3.75-4.34,8.59-4.34,14.53-.08,5.86,1.37,10.66,4.34,14.41Z"/>
        <path d="M203.82,99.93v-4.8h1.17v-8.44h9.61v8.44h1.17v4.69h-1.41v10.55c0,1.88-.74,2.85-2.23,2.93-.31,0-.74.04-1.29.12h-1.05c-.08-.86-.23-1.64-.47-2.34h1.76c.7,0,1.01-.27.94-.82v-1.17h-4.22v4.45h-2.34v-13.59h-1.64ZM206.17,97.35v1.99h7.38v-1.99h-7.38ZM207.34,88.91v6.21h1.64v-4.1h3.4v-2.11h-5.04ZM207.81,101.33v2.11h4.22v-2.11h-4.22ZM207.81,105.2v2.11h4.22v-2.11h-4.22ZM210.5,92.78v2.34h1.88v-2.34h-1.88ZM217.07,108.13v-5.27h13.36v5.27h-1.99l.59.12c-.47.78-.98,1.56-1.52,2.34h4.57v2.11h-16.52v-2.11h4.57l-1.52-2.23.94-.23h-2.46ZM216.01,101.45v-2.11h15.82v2.11h-15.82ZM216.71,97.93v-9.84h3.63v-2.46h2.34v2.46h2.11v-2.46h2.46v2.46h3.63v9.84h-14.18ZM218.82,90.08v2.11h2.11v-2.11h-2.11ZM218.82,93.83v2.11h2.11v-2.11h-2.11ZM219.64,104.61v1.76h8.2v-1.76h-8.2ZM221.17,108.13c.08.16.23.43.47.82.23.39.62.94,1.17,1.64h2.11l1.52-2.46h-5.27ZM222.69,90.08v2.11h2.11v-2.11h-2.11ZM222.69,93.83v2.11h2.11v-2.11h-2.11ZM228.67,90.08h-1.99v2.11h1.99v-2.11ZM226.68,93.83v2.11h1.99v-2.11h-1.99Z"/>
        <path d="M236.17,89.26l-.35-2.23c8.67-.16,16.48-.39,23.44-.7l.47,2.23c-2.27.08-5.7.2-10.31.35v1.99h12.54v2.23h-12.54v1.88h9.73v9.96h-9.73v1.76h10.55v1.99h-10.55v1.64h12.54v2.11h-28.24v-2.11h12.54v-1.64h-10.43v-1.99h10.43v-1.76h-9.61v-9.96h9.61v-1.88h-12.42v-2.23h12.42v-1.88c-4.61.16-7.97.23-10.08.23ZM239.68,97v1.99h6.56v-1.99h-6.56ZM239.68,100.86v2.11h6.56v-2.11h-6.56ZM256.09,97h-6.68v1.99h6.68v-1.99ZM249.41,100.86v2.11h6.68v-2.11h-6.68Z"/>
        <path d="M284.45,114.34h-2.7c-3.59-3.75-5.43-8.59-5.51-14.53.08-5.78,1.91-10.78,5.51-15h2.7c-3.59,4.38-5.35,9.38-5.27,15,0,5.55,1.76,10.39,5.27,14.53Z"/>
        <path d="M295.46,101.92c-.23-.39-.7-1.01-1.41-1.88-.31-.39-.55-.7-.7-.94,3.67-2.73,6.25-5.86,7.73-9.38l3.05,1.29c-2.19,4.38-5.08,8.01-8.67,10.9ZM296.05,112.35l-.82-2.81c.31,0,.78-.04,1.41-.12h1.29c3.05-4.22,5.7-8.55,7.97-13.01l3.28,1.52c-2.19,3.52-4.65,7.27-7.38,11.25l11.95-.7c-.55-.7-1.33-1.68-2.34-2.93-.7-1.01-1.25-1.76-1.64-2.23l2.46-1.64c1.41,1.72,3.59,4.41,6.56,8.09.78.86,1.37,1.52,1.76,1.99l-2.81,1.88-1.99-2.58c-2.97.16-7.58.47-13.83.94-2.58.16-4.53.27-5.86.35ZM320.31,100.86c-4.61-3.05-7.85-6.95-9.73-11.72h-7.27v-2.46h9.61c1.95,4.84,5.08,8.55,9.38,11.13-.08.08-.2.23-.35.47-.7,1.17-1.25,2.03-1.64,2.58Z"/>
        <path d="M340,113.4v-13.36h-9.96c0,5.47-1.25,9.96-3.75,13.48-.31-.31-.98-.9-1.99-1.76.23.23,0,.04-.7-.59,2.27-2.89,3.32-7.27,3.16-13.12v-10.2c7.89-.16,15.23-.62,22.03-1.41l1.17,3.16c-7.34.63-13.95,1.05-19.8,1.29v5.98h21.68v3.16h-8.44v13.36h-3.4Z"/>
        <path d="M361.09,84.81h2.7c3.59,4.06,5.43,9.06,5.51,15-.08,5.94-1.92,10.78-5.51,14.53h-2.7c3.52-3.98,5.23-8.83,5.16-14.53.08-5.7-1.64-10.7-5.16-15Z"/>
        <path d="M411.25,87.85l-25.55,25.31-1.17-.94,25.78-25.55.94,1.17Z"/>
        <path d="M436.68,113.17c0-.08-.04-.23-.12-.47-.08-1.02-.2-1.8-.35-2.34h4.34c1.72.08,2.54-.55,2.46-1.88v-3.16c-4.84,2.97-11.33,5.7-19.45,8.2-.16-.47-.55-1.21-1.17-2.23-.16-.31-.27-.55-.35-.7,6.64-1.48,12.11-3.4,16.41-5.74-1.02,0-2.62.08-4.8.23-6.88.23-10.59.35-11.13.35l-.12-2.58c.86,0,1.99-.04,3.4-.12v-14.3h6.56l.94-2.93,3.52.35c-.31.78-.66,1.64-1.05,2.58h10.2v11.6l2.81-2.11,1.64,2.34c-1.48,1.17-2.97,2.23-4.45,3.16v5.74c.08,2.65-1.33,3.98-4.22,3.98h-5.04ZM428.82,90.9v2.34h14.18v-2.34h-14.18ZM428.82,95.47v2.34h14.18v-2.34h-14.18ZM428.82,102.74c1.41-.08,3.59-.16,6.56-.23,3.75-.16,6.25-.27,7.5-.35h.12v-2.23h-14.18v2.81Z"/>
        <path d="M452.03,90.55v-2.46h12.66v-2.58h3.16v2.58h12.42v2.46h-28.24ZM453.43,113.4v-13.36h25.55v9.84c.08,2.19-1.09,3.32-3.52,3.4-.94.08-2.38.12-4.34.12-.08-.55-.23-1.29-.47-2.23-.08-.23-.12-.39-.12-.47h3.28c1.48.08,2.19-.43,2.11-1.52v-6.68h-19.45v10.9h-3.05ZM456.36,98.4v-6.09h19.57v6.09h-19.57ZM459.41,94.3v1.99h13.48v-1.99h-13.48ZM459.64,110.35v-6.09h13.01v6.09h-13.01ZM462.57,106.25v2.34h7.15v-2.34h-7.15Z"/>
        <path d="M486.7,94.49c3.09-2.37,4.83-3.78,4.83-5.1,0-1.08-.66-1.74-1.83-1.74-.78,0-1.56.48-2.13,1.26l-1.17-1.02c.9-1.05,2.1-1.83,3.54-1.83,2.16,0,3.48,1.11,3.48,3.09,0,1.62-1.62,3.03-3.63,4.8h4.08v1.62h-7.17v-1.08Z"/>
        <path d="M520.77,114.34h-2.7c-3.59-3.75-5.43-8.59-5.51-14.53.08-5.78,1.91-10.78,5.51-15h2.7c-3.59,4.38-5.35,9.38-5.27,15,0,5.55,1.76,10.39,5.27,14.53Z"/>
        <path d="M531.78,101.92c-.23-.39-.7-1.01-1.41-1.88-.31-.39-.55-.7-.7-.94,3.67-2.73,6.25-5.86,7.73-9.38l3.05,1.29c-2.19,4.38-5.08,8.01-8.67,10.9ZM532.37,112.35l-.82-2.81c.31,0,.78-.04,1.41-.12h1.29c3.05-4.22,5.7-8.55,7.97-13.01l3.28,1.52c-2.19,3.52-4.65,7.27-7.38,11.25l11.95-.7c-.55-.7-1.33-1.68-2.34-2.93-.7-1.01-1.25-1.76-1.64-2.23l2.46-1.64c1.41,1.72,3.59,4.41,6.56,8.09.78.86,1.37,1.52,1.76,1.99l-2.81,1.88-1.99-2.58c-2.97.16-7.58.47-13.83.94-2.58.16-4.53.27-5.86.35ZM556.63,100.86c-4.61-3.05-7.85-6.95-9.73-11.72h-7.27v-2.46h9.61c1.95,4.84,5.08,8.55,9.38,11.13-.08.08-.2.23-.35.47-.7,1.17-1.25,2.03-1.64,2.58Z"/>
        <path d="M586.16,112.93c-7.5-2.11-12.15-6.6-13.95-13.48h-5.04c-.08,6.02-1.64,10.7-4.69,14.06l-2.46-2.46c2.81-2.89,4.1-7.34,3.87-13.36v-10.31h21.33v13.59h-3.16v-1.52h-6.45c1.64,5.23,5.78,8.79,12.42,10.66-.31.23-.78.9-1.41,1.99-.23.39-.39.66-.47.82ZM567.18,90.43v5.98h14.88v-5.98h-14.88Z"/>
        <path d="M594.7,94.49c3.09-2.37,4.83-3.78,4.83-5.1,0-1.08-.66-1.74-1.83-1.74-.78,0-1.56.48-2.13,1.26l-1.17-1.02c.9-1.05,2.1-1.83,3.54-1.83,2.16,0,3.48,1.11,3.48,3.09,0,1.62-1.62,3.03-3.63,4.8h4.08v1.62h-7.17v-1.08Z"/>
        <path d="M615.41,84.81h2.7c3.59,4.06,5.43,9.06,5.51,15-.08,5.94-1.92,10.78-5.51,14.53h-2.7c3.52-3.98,5.23-8.83,5.16-14.53.08-5.7-1.64-10.7-5.16-15Z"/>
        <path d="M646.35,85.16h7.5v28.95h-7.5c2.97-3.75,4.41-8.55,4.34-14.41,0-5.94-1.45-10.78-4.34-14.53Z"/>
      </g>
      <text class="cls-2" transform="translate(75.1 63.69)"><tspan x="0" y="0">身體質量指數 (Body mass index, BMI)</tspan></text>
      <g>
        <rect class="cls-4" x="16.08" y="138.69" width="680.95" height="8.03"/>
        <rect class="cls-3" x="24.46" y="146.72" width="6.98" height="5.11"/>
        <rect class="cls-3" x="674.31" y="146.72" width="6.98" height="5.11"/>
        <path class="cls-3" d="M70.53,18.37H8.89c-1.35,0-2.57-.81-3.09-2.05L.18,3.09C-.44,1.63.63,0,2.23,0h62.83l6.89,16.22c.43,1.02-.31,2.14-1.42,2.14Z"/>
        <path class="cls-4" d="M71.07,18.37H12.63c-1.82,0-3.47-1.09-4.18-2.77L2.63,1.87c-.38-.89.28-1.87,1.24-1.87h61.24c1.77,0,3.37,1.06,4.06,2.69l4.8,11.31c.88,2.07-.64,4.37-2.89,4.37Z"/>
        <polygon class="cls-1" points="69.3 12.51 11.36 12.51 6.92 2.04 64.86 2.04 69.3 12.51"/>
        <rect class="cls-4" x="35.12" y="15.17" width="5.71" height="124.79"/>
      </g>
    </g>
  </g>
</svg>