<?xml version="1.0" encoding="UTF-8"?>
<svg id="_圖層_2" data-name="圖層 2" xmlns="http://www.w3.org/2000/svg" xmlns:xlink="http://www.w3.org/1999/xlink" viewBox="0 0 152.27 95.71">
  <defs>
    <style>
      .cls-1, .cls-2, .cls-3, .cls-4 {
        fill: none;
      }

      .cls-5 {
        fill: #e69a80;
      }

      .cls-5, .cls-6 {
        opacity: .4;
      }

      .cls-7 {
        fill: #f5c3af;
      }

      .cls-8, .cls-6 {
        fill: #6fcbc5;
      }

      .cls-9 {
        font-family: Overpass-Black, 'Overpass Black';
        font-size: 10.21px;
        font-weight: 800;
      }

      .cls-9, .cls-10, .cls-11, .cls-12 {
        fill: #fdffff;
      }

      .cls-2, .cls-4, .cls-13 {
        stroke-linecap: round;
        stroke-linejoin: round;
      }

      .cls-2, .cls-13 {
        stroke: #e69a80;
        stroke-width: .87px;
      }

      .cls-14 {
        fill: #429df7;
        opacity: .2;
      }

      .cls-15 {
        fill: #a2e1e4;
      }

      .cls-16 {
        fill: #ea4e9e;
      }

      .cls-10 {
        opacity: .3;
      }

      .cls-11 {
        opacity: .25;
      }

      .cls-3 {
        stroke: #58aba4;
        stroke-miterlimit: 10;
        stroke-width: .65px;
      }

      .cls-4 {
        stroke: #fdffff;
        stroke-width: .49px;
      }

      .cls-17, .cls-13 {
        fill: #f2ae92;
      }

      .cls-18 {
        fill: #58aba4;
      }

      .cls-19 {
        clip-path: url(#clippath);
      }
    </style>
    <clipPath id="clippath">
      <rect class="cls-1" width="152.27" height="95.71"/>
    </clipPath>
  </defs>
  <g id="_圖層_1-2" data-name="圖層 1">
    <g class="cls-19">
      <g>
        <path class="cls-17" d="M141.6,33.36l1.4,1.1c1.22.96,1.96,2.41,2.02,3.96l.41,10.74,1.38,15.47c.1,1.07.24,2.14.42,3.2l1.94,9.18c.76,3.61,2.22,7.03,4.3,10.07l7.38,10.82h-35.88l-11.5-15.27-16.91-34.83-14.96-20.55c-.57-.9-.93-1.92-1.01-2.98-.09-1.4.19-3.19,1.89-4.28l7.65-9.11,33.81,11.27,17.65,11.2Z"/>
        <path class="cls-5" d="M108.83,16.2c4.97,2.08,9.85,4.73,13.37,8.81,1.53,1.78,2.82,3.91,2.95,6.25.16,2.87-1.4,5.52-2.94,7.96-1.64,2.6-3.55,5.37-6.51,6.19-3.98,1.1-7.89-1.79-10.88-4.64-5.79-5.52-11.03-11.61-16.01-17.87-1.55-1.95-3.44-4.62-2.56-7.28.73-2.2,3.08-2.44,5.15-2.69,5.95-.73,11.99,1.01,17.44,3.28Z"/>
        <g>
          <g>
            <g>
              <g>
                <path class="cls-15" d="M53.04,5.76c.94-1.91,3.18-2.87,5.38-2.32,4.02,1.01,10.45,2.71,15.01,4.38,5.09,1.87,10.02,4.46,13.27,6.31,2.77,1.58,5.76,2.74,8.87,3.44l6.61,1.47c2.49.55,4.04,2.99,3.36,5.29-1.21,4.11-5.66,14.79-9.03,19.6-2.63,3.74-7.42,5.54-12.18,4.63-4.3-.83-10.14-2.07-16.7-3.77-4.04-1.05-8.4-2.47-12.3-3.85-7.13-2.52-11.24-9.74-9.42-16.6.5-1.88,1.08-3.85,1.73-5.79,1.6-4.75,3.88-9.67,5.42-12.77Z"/>
                <path class="cls-8" d="M73.42,7.81c5.1,1.86,10.02,4.45,13.27,6.31,1.06.6,2.15,1.15,3.27,1.62-1.37,8.27-4.96,24.18-10.13,26.75-6.4,3.18-23.92-2.72-27.09-9.12-2.77-5.59,5.24-22.2,8.99-29.09,3.74.98,8.25,2.27,11.7,3.53Z"/>
              </g>
              <g>
                <rect class="cls-10" x="58.82" y="13.6" width="23.45" height="22.29" rx="2.71" ry="2.71" transform="translate(24.58 83.72) rotate(-71.4)"/>
                <path class="cls-11" d="M64.58,10.56c-.22,4.63,1.04,9.34,3.64,13.17,2.79,4.1,7.05,7.34,8.52,12.08.3.95.45,1.99.32,2.97-.39.2-.87.25-1.32.09l-17.88-6.02c-.9-.3-1.38-1.27-1.08-2.17l6.39-18.97c.22-.64.77-1.07,1.4-1.15Z"/>
                <rect class="cls-3" x="58.82" y="13.6" width="23.45" height="22.29" rx="2.71" ry="2.71" transform="translate(24.58 83.72) rotate(-71.4)"/>
              </g>
            </g>
            <g>
              <path class="cls-8" d="M50.41,11.4l1.04.35c.89.3,1.37,1.26,1.07,2.16l-3.08,9.14c-.3.89-1.27,1.37-2.16,1.07l-1.23-.42c.46-1.7.98-3.45,1.57-5.17.82-2.42,1.81-4.89,2.79-7.13Z"/>
              <path class="cls-18" d="M49.46,13.64c.84.34,1.27,1.27.98,2.14l-1.53,4.54c-.3.9-1.28,1.38-2.18,1.08h-.02c.28-.95.59-1.91.9-2.86.55-1.64,1.18-3.3,1.84-4.89Z"/>
              <path class="cls-12" d="M35.94,10.63l14.56,4.9c-.01.08-.04.17-.06.25l-1.53,4.54c-.03.08-.06.16-.1.23l-14.56-4.9c-1.39-.47-2.13-1.97-1.67-3.35.23-.69.73-1.23,1.33-1.53.61-.3,1.33-.37,2.02-.14Z"/>
              <path class="cls-14" d="M38.64,11.53l-1.69,5.02-2.7-.91c-1.39-.47-2.13-1.97-1.67-3.36h0c.47-1.39,1.97-2.13,3.36-1.67l2.7.91Z"/>
            </g>
          </g>
          <g>
            <g>
              <path class="cls-6" d="M94.69,39.65c-.62,1.84-2.62,2.83-4.46,2.21-1.84-.62-2.83-2.62-2.21-4.46.62-1.84,2.62-2.83,4.46-2.21,1.84.62,2.83,2.62,2.21,4.46Z"/>
              <path class="cls-18" d="M92.27,35.81c1.5.5,2.31,2.13,1.8,3.63-.5,1.5-2.13,2.31-3.63,1.8-1.5-.5-2.31-2.13-1.8-3.63.5-1.5,2.13-2.31,3.63-1.8Z"/>
              <g>
                <path class="cls-4" d="M90.46,37.36c.37-.28.88-.38,1.35-.22.76.26,1.18,1.09.92,1.85-.26.76-1.09,1.18-1.85.92-.47-.16-.8-.53-.93-.96"/>
                <line class="cls-4" x1="89.8" y1="38.02" x2="91.34" y2="38.54"/>
              </g>
            </g>
            <g>
              <g>
                <path class="cls-6" d="M94.22,27.58c-.98,2.9-1.92,3.78-3.5,3.25-1.57-.53-1.8-1.81-.82-4.7.98-2.9,1.92-3.78,3.5-3.25,1.57.53,1.8,1.81.82,4.7Z"/>
                <path class="cls-18" d="M93.18,23.5c.85.29,1.45.78.41,3.87-1.04,3.1-1.82,3.12-2.67,2.84-.85-.29-1.45-.78-.41-3.87,1.04-3.1,1.82-3.12,2.67-2.84Z"/>
                <polygon class="cls-12" points="92.42 27.78 91.32 26.61 92.91 26.33 92.42 27.78"/>
              </g>
              <g>
                <path class="cls-6" d="M100.02,29.53c-.98,2.9-1.92,3.78-3.5,3.25-1.57-.53-1.8-1.81-.82-4.7.98-2.9,1.92-3.78,3.5-3.25s1.8,1.81.82,4.7Z"/>
                <path class="cls-18" d="M98.99,25.45c.85.29,1.45.78.41,3.87s-1.82,3.12-2.67,2.84c-.85-.29-1.45-.78-.41-3.87,1.04-3.1,1.82-3.12,2.67-2.84Z"/>
                <polygon class="cls-12" points="97.68 27.81 98.78 28.99 97.19 29.26 97.68 27.81"/>
              </g>
            </g>
          </g>
          <text class="cls-9" transform="translate(71.41 33.37) rotate(-71.4)"><tspan x="0" y="0">102</tspan></text>
        </g>
        <g>
          <path class="cls-17" d="M8.02,98.35l-2.12-18.33-.6-2.99c-.49-2.47-.37-5.03.36-7.44l10.62-34.97c.54-1.77,1.21-3.49,2.01-5.15l1.69-3.49,5.75-14.77c.69-1.77,2.89-2.36,4.38-1.18h0c1.42,1.14,2.17,2.91,1.99,4.72l-.69,6.94c-.36,3.65-1.03,7.26-2.01,10.79l-.02.09c-1.03,3.74-1.83,7.55-2.38,11.39l-.77,5.38"/>
          <g>
            <path class="cls-16" d="M30.47,12.31c.36.25.54.71.51,1.14-.01.19-.06.39-.18.54-.08.11-.19.19-.31.26-.44.25-1.06.23-1.38-.15-.14-.16-.21-.37-.25-.58-.09-.4.03-.97.43-1.2.35-.21.85-.24,1.18,0Z"/>
            <path class="cls-12" d="M29.71,12.71c.08.06.13.17.12.27,0,.04-.02.09-.04.13-.02.03-.04.04-.07.06-.1.06-.25.05-.32-.04-.03-.04-.05-.09-.06-.13-.02-.09,0-.23.1-.28.08-.05.2-.05.28,0Z"/>
          </g>
          <g>
            <line class="cls-2" x1="12.78" y1="46.16" x2="16.28" y2="34.62"/>
            <path class="cls-2" d="M5.9,80.01l-.6-2.99c-.49-2.47-.37-5.03.36-7.44l4.04-13.29"/>
          </g>
          <polygon class="cls-17" points="57.52 73.79 55.05 83.66 54.74 98 7.77 98 21.59 51.74 41.79 51.74 57.52 73.79"/>
          <path class="cls-5" d="M57.52,73.79l-14.99-21.02c-4.54-.32-8.53,3.76-11,7.82-2.85,4.7-2.51,10.67-1.27,16.02.4,1.71.87,3.41,1.35,5.11,3.59,1.29,8.5,3.14,11.65,4.25,1,.35,2,.7,3.04.87,1.62.26,3.28.08,4.9.34,1.31.21,2.54.71,3.75,1.29l.1-4.82,2.47-9.87Z"/>
          <g>
            <path class="cls-13" d="M54.11,62.52s1.34.13,3.25,1.33c.56.35,1,.85,1.29,1.44l.14.38c.87,2.36.63,4.98-.65,7.15l-5.34,9.03c-.7,1.04-1.88,1.71-3.13,1.64-1.32-.07-2.86-.85-3.74-3.68"/>
            <path class="cls-7" d="M52.17,81.35l2.1-3.85c.77-1.41.33-3.17-1.02-4.04h0c-1.48-.96-3.47-.46-4.33,1.08l-2.05,3.67c-.25.44-.09.93.15,1.37.55,1,2.8,2.12,3.59,2.27.62.12,1.25.05,1.55-.5Z"/>
          </g>
          <g>
            <path class="cls-13" d="M48.02,51.19l.85.46c1.84.99,3.13,2.76,3.51,4.81h0s1.28,3.54,1.28,3.54c.62,1.73.77,3.59.43,5.4h0c-.39,2.07-1.12,4.06-2.15,5.89l-4.52,8c-.92,1.63-2.94,2.3-4.63,1.51-.31-.14-.62-.31-.92-.49-1.84-1.13-2.65-3.39-2.02-5.45.41-1.34,1.2-3.25,2.71-5.83"/>
            <path class="cls-7" d="M46.31,78.65l2.23-4.08c.82-1.49.35-3.37-1.09-4.29h0c-1.58-1.01-3.68-.49-4.59,1.15l-2.17,3.89c-.26.47-.1.98.16,1.46.58,1.06,2.97,2.25,3.81,2.41.66.12,1.32.05,1.64-.54Z"/>
          </g>
          <g>
            <path class="cls-17" d="M27.95,48.02l4.4-3.91c1.61-1.44,3.97-1.67,5.83-.58l5.91,3.46c1.42.85,2.62,2.02,3.51,3.42l.94,1.48c.7,1.1.94,2.43.65,3.7-.39,1.72-1.06,4.26-2.11,6.56l-2.27,5.8c-.84,2.14-3.43,3.03-5.36,1.78-.73-.47-1.43-1.09-1.97-1.91-.58-.87-.79-1.93-.69-2.97.09-.91.33-2.23.88-3.97l.17-6.38"/>
            <path class="cls-7" d="M47.26,61.77c-.05.13-.11.27-.17.4l-2.27,5.8c-.34.86-.96,1.52-1.71,1.92-1.12-.3-3.17-1.24-3.77-2.18-.31-.48-.52-1.01-.28-1.53l2.01-4.29c.59-1.25,1.83-1.98,3.12-1.98.56,0,1.13.14,1.65.43.62.34,1.1.85,1.41,1.44Z"/>
            <path class="cls-2" d="M27.95,48.02l4.4-3.91c1.61-1.44,3.97-1.67,5.83-.58l5.91,3.46c1.42.85,2.62,2.02,3.51,3.42l.94,1.48c.7,1.1.94,2.43.65,3.7-.39,1.72-1.06,4.26-2.11,6.56l-2.27,5.8c-.84,2.14-3.43,3.03-5.36,1.78-.73-.47-1.43-1.09-1.97-1.91-.58-.87-.79-1.93-.69-2.97.09-.91.33-2.23.88-3.97l.17-6.38"/>
          </g>
          <g>
            <path class="cls-17" d="M11.55,83.11l.14-2.43c.27-4.72,1.79-9.29,4.38-13.24l.98-1.49c.98-1.5,1.77-3.12,2.34-4.82l2.49-7.47c.72-2.16,2.29-3.93,4.34-4.91l5.87-2.8,6.68-6.31c.78-.74,1.94-.96,2.92-.52.77.35,1.55,1.06,1.94,2.47.9,3.31-1.38,11.58-8.07,16l-2.55,5.04c-1.15,2.28-1.75,4.79-1.76,7.34v.77c0,1.94.3,3.87.91,5.72,1.41,4.24,3.86,13.07,3.14,21.26"/>
            <path class="cls-7" d="M42.85,40.15c0,1.41-.73,2.73-1.72,3.73s-2.08,2.32-3.48,2.4c-1.73.1-3.47-.15-5.1-.75l6.22-5.88c.78-.74,1.94-.96,2.92-.52.41.18.81.46,1.16.89,0,.04,0,.08,0,.12Z"/>
            <path class="cls-2" d="M11.55,83.11l.14-2.43c.27-4.72,1.79-9.29,4.38-13.24l.98-1.49c.98-1.5,1.77-3.12,2.34-4.82l2.49-7.47c.72-2.16,2.29-3.93,4.34-4.91l5.87-2.8,6.68-6.31c.78-.74,1.94-.96,2.92-.52.77.35,1.55,1.06,1.94,2.47.9,3.31-1.38,11.58-8.07,16l-2.55,5.04c-1.15,2.28-1.75,4.79-1.76,7.34v.77c0,1.94.3,3.87.91,5.72,1.41,4.24,3.86,13.07,3.14,21.26"/>
          </g>
        </g>
        <path class="cls-13" d="M122.17,39.18c-2.9-2.29-4.14-10.27-4.14-10.27l-7.99-8.25c-1.07-1.1-2.41-1.89-3.89-2.29l-10.72-2.9c-3.67.15-13.65-2.37-13.65-2.37-2.83-1.02-3.38-3.21-3.37-4.78,0-.99.8-1.79,1.79-1.84l12.85-.67c.74-.04,1.49-.01,2.23.07l16.05,1.87c2.34.27,4.54,1.27,6.29,2.84l16.79,15.09c.31.28.64.54.99.78l3.2,2.17c1.61,1.09,2.7,2.8,3,4.73l1.34,8.47"/>
        <path class="cls-13" d="M115.6,45.28c-6.02-1.81-10.43-8.93-10.43-8.93h0c-1.73-2.86-3.8-5.51-6.17-7.88l-6.53-6.4c-1.74-1.71-4.03-2.78-6.47-2.88-1.21-.05-2.47.14-3.5.81-1.7,1.1-1.98,2.88-1.89,4.28.07,1.06.43,2.08,1.01,2.98l14.96,20.55,16.91,34.83,11.5,15.27h35.88l-7.38-10.82c-2.08-3.05-3.54-6.47-4.3-10.07l-1.94-9.18c-.19-1.06-.33-2.13-.42-3.2l-1.38-15.47-.41-10.74c-.06-1.55-.8-3-2.02-3.96l-1.4-1.1"/>
        <g>
          <path class="cls-2" d="M105.4,26.67c1.02.34,2.15.68,3.11.89,0,0,2.71,3.79,10.28,5.74"/>
          <path class="cls-2" d="M107.32,39.46s4.22,2.71,6.39,3.25c0,0,.32-3.79,2.92-6.71"/>
        </g>
        <path class="cls-2" d="M116.78,44.95s3.01-2.25,4.44-4.07c1.42-1.82,1.91-3.98,3.73-5.05"/>
        <path class="cls-7" d="M81.71,25.3l3.09,4.1c1.13,1.51,3.32,1.83,5.01.74h0c1.86-1.19,2.39-3.61,1.16-5.27l-2.93-3.96c-.35-.48-.97-.53-1.59-.47-1.4.14-3.86,2.1-4.46,2.91-.46.63-.73,1.35-.29,1.94Z"/>
      </g>
    </g>
  </g>
</svg>