<?xml version="1.0" encoding="UTF-8"?>
<svg id="_圖層_2" data-name="圖層 2" xmlns="http://www.w3.org/2000/svg" viewBox="0 0 144.93 102.56">
  <defs>
    <style>
      .cls-1 {
        fill: #ffb95f;
      }

      .cls-2 {
        fill: #cc7354;
      }

      .cls-3 {
        isolation: isolate;
        opacity: .31;
      }

      .cls-3, .cls-4 {
        fill: #eb6c55;
      }

      .cls-5 {
        fill: #dd8980;
      }
    </style>
  </defs>
  <g id="_圖層_1-2" data-name="圖層 1">
    <g>
      <path class="cls-5" d="M70.42,87.58c3.29,1.16,6.68,2.19,10.16,2.38,3.49.19,7.12-.54,9.92-2.63,2.79-2.09,4.46-5.48,3.82-8.91,5.14-4.05,9.7-8.97,12.63-14.82,2.93-5.85,4.15-12.68,2.65-19.05-1.75-7.41-7.29-13.93-14.36-16.75.04-7.12-4.02-14.11-10.21-17.61-6.2-3.49-14.6-3.13-20.66.59-2.47-4.04-7.11-6.66-11.84-6.69s-9.55,2.78-12.07,6.79c-2.98-2.38-7.14-3.2-10.8-2.14-3.66,1.06-6.62,4-7.88,7.61-3.63-.64-7.52.42-10.33,2.8-2.81,2.38-4.45,5.86-4.42,9.54-3.36,1.72-5.89,4.97-6.73,8.65-.84,3.68.16,7.75,2.44,10.76-2.01,2.63-2.46,6.37-1.13,9.41,1.33,3.03,4.44,5.18,7.74,5.49.46,2.69,2.31,5.09,4.79,6.22,2.48,1.13,5.68.81,8.01-.6,1.37,6.06,7.32,10.22,13.41,11.4,6.1,1.18,12.38-.02,18.47-1.22,3.51,7.55,7.27,15.34,13.23,21.15,1.08,1.05,2.28,2.06,3.73,2.45,1.45.39,3.21,0,4.02-1.28.76-1.2.48-2.75.11-4.12-.95-3.47-2.82-6.36-4.69-9.44Z"/>
      <g>
        <path class="cls-2" d="M22.55,66.15s-.04,0-.06,0c-.55-.03-.97-.5-.94-1.06.2-3.5,2.14-6.9,5.05-8.85,2.54-1.71,5.82-2.32,8.82-1.69.28-3.58,2.08-6.84,4.96-8.89,3.03-2.17,7-2.84,10.58-1.83,1.12-2.48,3.22-4.55,5.54-5.41,2.39-.88,5.07-.78,7.39.23.94-1.94,2.69-3.5,4.79-4.22,2.01-.69,4.28-.52,6.18.39.72-1.65,2.09-2.97,3.79-3.61,2.12-.79,4.66-.41,6.46.96.44.33.52.96.19,1.4s-.96.52-1.4.19c-1.27-.97-3.05-1.23-4.55-.68-1.49.55-2.61,1.87-2.94,3.43-.07.33-.3.6-.61.73-.31.12-.67.08-.94-.12-1.58-1.12-3.69-1.43-5.52-.81-1.86.63-3.41,2.21-3.95,4.01-.09.29-.31.53-.59.64-.29.11-.61.09-.87-.07-1.98-1.17-4.55-1.4-6.71-.61-2.06.76-3.91,2.76-4.71,5.09-.09.26-.27.46-.52.58-.24.12-.52.13-.78.03-3.14-1.17-6.92-.66-9.65,1.28-2.69,1.92-4.25,5.12-4.16,8.54,0,.33-.14.64-.41.83-.26.19-.6.25-.92.14-2.74-.93-5.94-.51-8.34,1.1-2.4,1.62-4,4.42-4.17,7.31-.03.53-.47.94-1,.94Z"/>
        <path class="cls-2" d="M60.09,77.95c-.9,0-1.79-.07-2.68-.22-.54-.09-.91-.61-.82-1.15s.6-.9,1.15-.82c5.17.87,10.64-1.19,13.95-5.25.31-.37.83-.48,1.25-.25,2.31,1.26,5.12,1.52,7.7.69,2.53-.81,4.72-2.72,5.87-5.12.23-.47.77-.68,1.26-.5,1.56.59,3.61.39,5.21-.52,1.51-.86,2.63-2.45,2.93-4.16.1-.54.61-.91,1.16-.81.54.1.91.61.81,1.16-.41,2.32-1.87,4.39-3.91,5.55-1.86,1.05-4.1,1.38-6.05.91-1.46,2.52-3.89,4.5-6.66,5.39-2.84.91-5.91.74-8.55-.47-3.19,3.53-7.88,5.57-12.62,5.57Z"/>
        <path class="cls-2" d="M47.34,76.01c-.13,0-.26-.03-.39-.08-.51-.21-.75-.8-.53-1.31.9-2.14.67-4.79-.58-6.75-1.26-1.96-3.57-3.26-5.9-3.33-.55-.02-.99-.48-.97-1.03s.46-.97,1.03-.97c3.01.09,5.89,1.72,7.52,4.25s1.91,5.83.74,8.61c-.16.38-.53.61-.92.61Z"/>
        <path class="cls-2" d="M47.17,68.84s-.08,0-.13,0c-.55,0-1-.46-.99-1.01s.48-1.02,1.01-.99c4.78.02,9.46-3.36,10.87-7.93.16-.52.72-.82,1.24-.66,4.53,1.35,10.25-.27,13.04-3.68.34-.42.96-.49,1.39-.16,1.93,1.51,4.83,1.69,7.2.45,2.25-1.18,3.73-3.78,3.58-6.32-.02-.32.11-.62.36-.82.24-.2.57-.28.87-.21,1.8.43,3.99-.67,4.77-2.39.77-1.7.17-3.98-1.35-5.07-.45-.32-.55-.95-.23-1.4.32-.45.95-.55,1.4-.23,2.3,1.65,3.18,4.95,2.01,7.52-1,2.19-3.43,3.65-5.8,3.65h-.04c-.25,2.93-2.01,5.66-4.64,7.03-2.76,1.44-6.09,1.38-8.58-.11-3.25,3.36-8.8,4.94-13.62,3.88-1.95,4.89-7.09,8.44-12.36,8.44Z"/>
        <path class="cls-2" d="M91.24,41.92c-.13,0-.26-.02-.38-.08-.51-.21-.75-.79-.54-1.31.88-2.14,1.82-4.93,1.29-7.65-.43-2.22-2.29-4.57-4.66-4.65-.29,0-.56-.14-.74-.37s-.26-.52-.21-.8c.54-3.09-1.06-6.81-3.58-8.3-2.62-1.55-6.23-1.28-8.6.62-.43.35-1.06.28-1.41-.15-.35-.43-.28-1.06.15-1.41,3.04-2.44,7.51-2.76,10.87-.78,2.94,1.74,4.86,5.69,4.65,9.33,2.92.66,4.97,3.49,5.48,6.13.63,3.23-.42,6.4-1.4,8.79-.16.39-.53.62-.93.62Z"/>
        <path class="cls-2" d="M23.99,37.22c-.31,0-.61-.14-.81-.41-.33-.45-.23-1.07.22-1.4,3.84-2.8,9.19-3.34,13.48-1.47.41-1.79,1.44-3.41,2.91-4.53,1.6-1.21,3.58-1.78,5.47-1.6.6-3.42,3.08-6.51,6.33-7.76,3.16-1.21,7.09-.59,9.85,1.44,1.28-2.25,3.51-3.91,6.06-4.46,3.01-.65,6.23.3,8.41,2.47.39.39.39,1.02,0,1.41-.39.39-1.02.39-1.41,0-1.68-1.67-4.26-2.43-6.58-1.93-2.32.5-4.36,2.25-5.2,4.47-.12.32-.39.55-.73.62-.33.07-.68-.03-.92-.27-2.2-2.2-5.89-2.99-8.77-1.89-2.88,1.1-5.01,4.03-5.18,7.1-.02.3-.17.57-.41.75-.24.18-.55.24-.84.16-1.63-.41-3.45-.02-4.89,1.07-1.38,1.04-2.26,2.76-2.31,4.49,0,.35-.21.68-.51.85-.31.17-.69.17-.99-.01-3.8-2.23-8.98-1.95-12.6.69-.18.13-.38.19-.59.19Z"/>
        <path class="cls-2" d="M23.9,59.44c-2.77,0-5.49-1.12-7.45-3.11-2.02-2.05-3.1-4.92-2.98-7.78-2.2-1.05-3.88-3.37-4.28-6.02-.39-2.52.59-5.19,2.47-6.9-1.09-2.68-.59-5.97,1.34-8.44,2.02-2.58,5.63-3.8,8.8-2.96.53.14.85.69.71,1.22-.14.53-.69.85-1.22.71-2.41-.64-5.17.29-6.71,2.26-1.61,2.06-1.94,4.94-.8,7.01.24.44.12,1-.29,1.29-1.7,1.22-2.63,3.43-2.31,5.5.34,2.21,1.82,4.11,3.67,4.72.45.15.74.6.68,1.07-.3,2.48.6,5.13,2.35,6.91,1.75,1.78,4.38,2.73,6.87,2.47.54-.06,1.04.34,1.1.89.06.55-.34,1.04-.89,1.1-.35.04-.71.06-1.06.06Z"/>
        <path class="cls-2" d="M21.28,29.04c-.5,0-.93-.37-.99-.88-.32-2.61.73-5.3,2.73-7.01,2-1.71,4.82-2.32,7.35-1.6.53.15.84.71.69,1.24-.15.53-.7.83-1.24.69-1.87-.53-4.03-.06-5.5,1.2-1.48,1.26-2.28,3.32-2.05,5.25.07.55-.32,1.05-.87,1.11-.04,0-.08,0-.12,0Z"/>
        <path class="cls-2" d="M24.19,49.29c-1.72,0-3.45-.56-4.82-1.63-.44-.34-.52-.97-.18-1.4.34-.44.97-.52,1.4-.18,1.46,1.14,3.55,1.51,5.32.94,1.77-.56,3.25-2.07,3.79-3.85.09-.3.32-.54.61-.65.29-.11.62-.08.88.09,1.09.7,2.51.92,3.7.58,1.22-.35,2.28-1.24,2.82-2.39.24-.5.84-.71,1.33-.47.5.24.71.83.47,1.33-.79,1.66-2.31,2.95-4.08,3.45-1.38.39-2.9.29-4.26-.26-.93,1.91-2.63,3.42-4.67,4.07-.76.24-1.54.36-2.33.36Z"/>
        <path class="cls-2" d="M37.39,20.49c-.07,0-.14,0-.21-.02-.54-.12-.88-.65-.76-1.19.58-2.67,2.75-4.92,5.4-5.6,2.2-.56,4.64-.01,6.42,1.38,1.04-1.45,2.73-2.51,4.48-2.73,2.21-.27,4.48.72,5.79,2.53.32.45.22,1.07-.23,1.4-.45.32-1.07.22-1.4-.23-.87-1.21-2.44-1.89-3.92-1.71-1.47.18-3,1.35-3.55,2.72-.13.32-.42.56-.76.62-.34.06-.69-.07-.92-.33-1.31-1.51-3.49-2.19-5.42-1.7-1.93.49-3.52,2.14-3.94,4.09-.1.47-.52.79-.98.79Z"/>
        <path class="cls-2" d="M51.87,55.98c-.8,0-1.6-.1-2.38-.32-.53-.14-.85-.69-.7-1.23.14-.53.69-.85,1.23-.7,1.78.49,3.73.25,5.34-.65,1.61-.89,2.84-2.42,3.37-4.19.09-.31.34-.56.65-.66.31-.1.65-.04.92.16,1.42,1.09,3.57,1.5,5.47,1.04,1.81-.44,3.42-1.75,4.22-3.43.12-.26.36-.46.64-.54.28-.08.58-.03.83.14.66.45,1.53.58,2.45.38,1.06-.23,1.99-.87,2.49-1.7.28-.47.9-.63,1.37-.34.47.28.63.9.34,1.37-.78,1.29-2.19,2.27-3.78,2.62-1.07.23-2.12.17-3.04-.17-1.15,1.79-2.97,3.12-5.05,3.62-2.06.5-4.27.23-6.05-.69-.81,1.74-2.17,3.22-3.86,4.15-1.36.75-2.9,1.14-4.45,1.14Z"/>
        <path class="cls-2" d="M51.05,35.92c-.08,0-.16,0-.25-.03-.54-.14-.86-.68-.72-1.21.64-2.51,2.66-4.6,5.15-5.32,2.49-.72,5.31-.03,7.19,1.75.4.38.42,1.01.04,1.41-.38.4-1.01.42-1.41.04-1.38-1.3-3.44-1.81-5.26-1.28-1.82.53-3.3,2.05-3.77,3.89-.12.45-.52.75-.97.75Z"/>
        <path class="cls-2" d="M94.41,62.15c-.74,0-1.49-.08-2.22-.24-.54-.12-.88-.65-.76-1.19.12-.54.66-.88,1.19-.76,2.9.64,6.09-.34,8.12-2.51,2.03-2.17,2.81-5.41,1.98-8.27-.15-.53.15-1.08.68-1.24.53-.16,1.08.15,1.24.68,1.02,3.52.07,7.52-2.44,10.19-2,2.13-4.89,3.33-7.8,3.33Z"/>
        <path class="cls-2" d="M69.37,67.24c-1.55,0-3.09-.47-4.36-1.37-.45-.32-.56-.94-.24-1.39.32-.45.94-.56,1.39-.24,1.3.92,3,1.23,4.55.83,1.54-.4,2.88-1.49,3.58-2.93.24-.5.84-.7,1.34-.46.5.24.7.84.46,1.34-.95,1.96-2.77,3.45-4.88,4-.6.15-1.22.23-1.84.23Z"/>
        <path class="cls-2" d="M81.61,83.1c-.38,0-.76-.03-1.14-.1-1.7-.31-3.25-1.35-4.24-2.81-1.8.8-3.9.98-5.79.46-2.22-.61-4.2-2.2-5.27-4.24-.26-.49-.07-1.09.42-1.35.49-.26,1.09-.07,1.35.42.83,1.56,2.34,2.77,4.04,3.24,1.7.47,3.62.2,5.13-.71.24-.15.53-.19.81-.1.27.08.5.27.62.53.62,1.33,1.92,2.35,3.31,2.6,1.42.26,2.95-.2,3.99-1.21.4-.38,1.03-.38,1.41.02.38.4.38,1.03-.02,1.41-1.22,1.18-2.91,1.84-4.6,1.85Z"/>
      </g>
      <g>
        <circle class="cls-3" cx="98.98" cy="25.72" r="25.72" transform="translate(10.81 77.52) rotate(-45)"/>
        <circle class="cls-3" cx="98.98" cy="25.72" r="15.34" transform="translate(10.81 77.52) rotate(-45)"/>
        <circle class="cls-4" cx="99" cy="25.68" r="7.78" transform="translate(12.25 79.86) rotate(-46.53)"/>
      </g>
      <path class="cls-1" d="M118.96,41.78c-.75-2.75-1.5-5.51-2.25-8.26,2.37,1.51,4.71,3.05,6.85,4.87,2.69-4.34,5.71-8.55,8.9-12.53-.54,4.51-1.05,9.03-1.6,13.53,3.66.04,7.26.05,10.92.1-2.65,2.05-5.34,4.11-8,6.16,3.58,2.45,7.29,4.83,11.15,6.81-4.6.39-9.21.57-13.81.23-1.4,3.5-2.77,7.09-4.18,10.59-.78-3.66-1.65-7.32-2.43-10.98-3.88,3.45-8.19,6.43-12.77,8.88,2.18-4.06,4.5-8.05,7.09-11.86-4.46-.46-8.95-.98-13.4-1.44,3.87-2.07,9.45-4.48,13.52-6.1Z"/>
    </g>
  </g>
</svg>