<?xml version="1.0" encoding="UTF-8"?>
<svg xmlns="http://www.w3.org/2000/svg" viewBox="0 0 127.2 119.66">
  <defs>
    <style>
      .cls-1 {
        fill: #7db23b;
      }

      .cls-2 {
        fill: #fff;
      }

      .cls-2, .cls-3 {
        opacity: .2;
      }

      .cls-4, .cls-5, .cls-6, .cls-7 {
        mix-blend-mode: soft-light;
      }

      .cls-4, .cls-7 {
        opacity: .5;
      }

      .cls-5 {
        opacity: .8;
      }

      .cls-6 {
        opacity: .1;
      }

      .cls-8 {
        isolation: isolate;
      }

      .cls-3, .cls-7, .cls-9 {
        fill: #dd8980;
      }

      .cls-10 {
        fill: #fff3e1;
      }

      .cls-11 {
        fill: #ffa934;
      }

      .cls-12 {
        fill: #ff6442;
      }

      .cls-13 {
        fill: #f4e1cb;
      }

      .cls-14, .cls-15 {
        fill: #443d32;
      }

      .cls-15 {
        font-family: OpenSans-Bold, 'Open Sans';
        font-size: 4.93px;
        font-weight: 700;
      }
    </style>
  </defs>
  <g class="cls-8">
    <g id="_圖層_2" data-name="圖層 2">
      <g id="_參考線" data-name="參考線">
        <g>
          <g>
            <g>
              <path class="cls-14" d="M100.13,20.75s-.38.17-.99.51c-.56.31-1.34.78-2.3,1.43-2.12,1.44-5.13,3.79-8.59,7.39-1.08,1.12-2.2,2.36-3.35,3.73-5.11,6.09-10.8,14.77-15.95,26.92-.17.39-.55.63-.95.63-.13,0-.27-.03-.4-.08-.53-.22-.77-.82-.55-1.35,5.32-12.56,11.21-21.4,16.23-27.42,1.19-1.43,2.32-2.69,3.4-3.81.58-.61,1.14-1.17,1.68-1.7,3.04-2.96,5.67-4.95,7.58-6.21.65-.43,1.22-.78,1.69-1.05,1.01-.59,1.6-.85,1.67-.88.52-.22,1.13.02,1.35.54.22.52-.02,1.13-.54,1.35Z"/>
              <path class="cls-5" d="M99.14,21.26c-.56.31-1.34.78-2.3,1.43-.01-.03-.03-.07-.04-.1-.13-.28-.27-.57-.4-.85-.12-.25-.24-.5-.36-.76-.03-.07-.06-.13-.09-.2.65-.43,1.22-.78,1.69-1.05.62.36,1.15.9,1.5,1.53Z"/>
              <path class="cls-5" d="M88.26,30.08c-1.08,1.12-2.2,2.36-3.35,3.73-.61-.34-1.17-.77-1.62-1.31,1.19-1.43,2.32-2.69,3.4-3.81.27.24.53.47.8.7.26.23.52.45.78.68Z"/>
            </g>
            <g>
              <g>
                <rect class="cls-13" x="97.07" y="17.29" width="1.29" height="2.33" transform="translate(5.77 56.35) rotate(-33.09)"/>
                <path class="cls-10" d="M96.09,18.64c-.22.14-.51.08-.66-.14h0c-.14-.22-.08-.51.14-.66l2.46-1.6c.22-.14.51-.08.66.14h0c.14.22.08.51-.14.66l-2.46,1.6Z"/>
              </g>
              <polygon class="cls-10" points="101.56 20.24 98.05 22.53 97.66 21.94 96.49 20.15 99.04 18.49 100 17.86 101.56 20.24"/>
              <path class="cls-5" d="M101.56,20.24l-3.51,2.29-.39-.59c.38-.28.85-.41,1.28-.6.45-.21.9-.55.96-1.04.06-.39-.15-.78-.38-1.11-.13-.18-.26-.35-.38-.54-.03-.05-.07-.11-.11-.16l.97-.63,1.56,2.38Z"/>
              <g>
                <path class="cls-14" d="M118.41,18.22c-5.55,3.62-11.8,4.19-15.19,1.68-.57-.42-1.06-.93-1.45-1.53-2.7-4.14.36-10.93,6.85-15.16,5.18-3.38,10.97-4.1,14.47-2.14.76.42,1.41.97,1.92,1.64.09.11.17.23.25.35.48.73.78,1.56.91,2.43.6,4.05-2.42,9.25-7.76,12.73Z"/>
                <path class="cls-14" d="M126.43,5.36c-.08.05-.17.1-.26.13-.66.27-1.48.08-2.17-.47-.29-.23-.55-.51-.77-.85-.71-1.09-.74-2.38-.13-3.1.1-.12.21-.22.34-.31.67-.44,1.6-.3,2.37.29.31.23.59.53.83.89.82,1.27.73,2.8-.21,3.41Z"/>
                <rect class="cls-14" x="99.89" y="16.32" width="3.58" height="4.22" transform="translate(6.43 58.52) rotate(-33.1)"/>
              </g>
              <path class="cls-6" d="M126.43,5.36c-.08.05-.17.1-.26.13.6,4.05-2.42,9.25-7.76,12.73-5.55,3.62-11.8,4.19-15.19,1.68.15-.17.32-.32.51-.45.57-.39,1.24-.59,1.91-.78,3.67-1.04,7.52-1.79,10.72-3.87,2.41-1.57,4.31-3.83,5.8-6.29.09-.14.17-.27.25-.41.35-.59.67-1.2.98-1.81.21-.42.42-.84.61-1.27.09-.19.18-.39.27-.58.25-.57.5-1.15.75-1.72.02-.05.04-.1.07-.15.13-.32.26-.64.39-.95.08-.2.17-.41.34-.55.31.23.59.53.83.89.82,1.27.73,2.8-.21,3.41Z"/>
              <path class="cls-2" d="M117.03.73c-1.15.08-2.31.36-3.29.97-.29.18-.58.44-.58.77,0,.33.3.6.63.67.32.07.66,0,.98-.08,1.49-.36,3.03-.75,4.54-.53.34.05.67.13,1.01.13.88,0,1.72-1.15.69-1.7-.22-.12-.49-.13-.74-.15-1.08-.05-2.16-.15-3.24-.08Z"/>
            </g>
          </g>
          <path class="cls-10" d="M18.22,17.27c.01,2.62-1.09,4.99-2.85,6.65-1.62,1.54-3.81,2.49-6.22,2.5C4.11,26.44.02,22.37,0,17.34c-.01-3.25,1.68-6.11,4.23-7.73,1.4-.89,3.06-1.41,4.84-1.41,5.03-.02,9.12,4.05,9.15,9.07Z"/>
          <path class="cls-13" d="M1.33,17.34c-.02-4.37,3.51-7.93,7.89-7.95,4.37-.02,7.93,3.51,7.95,7.89.02,4.37-3.51,7.93-7.89,7.95-4.37.02-7.93-3.51-7.95-7.89Z"/>
          <path class="cls-10" d="M3.86,17.33c-.01-3.04,2.44-5.51,5.48-5.52,3.04-.01,5.51,2.44,5.52,5.48.01,3.04-2.44,5.51-5.48,5.52-3.04.01-5.51-2.44-5.52-5.48Z"/>
          <path class="cls-13" d="M4.91,17.26c0-2.47,1.98-4.47,4.45-4.48,2.47,0,4.47,1.98,4.48,4.45,0,2.47-1.98,4.47-4.45,4.48-2.47,0-4.47-1.98-4.48-4.45Z"/>
          <path class="cls-10" d="M6.42,17.25c0-1.63,1.31-2.95,2.94-2.96,1.63,0,2.95,1.31,2.96,2.94,0,1.63-1.31,2.95-2.94,2.96-1.63,0-2.95-1.31-2.96-2.94Z"/>
          <path class="cls-4" d="M18.22,17.27c.01,2.62-1.09,4.99-2.85,6.65.02-.91.23-1.8.29-2.7.25-3.41-1.61-6.78-4.34-8.84-.11-.08-.22-.16-.33-.24-.93-.65-1.94-1.18-3-1.58s-2.16-.69-3.28-.88c-.15-.03-.32-.04-.47-.07,1.4-.89,3.06-1.41,4.84-1.41,5.03-.02,9.12,4.05,9.15,9.07Z"/>
          <path class="cls-14" d="M41.49,58.71c-.13.05-.27.08-.4.08-.4,0-.78-.24-.95-.63-4.56-10.76-9.53-18.73-13.97-24.49h0c-.52-.68-1.04-1.34-1.56-1.96-1.89-2.3-3.65-4.19-5.21-5.72-1.01-.98-1.96-1.85-2.86-2.62-.12-.11-.25-.21-.37-.31.44-.54.81-1.12,1.12-1.75.21.18.43.36.65.55.88.76,1.81,1.6,2.79,2.55,1.56,1.51,3.31,3.38,5.19,5.64.61.73,1.23,1.5,1.86,2.32,4.55,5.89,9.63,14.02,14.27,24.98.22.52-.02,1.13-.55,1.35Z"/>
          <path class="cls-4" d="M17.94,21.88s-.02.03-.03.04c-.03.04-.07.09-.1.13-.27.34-.58.67-.89.98-.13.12-.25.24-.38.36-.12-.11-.25-.21-.37-.31.44-.54.81-1.12,1.12-1.75.21.18.43.36.65.55Z"/>
          <path class="cls-4" d="M27.77,32.39c-.11.2-.24.39-.39.56-.33.35-.75.61-1.21.74h0c-.52-.68-1.04-1.34-1.56-1.96.15-.24.32-.47.5-.69.21-.27.43-.53.65-.78.05-.06.11-.12.16-.18.61.73,1.23,1.5,1.86,2.32Z"/>
          <g>
            <path class="cls-9" d="M88.28,55.06c-.55,1.1-1.17,2.16-1.84,3.19-.66,1.02-1.39,2.01-2.16,2.95-1.74,2.15-3.72,4.12-5.84,5.9-3.99,3.37-8.47,6.11-13.05,8.62-2.87,1.57-5.78,3.05-8.74,4.45-.08-.03-.15-.07-.23-.11-2.93-1.36-5.82-2.81-8.66-4.34-4.6-2.49-9.1-5.22-13.1-8.58-4-3.37-7.52-7.39-9.86-12.06-2.34-4.68-3.47-10.04-2.69-15.21.78-5.17,3.55-10.11,7.85-13.07,2.5-1.72,5.45-2.76,8.48-2.97,3.02-.21,6.1.41,8.81,1.76,2.71,1.36,5.04,3.45,6.69,5.99,1.45,2.24,2.35,4.82,2.63,7.47.27-2.65,1.17-5.24,2.62-7.48,1.64-2.55,3.98-4.65,6.69-6.01,2.12-1.06,4.47-1.66,6.84-1.77.1,0,.19-.01.29-.01.19,0,.37,0,.55,0,.38,0,.76.01,1.14.04.79.06,1.57.17,2.35.34.39.08.77.18,1.15.29.67.19,1.33.43,1.97.7,1.05.45,2.06,1.01,3.01,1.66,4.29,2.97,7.04,7.91,7.81,13.07.76,5.16-.37,10.52-2.71,15.19Z"/>
            <path class="cls-7" d="M88.28,55.06c-2.34,4.67-5.84,8.68-9.84,12.04-3.99,3.37-8.47,6.11-13.05,8.62-2.87,1.57-5.78,3.05-8.74,4.45-.08-.03-.15-.07-.23-.11.89-1.34,2.05-2.58,3.21-3.63,4.79-4.38,10.2-8.14,14.26-13.2.48-.6.95-1.23,1.39-1.86,3.63-5.25,5.75-11.54,6.01-17.91.25-6.13-1.75-11.79-2.86-17.72-.08-.41-.15-.84-.22-1.29,1.77.51,3.46,1.31,4.98,2.36,4.29,2.97,7.04,7.91,7.81,13.07.76,5.16-.37,10.52-2.71,15.19Z"/>
            <path class="cls-3" d="M26.85,31.88c-.75.99-1.38,2.47-.02,3.21.67.36,1.49,0,2.11-.43,2.02-1.38,3.59-3.54,5.95-4.21,1.36-.38,2.79-.24,4.18-.37,1.1-.1,2.24-.43,2.97-1.25.73-.82.87-2.24.06-2.98-1.83-1.66-5.83-.15-7.76.61-2.77,1.1-5.28,2.85-7.24,5.1-.08.1-.17.2-.25.31Z"/>
          </g>
          <g>
            <g class="cls-5">
              <path d="M72.99,23.81c-.09,0-.18-.01-.26-.01.1,0,.19-.01.29-.01,0,0-.02.02-.02.03Z"/>
              <path d="M86.47,56.07c0,.75-.01,1.47-.03,2.18-.66,1.02-1.39,2.01-2.16,2.95.08-1.63.12-3.34.13-5.15.04-6.28-.22-13.67-2.48-20.83l-.14-.45c-1.85-5.94-3.45-9.06-4.74-10.62.39.08.77.18,1.15.29.67.19,1.33.43,1.97.7,1.45,2.59,2.62,5.93,3.58,9.01l.14.44c2.35,7.43,2.62,15.02,2.58,21.47Z"/>
            </g>
            <path class="cls-14" d="M88.02,56.07c-.05,8.01-.68,14.1-2.03,19.73-2.05,8.54-6.57,16.02-12.08,22.7-.81.98-1.64,1.95-2.5,2.9-4.29,4.79-9.01,9.16-13.57,13.21-.2.18-.44.26-.69.26-.28,0-.57-.12-.77-.35-.38-.43-.34-1.07.09-1.45,4.76-4.23,9.71-8.82,14.12-13.86.69-.78,1.36-1.57,2.01-2.37,5.22-6.38,9.46-13.49,11.39-21.52,1.31-5.47,1.92-11.41,1.97-19.26.04-6.28-.22-13.67-2.48-20.83l-.14-.45c-2.97-9.54-5.3-11.81-6.73-12.04-.65-.1-1.34.26-2.07,1.07-1.15-.07-2.03-.02-2.46.02.02-.16.08-.32.18-.46,1.44-2.03,3.01-2.93,4.67-2.67,3.89.62,6.52,7.52,8.37,13.46l.14.44c2.35,7.43,2.62,15.02,2.58,21.47Z"/>
          </g>
          <g>
            <g class="cls-5">
              <path d="M40.25,23.81c.09,0,.18-.01.26-.01-.1,0-.19-.01-.29-.01,0,0,.02.02.02.03Z"/>
              <path d="M26.76,56.07c0,.75.01,1.47.03,2.18.66,1.02,1.39,2.01,2.16,2.95-.08-1.63-.12-3.34-.13-5.15-.04-6.28.22-13.67,2.48-20.83l.14-.45c1.85-5.94,3.45-9.06,4.74-10.62-.39.08-.77.18-1.15.29-.67.19-1.33.43-1.97.7-1.45,2.59-2.62,5.93-3.58,9.01l-.14.44c-2.35,7.43-2.62,15.02-2.58,21.47Z"/>
            </g>
            <path class="cls-14" d="M57.92,114.52c-.2.23-.48.35-.77.35-.24,0-.49-.09-.68-.26-4.7-4.18-9.59-8.7-13.99-13.67-.98-1.11-1.94-2.24-2.87-3.4-5.16-6.43-9.34-13.6-11.3-21.74-1.35-5.63-1.98-11.71-2.03-19.73-.04-6.45.23-14.04,2.58-21.47l.14-.44c1.85-5.94,4.48-12.84,8.37-13.46,1.66-.26,3.23.64,4.67,2.67.13.19.2.41.19.63-.79-.14-1.79-.18-2.47-.19-.73-.81-1.43-1.18-2.07-1.07-1.43.23-3.75,2.5-6.72,12.04l-.14.45c-2.27,7.16-2.53,14.54-2.49,20.83.05,7.85.66,13.79,1.97,19.26,1.83,7.6,5.72,14.37,10.55,20.48.93,1.18,1.9,2.34,2.9,3.47,4.4,5.02,9.33,9.59,14.08,13.81.42.38.46,1.03.08,1.45Z"/>
          </g>
          <path class="cls-5" d="M73.92,98.49c-.81.98-1.64,1.95-2.5,2.9,0-.02-.01-.04-.02-.06-.27-.71-.53-1.42-.8-2.13.69-.78,1.36-1.57,2.01-2.37.33.45.66.89,1.01,1.32.1.12.2.23.3.34Z"/>
          <path class="cls-5" d="M43.76,99.26c-.17.35-.38.69-.63,1-.2.24-.42.47-.66.67-.98-1.11-1.94-2.24-2.87-3.4.13-.19.27-.38.41-.57l.84-1.17c.93,1.18,1.9,2.34,2.9,3.47Z"/>
          <g>
            <path class="cls-10" d="M63.61,113.79v4.37c0,.83-.67,1.5-1.5,1.5h-10.64c-.83,0-1.5-.67-1.5-1.5v-4.37h13.65Z"/>
            <path class="cls-5" d="M63.61,113.79v1.91c-.83.32-1.67.59-2.54.8-1.42.34-2.87.52-4.33.54-1.46.02-2.91-.11-4.34-.41-.87-.18-1.69-.54-2.44-1.01v-1.83h13.65Z"/>
          </g>
          <g>
            <path class="cls-14" d="M56.55,115.85c-12.8,0-23.21-10.41-23.21-23.21s10.41-23.21,23.21-23.21,23.21,10.41,23.21,23.21-10.41,23.21-23.21,23.21Z"/>
            <path class="cls-10" d="M77.71,92.64c0,11.69-9.47,21.16-21.16,21.16-.3,0-.59,0-.88-.02-11.28-.46-20.28-9.74-20.28-21.14s9.47-21.16,21.16-21.16c.11,0,.23,0,.34,0,11.53.18,20.81,9.58,20.81,21.15Z"/>
            <path class="cls-5" d="M56.55,73.53c11.34,0,20.6,8.92,21.13,20.13.02-.34.03-.68.03-1.03,0-11.68-9.47-21.16-21.16-21.16s-21.16,9.47-21.16,21.16c0,.34,0,.69.03,1.03.54-11.21,9.79-20.13,21.13-20.13Z"/>
          </g>
          <g>
            <path class="cls-1" d="M55.14,111.09l.31-3.73c-7.97-.67-13.94-7.61-13.47-15.55l-3.73-.32c-.64,10,6.86,18.75,16.89,19.6Z"/>
            <path class="cls-12" d="M71.39,93.91l3.73.32c.85-10.01-6.49-18.85-16.42-19.93l-.32,3.73c7.87.9,13.68,7.93,13,15.88Z"/>
            <path class="cls-11" d="M57.94,77.98c.15.01.3.03.45.05l.32-3.73c-.15-.02-.3-.04-.45-.05-10.16-.86-19.12,6.71-19.98,16.86-.01.13-.01.25-.02.38l3.73.32c0-.13.01-.25.02-.38.68-8.1,7.83-14.13,15.93-13.45Z"/>
          </g>
          <g>
            <path class="cls-14" d="M56.68,96.16c-1.06,0-2.05-.46-2.73-1.27-.62-.73-.91-1.66-.83-2.61.08-.95.53-1.81,1.26-2.43.64-.54,1.46-.84,2.3-.84,1.06,0,2.05.46,2.73,1.27.62.73.91,1.65.83,2.61-.08.95-.53,1.81-1.26,2.43-.64.54-1.46.84-2.3.84Z"/>
            <path class="cls-14" d="M58.19,94.38c-.99.83-2.47.71-3.3-.28-.83-.99-.71-2.47.28-3.3.99-.83,2.47-.71,3.3.28.83.99.71,2.47-.28,3.3Z"/>
            <path class="cls-14" d="M69.76,81.84s-.88.98-2.24,2.4c-.68.71-1.47,1.54-2.34,2.41-.85.88-1.8,1.8-2.73,2.72-.47.46-.92.94-1.36,1.41-.44.48-.88.94-1.34,1.34-.93.8-1.91,1.4-2.79,1.89-.87.48-1.66.82-2.24,1.02-.57.2-.93.28-.93.28l-.19-.23s.14-.34.44-.87c.3-.54.76-1.25,1.38-2.03.62-.78,1.39-1.65,2.33-2.43.47-.39,1-.74,1.54-1.1.54-.35,1.09-.72,1.62-1.1,1.06-.76,2.12-1.54,3.13-2.23,1.01-.7,1.96-1.35,2.77-1.9,1.63-1.1,2.75-1.81,2.75-1.81l.19.23Z"/>
            <path class="cls-14" d="M70.1,82.12s-.88.98-2.24,2.4c-.68.71-1.47,1.54-2.34,2.41-.85.88-1.8,1.8-2.73,2.72-.47.46-.92.94-1.36,1.41-.44.48-.88.94-1.34,1.34-.93.8-1.91,1.4-2.79,1.89-.87.48-1.66.82-2.24,1.02-.57.2-.93.28-.93.28l-.19-.23s.14-.34.44-.87c.3-.54.76-1.25,1.38-2.03.62-.78,1.39-1.65,2.33-2.43.47-.39,1-.74,1.54-1.1.54-.35,1.09-.72,1.62-1.1,1.06-.76,2.12-1.54,3.13-2.23,1.01-.7,1.96-1.35,2.77-1.9,1.63-1.1,2.75-1.81,2.75-1.81l.19.23Z"/>
          </g>
          <text class="cls-15" transform="translate(64.64 98.62)"><tspan x="0" y="0">High</tspan></text>
          <text class="cls-15" transform="translate(55.77 110.91)"><tspan x="0" y="0">Low</tspan></text>
          <path class="cls-2" d="M77.71,92.64c0,11.69-9.47,21.16-21.16,21.16-.3,0-.59,0-.88-.02,1.23-1.33,2.71-2.43,3.99-3.71,5.64-5.65,7.08-14.55,5.27-22.33-.08-.35-.17-.71-.26-1.05-.76-2.84-1.9-5.57-3.28-8.16-1.31-2.46-2.84-4.79-4.49-7.03,11.53.18,20.81,9.58,20.81,21.15Z"/>
        </g>
      </g>
    </g>
  </g>
</svg>