<?xml version="1.0" encoding="UTF-8"?>
<svg id="_圖層_2" data-name="圖層 2" xmlns="http://www.w3.org/2000/svg" viewBox="0 0 129.81 102.18">
  <defs>
    <style>
      .cls-1 {
        fill: #efa89e;
      }

      .cls-2 {
        fill: #f3b2ba;
      }

      .cls-3 {
        fill: #cc7354;
      }

      .cls-4 {
        fill: #fae9ea;
      }

      .cls-5 {
        fill: #dd8980;
      }
    </style>
  </defs>
  <g id="_圖層_1-2" data-name="圖層 1">
    <g>
      <g>
        <path class="cls-4" d="M101.05,33.68c-1.3-1.25-2.43-2.69-3.4-4.22-1.18-1.86-2.15-3.84-3.05-5.84-.41-.91-.67-1.81-1.03-2.72-.12-.3-1.38-2.64-1.28-2.76-.47.62-.51,1.95-.74,2.74-.43,1.42-1.35,3.07-.43,4.47,2.04,3.1,4.14,6.17,5.88,9.45,1.05,1.97,1.96,4.01,2.65,6.13.34,1.06.62,2.13.83,3.23.14.75.3,1.44,1,1.89.77.49,1.78.1,2.59-.3,2.34-1.16,9.07-5.2,4.25-7.6-1.6-.8-3.27-1.49-4.77-2.46-.9-.58-1.73-1.25-2.5-1.99Z"/>
        <path class="cls-2" d="M118.09,36.88c.16-.24-.06-.54-.27-.72-1-.84-2.41-1.16-3.68-.83s-2.35,1.29-2.82,2.51c.36-.93-1.76-1.05-2.18-1.04-1.17.02-2.21.17-3.16.94-1.04.84-1.64,2.2-1.57,3.53-2-.61-3.73,1.42-4.08,3.24-.29,1.49.24,3.12,1.35,4.16.94.88,2.37.82,3.48.32-.46,1.87-.05,3.96,1.85,4.9.89.44,1.87.41,2.81.18.34-.08,2.19-.84,2.01-1.39.69,2.07,2.7,2.12,4.45,1.72.98-.22,1.84-.86,2.39-1.69.52-.78,1.32-2.87.44-3.67,1.32,1.2,3.62-.14,4.23-1.51.49-1.1.28-2.48-.52-3.39,2.13-1.3,3.01-3.68,2.21-5.97-.52-1.5-1.58-3.03-3.2-3.45-1.55-.41-2.86,1.04-3.74,2.17Z"/>
        <path class="cls-4" d="M116.76,43.23c1-.82,2.41-.83,3.34.1,1.62,1.61-.4,4.27-2.4,3.95-.69-.04-1.33-.35-1.64-.99-.48-1-.19-2.33.69-3.06Z"/>
        <path class="cls-4" d="M111.51,38.99c1-.82,2.41-.83,3.34.1,1.62,1.61-.4,4.27-2.4,3.95-.69-.04-1.33-.35-1.64-.99-.48-1.01-.19-2.33.69-3.06Z"/>
        <path class="cls-4" d="M105.42,44.89c-.03-1.3.82-2.41,2.13-2.58,2.27-.29,3.12,2.94,1.64,4.32-.46.52-1.1.84-1.79.68-1.09-.24-1.96-1.28-1.99-2.42Z"/>
        <path class="cls-4" d="M112.32,46.39c1.29-.06,2.43.77,2.63,2.07.34,2.26-2.87,3.19-4.28,1.74-.53-.44-.86-1.08-.72-1.77.22-1.09,1.24-1.99,2.38-2.04Z"/>
      </g>
      <g>
        <path class="cls-4" d="M28.63,32.47c1.34-1.2,2.52-2.61,3.54-4.1,1.24-1.82,2.28-3.76,3.24-5.74.44-.89.73-1.79,1.12-2.68.13-.29,1.47-2.59,1.37-2.72.45.63.44,1.97.65,2.76.38,1.44,1.25,3.11.28,4.48-2.14,3.03-4.34,6.03-6.2,9.25-1.11,1.93-2.1,3.94-2.85,6.04-.38,1.05-.69,2.11-.94,3.2-.17.75-.35,1.43-1.06,1.86-.78.47-1.78.04-2.58-.39-2.3-1.24-8.89-5.5-4-7.74,1.63-.75,3.31-1.38,4.85-2.3.92-.55,1.77-1.19,2.57-1.9Z"/>
        <path class="cls-2" d="M11.49,35.1c-.15-.24.07-.54.29-.71,1.03-.81,2.45-1.08,3.71-.71,1.25.37,2.3,1.37,2.73,2.6-.33-.94,1.8-.99,2.21-.97,1.17.05,2.21.24,3.12,1.04,1.01.88,1.56,2.25,1.45,3.58,2.02-.54,3.68,1.54,3.97,3.37.24,1.5-.34,3.11-1.49,4.12-.97.85-2.39.74-3.48.2.39,1.89-.09,3.96-2.01,4.83-.91.41-1.88.34-2.82.09-.34-.09-2.16-.91-1.96-1.45-.76,2.05-2.77,2.03-4.5,1.58-.97-.25-1.81-.92-2.33-1.77-.49-.8-1.23-2.91-.31-3.68-1.35,1.15-3.61-.26-4.18-1.65-.45-1.12-.19-2.49.64-3.37-2.08-1.37-2.88-3.78-2.01-6.04.57-1.48,1.68-2.97,3.31-3.34,1.56-.35,2.82,1.14,3.67,2.29Z"/>
        <g>
          <path class="cls-4" d="M12.61,41.49c-.98-.85-2.38-.91-3.35-.01-1.68,1.56.26,4.28,2.27,4.03.69-.02,1.34-.31,1.67-.94.51-.99.27-2.33-.59-3.08Z"/>
          <path class="cls-4" d="M18,37.43c-.98-.85-2.38-.91-3.35-.01-1.68,1.56.26,4.28,2.27,4.03.69-.02,1.34-.31,1.67-.94.51-.99.27-2.33-.59-3.08Z"/>
          <path class="cls-4" d="M23.89,43.53c.07-1.29-.74-2.44-2.04-2.65-2.26-.37-3.22,2.83-1.79,4.26.44.53,1.07.87,1.76.74,1.09-.2,2-1.22,2.07-2.36Z"/>
          <path class="cls-4" d="M16.94,44.79c-1.29-.1-2.45.69-2.69,1.98-.42,2.25,2.76,3.28,4.22,1.88.54-.43.9-1.05.78-1.75-.18-1.1-1.17-2.03-2.31-2.12Z"/>
        </g>
      </g>
      <path class="cls-1" d="M126.79,40.81c-.56,1.03-1.13,2.14-2.07,2.87-.6.46-2.13,1.2-2.3-.15-.11-.89.32-2.01.74-2.78-.53.26-1.11.41-1.7.43-.47.01-.98-.08-1.31-.41-.37-.37-.41-.97-.25-1.47.1-.32.56-.74.6-1.03.06-.47-.37-.2-.73-.18-.24.02-.5,0-.72-.09-.71-.3-1.31-1.37-1.05-2.12.15-.45.53-.79.93-1.06.81-.55,1.76-.86,2.66-1.25,1.01-.45,1.84-1.28,2.35-2.26,1.58-3.03.34-6.67-1.39-9.36-1.28-1.99-2.98-3.68-4.85-5.13-1-.78-2.05-1.49-3.17-2.08-3.57-1.86-7.7-2.35-11.73-2.43-2.43-.05-5.12.13-6.86,1.83-1.97,1.92-1.96,5.03-2.39,7.58-.52,3.1-1.05,6.2-1.86,9.24-.64,2.42-1.42,4.81-2.33,7.14-.45,1.14-.93,2.27-1.45,3.38-.5,1.07-1.3,2.17-1.67,3.28-1.34,2.43-2.87,4.76-4.58,6.94-1.29,1.64-2.37,3.22-3.2,5.16-.28.65-.53,1.32-.54,2.02-.02.7.2,1.39.37,2.07.73,3,.41,6.25-.89,9.05-1.2,2.58-2.88,4.84-3.84,7.55-1.23,3.5-1.83,6.95-2.11,10.67-.29,3.95-.34,7.91-.79,11.85-.02.21-.06.47-.12.73-.11.48-.31.98-.68,1.22-.14.1-.31.15-.51.16-.82.02-1.84-1.16-2.57-1.52-.91-.45-1.9-.75-2.91-.87-.03,0-.07,0-.12-.01-.05,0-.09,0-.12,0-1.01.09-2.01.35-2.93.77-.74.34-1.81,1.48-2.62,1.43-.07,0-.14-.02-.21-.03-.49-.13-.74-.61-.88-1.13-.09-.35-.13-.71-.16-1-.32-3.95-.24-7.91-.4-11.87-.15-3.73-.63-7.19-1.75-10.74-.86-2.74-2.47-5.05-3.58-7.68-1.21-2.84-1.42-6.1-.59-9.08.19-.68.43-1.35.44-2.05s-.22-1.39-.48-2.04c-.77-1.97-1.79-3.58-3.03-5.27-1.64-2.24-3.09-4.61-4.35-7.09-.33-1.12-1.09-2.25-1.55-3.33-.48-1.13-.93-2.27-1.34-3.42-.84-2.36-1.53-4.77-2.09-7.22-.7-3.07-1.13-6.18-1.55-9.3-.34-2.56-.23-5.67-2.14-7.66-1.69-1.75-4.36-2.03-6.8-2.05-4.03-.05-8.17.29-11.8,2.04-1.14.55-2.22,1.23-3.24,1.97-1.91,1.39-3.67,3.02-5.01,4.96-1.82,2.63-3.18,6.22-1.7,9.31.48,1,1.27,1.86,2.27,2.34.88.43,1.82.76,2.62,1.34.38.28.75.63.89,1.09.23.76-.4,1.81-1.12,2.08-.23.09-.48.09-.73.07-.35-.04-.78-.32-.73.15.03.29.47.73.56,1.05.14.5.07,1.1-.3,1.46-.34.32-.85.4-1.32.37-.59-.03-1.17-.2-1.68-.48.4.78.79,1.91.65,2.8-.21,1.34-1.72.56-2.31.07-.91-.75-1.44-1.88-1.97-2.93C.14,33.7-.88,28.47.88,22.96,3.52,14.73,11.12,8.98,19.25,6.79c2.87-.77,5.75-.86,8.71-.83,2.89.04,5.76.46,8.64.54,1.67.05,3.36-.03,5.01-.35.16-.03.32-.07.47-.1,1.56-.38,2.75-1.08,4.18-1.84,1.22-.65,2.51-1.17,3.82-1.62,3.01-1.04,6.13-1.77,9.29-2.18.84-.25,1.76-.33,2.65-.37,1.12-.05,2.25-.05,3.38-.01,1.13,0,2.25.04,3.37.13.89.07,1.8.17,2.64.46,3.15.51,6.24,1.35,9.21,2.49,1.29.5,2.57,1.05,3.77,1.75,1.4.81,2.57,1.55,4.11,1.98.15.04.31.08.47.12,1.63.38,3.32.5,4.99.51,2.89.02,5.77-.31,8.65-.25,2.96.06,5.84.25,8.68,1.12,8.05,2.46,15.45,8.46,17.81,16.77,1.58,5.56.38,10.75-2.31,15.7Z"/>
      <path class="cls-5" d="M105.46,10.38c-.25.26-1.33.06-1.67.06-2.4-.01-4.8,0-7.18.31-2.73.35-5.55.81-8.01,2.18-2.26,1.26-4.11,3.29-5.23,5.69-1.31,2.84-1.78,5.99-2.41,9.05-.88,4.2-1.98,8.43-3.89,12.26-.96,1.93-2.13,3.76-3.59,5.32-1.25,1.35-2.84,2.31-4.04,3.7-.43.5-.89.97-1.27,1.51-1.31,1.86-1.51,4.23-1.64,6.44-.17,2.94-.14,5.86-.19,8.79-.03,2.08-.06,4.17.24,6.23.06.39.17.83.53.98.69.3,1.94-.43,2.47-.81.31-.22.63-.44.95-.65.41-.27.82-.53,1.24-.78.63-.37,2.69-.99,2.95.25.05.24-.05.49-.16.7-.6,1.16-1.67,1.96-2.71,2.73-.49.36-1.65.95-2.34,1.68-.48.5-.62.92-.43,1.39.06.15.15.31.27.47.01.02.03.04.05.06.41.52.5,1.3.22,1.91-.16.34-.42.64-.59.96-.08.15-.15.3-.18.47-.01.07-.02.13-.02.2,0,.51.38.92.61,1.37.22.41.33.89.31,1.37,0,.16-.02.31-.05.47-.03.14-.07.28-.12.42-.25.66-.77,1.31-.57,1.98.06.2.17.36.3.52.12.16.26.31.36.47,0,0,0,0,0,0,.33.51.4,1.19.18,1.76-.16.4-.43.72-.64,1.09-.01.02-.03.05-.04.07-.07.15-.13.3-.17.47-.05.23-.04.47.06.68.09.2.25.35.37.52.34.49.36,1.14.2,1.73-.04.16-.1.31-.17.45,0,0,0,0,0,.01-.22.47-.55.96-.4,1.46.12.41.51.66.71,1.02.08.14.11.29.12.45,0,.15,0,.31-.04.47-.07.36-.22.73-.27,1.06-.14.88-.07,1.78.03,2.67-.14.1-.3.15-.5.16-.79.02-1.78-1.16-2.48-1.52-.88-.45-1.83-.75-2.8-.87-.02,0-.06,0-.12-.01-.05,0-.09,0-.12,0-.98.09-1.94.35-2.83.78-.71.34-1.74,1.48-2.53,1.44-.07,0-.14-.02-.2-.03-.01-.13-.02-.26-.01-.39.02-1.1.69-1.94.19-3-.06-.13-.12-.25-.18-.39-.06-.15-.11-.31-.13-.47-.02-.16-.01-.31.04-.46.21-.57,1-.78,1.11-1.38.08-.41-.19-.74-.46-1.08-.12-.15-.24-.31-.32-.47-.07-.13-.12-.27-.13-.42-.06-.67.65-1.23.55-1.89-.04-.25-.18-.44-.33-.62-.12-.15-.25-.3-.35-.47-.04-.08-.08-.17-.11-.27-.11-.48-.03-1.01.26-1.41.11-.14.25-.27.3-.45.08-.28-.08-.54-.22-.8-.04-.07-.07-.14-.1-.22-.04-.09-.06-.17-.08-.25-.15-.75.6-1,.74-1.66.09-.44-.16-.85-.36-1.27-.07-.15-.14-.31-.17-.47-.03-.13-.04-.26-.02-.39.1-.69.79-1.09,1.08-1.66.13-.27.1-.58,0-.87-.05-.12-.11-.24-.17-.35-.03-.04-.05-.08-.08-.12-.22-.31-.47-.59-.61-.94-.24-.6-.08-1.34.38-1.78.07-.07.16-.14.24-.2.17-.14.34-.28.42-.47.02-.05.04-.11.05-.17.05-.37-.26-.68-.54-.92-.44-.36-.75-.82-1.18-1.18-.44-.36-.95-.62-1.4-.98-1.01-.8-2.05-1.63-2.61-2.81-.11-.22-.2-.47-.14-.71.3-1.23,2.35-.54,2.96-.15.41.26.82.53,1.22.82.31.22.62.45.93.68.79.61,2.1,1.24,2.79.07.26-.43.29-.96.32-1.46.28-5.4.55-10.83.03-16.22-.21-2.15-.87-3.85-2.22-5.54-1.15-1.43-2.71-2.45-3.91-3.83-1.4-1.62-2.51-3.48-3.41-5.44-1.79-3.9-2.75-8.16-3.48-12.39-.54-3.07-.89-6.24-2.11-9.12-1.03-2.44-2.81-4.53-5.03-5.86-2.41-1.45-5.22-2-7.94-2.44-2.37-.39-4.77-.48-7.17-.55-.34,0-1.43.15-1.67-.12-.22-.26.03-.55.22-.69.43-.32,1.15-.28,1.65-.3.61-.02,1.23.02,1.84.06.78.05,1.56.1,2.34.15,1.37.09,2.74.18,4.1.38,1.02.15,2.04.37,3.06.54,1.82.31,3.65.49,5.49.61.92.06,1.84.13,2.76.16.8.03,1.64-.14,2.46-.2,3.73-.25,7.47-.39,11.21-.41,1.5,0,2.99.01,4.49.03h.1c.35,0,.7.01,1.05.02h.1c1.5.03,2.99.06,4.49.12,3.74.15,7.47.41,11.19.79.81.08,1.64.28,2.45.28.92,0,1.84-.03,2.76-.06,1.84-.06,3.68-.17,5.51-.42,1.03-.14,2.05-.32,3.08-.44,1.37-.16,2.74-.2,4.11-.24.78-.02,1.56-.05,2.34-.07.61-.02,1.23-.04,1.84,0,.5.03,1.22.02,1.64.35.19.15.43.45.2.7Z"/>
      <path class="cls-3" d="M69.89,97.82c-3.99-.06-7.98-.09-11.97-.1.02.16.07.32.13.47,3.93,0,7.86.04,11.8.1.03-.16.05-.32.04-.47ZM58.26,88c3.8.01,7.61.04,11.41.1,0,0,0,0,0,0-.11-.17-.24-.32-.36-.47-3.74-.05-7.48-.08-11.23-.09.01.08.04.16.08.25.03.07.06.14.1.22ZM69.7,84.7c.03-.15.05-.31.05-.47-3.82-.05-7.64-.09-11.46-.1.03.16.1.32.17.47,3.74,0,7.49.04,11.24.1ZM58.61,94.79c3.62.01,7.23.04,10.85.09,0,0,0,0,0-.01.07-.14.12-.3.17-.45-3.78-.05-7.56-.09-11.34-.1.09.16.2.32.32.47ZM69.01,91.48c.03-.16.09-.32.17-.47-3.72-.05-7.43-.08-11.15-.09.09.17.23.32.35.47,3.54,0,7.09.04,10.63.09ZM69.08,77.43c-3.19-.04-6.38-.07-9.57-.08-.08.19-.25.33-.42.47,3.42.01,6.84.04,10.26.09-.12-.17-.22-.32-.27-.47ZM59.35,81.21c3.17.01,6.33.04,9.5.08.03-.16.1-.32.18-.47-3.31-.05-6.62-.07-9.94-.09.03.04.06.08.08.12.07.11.13.22.17.35Z"/>
    </g>
  </g>
</svg>