<?xml version="1.0" encoding="UTF-8"?>
<svg id="_圖層_2" data-name="圖層 2" xmlns="http://www.w3.org/2000/svg" xmlns:xlink="http://www.w3.org/1999/xlink" viewBox="0 0 109.87 109.96">
  <defs>
    <style>
      .cls-1 {
        fill: none;
      }

      .cls-2 {
        fill: #ae6c5f;
      }

      .cls-3 {
        clip-path: url(#clippath-1);
      }

      .cls-4 {
        clip-path: url(#clippath-3);
      }

      .cls-5 {
        clip-path: url(#clippath-4);
      }

      .cls-6 {
        clip-path: url(#clippath-2);
      }

      .cls-7 {
        clip-path: url(#clippath-7);
      }

      .cls-8 {
        clip-path: url(#clippath-6);
      }

      .cls-9 {
        clip-path: url(#clippath-9);
      }

      .cls-10 {
        clip-path: url(#clippath-8);
      }

      .cls-11 {
        clip-path: url(#clippath-5);
      }

      .cls-12 {
        isolation: isolate;
        opacity: .31;
      }

      .cls-12, .cls-13 {
        fill: #eb6c55;
      }

      .cls-14 {
        fill: #679883;
      }

      .cls-15 {
        fill: #efc1a4;
      }

      .cls-16 {
        fill: #a4cbbd;
      }

      .cls-17 {
        clip-path: url(#clippath);
      }

      .cls-18 {
        fill: #cb8062;
      }
    </style>
    <clipPath id="clippath">
      <path class="cls-1" d="M45.74,0c-.35,2.14-.54,2.95-2.24,3.99-1.7,1.04-3.76,1.21-5.71,1.6-7.14,1.42-13.38,5.93-18.14,11.43-4.76,5.51-8.22,12-11.54,18.48-2.13,4.15-4.22,8.33-5.83,12.71C.94,51.81-.08,55.6,0,59.44c.07,3.41,1.01,6.74,2.09,9.98,1.66,5,3.67,9.87,5.68,14.74,1.6,3.88,3.22,7.8,5.7,11.18,2.91,3.99,5.7,6.25,10.37,8.36.64.85,1.37,1.64,2.18,2.33.42.36.88.7,1.42.81s1.18-.1,1.41-.6c.15-.33.11-.71.13-1.02.26.31.54.61.89.8.35.19.79.27,1.15.1.47-.22.69-.79.66-1.31s-.27-1-.42-1.73c.17.47.7.73,1.2.78.42.04.88-.04,1.16-.35.4-.43.32-1.13.11-1.68-.22-.6-.54-1.16-.94-1.53.35.14.64.38.96.58s.71.33,1.07.22c.43-.13.69-.61.7-1.06s-.18-.89-.4-1.29c-.35-.64-.77-1.24-1.07-1.54-2.28-3.01-5.59-5.05-8.98-6.72-1.21-.6-2.49-1.19-3.22-2.03-4.6-8.71-7.4-18.37-8.09-28,5.69-10.69,11.26-21.46,16.62-31.8,4.48,7.81,11.07,14.41,18.87,18.92,1.19.68,2.42,1.33,3.75,1.64,1.33.31,2.72.27,4.08.09,5.21-.68,10.02-3.39,13.84-7.01,3.82-3.61,6.72-8.09,9.06-13.5,5.53,10.6,11.06,21.21,16.38,31.37-1.85,8.36-4.13,16.62-6.83,24.75-.69,2.06-1.74,4.43-3.65,4.74-4.22,1.1-8.02,3.78-10.46,7.4-.48.71-.91,1.47-1.02,2.32-.04.31,0,.69.28.84.22.12.49.04.73-.05.95-.37,1.84-.89,2.44-1.54-.31.6-.8,1.08-1.24,1.6-.43.52-.83,1.11-.89,1.78-.06.67.33,1.42.99,1.57.52.11,1.04-.16,1.43-.52.39-.36.68-.81,1.19-1.13-.48.53-.98,1.08-1.16,1.77-.18.69.08,1.55.75,1.8.6.22,1.26-.11,1.71-.56.45-.45.77-1.01,1.28-1.35-.4.78-1.43,1.48-1.04,2.26.2.39.7.54,1.14.46.43-.08.8-.35,1.16-.61,2.56-1.85,5.11-3.7,7.67-5.55,1.35-.98,2.71-1.97,3.8-3.24,1.25-1.46,2.07-3.24,2.57-5.48,6.06-10.58,11.86-21.88,12.66-34.18-1.91-7.76-5.34-15.04-8.75-22.27-3.9-8.27-7.98-16.79-14.14-22.71-5.9-4.29-12.9-7.03-20.14-7.88-1.15-.14-2.88-.02-3.93-.53-1.34-.65-1.74-1.32-1.64-3.82h-15.54Z"/>
    </clipPath>
    <clipPath id="clippath-1">
      <path class="cls-1" d="M45.74,0c-.35,2.14-.54,2.95-2.24,3.99-1.7,1.04-3.76,1.21-5.71,1.6-7.14,1.42-13.38,5.93-18.14,11.43-4.76,5.51-8.22,12-11.54,18.48-2.13,4.15-4.22,8.33-5.83,12.71C.94,51.81-.08,55.6,0,59.44c.07,3.41,1.01,6.74,2.09,9.98,1.66,5,3.67,9.87,5.68,14.74,1.6,3.88,3.22,7.8,5.7,11.18,2.91,3.99,5.7,6.25,10.37,8.36.64.85,1.37,1.64,2.18,2.33.42.36.88.7,1.42.81s1.18-.1,1.41-.6c.15-.33.11-.71.13-1.02.26.31.54.61.89.8.35.19.79.27,1.15.1.47-.22.69-.79.66-1.31s-.27-1-.42-1.73c.17.47.7.73,1.2.78.42.04.88-.04,1.16-.35.4-.43.32-1.13.11-1.68-.22-.6-.54-1.16-.94-1.53.35.14.64.38.96.58s.71.33,1.07.22c.43-.13.69-.61.7-1.06s-.18-.89-.4-1.29c-.35-.64-.77-1.24-1.07-1.54-2.28-3.01-5.59-5.05-8.98-6.72-1.21-.6-2.49-1.19-3.22-2.03-4.6-8.71-7.4-18.37-8.09-28,5.69-10.69,11.26-21.46,16.62-31.8,4.48,7.81,11.07,14.41,18.87,18.92,1.19.68,2.42,1.33,3.75,1.64,1.33.31,2.72.27,4.08.09,5.21-.68,10.02-3.39,13.84-7.01,3.82-3.61,6.72-8.09,9.06-13.5,5.53,10.6,11.06,21.21,16.38,31.37-1.85,8.36-4.13,16.62-6.83,24.75-.69,2.06-1.74,4.43-3.65,4.74-4.22,1.1-8.02,3.78-10.46,7.4-.48.71-.91,1.47-1.02,2.32-.04.31,0,.69.28.84.22.12.49.04.73-.05.95-.37,1.84-.89,2.44-1.54-.31.6-.8,1.08-1.24,1.6-.43.52-.83,1.11-.89,1.78-.06.67.33,1.42.99,1.57.52.11,1.04-.16,1.43-.52.39-.36.68-.81,1.19-1.13-.48.53-.98,1.08-1.16,1.77-.18.69.08,1.55.75,1.8.6.22,1.26-.11,1.71-.56.45-.45.77-1.01,1.28-1.35-.4.78-1.43,1.48-1.04,2.26.2.39.7.54,1.14.46.43-.08.8-.35,1.16-.61,2.56-1.85,5.11-3.7,7.67-5.55,1.35-.98,2.71-1.97,3.8-3.24,1.25-1.46,2.07-3.24,2.57-5.48,6.06-10.58,11.86-21.88,12.66-34.18-1.91-7.76-5.34-15.04-8.75-22.27-3.9-8.27-7.98-16.79-14.14-22.71-5.9-4.29-12.9-7.03-20.14-7.88-1.15-.14-2.88-.02-3.93-.53-1.34-.65-1.74-1.32-1.64-3.82h-15.54Z"/>
    </clipPath>
    <clipPath id="clippath-2">
      <path class="cls-1" d="M45.74,0c-.35,2.14-.54,2.95-2.24,3.99-1.7,1.04-3.76,1.21-5.71,1.6-7.14,1.42-13.38,5.93-18.14,11.43-4.76,5.51-8.22,12-11.54,18.48-2.13,4.15-4.22,8.33-5.83,12.71C.94,51.81-.08,55.6,0,59.44c.07,3.41,1.01,6.74,2.09,9.98,1.66,5,3.67,9.87,5.68,14.74,1.6,3.88,3.22,7.8,5.7,11.18,2.91,3.99,5.7,6.25,10.37,8.36.64.85,1.37,1.64,2.18,2.33.42.36.88.7,1.42.81s1.18-.1,1.41-.6c.15-.33.11-.71.13-1.02.26.31.54.61.89.8.35.19.79.27,1.15.1.47-.22.69-.79.66-1.31s-.27-1-.42-1.73c.17.47.7.73,1.2.78.42.04.88-.04,1.16-.35.4-.43.32-1.13.11-1.68-.22-.6-.54-1.16-.94-1.53.35.14.64.38.96.58s.71.33,1.07.22c.43-.13.69-.61.7-1.06s-.18-.89-.4-1.29c-.35-.64-.77-1.24-1.07-1.54-2.28-3.01-5.59-5.05-8.98-6.72-1.21-.6-2.49-1.19-3.22-2.03-4.6-8.71-7.4-18.37-8.09-28,5.69-10.69,11.26-21.46,16.62-31.8,4.48,7.81,11.07,14.41,18.87,18.92,1.19.68,2.42,1.33,3.75,1.64,1.33.31,2.72.27,4.08.09,5.21-.68,10.02-3.39,13.84-7.01,3.82-3.61,6.72-8.09,9.06-13.5,5.53,10.6,11.06,21.21,16.38,31.37-1.85,8.36-4.13,16.62-6.83,24.75-.69,2.06-1.74,4.43-3.65,4.74-4.22,1.1-8.02,3.78-10.46,7.4-.48.71-.91,1.47-1.02,2.32-.04.31,0,.69.28.84.22.12.49.04.73-.05.95-.37,1.84-.89,2.44-1.54-.31.6-.8,1.08-1.24,1.6-.43.52-.83,1.11-.89,1.78-.06.67.33,1.42.99,1.57.52.11,1.04-.16,1.43-.52.39-.36.68-.81,1.19-1.13-.48.53-.98,1.08-1.16,1.77-.18.69.08,1.55.75,1.8.6.22,1.26-.11,1.71-.56.45-.45.77-1.01,1.28-1.35-.4.78-1.43,1.48-1.04,2.26.2.39.7.54,1.14.46.43-.08.8-.35,1.16-.61,2.56-1.85,5.11-3.7,7.67-5.55,1.35-.98,2.71-1.97,3.8-3.24,1.25-1.46,2.07-3.24,2.57-5.48,6.06-10.58,11.86-21.88,12.66-34.18-1.91-7.76-5.34-15.04-8.75-22.27-3.9-8.27-7.98-16.79-14.14-22.71-5.9-4.29-12.9-7.03-20.14-7.88-1.15-.14-2.88-.02-3.93-.53-1.34-.65-1.74-1.32-1.64-3.82h-15.54Z"/>
    </clipPath>
    <clipPath id="clippath-3">
      <path class="cls-1" d="M45.74,0c-.35,2.14-.54,2.95-2.24,3.99-1.7,1.04-3.76,1.21-5.71,1.6-7.14,1.42-13.38,5.93-18.14,11.43-4.76,5.51-8.22,12-11.54,18.48-2.13,4.15-4.22,8.33-5.83,12.71C.94,51.81-.08,55.6,0,59.44c.07,3.41,1.01,6.74,2.09,9.98,1.66,5,3.67,9.87,5.68,14.74,1.6,3.88,3.22,7.8,5.7,11.18,2.91,3.99,5.7,6.25,10.37,8.36.64.85,1.37,1.64,2.18,2.33.42.36.88.7,1.42.81s1.18-.1,1.41-.6c.15-.33.11-.71.13-1.02.26.31.54.61.89.8.35.19.79.27,1.15.1.47-.22.69-.79.66-1.31s-.27-1-.42-1.73c.17.47.7.73,1.2.78.42.04.88-.04,1.16-.35.4-.43.32-1.13.11-1.68-.22-.6-.54-1.16-.94-1.53.35.14.64.38.96.58s.71.33,1.07.22c.43-.13.69-.61.7-1.06s-.18-.89-.4-1.29c-.35-.64-.77-1.24-1.07-1.54-2.28-3.01-5.59-5.05-8.98-6.72-1.21-.6-2.49-1.19-3.22-2.03-4.6-8.71-7.4-18.37-8.09-28,5.69-10.69,11.26-21.46,16.62-31.8,4.48,7.81,11.07,14.41,18.87,18.92,1.19.68,2.42,1.33,3.75,1.64,1.33.31,2.72.27,4.08.09,5.21-.68,10.02-3.39,13.84-7.01,3.82-3.61,6.72-8.09,9.06-13.5,5.53,10.6,11.06,21.21,16.38,31.37-1.85,8.36-4.13,16.62-6.83,24.75-.69,2.06-1.74,4.43-3.65,4.74-4.22,1.1-8.02,3.78-10.46,7.4-.48.71-.91,1.47-1.02,2.32-.04.31,0,.69.28.84.22.12.49.04.73-.05.95-.37,1.84-.89,2.44-1.54-.31.6-.8,1.08-1.24,1.6-.43.52-.83,1.11-.89,1.78-.06.67.33,1.42.99,1.57.52.11,1.04-.16,1.43-.52.39-.36.68-.81,1.19-1.13-.48.53-.98,1.08-1.16,1.77-.18.69.08,1.55.75,1.8.6.22,1.26-.11,1.71-.56.45-.45.77-1.01,1.28-1.35-.4.78-1.43,1.48-1.04,2.26.2.39.7.54,1.14.46.43-.08.8-.35,1.16-.61,2.56-1.85,5.11-3.7,7.67-5.55,1.35-.98,2.71-1.97,3.8-3.24,1.25-1.46,2.07-3.24,2.57-5.48,6.06-10.58,11.86-21.88,12.66-34.18-1.91-7.76-5.34-15.04-8.75-22.27-3.9-8.27-7.98-16.79-14.14-22.71-5.9-4.29-12.9-7.03-20.14-7.88-1.15-.14-2.88-.02-3.93-.53-1.34-.65-1.74-1.32-1.64-3.82h-15.54Z"/>
    </clipPath>
    <clipPath id="clippath-4">
      <path class="cls-1" d="M45.74,0c-.35,2.14-.54,2.95-2.24,3.99-1.7,1.04-3.76,1.21-5.71,1.6-7.14,1.42-13.38,5.93-18.14,11.43-4.76,5.51-8.22,12-11.54,18.48-2.13,4.15-4.22,8.33-5.83,12.71C.94,51.81-.08,55.6,0,59.44c.07,3.41,1.01,6.74,2.09,9.98,1.66,5,3.67,9.87,5.68,14.74,1.6,3.88,3.22,7.8,5.7,11.18,2.91,3.99,5.7,6.25,10.37,8.36.64.85,1.37,1.64,2.18,2.33.42.36.88.7,1.42.81s1.18-.1,1.41-.6c.15-.33.11-.71.13-1.02.26.31.54.61.89.8.35.19.79.27,1.15.1.47-.22.69-.79.66-1.31s-.27-1-.42-1.73c.17.47.7.73,1.2.78.42.04.88-.04,1.16-.35.4-.43.32-1.13.11-1.68-.22-.6-.54-1.16-.94-1.53.35.14.64.38.96.58s.71.33,1.07.22c.43-.13.69-.61.7-1.06s-.18-.89-.4-1.29c-.35-.64-.77-1.24-1.07-1.54-2.28-3.01-5.59-5.05-8.98-6.72-1.21-.6-2.49-1.19-3.22-2.03-4.6-8.71-7.4-18.37-8.09-28,5.69-10.69,11.26-21.46,16.62-31.8,4.48,7.81,11.07,14.41,18.87,18.92,1.19.68,2.42,1.33,3.75,1.64,1.33.31,2.72.27,4.08.09,5.21-.68,10.02-3.39,13.84-7.01,3.82-3.61,6.72-8.09,9.06-13.5,5.53,10.6,11.06,21.21,16.38,31.37-1.85,8.36-4.13,16.62-6.83,24.75-.69,2.06-1.74,4.43-3.65,4.74-4.22,1.1-8.02,3.78-10.46,7.4-.48.71-.91,1.47-1.02,2.32-.04.31,0,.69.28.84.22.12.49.04.73-.05.95-.37,1.84-.89,2.44-1.54-.31.6-.8,1.08-1.24,1.6-.43.52-.83,1.11-.89,1.78-.06.67.33,1.42.99,1.57.52.11,1.04-.16,1.43-.52.39-.36.68-.81,1.19-1.13-.48.53-.98,1.08-1.16,1.77-.18.69.08,1.55.75,1.8.6.22,1.26-.11,1.71-.56.45-.45.77-1.01,1.28-1.35-.4.78-1.43,1.48-1.04,2.26.2.39.7.54,1.14.46.43-.08.8-.35,1.16-.61,2.56-1.85,5.11-3.7,7.67-5.55,1.35-.98,2.71-1.97,3.8-3.24,1.25-1.46,2.07-3.24,2.57-5.48,6.06-10.58,11.86-21.88,12.66-34.18-1.91-7.76-5.34-15.04-8.75-22.27-3.9-8.27-7.98-16.79-14.14-22.71-5.9-4.29-12.9-7.03-20.14-7.88-1.15-.14-2.88-.02-3.93-.53-1.34-.65-1.74-1.32-1.64-3.82h-15.54Z"/>
    </clipPath>
    <clipPath id="clippath-5">
      <path class="cls-1" d="M45.74,0c-.35,2.14-.54,2.95-2.24,3.99-1.7,1.04-3.76,1.21-5.71,1.6-7.14,1.42-13.38,5.93-18.14,11.43-4.76,5.51-8.22,12-11.54,18.48-2.13,4.15-4.22,8.33-5.83,12.71C.94,51.81-.08,55.6,0,59.44c.07,3.41,1.01,6.74,2.09,9.98,1.66,5,3.67,9.87,5.68,14.74,1.6,3.88,3.22,7.8,5.7,11.18,2.91,3.99,5.7,6.25,10.37,8.36.64.85,1.37,1.64,2.18,2.33.42.36.88.7,1.42.81s1.18-.1,1.41-.6c.15-.33.11-.71.13-1.02.26.31.54.61.89.8.35.19.79.27,1.15.1.47-.22.69-.79.66-1.31s-.27-1-.42-1.73c.17.47.7.73,1.2.78.42.04.88-.04,1.16-.35.4-.43.32-1.13.11-1.68-.22-.6-.54-1.16-.94-1.53.35.14.64.38.96.58s.71.33,1.07.22c.43-.13.69-.61.7-1.06s-.18-.89-.4-1.29c-.35-.64-.77-1.24-1.07-1.54-2.28-3.01-5.59-5.05-8.98-6.72-1.21-.6-2.49-1.19-3.22-2.03-4.6-8.71-7.4-18.37-8.09-28,5.69-10.69,11.26-21.46,16.62-31.8,4.48,7.81,11.07,14.41,18.87,18.92,1.19.68,2.42,1.33,3.75,1.64,1.33.31,2.72.27,4.08.09,5.21-.68,10.02-3.39,13.84-7.01,3.82-3.61,6.72-8.09,9.06-13.5,5.53,10.6,11.06,21.21,16.38,31.37-1.85,8.36-4.13,16.62-6.83,24.75-.69,2.06-1.74,4.43-3.65,4.74-4.22,1.1-8.02,3.78-10.46,7.4-.48.71-.91,1.47-1.02,2.32-.04.31,0,.69.28.84.22.12.49.04.73-.05.95-.37,1.84-.89,2.44-1.54-.31.6-.8,1.08-1.24,1.6-.43.52-.83,1.11-.89,1.78-.06.67.33,1.42.99,1.57.52.11,1.04-.16,1.43-.52.39-.36.68-.81,1.19-1.13-.48.53-.98,1.08-1.16,1.77-.18.69.08,1.55.75,1.8.6.22,1.26-.11,1.71-.56.45-.45.77-1.01,1.28-1.35-.4.78-1.43,1.48-1.04,2.26.2.39.7.54,1.14.46.43-.08.8-.35,1.16-.61,2.56-1.85,5.11-3.7,7.67-5.55,1.35-.98,2.71-1.97,3.8-3.24,1.25-1.46,2.07-3.24,2.57-5.48,6.06-10.58,11.86-21.88,12.66-34.18-1.91-7.76-5.34-15.04-8.75-22.27-3.9-8.27-7.98-16.79-14.14-22.71-5.9-4.29-12.9-7.03-20.14-7.88-1.15-.14-2.88-.02-3.93-.53-1.34-.65-1.74-1.32-1.64-3.82h-15.54Z"/>
    </clipPath>
    <clipPath id="clippath-6">
      <path class="cls-1" d="M45.74,0c-.35,2.14-.54,2.95-2.24,3.99-1.7,1.04-3.76,1.21-5.71,1.6-7.14,1.42-13.38,5.93-18.14,11.43-4.76,5.51-8.22,12-11.54,18.48-2.13,4.15-4.22,8.33-5.83,12.71C.94,51.81-.08,55.6,0,59.44c.07,3.41,1.01,6.74,2.09,9.98,1.66,5,3.67,9.87,5.68,14.74,1.6,3.88,3.22,7.8,5.7,11.18,2.91,3.99,5.7,6.25,10.37,8.36.64.85,1.37,1.64,2.18,2.33.42.36.88.7,1.42.81s1.18-.1,1.41-.6c.15-.33.11-.71.13-1.02.26.31.54.61.89.8.35.19.79.27,1.15.1.47-.22.69-.79.66-1.31s-.27-1-.42-1.73c.17.47.7.73,1.2.78.42.04.88-.04,1.16-.35.4-.43.32-1.13.11-1.68-.22-.6-.54-1.16-.94-1.53.35.14.64.38.96.58s.71.33,1.07.22c.43-.13.69-.61.7-1.06s-.18-.89-.4-1.29c-.35-.64-.77-1.24-1.07-1.54-2.28-3.01-5.59-5.05-8.98-6.72-1.21-.6-2.49-1.19-3.22-2.03-4.6-8.71-7.4-18.37-8.09-28,5.69-10.69,11.26-21.46,16.62-31.8,4.48,7.81,11.07,14.41,18.87,18.92,1.19.68,2.42,1.33,3.75,1.64,1.33.31,2.72.27,4.08.09,5.21-.68,10.02-3.39,13.84-7.01,3.82-3.61,6.72-8.09,9.06-13.5,5.53,10.6,11.06,21.21,16.38,31.37-1.85,8.36-4.13,16.62-6.83,24.75-.69,2.06-1.74,4.43-3.65,4.74-4.22,1.1-8.02,3.78-10.46,7.4-.48.71-.91,1.47-1.02,2.32-.04.31,0,.69.28.84.22.12.49.04.73-.05.95-.37,1.84-.89,2.44-1.54-.31.6-.8,1.08-1.24,1.6-.43.52-.83,1.11-.89,1.78-.06.67.33,1.42.99,1.57.52.11,1.04-.16,1.43-.52.39-.36.68-.81,1.19-1.13-.48.53-.98,1.08-1.16,1.77-.18.69.08,1.55.75,1.8.6.22,1.26-.11,1.71-.56.45-.45.77-1.01,1.28-1.35-.4.78-1.43,1.48-1.04,2.26.2.39.7.54,1.14.46.43-.08.8-.35,1.16-.61,2.56-1.85,5.11-3.7,7.67-5.55,1.35-.98,2.71-1.97,3.8-3.24,1.25-1.46,2.07-3.24,2.57-5.48,6.06-10.58,11.86-21.88,12.66-34.18-1.91-7.76-5.34-15.04-8.75-22.27-3.9-8.27-7.98-16.79-14.14-22.71-5.9-4.29-12.9-7.03-20.14-7.88-1.15-.14-2.88-.02-3.93-.53-1.34-.65-1.74-1.32-1.64-3.82h-15.54Z"/>
    </clipPath>
    <clipPath id="clippath-7">
      <path class="cls-1" d="M45.74,0c-.35,2.14-.54,2.95-2.24,3.99-1.7,1.04-3.76,1.21-5.71,1.6-7.14,1.42-13.38,5.93-18.14,11.43-4.76,5.51-8.22,12-11.54,18.48-2.13,4.15-4.22,8.33-5.83,12.71C.94,51.81-.08,55.6,0,59.44c.07,3.41,1.01,6.74,2.09,9.98,1.66,5,3.67,9.87,5.68,14.74,1.6,3.88,3.22,7.8,5.7,11.18,2.91,3.99,5.7,6.25,10.37,8.36.64.85,1.37,1.64,2.18,2.33.42.36.88.7,1.42.81s1.18-.1,1.41-.6c.15-.33.11-.71.13-1.02.26.31.54.61.89.8.35.19.79.27,1.15.1.47-.22.69-.79.66-1.31s-.27-1-.42-1.73c.17.47.7.73,1.2.78.42.04.88-.04,1.16-.35.4-.43.32-1.13.11-1.68-.22-.6-.54-1.16-.94-1.53.35.14.64.38.96.58s.71.33,1.07.22c.43-.13.69-.61.7-1.06s-.18-.89-.4-1.29c-.35-.64-.77-1.24-1.07-1.54-2.28-3.01-5.59-5.05-8.98-6.72-1.21-.6-2.49-1.19-3.22-2.03-4.6-8.71-7.4-18.37-8.09-28,5.69-10.69,11.26-21.46,16.62-31.8,4.48,7.81,11.07,14.41,18.87,18.92,1.19.68,2.42,1.33,3.75,1.64,1.33.31,2.72.27,4.08.09,5.21-.68,10.02-3.39,13.84-7.01,3.82-3.61,6.72-8.09,9.06-13.5,5.53,10.6,11.06,21.21,16.38,31.37-1.85,8.36-4.13,16.62-6.83,24.75-.69,2.06-1.74,4.43-3.65,4.74-4.22,1.1-8.02,3.78-10.46,7.4-.48.71-.91,1.47-1.02,2.32-.04.31,0,.69.28.84.22.12.49.04.73-.05.95-.37,1.84-.89,2.44-1.54-.31.6-.8,1.08-1.24,1.6-.43.52-.83,1.11-.89,1.78-.06.67.33,1.42.99,1.57.52.11,1.04-.16,1.43-.52.39-.36.68-.81,1.19-1.13-.48.53-.98,1.08-1.16,1.77-.18.69.08,1.55.75,1.8.6.22,1.26-.11,1.71-.56.45-.45.77-1.01,1.28-1.35-.4.78-1.43,1.48-1.04,2.26.2.39.7.54,1.14.46.43-.08.8-.35,1.16-.61,2.56-1.85,5.11-3.7,7.67-5.55,1.35-.98,2.71-1.97,3.8-3.24,1.25-1.46,2.07-3.24,2.57-5.48,6.06-10.58,11.86-21.88,12.66-34.18-1.91-7.76-5.34-15.04-8.75-22.27-3.9-8.27-7.98-16.79-14.14-22.71-5.9-4.29-12.9-7.03-20.14-7.88-1.15-.14-2.88-.02-3.93-.53-1.34-.65-1.74-1.32-1.64-3.82h-15.54Z"/>
    </clipPath>
    <clipPath id="clippath-8">
      <path class="cls-1" d="M32.8,7.12c.87-.43,1.68-.69,2.48-.9-1.44,4.66-1.94,9.54-2.47,14.39-.34,3.11-.68,6.24-.35,9.25.53,1.65,2.04,2.76,3.48,3.73,6.46,4.35,13.4,8.27,18.39,14.24,0,0,.09.11.6.58,6.7-6.06,13.46-12.16,21.23-16.76.9-.53,1.86-1.09,2.17-1.82.4-1.14.27-2.39.13-3.59-.76-6.61-1.42-13.06-2.18-19.67.7.21,1.24.36,1.91.73.89,6.38.46,13.25,2.2,19.45.4,1.42.9,2.8,1.27,4.22.95,3.69.93,7.56.45,11.34-.18,1.43-.43,2.87-.97,4.2-.61,1.52-1.58,2.86-2.54,4.19-.4.56-.8,1.11-1.21,1.67.1,1.77.19,3.54.29,5.3.02.31-.04.72-.3.49-14.66,3.31-30.07,3.24-44.62-.24.07-2.09-.03-4.19-.4-6.43-3.18-2.6-4.57-6.9-4.57-11,0-4.1,1.2-8.1,2.32-11.84.51-6.85,1.38-13.78,2.69-21.54Z"/>
    </clipPath>
    <clipPath id="clippath-9">
      <path class="cls-1" d="M32.8,7.12c.87-.43,1.68-.69,2.48-.9-1.44,4.66-1.94,9.54-2.47,14.39-.34,3.11-.68,6.24-.35,9.25.53,1.65,2.04,2.76,3.48,3.73,6.46,4.35,13.4,8.27,18.39,14.24,0,0,.09.11.6.58,6.7-6.06,13.46-12.16,21.23-16.76.9-.53,1.86-1.09,2.17-1.82.4-1.14.27-2.39.13-3.59-.76-6.61-1.42-13.06-2.18-19.67.7.21,1.24.36,1.91.73.89,6.38.46,13.25,2.2,19.45.4,1.42.9,2.8,1.27,4.22.95,3.69.93,7.56.45,11.34-.18,1.43-.43,2.87-.97,4.2-.61,1.52-1.58,2.86-2.54,4.19-.4.56-.8,1.11-1.21,1.67.1,1.77.19,3.54.29,5.3.02.31-.04.72-.3.49-14.66,3.31-30.07,3.24-44.62-.24.07-2.09-.03-4.19-.4-6.43-3.18-2.6-4.57-6.9-4.57-11,0-4.1,1.2-8.1,2.32-11.84.51-6.85,1.38-13.78,2.69-21.54Z"/>
    </clipPath>
  </defs>
  <g id="_圖層_1-2" data-name="圖層 1">
    <g>
      <g id="OBJECTS">
        <g>
          <path class="cls-18" d="M22.48,90.12c1.6-1,3.3-1.83,5.06-2.49-.31,1.37-.72,2.72-1.22,4.04-.05.14-.12.29-.25.35-.1.05-.22.03-.34.01-1.3-.23-2.54-.81-3.26-1.91Z"/>
          <path class="cls-18" d="M87.76,89.25c-1.6-1-3.3-1.83-5.06-2.49.31,1.37.72,2.72,1.22,4.04.05.14.12.29.25.35.1.05.22.03.34.01,1.3-.23,2.54-.81,3.26-1.91Z"/>
          <path class="cls-15" d="M33.45,55.67c-1.41,11.39-4.93,22.37-8.44,33.3-.54,1.67-3.65,5.49-2.9,6.79,1.18,3.25,7.25,4.24,10.06,6.26,2.81,2.02,5.99,3.46,9.15,4.88,2.01.91,4.04,1.82,6.18,2.36,2.73.69,5.58.75,8.39.66,5.89-.18,11.81-1,17.3-3.14,5.49-2.14,10.03-5.12,13.81-9.41-6.47-12.49-8.68-27.13-10.3-41.11-.12-1.07-.29-2.24-1.09-2.98-.51-.47-1.21-.68-1.9-.84-9.35-2.18-19.28,2.35-28.64.2-3.36-.77-7.14-2.33-11.63,3.01Z"/>
          <path class="cls-2" d="M56.57,81.16c-.78.28-1.26,1.21-1.04,2.01.06.2.16.4.34.52.44.3,1.07-.09,1.22-.6.15-.51-.04-1.05-.51-1.93Z"/>
          <g>
            <g>
              <g>
                <path class="cls-15" d="M45.74,0c-.35,2.14-.54,2.95-2.24,3.99-1.7,1.04-3.76,1.21-5.71,1.6-7.14,1.42-13.38,5.93-18.14,11.43-4.76,5.51-8.22,12-11.54,18.48-2.13,4.15-4.22,8.33-5.83,12.71C.94,51.81-.08,55.6,0,59.44c.07,3.41,1.01,6.74,2.09,9.98,1.66,5,3.67,9.87,5.68,14.74,1.6,3.88,3.22,7.8,5.7,11.18,2.91,3.99,5.7,6.25,10.37,8.36.64.85,1.37,1.64,2.18,2.33.42.36.88.7,1.42.81s1.18-.1,1.41-.6c.15-.33.11-.71.13-1.02.26.31.54.61.89.8.35.19.79.27,1.15.1.47-.22.69-.79.66-1.31s-.27-1-.42-1.73c.17.47.7.73,1.2.78.42.04.88-.04,1.16-.35.4-.43.32-1.13.11-1.68-.22-.6-.54-1.16-.94-1.53.35.14.64.38.96.58s.71.33,1.07.22c.43-.13.69-.61.7-1.06s-.18-.89-.4-1.29c-.35-.64-.77-1.24-1.07-1.54-2.28-3.01-5.59-5.05-8.98-6.72-1.21-.6-2.49-1.19-3.22-2.03-4.6-8.71-7.4-18.37-8.09-28,5.69-10.69,11.26-21.46,16.62-31.8,4.48,7.81,11.07,14.41,18.87,18.92,1.19.68,2.42,1.33,3.75,1.64,1.33.31,2.72.27,4.08.09,5.21-.68,10.02-3.39,13.84-7.01,3.82-3.61,6.72-8.09,9.06-13.5,5.53,10.6,11.06,21.21,16.38,31.37-1.85,8.36-4.13,16.62-6.83,24.75-.69,2.06-1.74,4.43-3.65,4.74-4.22,1.1-8.02,3.78-10.46,7.4-.48.71-.91,1.47-1.02,2.32-.04.31,0,.69.28.84.22.12.49.04.73-.05.95-.37,1.84-.89,2.44-1.54-.31.6-.8,1.08-1.24,1.6-.43.52-.83,1.11-.89,1.78s.33,1.42.99,1.57c.52.11,1.04-.16,1.43-.52.39-.36.68-.81,1.19-1.13-.48.53-.98,1.08-1.16,1.77-.18.69.08,1.55.75,1.8.6.22,1.26-.11,1.71-.56s.77-1.01,1.28-1.35c-.4.78-1.43,1.48-1.04,2.26.2.39.7.54,1.14.46.43-.08.8-.35,1.16-.61,2.56-1.85,5.11-3.7,7.67-5.55,1.35-.98,2.71-1.97,3.8-3.24,1.25-1.46,2.07-3.24,2.57-5.48,6.06-10.58,11.86-21.88,12.66-34.18-1.91-7.76-5.34-15.04-8.75-22.27-3.9-8.27-7.98-16.79-14.14-22.71-5.9-4.29-12.9-7.03-20.14-7.88-1.15-.14-2.88-.02-3.93-.53-1.34-.65-1.74-1.32-1.64-3.82h-15.54Z"/>
                <g>
                  <g class="cls-17">
                    <path class="cls-2" d="M14.35,63.01c-1.38-2.9-2.76-5.79-4.14-8.69,2.2,1.77,3.73,4.35,4.14,8.69Z"/>
                  </g>
                  <g class="cls-3">
                    <path class="cls-2" d="M94.31,65.01c.97-3.93,2.99-7.59,5.81-10.5-1.28,2.94-2.96,5.7-5.81,10.5Z"/>
                  </g>
                  <g class="cls-6">
                    <path class="cls-2" d="M29.47,106.24c-1.6-2.44-3.92-4.3-6.2-6.12,1.44.49,2.7,1.44,3.75,2.55,1.05,1.11,1.91,2.38,2.45,3.57Z"/>
                  </g>
                  <g class="cls-4">
                    <path class="cls-2" d="M32.26,105.14c-1.89-2.83-4.29-5.3-7.07-7.27,3.19,1.48,5.85,4.09,7.07,7.27Z"/>
                  </g>
                  <g class="cls-5">
                    <path class="cls-2" d="M34.44,102.21c-1.98-2.63-4.7-4.59-7.39-6.5,1.61.42,3.05,1.34,4.28,2.46,1.23,1.11,2.28,2.41,3.1,4.05Z"/>
                  </g>
                  <g class="cls-11">
                    <path class="cls-2" d="M86.53,99.39c-3.04,1.82-5.53,4.53-7.1,7.71,1.78-2.89,4.45-5.11,7.1-7.71Z"/>
                  </g>
                  <g class="cls-8">
                    <path class="cls-2" d="M84.35,96.85c-1.6,1.16-3.16,2.38-4.51,3.82s-2.47,3.12-3.06,5c1.86-3.1,4.29-5.85,7.57-8.82Z"/>
                  </g>
                  <g class="cls-7">
                    <path class="cls-2" d="M82.21,95.05c-3.25,1.65-5.99,4.31-7.73,7.51,2.05-2.61,4.45-4.95,7.73-7.51Z"/>
                  </g>
                </g>
              </g>
              <g>
                <path class="cls-2" d="M24.45,90.16c1.46.68,4.02,2.08,5.36,2.97.66.45,1.32.93,1.94,1.44.63.51,1.23,1.05,1.78,1.65.28.3.55.6.79.93.12.16.24.33.35.5l.33.5c.22.34.44.7.58,1.09.14.39.21.87,0,1.27-.1.2-.26.35-.44.48-.18.13-.41.17-.62.16-.43-.04-.79-.26-1.13-.48-.67-.46-1.24-1.03-1.8-1.6.59.54,1.19,1.08,1.86,1.51.33.21.7.4,1.08.42.19,0,.37-.04.51-.15.15-.11.26-.27.34-.43.15-.33.08-.72-.07-1.06-.15-.35-.37-.68-.6-.99l-.35-.49c-.11-.16-.23-.32-.35-.47-.24-.31-.51-.6-.78-.89-1.1-1.14-2.35-2.14-3.63-3.08-.64-.48-1.29-.94-1.96-1.38-.66-.45-2.51-1.47-3.19-1.9Z"/>
                <path class="cls-2" d="M84.42,90.08c-.73.32-1.45.67-2.15,1.06-.7.38-1.38.79-2.02,1.25-.65.45-1.26.95-1.82,1.5-.56.55-1.09,1.16-1.61,1.75-.52.6-1.03,1.21-1.48,1.86-.22.32-.44.65-.62.99-.17.34-.33.71-.31,1.06,0,.35.37.59.73.56.37-.02.73-.22,1.06-.42.67-.42,1.28-.94,1.91-1.44-.59.54-1.17,1.09-1.83,1.55-.33.22-.69.45-1.12.5-.21.02-.45-.02-.64-.15-.2-.12-.33-.35-.36-.58-.05-.46.11-.86.28-1.23.17-.37.38-.73.6-1.07.45-.68.95-1.31,1.47-1.92.53-.61,1.06-1.2,1.64-1.77.59-.57,1.24-1.05,1.92-1.49,1.37-.86,2.84-1.54,4.37-2.01Z"/>
                <path class="cls-2" d="M32.47,99.78c.44.4.82.86,1.14,1.37.16.26.29.53.39.83.1.29.16.62.12.96-.02.17-.08.34-.18.49-.04.08-.1.14-.16.21-.07.07-.14.13-.22.17-.32.17-.66.19-.97.15-.64-.08-1.2-.45-1.52-.96.46.37,1,.6,1.54.61.27,0,.54-.04.73-.16.05-.03.09-.06.13-.1.04-.05.08-.09.1-.14.06-.1.1-.21.12-.33.07-.5-.14-1.05-.37-1.57-.24-.52-.54-1.02-.85-1.53Z"/>
                <path class="cls-2" d="M78.14,98.42c-.47.55-.91,1.11-1.3,1.71-.38.6-.74,1.23-.85,1.9-.05.33-.02.67.15.94.15.28.47.41.8.41.33.01.66-.12.96-.31.3-.18.57-.42.83-.67-.21.29-.45.57-.74.79-.29.22-.64.4-1.04.42-.2.01-.4-.02-.58-.1-.09-.04-.18-.09-.26-.16-.09-.08-.14-.15-.19-.24-.22-.34-.26-.76-.2-1.13.13-.75.52-1.4.95-1.98.44-.58.93-1.11,1.48-1.58Z"/>
              </g>
            </g>
            <path class="cls-2" d="M54.74,50.44c-.59-4.57-.59-9.23,0-13.8.49,4.89.64,9.8,0,13.8Z"/>
          </g>
          <g>
            <path class="cls-16" d="M32.8,7.12c.87-.43,1.68-.69,2.48-.9-1.44,4.66-1.94,9.54-2.47,14.39-.34,3.11-.68,6.24-.35,9.25.53,1.65,2.04,2.76,3.48,3.73,6.46,4.35,13.4,8.26,18.39,14.24,0,0,.09.11.6.58,6.7-6.06,13.46-12.16,21.23-16.76.9-.53,1.86-1.09,2.17-1.82.4-1.14.27-2.39.13-3.59-.76-6.61-1.42-13.06-2.18-19.67.7.21,1.24.36,1.91.73.89,6.38.46,13.25,2.2,19.45.4,1.42.9,2.8,1.27,4.22.95,3.69.93,7.56.45,11.34-.18,1.43-.43,2.87-.97,4.2-.61,1.52-1.58,2.86-2.54,4.19-.4.56-.8,1.11-1.21,1.67.1,1.77.19,3.54.29,5.3.02.31-.04.72-.3.49-14.66,3.31-30.07,3.24-44.62-.24.07-2.09-.03-4.19-.4-6.43-3.18-2.6-4.57-6.9-4.57-11,0-4.1,1.2-8.1,2.32-11.84.51-6.85,1.38-13.78,2.69-21.54Z"/>
            <g>
              <g class="cls-10">
                <path class="cls-14" d="M29.85,49.09c2.71,3.4,7.55,4.93,11.72,3.71-1.57,1.39-3.81,1.99-5.87,1.59s-3.9-1.81-5.85-5.3Z"/>
              </g>
              <g class="cls-9">
                <path class="cls-14" d="M80.36,49.09c-2.71,3.4-7.55,4.93-11.72,3.71,1.57,1.39,3.81,1.99,5.87,1.59,2.06-.41,3.9-1.81,5.85-5.3Z"/>
              </g>
            </g>
          </g>
        </g>
      </g>
      <g>
        <circle class="cls-12" cx="73.18" cy="41.67" r="19.68" transform="translate(-8.03 63.95) rotate(-45)"/>
        <circle class="cls-12" cx="73.18" cy="41.67" r="11.73" transform="translate(-8.03 63.95) rotate(-45)"/>
        <circle class="cls-13" cx="73.19" cy="41.65" r="5.95" transform="translate(-7.39 66.11) rotate(-46.53)"/>
      </g>
    </g>
  </g>
</svg>