<?xml version="1.0" encoding="UTF-8"?>
<svg id="_圖層_2" data-name="圖層 2" xmlns="http://www.w3.org/2000/svg" viewBox="0 0 81.18 128.79">
  <defs>
    <style>
      .cls-1 {
        fill: #ffce83;
      }

      .cls-2 {
        fill: #efa89e;
      }

      .cls-3 {
        fill: #cc7354;
      }

      .cls-4 {
        fill: #fff;
      }

      .cls-5 {
        fill: #ffaa6b;
      }

      .cls-6 {
        fill: #dd8980;
      }
    </style>
  </defs>
  <g id="_圖層_1-2" data-name="圖層 1">
    <g>
      <path class="cls-2" d="M55.76,128.22l-9.59.57c-.92-15.4-4.03-16.67-5.34-16.59-2.18.13-2.63,11.15-12.19,14.82-10.41,3.98-23.71-5.52-27.75-22.33-2.35-9.78.09-19.6,6.23-25.03,3.25-2.88,10.51-7.03,22.51-2.53l-.2,12.92c-3.6-2.5-9.61-8.07-15.95-3.19-3.66,2.81-4.76,9.32-3.25,15.58,2.7,11.21,10.68,17.25,14.98,15.6,5.99-2.29,3.6-15.44,15.62-15.46,13.41,0,14.56,19.29,14.94,25.63Z"/>
      <path class="cls-2" d="M25.76,86.45c2.11,4.32,12.42,10.12,25.63,7.73,18.31-3.31,29.74-16.58,29.79-34.35.05-17.77-11.82-28.66-23.42-24.52-13.87,4.96-6.78,20.76-11.18,27.69-4.4,6.92-13.9,8.97-18.11,12.92-4.21,3.95-4.24,7.38-2.71,10.53Z"/>
      <path class="cls-2" d="M48.28,10.76c-.99-3.42-1.8-7.08-2.47-10.76l-9.66.58c.75,4.34,1.7,8.72,2.9,12.86,1.44,4.97,3.05,9.36,4.6,13.62,3.12,8.52,5.17,17.2,4.74,25.11l10.24-.8c.54-9.88-2.61-18.49-5.95-27.61-1.5-4.1-3.05-8.34-4.4-12.99Z"/>
      <path class="cls-6" d="M28.99,85.62c1.93,3.95,10.66,8.22,22.75,6.03,16.75-3.03,27.2-15.16,27.25-31.41.05-16.25-10-26.52-20.61-22.73-12.68,4.53-4.17,17.03-9.54,26.23-4.48,7.67-12.92,8.98-16.77,12.6-3.85,3.61-4.48,6.41-3.07,9.29Z"/>
      <g>
        <path class="cls-3" d="M40.52,86.97c-2.68,0-5.34-.31-7.9-.94-.31-.08-.51-.39-.43-.71.08-.31.39-.51.71-.43,9.81,2.39,20.78-.07,28.63-6.43.25-.2.62-.17.82.09.2.25.17.62-.09.82-4,3.24-8.86,5.57-14.06,6.74-2.54.57-5.12.85-7.68.85Z"/>
        <path class="cls-3" d="M56.65,78.99c-.24,0-.46-.15-.55-.38-.11-.3.04-.64.34-.75,6.71-2.51,11.92-8.95,12.96-16.04.05-.32.35-.54.67-.49.32.05.54.35.49.67-.55,3.7-2.13,7.27-4.59,10.31-2.46,3.04-5.61,5.34-9.12,6.65-.07.03-.14.04-.21.04Z"/>
        <path class="cls-3" d="M66.74,63.75c-.07,0-.14-.01-.21-.04-.3-.12-.45-.46-.33-.76,2.41-6.19,2.02-13.41-1.03-19.32-.15-.29-.04-.64.25-.79.29-.15.64-.04.79.25,3.21,6.2,3.61,13.78,1.09,20.28-.09.23-.31.37-.55.37Z"/>
        <path class="cls-3" d="M70.99,55.47s-.08,0-.12-.01c-.32-.07-.52-.38-.45-.7.46-2.17.31-4.52-.44-6.61-.11-.31.05-.64.36-.75.3-.11.64.05.75.36.83,2.33,1,4.83.48,7.24-.06.28-.3.46-.57.46Z"/>
        <path class="cls-3" d="M63.35,49.24c-.32,0-.58-.25-.59-.57-.07-2.25-1.04-4.44-2.67-5.99-.23-.22-.24-.6-.02-.83.22-.23.6-.24.83-.02,1.84,1.77,2.95,4.25,3.03,6.8.01.32-.24.59-.57.6,0,0-.01,0-.02,0Z"/>
        <path class="cls-3" d="M50.69,71.36c-.19,0-.37-.09-.48-.25-.19-.27-.12-.63.15-.82,2.92-2.04,5.1-5.04,6.11-8.46,1.07-3.59,1.19-6.97.36-10.63-.07-.32.13-.63.44-.7.32-.07.63.13.7.44.86,3.81.74,7.48-.38,11.22-1.09,3.67-3.43,6.89-6.57,9.08-.1.07-.22.11-.33.11Z"/>
        <path class="cls-3" d="M59.2,66.48c-.14,0-.28-.05-.39-.15-.24-.22-.26-.59-.04-.83,2.12-2.35,2.9-5.83,1.99-8.86-.09-.31.08-.64.39-.73.31-.09.64.08.73.39,1.03,3.42.15,7.33-2.24,9.98-.12.13-.28.19-.44.19Z"/>
        <path class="cls-3" d="M43.23,78.85c-.32,0-.58-.25-.59-.57,0-.32.24-.59.57-.6,5.04-.15,9.87-2.64,12.93-6.65.2-.26.56-.31.82-.11.26.2.31.56.11.82-1.59,2.09-3.71,3.85-6.12,5.1-2.41,1.24-5.08,1.94-7.7,2.02,0,0-.01,0-.02,0Z"/>
        <path class="cls-3" d="M40.69,82.98c-.79,0-1.59-.05-2.37-.16-.32-.04-.55-.34-.5-.66.04-.32.34-.55.66-.5,3.43.47,7.01-.17,10.06-1.79.29-.15.64-.04.79.24.15.29.04.64-.24.79-2.57,1.37-5.49,2.08-8.4,2.08Z"/>
      </g>
      <path class="cls-6" d="M45.84,10.9c-.99-3.42-1.8-7.08-2.47-10.76l-4.52.27c.75,4.34,1.7,8.72,2.9,12.86,1.44,4.97,3.52,7.06,5.08,11.31.82,2.25.52,5.56,1.19,7.97.8,2.85,2.16,5.75,2.68,8.58.7,3.87,0,6.41.39,10.86l5.09-.5c.23-4.31-.73-7.86-1.61-11.83-.6-2.7-.88-5.88-1.77-8.53-.8-2.4-2.41-4.78-3.31-7.22-1.5-4.1-2.32-8.36-3.67-13.02Z"/>
      <path class="cls-6" d="M54.01,128.33l-6.02.36c-.92-15.4-4.66-18.48-6.87-18.35-1.84.11-2.64,1.21-3.92,4.55-1.37,3.58-4.07,8.26-8.28,10.12-3.9,1.72-7.8,1.64-12.13-.64-7.01-3.69-11.85-10.46-14.15-20.01-2.35-9.78.24-18.03,6.38-23.45,3.25-2.88,11.16-5.35,22.01-1.31l-.27,7.91c-3.6-2.5-10.87-8.48-18.66-2.59-3.68,2.78-5.4,11.24-3.89,17.51,2.56,10.63,11.16,19.57,17.09,17.12,2.36-.97,4.26-2.6,5.97-7.02,1.38-3.55,2.86-7.94,9.66-8.35,11.28-.67,12.72,17.8,13.1,24.14Z"/>
      <path class="cls-3" d="M61.02,36.85c7.09,1.8,12.62,10.27,12.59,22.04-.05,15.48-10,27.04-25.96,29.93-7.87,1.42-14.24-.03-18.08-2.29,2.73,3.65,11.02,7.13,22.17,5.12,16.75-3.03,27.2-15.16,27.25-31.41.04-14.9-8.39-24.76-17.97-23.38Z"/>
      <path class="cls-1" d="M77.56,50.15l-26.71.12c0,4.45.41,9.3-2.02,13.46-4.48,7.67-12.92,8.98-16.77,12.6-3.85,3.61-4.48,6.41-3.07,9.29,3.48,7.12,17.63,7.52,25.97,5.31,7.82-2.07,14.67-6.44,19.09-13.26,5.42-8.37,6.03-19.37,3.51-27.52Z"/>
      <g>
        <g>
          <path class="cls-4" d="M56.49,52.53s-.02,0-.03,0c-.33-.01-.59-.29-.57-.62.14-3.36-.98-5.93-2.29-8.91-.94-2.15-2.02-4.59-2.77-7.7-.08-.32.12-.65.44-.72.32-.08.65.12.72.44.73,3.01,1.78,5.39,2.7,7.5,1.37,3.11,2.55,5.8,2.39,9.44-.01.32-.28.57-.6.57Z"/>
          <polygon class="cls-4" points="56.06 37.21 55.55 38.02 51.55 35.51 49.33 39.68 48.49 39.23 51.19 34.15 56.06 37.21"/>
        </g>
        <g>
          <path class="cls-4" d="M48.87,73.92c-.22,0-.42-.12-.53-.32-.15-.29-.04-.65.25-.81.02-.01,1.65-.89,3.32-2.98,1.55-1.93,3.46-5.32,3.8-10.54.02-.33.31-.58.64-.56.33.02.58.31.56.64-.36,5.56-2.43,9.19-4.1,11.26-1.83,2.26-3.58,3.2-3.66,3.24-.09.05-.18.07-.28.07Z"/>
          <polygon class="cls-4" points="59.85 62.85 59.09 63.43 56.22 59.68 52.69 62.82 52.05 62.1 56.35 58.28 59.85 62.85"/>
        </g>
        <g>
          <path class="cls-4" d="M31,81.97c-.1,0-.17,0-.19,0-.33,0-.59-.29-.58-.62,0-.33.29-.59.62-.58h0c.07,0,6.93.14,13.14-4.4.27-.2.64-.14.84.13.2.27.14.64-.13.84-6.04,4.42-12.49,4.63-13.69,4.63Z"/>
          <polygon class="cls-4" points="43.89 81.83 42.95 81.62 44.01 77.02 39.33 76.3 39.48 75.35 45.17 76.22 43.89 81.83"/>
        </g>
      </g>
      <g>
        <circle class="cls-5" cx="60.12" cy="74.04" r="1.68"/>
        <path class="cls-5" d="M67.29,66.81c.03.53-.37.98-.9,1.01-.53.03-.98-.37-1.01-.9s.37-.98.9-1.01.98.37,1.01.9Z"/>
        <path class="cls-5" d="M65.78,57.54c.07,1.19-.84,2.21-2.02,2.28-1.19.07-2.21-.84-2.28-2.02-.07-1.19.84-2.21,2.02-2.28,1.19-.07,2.21.84,2.28,2.02Z"/>
        <path class="cls-5" d="M70.09,52c.03.48-.34.9-.82.93-.48.03-.9-.34-.93-.82s.34-.9.82-.93.9.34.93.82Z"/>
        <circle class="cls-5" cx="58.73" cy="84.28" r="2.24"/>
        <circle class="cls-5" cx="44.67" cy="84.64" r="1.28"/>
        <path class="cls-5" d="M51.11,77.14c.03.57-.4,1.06-.97,1.1-.57.03-1.06-.4-1.1-.97-.03-.57.4-1.06.97-1.1.57-.03,1.06.4,1.1.97Z"/>
        <circle class="cls-5" cx="34.28" cy="87.5" r="1.44"/>
      </g>
      <path class="cls-5" d="M78.67,55.24c-.25-1.81-.63-3.52-1.11-5.09l-5.05.02c8.71,30.18-25.85,46.43-42.94,36.36.24.33.52.64.82.94,1.6,1.56,3.16,3.02,7.59,3.87,2.86.55,6.07,1.01,9.49.82,1.37-.09,2.8-.26,4.28-.52,5.91-1.07,11.04-3.28,15.2-6.4.11-.08.22-.16.33-.25.06-.04.11-.09.17-.13.17-.13.33-.26.49-.39.02-.02.05-.04.07-.06.2-.16.39-.33.59-.49,0,0,0,0,0,0,6.11-5.28,9.09-12.13,10.05-18.79,0-.05.01-.1.02-.15.02-.12.03-.23.05-.35.18-1.43.27-2.9.28-4.4,0-1.48-.14-3.31-.32-5Z"/>
    </g>
  </g>
</svg>