<?xml version="1.0" encoding="UTF-8"?>
<svg id="_圖層_2" data-name="圖層 2" xmlns="http://www.w3.org/2000/svg" viewBox="0 0 153.77 136.08">
  <defs>
    <style>
      .cls-1 {
        fill: #226aa0;
      }

      .cls-2 {
        fill: #c6362d;
        opacity: .5;
      }

      .cls-3 {
        fill: #c38365;
      }

      .cls-4 {
        fill: #efc1a4;
      }

      .cls-5 {
        fill: #3e86c7;
      }

      .cls-6 {
        fill: #443d32;
      }

      .cls-7 {
        fill: #ececec;
      }
    </style>
  </defs>
  <g id="_圖層_1-2" data-name="圖層 1">
    <g id="Icon7">
      <g>
        <g>
          <g>
            <path class="cls-4" d="M153.67,90.36s-13.15-1.42-17.8.77c0,0,2.94,3.2,6.33,5.54,3.38,2.33-1.04,3.35-5.03,1.07-3.19-1.82-8.23-1.87-11.72-3.74-1.74-.93-3.75-1.26-5.71-.97-7.21,1.07-23.85,2.03-31.18,2.74-9.51.92-5.39-15.8,10.3-14.47,8.63.73,17.99-.2,24.93,1.88,6.94,2.08,17.28.18,22.42,1.2,2.29.45,4.16,1.42,5.47,2.47.34.27.64.55.9.83,1,1.05,1.41,2.08,1.1,2.68Z"/>
            <path class="cls-3" d="M152.57,87.68h0c-6.5-2.2-12.72-1.18-12.78-1.16l-.09-.51c.06-.01,5.75-.95,11.97.85.34.27.64.55.9.83Z"/>
          </g>
          <path class="cls-5" d="M64.04,44.77c10.69.77,13.43,13.68,15.68,16.37,2.25,2.69,6.13,10.19,12.39,14.77,6.26,4.58,9.16,1.61,14.89,3.65,0,0,10.13.58,13.1,2.65,1.68.42,3.06.45,5.09.82,0,0-2.24,7.72-.6,10.9,0,0-3.78-.23-5.97.59-1.74,2.09-11.36,3.53-14.4,3.5-3.03-.03-4.23.55-6.33.88-2.11.33-3.93-1.03-6.92-.36-2.99.67-9.64.91-12.77-3.5-1.14-1.61-7.16-8.02-8.56-11.77-1.4-3.75-4.97-7.13-7.5-11.61-2.53-4.48-5.46-8.68-3.11-17.26,2.35-8.57,5-9.63,5-9.63Z"/>
        </g>
        <path class="cls-5" d="M73.32,58.79c3.52,7.96,5.53,19.67,5.29,25.76-.24,6.08-.58,37.79-.38,45.15.31,11.27-46.17,4.89-54.18,1.52,0,0-4.49-10.09-3.44-16.72,0,0-3.11-8.4-1.28-18.92,1.84-10.52-2.65-30.86-2.65-30.86,0,0,2.78-11.36,7.18-15.18,4.4-3.82,10.43-5.67,15.12-10.36l25.05,5.46s6.81,8.57,9.28,14.16Z"/>
        <path class="cls-1" d="M78.61,97.21h-.5c.08-6.08.17-10.65.25-12.54.24-6.08-1.82-17.84-5.27-25.65l.46-.2c3.48,7.87,5.55,19.73,5.31,25.86-.08,1.88-.17,6.44-.25,12.52Z"/>
        <g>
          <path class="cls-2" d="M81.66,66.6c0,7.5-6.19,13.58-13.83,13.58s-13.83-6.08-13.83-13.58,6.19-13.58,13.83-13.58,13.83,6.08,13.83,13.58Z"/>
          <path class="cls-2" d="M77.39,66.6c0,5.18-4.28,9.39-9.56,9.39s-9.56-4.2-9.56-9.39,4.28-9.39,9.56-9.39,9.56,4.2,9.56,9.39Z"/>
          <path class="cls-2" d="M72.44,66.6c0,2.5-2.07,4.53-4.62,4.53s-4.62-2.03-4.62-4.53,2.07-4.53,4.62-4.53,4.62,2.03,4.62,4.53Z"/>
        </g>
        <g>
          <path class="cls-4" d="M46.59,81.23c-3.33,2.19-16.29,11.75-25.12,16.88-9.5,5.52-14.06,1.86-15.63.13-1.58-1.73-1.73-4.47,3.05-8.77,4.65-4.18,24.71-10.65,29.92-13.71,0,0,3.94-2.77,7.79-1.72,3.84,1.04,1.46,6.23,0,7.19Z"/>
          <path class="cls-4" d="M14.62,86.35l-.22-.45c3.42-1.64,7.7-3.37,11.79-5l.19.46c-4.08,1.63-8.35,3.35-11.76,4.99Z"/>
          <path class="cls-4" d="M21.6,98.32l-.26-.43c2.64-1.54,5.87-3.6,9.88-6.32l.29.41c-4.02,2.73-7.26,4.8-9.91,6.34Z"/>
          <g>
            <path class="cls-4" d="M49.21,79.57c1.52-1.62,17.71-9.66,17.71-9.66,1.28-.7,1.58-1.85.97-2.29-.51-.37-1.17-.31-1.17-.31,0,0,6.59-3.98,3.23-5.39,0,0,1.34-1.41.79-2.44-.24-.45-.88-.73-2.45-.41,0,0,.24-3.26-6.15-.46-6.43,2.82-12.24,6.04-12.24,6.04,0,0,.64-1.87,1.28-2.72,1.05-1.39,1.37-4.6-.05-4.97-.84-.22-4.56,5.57-5.38,6.83-.83,1.26-2.35,5.85-3.28,8.47-.71,1.99-3.24,2.91-3.77,3.73,0,0-2.79,4.62.27,7,3.05,2.38,10.23-3.43,10.23-3.43Z"/>
            <g>
              <polygon class="cls-3" points="58.47 64.78 58.22 64.35 67.83 59.1 68.08 59.53 58.47 64.78"/>
              <polygon class="cls-3" points="60.01 67.48 59.76 67.05 69.09 62 69.33 62.44 60.01 67.48"/>
              <polygon class="cls-3" points="61.55 70.38 61.31 69.94 66.28 67.28 66.52 67.71 61.55 70.38"/>
            </g>
          </g>
        </g>
        <path class="cls-4" d="M34.9,66c-2.06,5.07-12.45,26.14-16.13,30.21-3.68,4.07-11.96,8.94-15.42.79-1.38-3.26-.16-9.93,4.34-19.44,5.09-10.75,11.65-21.78,13.22-23.88.64-.85,1.46-1.61,2.38-2.25,3.24-2.26,7.82-3.24,10.96-2.91.26.03.52.11.73.24.91.57,3.28,2.39,2.93,5.89-.43,4.32-.96,6.29-3.02,11.35Z"/>
        <path class="cls-5" d="M20.17,100.47c8.16-.95,13.2-6.33,14.67-8.92,1.52-2.68,6.61-7.07,9.19-8.08,2.57-1.01,2.76-1.49,2.76-1.49-2.51-1.1-5.66-8.17-5.66-8.17,0,0-.95.87-3.22,1.66-2.27.79-8.02.86-12.5,1.97-4.48,1.11-8.71,3.5-10.65,4.69-1.8,1.11-3.67,0-6.96,5.98-3.28,5.98-1.35,10.62.71,12.77,2.06,2.15,11.65-.39,11.65-.39Z"/>
        <path class="cls-5" d="M2.82,99.41c-1.19-1.31-3.8-4.25-2.43-12.56,1.83-11.08,7.32-17.02,8.53-19.27,0,0,6.47-13.59,12.68-18.75,6.21-5.16,11.91-4.08,13.27-3.15,1.36.93,3.03,1.89,3.03,1.89,3.74,2.77,3.21,10.75,1.71,14.19-1.5,3.45-9.39,16.86-13.96,20.35-3.69,2.82-5.14,5.92-4.53,8.02,0,0-4.04,11.22-10.16,11.58-6.12.35-6.8-.81-8.14-2.29Z"/>
        <path class="cls-1" d="M30.79,76.7l-.4-.29c3.78-5.13,7.91-12.28,8.99-14.75,1.65-3.79,2.88-11.84-.55-14.37l.3-.39c3.81,2.82,2.31,11.27.71,14.95-1.09,2.5-5.25,9.69-9.05,14.85Z"/>
        <path class="cls-1" d="M14.9,82.33l-.27-.42c2.1-1.29,6.28-3.62,10.72-4.72,2.33-.58,4.98-.87,7.32-1.13,2.19-.24,4.08-.46,5.16-.83,2.18-.76,3.12-1.6,3.13-1.61l.34.36s-1.01.91-3.31,1.71c-1.13.39-3.05.61-5.27.86-2.32.26-4.96.55-7.25,1.12-4.37,1.08-8.5,3.38-10.57,4.66Z"/>
        <path class="cls-1" d="M20.2,100.72l-.06-.49c8.03-.93,12.99-6.16,14.48-8.8,1.49-2.62,6.62-7.13,9.31-8.19,2.31-.91,2.62-1.36,2.64-1.38-.01.02-.01.02-.01.02l.47.18c-.05.14-.42.65-2.9,1.63-2.62,1.03-7.61,5.43-9.06,7.98-1.54,2.71-6.63,8.09-14.86,9.05Z"/>
      </g>
      <g>
        <path class="cls-1" d="M86.9,82.15l-.34-.36s4.06-3.6,10.3-3.74v.49c-6.04.13-9.92,3.58-9.96,3.61Z"/>
        <path class="cls-1" d="M52.71,53.72c-8.7,0-14.6-6.23-16.28-10.05l.46-.19c2.1,4.77,11,13.43,23.78,8.05l.2.45c-2.93,1.23-5.66,1.75-8.15,1.75Z"/>
        <path class="cls-1" d="M39.78,86.09c-2.7-1.77-4.74-5.49-5.44-9.96l.49-.08c.68,4.34,2.64,7.94,5.23,9.63l-.28.41Z"/>
        <path class="cls-1" d="M35.09,78.54l-.08-.48c1.92-.32,3.53-.95,4.6-1.37.53-.21.88-.34,1.1-.38l.08.48c-.16.02-.53.17-.99.35-1.02.4-2.73,1.07-4.7,1.4Z"/>
        <path class="cls-1" d="M37.36,80.35l-.22-.44c.19-.09,4.64-2.29,5.77-2.72l.18.46c-1.11.42-5.68,2.68-5.72,2.7Z"/>
        <polygon class="cls-1" points="37.37 83.41 37.12 82.98 41.15 80.68 41.41 81.11 37.37 83.41"/>
        <polygon class="cls-1" points="40.88 83.4 40.61 82.99 44.97 80.25 45.24 80.67 40.88 83.4"/>
        <path class="cls-1" d="M118.15,94.32c-1.54-4.26-1.09-7.36-.43-9.22.72-2.03,1.79-3.03,1.84-3.07l.34.36-.17-.18.17.18s-4.12,3.91-1.28,11.76l-.47.16Z"/>
        <polygon class="cls-1" points="124.77 84.83 119.27 84.25 119.33 83.76 124.82 84.34 124.77 84.83"/>
        <polygon class="cls-1" points="122.61 86.71 117.66 86.39 117.69 85.9 122.65 86.22 122.61 86.71"/>
        <rect class="cls-1" x="117.36" y="88.77" width="6.31" height=".49"/>
        <polygon class="cls-1" points="119.11 92.23 119.06 91.75 124 91.27 124.05 91.76 119.11 92.23"/>
      </g>
      <g>
        <path class="cls-7" d="M68.43,8.66s.54.02.45-.52-.73-.51-2.09-3.05c-1.36-2.55-3.51-2.08-3.51-2.08,0,0-2.07-2.84-5.14-1.7,0,0-2.49-2.07-6.37-1-3.88,1.07-5.5,2.38-5.5,2.38,0,0-5.69.32-8.77,5.18-3.08,4.86-3.28,12.19-2.02,15.03,1.26,2.83,2.09,4.26,2.23,6.04.14,1.78,2.65,2.15,2.65,2.15l5.22,1.99,22.83-24.42Z"/>
        <path class="cls-4" d="M68.43,8.66c1.63,4.04,3.1,8.04,3.68,15.53.41,5.27.32,9.85-.63,11.5-1.98,3.41-10.13,9.39-11.64,12.41,0,0-14.26,4.84-20.86-8.8l1.4-8.22s3.18.94,6.68-2.6c0,0-9.64-5.24-5.43-10.09.57-.65,1.47-.96,2.32-.75.97.24,2.34,1,4.05,3.03,0,0,2.56.04,3.84-2.12,1.28-2.16,2.69-2.56,3.49-3.59,1.13-1.45.67-3.62-.4-6.86-.17-.52.19-1.07.74-1.11.72-.06,2.17,0,3.53-1.02,2.26-1.72,4.68,1.6,6.65,2.33,2.02.76,2.6.37,2.6.37Z"/>
        <path class="cls-7" d="M50.8,24.72c.99-.12,1.64.79,2.87,5.27,1.24,4.48,6.98,2.14,12.25,4.33,5.57,2.32,5.98.22,5.98.22,0,0,.34,5.41-2.48,7.03-2.81,1.62-15.98-.03-18.02-4.19-2.05-4.16-.55-9.03-.95-11.03-.4-2,.34-1.63.34-1.63Z"/>
        <path class="cls-6" d="M70.88,31.78c-.45.05-1.78.15-2.67-.37-.15-.09-.32-.2-.51-.34-.76-.54-1.8-1.28-2.88-.79l-.19-.42c1.33-.59,2.54.27,3.34.84.18.13.34.24.47.32.93.54,2.5.29,2.52.29l.08.45s-.07.01-.16.02Z"/>
        <path class="cls-6" d="M69.68,32.85c-.58.07-1.44-.08-2.12-.78l.34-.32c.81.83,1.89.69,2.05.56l.3.35c-.1.08-.3.16-.55.18Z"/>
        <path class="cls-6" d="M70.68,27.01c-1.03.12-2.19-.04-2.9-.58l.28-.36c.9.68,2.83.65,3.78.15.17-.09.44-.27.43-.49-.02-.34-.48-.96-1.01-1.69-.95-1.31-2.26-3.1-2.87-5.46l.45-.11c.59,2.27,1.87,4.02,2.8,5.3.62.85,1.06,1.46,1.09,1.92.02.25-.09.61-.67.92-.37.19-.86.33-1.38.39Z"/>
        <path class="cls-6" d="M65.21,18.94c.1.82-.3,1.53-.88,1.6-.59.07-1.14-.54-1.24-1.35-.1-.82.3-1.53.88-1.6.59-.07,1.14.54,1.24,1.35Z"/>
        <path class="cls-6" d="M71.89,20.64c.07.55-.23,1.03-.67,1.08s-.84-.35-.91-.9c-.07-.55.23-1.03.67-1.08.43-.05.84.35.91.9Z"/>
        <path class="cls-7" d="M67.08,15.91c-.38-1.18-3.57-2.38-4.35-2.32-.77.06-4.49,1.95-3.3,2.47,1.19.52,1.95-1.17,4.08-.16,2.13,1.01,2.82.98,3.26.76.44-.22.32-.75.32-.75Z"/>
        <path class="cls-7" d="M70.3,16.59c-1.03.12-1.03,1.03-.3,1.55.73.51,1.5.42,2.29,1.46.79,1.03,1,.1.47-.92-.53-1.02-1.02-1.45-1.47-1.76-.42-.29-.99-.32-.99-.32Z"/>
        <path class="cls-6" d="M43.85,24.42c-1.38-1.49-1.85-3.07-1.26-4.23.37-.74,1.14-1.16,1.95-1.09l-.04.45c-.63-.06-1.2.27-1.49.84-.5.99-.05,2.38,1.19,3.72l-.34.31Z"/>
        <g>
          <path class="cls-4" d="M47.87,39.02c-.43-.49-.82-1.12-1.17-1.94l.59-.24c1.18,2.76,2.72,3.12,5.29,3.72l.26.06c1.69.4,3.97,1.52,4.07,1.56l-.29.56s-2.31-1.14-3.93-1.52l-.26-.06c-1.88-.44-3.38-.79-4.56-2.15Z"/>
          <path class="cls-4" d="M51.8,43.52l.31-.55c.31.17.62.34.92.5,1.37.76,2.79,1.54,3.32,1.43l.13.61c-.73.15-1.91-.47-3.76-1.5-.3-.17-.6-.33-.91-.5Z"/>
          <path class="cls-4" d="M59.09,29.6c.33-1.67,1.75-2.88,4.62-3.94l.22.59c-2.64.97-3.94,2.04-4.22,3.47l-.63-.12Z"/>
          <path class="cls-4" d="M62.02,11.18l-.08-.62c1.31-.15,2.63.71,3.7,1.4.14.09.28.18.41.27,1.04.66,1.95.82,1.96.82l-.11.62s-1.05-.18-2.2-.91c-.14-.09-.28-.18-.42-.27-.98-.64-2.19-1.43-3.27-1.3Z"/>
          <path class="cls-4" d="M64.91,10.31l.37-.51c1.19.83,3.15,1.08,3.17,1.08l-.08.62c-.09-.01-2.14-.27-3.46-1.19Z"/>
          <path class="cls-4" d="M56.29,17.68l.14-.61c.1.02,2.49.55,3.63.9l-.19.6c-1.11-.34-3.55-.88-3.57-.89Z"/>
          <polygon class="cls-4" points="57 20.11 56.94 19.49 59.6 19.21 59.67 19.83 57 20.11"/>
        </g>
      </g>
    </g>
  </g>
</svg>