<?xml version="1.0" encoding="UTF-8"?>
<svg xmlns="http://www.w3.org/2000/svg" viewBox="0 0 102.57 121.15">
  <defs>
    <style>
      .cls-1 {
        fill: #55748d;
      }

      .cls-2 {
        fill: #995032;
      }

      .cls-3 {
        fill: #637d44;
      }

      .cls-4 {
        isolation: isolate;
      }

      .cls-5 {
        fill: #c6362d;
        opacity: .5;
      }

      .cls-6 {
        fill: #0f0f0f;
        mix-blend-mode: soft-light;
        opacity: .46;
      }

      .cls-7 {
        fill: #c38365;
      }

      .cls-8 {
        fill: #793d2b;
      }

      .cls-9 {
        fill: #5e5748;
      }

      .cls-10 {
        fill: #efc1a4;
      }

      .cls-11 {
        fill: #f2ac44;
      }

      .cls-12 {
        fill: #3e86c7;
      }

      .cls-13 {
        fill: #ef8a37;
      }

      .cls-14 {
        fill: #443d32;
      }

      .cls-15 {
        fill: #d1e4f0;
      }
    </style>
  </defs>
  <g class="cls-4">
    <g id="_圖層_2" data-name="圖層 2">
      <g id="_圖層_1-2" data-name="圖層 1">
        <g id="Icon4">
          <g>
            <path class="cls-2" d="M23.36,79.13c-.06.01-.13,0-.19,0-.18-.04-.33-.18-.36-.37-2.57-14.1-8.46-31.23-13.37-39.05-.05-.08-.1-.16-.15-.24h0c-.14-.22-.27-.42-.41-.62-.15-.21-.09-.5.13-.65.22-.14.51-.08.66.13.16.23.32.48.48.73,0,0,0,0,0,0,.05.08.1.16.15.25,2.22,3.58,4.79,9.35,7.17,16.09,2.72,7.7,4.94,15.94,6.27,23.19.05.25-.12.5-.38.54Z"/>
            <path class="cls-2" d="M20.91,81.61c-.18-.04-.33-.18-.36-.37-1.3-7.43-3.58-15.93-6.4-23.92-2.7-7.64-5.61-13.91-7.96-17.19-.15-.21-.1-.5.11-.65.21-.15.51-.1.66.11,2.41,3.35,5.35,9.7,8.08,17.43,2.84,8.04,5.13,16.59,6.44,24.07.04.25-.13.49-.39.54-.06.01-.13,0-.19,0Z"/>
            <path class="cls-2" d="M18.34,83.99c-.18-.04-.33-.19-.36-.38-2.49-15.81-9.21-34.36-13.92-41.77-.14-.22-.07-.51.15-.64.22-.14.51-.07.65.15,2.48,3.9,5.4,10.56,8.01,18.29,2.75,8.14,4.9,16.6,6.04,23.82.04.25-.14.49-.4.53-.06,0-.12,0-.18,0Z"/>
            <g>
              <path class="cls-8" d="M28.36,95.12c-.23-.05-.4-.25-.4-.5,0-.29.22-.53.51-.54l26.45-.79c.29,0,.53.22.53.51,0,.29-.22.53-.51.54l-26.45.79s-.09,0-.13-.01Z"/>
              <path class="cls-2" d="M50.59,120.88c-.5-.11-.89-.55-.92-1.08l-1.46-30.32c-.03-.64.47-1.19,1.13-1.22.65-.03,1.21.47,1.24,1.11l1.46,30.32c.03.64-.47,1.19-1.13,1.22-.11,0-.22,0-.32-.03Z"/>
              <path class="cls-8" d="M55.79,109.67c-.5-.11-.89-.55-.92-1.08l-1.46-30.32c-.03-.64.47-1.19,1.13-1.22.65-.03,1.21.47,1.24,1.11l1.46,30.32c.03.64-.47,1.19-1.13,1.22-.11,0-.22,0-.32-.03Z"/>
              <path class="cls-2" d="M28.97,113.53c-.65-.02-1.17-.55-1.15-1.2,0-.1.23-8.7-.82-21.28-.16-1.85-.34-3.79-.55-5.81-1.7-15.92-9.54-38.35-15.07-46.62-.01-.02-.02-.04-.04-.06-.08.03-.17.06-.26.1-.25.1-.54.22-.89.37-.01,0-.03.01-.04.02-.26.12-.55.25-.86.4,0,0,0,0-.01,0,0,0,0,0-.01,0,0,0-.01,0-.02,0-.45.22-.95.48-1.52.78-1.97,1.06-3.58,2.41-4.5,3.26-.07.07-.14.13-.21.2,0,0,0,0,0,0,2.63,4.18,5.72,11.69,8.38,20.41,3.01,9.85,5.08,19.94,5.68,27.7,1.23,15.88.58,27.31.57,27.43-.04.64-.6,1.13-1.25,1.09-.07,0-.13-.01-.2-.03-.55-.13-.95-.63-.91-1.2,0-.11.64-11.4-.57-27.12-1.27-16.47-8.87-40.05-14.19-47.79l-.52-.75.62-.67s.35-.38.9-.9c.03-.03.06-.06.09-.09l.02-.02c1.03-.95,2.78-2.4,4.95-3.57,1.34-.72,2.38-1.2,3.15-1.53.09-.04.18-.08.27-.11,1.01-.41,1.5-.51,1.59-.52l.74-.14.44.6c2.85,3.9,6.41,11.73,9.53,20.95,3.3,9.76,5.66,19.79,6.49,27.53.22,2.05.4,4.02.56,5.91,1.06,12.7.82,21.39.82,21.49-.02.64-.56,1.15-1.22,1.13Z"/>
            </g>
            <path class="cls-8" d="M28.97,113.53c-.65-.02-1.17-.55-1.15-1.2,0-.1.23-8.7-.82-21.28l2.37-.14c1.06,12.7.82,21.39.82,21.49-.02.64-.56,1.15-1.22,1.13Z"/>
            <path class="cls-2" d="M16.21,100.15c-.29-.07-.51-.32-.51-.62,0-.36.28-.66.65-.67l33.49-.8c.37,0,.67.28.68.64,0,.36-.28.66-.65.67l-33.49.8c-.06,0-.11,0-.17-.02Z"/>
            <path class="cls-2" d="M15.54,92.12c-.51-.11-.89-.55-.92-1.08-.03-.64.48-1.18,1.13-1.21l36.22-1.54c.65-.03,1.21.47,1.23,1.11.03.64-.48,1.18-1.13,1.21l-36.22,1.54c-.11,0-.22,0-.32-.03Z"/>
            <path class="cls-11" d="M16.82,90.21c-.68-6.51,4.07-13.67,8.31-15.39h.02s27.35-1.06,27.35-1.06h0c1.46.24,2.19,2.67,2.05,4.88-.01.19-.03.42-.04.68-.18,2.96-.55,9.11-1.05,9.89-.09.14-.35.55-18.57.84-8.99.14-18.08.16-18.08.16Z"/>
            <g>
              <polygon class="cls-8" points="17.53 100.17 17.47 98.86 17.75 98.85 17.81 100.15 17.53 100.17"/>
              <polygon class="cls-8" points="48.46 99.38 48.4 98.08 48.68 98.07 48.74 99.37 48.46 99.38"/>
              <polygon class="cls-8" points="17.07 92.11 16.82 90.21 17.11 90.18 17.35 92.07 17.07 92.11"/>
              <polygon class="cls-8" points="48.29 91.03 48.28 90.75 50.65 90.66 50.66 90.94 48.29 91.03"/>
              <path class="cls-8" d="M3.23,43.53c-.07.07-.14.13-.21.2-.49-.74-1.44-1.77-1.49-1.82,0,0,0,0,0,0l.09-.08.02-.02.09-.08s.97,1.05,1.49,1.82Z"/>
              <path class="cls-8" d="M11.34,38.57c-.08.03-.17.06-.26.1-.55-.94-1.17-1.75-1.34-1.98.09-.04.18-.08.27-.11.19.25.65.87,1.11,1.61.09.14.23.39.22.38Z"/>
              <path class="cls-8" d="M10.31,39.31c-.27.1-.71.32-.86.39-.05-.08-.1-.16-.15-.24,0,0,0,0,.01,0,.13-.07.34-.16.62-.29.04-.02.24-.11.23-.1.05.08.1.16.15.25Z"/>
              <path class="cls-8" d="M6.86,41.1l-.17-.23c.27-.19.8-.48.82-.49l.14.24s-.54.3-.79.48Z"/>
              <path class="cls-8" d="M4.6,42.68l-.19-.21c.06-.05.59-.49.86-.61l.12.25c-.2.09-.64.44-.79.57Z"/>
            </g>
            <path class="cls-13" d="M21.02,88.21c-1.4,0-2.56,0-3.38-.02v-.25c5.92.1,31.03-.2,33.29-.84,1.3-.92,1.73-7.13,1.74-7.19l.26.02c-.02.26-.45,6.45-1.86,7.39h-.02s-.02.02-.02.02c-1.92.58-20.96.88-30,.88Z"/>
          </g>
          <g>
            <g>
              <path class="cls-10" d="M62.34,108.47c-1,2.48-4.08,7.94-3.07,9.44,1.01,1.51,2.16,2.18,5.15,2.11,2.99-.08,6.98,1.51,9.51,1.05,2.53-.45,4.54-2.41,3.04-3.54-1.51-1.13-2.81-.53-6.03-1.96-3.22-1.43-3.29-3.59-3.21-4.87.08-1.28.22-1.83-.93-3.41-1.15-1.58-3.07-1.28-3.68-.83-.61.45-.78,2-.78,2Z"/>
              <g>
                <path class="cls-10" d="M76.26,119.12c-.07,0-1.65-.22-2.98-.82l.12-.25c1.29.58,2.89.8,2.9.8l-.04.28Z"/>
                <path class="cls-10" d="M74.7,120.17s-.78-.07-1.53-.5l.14-.24c.7.39,1.41.46,1.41.46l-.03.28Z"/>
              </g>
            </g>
            <g>
              <g>
                <path class="cls-10" d="M86.29,103.89c-.21,5.96-2.96,8.88-1.95,10.39,1.01,1.51,1.77,1.89,4.76,1.82,2.99-.08,7.48,1.41,10.01.96,2.53-.45,4.44-2.02,2.93-3.15-1.51-1.13-2.81-.53-6.03-1.96-3.22-1.43-3.84-3.31-3.76-4.59.08-1.28.77-2.11-.38-3.69-1.15-1.58-3.07-1.28-3.68-.83-.61.45-1.89,1.06-1.89,1.06Z"/>
                <g>
                  <path class="cls-10" d="M102.12,115.18c-.07,0-1.65-.22-2.98-.82l.12-.25c1.29.58,2.89.8,2.9.8l-.04.28Z"/>
                  <path class="cls-10" d="M100.56,116.23s-.78-.07-1.53-.5l.14-.24c.7.39,1.41.46,1.41.46l-.03.28Z"/>
                </g>
              </g>
              <path class="cls-12" d="M43.53,63.75c-3.04,5.77,3.16,12.6,11.33,16.16,8.17,3.56,13.84,8.61,17.36,9.8,3.52,1.19,7.75,1.34,7.22-3.12s-7.75-11.09-13.29-15.54c-5.54-4.45-12.05-8.97-15.84-10.16-3.78-1.19-6.79,2.85-6.79,2.85Z"/>
              <path class="cls-12" d="M52.48,68.65c-1.22,6.38,6.73,11.17,15.6,12.26s15.79,4.32,19.5,4.46c3.72.14,7.82-.92,6-5.03-1.82-4.12-10.68-8.42-17.29-11.11-6.61-2.69-14.18-5.17-18.15-5.24-3.97-.07-5.66,4.65-5.66,4.65Z"/>
              <path class="cls-12" d="M60.75,109.47c2.3,1.81,6.14,2.41,7.29,2.26,0,0,12.16-20.84,11.41-24.32-.75-3.48-5.08-4.51-7.22-2.02-2.15,2.48-4.73,8.91-6.64,12.45-1.92,3.54-4.83,11.63-4.83,11.63Z"/>
              <path class="cls-12" d="M85.28,107.06c2.65.83,7.27,0,8.22-.52,0,0,1.85-23.28-.04-26.11-1.9-2.83-6.91-2.07-7.9.86-.99,2.93-.62,7.18-.53,13.28.06,3.81.25,12.5.25,12.5Z"/>
              <g>
                <path class="cls-3" d="M72.86,88.88l-.11-.26c.84-.36,2.07-.45,2.84-.46-.99-.39-3.01-1-4.81-.47l-.08-.27c2.6-.76,5.52.7,5.64.76l.57.29-.64-.03s-2.2-.09-3.41.43Z"/>
                <path class="cls-3" d="M85,85.08l-.13-.25c3.27-1.72,4.68-1.64,4.74-1.63l-.02.28s-1.4-.08-4.58,1.6Z"/>
                <path class="cls-3" d="M67.27,109.99c-1.37,0-4.43-.61-6.06-1.92l.18-.22c1.62,1.29,4.71,1.88,5.98,1.85v.28s-.06,0-.1,0Z"/>
                <path class="cls-3" d="M69.36,109.06c-1.47,0-5.43-.49-7.02-1.93l.19-.21c1.57,1.43,5.89,1.93,7.1,1.84l.02.28c-.08,0-.18,0-.3,0Z"/>
                <path class="cls-3" d="M88.05,105.95c-.99,0-2.01-.08-2.85-.3l.08-.27c2.39.64,6.5,0,6.54,0l.05.28c-.11.02-1.9.3-3.81.3Z"/>
                <path class="cls-3" d="M88.38,104.75c-1.15,0-2.31-.1-3.19-.4l.09-.26c2.5.86,7.56,0,7.61,0l.05.28c-.14.02-2.34.4-4.56.4Z"/>
                <path class="cls-3" d="M79.3,86.61c-.55-4.64-8.53-11.67-13.23-15.44l.18-.22c4.74,3.8,12.78,10.89,13.34,15.63l-.28.03Z"/>
              </g>
            </g>
            <path class="cls-15" d="M81.69,27.2c.14,4.27-2.44,11.98-3.55,14.98-1.11,3-8.28,11.83-11.21,15.38-2.93,3.54-3.19,7.71-3.19,7.71,0,0-4.18,2.41-9.02-2.19-4.25-4.05-10.6,1.27-11.99,2.82,0,0-1.88-8.01,2.61-13.52,4.03-4.94,9.31-16.46,11.82-21.87,2.51-5.4,5.32-11.39,16.28-11.44l8.24,8.13Z"/>
            <g>
              <path class="cls-9" d="M82.79,23.69c1.33,3.33,3.12,5.31,6.02,5.51,0,0,3.07-7.06,8.02-9.78,4.96-2.72,4.27-7.97,3.33-8.87-.94-.9-1.52-.37-1.52-.37l-15.86,13.5Z"/>
              <path class="cls-10" d="M98.65,10.19c.18,2.46-1.73,5.25-2.27,6.44-.54,1.19-1.18,3.45-1.07,4.48,0,0-.53.53-1.76.28,0,0-3.77,3.41-5.65,3.65-1.87.24-3.36-2.62-3.36-2.62,0,0-1.1.42-2.86,4.79-.18,2.38-4.94.72-8.24-8.13,0,0,2.47,0,4.46-1.87,2.31-2.17,5.8-2.61,5.8-2.61,0,0,.57-3.74,2.21-4.05,1.64-.31,1.61,1.96,1.61,1.96,0,0,1.45,2.31,3.85.83,2.4-1.48,2.79-3.26,4.56-3.76,1.78-.5,2.69.63,2.69.63Z"/>
              <path class="cls-9" d="M100.83,12.94l-2.77.27c.38-.97.65-2.02.58-3.02,0,0-.92-1.13-2.69-.63-1.77.5-2.16,2.27-4.56,3.76-2.4,1.48-3.85-.83-3.85-.83,0,0,.02-2.27-1.62-1.95-1.64.31-2.21,4.05-2.21,4.05,0,0-3.52,4.28-3.49,7.19,0,0-2.31-1.48-3.97-4.14-.99-1.59-1.75-3.61-1.63-5.98C74.94,5.31,84.08-.06,89.32,0c5.24.06,8.53,3.96,9.52,5.18.99,1.23,2.31,5.6,1.99,7.75Z"/>
              <path class="cls-9" d="M85.04,13.21l-.28-.05c.16-.94.74-1.51,1.24-1.58,0,0,0,0,.01,0,.3-.04.55.09.68.36l-.26.12c-.08-.16-.21-.23-.38-.21-.39.05-.87.55-1.01,1.36Z"/>
              <g>
                <path class="cls-14" d="M98.92,8.63l-.28-.02c.14-1.6-1-4.56-2.74-6.11l.19-.21c1.85,1.65,2.97,4.67,2.83,6.34Z"/>
                <path class="cls-14" d="M94.77,4.32c-2.44-1.88-5.87-1.71-7.16-.77l-.17-.22c1.36-.99,4.96-1.18,7.5.78l-.18.22Z"/>
                <path class="cls-14" d="M84.81,6.4l-.22-.18s2.2-2.56,5.2-2.49v.28c-2.87-.06-4.96,2.37-4.98,2.39Z"/>
                <path class="cls-14" d="M79.17,18.25l-.28.02s-.18-3.05,2.48-4.65l.15.24c-2.51,1.51-2.35,4.37-2.34,4.4Z"/>
              </g>
              <path class="cls-9" d="M95.17,17.44c-.12.02-.38.01-.68-.05-.32-.06-.78-.21-1.2-.51-.17-.13-.32-.28-.45-.44l.23-.17c.11.14.24.27.39.39.37.28.79.41,1.08.46.28.06.51.06.58.05l.05.28Z"/>
              <path class="cls-9" d="M91.89,22.45s-.4.03-.74-.32c-.07-.07-.14-.17-.21-.27-.24-.34-.51-.73-1.22-.54l-.07-.27c.9-.23,1.27.3,1.52.66.06.09.12.18.18.23.25.25.52.23.52.23l.02.28Z"/>
              <path class="cls-7" d="M84.43,22.48c-.03-.06-.84-1.46-1.05-3.09l.28-.04c.21,1.58,1.01,2.97,1.02,2.99l-.25.14Z"/>
              <path class="cls-9" d="M96.05,14.58c0,.27-.37.48-.83.48-.47,0-.85-.21-.86-.47,0-.26.37-.48.83-.48.47,0,.85.21.86.47Z"/>
              <path class="cls-6" d="M89.35,17.7c0,1.31-1.06,2.36-2.36,2.36s-2.36-1.06-2.36-2.36,1.06-2.36,2.36-2.36,2.36,1.06,2.36,2.36Z"/>
              <path class="cls-9" d="M93.37,17.17c-.12.22-.08.46.08.55.16.09.39-.01.51-.23s.08-.46-.08-.55c-.16-.09-.39.01-.51.23Z"/>
            </g>
            <g>
              <path class="cls-5" d="M51.35,54.62c0,3.87-3.19,7-7.13,7s-7.13-3.14-7.13-7,3.19-7,7.13-7,7.13,3.14,7.13,7Z"/>
              <path class="cls-5" d="M49.15,54.62c0,2.67-2.21,4.84-4.93,4.84s-4.93-2.17-4.93-4.84,2.21-4.84,4.93-4.84,4.93,2.17,4.93,4.84Z"/>
              <path class="cls-5" d="M46.6,54.62c0,1.29-1.07,2.34-2.38,2.34s-2.38-1.05-2.38-2.34,1.07-2.34,2.38-2.34,2.38,1.05,2.38,2.34Z"/>
            </g>
            <g>
              <path class="cls-1" d="M58.92,18.4s-3.89,2.88-3.89,11.1c0,0,3.96-2.61,4.48-6.45.53-3.84-.6-4.65-.6-4.65Z"/>
              <g>
                <path class="cls-10" d="M70.82,22.29c-.98-3.29-4.27-3.92-11.39-3.89-7.12.03-18.89.7-20.71,5.09-1.82,4.4,12.53,4.73,17.81,4.87,5.29.15,9.85.24,12.86-1.99,2.1-1.56,1.43-4.08,1.43-4.08Z"/>
                <path class="cls-10" d="M43.19,23.73c4.97,4.56,11.49,20.89,10.03,23.03-2.15,3.13-4.83-2.97-8.98-8.27-4.8-6.15-6.96-13.57-5.21-15.37,1.75-1.8,4.15.62,4.15.62Z"/>
                <g>
                  <path class="cls-10" d="M52.13,43.31c-1.29-.29-2.35.72-2.93,2.22-.58,1.5-2.11,1.15-2.43,2.5,0,0-1.38.83-1.28,2.12,0,0-1.61,1.25-1.18,2.53,0,0-1.2,1.35-.76,2.46,0,0,3.61-2.97,6.94-2.69,0,0,.44.72.14,2.7-.3,1.97.35,3.07,1.1,2.08.75-1,.94-3.12,1.35-6.1.41-2.98.58-4.73.28-6.09-.3-1.36-1.22-1.73-1.22-1.73Z"/>
                  <path class="cls-7" d="M44.39,52.78l-.17-.19s1.01-.82,2.22-.96l.03.25c-1.13.13-2.08.9-2.08.9Z"/>
                  <path class="cls-7" d="M45.53,50.28l-.09-.24c.6-.21,1.46-.31,1.49-.32l.03.25s-.86.1-1.44.3Z"/>
                </g>
              </g>
              <path class="cls-15" d="M72.64,19.09c-3.56,0-7.19-1.69-13.72-.68,0,0-.2,7.28-3.89,11.1,0,0,12.82.85,15.56-1.68,2.87-2.65,2.04-8.73,2.04-8.73Z"/>
            </g>
            <g>
              <path class="cls-1" d="M59.81,29.78c-2.56,0-4.59-.13-4.79-.14l.02-.25c.13,0,12.8.82,15.47-1.65l.18.18c-1.67,1.55-6.91,1.86-10.87,1.86Z"/>
              <path class="cls-1" d="M54.39,45.52l-.23-.12c.06-.1,5.74-10.48,5.92-12.66l.26.02c-.18,2.23-5.71,12.33-5.95,12.76Z"/>
              <path class="cls-1" d="M63.44,40.23c-2.35-2.05-1.95-5.51-1.95-5.55l.26.03s-.38,3.37,1.86,5.33l-.17.19Z"/>
              <path class="cls-1" d="M66.71,38.61c-3.23-.98-4.58-3.89-4.6-3.92l.24-.1s1.32,2.84,4.44,3.78l-.08.24Z"/>
            </g>
          </g>
        </g>
      </g>
    </g>
  </g>
</svg>