<?xml version="1.0" encoding="UTF-8"?>
<svg xmlns="http://www.w3.org/2000/svg" viewBox="0 0 121.88 102.59">
  <defs>
    <style>
      .cls-1 {
        fill: #7f6259;
      }

      .cls-2 {
        mix-blend-mode: multiply;
        opacity: .5;
      }

      .cls-3 {
        fill: #e6d8c6;
        opacity: .48;
      }

      .cls-4 {
        isolation: isolate;
      }

      .cls-5 {
        fill: #2977b2;
      }

      .cls-6 {
        fill: #3e86c7;
      }
    </style>
  </defs>
  <g class="cls-4">
    <g id="_圖層_2" data-name="圖層 2">
      <g id="_圖層_1-2" data-name="圖層 1">
        <g>
          <path class="cls-6" d="M114.6,50.06c-.84-2.47-1.72-4.98-3.26-7.1-4.24-5.85-12.43-7.43-17.42-12.66-3.2-3.36-4.79-7.89-7.12-11.9-2.2-3.78-5.07-7.11-8.06-10.32-.31-2.69-.62-5.39-.93-8.08-12.67.23-24.06,7.31-36.2,10.92-6.73,2-13.71,2.95-20.59,4.26-6.43,1.22-14.68,2.52-20.06,6.52.96,3.49,1.85,7.48,1.85,7.48h0c-.09,1.26-.12,2.49-.24,3.47C1.36,42.33.58,52.08.24,61.85c-.39,11.19-.2,22.4.56,33.58.07,1.07.18,2.22.85,3.06.8,1,2.17,1.3,3.43,1.52,13.9,2.41,28.09,3.14,42.17,2.17,1.02-.07,2.15-.21,2.8-1,.47-.58.57-1.37.63-2.12.87-9.43,1.32-18.9,1.33-28.37,3.33.96,6.59,2.16,9.75,3.59,1.89.86,3.78,1.82,5.21,3.33,3.1,3.27,3.33,8.23,3.39,12.73,18.62.49,37.34-6.14,51.51-18.22-2.39-7.36-4.78-14.73-7.28-22.06Z"/>
          <path class="cls-5" d="M110.38,43.45c-4.21-5.8-12.33-7.37-17.28-12.55-3.18-3.33-4.75-7.82-7.06-11.8-2.18-3.75-5.03-7.05-7.99-10.24-.31-2.67-.62-5.34-.92-8.01-2.56.05-5.06.37-7.53.9-.17,1.35-.21,2.57-1.22,4.04-1.44,2.08-3.63,3.69-5.93,4.72-4.11,1.84-8.69,2.24-13.08,3.26-4.86,1.13-9.54,3.04-13.8,5.64,1.71.95,3.82.44,5.7-.09,7.89-2.24,15.77-4.49,23.66-6.73,2.21-.63,4.76-1.2,6.64.11,1.17.82,1.78,2.19,2.45,3.45,1.95,3.68,4.77,6.9,8.17,9.3,1.45,1.03,3.04,1.94,4.17,3.31,1.14,1.37,1.73,3.39.87,4.96-1.34,2.44-5.6,3.06-5.51,5.83,2.44,1.27,5.05-1.37,7.75-1.95,2.1-.45,4.23.4,6.21,1.24,2.49,1.05,4.98,2.1,7.46,3.16,1.29.55,2.73,1.25,3.11,2.6.4,1.43-.59,2.85-1.61,3.93-6.18,6.52-15.37,9.66-21.22,16.47-.96,1.11-1.81,2.83-.85,3.94.41.47,1.05.68,1.67.75,4.87.58,8.62-5.22,13.52-5.05,3.89.13,6.52,3.85,9.74,6.05,3.3,2.25,7.35,2.9,11.37,3.26.66-.52,1.3-1.05,1.94-1.6-2.37-7.3-4.74-14.61-7.22-21.87-.84-2.45-1.71-4.94-3.23-7.04Z"/>
          <path class="cls-5" d="M63.54,62.42c-3.45-.36-6.55,1.97-9.91,2.82-4.27,1.08-8.73-.26-13.01-1.29-4.28-1.03-9.08-1.66-12.86.61,3.46,4.2,9.58,4.93,14.07,8,1.38.94,2.65,2.18,3.17,3.77,1.01,3.07-1.13,6.41-3.91,8.06-2.78,1.64-6.08,2.07-9.21,2.87-3.13.8-6.38,2.18-8.02,4.96,5.5.35,10.98,1.09,16.38,2.21,1.6.33,3.52,1.06,3.67,2.68.14,1.56-1.48,2.63-2.88,3.32-1.43.71-2.86,1.42-4.29,2.14,3.36-.04,6.72-.17,10.07-.41,1.01-.07,2.14-.21,2.78-.99.47-.57.56-1.36.63-2.1.86-9.35,1.3-18.74,1.32-28.13.97.28,1.94.59,2.9.91-.07-.41.05-.86.58-1.63.14-.2,9.3-7.72,8.51-7.8Z"/>
          <path class="cls-5" d="M24.72,19.59c-3.11.86-6.08,2.13-9.04,3.39-2.44,1.04-4.88,2.1-7.24,3.33-1.71.89-3.91,1.98-5.69,3.39-.05.85-.09,1.66-.17,2.34-.45,3.64-.84,7.28-1.17,10.93.32-.58.63-1.17.95-1.75,1.37-2.53,2.86-5.19,5.34-6.65,1.84-1.09,4.09-1.42,5.83-2.66.1-.07.21-.16.25-.28.12-.36-.4-.59-.78-.59-1.39,0-2.79.41-4.14.09-.23-.06-.48-.15-.59-.37-.18-.38.22-.78.57-1.01,2.24-1.45,4.7-2.52,7.15-3.59,5.94-2.6,11.92-5.2,18.22-6.69,3.06-.72,6.23-1.19,9-2.66.37-.2.78-.65.5-.96-6.14,2-12.77,2.02-18.99,3.73Z"/>
          <path class="cls-3" d="M85.55,88.16c-.93-.94-1.94-1.85-2.77-2.89,2.12.02,4.25.17,6.35.46,1.93.27,3.84.64,5.74,1.04.42-.14.84-.27,1.26-.42-1.94-.41-3.89-.81-5.85-1.12-2.64-.42-5.32-.62-7.99-.62-.15-.22-.29-.45-.42-.68-.94-1.73-1.03-3.72-.83-5.64.28-2.57,1.07-5.11,1.22-7.68.63-.03,1.26-.05,1.88-.09,5.12-.27,10.14-1.46,14.79-3.61.06-.03.11-.05.17-.08.21.41.41.84.58,1.28.77,1.97,1.13,4.07,1.4,6.16.27,2.11.44,4.23.8,6.33.18,1.09.43,2.16.75,3.2.2-.09.41-.18.61-.28-1.04-3.57-1.14-7.33-1.73-10.99-.31-1.91-.77-3.81-1.59-5.57-.07-.14-.14-.29-.21-.43,2.46-1.22,4.75-2.71,7.02-4.25.5,1.92,1.47,3.66,2.74,5.27,1.82,2.3,4.06,4.22,6.14,6.29.49.49.98,1,1.45,1.51.18-.13.36-.27.54-.4-1.95-2.08-4.1-3.96-6.06-6.04-1.89-2-3.61-4.29-4.24-7.01,1.61-1.1,3.2-2.22,4.84-3.27,1.12-.72,2.29-1.42,3.49-2.05-.07-.22-.14-.43-.22-.65-.53.27-1.04.56-1.55.86-2.31,1.34-4.5,2.89-6.7,4.41-.5-3.2.54-6.45-.14-9.64-.28-1.32-.83-2.62-1.81-3.58-.74-.73-1.65-1.16-2.6-1.5,2.41-1.18,4.76-2.47,7.05-3.87-.15-.17-.3-.34-.45-.51-2.43,1.49-4.93,2.85-7.5,4.07-.13-.04-.25-.08-.38-.12-.75-.24-1.5-.49-2.18-.89-.66-.39-1.22-.92-1.69-1.52-.97-1.22-1.58-2.69-2.21-4.1-1.2-2.7-2.32-5.43-3.35-8.19.42-.11.83-.23,1.25-.35-.03-.03-.05-.05-.08-.08-.15-.16-.29-.32-.44-.48-.32.09-.65.18-.97.27-.13-.36-.27-.73-.4-1.09-.24-.66-.47-1.32-.7-1.99-.62-.99-1.17-2.02-1.71-3.06.3.94.6,1.87.92,2.8.4,1.18.82,2.35,1.24,3.51-3.26.83-6.58,1.44-9.9,1.94-.7.11-1.4.21-2.11.31-.13-.67-.18-1.37-.25-2.02-.25-2.1-.45-4.2-.65-6.3-.25-2.64-.5-5.3-.83-7.95,2.02-.62,4.06-1.17,6.11-1.68-.15-.19-.29-.39-.44-.58-1.93.48-3.85,1-5.76,1.59-.47-3.71-1.12-7.39-2.14-10.97.12-.06.24-.11.36-.17.69-.33,1.37-.67,2.06-1.01-.03-.24-.05-.48-.08-.71-.84.42-1.68.84-2.53,1.24-.35-1.17-.75-2.32-1.2-3.46-.23.03-.46.05-.69.08.48,1.21.9,2.43,1.27,3.67-.38.18-.76.35-1.14.52-3.95,1.76-8.03,3.16-12.18,4.36-.55-1.24-1.11-2.47-1.7-3.69-.15-.32-.31-.63-.46-.95-.21.08-.42.16-.63.24.74,1.51,1.46,3.04,2.14,4.58-2.04.58-4.09,1.1-6.15,1.59-1.18.28-2.37.55-3.56.82-.4-1.17-.87-2.31-1.42-3.41-.21.08-.42.16-.63.25.54,1.07,1,2.18,1.39,3.31-4.52.99-9.06,1.86-13.59,2.8-.31-.7-.65-1.39-1-2.08-.23.05-.46.1-.69.15.36.68.69,1.37,1.01,2.07-.34.07-.67.14-1.01.21-4.76,1.01-9.51,2.11-14.18,3.5-.29-1-.61-1.99-.97-2.97-.23.04-.45.08-.68.13.37,1,.71,2.01,1,3.03-1.15.35-2.29.71-3.42,1.1-2.49.85-4.94,1.79-7.34,2.86-.36-1.46-.9-2.88-1.67-4.2-.21.08-.43.15-.64.23.78,1.32,1.32,2.76,1.68,4.25-2.17.99-4.29,2.08-6.34,3.3.06.24.11.46.16.68,2.04-1.22,4.16-2.32,6.32-3.31.62,3.06.55,6.33.31,9.36-.1,1.3-.23,2.6-.35,3.9-2.38,1.07-4.68,2.29-6.89,3.68-.03.28-.06.56-.08.84,2.21-1.42,4.52-2.66,6.91-3.76-.16,2-.27,4-.17,6.01.16,3.28.92,6.49,1.73,9.67.28,1.1.57,2.21.85,3.31-.61.19-1.22.38-1.83.55-2.88.81-5.81,1.4-8.73,2.07,0,.23-.02.47-.03.7,2.04-.47,4.1-.9,6.14-1.4,1.55-.37,3.09-.8,4.61-1.28.46,1.89.87,3.79,1.1,5.73.41,3.32.2,6.67-.12,9.98-3.97.45-7.98.66-11.98.6,0,.22,0,.44,0,.67,3.98.05,7.95-.14,11.91-.59,0,.01,0,.02,0,.03-.38,3.71-.76,7.41-.99,11.12-.21.04-.42.08-.63.12-3.35.65-6.66,1.48-9.96,2.37.01.23.02.46.03.69,2.76-.75,5.53-1.46,8.33-2.05.73-.15,1.45-.3,2.18-.43-.15,2.6-.22,5.21-.16,7.82.05,2.35.2,4.7.48,7.03.23.03.46.06.68.09-.22-1.81-.37-3.63-.45-5.45-.14-3.21-.08-6.41.1-9.61,3.32-.59,6.68-.98,10.05-1.15,1.81-.09,3.63-.12,5.44-.09.07,2.87.35,5.74,1.31,8.46.73,2.06,1.81,3.97,2.83,5.9-.88.05-1.76.12-2.64.2-3.58.34-7.14.96-10.61,1.89-.47.13-.94.26-1.41.4.61.06,1.22.13,1.84.18,2.95-.78,5.96-1.33,8.99-1.67,1.39-.16,2.78-.28,4.17-.35.47.91.92,1.84,1.3,2.79.24,0,.48,0,.72,0-.31-.79-.65-1.58-1.02-2.34-.08-.16-.16-.33-.24-.49,2.03-.09,4.07-.1,6.1-.04,2.29.07,4.57.23,6.84.46.15.7.32,1.39.48,2.08.23-.01.45-.03.68-.04-.16-.65-.32-1.31-.46-1.97,1.32.14,2.64.31,3.96.5.09-.2.16-.42.21-.64-1.44-.21-2.88-.39-4.32-.54-.46-2.14-.83-4.3-1.13-6.47-.29-2.11-.49-4.24-.62-6.37,1.04.22,2.09.45,3.12.7,1.3.32,2.59.66,3.88,1.03.01-.23.03-.46.04-.69-.75-.21-1.49-.42-2.24-.61-1.6-.42-3.22-.79-4.84-1.12-.05-1.04-.09-2.09-.11-3.13-.06-3.59.16-7.19.04-10.78-.08-2.32-.35-4.62-.65-6.92,3.62-1.78,7.06-3.87,10.63-5.73,1.71-.89,3.44-1.69,5.22-2.36.88,5.26,1.64,10.55,2.57,15.81.12.67.24,1.33.36,2,.25.12.5.24.75.37-.05-.27-.1-.54-.15-.81-1.07-5.78-1.87-11.61-2.85-17.41-.01-.06-.02-.13-.03-.19,1.96-.69,3.98-1.22,6.09-1.51,1.74-.24,3.49-.4,5.24-.55.37,1.58.93,3.09,1.87,4.42.98,1.38,2.31,2.3,3.76,3.13,1.51.87,3.08,1.73,3.97,3.3.77,1.34,1,2.82.98,4.33-1.1.05-2.19.12-3.29.26-2.33.3-4.53,1.01-6.49,2.31-2.11,1.41-3.9,3.29-5.84,4.93.11.11.23.22.34.34.04.04.08.09.12.13,1.45-1.24,2.82-2.59,4.29-3.77,1.74-1.39,3.63-2.44,5.81-2.95,1.65-.38,3.34-.51,5.03-.59-.12,1.79-.55,3.6-.86,5.27-.34,1.81-.62,3.68-.37,5.52.16,1.16.56,2.22,1.14,3.19-2.79.04-5.58.28-8.33.7-1.23.18-2.45.4-3.67.65.02.22.04.45.06.67.88-.18,1.76-.34,2.64-.49,2.79-.46,5.6-.76,8.42-.84.44-.01.88-.02,1.32-.02.24.34.5.67.79.99.89,1,1.86,1.93,2.8,2.89.27-.05.53-.1.79-.15-.26-.28-.53-.56-.79-.83ZM101.76,46.87c.21.07.42.14.63.21,1.46.52,2.64,1.34,3.35,2.75,1.52,3.01.57,6.46.62,9.67.01.72.09,1.42.22,2.1-1.93,1.32-3.88,2.62-5.95,3.72-.41.22-.82.43-1.23.63-.76-1.34-1.75-2.54-2.85-3.62-2.84-2.79-6.37-4.82-9.02-7.81-.55-.62-1.07-1.29-1.53-1.99,1.46-.36,2.92-.77,4.36-1.21,3.9-1.2,7.71-2.68,11.4-4.43ZM91.26,31.5c.72,1.92,1.47,3.83,2.27,5.72.66,1.57,1.32,3.16,2.09,4.69.66,1.31,1.48,2.59,2.68,3.47.76.56,1.63.9,2.52,1.19-2.71,1.26-5.49,2.37-8.32,3.33-2.26.77-4.56,1.43-6.87,2-.45-.77-.82-1.59-1.07-2.45-.56-1.95-.26-3.76.26-5.68.44-1.64,1.01-3.54.22-5.17-.76-1.56-2.44-2.02-3.88-2.74-.8-.4-1.5-.91-1.86-1.76-.05-.11-.09-.22-.13-.34,4.05-.58,8.11-1.25,12.08-2.26ZM77.3,23.34c.22,2.25.43,4.51.68,6.76.11,1.04.2,2.09.39,3.12-3.17.44-6.34.84-9.51,1.31-.4-1.94-.85-3.87-1.35-5.79-.62-2.4-1.31-4.78-2.07-7.14,1.82-.94,3.69-1.79,5.59-2.55,1.84-.74,3.71-1.4,5.6-1.99.26,2.1.47,4.2.67,6.29ZM36.72,46.13c1.37-.7,2.74-1.4,4.13-2.08.08,1.67.15,3.35.22,5.02.17,3.52.37,7.04.77,10.54.19,1.72.45,3.44.69,5.16-4.86,2.35-9.92,4.27-15.11,5.75-.2-2.65-.5-5.29-.91-7.91-.53-3.45-1.25-6.87-1.86-10.32,4.06-1.98,8.05-4.11,12.07-6.17ZM24.53,51.62c-.01-.09-.03-.17-.05-.26-1.01-5.89-1.29-11.84-1.77-17.78,3.81-.84,7.67-1.43,11.55-1.82,1.86-.19,3.73-.31,5.6-.43.52,3.98.77,7.99.95,12-.59.29-1.17.57-1.75.87-4.86,2.44-9.64,5.04-14.53,7.42ZM40.53,31.29c1.22-.08,2.44-.15,3.65-.25,3.27-.27,6.51-.83,9.48-2.26.58,2.83,1.16,5.66,1.73,8.49,0,.04.02.08.02.12-4.8,1.47-9.42,3.45-13.95,5.63-.19-3.92-.43-7.83-.94-11.72ZM54.27,28.46c2.79-1.46,5.27-3.42,7.95-5.06.86-.52,1.73-1.02,2.62-1.49.47,1.46.91,2.92,1.33,4.4.77,2.75,1.44,5.53,2.01,8.32-2.98.46-5.94.98-8.88,1.69-1.09.26-2.17.56-3.25.87-.58-2.91-1.18-5.82-1.78-8.73ZM74.43,5.49c1.01,3.55,1.64,7.21,2.12,10.88-1.14.36-2.28.74-3.41,1.15-2.7.98-5.35,2.1-7.91,3.42-1.18-3.6-2.53-7.14-4.04-10.61,4.52-1.31,8.97-2.87,13.24-4.85ZM55.7,11.81c1.62-.4,3.23-.82,4.84-1.28,1.53,3.51,2.89,7.1,4.09,10.74-.16.08-.32.17-.48.25-2.95,1.61-5.61,3.62-8.47,5.37-.51.31-1.03.61-1.55.89-.49-2.38-.99-4.76-1.49-7.14-.53-2.55-1.07-5.17-1.88-7.68,1.65-.36,3.3-.75,4.94-1.15ZM50.1,13.1c.66,2.05,1.14,4.16,1.58,6.24.62,2.92,1.23,5.83,1.83,8.75-.76.38-1.54.71-2.34.99-1.63.55-3.34.88-5.05,1.09-1.89.23-3.79.35-5.69.46-.01-.09-.02-.19-.04-.28-.7-4.94-1.86-9.87-3.83-14.46,4.51-.93,9.03-1.81,13.53-2.79ZM35.14,16.19c.25-.05.51-.11.76-.16,1.72,3.97,2.82,8.2,3.54,12.47.12.72.23,1.44.33,2.17-1.22.07-2.43.14-3.64.25-4.52.39-9.03,1.02-13.47,1.99-.04-.5-.09-1.01-.13-1.51-.36-3.9-.89-7.84-1.91-11.63,4.78-1.42,9.65-2.55,14.53-3.57ZM9.17,23.94c2.21-.99,4.47-1.88,6.75-2.67,1.34-.47,2.69-.9,4.04-1.31.83,3.08,1.34,6.26,1.69,9.44.13,1.21.25,2.43.35,3.65-1.58.36-3.15.76-4.71,1.22-2.75.8-5.46,1.77-8.1,2.91.06-.65.12-1.29.18-1.94.34-3.68.57-7.63-.2-11.31ZM11.13,55.68c-.83-3.22-1.71-6.45-2.08-9.77-.29-2.65-.15-5.32.07-7.97,2.13-.94,4.32-1.77,6.54-2.48,2.1-.67,4.23-1.25,6.38-1.74.41,5.11.64,10.23,1.38,15.3.14.97.3,1.93.47,2.89-1.51.73-3.02,1.43-4.56,2.11-2.57,1.13-5.19,2.15-7.86,3.02-.11-.46-.23-.91-.35-1.37ZM11.64,57.69c1.79-.58,3.55-1.22,5.29-1.92,2.4-.97,4.76-2.04,7.09-3.16.45,2.53.96,5.05,1.4,7.58.61,3.49,1.07,7,1.33,10.53-1.41.39-2.83.75-4.25,1.08-3.25.75-6.54,1.32-9.85,1.72.26-2.71.44-5.42.27-8.14-.16-2.61-.68-5.16-1.29-7.69ZM23.18,84.13c-3.89.12-7.77.51-11.61,1.19.19-3.09.48-6.18.82-9.26.07-.62.13-1.24.2-1.86,2.32-.28,4.63-.64,6.92-1.08,2.45-.48,4.89-1.05,7.3-1.72,0,.08.01.16.02.25.24,3.72.19,7.42.18,11.14,0,.44,0,.88,0,1.32-1.28-.02-2.55-.01-3.83.03ZM43.71,91.07c.31,2.82.76,5.62,1.34,8.4-1.74-.17-3.49-.31-5.23-.39-2.63-.12-5.27-.12-7.89,0-.63-1.2-1.29-2.38-1.89-3.6-.8-1.63-1.42-3.32-1.78-5.1-.36-1.78-.5-3.59-.55-5.4,0-.07,0-.14,0-.2,2.24.05,4.49.2,6.72.42,2.99.3,5.97.76,8.92,1.35.09,1.51.21,3.01.38,4.51ZM43.14,70.26c.25,3.57.06,7.16.04,10.74,0,1.63.03,3.25.11,4.87-2.39-.48-4.8-.86-7.23-1.15-2.78-.33-5.58-.53-8.39-.6-.05-3.37.09-6.74-.06-10.11-.04-.93-.09-1.86-.16-2.79,5.2-1.48,10.28-3.4,15.15-5.74.21,1.59.41,3.18.52,4.78ZM56.52,57.39c-3.73,1.69-7.22,3.87-10.84,5.79-.84.44-1.68.88-2.53,1.29-.13-.95-.26-1.9-.39-2.85-.48-3.56-.74-7.15-.93-10.74-.12-2.38-.22-4.77-.33-7.15,4.55-2.21,9.2-4.23,14.04-5.71,1.15,5.77,2.26,11.54,3.26,17.33.06.34.11.67.17,1.01-.83.31-1.64.65-2.45,1.02ZM68.56,54.35c-2.18.2-4.35.47-6.47,1.02-.84.22-1.66.48-2.48.77-1-5.81-2.09-11.6-3.24-17.38-.06-.31-.12-.62-.19-.93.31-.09.61-.18.92-.27,3.68-1.02,7.43-1.72,11.21-2.29.96,4.84,1.63,9.74,2.08,14.68.12,1.37.27,2.8.54,4.18-.79.07-1.58.14-2.37.21ZM71.29,52.08c-.23-1.8-.35-3.61-.53-5.41-.21-2.01-.47-4.01-.78-6-.28-1.84-.61-3.67-.98-5.49,3.17-.47,6.36-.87,9.53-1.32.2.68.54,1.31,1.09,1.79,1.29,1.14,3.25,1.29,4.4,2.6,1.37,1.56.56,3.87.09,5.62-.52,1.95-.75,3.83-.17,5.79.25.84.6,1.64,1.03,2.4-1.33.31-2.66.6-4,.85-3.1.58-6.21.89-9.33,1.17-.14-.66-.24-1.33-.33-2ZM79.75,63.52c-1.3-1.11-2.9-1.76-4.29-2.74-2.08-1.46-3.12-3.69-3.7-6.06,2.29-.19,4.58-.38,6.86-.73,2.25-.35,4.48-.79,6.69-1.32.45.71.96,1.39,1.5,2.03,2.73,3.19,6.46,5.28,9.41,8.24,1,1,1.86,2.09,2.56,3.3-4.04,1.89-8.4,3.08-12.84,3.49-1.22.11-2.44.16-3.66.21,0-.75-.04-1.5-.19-2.25-.31-1.62-1.09-3.08-2.35-4.16Z"/>
          <path class="cls-5" d="M49.12,34.62c.29,2.81.16,5.64.04,8.47-.19,4.26-.37,8.51-.56,12.77,2.87-3.85,7.29-6.51,9.51-10.77,1.67-3.21,1.9-6.95,1.92-10.57.03-4.64-.23-9.34-1.59-13.77-.09-.28-.18-.57-.4-.77-.5-.45-1.37-.13-1.7.45-.34.58-.3,1.3-.25,1.97.33,4.59.63,9.22.11,13.8-.52,4.58-1.9,9.15-4.65,12.84.28-7.83-1.22-15.61-3.12-23.21-.55-2.19-1.14-4.39-2.18-6.39-.47-.91-1.08-1.81-2.02-2.22-.55-.24-1.75-.32-2.15.27-.53.75.51,1.5.97,2.1,1.12,1.43,2.1,2.96,2.93,4.57,1.69,3.25,2.77,6.82,3.14,10.46Z"/>
          <g class="cls-2">
            <path class="cls-1" d="M45.4,66.08c-.15-.28-.28-.59-.23-.9.13-.72,1.14-.88,1.82-.59.68.28,1.27.83,2,.89,1.35.13,2.3-1.49,2.1-2.83-.19-1.34-1.09-2.45-1.82-3.59-2.13-3.38-2.84-7.64-1.9-11.53.33-1.37.89-2.74,1.92-3.7,1.04-.96,2.64-1.39,3.9-.76,1.39.69,1.94,2.37,2.21,3.89.44,2.5.48,5.08.1,7.6-.12.81-.13,1.89.65,2.14.9.29,1.49-.89,2.2-1.53,1.24-1.13,3.44-.41,4.24,1.07.8,1.48.51,3.32-.16,4.87-.67,1.54-1.68,2.92-2.34,4.46,2.54.76,5.46-.97,7.83.22,1.69.85,2.4,3.21,1.47,4.85-.93,1.64-3.33,2.23-4.92,1.22-.63-.4-1.14-1.01-1.85-1.25-1.95-.67-3.39,1.39-5.08,1.86-1.66.45-2.28.03-3.8-.54-3.32-1.25-6.6-2.49-8.35-5.83Z"/>
            <path class="cls-1" d="M37.1,57.56c-1.6-2.72-3.22-5.45-4.37-8.38-.46-1.18-.85-2.41-.88-3.68-.02-1.27.36-2.59,1.25-3.48.44-.44,1.04-.78,1.67-.77.92.01,1.69.78,2.03,1.64.33.86.32,1.81.34,2.73.04,2.67.32,5.34.82,7.97.33,1.71,2.1,5.27,1.24,6.81-.91-.61-1.53-1.87-2.1-2.83Z"/>
            <path class="cls-1" d="M41.58,74.21c-.28.74-.14,1.68.48,2.16.8.62,1.99.29,2.8-.32.81-.61,1.43-1.46,2.3-1.97,1.28-.75,4.59-3.08,1.21-3.22-2.07-.09-6.03,1.32-6.8,3.36Z"/>
            <path class="cls-1" d="M38.07,63.08c-.82.59-1.24,1.69-.98,2.67s1.21,1.74,2.22,1.72c1.01-.02,1.95-.86,2.04-1.86.03-.32-.03-.66-.19-.94-.31-.54-.98-.79-1.6-.77s-1.21.26-1.78.52l.3-1.33Z"/>
          </g>
        </g>
      </g>
    </g>
  </g>
</svg>