<?xml version="1.0" encoding="UTF-8"?>
<svg id="_圖層_2" data-name="圖層 2" xmlns="http://www.w3.org/2000/svg" viewBox="0 0 102.94 117.34">
  <defs>
    <style>
      .cls-1 {
        fill: #efc0a5;
      }

      .cls-2 {
        isolation: isolate;
        opacity: .31;
      }

      .cls-2, .cls-3 {
        fill: #eb6c55;
      }

      .cls-4 {
        fill: #fff;
      }

      .cls-5 {
        fill: #e1e4e8;
      }

      .cls-6 {
        fill: #e09773;
      }
    </style>
  </defs>
  <g id="_圖層_1-2" data-name="圖層 1">
    <g>
      <path class="cls-1" d="M78.25.16c6.74-1.06,20.03,3.16,23.49,17.92,3.46,14.76-1.51,32.08-3.01,33.43-1.51,1.36-37.22-5.15-50.75,3.46-3.31,2.11-2.56,10.54-.6,24.7,1.96,14.16-.75,28.16-2.86,32.98s-31.63,7.53-34.64,0-4.22-63.85-1.51-75.3c2.71-11.45,7.83-15.96,23.64-22.29C47.83,8.74,72.53,1.06,78.25.16Z"/>
      <circle class="cls-6" cx="29.42" cy="41.7" r="20.18"/>
      <path class="cls-4" d="M94.51,14.91c3.17.41,5.87,11.29,3.76,12.5-2.11,1.2-49.55,7.68-55.12,9.94-5.57,2.26-6.33,4.37-8.58,6.78-2.26,2.41-6.02,2.26-9.04.75-3.01-1.51-5.42-4.97-4.52-10.24.9-5.27,1.51-8.43,5.42-10.99,3.92-2.56,9.94-.15,18.07-1.51,8.13-1.36,44.12-7.98,50-7.23Z"/>
      <path class="cls-4" d="M20.12,31.18c1.06-2.51-4.07-1.89-5.57-.45s-4.07,8.43-2.41,11.29,4.07,2.26,4.97,1.2c.9-1.05,1.36-8.13,3.01-12.05Z"/>
      <path class="cls-4" d="M17.56,47.44c2.67-2.47,3.16.6,8.28,1.05,5.12.45,5.72,0,7.83,1.66,2.11,1.66,1.05,2.86,2.71,4.82,1.66,1.96,1.51,2.56.9,5.27-.6,2.71-5.55,43.68-5.87,49.85-.3,5.72-2.86,5.57-3.16,1.51-.3-4.07,1.05-38.7,3.61-52.71,0,0-4.82,3.76-5.87,17.92-1.05,14.16-1.05,33.28-1.2,35.09-.15,1.81-6.33,3.46-8.28-1.81-1.96-5.27.45-24.85-1.66-37.05-2.11-12.2-1.35-21.84,2.71-25.6Z"/>
      <path class="cls-5" d="M98.75,22.48c-8.02,2.47-16.65,2.57-25.04,3.46-8.85.94-17.58,2.79-26.29,4.63-4.28.91-8.61,1.83-12.57,3.7-1.39.66-2.82,1.51-3.49,2.9,1.05.49,2.34.43,3.33-.17.1,1.61-1.04,3.11-2.47,3.85-1.43.75-3.1.87-4.72.82-.92-.03-1.85-.11-2.72-.42-1.66-.6-2.87-1.96-3.92-3.43.32,3.5,2.31,5.88,4.66,7.06,3.01,1.51,6.78,1.66,9.04-.75,2.26-2.41,3.01-4.52,8.58-6.78,5.57-2.26,53.01-8.73,55.12-9.94.86-.49.92-2.59.47-4.93Z"/>
      <g>
        <path class="cls-5" d="M33.67,50.15c-2.11-1.66-2.71-1.2-7.83-1.66-.55-.05-1.05-.13-1.5-.23-.07.04-.13.07-.2.11,2.83.42,5.19,2.31,7.4,4.12.2.16.4.32.59.49,1.33,1.09,2.71,2.26,3.29,3.87.51,1.42.32,2.99.11,4.49-1.98,14.36-4.63,28.66-5.49,43.13-.18,3.11-.29,6.25-1.02,9.28-.03.1-.05.21-.09.32.87,1.2,2.24.11,2.46-3.98.32-6.17,5.27-47.14,5.87-49.85.6-2.71.75-3.31-.9-5.27-1.66-1.96-.6-3.16-2.71-4.82Z"/>
        <path class="cls-5" d="M31.87,58.89c-.06.35-.13.72-.19,1.1.35-1.05.71-2.1,1.08-3.14-1.8-.11-3.33,1.2-4.96,1.96s-4.12.66-4.63-1.07c-.81.38-1.01,1.42-1.06,2.31-.36,6.22,1.28,12.46.7,18.66-.25,2.59-.88,5.13-1.27,7.7-1.25,8.22-.05,16.65-1.1,24.9-.09.72-.21,1.46-.43,2.15,2.28.61,4.69-.45,4.79-1.57.15-1.81.15-20.93,1.2-35.09,1.05-14.16,5.87-17.92,5.87-17.92Z"/>
      </g>
      <path class="cls-5" d="M17.92,29.49c.34.93.3,1.99-.18,2.9-.42.8-1.05,1.49-1.34,2.35-.27.8-.23,1.66-.42,2.47-.5,2.22-1.76,4.1-2.86,6.06,1.51,1.37,3.25.81,3.98-.05.9-1.05,1.36-8.13,3.01-12.05.58-1.37-.69-1.81-2.2-1.69Z"/>
      <path class="cls-6" d="M18.67,15.74c-.22-.97-1.15-2.13-2.29-1.81-.98.27-1.07,1.53-.86,2.36.25.96.64,1.88,1.5,2.42.38.25.94.24,1.32,0,.09-.05.17-.12.25-.19.76-.68.26-1.95.07-2.78Z"/>
      <path class="cls-6" d="M9.8,21.93c-.58-.4-1.65-.61-2.13.07-.69.98.38,1.97,1.09,2.49.67.49,2.24.99,2.54-.21.26-1.03-.75-1.83-1.5-2.34Z"/>
      <path class="cls-6" d="M6.79,32.14c-.1-.74-.77-1.2-1.39-1.5-.38-.19-.78-.29-1.21-.3-.25,0-.5.01-.74.12-.11.03-.21.09-.3.17-.17.14-.18.14-.03,0-.53.11-.66.72-.46,1.14-.1-.22.12.56.14.6.13.23.33.41.53.57.46.38.97.51,1.55.59.86.11,2.05-.34,1.9-1.39Z"/>
      <path class="cls-6" d="M4.28,40.87c-1.01-.08-2.02-.11-2.97.28-.57.23-1.48.99-1.28,1.75.2.71,1.21,1.06,1.84,1.06,1.09,0,2.04-.46,2.99-.93,1.11-.55.46-2.07-.58-2.15Z"/>
      <path class="cls-6" d="M4.46,52.98c-.9-.75-2.78-.8-3.56.16-.44.55-.56,1.61.25,1.96.58.25,1.03.27,1.63.06.46-.16.86-.38,1.19-.73.21-.22.87-1.13.48-1.45Z"/>
      <path class="cls-6" d="M50.69,60.83c-.46-.7-.58-1.58-1.44-1.9-.28-.1-.68.01-.87.23-.66.76-.28,1.66.08,2.46.34.74,1.01,1.71,1.96,1.4,1.04-.34.71-1.51.26-2.19Z"/>
      <path class="cls-6" d="M54.31,55.52c-.47-.07-.89-.15-1.34.03-.29.12-.72.41-.68.79.11.99,1.05,1.24,1.85,1.5.48.15.99.35,1.5.21.45-.13.86-.58.86-1.06,0-1.19-1.31-1.32-2.2-1.46Z"/>
      <g>
        <circle class="cls-2" cx="28.84" cy="41.61" r="19.68" transform="translate(-20.98 32.58) rotate(-45)"/>
        <circle class="cls-2" cx="28.84" cy="41.61" r="11.73" transform="translate(-20.98 32.58) rotate(-45)"/>
        <circle class="cls-3" cx="28.85" cy="41.59" r="5.95" transform="translate(-21.18 33.91) rotate(-46.53)"/>
      </g>
    </g>
  </g>
</svg>