<?xml version="1.0" encoding="UTF-8"?>
<svg id="_圖層_2" data-name="圖層 2" xmlns="http://www.w3.org/2000/svg" viewBox="0 0 121.16 108.86">
  <defs>
    <style>
      .cls-1 {
        fill: #efc0a5;
      }

      .cls-2 {
        fill: #ebaf9d;
      }

      .cls-3 {
        fill: #cf9e85;
      }

      .cls-4 {
        fill: #c0927d;
      }

      .cls-5 {
        fill: #d5a289;
      }

      .cls-6 {
        fill: #de7f7b;
      }

      .cls-7 {
        fill: #e2b29a;
      }

      .cls-8 {
        fill: #e1aa90;
      }
    </style>
  </defs>
  <g id="_圖層_1-2" data-name="圖層 1">
    <g>
      <path class="cls-1" d="M12.69,67.63l28.71-48.7c.97-9.94-8.16-13.45-8.16-13.45-8.06-.04-9.68,5.88-9.68,5.88L0,64.54s8.92,6.2,12.69,3.09Z"/>
      <path class="cls-1" d="M28.19,27.52s6.89-.68,5.25,5.05c0,0-5.73,11.33,1.81,18.7l4.19,21.01s1.02,5.54-1.68,10.81c0,0-7.76,14.68-10.31,25.78h67.31c-2.56-11.11-10.31-25.78-10.31-25.78-2.7-5.27-1.68-10.81-1.68-10.81l4.19-21.01c7.54-7.37,1.81-18.7,1.81-18.7-1.64-5.72,5.42-5.14,5.42-5.14,2.62-2.23,1.18-5.14,1.18-5.14,0,0,4.52-11.83-1.36-15.52L67.42,0h-12.63l-26.59,6.77c-5.88,3.68-1.36,15.52-1.36,15.52,0,0-1.27,3,1.35,5.23Z"/>
      <path class="cls-7" d="M69.54,96.75c.27.17.4.32.61.61,1.47,2.11,2.93.47,3.7.33.26-.05.46.1.69.28,2.12,1.66,2.73.87,3.88.07,1.8-1.26,2.22-2.58,2.94-2.08,2.7,1.85,7.09,2.5,9.32.64-1.81-4.31-2.31-5.54-3.53-8.04-2.62.04-5.45-5.46-8.03-4.84-1.7.41-4.44,1.22-6.06,1.85-1.11.42-2.5.83-3.13,1.93-.82,1.01.01,1.92.85,2.69.43.1.61.72.27,1.02-1.43,1.26-5.85,2.89-1.53,5.54Z"/>
      <path class="cls-7" d="M74.32,53.63c-10.6-5.41-11.7-12.49-11.12-18.55-1.33.83-1.83,1.85-3.31-1.24,1.02,8.91-.22,9.89-2,11.77-1.85,1.95-4.89,5.34-7.37,6.37-3.06,1.28-6.28,2.37-9.62,2.03-2.08-.21-3.79-1.77-5.62-2.61l1.92,9.61c2.59.3,5.18.38,7.69-.56,3.05-1.14,5.86-2.75,8.29-4.93,2.45-2.21,5.24-6.95,9.09-5.89,1.64.45,2.92,2.28,3.91,3.52,1.68,2.1,3.43,4.01,5.7,5.5,2.65,1.75,5.6,3.28,8.78,3.79,1.43.23,2.76.18,4.07,0l1.82-9.13c-3.66,2.08-8.1,2.42-12.23.31Z"/>
      <path class="cls-8" d="M33.44,32.56s-.21.71-.47,1.96c-.25,1.25-.57,3.04-.62,5.14,0,1.05.01,2.18.21,3.33.21,1.15.48,2.33,1,3.45.52,1.11,1.18,2.19,2.04,3.15l.69.71c.17.17.45.39.7.58.51.4,1.05.76,1.63,1.07,2.3,1.25,4.96,1.69,7.39,1.2,1.22-.22,2.39-.61,3.45-1.14,1.06-.53,2.06-1.07,2.92-1.71.87-.61,1.66-1.2,2.32-1.78.68-.56,1.24-1.09,1.72-1.52.93-.89,1.46-1.39,1.46-1.39,0,0-.37.64-1.06,1.73-.38.52-.8,1.2-1.39,1.89-.57.7-1.24,1.5-2.08,2.26-1.64,1.55-3.88,3.2-6.8,4.02-1.45.39-3.05.52-4.65.36-1.6-.16-3.17-.7-4.61-1.43-.72-.37-1.4-.8-2.05-1.29-.33-.26-.61-.5-.96-.84l-.8-.86c-1.03-1.22-1.87-2.59-2.37-4.02-1.05-2.87-.97-5.72-.53-7.95.44-2.26,1.19-4,1.79-5.16.6-1.16,1.07-1.75,1.07-1.75Z"/>
      <path class="cls-6" d="M88.98,33.4s.48.56,1.11,1.69c.63,1.12,1.4,2.83,1.84,5.07.23,1.12.3,2.37.23,3.71-.07,1.34-.42,2.75-.98,4.14-.55,1.4-1.47,2.68-2.51,3.83-1.07,1.22-2.43,2.1-3.85,2.8-1.43.68-2.99,1.17-4.57,1.27-1.58.14-3.14-.06-4.55-.47-1.41-.43-2.68-1.06-3.79-1.75-1.09-.73-2.04-1.5-2.84-2.28-.81-.76-1.47-1.54-2.03-2.23-.58-.68-.99-1.35-1.37-1.86-.68-1.08-1.04-1.7-1.04-1.7,0,0,.52.5,1.44,1.37.93.84,2.25,2.06,3.97,3.25.84.62,1.83,1.17,2.86,1.7,1.05.51,2.19.93,3.39,1.16,1.19.25,2.45.33,3.69.15,1.24-.19,2.47-.54,3.61-1.13,1.14-.59,2.21-1.34,3.04-2.22.89-.91,1.6-1.94,2.14-3,.55-1.07.89-2.2,1.11-3.31.23-1.11.26-2.21.27-3.24-.03-2.06-.37-3.8-.64-5.02-.28-1.22-.51-1.92-.51-1.92Z"/>
      <g>
        <path class="cls-8" d="M45.2,44c0,1.58-1.23,2.86-2.74,2.86s-2.74-1.28-2.74-2.86,1.23-2.86,2.74-2.86c1.52,0,2.74,1.28,2.74,2.86Z"/>
        <path class="cls-5" d="M43.52,44c0,.59-.48,1.06-1.06,1.06s-1.06-.47-1.06-1.06.48-1.06,1.06-1.06c.59,0,1.06.48,1.06,1.06Z"/>
      </g>
      <path class="cls-8" d="M63.2,85.57c0,1.31-.72,2.36-1.61,2.36s-1.61-1.06-1.61-2.36.72-2.37,1.61-2.37,1.61,1.06,1.61,2.37Z"/>
      <path class="cls-8" d="M60.23,51.21c.01,9.29.29,18.59.31,27.88,0,.92,1.43.92,1.43,0-.01-9.29-.29-18.59-.31-27.88,0-.92-1.43-.92-1.43,0h0Z"/>
      <path class="cls-8" d="M36.24,6.92s.16-.36.72-.8c.55-.44,1.57-.83,2.77-.85,1.2-.06,2.56.14,3.94.45.69.15,1.4.31,2.1.5.7.18,1.42.36,2.14.54,1.46.4,2.91.88,4.22,1.46,1.31.57,2.51,1.23,3.45,1.94.94.69,1.63,1.49,1.89,2.16.28.68.1,1.09.13,1.07,0,0-.03-.09-.08-.26-.06-.16-.2-.37-.4-.6-.41-.45-1.17-.91-2.15-1.34-.99-.42-2.18-.83-3.48-1.22-1.3-.39-2.71-.79-4.12-1.15-1.42-.36-2.91-.81-4.2-1.26-1.31-.43-2.49-.83-3.52-1.04-1.03-.21-1.89-.19-2.49-.01-.6.17-.92.41-.92.41Z"/>
      <path class="cls-8" d="M85.08,6.92s-.32-.24-.92-.41c-.6-.18-1.46-.2-2.49.01-1.03.21-2.21.61-3.52,1.04-1.28.45-2.77.9-4.2,1.26-1.41.36-2.82.76-4.12,1.15-1.3.39-2.5.8-3.48,1.22-.98.42-1.74.88-2.15,1.34-.2.23-.33.44-.4.6-.05.17-.08.26-.08.26.03.01-.15-.39.13-1.07.26-.67.95-1.46,1.89-2.16.94-.71,2.13-1.36,3.45-1.94,1.31-.58,2.76-1.06,4.22-1.46.72-.18,1.43-.36,2.14-.54.7-.19,1.4-.35,2.1-.5,1.38-.31,2.74-.51,3.94-.45,1.2.02,2.23.41,2.77.85.56.43.71.81.72.8Z"/>
      <path class="cls-1" d="M108.45,65.29l-26.48-46.87c-.97-9.94,9.53-12.47,9.53-12.47,4.94-.6,7.48,5.41,7.48,5.41l22.19,50.87s-8.95,6.16-12.71,3.06Z"/>
      <g>
        <path class="cls-1" d="M87.74,91.78l-7.39-6.65s-.99-1.31-3.45,0l-6.07,2.46s-1.48,1.64.82,2.13l6.54-2.2-5.56,3.18-4.1,3.12s-.74.78,0,1.46c0,0,.59.93,1.64.18l3.45-2.46,5.93-3.2-7.94,5.91s-.98.52-.4,1.51c0,0,.47.77,1.63-.03l8-5.54-5.6,4.98s-.57,1.4,1.48,1.23l4.68-3.45s1.72,3.76,5.68,2.36"/>
        <path class="cls-1" d="M116.84,54.38l4.32,7.85-34.08,34.55-.92-6.43,19.35-34.51s6.53-3.85,11.33-1.47Z"/>
      </g>
      <g>
        <path class="cls-8" d="M37.12,94.85s.29-.03.8-.04c.25,0,.55-.02.91.05.35.06.79.08,1.21.23.43.12.91.26,1.37.51.49.2.94.51,1.43.83.44.35.92.72,1.32,1.16.43.42.79.89,1.15,1.36,1.39,1.93,2.23,4.06,2.79,5.65.56,1.59.83,2.73.83,2.73,0,0-.89-.78-1.91-2.15-1.05-1.35-2.22-3.26-3.44-4.97-.31-.42-.62-.85-.96-1.23-.32-.4-.67-.74-1-1.1-.36-.31-.68-.67-1.04-.92-.35-.28-.7-.53-1.03-.75-.33-.24-.65-.39-.93-.57-.28-.17-.56-.31-.79-.42-.45-.23-.71-.38-.71-.38Z"/>
        <path class="cls-8" d="M85.08,94.85s-.25.15-.7.37c-.23.11-.51.24-.79.42-.28.18-.6.33-.93.57-.33.22-.68.46-1.03.75-.36.25-.68.61-1.04.92-.33.36-.68.7-1,1.1-.33.38-.64.81-.95,1.23-1.22,1.71-2.39,3.62-3.44,4.97-1.02,1.37-1.91,2.15-1.91,2.15,0,0,.26-1.14.83-2.73.56-1.59,1.4-3.72,2.79-5.65.37-.47.72-.95,1.15-1.36.4-.44.87-.8,1.32-1.16.48-.32.94-.62,1.43-.83.46-.25.93-.39,1.37-.51.42-.15.85-.18,1.21-.23.36-.07.66-.05.91-.05.5.01.8.04.8.04Z"/>
      </g>
      <path class="cls-7" d="M34.31,105.25c1.83.29,3.68,4.21,5.8,2.47.21-.17.49-.25.74-.09.7.43,3.51,1.91,3.25-.39-.05-.45.56-.77.92-.53,2.11-.76,2.65-1.7,1.62-2.8-.17-.23-.34-.47-.51-.7-.32-.41-.63-.83-.92-1.26-.18-.25-.06-.7.22-.83,3.07-1.44.1-4.08-1.25-5.37-1.5-1.44-3.83-4.03-6.2-3.27-2.27.72-3.94,2.51-6.15,3.38-1.22,2.95-2.41,6.12-3.34,9.19,1.9.29,3.73-.11,5.83.22Z"/>
      <g>
        <path class="cls-1" d="M27.88,103.94c3.57,2.21,6.06-1.09,6.06-1.09l3.83,4.37c1.97.6,1.71-.89,1.71-.89l-4.4-6.07,6.63,7.13c.96,1.03,1.59.38,1.59.38.78-.83-.07-1.56-.07-1.56l-6.49-7.48,5.1,4.4,2.84,3.14c.86.96,1.64.17,1.64.17.87-.5.31-1.42.31-1.42l-3.34-3.93-4.75-4.3,5.92,3.55c2.35.01,1.26-1.91,1.26-1.91l-5.4-3.71c-2.12-1.81-3.37-.74-3.37-.74l-8.64,4.91-.43,4.86"/>
        <path class="cls-1" d="M4.93,57.2l-4.93,7.81,27.88,38.93,2.28-6.08-13.79-38.02s-5.9-7.05-11.44-2.64Z"/>
      </g>
      <path class="cls-2" d="M84.82,44c0,2.87-2.33,5.19-5.19,5.19s-5.19-2.32-5.19-5.19,2.33-5.19,5.19-5.19,5.19,2.33,5.19,5.19Z"/>
      <g>
        <path class="cls-3" d="M82.37,44c0,1.58-1.23,2.86-2.74,2.86s-2.74-1.28-2.74-2.86,1.23-2.86,2.74-2.86c1.52,0,2.74,1.28,2.74,2.86Z"/>
        <path class="cls-4" d="M80.68,44c0,.59-.47,1.06-1.06,1.06s-1.06-.47-1.06-1.06.48-1.06,1.06-1.06c.59,0,1.06.48,1.06,1.06Z"/>
      </g>
    </g>
  </g>
</svg>