<?xml version="1.0" encoding="UTF-8"?>
<svg id="_圖層_2" data-name="圖層 2" xmlns="http://www.w3.org/2000/svg" xmlns:xlink="http://www.w3.org/1999/xlink" viewBox="0 0 142.94 92.11">
  <defs>
    <style>
      .cls-1 {
        fill: none;
      }

      .cls-2 {
        fill: #e4908e;
      }

      .cls-3 {
        fill: #e29c77;
        isolation: isolate;
        opacity: .5;
      }

      .cls-4 {
        fill: #b75653;
      }

      .cls-5 {
        fill: #fbefe6;
      }

      .cls-6 {
        clip-path: url(#clippath-17);
      }

      .cls-7 {
        clip-path: url(#clippath-19);
      }

      .cls-8 {
        clip-path: url(#clippath-11);
      }

      .cls-9 {
        clip-path: url(#clippath-16);
      }

      .cls-10 {
        clip-path: url(#clippath-18);
      }

      .cls-11 {
        clip-path: url(#clippath-10);
      }

      .cls-12 {
        clip-path: url(#clippath-15);
      }

      .cls-13 {
        clip-path: url(#clippath-13);
      }

      .cls-14 {
        clip-path: url(#clippath-14);
      }

      .cls-15 {
        clip-path: url(#clippath-12);
      }

      .cls-16 {
        clip-path: url(#clippath-20);
      }

      .cls-17 {
        clip-path: url(#clippath-1);
      }

      .cls-18 {
        clip-path: url(#clippath-3);
      }

      .cls-19 {
        clip-path: url(#clippath-4);
      }

      .cls-20 {
        clip-path: url(#clippath-2);
      }

      .cls-21 {
        clip-path: url(#clippath-7);
      }

      .cls-22 {
        clip-path: url(#clippath-6);
      }

      .cls-23 {
        clip-path: url(#clippath-9);
      }

      .cls-24 {
        clip-path: url(#clippath-8);
      }

      .cls-25 {
        clip-path: url(#clippath-5);
      }

      .cls-26 {
        fill: #c78482;
      }

      .cls-27 {
        fill: #f4bab9;
      }

      .cls-28 {
        fill: #fce1ca;
      }

      .cls-29 {
        fill: #f9cea0;
      }

      .cls-30 {
        fill: #9dc2c4;
      }

      .cls-31 {
        clip-path: url(#clippath);
      }

      .cls-32 {
        fill: #e3a173;
      }
    </style>
    <clipPath id="clippath">
      <circle class="cls-1" cx="98.3" cy="64.01" r="26.71"/>
    </clipPath>
    <clipPath id="clippath-1">
      <circle class="cls-1" cx="98.3" cy="64.01" r="26.71"/>
    </clipPath>
    <clipPath id="clippath-2">
      <circle class="cls-1" cx="98.3" cy="64.01" r="26.71"/>
    </clipPath>
    <clipPath id="clippath-3">
      <circle class="cls-1" cx="98.3" cy="64.01" r="26.71"/>
    </clipPath>
    <clipPath id="clippath-4">
      <circle class="cls-1" cx="98.3" cy="64.01" r="26.71"/>
    </clipPath>
    <clipPath id="clippath-5">
      <circle class="cls-1" cx="98.3" cy="64.01" r="26.71"/>
    </clipPath>
    <clipPath id="clippath-6">
      <circle class="cls-1" cx="98.3" cy="64.01" r="26.71"/>
    </clipPath>
    <clipPath id="clippath-7">
      <circle class="cls-1" cx="98.3" cy="64.01" r="26.71"/>
    </clipPath>
    <clipPath id="clippath-8">
      <circle class="cls-1" cx="98.3" cy="64.01" r="26.71"/>
    </clipPath>
    <clipPath id="clippath-9">
      <circle class="cls-1" cx="98.3" cy="64.01" r="26.71"/>
    </clipPath>
    <clipPath id="clippath-10">
      <circle class="cls-1" cx="98.3" cy="64.01" r="26.71"/>
    </clipPath>
    <clipPath id="clippath-11">
      <circle class="cls-1" cx="98.3" cy="64.01" r="26.71"/>
    </clipPath>
    <clipPath id="clippath-12">
      <circle class="cls-1" cx="98.3" cy="64.01" r="26.71"/>
    </clipPath>
    <clipPath id="clippath-13">
      <circle class="cls-1" cx="98.3" cy="64.01" r="26.71"/>
    </clipPath>
    <clipPath id="clippath-14">
      <circle class="cls-1" cx="98.3" cy="64.01" r="26.71"/>
    </clipPath>
    <clipPath id="clippath-15">
      <circle class="cls-1" cx="98.3" cy="64.01" r="26.71"/>
    </clipPath>
    <clipPath id="clippath-16">
      <circle class="cls-1" cx="98.3" cy="64.01" r="26.71"/>
    </clipPath>
    <clipPath id="clippath-17">
      <circle class="cls-1" cx="98.3" cy="64.01" r="26.71"/>
    </clipPath>
    <clipPath id="clippath-18">
      <circle class="cls-1" cx="98.3" cy="64.01" r="26.71"/>
    </clipPath>
    <clipPath id="clippath-19">
      <circle class="cls-1" cx="98.3" cy="64.01" r="26.71"/>
    </clipPath>
    <clipPath id="clippath-20">
      <circle class="cls-1" cx="98.3" cy="64.01" r="26.71"/>
    </clipPath>
  </defs>
  <g id="_圖層_1-2" data-name="圖層 1">
    <g>
      <g>
        <path class="cls-29" d="M142.64,11.83l-.37-.2c-1.35,2.6-4.21,4.06-7.02,4.89-2.82.84-5.81,1.22-8.45,2.51-7.42,3.61-10.25,13.16-17.38,17.29-5.25,3.03-11.86,2.57-17.38,5.05-6.64,2.97-10.85,9.76-17.22,13.3-5.12,2.85-11.5,3.33-17,1.28-.59-.22-1.22-.46-1.86-.65-.52-.79-1.02-1.58-1.4-2.44-1.03-2.34-1.08-5-.64-7.52.44-2.51,1.34-4.92,2.16-7.33,1.09-3.19,2.05-6.43,2.88-9.7.45-1.75.86-3.51,1.24-5.28,1.07-5.03,2.11-10.62,6.19-13.75,3.14-2.41,7.34-2.75,11.28-2.92,3.94-.17,8.1-.33,11.42-2.46h0c1.41-.1,2.81-.22,4.22-.37,7.32-.77,14.58-2.13,21.94-2.48,8.76-.41,17.95.75,25.25,5.62.84.56,1.68,1.2,2.12,2.11.46.95.4,2.04.02,3.04Z"/>
        <path class="cls-32" d="M142.64,11.83c-.25.66-.64,1.28-1.11,1.8-1.18,1.3-2.78,2.12-4.25,3.07-10.55,6.79-15.54,20.62-26.95,25.85-4.08,1.87-8.65,2.45-12.81,4.14-5.24,2.12-9.6,5.88-14.01,9.4-4.41,3.52-9.16,6.95-14.67,8.17-3.54.78-7.48.44-10.67-1.15.76-1.68.25-3.71-.64-5.34-.46-.86-1.02-1.66-1.56-2.48.64.2,1.27.43,1.86.65,5.49,2.05,11.87,1.57,17-1.28,6.36-3.54,10.57-10.32,17.22-13.3,5.53-2.48,12.14-2.02,17.38-5.05,7.14-4.13,9.97-13.68,17.38-17.29,2.64-1.29,5.63-1.67,8.45-2.51,2.81-.83,5.67-2.29,7.02-4.89l.38.2Z"/>
        <path class="cls-29" d="M65.01,5.92c-.67,1-1.76,1.62-2.69,2.37-1.66,1.34-2.91,3.17-3.55,5.21-.93,2.94-.57,6.12-.77,9.19-.12,1.76-.41,3.48-.83,5.17-.08.32-.16.63-.25.95-1.31,4.75-3.52,9.3-5.32,13.91-.78,2.01-1.5,4.12-1.29,6.26.17,1.61.84,3.11,1.16,4.69.11.57.18,1.14.22,1.72-.17.12-.33.27-.48.44-.48.56-.7,1.3-.99,1.97-2.01,4.63-7.62,6.4-12.61,7.09-2.69.37-5.52.64-8.15,1.34-2.25.6-4.36,1.5-6.09,3.06-3.54,3.18-4.58,8.21-6.56,12.54-1.37,2.98-3.83,5.92-6.72,7.05-1.27-1.11-2.34-2.54-3.23-3.97C-2.39,70.1-.93,51.03,3.37,34.12c1.67-6.59,3.77-13.17,7.36-18.95S19.55,4.41,25.99,2.23c5.07-1.72,10.56-1.64,15.91-1.3,7.78.49,15.55,1.48,23.32,2.23.5.79.34,1.97-.21,2.78Z"/>
        <path class="cls-26" d="M93.31,3.53c-1.4.15-2.81.28-4.22.37h0c-3.31,2.13-7.48,2.28-11.42,2.46-3.95.17-8.15.52-11.28,2.92-4.08,3.13-5.13,8.72-6.19,13.75-.37,1.77-.78,3.53-1.24,5.28-.08.32-.17.64-.25.97-.77,2.94-1.65,5.85-2.63,8.73-.83,2.41-1.72,4.82-2.16,7.33-.43,2.51-.39,5.18.64,7.52.37.86.88,1.65,1.4,2.44.54.81,1.1,1.62,1.56,2.48.89,1.64,1.4,3.66.64,5.34-.02.05-.04.1-.07.15-.84,1.67-3.42,2.41-4.64,1.04-.45-.25-.72-.91-.96-1.43-.05-.1-.09-.21-.13-.32-.8-2.27-.51-4.75-.67-7.16-.04-.58-.1-1.15-.22-1.72-.31-1.58-.99-3.08-1.16-4.69-.21-2.14.51-4.26,1.29-6.26,1.8-4.61,4.01-9.16,5.32-13.91.09-.32.17-.63.25-.95.42-1.69.71-3.41.83-5.17.2-3.08-.16-6.25.77-9.19.64-2.04,1.9-3.87,3.55-5.21.94-.75,2.02-1.37,2.69-2.37.55-.81.7-1.99.21-2.77-.05-.09-.12-.17-.2-.25,2.06-.25,3.96-1.32,5.95-2.01,2.84-.97,5.95-1.16,8.88-.52,2.54.55,4.92,1.7,7.43,2.33,1.97.49,4,.66,6.02.83Z"/>
        <path class="cls-32" d="M53.44,64.31s0,.02,0,.02c-2.19,4.24-6.73,7.47-11.45,8.93-3.95,1.23-8.31,1.64-11.65,4.08-2.93,2.14-4.64,5.51-6.81,8.41-2.17,2.91-5.37,5.6-8.98,5.25-1.7-.17-3.19-.97-4.48-2.11,2.9-1.13,5.35-4.07,6.72-7.05,1.98-4.33,3.02-9.36,6.56-12.54,1.74-1.56,3.84-2.47,6.09-3.06,2.63-.69,5.45-.96,8.15-1.34,5-.7,10.6-2.46,12.61-7.09.3-.68.51-1.41.99-1.97.15-.17.31-.32.48-.44.16,2.41-.13,4.89.67,7.16.04.1.08.21.13.32.24.52.5,1.18.96,1.43Z"/>
        <path class="cls-30" d="M52.49,62.88c-.91,2.77-3.26,4.97-5.99,6.06-2.94,1.17-6.24,1.15-9.32.48-2.57-.56-5.04-1.56-7.28-2.95-.14-.09-.3-.17-.45-.23,2.63-.69,5.45-.96,8.15-1.34,5-.7,10.6-2.46,12.61-7.09.3-.68.51-1.41.99-1.97.15-.17.31-.32.48-.44.16,2.41-.13,4.89.67,7.16.04.1.08.21.13.32Z"/>
        <path class="cls-32" d="M56.48,11.85c-2.27,2.84-2.67,6.6-2.64,10.1.03,3.97.58,8.16-.96,11.94-1.28,3.14-3.77,5.61-5.06,8.75-.31.75-.54,1.53-.66,2.34-.14,1-.06,2.01.05,3.01.11.96.21,1.92.17,2.89-.04.84-.16,1.68-.36,2.49-.8,3.24-2.83,6.19-5.64,8.01-.35.23-.71.43-1.08.63-.25.13-.02.5.23.37,2.96-1.53,5.25-4.22,6.42-7.32.58-1.54.9-3.19.88-4.84-.01-1.04-.18-2.06-.26-3.09-.08-.97-.05-1.93.18-2.88.8-3.32,3.32-5.88,4.89-8.83.9-1.69,1.41-3.51,1.61-5.41.21-2.01.14-4.04.07-6.06-.11-3.59-.16-7.48,1.71-10.69.23-.39.49-.76.77-1.12.17-.22-.14-.52-.32-.3Z"/>
        <path class="cls-32" d="M44.64,51.5c-.19,2.67-1.69,5.18-3.93,6.64-.23.15,0,.52.23.37,2.38-1.55,3.93-4.19,4.14-7.03.02-.28-.41-.26-.43.02Z"/>
        <path class="cls-32" d="M136.97,12.01c-2.25.22-4.09,1.63-6.02,2.67-1.94,1.05-4.08,1.52-6.2,2-2.09.47-4.24.97-6.08,2.1-1.76,1.08-3.03,2.72-4.14,4.43-1.14,1.77-2.15,3.64-3.57,5.21-1.41,1.55-3.18,2.71-5.07,3.6-3.87,1.81-8.12,2.48-12.16,3.76-3.75,1.19-7.63,2.94-10.02,6.19-.29.4-.56.81-.8,1.24-.14.24.25.45.39.2,2-3.56,5.75-5.56,9.48-6.86,3.94-1.37,8.1-2.02,11.99-3.58,1.92-.77,3.76-1.75,5.33-3.1,1.59-1.36,2.73-3.09,3.82-4.85,1.07-1.72,2.12-3.5,3.64-4.87,1.61-1.45,3.66-2.18,5.73-2.7,2.1-.53,4.26-.87,6.28-1.66,2.05-.8,3.77-2.25,5.84-3,.52-.19,1.05-.31,1.59-.37.28-.03.26-.46-.02-.43Z"/>
        <path class="cls-32" d="M79.52,46.28c-2.14,2.47-4.91,4.37-7.98,5.49-.86.31-1.75.56-2.64.75-.27.06-.15.47.13.42,3.25-.68,6.29-2.2,8.81-4.36.72-.62,1.39-1.29,2.01-2,.18-.21-.13-.51-.32-.3Z"/>
        <path class="cls-28" d="M45.51,8.11c4.17,7.19-5.73,10.48-11.21,11.2-6.6,1.5-12.14,6.19-14.56,12.54-3,6.05-2.15,13.83-6.75,19.03-8.48,5.44-7.55-10.11-6.16-14.72,1.87-9.36,4.96-19.52,12.64-25.75,6.52-5.01,19.68-9.34,26.04-2.3Z"/>
        <path class="cls-28" d="M131.32,8.87c-1.84,5.17-18.36-2.89-25.43.21-3.81.5-10.88,3.24-13.9.27-2.79-2.2,1.82-4.88,3.96-5.05,6.56-.67,32.46-1.46,35.37,4.56Z"/>
        <path class="cls-3" d="M65.98,20.47c-1.76-2.26-.85-6.09,1.15-7.89,2.29-2.65,7.11-3.2,7.78,1.07.46,1.87,2.29,4.64.35,6.15-.59.34-1.32.29-1.96.13-3.6-2.1-4.72,2.71-7.32.54Z"/>
        <path class="cls-3" d="M50.54,24.51c1.22,6.53-2.66,11.18-7.49,14.67-2.67,1.93-4.6,4.71-5.38,7.91-.36,1.49-.69,2.99-1.23,4.41-4.08,13.54-15.44,6.63-19.42,17.84-.9,2.37-1.89,5.41-4.77,5.89-4.73.61-8.48-4.95-7.45-9.29,1.12-4.98,5.82-7.82,10.1-9.89,8.29-3.67,10.99-7.03,8.49-16.12-1.32-5.94,1.94-14.55,9.22-13.26,5.75,1.91,9.69,1.14,12.3-4.7,2.44-3.11,5.49-.85,5.63,2.54Z"/>
        <path class="cls-3" d="M109.27,18.85c-2.39,3.86-6.86-.92-9.68-1.95-6.63-3.09-19.57,10.22-22.12-.55.32-9.23,7.6-9.93,13.6-4.4,4.6,2.69,9.98-.42,14.79,1.44,2.32.61,4.58,2.96,3.41,5.46Z"/>
        <path class="cls-3" d="M104.75,23.44c1.49,4.73-4.16,7.27-7.9,8.09-4.65,1.5-9.71-.73-14.21,1.23-5.61,2.93-6.54,10.43-11.95,13.59-3.58,2.44-8.41.02-9.42-3.99-1.76-6.85,4.97-18,12.13-19.04,4.9-.39,9.72,1.89,14.64.63,5.32-.71,12.87-7.16,16.71-.52Z"/>
      </g>
      <g>
        <circle class="cls-27" cx="98.3" cy="64.01" r="26.71"/>
        <g>
          <g class="cls-31">
            <g>
              <path class="cls-2" d="M122.47,30.91c6.27-.05,8.5,11.44,2.19,13.15-4.09,1.91-13.07.07-12.16-4.63.12-.63.44-1.2.84-1.69,2.36-2.84,5.64-5.96,9.13-6.82Z"/>
              <g>
                <path class="cls-2" d="M122.47,54.64c6.27-.05,8.5,11.44,2.19,13.15-4.09,1.91-13.07.07-12.16-4.63.12-.63.44-1.2.84-1.69,2.36-2.84,5.64-5.96,9.13-6.82Z"/>
                <path class="cls-28" d="M110.38,61.28c-3.58.67-8.1.06-6.56-4,.72-1.64,2.73-1.87,3.86-3.13,1.09-1.17,1.77-2.77,3.21-3.59,7.09-2.62,9.37,8.87-.5,10.72Z"/>
                <path class="cls-2" d="M126.3,50.52c2.69,3.67-3.85,3.78-6.13,3.57-1.88-.09-2.88-1.65-4-3.14-1.89-2.53-.11-4.92,2.64-5.22,4.48-1.21,5.03,2.15,7.49,4.78Z"/>
                <path class="cls-2" d="M110.41,39.17c.68.33,1.01.9,1.28,1.58.3.76.74,1.43,1.34,2,.56.53,1.2.99,1.65,1.63.82,1.16.93,2.68-.05,3.77-1.03,1.15-2.64,1.37-4.11,1.44-.73.04-1.51.02-2.14-.41-.56-.38-.92-.97-1.19-1.57-.03-.05-.05-.11-.07-.17-.26-.42-.48-.88-.67-1.34-.32-.74-.65-1.47-.98-2.21-.32-.72-.56-1.51-.39-2.29.15-.71.66-1.23,1.23-1.63.63-.45,1.37-.84,2.13-1,.66-.14,1.35-.1,1.97.2Z"/>
              </g>
              <g>
                <path class="cls-2" d="M122.47,78.36c6.27-.05,8.5,11.44,2.19,13.15-4.09,1.91-13.07.07-12.16-4.63.12-.63.44-1.2.84-1.69,2.36-2.84,5.64-5.96,9.13-6.82Z"/>
                <path class="cls-2" d="M110.38,85c-3.58.67-8.1.06-6.56-4,.72-1.64,2.73-1.87,3.86-3.13,1.09-1.17,1.77-2.77,3.21-3.59,7.09-2.62,9.37,8.87-.5,10.72Z"/>
                <path class="cls-28" d="M126.3,74.24c2.69,3.67-3.85,3.78-6.13,3.57-1.88-.09-2.88-1.65-4-3.14-1.89-2.53-.11-4.92,2.64-5.22,4.48-1.21,5.03,2.15,7.49,4.78Z"/>
                <path class="cls-2" d="M110.41,62.9c.68.33,1.01.9,1.28,1.58.3.76.74,1.43,1.34,2,.56.53,1.2.99,1.65,1.63.82,1.16.93,2.68-.05,3.77-1.03,1.15-2.64,1.37-4.11,1.44-.73.04-1.51.02-2.14-.41-.56-.38-.92-.97-1.19-1.57-.03-.05-.05-.11-.07-.17-.26-.42-.48-.88-.67-1.34-.32-.74-.65-1.47-.98-2.21-.32-.72-.56-1.51-.39-2.29.15-.71.66-1.23,1.23-1.63.63-.45,1.37-.84,2.13-1,.66-.14,1.35-.1,1.97.2Z"/>
              </g>
              <path class="cls-2" d="M110.41,86.62c.68.33,1.01.9,1.28,1.58.3.76.74,1.43,1.34,2,.56.53,1.2.99,1.65,1.63.82,1.16.93,2.68-.05,3.77-1.03,1.15-2.64,1.37-4.11,1.44-.73.04-1.51.02-2.14-.41-.56-.38-.92-.97-1.19-1.57-.03-.05-.05-.11-.07-.17-.26-.42-.48-.88-.67-1.34-.32-.74-.65-1.47-.98-2.21-.32-.72-.56-1.51-.39-2.29.15-.71.66-1.23,1.23-1.63.63-.45,1.37-.84,2.13-1,.66-.14,1.35-.1,1.97.2Z"/>
              <path class="cls-2" d="M100.34,42.77c6.27-.05,8.5,11.44,2.19,13.15-4.09,1.91-13.07.07-12.16-4.63.12-.63.44-1.2.84-1.69,2.36-2.84,5.64-5.96,9.13-6.82Z"/>
              <path class="cls-2" d="M88.25,49.42c-3.58.67-8.1.06-6.56-4,.72-1.64,2.73-1.87,3.86-3.13,1.09-1.17,1.77-2.77,3.21-3.59,7.09-2.62,9.37,8.87-.5,10.72Z"/>
              <path class="cls-28" d="M104.17,38.65c2.69,3.67-3.85,3.78-6.13,3.57-1.88-.09-2.88-1.65-4-3.14-1.89-2.53-.11-4.92,2.64-5.22,4.48-1.21,5.03,2.15,7.49,4.78Z"/>
              <g>
                <path class="cls-28" d="M100.73,66.5c6.27-.05,8.5,11.44,2.19,13.15-4.09,1.91-13.07.07-12.16-4.63.12-.63.44-1.2.84-1.69,2.36-2.84,5.64-5.96,9.13-6.82Z"/>
                <path class="cls-2" d="M88.25,73.14c-3.58.67-8.1.06-6.56-4,.72-1.64,2.73-1.87,3.86-3.13,1.09-1.17,1.77-2.77,3.21-3.59,7.09-2.62,9.37,8.87-.5,10.72Z"/>
                <path class="cls-2" d="M104.17,62.38c2.69,3.67-3.85,3.78-6.13,3.57-1.88-.09-2.88-1.65-4-3.14-1.89-2.53-.11-4.92,2.64-5.22,4.48-1.21,5.03,2.15,7.49,4.78Z"/>
                <path class="cls-2" d="M88.28,51.03c.68.33,1.01.9,1.28,1.58.3.76.74,1.43,1.34,2,.56.53,1.2.99,1.65,1.63.82,1.16.93,2.68-.05,3.77-1.03,1.15-2.64,1.37-4.11,1.44-.73.04-1.51.02-2.14-.41-.56-.38-.92-.97-1.19-1.57-.03-.05-.05-.11-.07-.17-.26-.42-.48-.88-.67-1.34-.32-.74-.65-1.47-.98-2.21-.32-.72-.56-1.51-.39-2.29.15-.71.66-1.23,1.23-1.63.63-.45,1.37-.84,2.13-1,.66-.14,1.35-.1,1.97.2Z"/>
              </g>
              <g>
                <path class="cls-2" d="M88.25,96.87c-3.58.67-8.1.06-6.56-4,.72-1.64,2.73-1.87,3.86-3.13,1.09-1.17,1.77-2.77,3.21-3.59,7.09-2.62,9.37,8.87-.5,10.72Z"/>
                <path class="cls-2" d="M104.17,86.1c2.69,3.67-3.85,3.78-6.13,3.57-1.88-.09-2.88-1.65-4-3.14-1.89-2.53-.11-4.92,2.64-5.22,4.48-1.21,5.03,2.15,7.49,4.78Z"/>
                <path class="cls-2" d="M88.28,74.76c.68.33,1.01.9,1.28,1.58.3.76.74,1.43,1.34,2,.56.53,1.2.99,1.65,1.63.82,1.16.93,2.68-.05,3.77-1.03,1.15-2.64,1.37-4.11,1.44-.73.04-1.51.02-2.14-.41-.56-.38-.92-.97-1.19-1.57-.03-.05-.05-.11-.07-.17-.26-.42-.48-.88-.67-1.34-.32-.74-.65-1.47-.98-2.21-.32-.72-.56-1.51-.39-2.29.15-.71.66-1.23,1.23-1.63.63-.45,1.37-.84,2.13-1,.66-.14,1.35-.1,1.97.2Z"/>
              </g>
              <path class="cls-2" d="M78.21,30.91c6.27-.05,8.5,11.44,2.19,13.15-4.09,1.91-13.07.07-12.16-4.63.12-.63.44-1.2.84-1.69,2.36-2.84,5.64-5.96,9.13-6.82Z"/>
              <g>
                <path class="cls-28" d="M78.6,54.64c6.27-.05,8.5,11.44,2.19,13.15-4.09,1.91-13.07.07-12.16-4.63.12-.63.44-1.2.84-1.69,2.36-2.84,5.64-5.96,9.13-6.82Z"/>
                <path class="cls-2" d="M82.05,50.52c2.69,3.67-3.85,3.78-6.13,3.57-1.88-.09-2.88-1.65-4-3.14-1.89-2.53-.11-4.92,2.64-5.22,4.48-1.21,5.03,2.15,7.49,4.78Z"/>
              </g>
              <g>
                <path class="cls-2" d="M78.21,78.36c6.27-.05,8.5,11.44,2.19,13.15-4.09,1.91-13.07.07-12.16-4.63.12-.63.44-1.2.84-1.69,2.36-2.84,5.64-5.96,9.13-6.82Z"/>
                <path class="cls-2" d="M82.05,74.24c2.69,3.67-3.85,3.78-6.13,3.57-1.88-.09-2.88-1.65-4-3.14-1.89-2.53-.11-4.92,2.64-5.22,4.48-1.21,5.03,2.15,7.49,4.78Z"/>
              </g>
            </g>
          </g>
          <g class="cls-17">
            <path class="cls-27" d="M119.4,59.42c2.37-1.04,6.64,1.39,4.27,4.06-3.82,3.28-8.74-.18-4.27-4.06Z"/>
          </g>
          <g class="cls-20">
            <path class="cls-27" d="M108.25,89.34c1.97-.47,3.43,1.91,3.67,3.59-1.23,2.98-6.81-1.99-3.67-3.59Z"/>
          </g>
          <g class="cls-18">
            <path class="cls-27" d="M100.14,87.81c-1.84.14-4.7-1.32-3.87-3.5,1.61-3.28,7.87,2.71,3.87,3.5Z"/>
          </g>
          <g class="cls-19">
            <path class="cls-4" d="M88.51,83.47c-4.64-.44-3.84-8.19-.85-5.76.69.86.77,2.06,1.51,2.89,1.2.99,1.15,2.81-.66,2.87Z"/>
          </g>
          <g class="cls-25">
            <path class="cls-27" d="M110.94,78c1.27-.99,3.28.24,2.9,1.83-.86,2.38-4.97,3.97-7.31,3.42-2.67-2.17,3.07-4.06,4.41-5.24Z"/>
          </g>
          <g class="cls-22">
            <path class="cls-4" d="M77.44,75.75c-2.28,1.18-4.69-2.86-2.11-3.89,1.45-.42,2.12,1.24,2.89,2.14.73.68.11,1.69-.78,1.75Z"/>
          </g>
          <g class="cls-21">
            <path class="cls-27" d="M90.01,93.1c-.99.97-3.02.83-3.15-.77-.08-.96.74-1.58,1.53-1.91.77-.45,1.51-1.4,2.51-1.06,1.78.88.5,3.13-.9,3.74Z"/>
          </g>
          <g class="cls-24">
            <path class="cls-27" d="M119.6,83.15c2.64-1.85,4.97-1.48,4.26,2.25-.06.82-.06,1.81-.71,2.42-1.03.92-2.55.62-3.79.41-4.11-.44-2.35-3.79.23-5.08Z"/>
          </g>
          <g class="cls-23">
            <path class="cls-27" d="M77.71,87.62c-3.33.93-5.79-1.74-2.24-3.93,1.18-.51,2.95-1.69,4.09-.61,1.27,1.77.33,4.19-1.85,4.54Z"/>
          </g>
          <g class="cls-11">
            <path class="cls-30" d="M89.08,65.74c3.74-1.16,3.57,3.82.19,5.1-1.33.72-4.15.61-4.16-1.36.44-1.62,2.89-2.3,3.97-3.74Z"/>
          </g>
          <g class="cls-8">
            <path class="cls-30" d="M108.18,66.31c.99-1.11,1.92.22,2.39,1.1.4.51.88.98.98,1.65-.39,3.72-5.56-.6-3.37-2.75Z"/>
          </g>
          <g class="cls-15">
            <path class="cls-4" d="M86.34,54.14c1.64-1.9,4.18,3.42,2.82,4.02-2.2,1.01-4.7-2.3-2.82-4.02Z"/>
          </g>
          <g class="cls-13">
            <path class="cls-27" d="M96.79,59.77c2.01-1.2,5.45,2.95,2.81,3.98-1.9.23-5.3-2.4-2.81-3.98Z"/>
          </g>
          <g class="cls-14">
            <path class="cls-27" d="M120.91,37.02c2.11-.93,3.33,3.51,1.71,4.61-1.92,1.13-6.46.23-6.11-2.58.8-1.49,3-1.35,4.41-2.03Z"/>
          </g>
          <g class="cls-12">
            <path class="cls-27" d="M119.06,48.68c1.47-1.25,4.42.8,3.86,2.59-1.22,1.66-5.48-.71-3.86-2.59Z"/>
          </g>
          <g class="cls-9">
            <path class="cls-27" d="M79.68,35.45c3.13,2.41-.6,7.69-3.87,5.79-3.24-2.3.52-8.13,3.87-5.79Z"/>
          </g>
          <g class="cls-6">
            <path class="cls-27" d="M77.96,51.82c-2.1.27-4.26-2.88-1.2-3.19,1.73-.23,3.94,3.2,1.2,3.19Z"/>
          </g>
          <g class="cls-10">
            <path class="cls-30" d="M89.4,42.71c2.23-1.25,2.48,2.09.93,3.08-1.28,1.46-6.49,3.3-5.56-.26.89-1.8,3.25-1.6,4.63-2.81Z"/>
          </g>
          <g class="cls-7">
            <path class="cls-27" d="M97.19,47.74c1.95.2,5.57-.63,5.55,2.29.07,2.49-3.6,3.64-5.81,3.11-3.82-.48-3.41-5.08.26-5.4Z"/>
          </g>
          <g class="cls-16">
            <path class="cls-4" d="M109.48,42.9c1.08.42,1.51,1.77,2.29,2.57,1.2,1.07-.4,2.15-1.5,1.64-1.94-.26-3.53-4.16-.79-4.2Z"/>
          </g>
        </g>
        <path class="cls-5" d="M98.3,92.11c-15.5,0-28.11-12.61-28.11-28.11s12.61-28.11,28.11-28.11,28.11,12.61,28.11,28.11c0,15.5-12.61,28.11-28.11,28.11ZM98.3,38.68c-13.96,0-25.32,11.36-25.32,25.32s11.36,25.32,25.32,25.32,25.32-11.36,25.32-25.32c0-13.96-11.36-25.32-25.32-25.32Z"/>
      </g>
    </g>
  </g>
</svg>