<?xml version="1.0" encoding="UTF-8"?>
<svg id="_圖層_2" data-name="圖層 2" xmlns="http://www.w3.org/2000/svg" viewBox="0 0 108.54 108.53">
  <defs>
    <style>
      .cls-1 {
        fill: #c05c55;
      }

      .cls-2 {
        fill: #c36458;
      }

      .cls-3 {
        fill: #be5352;
      }

      .cls-4 {
        fill: #bf5553;
      }

      .cls-5 {
        fill: #bd5050;
      }

      .cls-6 {
        fill: #bb4a4e;
      }

      .cls-7 {
        fill: #d59fa8;
      }

      .cls-8 {
        fill: #c97561;
      }

      .cls-9 {
        fill: #bf5653;
      }

      .cls-10 {
        fill: #bd4f50;
      }

      .cls-11 {
        fill: #d49da6;
      }

      .cls-12 {
        fill: #d5a1a9;
      }

      .cls-13 {
        fill: #be5552;
      }

      .cls-14 {
        fill: #d36865;
      }

      .cls-15 {
        fill: #88151b;
      }

      .cls-16 {
        fill: #d59ea7;
      }

      .cls-17 {
        fill: #f99595;
      }

      .cls-18 {
        fill: #c86f5e;
      }

      .cls-19 {
        fill: #c36258;
      }

      .cls-20 {
        fill: #bc4e4f;
      }

      .cls-21 {
        fill: #be5251;
      }

      .cls-22 {
        fill: #bc4f4f;
      }

      .cls-23 {
        fill: #bb494e;
      }

      .cls-24 {
        fill: #ba494d;
      }

      .cls-25 {
        fill: #b63a47;
      }

      .cls-26 {
        fill: #8d1a20;
      }

      .cls-27 {
        fill: #bb4b4e;
      }

      .cls-28 {
        fill: #f9cea0;
      }

      .cls-29 {
        fill: #d49ea7;
      }

      .cls-30 {
        fill: #ba474c;
      }

      .cls-31 {
        fill: #ba464c;
      }

      .cls-32 {
        fill: #b63947;
      }

      .cls-33 {
        fill: #b8404a;
      }

      .cls-34 {
        fill: #eaa19b;
      }

      .cls-35 {
        fill: #b9444b;
      }

      .cls-36 {
        fill: #dd8980;
      }

      .cls-37 {
        fill: #df8a6a;
      }

      .cls-38 {
        fill: #d49fa7;
      }
    </style>
  </defs>
  <g id="_圖層_1-2" data-name="圖層 1">
    <g>
      <path class="cls-34" d="M59.98.2c.84.09,1.99.58,2.81.8.72.28,1.39.28,2.01,0,19.16,2.76,40.01,22.3,42.22,41.75.08,1.52.21,2.06.4,1.61.22.96.7,2.25.8,3.21-.3,1.16-.3,2.37,0,3.61.42,2.75.42,3.3,0,6.02-.3,1.37-.3,2.71,0,4.01-2.55,24.57-23.51,44.52-47.84,46.97-4.07-.16-8.09-.16-12.06,0C23.96,105.83,3.67,86.38.48,62.03c.3-1.03.3-2.1,0-3.21-.17-1-.98-9.22,0-9.23.44-.61.22-1.94,0-2.81.04-.4.64-2.8.8-2.81.43-.26.19-1.11,0-1.61.22-2.19,1.3-5.24,2.11-7.33C10.59,16.33,28.46,1.91,48.72.2c3.79.23,7.55.23,11.26,0Z"/>
      <path class="cls-12" d="M60.38,108.2c-4.5.45-7.6.43-12.06,0,.42-.66,1.53-.4,2.21-.41,3.18-.03,6.81-.3,9.86.41Z"/>
      <path class="cls-7" d="M59.98.2c-.42.66-1.53.4-2.21.41-2.9.03-6.29.3-9.05-.41,2.91-.25,8.39-.3,11.26,0Z"/>
      <path class="cls-29" d="M108.23,61.23c-1.06-1.08-.17-2.93,0-4.01-.09,1.3.13,2.74,0,4.01Z"/>
      <path class="cls-29" d="M108.23,51.19c-.14-.93-1.08-2.65,0-3.61.12,1.15-.08,2.44,0,3.61Z"/>
      <path class="cls-11" d="M.48,62.03c-.13-1,.09-2.18,0-3.21.13.78,1.09,2.29,0,3.21Z"/>
      <path class="cls-29" d="M.48,46.78c.81.74.27,2.23.4,3.21-.46.07-.37-.4-.4-.4.07-.91-.1-1.92,0-2.81Z"/>
      <path class="cls-29" d="M64.81,1.01c-.61,1.04-1.57.12-2.01,0,.65.06,1.39-.09,2.01,0Z"/>
      <path class="cls-16" d="M107.42,44.37l-.4.4c-.06-.66.07-1.35,0-2.01.56.46.29,1.12.4,1.61Z"/>
      <path class="cls-38" d="M1.28,42.36c.67.34.36,1.38.4,2.01-.46.07-.37-.4-.4-.4.04-.53-.05-1.08,0-1.61Z"/>
      <path class="cls-36" d="M57.17,6.23c-.2.46,1.1.16,1.61,0,38.47,1.72,57.36,50.46,32.37,79.5C62.82,118.64,8.24,100.49,6.11,57.21c.3-1.99.29-4.03,0-6.02C7.29,28.29,26.6,7.27,49.93,6.23c.59.22,2.23.43,1.21,0,1.57-.68,4.54-.67,6.03,0Z"/>
      <path class="cls-28" d="M57.57,22.69c2.16.47,5.93.65,7.75,1.69.94.54,1.18,1.69,1.76,1.88.84.27,1.67-.35,2.55-.18,1.25.25,5.02,2.93,6.21,3.85,13.72,10.62,16.29,30.5,5.02,43.94-.65.77-3.86,4.13-4.52,4.13-1.18,0-2.48-.71-3.91.1.43,1.3,1.99.49,2.81,1-2.11,1.41-6.74,4.64-9.14,4.94-1.11.14-1.93-.84-2.94-.56-.91.25-1.5,1.41-2.25,1.79-2.12,1.08-12.17,1.03-14.2-.17-.81-.48-1.02-1.88-1.91-2.14-1.15-.33-1.85.69-2.76.75-1.77.13-10.52-5.16-11.22-6.83-.34-.8-.04-1.76-.4-2.41-.49-.88-2.27-.58-3.01-1.01-2.25-1.31-6.5-11.77-6.46-14.46.02-1.23,1.22-2.38.81-3.8l-1.2.8c-.29-.4.14-5.71.49-6.54s1.62-.9,1.87-1.77c.34-1.17-.83-1.99-.75-3.1.07-1.04,3.85-8.62,4.42-7.86l.4,1.2c1.03-3.21,1.97-5.08,4.64-7.21,2.29-1.84,3.78-1.52,5.15-2.38.53-.33.34-1.19.94-1.67s5.71-2.71,6.15-2.38c-1.02,3.52,2.69-.85,2.91-.94,1.23-.52,6.03-.95,7.26-.59.99.29,1.81,2.35,3.9,1.52.23-.74-.36-.7-.4-.8-1.11-.64-1.45-.88,0-.8Z"/>
      <path class="cls-1" d="M57.57,22.69l-.39.2c.12.2.3.39.39.6-2.09-.45-2.81-1.41,0-.8Z"/>
      <path class="cls-37" d="M34.38,53.88c-3.74-4.49.3-11.72,3.5-15.32,3.09-3.47,5.38-5.14,10.13-2.91,4.99,2.33,4.39,9.02,8.94,11.55,8.9,4.94,13.14-5.93,20.24-4.16,9.16,2.28,9.1,15.49,5.65,22.36-1.67,3.33-8.93,10.97-12.41,12.1-2.67.87-5.25.44-7.79-.67-3.62-1.59-3.77-4.02-3.47-7.76.23-2.86,2.42-8.76.98-11.03-.93-1.46-3.74-3.51-5.53-3.5-3.71.02-9.21,2.41-12.92,2.29-1.94-.06-6.07-1.44-7.33-2.95Z"/>
      <path class="cls-13" d="M75.26,31.92c-1.21.01-2.63-.39-3.72-.9-.47-.22-2.13-1.13-1.91-1.91,2.09.22,4.49.85,5.63,2.8Z"/>
      <path class="cls-30" d="M57.57,75.68c1.09.63,2.62,1.25,2.81,2.81-1.81.18-2.9-.94-3.62-2.41-.44-.82.1-.75.8-.4Z"/>
      <path class="cls-3" d="M64.8,31.92c-1.78.23-3.13-1.01-4.02-2.4.88-.58,4.85,1.68,4.02,2.4Z"/>
      <path class="cls-10" d="M53.55,83.71c-.67.36-4.44-1.05-4.02-1.6,1.6-.72,3.71-.36,4.02,1.6Z"/>
      <path class="cls-21" d="M46.71,28.31c-.47,2.32-2.2,2.12-4.02,1.6.1-1,3.81-1.79,4.02-1.6Z"/>
      <path class="cls-9" d="M55.16,29.52c-.72,1.47-2.58,1.66-4.02,1.6.78-1.57,2.44-1.75,4.02-1.6Z"/>
      <path class="cls-27" d="M56.76,41.55c-2.02-.12-2.23-1.45-2-3.21,1.14.63,2.11,1.84,2,3.21Z"/>
      <path class="cls-4" d="M36.66,74.07c-1.94.15-2.58-1.28-3.22-2.8,1.56.1,2.67,1.48,3.22,2.8Z"/>
      <path class="cls-5" d="M37.46,65.24c-1.85.01-2.67-1.28-3.21-2.8.57-.52,3.79,2.28,3.21,2.8Z"/>
      <path class="cls-20" d="M30.22,46.77c-1.33-.68-1.73-2.97-.6-4.01.84,1.15.59,2.68.6,4.01Z"/>
      <path class="cls-6" d="M49.93,66.04c-1.15.44-3.39-2.07-2.81-2.81,1.33.51,2.3,1.47,2.81,2.81Z"/>
      <path class="cls-19" d="M66.81,37.13c-.71.06-2.68,1.26-3.21.81-.78-.66,2.83-2.61,3.21-.81Z"/>
      <path class="cls-33" d="M57.97,64.44c-1.07-.55-1.13-2.9-.19-3.61.87,1.11.62,2.38.19,3.61Z"/>
      <path class="cls-32" d="M27.42,56.81c.06-1.03-.34-3.07.79-3.61.48,1.41.88,2.87-.79,3.61Z"/>
      <path class="cls-24" d="M46.71,79.29c-1.17.01-2.99,0-3.62-1.2,1.41-.03,2.98-.36,3.62,1.2Z"/>
      <path class="cls-5" d="M26.61,65.24c-1.13-.51-1.48-1.81-2.01-2.81,1.83-.16,2.2,1.26,2.01,2.81Z"/>
      <path class="cls-23" d="M68.02,43.97c-.82,1.42-2.29,1.13-3.62.79.6-1.33,2.48-.67,3.62-.79Z"/>
      <path class="cls-10" d="M34.25,33.12c.86-.22,1.27-.09,1.21.4-.99.76-2.04,1.47-2.81,0,.54-.09,1.08-.25,1.61-.41Z"/>
      <path class="cls-35" d="M47.92,57.61c1.02-.85,1.16-1.03,2.81-.8-.27.91-1.28.96-2.01,1.2-.73.2-1,.07-.8-.4Z"/>
      <path class="cls-22" d="M51.94,24.69c.53.15,1.07.31,1.61.41-.75,1.54-2.14.57-3.22,0-.09-.51.45-.65,1.61-.4Z"/>
      <path class="cls-25" d="M51.94,24.69l-1.61.4c-.14-.08-.56.06-.8,0-.27-1.59,1.54-.66,2.41-.4Z"/>
      <path class="cls-31" d="M81.29,41.95c-.48.43-2.44-1.57-2.01-2,.6-.59,2.15,1.87,2.01,2Z"/>
      <path class="cls-8" d="M34.25,33.12c.59-.17,1.13-.69,2.01-.4,0,.47-.52.58-.8.8l-1.21-.4Z"/>
      <path class="cls-2" d="M48.72,58.02c-.46.15-.87.65-1.61.4,0-.46.53-.57.8-.8l.8.4Z"/>
      <path class="cls-18" d="M57.57,75.68l-.8.4c-.16-.34-.64-.52-.4-1.2.14-.17.98.67,1.2.8Z"/>
      <path class="cls-3" d="M38.27,45.97c-.78-1.63.3-2.51,3.22-2.67l3.61-2.23c.73-.32,1.36-.03,1.92.49,1.28-1.51,2.51-.74,3.71.4,1.99,2.55,5.17,7.39,8.35,8.32,4.83,1.42,6.74-1.04,10.55-3.11,2.5-.28,4.02,3.73,4.06,5.94,3.69.03,2.86,6.88,1.38,7.26-.2.05-.4.06-.61.05-.36-1.52-.24,2.38,0,3.21,1.14,1.12-.13,2.04-1.28,2.67l-3.2,1.52c-.75,2.7-1.13,3.93-4.33,3.08-2,1.5-3.35,1.62-4.06.37-.99-4.22.52-6.85.44-10.64-.02-.88-.96-3.28-.84-3.41.43-.46,4.79-.55,2.2-4.02-.7-.14-2.36,1.77-3,1.21-.13-.12-.23-2.65-1.82-2.8l-.6,2c-3.9-2.11-6.74.6-10.35,1.1-4.01.55-8.51.08-10.55-3.91-.24-2.03.16-3.37,1.21-4.01.4.3.17-.39,0-.8Z"/>
      <path class="cls-17" d="M69.63,47.18c5.06-2.75,8.24-3.54,12.06,1.81,2.17,3.04.66,3.51.41,6.42-.16,1.88.37,3.18.42,4.81.11,3.32-3.9,9.32-6.77,10.94s-7.45,3.7-10.75,3.32c-2.63-.31-2.87-.89-3.42-3.21,1.71.66,2.88-.96,3.91-1.15,1.08-.2,2.43.99,3.12-.46.33-.69.02-1.47.61-2.2,1.24-1.53,4.84-1.38,5.22-3.82-.2-1.05-.38-2.22,0-3.21.55-1.1,1.46-3.85,1.14-4.93-.34-1.15-2.18-1.25-2.56-1.89-.35-.6-.14-1.77-.5-2.71-.47-1.21-1.85-2.94-2.91-3.72Z"/>
      <path class="cls-14" d="M50.73,41.96c-.79.06-1.84-.57-2.54-.43-.43.09-.52,1.19-.87,1.23-.22.02-1.27-1.08-1.61-1.08-.23,0-3.02,2.02-3.93,2.38-1.58.63-3.07-.29-3.51,1.92.18.3.31.61,0,.8l-1.21,4.01c-1.2-2.34.82-10.04,3.25-11.41,2.06-1.15,7.11-.95,9.02.56.84.66.91,1.39,1.4,2.02Z"/>
      <path class="cls-26" d="M74.45,60.43c.04.92.13,2.37,0,3.21-.88-1.14-.21-3.05-.4-4.41h.39c.02.4-.01.8,0,1.2Z"/>
      <path class="cls-15" d="M38.27,45.97c.67.36.36,1.38.4,2.01h-.39c-.01-.4,0-.8,0-1.2,0-.25-.04-.58,0-.8Z"/>
    </g>
  </g>
</svg>