<?xml version="1.0" encoding="UTF-8"?>
<svg id="_圖層_2" data-name="圖層 2" xmlns="http://www.w3.org/2000/svg" viewBox="0 0 106.5 119.53">
  <defs>
    <style>
      .cls-1 {
        fill: #794135;
        opacity: .2;
      }

      .cls-1, .cls-2, .cls-3 {
        isolation: isolate;
      }

      .cls-4 {
        fill: #fdf5d4;
      }

      .cls-2 {
        fill: #d3c792;
        opacity: .29;
      }

      .cls-3 {
        opacity: .31;
      }

      .cls-3, .cls-5 {
        fill: #eb6c55;
      }

      .cls-6 {
        fill: #fffcf4;
      }

      .cls-7 {
        fill: #f7d0ad;
      }

      .cls-8 {
        fill: #de9a85;
      }
    </style>
  </defs>
  <g id="_圖層_1-2" data-name="圖層 1">
    <g>
      <g>
        <g>
          <path class="cls-8" d="M68.51,1.66c6.24-1.07,15.8-2.21,25.27-1.37,4.25.38,7.39,4.12,7.08,8.37-1.9,25.95-4.06,72.09-.76,78.49,3.66,7.1,7.33,13.66,6.2,18.03-1.13,4.37-3.94,11.2-11.83,11.48-7.89.27-34.09-3.83-47.05.82-12.96,4.64-22.54-.27-32.4,1.09-9.86,1.37-18.6-8.2-13.52-13.11,5.07-4.92,8.17,1.37,13.81-.55,5.63-1.91,12.31-4.3,14.93-5.19,10.42-3.55,17.19-11.75,33.53-19.4,4.44-2.08-.07-49.36-1.73-70.33-.32-4.04,2.49-7.65,6.48-8.34Z"/>
          <path class="cls-7" d="M35.32,118.15c-2.97,0-5.82-.31-8.58-.62-2.71-.3-5.27-.58-7.89-.58-1.44,0-2.76.09-4.03.26-.57.08-1.15.12-1.73.12-5.41,0-10.01-3.39-11.34-6.67-.47-1.16-.73-2.84.69-4.22,1.42-1.38,2.47-1.54,3.13-1.54.93,0,1.93.36,2.99.74,1.31.47,2.79,1.01,4.5,1.01h0c.91,0,1.78-.15,2.67-.45,3.44-1.17,7.25-2.51,10.32-3.58,1.93-.68,3.6-1.26,4.61-1.61,5.41-1.84,9.82-4.86,14.93-8.36,5.01-3.43,10.7-7.33,18.74-11.09,1.27-.59,3.39-1.59,2.45-24.26-.51-12.38-1.73-27.15-2.71-39.01-.24-2.95-.47-5.68-.66-8.09-.28-3.54,2.14-6.65,5.63-7.24,4.28-.72,10.85-1.59,17.84-1.59,2.18,0,4.31.08,6.33.25,3.72.31,6.52,3.57,6.25,7.27-.21,2.86-5.04,70.25-.59,78.89.26.51.53,1.02.79,1.52,3.2,6.16,6.22,11.99,5.3,15.54-1.74,6.75-5.29,10.26-10.55,10.45-.24,0-.51.01-.79.01-2.19,0-5.5-.24-9.33-.52-5.48-.4-12.31-.9-18.87-.9-8.1,0-14.14.76-18.48,2.31-3.74,1.34-7.43,1.96-11.63,1.96Z"/>
          <path class="cls-1" d="M80.7,5.07c-7.44.27-13.53.77-12.51,7.15,1.02,6.38,2.3,55.92,3.57,63.57,1.28,7.66-1.28,7.91-6.89,11.23-5.62,3.32-13.78,9.44-18.12,12-4.34,2.55-9.7,3.32-15.57,5.36-5.87,2.04-10.47,4.85-13.27,5.11-2.81.26-9.7-3.57-11.23-.51-1.53,3.06,5.36,5.62,9.95,5.11,4.59-.51,5.87-.77,10.98.51,5.11,1.28,10.98.51,18.63-2.04,7.66-2.55,18.89-4.59,29.86-2.81,10.98,1.79,16.08.26,19.14-4.34s1.53-10.98-1.79-15.83c-3.32-4.85-6.89-14.8-3.83-23.99,3.06-9.19,4.08-44.94,4.08-51.58,0-6.64-5.87-9.19-13.02-8.93Z"/>
          <path class="cls-1" d="M79.68,23.72c-4.41-.1-6.13,2.3-5.11,7.91s1.28,44.92,1.53,49.77c.26,4.85-3.32,7.15-8.17,10.21-4.85,3.06-16.34,10.21-19.14,11.23-2.81,1.02-16.59,3.57-15.57,6.13,1.02,2.55,17.87-3.32,23.23-3.83,5.36-.51,24.5,3.57,29.35-.26,4.85-3.83,5.11-8.17.77-17.1-4.34-8.93-6.13-15.57-2.81-29.86,3.32-14.29,7.15-33.95-4.08-34.2Z"/>
        </g>
        <g>
          <path class="cls-6" d="M85.81,80.38c-3.32-.76-7.4-2.3-10.72-1.02-2.97,1.14-6.14-.78-5.13-3.94.12-.37.29-.76.54-1.17,2.3-3.83,6.64-6.38,5.87-10.97-.76-4.6-3.06-53.69-3.06-53.69,1.96-.71,6.06-1.43,10.61-1.09,1.95.14,3.99.48,5.98,1.09-2.3,15.57-3.57,47.56-2.81,53.43.77,5.87,2.55,7.66,3.32,11.49.76,3.83-1.28,6.64-4.6,5.87Z"/>
          <path class="cls-6" d="M91.42,95.7c-2.3,3.06-8.68,1.02-12.76.25-4.08-.77-6.64-.51-9.96,0-1.01.16-1.95-.19-2.75-.83-1.82-1.45-2.89-4.45-2.36-6.58.77-3.06,3.83-5.62,7.66-6.38.65-.13,1.22-.24,1.73-.34,2.51-.46,3.69-.53,6.44-.43,7.15.25,9.44,3.83,9.44,6.38,0,2.55,4.85,4.85,2.55,7.91Z"/>
          <path class="cls-6" d="M93.72,112.29c-4.08,2.3-16.34-.51-17.36-3.57-.43-1.28.36-2.79,1.6-4.17,1.72-1.91,4.32-3.56,5.8-4,.08-.02.16-.04.23-.06,2.42-.62,4.03.65,6.66,1.08,3.06.51,6.13-.25,8.17,2.81,2.04,3.06-1.02,5.61-5.1,7.91Z"/>
          <path class="cls-6" d="M73.04,109.99c-1.02,2.81-5.1,1.02-8.17.25-1.28-.32-2.03-1.4-2.33-2.75-.42-1.88.01-4.29,1.05-5.92,1.79-2.81,4.84-3.06,8.68-3.06.45,0,.85.02,1.19.07,1.41.2,2.02.89,2.64,2.74.77,2.3-2.04,5.87-3.06,8.68Z"/>
          <path class="cls-6" d="M57.98,103.1c-2.55,2.04-4.34,6.12-5.87,7.4-1.35,1.13-4.29-.53-5.84-2.68-.21-.29-.39-.59-.54-.89-1.28-2.55-3.32-3.57-3.06-5.62.25-2.04,4.59-3.32,7.66-5.87,2.35-1.95,5.89-4.51,7.42-5.6.47-.33.75-.53.75-.53,4.08-1.02,4.34,5.61,4.6,8.68.25,3.06-2.55,3.06-5.1,5.11Z"/>
          <path class="cls-6" d="M42.16,110.76c-1.79,1.53-7.15,1.79-8.93,2.81-1.79,1.02-3.06,3.06-4.85,2.04-1.79-1.02-1.02-2.81-2.3-4.6-.05-.07-.1-.15-.16-.22-1.18-1.67-1.77-2.9.92-4.12,2.81-1.28,6.38-2.04,8.93-3.06,2.55-1.02,3-.02,4.34-.77,2.3-1.28,1.79,2.04,3.32,3.83.07.08.13.16.19.23,1.25,1.62.24,2.39-1.47,3.85Z"/>
          <path class="cls-6" d="M42.67,115.35c-2.81,0-8.68,3.32-7.4-.76,0,0,5.61-2.3,7.91-2.04,2.3.25,2.3,2.81-.51,2.81Z"/>
          <path class="cls-6" d="M24.83,115.75c-1.36.45-2.49-.45-4.2-.68-1.7-.23-3.52.45-4.65.23-1.01-.2-.76-.85-.54-2.03.03-.15.06-.3.08-.46.23-1.47-.79-2.84,0-3.74.79-.91,2.38.11,3.97-.57,2.18-.93,3.29-.91,4.09.57.47.88.7,1.47.84,2.12.09.44.14.91.18,1.51.11,1.48,1.59,2.61.22,3.06Z"/>
          <path class="cls-6" d="M14.39,112.01c0,.43-.01.88-.05,1.31-.1.95-.35,1.82-.97,2.21-.91.57-1.7.57-2.16-.68-.28-.76.12-2.1.6-3.34.31-.81.66-1.57.88-2.1.57-1.36.91-.85,1.25-.91.68-.11.45,2.16.45,3.52Z"/>
          <path class="cls-6" d="M10.88,110.76c-.16.23-.26.49-.33.77-.26.94-.24,2.07-1.03,2.86-1.02,1.02-4.42-1.7-6.01-3.52-.25-.28-.43-.58-.54-.87-.61-1.57.6-3.15,2.13-4.01,1.82-1.02,4.12,1.95,5.79,2.15.91.11.68,1.59,0,2.61Z"/>
          <path class="cls-2" d="M10.54,111.53c-.26.94-.24,2.07-1.03,2.86-1.02,1.02-4.42-1.7-6.01-3.52-.25-.28-.43-.58-.54-.87,1.28.62,2.03.12,3.54.34,1.21.18,1.95,1.14,3.26,1.29.25.03.52-.03.78-.1Z"/>
          <path class="cls-2" d="M14.25,113.3s.06.01.09.02c-.1.95-.35,1.82-.97,2.21-.91.57-1.7.57-2.16-.68-.28-.76.12-2.1.6-3.34,1.03.42,1.14,1.54,2.44,1.8Z"/>
          <path class="cls-2" d="M24.6,112.69c.11,1.48,1.59,2.61.22,3.06-1.36.45-2.49-.45-4.2-.68-1.7-.23-3.52.45-4.65.23-1.01-.2-.76-.85-.54-2.03.69-.15,1.36-.47,1.96-.68,1.26-.46,2.48-1.06,3.77-1.43.85-.25,1.62-.44,2.52-.36.28.03.5.22.72.4.09.44.14.91.18,1.51Z"/>
          <path class="cls-2" d="M42.67,115.35c-2.81,0-8.68,3.32-7.4-.76,0,0,5.61-2.3,7.91-2.04,2.3.25,2.3,2.81-.51,2.81Z"/>
          <path class="cls-2" d="M42.16,110.76c-1.79,1.53-7.15,1.79-8.93,2.81-1.79,1.02-3.06,3.06-4.85,2.04-1.79-1.02-1.02-2.81-2.3-4.6-.05-.07-.1-.15-.16-.22.11-.09.23-.17.37-.19,1.74-.26,3.42.53,5.15.41,2.4-.17,6.33.21,8.43-1.23.9-.62,1.33-1.8,2.24-2.39.54-.35,1.04-.49,1.52-.48,1.25,1.62.24,2.39-1.47,3.85Z"/>
          <path class="cls-2" d="M57.98,103.1c-2.55,2.04-4.34,6.12-5.87,7.4-1.35,1.13-4.29-.53-5.84-2.68.16.07.32.15.49.22,5.01,2.11,4.49-4.48,7.25-6.86,2.57-2.21,5.82-1.68,5.72-5.86-.04-1.79-.44-4.34-1.98-5.47.47-.33.75-.53.75-.53,4.08-1.02,4.34,5.61,4.6,8.68.25,3.06-2.55,3.06-5.1,5.11Z"/>
          <path class="cls-2" d="M76.11,101.32c.77,2.3-2.04,5.87-3.06,8.68-1.02,2.81-5.1,1.02-8.17.25-1.28-.32-2.03-1.4-2.33-2.75.43,0,.97-.09,1.64.03,1.51.26,2.07,1.31,3.4,1.88,3.2,1.37,4.9-2.1,5.1-4.78.14-1.89-.57-5.22.78-6.04,1.41.2,2.02.89,2.64,2.74Z"/>
          <path class="cls-2" d="M69.95,75.43c.49,1.02.93,1.9,2.45,2.16,1.77.3,2.33-.61,3.75-1.16,2.98-1.17,5.73.82,8.3,1.67,3.1,1.02,1.99-3.11,1.54-4.94-.56-2.26-1.27-4.6-1.74-6.97-1.03-5.2-1.1-11.46-.64-16.81.56-6.61,1.4-13.14,2.04-19.61.28-2.87.28-18.45-1.72-21.25,1.95.14,3.99.48,5.98,1.09-2.3,15.57-3.57,47.56-2.81,53.43.77,5.87,2.55,7.66,3.32,11.49.76,3.83-1.28,6.64-4.6,5.87-3.32-.76-7.4-2.3-10.72-1.02-2.97,1.14-6.14-.78-5.13-3.94Z"/>
          <path class="cls-2" d="M65.95,95.13c.96-1.2,2.87-2.29,3.71-2.56,2.8-.91,6.22-.03,9,.83,1.75.54,7.22,3.73,8.5,1.01.6-1.26-.66-2.05-.84-3.18-.15-.92.36-1.98.13-2.97-.57-2.43-3.44-4.35-5.63-5.19-2.54-.99-5.11-1.19-7.84-1.23,2.51-.46,3.69-.53,6.44-.43,7.15.25,9.44,3.83,9.44,6.38s4.85,4.85,2.55,7.91c-2.3,3.06-8.68,1.02-12.76.25-4.08-.77-6.64-.51-9.96,0-1.01.15-1.95-.19-2.75-.83Z"/>
          <path class="cls-2" d="M93.72,112.29c-4.08,2.3-16.34-.51-17.36-3.57-.43-1.28.36-2.79,1.6-4.17-.07.47-.16.96-.23,1.45-.49,3.55,2.22,3.46,4.79,3.91,2.93.51,5.5,1.94,8.54,1.19,2.3-.57,6.74-2.02,6.36-5.03-.43-3.36-6.68-3.83-9.27-4.16-1.45-.19-2.99-.29-4.09-1.35-.02-.02-.05-.05-.07-.07,2.42-.62,4.03.65,6.66,1.08,3.06.51,6.13-.25,8.17,2.81,2.04,3.06-1.02,5.61-5.1,7.91Z"/>
        </g>
        <g>
          <path class="cls-4" d="M77.13,21.76c-2.65,1.55-1.07,9.51-.85,12.08.51,5.79,1.33,11.71,1.66,17.53.12,2.13-.41,7.52,1.19,8.99.78-2,.7-4.6.9-6.8.31-3.45.51-7.01.51-10.49,0-4.21.14-8.38.33-12.56.09-1.97.41-4.05-.08-5.95-.5-1.93-1.35-2.99-3.66-2.81Z"/>
          <path class="cls-4" d="M74.24,83.36c-2.41,0-4.82.24-6.72,1.79-1.55,1.27-2.42,4.67.12,5.49,1.52.49,2.09-.73,3.37-1.37,1.24-.62,2.28-.67,3.57-.3,1.88.54,6.55,2.37,5.8-1.67-.58-3.14-4.35-2.44-6.14-3.94Z"/>
          <path class="cls-4" d="M68.28,100.55c-1.19-.18-2.79.84-3.2,2.04-.18.53-.17,1.66.31,2.01.87.64,1.03-.46,1.79-.31.68.14.66,1.18,1.57.99.72-.15.76-.97.93-1.5.43-1.41.05-2.98-1.57-3.06"/>
          <path class="cls-4" d="M83.25,103.27c-1.57.05-3.07,2.19-1.88,3.4.83.85,3.44.9,4.6,1.03,1.26.15,3.8.41,4.6-.86.98-1.54-.72-2.54-1.88-3.06-1.38-.62-3.8-.88-5.45-.51Z"/>
          <path class="cls-4" d="M52.79,95.96c-1.51,1.8-8.27,3.46-6.17,6.67,1.49,2.28,2.94.07,3.54-1.48.8-2.07,1.62-1.86,3.31-3.19,2.1-1.66.22-4.06-.68-2Z"/>
          <path class="cls-4" d="M35.1,104.97c-1.47-.16-6.32,1.18-6.1,3.03,1.76.69,4.41.63,6.1.07,2.2-.72,2.9-3.06,0-3.1Z"/>
          <path class="cls-4" d="M20.46,109.06c-1.38.02-3.45,1.58-1.45,1.89.93.14,3.31-1.09,1.96-1.89"/>
          <path class="cls-4" d="M13.14,109.57c-.53.43-.64,1.14-.48,1.84.25.18.68.34.97.35.15-.83.12-1.91-.65-2.19"/>
          <path class="cls-4" d="M5.49,107.02c-.76.38-1.07,1.18-1,2.02.99.05,2.02.05,3.01,0,.22-1.01-.72-2.03-1.68-2.02"/>
        </g>
        <g>
          <circle class="cls-3" cx="14.57" cy="102.43" r="11.83"/>
          <circle class="cls-3" cx="14.57" cy="102.43" r="7.05"/>
          <circle class="cls-5" cx="14.58" cy="102.41" r="3.58"/>
        </g>
      </g>
      <g>
        <circle class="cls-3" cx="78.96" cy="59.19" r="8.66"/>
        <circle class="cls-3" cx="78.96" cy="59.19" r="5.17"/>
        <circle class="cls-5" cx="78.96" cy="59.19" r="2.62"/>
      </g>
    </g>
  </g>
</svg>