<?xml version="1.0" encoding="UTF-8"?>
<svg id="_圖層_2" data-name="圖層 2" xmlns="http://www.w3.org/2000/svg" viewBox="0 0 84.47 132.92">
  <defs>
    <style>
      .cls-1 {
        fill: #8bac63;
      }

      .cls-2 {
        fill: #d8e5eb;
      }

      .cls-3 {
        fill: #1e303e;
      }

      .cls-4 {
        fill: #637d44;
      }

      .cls-5 {
        fill: #d09259;
      }

      .cls-6 {
        fill: #c6362d;
        opacity: .5;
      }

      .cls-7 {
        fill: #dfa675;
      }

      .cls-8 {
        fill: #c38365;
      }

      .cls-9 {
        fill: #9e5938;
      }

      .cls-10 {
        fill: #efc1a4;
      }

      .cls-11 {
        fill: #3e86c7;
      }

      .cls-12 {
        fill: #443d32;
      }

      .cls-13 {
        fill: #122f30;
      }
    </style>
  </defs>
  <g id="_圖層_1-2" data-name="圖層 1">
    <g id="Icon6">
      <g>
        <g>
          <path class="cls-7" d="M36.06,92.5c0,.32-.02.8-.07,1.42-.52,6.7-3.69,29.51-4.32,34.08-.07.53-.46.89-.88.83-.2-.03-.58-.24-.68-.53-.52-1.5,1.67-26.66,2.36-34.39.13-1.41.2-2.24.2-2.24,0,0,3.36-3.3,3.39.81Z"/>
          <path class="cls-7" d="M14.76,92.94c-.01.21-.04.48-.09.82-.75,5.77-5.77,29.65-6.76,34.31-.11.52-.52.86-.93.77-.2-.04-.56-.28-.64-.57-.44-1.63,4.02-29.69,4.93-35.37.1-.64.16-1,.16-1,0,0,3.58-3.06,3.33,1.04Z"/>
          <path class="cls-7" d="M81.23,128.4c-.08.3-.44.54-.64.58-.42.09-.83-.24-.94-.76-1.05-4.67-6.42-28.68-7.21-34.3-.04-.3-.07-.55-.09-.75-.31-4.1,3.31-1.08,3.31-1.08,0,0,.12.67.32,1.83,1.24,7.15,5.64,32.91,5.24,34.48Z"/>
        </g>
        <path class="cls-5" d="M14.76,92.94c-.01.21-.04.48-.09.82-1.18-.16-2.32-.46-3.4-.86.1-.64.55-2.47.55-2.47,0,0,3.19-1.6,2.94,2.51Z"/>
        <path class="cls-5" d="M36.06,92.5c0,.32-.02.8-.07,1.42h-3.52c.13-1.41.2-2.24.2-2.24,0,0,3.36-3.3,3.39.81Z"/>
        <path class="cls-5" d="M75.98,93.92h-3.54c-.04-.3-.07-.55-.09-.75-.31-4.1,3.31-1.08,3.31-1.08,0,0,.12.67.32,1.83Z"/>
        <path class="cls-11" d="M84.32,84.53c-.03.29-.05.48-.06.51,0,.05-.02.1-.03.14-.09.43-.18.84-.29,1.24-.04.16-.09.32-.14.47-.05.15-.1.31-.15.46-.24.67-.55,1.29-.96,1.85-.18.25-.38.48-.61.7-.45.44-1,.84-1.67,1.17-.17.08-.34.16-.53.24-.89.37-1.98.77-3.31.95H16.94c-9.36,0-16.94-7.96-16.94-17.77v-34.97c0-4.4,2.8-8.12,6.64-9.3,0,0,0,0,0,0,.21-.06.43-.09.65-.1l40.18-.16c3.05-.01,5.77,2.03,6.73,5.07l6.23,19.56c.06.18.12.36.19.53.02.06.05.12.07.17.02.04.03.08.05.12.02.05.04.1.06.14.27.61.61,1.19.99,1.71.02.03.05.07.07.1.06.08.12.16.18.24.04.04.07.09.11.13.28.34.59.66.92.96.02.02.05.04.07.06.05.05.11.09.16.14.21.18.42.34.64.5.04.03.07.05.11.08.05.03.1.07.15.1.1.07.2.13.3.19.05.03.1.06.15.09.05.03.1.05.14.08.26.15.53.28.81.4.05.02.11.05.16.07.05.02.11.05.16.07.06.02.11.04.17.06.09.03.18.06.27.1.04.01.09.03.13.04.06.02.13.04.19.06.05.01.09.02.14.04.05.02.11.03.16.04.07.02.14.03.21.05.09.02.17.04.26.05.02,0,.04,0,.06.01.07.01.15.03.22.04.03,0,.05,0,.08.01.08.01.16.02.24.03.04,0,.08,0,.12.01.04,0,.09,0,.13.01h0s.1,0,.15.01c.2.02.41.02.61.02h.87s.01,0,.01,0c5.22.3,8.09.08,10.15,1.33,1.12.68,2.01,1.8,2.9,3.68.76,1.59.97,8.43,1.38,13.82.12,1.55.09,3.1-.08,4.64Z"/>
        <path class="cls-2" d="M84.32,84.53c-.03.29-.05.48-.06.51,0,.05-.02.1-.03.14-.09.43-.18.84-.29,1.24-.04.16-.09.32-.14.47-.05.15-.1.31-.15.46-.24.67-.55,1.29-.96,1.85-.18.25-.38.48-.61.7-.45.44-1,.84-1.67,1.17-.17.08-.34.16-.53.24-.89.37-1.98.77-3.31.95h-9.25c5.69-.76,6.94-3.51,7.66-7.07.06-.28.1-.6.15-.98.17-1.43.21-2.87.13-4.3-.27-5.04-.48-11.68-1.51-13.83-1.51-3.17-2.81-4.54-5.45-5.05h0s.1,0,.15.01c.2.02.41.02.61.02h.87s.01,0,.01,0c5.22.3,8.09.08,10.15,1.33,1.12.68,2.01,1.8,2.9,3.68.76,1.59.97,8.43,1.38,13.82.12,1.55.09,3.1-.08,4.64Z"/>
        <path class="cls-2" d="M13.67,61.15c-1.91,0-3.57-.72-4.94-2.13-1.14-1.18-2.08-2.84-2.8-4.95-1.48-4.33-1.55-9.08-1.55-9.99,0-.6-.02-1.26-.05-1.97-.15-3.96-.35-9.39,3.52-12.06l.17.24c-3.74,2.57-3.54,7.91-3.4,11.8.03.71.05,1.38.05,1.98,0,.69.1,16.78,8.99,16.78v.29Z"/>
        <g>
          <g>
            <g>
              <path class="cls-11" d="M76.76,127.51c-.01.58-.12,1.31-.54,1.57-.75.46-7.67.28-12.23-1.19-5.42-1.75-11.15-8-11.47-9.18-.17-.63.3-1.7,1.05-2.64.66-.83,1.54-1.55,2.37-1.77.63-.16,1.13-.65,1.52-1.22.71-1.03,1.03-2.32,1.03-2.32,0,0,4.08-4.96,6.14-3.55,2.06,1.4,2.25,6.57,2.25,6.57-.93,2.82-1.21,4.29,2.62,7.6.6.52,1.18.93,1.74,1.28,2.97,1.83,5.14,1.57,5.5,4.05,0,0,.05.37.04.82Z"/>
              <path class="cls-3" d="M76.76,127.51c-.01.58-.12,1.31-.54,1.57-.75.46-7.67.28-12.23-1.19-5.42-1.75-11.15-8-11.47-9.18-.17-.63.3-1.7,1.05-2.64,0,0,5.57,6.49,10.42,9.29,2.83,1.63,7.27,2.09,12.78,2.15Z"/>
              <path class="cls-10" d="M71.22,122.64c-.26,1.18-.82,1.73-3.59.57-3.44-1.44-7.16-5.65-8.63-7.55-.59-.77-1.13-1.72-1.55-2.58.71-1.03,1.03-2.32,1.03-2.32,0,0,4.08-4.96,6.14-3.55,2.06,1.4,2.25,6.57,2.25,6.57-.93,2.82-1.21,4.29,2.62,7.6.6.52,1.18.93,1.74,1.28Z"/>
            </g>
            <g>
              <path class="cls-11" d="M65.82,131.81c-.53.77-1.68,1.37-4.02,1-4.29-.68-6.37-5.71-7.22-7.23-.85-1.51-2.09-3.53-3.41-5.7-1.33-2.16-2.27-3.31-2.28-5.06,0-.23.04-.46.12-.68.15-.45.44-.89.77-1.29.2-.24.41-.46.63-.67.33-.32.67-.58.94-.78.26-.19.46-.31.55-.35.39-.16.61-.31.61-.31,0,0,.84.19,1.93.46.82.2,1.78.46,2.63.71,1.98.6,3.18,1.93,3.18,1.93,0,.3.18,1,.49,1.96.97,2.99,3.17,8.44,4.46,11.66.36.91.65,1.65.82,2.09.08.21.13.36.15.43.11.42.1,1.18-.34,1.82Z"/>
              <path class="cls-3" d="M65.82,131.81c-.53.77-1.68,1.37-4.02,1-4.29-.68-6.37-5.71-7.22-7.23-.85-1.51-2.09-3.53-3.41-5.7-1.33-2.16-2.27-3.31-2.28-5.06,0-.23.04-.46.12-.68.15-.45.44-.89.77-1.29.2-.24.41-.46.63-.67-.55,2.03,6.64,15.26,9.91,18.22,5.18,2.51,5.84-.42,5.84-.42.11.42.1,1.18-.34,1.82Z"/>
            </g>
            <path class="cls-10" d="M48.04,68.37c1.8,2.66,3.05,2.76,8.5,2.92,5.45.16,17.38,1.68,19.56,6.65,2.19,4.97-2.04,13.13-4.78,18.02-2.74,4.88-10.31,17.18-10.31,17.18,0,0-3.19,1.64-6.21-3.83,0,0,1.08-1.46,1.89-3.82,1.96-5.74,4.94-15.92,5.98-16.96,0,0-21.4,2.96-28.1.7-6.7-2.26-7.02-7.5-7.31-9.43-.29-1.93,1.39-12.47,1.39-12.47,0,0,7.44-.53,11.45-.42,4.01.12,7.93,1.46,7.93,1.46Z"/>
            <path class="cls-13" d="M71.39,95.99l-.11-.06c1.94-3.47,7.1-12.67,4.77-17.96-1.42-3.22-6.82-4.1-12.04-4.95-2.82-.46-5.48-.89-7.49-1.67l.05-.12c2,.77,4.65,1.21,7.46,1.66,5.26.86,10.7,1.74,12.14,5.02.96,2.19.78,5.25-.54,9.09-1.12,3.26-2.85,6.51-4.24,8.98Z"/>
            <path class="cls-10" d="M54.8,68.63c6.02,1.6,12.76,1.3,19.21,3.21,7.52,2.22,12.13,5.68,7.63,12.23-3.37,4.91-19.06-1.26-23.75-1.21-7.18.08-20.08-8.99-13.07-12.65,7.02-3.66,9.97-1.58,9.97-1.58Z"/>
            <path class="cls-10" d="M58.47,110.75c3.14,5.41,8.39,3.02,8.39,3.02,0,0,.17-.38.51-1.08,1.18-2.42,4.41-8.73,9.98-17.21,2.76-4.2,6.96-11.53,6.27-16.86-.14-1.04-.67-2-1.49-2.67-1.46-1.18-4.3-2.73-7.34-.31-3.2,2.55-8.9,14.17-8.9,14.17-1.28,1.33-6.19,16.95-7.23,20.3-.13.4-.2.63-.2.63Z"/>
            <path class="cls-10" d="M83.63,78.62c-.14-1.04-1.08-4.84-9.61-6.79-6.57-1.5-13.2-1.6-19.21-3.21,0,0-2.95-2.08-9.97,1.58-7.02,3.66,5.89,12.72,13.07,12.65,2.06-.02,6.23,1.16,10.56,2.07-1.48,2.7-2.56,4.9-2.56,4.9-1.28,1.33-6.19,16.95-7.23,20.3-.13.4-.2.63-.2.63,3.14,5.41,8.39,3.02,8.39,3.02,0,0,.17-.38.51-1.08,1.18-2.42,4.41-8.73,9.98-17.21,2.76-4.2,6.96-11.53,6.27-16.86Z"/>
            <path class="cls-10" d="M77.53,95.59l-.33-.21c3.21-4.87,6.89-11.73,6.24-16.73,0-.06-.01-.13-.02-.21-.12-1.22-.4-4.07-8.31-5.87l.09-.37c8.18,1.87,8.48,4.91,8.61,6.21,0,.07.01.14.02.2.66,5.11-3.06,12.06-6.3,16.99Z"/>
            <path class="cls-8" d="M61.2,113.23l-.33-.2c.08-.12,7.6-12.35,10.3-17.17,1.93-3.45,7.07-12.62,4.77-17.85-2.1-4.77-13.6-6.36-19.39-6.54v-.38c1.38.04,6.22.27,11.06,1.53,4.78,1.24,7.7,3,8.69,5.24,2.11,4.79-1.45,12.23-4.78,18.19-2.71,4.83-10.24,17.06-10.31,17.19Z"/>
          </g>
          <path class="cls-10" d="M54.81,109.3c-.72.72-2.31,1.45-2.31,1.45,0,0,5.86,12.55,7.82,14.03,1.96,1.48,3.59,1.01,3.65-.36.07-1.37-3.08-6.33-3.24-8.61s.44-2.91.44-2.91c0,0,1.21-2.63-.65-3.82-1.86-1.18-5.71.22-5.71.22Z"/>
          <path class="cls-12" d="M34.81,28.06c1.44-2.08,3.15-1.75,3.2-2.97.05-1.22-3.53-2.11-2.48-4.78,1.05-2.67,4.39-4.31,4.2-5.39-.19-1.08-1.89-3.7,0-6.14,1.9-2.44,3.48-2.91,4.96-3.38,1.48-.47,2.91-1.31,4.15-3.18,1.24-1.87,4.44-2.44,6.06-2.16,1.62.28,2.91,1.78,2.91,1.78,0,0,3.94-.34,5.82,1.73,2.34,2.58,1.81,4.73,2.77,5.72.95.98,3.25,2.2,3.34,5.48.1,3.28-2.72,5.16-1.48,7.03,1.24,1.87,3.39,4.12,1.86,6.98-1.53,2.86-4.96,1.35-4.77,2.48.19,1.13.1,3.94-3.79,3.43-3.89-.52-26.76-6.64-26.76-6.64Z"/>
          <path class="cls-10" d="M56.23,50.09c3.84,4.45,12.04,9.12,14.44,8.92,2.4-.2,4.38-4.66-1.45-8.92-5.84-4.27-10.19-12.04-14.73-11.02-4.54,1.02-.49,8.42,1.75,11.02Z"/>
          <path class="cls-10" d="M12.36,37.93c-.14.77.19,1.55.81,2.03,3.21,2.5,11.24,2.48,16.51,1.26,5.77-1.33,9.91-5.87,6.28-8.72-3.63-2.85-14.49.9-18.43,1.68-3.92.78-4.95,2.54-5.17,3.75Z"/>
          <path class="cls-1" d="M75.18,72.13c-2.29-.03-4.18.35-5.74,1.02-.18.08-.35.16-.52.24-5.42,2.66-6.71,8.91-7.36,12.57-.86,4.79-4.37,8.01-4.37,8.01,0,0-4.83-4.34-14.37-3.84-9.55.5-13.84-1.63-15.57-4.16-1.74-2.54-1.78-7.23,1.42-18.64,3.2-11.41.74-22.97.74-22.97,4.37-6.26,2.74-16.3,2.74-16.3,1.8-.25,7.95.61,10.64-.15l12.42,2.59,2.57.75c2.57.75,2.66,1.95,2.66,1.95,0,0-3.34,12.49-4.72,16.16-1.2,3.2-3.34,4.46-3.34,4.46,0,0-.94,2.27-1.78,4.88-.83,2.61.66,5.56,5.38,8.37,2.53,1.51,7.88,2.35,12.29,3.26,4.34.89,6.91,1.79,6.91,1.79Z"/>
          <path class="cls-4" d="M69.44,73.15c-.18.08-.35.16-.52.24-4.16-1.28-9.16-1.82-12.38-1.91v-.38c1.38.04,6.22.27,11.06,1.53.65.17,1.26.34,1.84.53Z"/>
          <path class="cls-1" d="M60.44,33.19c2.93,3.54,5.28,8.98,6.19,16.17,0,0-1.52-.27-3.1,2.5-1.58,2.77-4.57,2.06-6.46,3-1.9.94-2.22,1.56-2.22,1.56,0,0-.08-3.11-.75-4.21-.67-1.1-.61-3.81.26-7.7.87-3.89,6.08-11.32,6.08-11.32Z"/>
          <path class="cls-1" d="M32.15,28.06c-1.89-.67-4.37,1.14-7.2,2.42-2.83,1.28-5.57,2.12-5.57,2.12,0,0,1.2,1.58.43,4.37-.77,2.79-1.8,4.03-.43,5.39,1.37,1.36.34,2.83.26,4.49-.09,1.66.66,2.34.66,2.34,0,0,2.08-3.05,4.74-4.01,2.66-.96,2.92-.44,4.37-.83,1.46-.39,2.49-1.91,3.86-6.45,1.37-4.54-1.11-9.84-1.11-9.84Z"/>
          <g>
            <path class="cls-4" d="M25.19,35.94l-.16-.35c1.33-.57,2.13-2.05,2.91-3.49.73-1.35,1.41-2.62,2.5-3.04l.15.36c-.95.37-1.61,1.59-2.3,2.87-.81,1.49-1.64,3.04-3.1,3.66Z"/>
            <path class="cls-4" d="M25.13,39.96l-.04-.38c2.26-.21,3.29-4.09,4.04-6.93.06-.21.11-.41.16-.6l.38.1c-.05.19-.11.4-.16.6-.78,2.94-1.85,6.98-4.38,7.21Z"/>
            <path class="cls-4" d="M35.24,56.62l-.02-.38c.05,0,5.34-.28,7.43-3.04l.31.23c-2.21,2.9-7.5,3.18-7.73,3.19Z"/>
            <path class="cls-4" d="M49.01,55.43l-.12-.36c2.15-.7,3.38-1.41,3.39-1.41l.2.33c-.05.03-1.27.73-3.47,1.45Z"/>
            <path class="cls-4" d="M39.86,67.68l-.34-.2s.76-1.22,3.25-1.74c2.39-.5,5.42-2.39,6.42-5.34l.37.12c-1.05,3.1-4.22,5.07-6.71,5.59-2.3.48-2.99,1.55-2.99,1.56Z"/>
            <path class="cls-4" d="M45.52,67.25l-.16-.35s3.58-1.63,3.83-4.68l.39.03c-.26,3.27-3.9,4.93-4.06,5Z"/>
            <path class="cls-4" d="M36.31,79.49l-.35-.16c2.34-4.95,8.01-6.6,8.61-6.51l-.06.38c-.55-.08-5.99,1.63-8.2,6.29Z"/>
            <path class="cls-4" d="M38.83,83.29c-.33-4.07,3.66-8.85,3.83-9.05l.3.25s-4.06,4.86-3.74,8.77l-.39.03Z"/>
            <path class="cls-4" d="M52.48,53.98l-.2-.33s2.1-1.27,3.26-4.36c1.36-3.62,4.68-16.02,4.71-16.14l.38.1c-.03.12-3.36,12.54-4.72,16.18-1.21,3.23-3.34,4.51-3.43,4.56Z"/>
          </g>
          <path class="cls-10" d="M62.86,88.6l-.35-.16c.02-.05,2.43-5.05,4.82-7.77l.3.25c-2.36,2.68-4.74,7.63-4.76,7.68Z"/>
          <g>
            <path class="cls-10" d="M45.6,26.59c-.76.98-2.82,1.32-2.82,1.32,0,0-.95,1.77,1.41,5.61,2.36,3.84,3.89,6.21,4.89,6.24,1,.04,2.63-2.21,4.96-6.81,2.34-4.59,3.05-6.37,3.05-6.37,0,0-3.69-3.42-6.5-3.8-2.81-.37-5,3.8-5,3.8Z"/>
            <path class="cls-10" d="M63.93,20.57c-.43.77-.62,2.04-2.62,3.77-2.01,1.73-2.39.19-2.39.19-1.24,1.69-4.2,4.36-6.06,5.2-1.86.85-4.39,1.27-5.73,0-1.34-1.27-2.1-4.59-2.48-7.45-.02-.14-.03-.28-.05-.42-.07-.62-.11-1.31-.12-2.06-.04-2.69.34-6.05,1.41-9.19,0,0,.57-1.31,1.43-2.53.86-1.22,2.82-2.58,6.92-2.67,4.26-.1,8.16,3.66,8.16,8.34s-1.34,6.18-1.43,6.28c1.86-1.59,3.38-.23,2.95.54Z"/>
            <path class="cls-8" d="M49.5,30.72c-.96,0-1.85-.24-2.5-.85-.63-.6-1.19-1.68-1.65-3.21l.38-.11c.44,1.47.96,2.49,1.55,3.04,1.3,1.23,3.78.75,5.51-.04l.16.35c-1.01.46-2.28.81-3.45.81Z"/>
            <path class="cls-12" d="M42.98,16.14c.43-3.28,2.72-5.15,3.82-4.97s1.34-.09,1.72-1.31c.38-1.22,1.7-1.36,2.09-.61.39.75,3.01.95,3.64-.46,0,0,.43,1.73,2.34,1.3,1.91-.42,3.27,1.1,3.56,2.42.25,1.14-.9,2.47.49,3.52,1.39,1.05-1.03,3.95-.49,4.89.55.94,2.08-.24,2.58.38,1.12,1.38,1.28,2.1,1.28,2.1,0,0,2.36-3,.98-10.03-1.38-7.03-5.68-9.56-9.83-9.75-4.15-.19-7.88.94-9.93,3.75s-2.24,8.76-2.24,8.76Z"/>
            <path class="cls-12" d="M50.22,24.22c-.94,0-1.58-.58-1.77-.86-.19-.28.01-.47.18-.62.24-.22.65-.58,1.04-1.56.67-1.68.74-3.78.74-3.8h.39c0,.1-.07,2.2-.77,3.94-.42,1.06-.89,1.48-1.14,1.7-.04.04-.1.09-.12.12,0,0,0,0,0,0,.18.27.96.95,2.07.6l.12.37c-.26.08-.51.12-.74.12Z"/>
            <g>
              <path class="cls-9" d="M54.37,8.6h-.26c0-.12.17-2.67,2.11-3.91l.14.21c-1.83,1.17-1.99,3.67-1.99,3.7Z"/>
              <path class="cls-9" d="M39.74,26.63l-.2-.16c1.13-1.33.72-2.97.01-3.6-.62-.55-1.46-1.74-.01-3.53l.2.16c-1.24,1.54-.69,2.57-.01,3.18.79.69,1.24,2.5.01,3.95Z"/>
              <path class="cls-9" d="M41.15,27.16l-.16-.2c1.05-.77.35-2.46.34-2.47l.24-.1c.03.08.79,1.88-.42,2.78Z"/>
              <path class="cls-9" d="M65.68,28.34c-.51-.5-.8-1.23-.77-1.91.03-.6.31-1.13.8-1.52.5-.4.64-1.45.32-2.45-.39-1.23-1.32-2.01-2.48-2.09l.02-.26c1.27.09,2.28.94,2.71,2.27.36,1.11.19,2.26-.4,2.73-.43.34-.67.8-.7,1.33-.03.61.23,1.27.69,1.72l-.18.18Z"/>
              <path class="cls-9" d="M61.89,31.75c-.59-.52-.85-1.08-.78-1.66.17-1.32,2.02-2.25,2.1-2.29l.12.23s-1.81.92-1.96,2.1c-.06.49.17.97.69,1.43l-.17.19Z"/>
            </g>
            <path class="cls-12" d="M55.09,19.99c-.09.44-.44.75-.78.68-.34-.07-.53-.48-.44-.93.09-.44.44-.75.78-.68.34.07.53.48.44.93Z"/>
            <path class="cls-12" d="M56.01,20.16s-.05-.04-.09-.06c-.21-.15-.65-.45-1.34-.72l.14-.36c.74.29,1.2.61,1.42.77.03.02.06.04.08.06l-.22.32Z"/>
            <path class="cls-12" d="M46.79,17.89c-.06.45.17.85.51.89.34.04.66-.29.72-.74.06-.45-.17-.85-.51-.89-.34-.04-.66.29-.72.74Z"/>
            <path class="cls-12" d="M45.9,17.76l-.1-.37s.06-.02.1-.03c.26-.08.81-.23,1.6-.27l.02.38c-.75.03-1.26.18-1.51.25-.04.01-.08.02-.11.03Z"/>
            <path class="cls-12" d="M53.73,16.23c-.37.02-.57.4-.44.7.23.53.8.59,1.65.45,1.04-.17,1.48.06,2.16.59.68.53,1.12.63.89.13-.23-.49-1.23-1.54-1.63-1.63-.52-.12-1.89-.29-2.63-.24Z"/>
            <path class="cls-12" d="M49.66,15.28c.29.2.26.59.01.77-.45.31-.93.09-1.55-.41-.75-.62-1.22-.65-2.03-.55-.81.1-1.21-.02-.78-.31.43-.29,1.74-.66,2.11-.55.48.15,1.66.66,2.23,1.05Z"/>
            <path class="cls-10" d="M49.75,37.51l-.38-.09c.22-.93.85-2.18,1.66-3.25l.31.23c-.78,1.03-1.39,2.22-1.59,3.1Z"/>
            <path class="cls-10" d="M48.76,36.62l-.39-.03s.1-1.18-.3-2.22l.37-.14c.43,1.12.33,2.34.33,2.39Z"/>
          </g>
          <path class="cls-10" d="M12.76,35.77c-.8.96-.97,2.31-.38,3.4.83,1.53,2.84,2.11,6.48.72,5.15-1.97,15.58-12.34,17.59-13.98,2.01-1.64,1.81-5.84-3.01-3.28-4.81,2.56-11.37,5.45-15.38,8.27-2.54,1.79-4.33,3.71-5.31,4.88Z"/>
          <path class="cls-10" d="M73.36,55.8c.05,1.24-.63,2.42-1.77,2.94-1.6.74-3.56.03-5.63-3.24-2.92-4.6-4.77-18.56-5.76-21.55-.81-2.44,2.45-5.42,4.52-.44,2.11,5.08,4.03,9.48,6.52,14.68,1.33,2.78,2.05,6.09,2.12,7.6Z"/>
          <path class="cls-10" d="M32.74,23.7c.2-.55.62-1,1.14-1.29,1.52-.86,2.33-2.78,3.25-4.4,1-1.76,1.92-3.02,4.31-4.31,2.39-1.29,6.22-3.49,7.22-3.13,1,.35-.64,1.92-1.96,2.78-1.32.86-4.63,2.59-5.03,3.68-.4,1.1-.2,1.92-.08,1.92s2.19-3.17,3.27-2.98-.92,2.43-1.4,3.13c-.48.71-1.93,2.9-2.26,3.76-.33.86-3.89,2.23-5.14,3.37-1.26,1.14-3.05.47-3.41-.98-.15-.61-.07-1.14.08-1.56Z"/>
          <path class="cls-8" d="M41.83,17.09l-.32-.11c.33-.9,2.33-2.1,3.94-3.06.46-.27.85-.51,1.15-.7,1.24-.81,2.24-1.86,2.19-2.3,0-.06-.04-.13-.19-.19l.11-.31c.31.11.4.31.41.46.09.74-1.35,1.97-2.33,2.61-.3.2-.7.44-1.16.71-1.4.84-3.51,2.1-3.8,2.89Z"/>
          <path class="cls-8" d="M42.63,15.22l-.16-.29c3.02-1.65,3.85-2.74,3.87-3.1,0-.07-.02-.09-.05-.11l.19-.27c.13.09.2.23.19.4-.04.74-1.58,2.03-4.04,3.37Z"/>
          <path class="cls-8" d="M39.19,21.83c-.08-.8.6-3.36,1.44-4.57l.28.19c-.79,1.14-1.46,3.62-1.38,4.36l-.33.03Z"/>
          <path class="cls-13" d="M51.13,26.98s-1.18-.73-1.87-.98c-.65-.23-1.75.19-1.76.2l-.12-.31s1.22-.47,2-.2c.73.26,1.89.98,1.94,1.01l-.18.28Z"/>
          <g>
            <path class="cls-6" d="M67.01,17.09c0,4.6-3.8,8.33-8.48,8.33s-8.48-3.73-8.48-8.33,3.8-8.33,8.48-8.33,8.48,3.73,8.48,8.33Z"/>
            <path class="cls-6" d="M64.4,17.09c0,3.18-2.62,5.76-5.86,5.76s-5.86-2.58-5.86-5.76,2.62-5.76,5.86-5.76,5.86,2.58,5.86,5.76Z"/>
            <path class="cls-6" d="M61.36,17.09c0,1.53-1.27,2.78-2.83,2.78s-2.83-1.24-2.83-2.78,1.27-2.78,2.83-2.78,2.83,1.24,2.83,2.78Z"/>
          </g>
          <path class="cls-10" d="M64.89,34.35c-.69-3.16-1.01-5.96-.6-8.08s-2.53-8.53-3.54-10.48c-1.01-1.94-2.35-1.9-2.21-.41.14,1.49,2.39,6.82,2.62,8.35.23,1.54-1.75,4.7-1.79,6.32-.05,1.63.78,3.79,1.52,5.91s2.3,2.3,3.4,1.85c1.1-.45.6-3.48.6-3.48Z"/>
        </g>
        <path class="cls-2" d="M30.77,92.22h9.25c-5.74-.75-6.99-3.38-7.71-6.96-.72-3.57-.5-15.9-1.97-18.99-2.79-5.86-5.7-4.34-15.85-5.19,3.28.37,4.92,1.68,6.6,5.19,1.47,3.09,1.26,15.42,1.97,18.99.72,3.57,1.97,6.21,7.71,6.96h0Z"/>
      </g>
    </g>
  </g>
</svg>