<?xml version="1.0" encoding="UTF-8"?>
<svg id="_圖層_2" data-name="圖層 2" xmlns="http://www.w3.org/2000/svg" viewBox="0 0 112.7 123.97">
  <defs>
    <style>
      .cls-1 {
        fill: #f4bc9d;
      }

      .cls-2 {
        fill: #f5c7bc;
      }

      .cls-3 {
        fill: #ce7464;
      }

      .cls-4 {
        fill: #ef907e;
      }

      .cls-5 {
        fill: #f3b7ad;
      }

      .cls-6 {
        fill: #f09c6c;
      }

      .cls-7 {
        fill: #e99583;
      }

      .cls-8 {
        fill: #dfe0a7;
      }
    </style>
  </defs>
  <g id="_圖層_1-2" data-name="圖層 1">
    <g>
      <g id="R20Cvf">
        <path id="SVGID" class="cls-2" d="M15.74,7.35s36.97,24.26,81.56,6.73c0,0,13.72,60.78-1.19,69.06-14.91,8.29-41.84,1.6-41.84,1.6l-7.78,2.45s-13.44,12.99-23.81-1.54C12.31,71.13,15.74,7.35,15.74,7.35Z"/>
        <path class="cls-7" d="M48.55,112.26s1.54,12.21,6.43,11.7,5.01-11.19,5.01-11.7-11.44,0-11.44,0Z"/>
        <circle class="cls-7" cx="54.27" cy="104.81" r="9.51"/>
        <ellipse class="cls-7" cx="68.67" cy="88.47" rx="9.51" ry="7.52" transform="translate(-31.79 137.97) rotate(-78.42)"/>
        <ellipse class="cls-7" cx="81.92" cy="88.47" rx="9.39" ry="9.51" transform="translate(-8.85 9.11) rotate(-6.04)"/>
        <path class="cls-7" d="M86.33,89.84c-1.9-4.9-.52-10,3.08-11.4s10.95,1.8,12.85,6.69c1.9,4.9-.62,10.17-5.97,11.05-3.81.63-8.06-1.44-9.96-6.34Z"/>
        <path id="SVGID-2" data-name="SVGID" class="cls-7" d="M111.28,67.68c2.27-4.04,1.07-8.43-2.17-10.98,1.37-1.5,2.18-3.38,2.18-5.42,0-2.64-1.37-5.02-3.54-6.65,1.68-1.67,2.66-3.85,2.56-6.2-.1-2.19-1.12-4.16-2.74-5.64,1.47-1.33,2.45-3.07,2.68-5.05.57-4.91-3.69-9.44-9.52-10.11-5.82-.67-11.01,2.76-11.57,7.67-.32,2.77.9,5.43,3.07,7.33-2.03,1.73-3.25,4.12-3.13,6.72.11,2.51,1.44,4.73,3.49,6.26-1.5,1.54-2.41,3.51-2.41,5.66,0,2.73,1.45,5.16,3.74,6.79-1.23,1.03-2.13,2.19-2.49,3.35-.96,3.05.76,6.46,4.03,8.69-.91.41-1.66.93-2.18,1.55-2.47,2.97-1.2,8.1,2.84,11.46,4.04,3.36,8.76,3.1,11.79.71,4.25-3.36,3.89-9.19-.15-12.55-.03-.02-.05-.04-.08-.07,1.54-.85,2.77-2.08,3.6-3.54Z"/>
        <path id="SVGID-3" data-name="SVGID" class="cls-7" d="M23.1,79.61c.81-.96,1.38-2.08,1.64-3.35.5-2.43-.27-4.86-1.89-6.81,1.96-1.84,3.07-4.32,2.81-6.93-.21-2.2-1.36-4.12-3.08-5.52,1.58-1.78,2.48-4,2.35-6.37-.14-2.66-1.54-5-3.69-6.64.98-1.04,1.67-2.16,1.95-3.24.69-2.69-.47-5.52-2.81-7.71.41-.33.77-.68,1.05-1.06,2.66-3.57.88-9.4-3.98-13.02-4.86-3.62-10.27-3.03-13.61-.08C-.31,22.56-.16,28.26,3.35,32.02c-.96.86-1.75,1.89-2.31,3.03-2.12,4.3-.85,8.76,2.4,11.44-1.08,1.58-1.66,3.43-1.56,5.37.16,2.91,1.81,5.43,4.31,7.08-1.22,1.64-1.86,3.59-1.66,5.64.15,1.57.78,3,1.75,4.2-.81.96-1.39,2.09-1.65,3.35-.47,2.3.19,4.61,1.64,6.5-2.07,1.45-3.56,3.52-4.07,6-1.19,5.81,3.43,11.66,10.32,13.07,6.89,1.41,13.44-2.15,14.63-7.96.77-3.77-.91-7.56-4.06-10.14Z"/>
        <path class="cls-7" d="M42.13,88.46c0-8,5.68-14.49,12.68-14.49s12.68,6.49,12.68,14.49-5.68,12.74-12.68,12.74-12.68-4.74-12.68-12.74Z"/>
        <path class="cls-5" d="M37.5,43.7c-.29,0-.58,0-.88-.02-.21-.01-.38-.19-.37-.41.01-.21.19-.38.41-.37,3.16.16,5.57-.57,7.17-2.17,2.28-2.27,2.14-5.56,2.14-5.59-.01-.21.15-.39.37-.4.21-.01.39.15.4.37,0,.15.15,3.66-2.37,6.18-1.61,1.61-3.92,2.42-6.87,2.42Z"/>
        <path class="cls-5" d="M45.57,49.34c-.06,0-.12-.01-.18-.05-.19-.1-.26-.33-.16-.52,1.88-3.53-1.56-7.29-1.59-7.33-.15-.16-.14-.4.02-.55s.4-.14.54.02c.04.04.97,1.05,1.66,2.56.93,2.03.94,3.99.05,5.66-.07.13-.2.2-.34.2Z"/>
        <path class="cls-5" d="M69.62,65.98c-.29,0-.58,0-.88-.02-.21-.01-.38-.19-.37-.41.01-.21.19-.38.41-.37,3.15.16,5.57-.57,7.17-2.17,2.28-2.27,2.14-5.56,2.14-5.59-.01-.21.15-.39.37-.4.21-.01.39.15.4.37,0,.15.15,3.66-2.37,6.18-1.61,1.61-3.92,2.42-6.87,2.42Z"/>
        <path class="cls-5" d="M77.7,71.62c-.06,0-.12-.01-.18-.05-.19-.1-.26-.33-.16-.52,1.89-3.54-1.56-7.29-1.59-7.33-.15-.16-.14-.4.02-.55.16-.15.4-.14.55.02.04.04.97,1.05,1.66,2.56.93,2.03.94,3.99.05,5.66-.07.13-.2.2-.34.2Z"/>
        <path class="cls-5" d="M45.43,55.61c-.25,0-.52,0-.79-.03-2.24-.17-3.96-.96-5.13-2.35-1.87-2.22-1.61-5.14-1.6-5.27.02-.21.21-.37.42-.35.21.02.37.21.35.42,0,.03-.23,2.73,1.42,4.7,1.03,1.22,2.57,1.92,4.59,2.07,3.57.28,5.43-1.51,6.23-2.6,1.08-1.49,1.45-3.38.9-4.71-.08-.2.01-.42.21-.5.2-.08.42.01.5.21.64,1.57.24,3.76-.99,5.46-.83,1.13-2.68,2.95-6.12,2.95Z"/>
        <path class="cls-5" d="M41.5,64.75s-.02,0-.03,0c-.21-.02-.37-.2-.35-.41.3-3.8,1.6-6.16,2.64-7.47,1.14-1.44,2.23-1.97,2.27-1.99.19-.09.42,0,.51.18.09.19.01.42-.18.51h0s-.99.49-2.03,1.81c-.96,1.22-2.16,3.43-2.44,7.01-.02.2-.18.36-.38.36Z"/>
        <path class="cls-5" d="M54.16,68.47c-.21,0-.38-.17-.39-.38-.03-2.44-1.1-4.36-3.19-5.72-1.59-1.03-3.2-1.33-3.22-1.34-.21-.04-.35-.24-.31-.45.04-.21.24-.35.45-.31.07.01,1.76.33,3.48,1.43,2.3,1.48,3.54,3.69,3.57,6.37,0,.21-.17.39-.38.39h0Z"/>
        <path class="cls-5" d="M42.05,72.03c-1.09,0-2.28-.24-3.58-.71-2.13-.78-4.88-2.31-5.87-5.17-.6-1.73-.26-3.12-.25-3.18.05-.21.26-.33.47-.28.21.05.33.26.28.47,0,.02-.3,1.26.24,2.78.73,2.05,2.54,3.62,5.39,4.66,2.31.85,4.25.88,5.77.11,1.95-.99,2.54-3.02,2.55-3.04.06-.2.27-.32.48-.27.2.06.32.27.27.47-.03.1-.68,2.36-2.93,3.52-.84.43-1.78.65-2.82.65Z"/>
        <path class="cls-5" d="M65.08,71.75c-1.33,0-2.52-.36-3.48-1.07-1.51-1.12-2.31-3.06-2.25-5.45.07-2.68,1.27-4.11,2.26-4.84,1.08-.79,2.14-.94,2.19-.95.21-.03.41.12.43.33.03.21-.12.4-.33.43-.16.02-3.66.57-3.78,5.04-.06,2.13.63,3.84,1.94,4.81,1.4,1.04,3.41,1.2,5.65.46.2-.07.42.04.49.25.07.2-.04.42-.25.49-1.01.33-1.98.5-2.88.5Z"/>
        <path class="cls-5" d="M68.69,39.57s-.06,0-.1-.01c-.21-.05-.33-.26-.28-.47.04-.15.86-3.61-3.24-5.4-1.95-.85-3.79-.86-5.18-.02-1.49.9-2.4,2.7-2.56,5.07-.01.21-.2.37-.41.36-.21-.01-.37-.2-.36-.41.18-2.62,1.22-4.63,2.93-5.67,1.61-.98,3.7-.99,5.89-.03,2.45,1.07,3.33,2.72,3.63,3.92.33,1.3.07,2.34.05,2.38-.04.17-.2.29-.37.29Z"/>
        <path class="cls-5" d="M56.49,54.4c-.07,0-.14-.02-.2-.05-.18-.11-.24-.35-.13-.53.04-.06.97-1.6,3.05-3.22,1.91-1.49,5.2-3.34,10.01-3.67.21-.01.4.15.41.36.01.21-.15.4-.36.41-4.6.32-7.74,2.07-9.56,3.48-1.98,1.54-2.88,3.02-2.89,3.03-.07.12-.2.19-.33.19Z"/>
        <path class="cls-5" d="M61.15,50.13c-.14,0-.27-.07-.34-.2-1.8-3.27-1.22-6.18-.41-8.04.87-2,2.15-3.22,2.21-3.27.16-.15.4-.14.55.02.15.16.14.4-.02.54h0s-1.23,1.18-2.04,3.04c-1.06,2.46-.93,4.93.39,7.33.1.19.03.42-.15.52-.06.03-.12.05-.19.05Z"/>
        <path class="cls-5" d="M70.41,55.02c-.15,0-.29-.08-.35-.22-1.43-3.09-1.67-5.79-.72-8,1.24-2.88,4.04-3.85,4.16-3.89.2-.07.42.04.49.24.07.2-.04.42-.24.49-.04.01-2.61.92-3.7,3.47-.86,2-.62,4.47.72,7.36.09.19,0,.42-.19.51-.05.02-.11.04-.16.04Z"/>
        <path class="cls-5" d="M78.14,50.65c-.59,0-.99-.06-1.03-.07-.21-.04-.35-.24-.32-.45.04-.21.23-.35.44-.32h0s2.86.46,4.71-1.27c1.33-1.24,1.86-3.3,1.58-6.12-.02-.21.13-.4.35-.42.21-.02.4.13.42.35.3,3.08-.31,5.36-1.82,6.77-1.4,1.3-3.21,1.53-4.32,1.53Z"/>
        <path class="cls-5" d="M40.04,38.12c-.14,0-.27-.07-.34-.2,0-.02-.84-1.55-2.64-2.9-2.41-1.81-5.32-2.46-8.66-1.93-.21.03-.41-.11-.44-.32-.03-.21.11-.41.32-.44,4.45-.7,7.5.76,9.28,2.1,1.93,1.46,2.8,3.07,2.83,3.14.1.19.03.42-.16.52-.06.03-.12.04-.18.04Z"/>
        <path class="cls-5" d="M35.69,34.09s-.09,0-.14-.02c-.2-.08-.3-.3-.22-.5,1.27-3.37,4.72-3.04,4.75-3.03.21.02.36.21.34.42-.02.21-.21.36-.42.34-.12-.01-2.89-.26-3.95,2.54-.06.15-.21.25-.36.25Z"/>
        <path class="cls-5" d="M31.84,48.02s0,0-.01,0c-.06,0-1.42-.06-2.79-.75-1.3-.65-2.84-2-2.82-4.73.02-2.7,1.28-4.13,2.34-4.85,1.14-.78,2.27-.93,2.32-.93.21-.02.4.13.43.34.03.21-.13.4-.34.43h0c-.16.02-3.95.54-3.98,5.02-.01,1.87.79,3.23,2.39,4.03,1.22.62,2.46.67,2.47.67.21,0,.38.19.37.4,0,.21-.18.37-.39.37Z"/>
        <path class="cls-5" d="M29.22,60.14c-.05,0-.11-.01-.16-.04-.19-.09-.28-.32-.19-.51.02-.04.5-1.04,1.63-1.96,1.05-.84,2.87-1.76,5.64-1.39.21.03.36.22.33.43-.03.21-.22.36-.43.33-4.75-.64-6.45,2.87-6.47,2.91-.07.14-.2.22-.35.22Z"/>
        <path class="cls-5" d="M32.66,56.93c-.16,0-.31-.1-.36-.25-1.06-2.9-3.42-3.34-3.52-3.35-.21-.04-.35-.23-.32-.44.03-.21.23-.35.44-.32.12.02,2.9.51,4.12,3.85.07.2-.03.42-.23.49-.04.02-.09.02-.13.02Z"/>
        <path class="cls-5" d="M31.49,85.68c-.08,0-.16-.03-.23-.08-.17-.13-.21-.37-.08-.54,2.87-3.84.64-7.03.61-7.07-.12-.17-.09-.41.09-.54.17-.12.41-.09.54.09.03.04.67.94.91,2.38.22,1.32.14,3.37-1.53,5.6-.08.1-.19.15-.31.15Z"/>
        <path class="cls-5" d="M34.31,82.81c-.36,0-.73-.03-1.13-.09-.21-.03-.35-.23-.32-.44.03-.21.23-.35.44-.32,3.07.49,4.63-1.42,4.64-1.44.13-.17.38-.19.54-.06.17.13.19.37.06.54-.07.08-1.47,1.81-4.24,1.81Z"/>
        <path class="cls-5" d="M83.3,37.14c-.05,0-.1-.01-.15-.03-.04-.02-1.06-.47-2-1.58-.87-1.02-1.84-2.82-1.55-5.59.02-.21.21-.37.42-.34.21.02.37.21.34.42-.5,4.77,3.05,6.37,3.09,6.38.2.08.29.31.2.51-.06.15-.21.23-.35.23Z"/>
        <path class="cls-5" d="M76.51,37.72s-.04,0-.05,0c-.21-.03-.36-.22-.33-.43.02-.12.43-2.92,3.73-4.23.2-.08.42.02.5.22.08.2-.02.42-.22.5-2.87,1.14-3.24,3.51-3.25,3.61-.03.19-.19.33-.38.33Z"/>
        <path class="cls-1" d="M13.14,103.72c-.13,0-.26-.03-.38-.1-.37-.21-.5-.68-.29-1.05,5.36-9.38,3.45-26.22,1.03-47.55l-.03-.28c-1.92-16.96-.73-37.56-.72-37.76.03-.43.39-.75.82-.72.43.03.75.39.72.82-.01.2-1.19,20.67.71,37.5l.03.28c2.45,21.61,4.38,38.67-1.23,48.49-.14.25-.4.39-.67.39Z"/>
        <path class="cls-1" d="M82.92,88.64c-.39,0-.79,0-1.19-.02-7.39-.23-16.73-2.64-27.75-7.15-.39-.16-.58-.61-.42-1.01.16-.39.61-.58,1.01-.42,10.85,4.44,20,6.81,27.21,7.04,6.18.2,11.01-1.18,14.36-4.08,3.64-3.16,5.62-8.17,5.89-14.9.24-6.06-.98-12.38-2.05-16.62-2.15-8.54-2.04-17.33-1.57-23.2.51-6.36,1.52-10.64,1.56-10.81.1-.41.51-.67.93-.57.41.1.67.51.57.93-.01.04-1.02,4.37-1.53,10.61-.46,5.75-.57,14.34,1.53,22.67,1.09,4.33,2.34,10.81,2.09,17.06-.29,7.17-2.45,12.56-6.42,16.01-3.43,2.98-8.21,4.48-14.23,4.48Z"/>
        <path id="SVGID-4" data-name="SVGID" class="cls-7" d="M103.36.07c-4.05-.47-7.84,1.55-10.02,4.89-1.05-.74-2.24-1.26-3.5-1.53-5.02-1.09-9.5,1.57-11.23,5.72-2.08-2-4.91-3.03-7.84-2.59-3.15.48-5.72,2.56-7.11,5.38-1.73-2.02-4.19-3.31-6.95-3.35-2.55-.04-4.9.98-6.68,2.7-1.34-2.46-3.65-4.25-6.52-4.72-2.63-.43-5.24.33-7.34,1.91-.78-3.91-3.65-7.03-7.58-7.67-2.34-.38-4.67.18-6.63,1.42C18.58-.21,13.93-.52,10.16,1.8c-5.02,3.09-6.59,9.66-3.51,14.68,3,4.88,9.28,6.5,14.24,3.76,1.06.73,2.28,1.24,3.62,1.46,2.63.43,5.24-.33,7.34-1.91.78,3.91,3.65,7.03,7.58,7.67,3.17.52,6.31-.69,8.56-2.97,1.64,3.13,4.72,5.26,8.28,5.32,3.82.07,7.18-2.27,8.85-5.71,2.12,2.5,5.28,3.87,8.58,3.37,3.65-.55,6.52-3.26,7.68-6.78,2.05,2.2,4.65,3.7,6.86,3.74,2.8.05,5.41-1.68,7.11-4.37,1.5,1.28,3.35,2.13,5.42,2.37,5.82.67,11.12-3.79,11.84-9.97.71-6.18-3.43-11.73-9.25-12.4Z"/>
        <path class="cls-1" d="M59.5,18.82c-4,0-7.71-.29-11.08-.86-5.06-.86-9.32-2.37-12.65-4.47-3.88-2.45-10-5.62-17.08-6.81-4.24-.71-6.84-.37-6.87-.36-.42.06-.81-.24-.87-.66-.06-.42.23-.81.66-.87.11-.02,2.81-.38,7.26.36,4.07.67,10.44,2.44,17.73,7.04,4.14,2.61,12.08,5.61,26.42,5.03,10.13-.41,19.45-2.48,24.35-4.12,4.75-1.59,8.71-3.73,11.88-5.45,4.21-2.27,7.25-3.92,9.55-2.88.39.17.56.63.39,1.02-.17.39-.63.56-1.02.39-1.6-.72-4.5.85-8.18,2.83-3.23,1.75-7.25,3.92-12.13,5.55-5,1.68-14.49,3.78-24.78,4.2-1.21.05-2.4.07-3.56.07Z"/>
        <path class="cls-3" d="M109.1,56.83s-.05,0-.07-.02c-1.21-.8-4.3-.57-4.33-.57-.07,0-.13-.05-.14-.12,0-.07.05-.13.12-.14.13-.01,3.21-.24,4.49.61.06.04.08.12.04.18-.02.04-.07.06-.11.06Z"/>
        <path class="cls-3" d="M103.35,44.99c-.06,0-.11-.04-.12-.1-.02-.07.03-.14.09-.16.13-.03,3.13-.75,4.53-.11.06.03.09.11.06.17-.03.06-.11.09-.17.06-1.32-.6-4.34.12-4.37.13-.01,0-.02,0-.03,0Z"/>
        <path class="cls-3" d="M103.35,33.17c-.06,0-.11-.04-.12-.1-.02-.07.03-.14.09-.16.13-.03,3.13-.75,4.53-.11.06.03.09.11.06.17-.03.06-.11.09-.17.06-1.32-.6-4.34.12-4.37.13-.01,0-.02,0-.03,0Z"/>
        <path class="cls-3" d="M107.76,71.42s-.07-.01-.09-.04c-1.16-1.16-3.39-1.17-3.4-1.17h0c-.07,0-.13-.06-.13-.13s.06-.13.13-.13c.02,0,.59,0,1.32.15.68.14,1.62.44,2.27,1.09.05.05.05.13,0,.18-.03.03-.06.04-.09.04Z"/>
        <path class="cls-3" d="M102.45,85.78c-.06,0-.11-.04-.12-.1-.27-1.06-2.23-2.54-2.25-2.56-.06-.04-.07-.12-.03-.18.04-.06.12-.07.18-.03.08.06,2.06,1.55,2.35,2.7.02.07-.02.14-.09.16-.01,0-.02,0-.03,0Z"/>
        <path class="cls-3" d="M89.4,94.35s-.02,0-.03,0c-.07-.01-.11-.08-.1-.15.27-1.33-.34-3.29-.34-3.31-.02-.07.02-.14.08-.16.07-.02.14.02.16.08.03.08.64,2.04.35,3.44-.01.06-.07.1-.13.1Z"/>
        <path class="cls-3" d="M74.24,94.35s-.06,0-.08-.03c-.05-.05-.06-.13-.02-.18,1.17-1.38,1.15-4.55,1.15-4.58,0-.07.06-.13.13-.13h0c.07,0,.13.06.13.13,0,.13.02,3.29-1.21,4.75-.03.03-.06.05-.1.05Z"/>
        <path class="cls-3" d="M56.71,100.38c-.46,0-.91-.02-1.32-.05-2.6-.21-4.62-.97-4.64-.97-.07-.03-.1-.1-.07-.17.03-.07.1-.1.17-.07.02,0,2,.75,4.57.96,2.36.19,5.71-.04,8.29-2.24,2.37-2.02,2.89-4.6,2.91-6.41.02-1.97-.52-3.48-.53-3.49-.02-.07,0-.14.08-.17.07-.02.14,0,.17.08.02.06.57,1.56.54,3.58-.02,1.86-.56,4.53-3,6.61-2.19,1.87-4.92,2.36-7.16,2.36Z"/>
        <path class="cls-3" d="M54.22,114.52c-.65,0-1.05-.07-1.06-.07-.07-.01-.12-.08-.1-.15.01-.07.08-.12.15-.1.04,0,4.5.73,7.8-2.85.05-.05.13-.06.18,0,.05.05.06.13,0,.18-2.41,2.61-5.41,3-6.97,3Z"/>
        <path class="cls-3" d="M89.33,24.49c-.06,0-.12-.05-.13-.11-.01-.07.04-.14.11-.15,4.15-.62,6.1-4.5,6.12-4.54.02-.04.06-.07.11-.07.05,0,.09.02.12.06,0,.01.93,1.36,2.84,2.15,1.77.73,4.76,1.12,9.02-1.15.06-.03.14,0,.17.05.03.06,0,.14-.05.17-2.4,1.28-5.96,2.52-9.25,1.15-1.59-.66-2.51-1.67-2.82-2.07-.45.79-2.46,3.94-6.22,4.5,0,0-.01,0-.02,0Z"/>
        <path class="cls-3" d="M91.16,33.83s-.05,0-.07-.02c-.06-.04-.08-.12-.04-.18.05-.07,1.19-1.81,4.57-1.47.07,0,.12.07.11.14,0,.07-.07.12-.14.11-3.22-.33-4.31,1.33-4.32,1.35-.02.04-.07.06-.11.06Z"/>
        <path class="cls-3" d="M91.29,47.44s-.02,0-.03,0c-.07-.02-.11-.09-.09-.16.02-.09.62-2.31,4.87-2.54.07,0,.13.05.14.12,0,.07-.05.13-.12.14-4.06.23-4.63,2.33-4.63,2.35-.01.06-.07.1-.12.1Z"/>
        <path class="cls-3" d="M92.49,59.65s-.05,0-.07-.02c-.06-.04-.08-.12-.04-.18.06-.09,1.51-2.28,4.93-2.88.07-.01.14.03.15.1.01.07-.03.14-.1.15-3.31.57-4.75,2.74-4.76,2.76-.02.04-.07.06-.11.06Z"/>
        <path class="cls-3" d="M93.28,71.8s-.03,0-.05-.01c-.07-.03-.09-.1-.07-.17.04-.09,1.04-2.27,5.12-1.66.07.01.12.08.11.15-.01.07-.08.12-.15.11-3.89-.58-4.84,1.49-4.85,1.51-.02.05-.07.08-.12.08Z"/>
        <path class="cls-3" d="M86.65,82.81h0c-.07,0-.13-.06-.12-.13.07-2.41,1.07-3.92,2.87-4.37,2.28-.57,3.98-.17,5.02.27,1.12.47,1.7,1.08,1.73,1.1.05.05.05.13,0,.18-.05.05-.13.05-.18,0-.02-.02-2.28-2.35-6.49-1.3-1.7.42-2.6,1.81-2.68,4.13,0,.07-.06.12-.13.12Z"/>
        <path class="cls-3" d="M75.42,85.32h0c-.07,0-.13-.06-.13-.13.06-2.3-.96-3.45-.97-3.47-.05-.05-.04-.13,0-.18.05-.05.13-.04.18,0,.04.05,1.1,1.24,1.04,3.65,0,.07-.06.13-.13.13Z"/>
        <path class="cls-3" d="M66.16,82.81c-.06,0-.11-.04-.12-.1-.61-2.45-2.33-4.38-2.35-4.4-.05-.05-.04-.13,0-.18.05-.05.13-.04.18,0,.02.02,1.78,2,2.41,4.51.02.07-.02.14-.09.16-.01,0-.02,0-.03,0Z"/>
        <path class="cls-3" d="M83.72,22.86s-.05,0-.07-.02c-3.18-1.93-3.03-4.28-3.02-4.38,0-.07.07-.12.14-.12.07,0,.12.07.12.14,0,.03-.13,2.31,2.9,4.14.06.04.08.12.04.18-.02.04-.07.06-.11.06Z"/>
        <path class="cls-3" d="M65.42,24.56s-.08-.02-.1-.05c-1.47-1.9-1.22-3.56-1.21-3.63.01-.07.08-.12.15-.11.07.01.12.08.11.15,0,.02-.24,1.63,1.16,3.43.04.06.03.14-.02.18-.02.02-.05.03-.08.03Z"/>
        <path class="cls-3" d="M78.55,11.75c-.05,0-.1-.03-.12-.09,0-.02-.73-2.19.87-4.1.05-.05.13-.06.18-.02.05.05.06.13.02.18-1.51,1.8-.83,3.83-.82,3.85.02.07-.01.14-.08.16-.01,0-.03,0-.04,0Z"/>
        <path class="cls-3" d="M63.59,14.42c-.06,0-.11-.04-.13-.1-.02-.09-.51-2.27.98-3.94.05-.05.13-.06.18-.01.05.05.06.13.01.18-1.4,1.57-.92,3.69-.92,3.71.02.07-.03.14-.1.15,0,0-.02,0-.03,0Z"/>
        <path class="cls-3" d="M95.55,19.88s-.08-.02-.11-.06c-.91-1.31-.62-3.47-.61-3.57,0-.07.07-.12.15-.11.07,0,.12.07.11.15,0,.02-.29,2.16.56,3.38.04.06.03.14-.03.18-.02.02-.05.02-.07.02Z"/>
        <path class="cls-3" d="M92.78,7.47c-.07,0-.13-.06-.13-.12-.07-2.15,1.37-3.54,1.43-3.6.05-.05.13-.05.18,0,.05.05.05.13,0,.18-.01.01-1.41,1.37-1.35,3.4,0,.07-.05.13-.12.13,0,0,0,0,0,0Z"/>
        <path class="cls-3" d="M48.91,26.08s-.08-.02-.11-.06c-1.62-2.49-1.33-5.4-1.32-5.43,0-.07.07-.12.14-.11.07,0,.12.07.11.14,0,.03-.28,2.85,1.28,5.27.04.06.02.14-.04.18-.02.01-.05.02-.07.02Z"/>
        <path class="cls-3" d="M48.11,13.94s-.04,0-.06-.01c-.06-.03-.09-.11-.06-.17.04-.09,1.12-2.33,2.94-3.4.06-.04.14-.02.18.05.04.06.02.14-.05.18-1.75,1.03-2.83,3.27-2.84,3.29-.02.05-.07.07-.12.07Z"/>
        <path class="cls-3" d="M34.87,9.76s-.06-.01-.09-.03c-.05-.05-.06-.13,0-.18.02-.02.49-.54,1.22-1.13.68-.55,1.72-1.25,2.82-1.52.07-.02.14.03.16.09.02.07-.03.14-.09.16-2.02.49-3.89,2.55-3.91,2.57-.03.03-.06.04-.1.04Z"/>
        <path class="cls-3" d="M32.05,20.73c-.06,0-.11-.04-.12-.1-.82-3.03-.05-5.92-.04-5.95.02-.07.09-.11.16-.09.07.02.11.09.09.16,0,.03-.76,2.85.04,5.81.02.07-.02.14-.09.16-.01,0-.02,0-.03,0Z"/>
        <path class="cls-3" d="M17.06,33.72c-1.06,0-1.85-.17-1.88-.18-.07-.02-.11-.08-.1-.15.02-.07.08-.11.15-.1.04,0,4.11.87,6.11-1.4.05-.05.13-.06.18-.01.05.05.06.13.01.18-.87.99-2.25,1.56-3.99,1.64-.17,0-.33.01-.49.01Z"/>
        <path class="cls-3" d="M15.03,21.74c-2.98,0-6.05-2.43-6.19-2.54-.06-.04-.06-.13-.02-.18.04-.06.13-.06.18-.02.04.03,3.64,2.88,6.72,2.43,0,0,.02,0,.03,0,.02,0,1.67.12,3.7-.66,1.87-.71,4.45-2.35,6.14-6.12.03-.06.11-.09.17-.06.06.03.09.11.06.17-1.72,3.85-4.37,5.53-6.29,6.26-2,.76-3.6.68-3.78.67-.24.03-.48.05-.72.05Z"/>
        <path class="cls-3" d="M6.14,33.32c-3.23,0-4.45-3.39-4.46-3.43-.02-.07.01-.14.08-.16.07-.02.14.01.16.08,0,0,.34.97,1.14,1.84,1.05,1.15,2.35,1.61,3.88,1.35.07-.01.14.04.15.11.01.07-.04.14-.11.15-.29.05-.57.07-.84.07Z"/>
        <path class="cls-3" d="M7.06,47.71c-1.49,0-2.65-.51-3.45-1.03-1.2-.78-1.82-1.7-1.84-1.74-.04-.06-.02-.14.04-.18.06-.04.14-.02.18.04,0,0,.62.92,1.78,1.67,1.54,1,3.27,1.24,5.13.72.07-.02.14.02.16.09.02.07-.02.14-.09.16-.68.19-1.32.27-1.9.27Z"/>
        <path class="cls-3" d="M9.6,59.73c-2.61,0-4.57-1.5-4.6-1.52-.06-.04-.07-.12-.02-.18.04-.06.12-.07.18-.02.02.02,2.45,1.86,5.44,1.38.07-.01.14.04.15.11.01.07-.04.14-.11.15-.36.06-.7.08-1.04.08Z"/>
        <path class="cls-3" d="M9.95,70.88c-2.86,0-4.64-3.34-4.66-3.38-.03-.06,0-.14.05-.17.06-.03.14,0,.17.05.02.04,2,3.75,5.08,3.18.07-.01.14.03.15.1.01.07-.03.14-.1.15-.24.04-.47.07-.7.07Z"/>
        <path class="cls-3" d="M9.67,80.66c-2.99,0-4.38-3.32-4.39-3.36-.03-.07,0-.14.07-.17.07-.03.14,0,.17.07.02.04,1.62,3.88,5.07,3.09.07-.02.14.03.15.1.02.07-.03.14-.1.15-.34.08-.67.11-.98.11Z"/>
        <path class="cls-3" d="M20.25,80.03c-.39,0-.64-.04-.65-.04-.07-.01-.12-.08-.1-.15.01-.07.08-.12.15-.11.03,0,2.74.44,4.36-1.7.04-.06.12-.07.18-.02.06.04.07.12.02.18-1.22,1.61-3.01,1.84-3.96,1.84Z"/>
        <path class="cls-3" d="M19.85,70.23c-.14,0-.22,0-.24-.01-.07,0-.12-.07-.11-.14,0-.07.07-.12.14-.11h0s2.5.26,4.82-2.69c.04-.06.12-.07.18-.02.06.04.07.12.02.18-2.01,2.56-4.11,2.8-4.81,2.8Z"/>
        <path class="cls-3" d="M18.85,58.28c-.06,0-.11-.04-.13-.1-.01-.07.03-.14.1-.15.04,0,3.75-.74,5.21-3.45.03-.06.11-.09.17-.05.06.03.09.11.05.17-1.52,2.83-5.24,3.55-5.39,3.58,0,0-.02,0-.02,0Z"/>
        <path class="cls-3" d="M15.75,46.22h0c-.07,0-.13-.06-.13-.13,0-.07.06-.13.13-.13.01,0,1.45,0,3.06-.65,2.15-.87,3.59-2.42,4.28-4.6.02-.07.09-.11.16-.08.07.02.11.09.08.16-.89,2.82-2.9,4.15-4.44,4.77-1.63.66-3.04.67-3.14.67Z"/>
      </g>
      <path class="cls-6" d="M88.44,59.55s-1.83.18-1.88-1.31c-.06-1.68,1.33-1.69,1.33-1.69h-.02c.06,0,1.55-.35,2.36-2.17.34-.77,1.25-1.11,2.01-.77.77.34,1.11,1.25.77,2.01-1.19,2.65-3.44,3.71-4.57,3.92Z"/>
      <g>
        <circle class="cls-8" cx="79.99" cy="55.12" r="1.92"/>
        <circle class="cls-4" cx="83.49" cy="49.07" r="1.2"/>
        <circle class="cls-6" cx="72.77" cy="59.79" r="1.27"/>
        <circle class="cls-4" cx="84.31" cy="63.07" r="2.02" transform="translate(8.55 136.18) rotate(-80.78)"/>
        <path class="cls-6" d="M76.67,43.3s1.83-.16,1.86,1.34c.04,1.68-1.35,1.67-1.35,1.67h.02c-.06,0-1.55.33-2.39,2.14-.35.76-1.26,1.1-2.02.74-.76-.35-1.1-1.26-.74-2.02,1.22-2.64,3.48-3.68,4.62-3.87Z"/>
      </g>
    </g>
  </g>
</svg>