<?xml version="1.0" encoding="UTF-8"?>
<svg id="_圖層_2" data-name="圖層 2" xmlns="http://www.w3.org/2000/svg" viewBox="0 0 203.97 99.15">
  <defs>
    <style>
      .cls-1 {
        opacity: .2;
      }

      .cls-1, .cls-2, .cls-3 {
        fill: #1d1d1b;
        isolation: isolate;
      }

      .cls-2 {
        opacity: .1;
      }

      .cls-3 {
        opacity: .05;
      }

      .cls-4 {
        fill: #f4c9ab;
      }

      .cls-5 {
        fill: #7da0a8;
      }

      .cls-6 {
        fill: #988e87;
      }

      .cls-7 {
        fill: #fff;
      }

      .cls-8 {
        fill: #e89f95;
      }

      .cls-9 {
        fill: #3e86c7;
      }

      .cls-10 {
        fill: #443d32;
      }
    </style>
  </defs>
  <g id="_圖層_1-2" data-name="圖層 1">
    <g>
      <rect class="cls-9" x="4.59" y="1.14" width="154.17" height="96.87"/>
      <path class="cls-1" d="M4.24,89.24c.11.1.23.18.34.28.38.31.76.63,1.15.94,2.37,1.92,4.89,3.7,7.82,4.47,2.09.55,4.27.56,6.44.56h16.62c3.01,0,6.98-.84,7.18-3.84,6.53,2.91,9.15,4.39,16.3,4.39,4.63,0,9.26-.62,13.72-1.87,1.33-.37,2.68-.81,4.07-.73,1.05.06,2.07.42,3.07.74,3.58,1.13,7.31,1.81,11.06,1.89,3.5.07,7-.36,10.5-.53,7.42-.36,14.84.51,22.26.8,1.96.08,3.92.12,5.88.12,5.59,0,11.19-.32,16.74-.96,3.71-.43,7.46-1.02,10.99-2.21.13-.04.25-.08.37-.13,1.13-.39,2.24-.85,3.32-1.39.73.63.7,1.76.52,2.71-.3,1.63-.87,3.2-1.67,4.65h-2.54v-1.14H5.73v1.14h-1.61c.04-3.3.08-6.61.12-9.91Z"/>
      <path class="cls-1" d="M158.38,1.14V0h3.39c.07,1.84.14,3.68.21,5.53-1.07-.3-2.14-.56-3.22-.79-.13-.03-.24-.05-.37-.08-22.54-4.8-46.44,2.4-69.48-.59-3.01-.39-6.04-.96-9.07-.67-2.07.19-4.09.79-6.16.99-4.16.41-8.3-.73-12.42-1.44-3.37-.58-2.25-.87-5.67-.87-6.57,0-13.15,1.07-19.38,3.17-1.44.5-2.89,1.04-4.41,1.22-1.64.2-3.3-.04-4.93-.27-7.09-1.02-15.08-1.7-21.13,1.58-.39.22-.77.44-1.15.7-.7.46-1.37.98-2.01,1.57.04-3.35.09-6.69.13-10.04h3.02v1.14h152.65Z"/>
      <rect class="cls-6" x="-46.71" y="46.71" width="99.15" height="5.73" transform="translate(52.44 46.71) rotate(90)"/>
      <rect class="cls-6" x="111.67" y="46.71" width="99.15" height="5.73" transform="translate(210.82 -111.67) rotate(90)"/>
      <path class="cls-1" d="M69.19,18.97c-3.73.49-7.4,1.49-11.16,1.69-7.33.39-9.88-2.28-16.94-4.31-8.27-2.38-16.79-3.91-25.37-4.57,2.36,5.15,2.36,11.08,1.51,16.68-.85,5.6-2.51,11.05-3.32,16.66-1.48,10.24-.12,20.66,1.25,30.91.66,4.94,1.31,9.87,1.97,14.81,7.44-3.21,15.67-4.56,23.75-3.9,2.65.22,5.28.65,7.92,1,8.65,1.14,13.1,1.37,21.39-1.36,7.08-2.32,13.41-6.71,20.64-8.52,4.97-1.24,10.25-1.2,15.2.11-1.51-2.92-1.81-6.29-2.16-9.55-1.35-12.29-4-24.43-7.9-36.16-1.19-3.58-2.37-7.91.04-10.81-8.79-2.06-17.85-3.86-26.81-2.68Z"/>
      <path class="cls-1" d="M150.16,58.55c-.02-5.65-.08-11.33-.93-16.92-.59-3.87-1.55-7.78-.95-11.64.48-3.11,1.98-6.01,3.97-8.44-2.02,1.27-4.92.85-6.5-.93-1.47-1.65-1.79-4.16-3.48-5.58-2.03-1.72-5.09-1.14-7.59-.22-2.49.92-5.16,2.11-7.7,1.34.56.26,1.05.67,1.4,1.18-3.5,1.07-7,2.15-10.49,3.22-2.78.85-5.69,1.71-8.55,1.17,1.91,2.14,1.96,5.3,1.91,8.16-.05,2.67-.2,5.61-2.05,7.54-1.93,2.01-5.07,2.22-7.82,1.82-2.76-.41-5.5-1.29-8.26-.99,1.15.59,1.49,2.05,1.69,3.33,2.33,14.78,3.78,29.69,4.33,44.64,5.08-3.21,11.13-4.85,17.14-4.66,1.32.04,2.74.14,3.84-.59,1.24-.83,1.63-2.44,2.34-3.75,1.49-2.74,4.83-4.35,7.9-3.81.41.07.83.19,1.15.45,1.26,1.01.24,3-.82,4.22,2.2-1.55,4.49-3.14,7.14-3.64,1.53-.29,3.11-.2,4.65-.45,3.94-.63,7.71-3.45,11.57-2.41-3.61-3.01-3.87-8.35-3.88-13.04Z"/>
      <g>
        <path class="cls-7" d="M146.54,71.1c2.45-.79,4.9-1.6,7.35-2.4,3.14-10.31-1.57-21.39-2.17-32.08-.17-3.19.01-6.35.89-9.45-1.61-.44-2.89-1.66-4.43-2.3-3.73-1.55-7.9.52-11.94.67-4.62.17-9.27-2.22-13.74-1.03-1.99.53-2.86.42-5.9.5.4,4.01.01,7.37-.52,11.06-.1.7-.19,1.4-.25,2.11-.59,5.83-.13,11.77,1.37,17.44.75,2.86.68,5.13,1.12,8.06.06.41.12.82.17,1.22.31,2.45.36,4.81-.36,7.9,5.43,1.52,10.1-2.75,15.57-1.38,1.43.36,3.67.36,5.1.71,2.56.62,5.23-.21,7.75-1.03Z"/>
        <path class="cls-3" d="M133.69,71.42c1.43.36,3.67.36,5.1.71,2.56.62,5.23-.21,7.74-1.03,2.45-.79,4.9-1.6,7.35-2.4,3.14-10.31-1.57-21.39-2.17-32.08-.17-3.19.01-6.35.89-9.45-1.61-.44-2.89-1.66-4.43-2.3-3.73-1.55-7.9.52-11.94.67-4.62.17-9.27-2.22-13.74-1.03-1.99.53-2.86.42-5.9.5.4,4.01.01,7.37-.52,11.06-.1.7-.19,1.4-.25,2.11-.59,5.83-.13,11.77,1.37,17.44.75,2.86.68,5.13,1.12,8.06.06.41.12.82.17,1.22.31,2.45.36,4.81-.36,7.9,5.43,1.52,10.11-2.75,15.58-1.38ZM119.53,64.78c.29-1.66.31-3.38.14-5.05-.08-.73-.19-1.46-.32-2.18.21-.28.46-.53.72-.76-1.3-9.04-1.22-17.49.28-26.63-.32-.04-.64-.07-.96-.06.37-1.15.56-2.31.3-3.49-.02-.09-.04-.19-.07-.27,1.57-.04,3.11-.45,4.68-.53,3.95-.21,7.93,1.83,10.07,5.15-.39-1.06.22-2.29,1.13-2.95.91-.66,2.06-.9,3.18-1.1,1.75-.32,3.54-.62,5.29-.28,1.74.34,3.44,1.44,3.99,3.13.48-.1.94-.21,1.42-.31.84,2.3,1.04,4.76,1.15,7.22.03.67.06,1.34.09,2.01.22,4.97.78,9.93,1.64,14.82.45,2.58,1,5.18.77,7.79-.24,2.6-1.38,5.27-3.61,6.65-1.65,1.02-3.67,1.21-5.6,1.3-3.51.17-7.37-.02-10.01-2.34.06.43.12.86.19,1.3-4.49,1-8.97,2-13.46,3,.32-2.17-.05-4.43-.99-6.42Z"/>
        <path class="cls-3" d="M147.41,35.69c-1.45.59-2.06,2.38-1.9,3.94.16,1.55.9,2.98,1.4,4.46.33.97.56,1.97.69,2.99.12.95.15,1.96-.27,2.83-.33.71-.93,1.26-1.41,1.88-1.08,1.38-1.62,3.17-1.49,4.91.22,3.04,2.37,5.92,1.65,8.88-.72-3.08-2.11-6-4.05-8.51-.45-.59-1.06-1.21-1.8-1.15.05,2.4,1.66,4.73,1.05,7.06-.46-1.44-1.01-2.84-1.66-4.21-.5-1.06-1.11-2.15-2.13-2.71-.35.48-.15,1.14-.02,1.72.29,1.26.21,2.61-.23,3.83-.3-1.73-.7-3.54-1.87-4.86-1.16-1.32-3.33-1.92-4.71-.82-.53.42-.88,1.03-1.23,1.61-1.27,2.05-2.92,3.95-5.11,4.96.22-4.2-.33-8.39-.88-12.56-.5-3.84-1.01-7.69-1.93-11.45.47.83.94,1.66,1.42,2.49.32.56.74,1.19,1.38,1.23.29.02.58-.09.84-.24.55-.3,1.01-.75,1.59-.99,1.19-.49,2.78-.1,3.62-1.07.36-.42.47-1,.54-1.56.17-1.4.14-2.82-.08-4.22.35,1.09.77,2.16,1.24,3.21.23.51.59,1.08,1.15,1.07.73-.02.98-.98,1.01-1.71.05-1.24.1-2.48.15-3.72.35,1.22.51,2.49.48,3.76,0,.41-.04.83.09,1.22.13.39.46.74.87.76.49.02.86-.44,1.11-.86,1.05-1.72,1.7-3.68,1.88-5.69-.08,1.6-.17,3.19-.25,4.79-.02.39-.03.81.18,1.14.38.6,1.29.58,1.94.27.64-.31,1.18-.84,1.86-1.05.56-.18,1.18-.13,1.76-.21,1.13-.16,2.14-.79,3.1-1.41Z"/>
      </g>
      <g>
        <path class="cls-4" d="M139.03,22.13c-.36.08-.73,0-1.1.02-.34,0-.68.08-1.03.07-.83-.04-2.27-.33-2.91-.87-.89-.75-1.15-1.96-.46-3.29.2-.39.51-.71.86-.97.92-.68,1.84-1.36,2.76-2.04.46-.34.95-.7,1.51-.82.51-.11,1.05-.02,1.56.08,1,.18.95.27,1.94.45.2.04.4.07.57.18.21.13.37.34.46.57.04,0,.08.01.13.01.11,0,.22,0,.32.05.12.06.2.19.23.32.03.13,0,.27-.04.41,0,.01,0,.03-.01.04.11.02.22.02.32.02.09,0,.18,0,.26.02.13.05.21.18.26.31.04.12.07.25.07.38,0,.11-.02.23-.09.31.22,0,.41-.01.58.35.21.45-.14.96-.64.94-.84-.04-1.67-.08-2.51-.12-.46-.02-.94-.04-1.38.09-.28.08-.53.23-.79.37-.61.34-1.09.76-1.7,1.1.47.32.95.18,1.5.03.54-.15,1.09-.36,1.65-.31.33.03.67.2.88.45.21.24.07.63-.24.7-.76.17-1.5.44-2.19.81-.26.13-.51.27-.79.33Z"/>
        <path class="cls-4" d="M121.81,31.39c-2.31-.25-4.65-.3-7.05.08-.55.07-1.1.18-1.65.31-.14-2.69-.26-5.28-.32-6.66-.02-.64.34-1.23.94-1.47,1.17-.49,3.16-1.16,5.43-1.88,5.54-1.77,12.83-3.82,14.64-4.11.02,0,.04,0,.07,0l1.4,4.09c-.08.04-.17.09-.26.13-3.86,1.99-9.06,4.82-13.57,7.24.1.56.24,1.39.38,2.29Z"/>
        <path class="cls-5" d="M116.66,48.89l-.02-.02c-.34-.17-.64-.4-.93-.73-1-1.11-1.74-2.83-1.87-4.37,0-.03-.02-.05-.01-.08-.09-1.37-.18-2.75-.28-4.11,0-.08-.01-.14-.01-.22-.13-1.69-.28-4.68-.43-7.58.55-.13,1.1-.24,1.65-.31,2.4-.38,4.74-.32,7.05-.08.3,1.85.65,4.1.84,5.53.03.17.05.35.09.52.02.18.05.35.09.52.19,1.22.41,2.34.49,3.48.04.5.05,1.01,0,1.53-.14,2.06-1.28,3.91-2.84,5.17-1.22.98-2.62,1.32-3.82.73Z"/>
        <path class="cls-5" d="M116.57,69.28c-.37.11-.73.25-1.1.41.22-1.16.47-2.43.7-3.52.11-.54.22-1.04.31-1.46.04-.17.08-.35.11-.53,0-.01,0-.02,0-.03.29-1.39.46-2.68.83-3.93.14-.48.31-.97.52-1.44.77-1.71,2.25-2.99,3.94-3.67.17-.09.33-.15.51-.21,1.48-.5,2.91-.35,3.83.62l.02.03c.25.27.45.6.62,1,.39.97.56,2.2.48,3.35,0,.01,0,.02-.01.04-.03.48-.1.94-.23,1.36,0,.04,0,.05-.01.07-.41,1.39-.82,2.78-1.21,4.17-.33,1.16-.88,2.96-1.47,4.9-2.55-1.36-5.09-2-7.84-1.17Z"/>
        <path class="cls-4" d="M120.3,80.25c-4.38.18-18.62-.79-20.97-1.28l.02-1.04.06-3.28c4.35-.54,10.34-1.44,15.52-2.18.12-.67.31-1.67.53-2.78.37-.16.74-.3,1.1-.41,2.74-.83,5.28-.19,7.83,1.17-1.02,3.3-2.19,7.02-2.73,8.73-.19.61-.73,1.04-1.38,1.06Z"/>
        <polygon class="cls-4" points="129.05 46.5 127.17 46.97 126.65 45.49 126.27 44.39 127.54 44.19 128.66 44.01 128.82 45.03 128.93 45.77 128.93 45.78 129.05 46.5"/>
        <path class="cls-4" d="M127.94,55.13l9.07-2.9c-.92-3.28-2.08-7.7-2.15-8.51,0,0-5.63,1.42-8.1,1.81-6.51.48-6.45,8.76,1.17,9.59Z"/>
        <path class="cls-4" d="M139.94,53.72c-1.69.22-2.36.34-4.01-.04-1.21-.27-2.7-6.68-3.04-7.88-1.69.19-2.99.14-3.96-.03-.02,0-.05,0-.06-.01-1.68-.3-2.4-.96-2.6-1.38-.17-.68.02-1.22.41-1.64.58-.67,1.6-1.05,2.37-1.21,0,0,2.22-.3,2.73-.39l.08-.77c.02-.51.5-.87,1-.77l3.03.64s.38-.27.85-.51c5.14-.64,7.89,2.14,8.58,5.43.45,2.85,2.24,7.08-5.4,8.56Z"/>
        <path class="cls-10" d="M132.32,53.4c-3.78-8.43.93-7.4,1.8-7.77.28-.08-.21-1.46.05-1.54,4.53-1.32,7.83-.39,6.68-4.06.02-1.46,4.37-2.98,5.52,5.75.51,3.86-1.12,7.2-4.79,8.49-3.58,1.26-8.3.5-9.26-.87Z"/>
        <path class="cls-4" d="M135.28,47.3c-1.2.19-2.71-.36-2.81-.96-.09-.6.91-.81,2.11-1,.8-.13,1.89-.34,2.24.27.31.54.22,1.41-1.54,1.69Z"/>
        <path class="cls-5" d="M123.09,64.6c-.16.06-.33.11-.51.15l-.06.02-4.38,1.01-1.38.31-.21.03-.39.04-18.57,2.15-7.15-22.39c9.21-2.29,17.87-6,23.1-6.58.42-.04,1.96-.33,3.66-.63,2.57-.45,5.52-.95,5.63-.76l2.93,7.45.04.17.02.09c2.25,4.34,2.44,9.36,2.44,9.36l-.92,4.87s0,.02-.01.04c-.5,2.2-2.13,3.96-4.24,4.66Z"/>
        <path class="cls-2" d="M94.36,58.24c8.71.42,19.8-.99,27.3-3.63-7.92.25-18.82,2.41-27.46,3.13l.16.51Z"/>
        <path class="cls-2" d="M130.89,45.28c-.53.2-1.23.41-1.96.49-.01,0-.04,0-.06,0-.7.09-1.44.04-2.1-.22-.04-.01-.08-.03-.12-.05l-.39-1.1c-.17-.68.02-1.22.41-1.64,0,.13.04.27.09.39.14.36.4.65.66.93.03.04.07.08.1.12.13.14.26.27.4.39.26.21.56.36.88.45.65.21,1.38.24,2.07.25Z"/>
        <path class="cls-2" d="M90.44,45.94c9.21-2.29,17.87-6,23.1-6.58-.13-1.69-.28-4.68-.43-7.58-.14-2.69-.26-5.28-.32-6.66-.02-.64.34-1.23.94-1.47,1.17-.49,3.16-1.16,5.43-1.88-1.92.95-3.77,2.22-4.33,4.23-.24.84-.2,1.73-.18,2.61.03.95.07,1.91.1,2.86.02.45.03.91.04,1.36.05,1.25.09,2.54.55,3.73.35.89.99,1.72,1.84,2.17.26.13.53.23.82.29-1.52.02-3.01.23-4.47.57-2.35.53-4.63,1.38-6.89,2.23-3.24,1.24-6.52,2.54-9.23,4.7-2.19,1.74-3.99,4.16-4.62,6.85l-2.37-7.43Z"/>
        <path class="cls-2" d="M102.07,76.38c-.96.41-1.89.92-2.72,1.54l.06-3.28c4.35-.54,10.34-1.44,15.52-2.18.12-.67.31-1.67.53-2.78.22-1.16.47-2.43.7-3.52l-18.57,2.15-.69-2.16c.21.13.43.23.67.31.57.18,1.17.2,1.77.2,5.84.05,11.67-.81,17.24-2.53,1.05-.32,2.11-.67,3.14-1.06-.48.81-.95,1.61-1.42,2.4-.06.1-.11.19-.17.3-.65,1.11-1.3,2.25-1.56,3.5-.03.1-.05.2-.07.3-.26,1.47.09,3.15,1.26,4.08-3.11-.22-6.22.37-9.28.98-2.17.44-4.36.87-6.41,1.74Z"/>
      </g>
      <path class="cls-8" d="M52.47,86.45c-7.48-2.02-15.41-2.4-23.06-1.1-5.32.9-10.47,2.59-15.6,4.27,1.07-1.89,1.75-3.89,2.16-5.96.82-4.14.59-8.57.25-12.99h0c-.17-2.19-.36-4.37-.46-6.52-.02-.3-.03-.59-.03-.88-.03-.81-.04-1.61-.04-2.41,0-1.42.04-2.82.12-4.23.08-1.72.22-3.44.39-5.16.53-5.41,1.41-10.82,2.21-16.2.67-4.55,1.3-9.14,1-13.73-.3-4.59-1.62-9.22-4.46-12.84,3.96.66,7.95,1.34,11.85,2.3,1.88.46,3.74.99,5.58,1.62.99.33,1.96.7,2.92,1.09,5.13,2.1,9.85,5.07,14.92,7.3,5.06,2.24,6.16,3.76,11.59,2.71,3.71-.71,7.13-2.58,10.85-3.3,1.15-.22,2.31-.34,3.49-.37,7.77-.23,15.93,2.99,23.07-.07-1.13,3.21-.84,6.58.2,9.84.91,2.84,2.39,5.6,3.99,8.09,1.36,2.1,2.83,4.19,4.16,6.34,2.07,3.3,3.82,6.73,4.33,10.55.29,2.16.16,4.33-.03,6.52-.19,2.18-.45,4.36-.42,6.54.01.9.07,1.79.2,2.68.24,1.69.76,3.33,1.07,5.01.1.53.19,1.06.24,1.6h0c.16,1.35.2,2.7.12,4.05-.11,1.86-.44,3.7-1,5.47-7.86-3.4-16.91-1.96-25.23.08-3.98.98-8.02,2.09-12.07,2.84,0,0,0,0-.01,0-4.39.82-8.79,1.21-13.21.57-4.67-.68-4.54-2.51-9.09-3.74Z"/>
      <path class="cls-2" d="M80.9,66.71c4.94,3.38,11.54,2.7,17.37,1.36,3.49-.81,7-1.84,9.93-3.89,1.25-.88,2.42-1.96,3.67-2.85-.19,2.18-.45,4.36-.42,6.54-5.2-.13-10.14,3.13-15.41,3.81-5.42.69-10.94-1.47-15.14-4.97Z"/>
      <path class="cls-2" d="M59.71,62.47c2.21-1.03-.06-2.14,2.37-2.28,2.24-.13,4.45.58,6.5,1.48,2.64,1.15,5.15,2.62,7.45,4.36,1.53,1.16,3.04,2.48,4.91,2.92-4.36-3.99-9.26-7.38-14.52-10.07-1.57-.8-3.22-1.55-4.98-1.61-2.56-.09-.37,1.27-2.61,2.51-6.44,3.58-13.53,6.59-20.89,6.33,7.23,2.09,14.95-.46,21.77-3.62Z"/>
      <path class="cls-2" d="M60.83,62.45c-1.93.43.89,1.52-.84,2.48-2.65,1.47-5.47,2.65-8.37,3.51,3.14.66,6.28-.84,9.12-2.33,2.84-1.49,1.39-3.07,4.56-2.56,1.48.24,2.89.93,4.39.93-2.65-1.62-5.82-2.7-8.86-2.04Z"/>
      <path class="cls-2" d="M72.51,42.87c3.69.24,7.39.13,11.06-.36,4.04-.53,8.28-1.67,10.97-4.72,2.06-2.33,2.96-5.52,4.87-7.95.91,2.84,2.39,5.6,3.99,8.09,1.36,2.1,2.83,4.19,4.16,6.34-1.67-.02-3.35.15-4.97.56-2.35.6-4.54,1.7-6.88,2.33-7.74,2.09-15.82-1.13-23.2-4.3Z"/>
      <path class="cls-2" d="M61.22,37c-4.33.21-8.58,1.86-11.92,4.63,4.6-1.91,5.12-2.75,10.09-2.41,4.21.28,8.32,1.38,12.51,1.81,4.19.44,8.67.13,12.22-2.14-4.3,1.74-9.17,1.18-13.71.21-4.54-.97-4.55-2.33-9.19-2.1Z"/>
      <path class="cls-2" d="M55.49,28.76c-2.97-1.23-5.59-3.16-8.17-5.07-4.98-3.69-9.96-7.38-14.95-11.06.99.33,1.96.7,2.92,1.09,5.13,2.1,9.85,5.07,14.92,7.3,5.06,2.24,6.16,3.76,11.59,2.71,3.71-.71,7.13-2.58,10.85-3.3,1.15-.22,2.31-.34,3.49-.37-3.01,1.16-5.9,2.56-8.5,4.46-2.37,1.73-4.53,3.87-7.28,4.85-3.03,1.08-1.9.61-4.87-.61Z"/>
      <path class="cls-2" d="M15.8,56.64c9.5,2.56,20.06.7,29.29-3.09,4.59-1.88,9.28-4.27,14.21-3.7-5.96-.24-11.36,3.16-16.83,5.55-4.64,2.02-9.57,3.36-14.59,3.97-4.04.49-8.28.55-12.19,1.5,0-1.42.05-2.82.12-4.23Z"/>
      <path class="cls-2" d="M36.39,59.41c-.57.24-1.15.47-1.73.67.56-.26,1.14-.49,1.73-.67Z"/>
      <path class="cls-2" d="M16.21,70.67c-.17-2.18-.36-4.36-.46-6.51-.02-.3-.03-.59-.03-.88.04-.02.08-.04.12-.06,2.92-1.37,6.3-1.1,9.51-1.27,3.16-.17,6.3-.8,9.27-1.86-3.9,1.8-7.04,5.23-11.05,6.88-1.65.67-3.44,1.04-4.99,1.93-.86.48-1.63,1.11-2.37,1.77Z"/>
      <path class="cls-2" d="M52.47,86.45c-7.48-2.02-15.41-2.4-23.06-1.1-5.32.9-10.47,2.59-15.6,4.27,1.07-1.89,1.75-3.89,2.16-5.96,1.23.3,2.5.42,3.76.42,3.19,0,6.33-.8,9.45-1.54,5.08-1.21,10.27-2.32,15.48-2.07,2.55.13,5.13.56,7.62,0,2.03-.45,3.85-1.53,5.75-2.38,5.02-2.25,6.22-2.92,11.62-1.87-4.7-.3-4.96,1.19-8.68,4.1-1.39,1.08-2.73,2.78-2.16,4.45.53,1.53-2.18,2.1-.59,2.44,5.46,1.15,10.99,1.96,16.54,2.41-4.39.82-8.79,1.21-13.21.57-4.67-.68-4.55-2.51-9.09-3.74Z"/>
      <path class="cls-2" d="M102.53,78.19c-1.44.18-2.87.6-4.32.59-2.66-.01-5.26-1.57-6.53-3.92,1.94,1.62,4.45,2.53,6.97,2.52,3.1,0,6.08-1.33,9.19-1.37,1.52-.02,3.04.27,4.43.85.23.1.47.21.69.32h0c.16,1.35.2,2.7.12,4.05-2.93-2.36-6.82-3.51-10.54-3.04Z"/>
      <path class="cls-2" d="M61.88,40.81c-3.53-.17-2.57-.33-6.01.47-6.35,1.46-11.81,6.07-18.31,6.59,2.84.65,5.89.31,8.52-.93,1.29-.61,2.48-1.43,3.75-2.09,1.9-.99,3.96-1.61,6.03-2.14,3.47-.88,2.46-1.52,6.02-1.9Z"/>
      <path class="cls-2" d="M16.18,51.48c.53-5.41,1.41-10.82,2.21-16.2.67-4.55,1.3-9.14,1-13.73-.3-4.59-1.62-9.22-4.46-12.84,3.96.66,7.95,1.34,11.85,2.3-.18.06-.35.14-.52.23-1.07.59-1.78,1.67-2.26,2.8-2.1,4.95-.2,11.26,4.27,14.23-3.11-.59-5.87,2.21-7.12,5.13-1.49,3.45-1.78,7.28-2.49,10.97-.47,2.47-1.2,4.99-2.5,7.11Z"/>
      <g>
        <g>
          <path class="cls-10" d="M194.47,12.84l2.5,3.26c.12.15.13.32.05.51-.08.19-.19.33-.34.45s-.33.19-.53.22c-.2.03-.36-.03-.48-.18l-3.6-4.7c-.12-.15-.16-.29-.14-.42.02-.13.09-.24.21-.33.17-.13.38-.2.63-.23l8.65-1.28-2.19-2.87c-.12-.15-.14-.31-.07-.49.07-.17.19-.33.37-.46.16-.12.33-.2.53-.23.19-.03.35.03.47.19l3.29,4.31c.12.15.16.29.14.42-.02.13-.09.24-.2.33-.17.13-.39.2-.66.24l-8.63,1.28Z"/>
          <path class="cls-10" d="M194.47,12.84l2.5,3.26c.12.15.13.32.05.51-.08.19-.19.33-.34.45s-.33.19-.53.22c-.2.03-.36-.03-.48-.18l-3.6-4.7c-.12-.15-.16-.29-.14-.42.02-.13.09-.24.21-.33.17-.13.38-.2.63-.23l8.65-1.28-2.19-2.87c-.12-.15-.14-.31-.07-.49.07-.17.19-.33.37-.46.16-.12.33-.2.53-.23.19-.03.35.03.47.19l3.29,4.31c.12.15.16.29.14.42-.02.13-.09.24-.2.33-.17.13-.39.2-.66.24l-8.63,1.28Z"/>
        </g>
        <g>
          <path class="cls-10" d="M181.23,23.44l1.71,2.23c.08.11.09.22.04.35-.05.13-.13.23-.24.31s-.22.13-.36.15c-.14.02-.24-.02-.32-.13l-2.46-3.22c-.08-.1-.11-.2-.1-.29.01-.09.06-.16.14-.23.11-.09.26-.14.43-.16l5.91-.87-1.5-1.96c-.08-.1-.1-.21-.05-.33.05-.12.13-.22.25-.31.11-.08.23-.14.36-.16s.24.02.32.13l2.25,2.95c.08.1.11.2.1.29-.01.09-.06.16-.14.22-.11.09-.26.14-.45.16l-5.9.88Z"/>
          <path class="cls-10" d="M181.23,23.44l1.71,2.23c.08.11.09.22.04.35-.05.13-.13.23-.24.31s-.22.13-.36.15c-.14.02-.24-.02-.32-.13l-2.46-3.22c-.08-.1-.11-.2-.1-.29.01-.09.06-.16.14-.23.11-.09.26-.14.43-.16l5.91-.87-1.5-1.96c-.08-.1-.1-.21-.05-.33.05-.12.13-.22.25-.31.11-.08.23-.14.36-.16s.24.02.32.13l2.25,2.95c.08.1.11.2.1.29-.01.09-.06.16-.14.22-.11.09-.26.14-.45.16l-5.9.88Z"/>
        </g>
        <g>
          <path class="cls-10" d="M193.97,27.81l2.23,2.92c.1.13.12.28.05.45-.07.17-.17.3-.31.4s-.29.17-.47.19c-.18.02-.32-.03-.42-.17l-3.21-4.2c-.1-.14-.15-.26-.13-.38.02-.12.08-.21.19-.3.15-.11.34-.18.56-.21l7.72-1.14-1.96-2.56c-.1-.14-.12-.28-.06-.44.06-.15.17-.29.33-.41.14-.11.3-.18.47-.2.17-.03.31.03.42.17l2.94,3.85c.1.14.15.26.13.38-.02.12-.08.21-.18.29-.15.11-.34.18-.59.21l-7.71,1.14Z"/>
          <path class="cls-10" d="M193.97,27.81l2.23,2.92c.1.13.12.28.05.45-.07.17-.17.3-.31.4s-.29.17-.47.19c-.18.02-.32-.03-.42-.17l-3.21-4.2c-.1-.14-.15-.26-.13-.38.02-.12.08-.21.19-.3.15-.11.34-.18.56-.21l7.72-1.14-1.96-2.56c-.1-.14-.12-.28-.06-.44.06-.15.17-.29.33-.41.14-.11.3-.18.47-.2.17-.03.31.03.42.17l2.94,3.85c.1.14.15.26.13.38-.02.12-.08.21-.18.29-.15.11-.34.18-.59.21l-7.71,1.14Z"/>
        </g>
        <g>
          <path class="cls-10" d="M173.88,37.59l2.5,3.26c.12.15.13.32.05.51-.08.19-.19.33-.34.45s-.33.19-.53.22c-.2.03-.36-.03-.48-.18l-3.6-4.7c-.12-.15-.16-.29-.14-.42.02-.13.09-.24.21-.33.17-.13.38-.2.63-.23l8.65-1.28-2.19-2.87c-.12-.15-.14-.31-.07-.49.07-.17.19-.33.37-.46.16-.12.33-.2.53-.23.19-.03.34.03.47.19l3.29,4.31c.12.15.16.29.14.42-.02.13-.09.24-.2.33-.17.13-.39.21-.66.24l-8.63,1.28Z"/>
          <path class="cls-10" d="M173.88,37.59l2.5,3.26c.12.15.13.32.05.51-.08.19-.19.33-.34.45s-.33.19-.53.22c-.2.03-.36-.03-.48-.18l-3.6-4.7c-.12-.15-.16-.29-.14-.42.02-.13.09-.24.21-.33.17-.13.38-.2.63-.23l8.65-1.28-2.19-2.87c-.12-.15-.14-.31-.07-.49.07-.17.19-.33.37-.46.16-.12.33-.2.53-.23.19-.03.34.03.47.19l3.29,4.31c.12.15.16.29.14.42-.02.13-.09.24-.2.33-.17.13-.39.21-.66.24l-8.63,1.28Z"/>
        </g>
      </g>
    </g>
  </g>
</svg>