<?xml version="1.0" encoding="UTF-8"?>
<svg id="_圖層_2" data-name="圖層 2" xmlns="http://www.w3.org/2000/svg" viewBox="0 0 85.31 76.16">
  <defs>
    <style>
      .cls-1 {
        fill: #f2f2f2;
      }
    </style>
  </defs>
  <g id="_圖層_1-2" data-name="圖層 1">
    <g>
      <rect class="cls-1" x="27.82" y="41.84" width="14.86" height="3.06" rx="1.53" ry="1.53" transform="translate(22.5 97.78) rotate(-127.71)"/>
      <rect class="cls-1" x="31.16" y="36.28" width="22.57" height="3.06" rx="1.53" ry="1.53" transform="translate(38.49 94.51) rotate(-127.71)"/>
      <rect class="cls-1" x="42.21" y="30.71" width="14.86" height="3.06" rx="1.53" ry="1.53" transform="translate(54.49 91.24) rotate(-127.71)"/>
      <path class="cls-1" d="M0,51.11c-.02-.68.3-1.32.88-1.7,8.95-5.94,18.96-2.12,27.79,1.25,9.38,3.58,17.49,6.68,24.62,1.16,5.46-4.22,6-10.34,5.8-15.76-.1-2.65-.4-5.42-.73-8.36-.3-2.73-.61-5.54-.71-8.34h0c-.21-5.88.33-13.35,6.5-18.87.41-.36.95-.54,1.48-.49.53.05,1.02.32,1.35.74.05.07.1.14.14.21.16.27.24.57.26.89.02.58-.21,1.14-.64,1.53-4.61,4.21-5,10.29-4.83,15.12.1,2.64.39,5.34.71,8.19.3,2.73.61,5.56.72,8.36.43,11.98-3.88,16.9-7.68,19.84-9.29,7.18-19.78,3.18-29.04-.36-8.59-3.28-16.7-6.38-23.6-1.88-.86.56-1.98.38-2.61-.42-.05-.07-.1-.14-.14-.21-.16-.28-.25-.58-.26-.89Z"/>
      <path class="cls-1" d="M17.93,74.31c-.02-.58.21-1.14.64-1.53,4.61-4.21,5-10.29,4.83-15.12-.1-2.64-.39-5.34-.71-8.19-.3-2.73-.62-5.56-.72-8.36h0c-.43-11.98,3.88-16.89,7.68-19.83,9.29-7.19,19.78-3.18,29.04.35,8.59,3.28,16.7,6.37,23.6,1.88.86-.56,1.98-.38,2.6.42.05.07.1.14.14.21.16.28.25.58.26.89.02.68-.3,1.32-.88,1.7-8.95,5.94-18.96,2.12-27.79-1.25-9.38-3.58-17.49-6.68-24.62-1.16-5.46,4.22-6,10.34-5.8,15.76.1,2.65.4,5.42.73,8.36.3,2.73.61,5.55.72,8.35.21,5.88-.33,13.34-6.5,18.86-.41.36-.95.54-1.49.49-.53-.05-1.02-.32-1.35-.74-.05-.06-.1-.13-.14-.21-.16-.27-.24-.57-.25-.89Z"/>
    </g>
  </g>
</svg>