<?xml version="1.0" encoding="UTF-8"?>
<svg id="_圖層_2" data-name="圖層 2" xmlns="http://www.w3.org/2000/svg" viewBox="0 0 133.35 118.89">
  <defs>
    <style>
      .cls-1 {
        fill: #ede9da;
      }

      .cls-2 {
        fill: #fff;
      }
    </style>
  </defs>
  <g id="_參考線" data-name="參考線">
    <g>
      <path class="cls-2" d="M114.27,77.64c.33-.45.92-.65,1.48-.47.69.22,1.07.96.84,1.65l-11.26,34.17c-.23.69-.97,1.06-1.66.84-.69-.23-1.07-.97-.84-1.65l11.26-34.17c.04-.13.11-.26.19-.37Z"/>
      <path class="cls-1" d="M103.67,113.83c.69.22,1.44-.15,1.66-.84l6-18.21c.04-.46-.29-1.44-1.15-1.53-.86-.09-1.41.87-1.41.87l-5.95,18.06c-.23.69.15,1.43.84,1.65Z"/>
      <path class="cls-1" d="M86.53,54.08c.4-.55,1.17-.7,1.76-.34.62.38.81,1.19.42,1.81l-18.18,28.99c-.39.62-1.2.8-1.82.42-.62-.38-.81-1.19-.42-1.81l18.18-28.99s.04-.05.06-.08Z"/>
      <path class="cls-2" d="M70.53,84.54l10.03-15.99s-.84.61-1.57.14c-.91-.59-.57-1.69-.57-1.69l-10.13,16.15c-.38.61-.2,1.42.42,1.81.62.38,1.43.2,1.82-.42Z"/>
      <path class="cls-1" d="M.43,39.91c.6-.81,1.7-1.15,2.68-.74,7.91,3.29,17.08,3.89,25,4.04,6.46.12,13.27-.17,21.43-.93.71-.07,1.42-.13,2.14-.2,4.11-.39,8.35-.79,12.59-.87,3.85-.07,8.86.07,13.5,1.85,7.47,2.87,12.6,9.63,15.22,20.12,1.41,5.63,2.16,11.42,2.89,17.02.49,3.8,1,7.72,1.71,11.52,1.54,8.25,4.38,18.32,12.69,23.01,1.08.61,1.45,1.97.84,3.04-.61,1.07-1.98,1.44-3.06.83-10.03-5.67-13.3-17.6-14.88-26.07-.73-3.91-1.25-7.9-1.75-11.76-.71-5.47-1.45-11.13-2.8-16.52-2.28-9.12-6.37-14.69-12.49-17.04-3.91-1.5-8.36-1.62-11.8-1.55-4.07.08-8.23.47-12.25.85-.72.07-1.43.14-2.14.2-8.21.76-15.39,1.07-21.93.95-8.35-.16-18.04-.8-26.65-4.39-1.14-.48-1.68-1.78-1.2-2.92.07-.16.16-.32.26-.45Z"/>
      <path class="cls-2" d="M28.78.91c.14-.19.32-.37.52-.51,1.02-.71,2.41-.46,3.12.54,5.86,8.31,10.23,17.99,14.15,31.41l.02.07c1.21,4.67,2.06,9.2,2.89,13.58.63,3.36,4.68,19.76,4.8,20.1,2.54,7.71,6.31,14.01,14.19,16.45,3.42,1.09,6.85.77,10.94-.04,1.66-.38,3.3-.77,4.93-1.16,10.41-2.46,20.24-4.79,31.47-5.21,1.91-.08,3.8.23,5.63.54l.11.02c4.49.99,8.24,3.94,11.45,9.01.66,1.04.34,2.42-.71,3.07-1.05.65-2.43.34-3.09-.7-2.52-3.99-5.33-6.29-8.57-7.02-1.65-.28-3.21-.54-4.65-.47-10.8.4-20.43,2.68-30.62,5.09-1.64.39-3.3.78-4.98,1.17h-.07c-4.14.84-8.61,1.4-13.2-.05-10.08-3.12-14.88-12.21-17.69-21.13-.56-1.79-3.67-15.24-4.35-18.84-.81-4.3-1.65-8.74-2.82-13.25-3.77-12.91-7.94-22.18-13.5-30.06-.57-.8-.53-1.84.03-2.59Z"/>
      <path class="cls-2" d="M81.6,47.79c.42-.57,1.21-.71,1.8-.31.6.41.76,1.22.35,1.82l-21.62,31.63c-.42.61-1.23.75-1.83.35-.6-.41-.76-1.22-.35-1.82l21.62-31.63s.02-.03.03-.04Z"/>
      <path class="cls-1" d="M81.6,47.79c.42-.57,1.21-.71,1.8-.31.6.41.76,1.22.35,1.82l-10.16,14.86s-.83.65-1.63.07c-.94-.68-.46-1.67-.46-1.67l10.07-14.73s.02-.03.03-.04Z"/>
      <path class="cls-2" d="M53.57,71.51s.03-.05.05-.07l22.98-27.31c.47-.56,1.3-.63,1.86-.17.56.46.64,1.29.17,1.85l-22.98,27.3c-.47.55-1.3.63-1.86.16-.54-.44-.63-1.22-.22-1.78Z"/>
      <path class="cls-1" d="M65.61,59.33c.66.49,1.3.16,1.64,0l11.37-13.51c.47-.55.39-1.38-.17-1.85-.56-.46-1.39-.39-1.86.17l-11.26,13.38s-.78,1.04.26,1.82Z"/>
      <path class="cls-2" d="M49.56,60.3c.05-.07,20.14-18.06,20.14-18.06.53-.49,1.37-.46,1.86.07.5.53.47,1.36-.07,1.85l-20.97,19.33s-1.34-2.7-.97-3.19Z"/>
      <path class="cls-1" d="M59.17,52.66c-.04.83.74,1.46,1.83,1.21l10.5-9.72c.53-.49.56-1.32.07-1.85-.5-.53-1.33-.56-1.86-.07l-10.27,9.5c-.18.24-.25.55-.26.92Z"/>
      <path class="cls-2" d="M40.91,24.61c.36-.49,1.03-.68,1.61-.42.66.3.95,1.08.65,1.74l-9.27,20.07c-.3.66-1.09.95-1.75.64-.66-.3-.95-1.08-.65-1.74l9.27-20.07c.04-.08.08-.16.13-.23Z"/>
      <path class="cls-1" d="M32.14,46.64c.66.3,1.45.01,1.75-.64l5.34-11.55c.13-.67-.03-1.56-.63-1.83-.81-.37-1.51.43-1.69.58l-5.41,11.71c-.3.66-.01,1.43.65,1.74Z"/>
      <path class="cls-2" d="M36.73,17.36c.42-.57,1.22-.71,1.81-.31.6.41.76,1.22.35,1.82l-18.35,26.85c-.41.6-1.23.75-1.83.35-.6-.41-.76-1.22-.35-1.82l18.35-26.85s.02-.03.03-.04Z"/>
      <path class="cls-1" d="M20.54,45.72l10.61-15.53c.19-.53.28-1.3-.44-1.82-.65-.47-1.46.12-1.81.45l-10.54,15.42c-.41.6-.25,1.41.35,1.82.6.41,1.42.26,1.83-.35Z"/>
      <path class="cls-2" d="M6.79,41.57s.04-.06.07-.08l26.85-30.89c.48-.55,1.31-.61,1.86-.14.55.47.62,1.3.14,1.85l-26.85,30.89c-.48.55-1.31.61-1.86.14-.53-.45-.61-1.22-.2-1.76Z"/>
      <path class="cls-1" d="M8.85,43.2l16.39-18.85s.3-1.05-.36-1.61c-.66-.57-1.27-.33-1.54-.21L6.85,41.49s-.05.06-.07.08c-.4.55-.32,1.32.2,1.76.55.47,1.38.41,1.86-.14Z"/>
      <path class="cls-2" d="M125.13,80.64c.38-.52,1.09-.69,1.68-.39.64.34.89,1.13.55,1.77l-18,33.95c-.34.64-1.14.89-1.78.55-.64-.34-.89-1.13-.55-1.77l18-33.95c.03-.06.06-.11.1-.16Z"/>
      <path class="cls-1" d="M107.58,116.52c.64.34,1.44.09,1.78-.55l10.11-19.08c-.06-.88-.55-1.81-1.48-1.64-.35.07-.62.24-.87.45l-10.09,19.04c-.34.64-.09,1.43.55,1.77Z"/>
      <path class="cls-2" d="M105.83,78.43c.34-.47.97-.67,1.54-.45.68.26,1.02,1.02.76,1.69l-8.91,22.96c-.26.68-1.03,1.01-1.71.75-.68-.26-1.02-1.02-.76-1.69l8.91-22.96c.04-.11.1-.21.17-.3Z"/>
      <path class="cls-1" d="M97.51,103.39c.68.26,1.44-.08,1.71-.75l5.18-13.35c.02-.32-.22-1.25-.79-1.44-.89-.31-1.48.32-1.72.65l-5.12,13.2c-.26.67.08,1.43.76,1.69Z"/>
      <path class="cls-2" d="M89.52,62.05c.37-.5,1.05-.68,1.63-.41.66.31.94,1.09.62,1.75l-10.39,21.63c-.31.65-1.1.93-1.76.62-.66-.31-.94-1.09-.62-1.75l10.39-21.63c.04-.08.08-.15.13-.21Z"/>
      <path class="cls-1" d="M85.06,74.5c.92.53,1.52-.3,1.52-.3l5.19-10.81c.31-.65.04-1.44-.62-1.75-.58-.28-1.27-.09-1.63.41-.05.06-.09.14-.13.21l-5.1,10.61s-.26,1.04.76,1.62Z"/>
    </g>
  </g>
</svg>