<?xml version="1.0" encoding="UTF-8"?>
<svg id="_圖層_2" data-name="圖層 2" xmlns="http://www.w3.org/2000/svg" viewBox="0 0 85.57 75.69">
  <defs>
    <style>
      .cls-1 {
        fill: #f2f2f2;
      }
      @keyframes spin {
        to { transform: rotate(360deg); }
      }
      .spin {
        transform-box: fill-box;
        transform-origin: center center;
        animation: spin 10s linear infinite;
      }
    </style>
  </defs>
  <g id="_圖層_1-2" data-name="圖層 1">
    <g class="spin">
      <rect class="cls-1" x="28.31" y="30.55" width="14.86" height="3.06" rx="1.53" ry="1.53" transform="translate(-11.41 41.21) rotate(-52.87)"/>
      <rect class="cls-1" x="31.7" y="36.04" width="22.57" height="3.06" rx="1.53" ry="1.53" transform="translate(-12.91 49.17) rotate(-52.87)"/>
      <rect class="cls-1" x="42.81" y="41.53" width="14.86" height="3.06" rx="1.53" ry="1.53" transform="translate(-14.42 57.13) rotate(-52.87)"/>
      <path class="cls-1" d="M19.04.09c.65-.2,1.35-.05,1.87.4,8.08,7.08,7.01,17.74,6.06,27.15-1,9.99-1.87,18.62,5.32,24.07,5.5,4.17,11.54,3.08,16.73,1.48,2.53-.78,5.13-1.81,7.87-2.89,2.55-1,5.19-2.04,7.87-2.87h0c5.62-1.74,12.97-3.17,19.91,1.34.46.3.77.77.86,1.3.09.53-.04,1.07-.36,1.5-.05.07-.1.13-.16.19-.22.22-.49.39-.79.48-.56.17-1.16.09-1.65-.22-5.27-3.35-11.24-2.14-15.86-.71-2.52.78-5.05,1.78-7.72,2.83-2.56,1.01-5.2,2.05-7.88,2.88-11.45,3.55-17.32.68-21.16-2.23-9.36-7.09-8.24-18.26-7.25-28.12.92-9.15,1.79-17.78-4.36-23.27-.77-.69-.88-1.82-.27-2.63.05-.07.11-.13.16-.19.22-.23.49-.39.8-.49Z"/>
      <path class="cls-1" d="M1.34,23.47c.56-.17,1.16-.09,1.65.22,5.27,3.35,11.24,2.14,15.86.71,2.52-.78,5.05-1.78,7.72-2.83,2.56-1.01,5.2-2.05,7.88-2.88h0c11.45-3.55,17.32-.68,21.15,2.23,9.37,7.09,8.24,18.26,7.25,28.12-.92,9.15-1.78,17.78,4.36,23.27.77.69.89,1.82.27,2.63-.05.07-.11.13-.16.19-.22.23-.49.39-.8.48-.65.2-1.35.05-1.87-.4-8.08-7.08-7.01-17.74-6.06-27.15,1-9.99,1.87-18.62-5.32-24.07-5.5-4.17-11.54-3.08-16.73-1.48-2.53.78-5.13,1.81-7.87,2.89-2.55,1-5.19,2.04-7.87,2.87-5.62,1.74-12.96,3.17-19.91-1.34-.46-.3-.77-.77-.86-1.31-.09-.53.04-1.07.36-1.5.05-.07.1-.13.16-.19.22-.22.49-.38.79-.48Z"/>
    </g>
  </g>
</svg>