<?xml version="1.0" encoding="UTF-8"?>
<svg id="_圖層_2" data-name="圖層 2" xmlns="http://www.w3.org/2000/svg" viewBox="0 0 134.83 117.94">
  <defs>
    <style>
      .cls-1 {
        fill: #ede9da;
      }

      .cls-2 {
        fill: #fff;
      }
      @keyframes spin {
        to { transform: rotate(360deg); }
      }
      .spin {
        transform-box: fill-box;
        transform-origin: center center;
        animation: spin 14s linear infinite;
      }
    </style>
  </defs>
  <g id="_參考線" data-name="參考線">
    <g class="spin">
      <path class="cls-2" d="M38.76,101.7c.35.43.4,1.05.09,1.55-.39.61-1.2.8-1.81.41l-30.3-19.4c-.61-.39-.79-1.21-.4-1.82.39-.61,1.2-.8,1.81-.41l30.3,19.4c.12.08.22.17.31.27Z"/>
      <path class="cls-1" d="M6.34,82.43c-.39.61-.21,1.43.4,1.82l16.15,10.34c.44.15,1.47.08,1.77-.73.3-.81-.49-1.58-.49-1.58l-16.02-10.26c-.61-.39-1.42-.21-1.81.41Z"/>
      <path class="cls-1" d="M68.47,80.69c.43.53.39,1.31-.11,1.79-.53.5-1.35.49-1.85-.04l-23.56-24.82c-.5-.53-.48-1.36.05-1.86.52-.5,1.35-.49,1.85.04l23.56,24.82s.04.05.07.07Z"/>
      <path class="cls-2" d="M42.95,57.62l13,13.69s-.39-.96.25-1.55c.79-.73,1.78-.13,1.78-.13l-13.13-13.83c-.5-.53-1.33-.54-1.85-.04-.52.5-.55,1.33-.05,1.86Z"/>
      <path class="cls-1" d="M103.61.81c.64.78.69,1.93.05,2.78-5.16,6.85-8.01,15.58-10.13,23.22-1.72,6.23-3.13,12.9-4.43,20.98-.11.71-.23,1.41-.34,2.12-.64,4.07-1.31,8.29-2.28,12.41-.88,3.75-2.27,8.57-5.15,12.62-4.63,6.53-12.46,9.81-23.27,9.74-5.81-.03-11.6-.74-17.21-1.43-3.8-.47-7.73-.95-11.58-1.2-8.37-.56-18.83-.31-25.45,6.57-.86.89-2.27.92-3.15.06-.88-.86-.91-2.28-.05-3.17,7.98-8.31,20.35-8.51,28.95-7.94,3.97.26,7.96.75,11.82,1.23,5.48.67,11.14,1.37,16.7,1.4,9.4.05,15.81-2.52,19.61-7.86,2.43-3.42,3.64-7.7,4.43-11.04.94-3.96,1.59-8.09,2.22-12.08.11-.71.22-1.42.34-2.13,1.31-8.15,2.79-15.17,4.53-21.47,2.23-8.05,5.26-17.28,10.87-24.73.74-.99,2.14-1.18,3.12-.44.14.11.27.23.38.36Z"/>
      <path class="cls-2" d="M134.33,37.97c.15.18.28.4.36.63.43,1.16-.15,2.45-1.3,2.89-9.5,3.61-19.97,5.43-33.94,5.89h-.07c-4.82.01-9.42-.29-13.87-.58-3.41-.22-20.3-.37-20.66-.35-8.1.54-15.14,2.63-19.46,9.65-1.9,3.05-2.45,6.44-2.68,10.61-.04,1.7-.07,3.39-.1,5.06-.2,10.7-.39,20.8-2.78,31.78-.4,1.87-1.17,3.63-1.93,5.32l-.05.1c-2.08,4.11-5.86,7-11.57,8.85-1.17.38-2.43-.27-2.8-1.45-.37-1.18.28-2.44,1.45-2.82,4.49-1.45,7.42-3.6,8.93-6.55.68-1.53,1.32-2.98,1.61-4.38,2.3-10.56,2.48-20.45,2.68-30.92.03-1.69.06-3.39.11-5.12v-.07c.23-4.22.8-8.69,3.35-12.77,5.53-8.99,15.52-11.38,24.86-11.88,1.87-.1,15.68.23,19.33.47,4.36.28,8.88.58,13.54.57,13.44-.45,23.46-2.17,32.48-5.6.92-.35,1.92-.05,2.51.67Z"/>
      <path class="cls-2" d="M75.8,77.47c.45.55.38,1.35-.15,1.83-.54.48-1.37.43-1.85-.11l-25.27-28.81c-.49-.56-.42-1.38.12-1.86.54-.48,1.37-.43,1.85.11l25.27,28.81s.02.02.03.03Z"/>
      <path class="cls-1" d="M75.8,77.47c.45.55.38,1.35-.15,1.83-.54.48-1.37.43-1.85-.11l-11.87-13.53s-.42-.96.34-1.6c.89-.74,1.73-.03,1.73-.03l11.77,13.42s.02.02.03.03Z"/>
      <path class="cls-2" d="M59.79,44.43s.04.04.05.07l20.74,29.05c.42.59.29,1.41-.3,1.84-.59.43-1.41.29-1.83-.3l-20.73-29.05c-.42-.59-.29-1.41.3-1.84.56-.41,1.34-.3,1.78.23Z"/>
      <path class="cls-1" d="M68.59,59.12c-.64.52-.48,1.22-.41,1.59l10.26,14.38c.42.59,1.24.72,1.83.3.59-.43.72-1.25.3-1.84l-10.16-14.23s-.82-1.01-1.83-.2Z"/>
      <path class="cls-2" d="M71.64,43.33c.05.06,12.48,24,12.48,24,.34.64.11,1.44-.53,1.79-.64.35-1.43.11-1.78-.52l-13.51-25.12s2.94-.62,3.33-.15Z"/>
      <path class="cls-1" d="M76.65,54.54c-.8-.24-1.6.36-1.63,1.47l6.8,12.59c.34.64,1.14.87,1.78.52.64-.35.87-1.15.53-1.79l-6.65-12.31c-.19-.23-.47-.38-.83-.49Z"/>
      <path class="cls-2" d="M108.36,43.82c.39.47.4,1.17,0,1.67-.46.57-1.28.65-1.84.2l-17.13-13.97c-.56-.46-.65-1.29-.19-1.85.46-.57,1.28-.65,1.84-.2l17.13,13.97c.07.06.13.12.19.19Z"/>
      <path class="cls-1" d="M89.2,29.86c-.46.57-.37,1.4.19,1.85l9.86,8.04c.62.29,1.52.35,1.93-.16.56-.7-.04-1.56-.14-1.78l-9.99-8.15c-.56-.46-1.39-.37-1.84.2Z"/>
      <path class="cls-2" d="M116.42,41.58c.45.55.38,1.35-.15,1.83-.54.48-1.37.43-1.85-.11l-21.44-24.45c-.48-.55-.42-1.38.12-1.86.54-.48,1.37-.43,1.85.11l21.44,24.45s.02.02.03.04Z"/>
      <path class="cls-1" d="M92.98,18.84l12.4,14.14c.47.32,1.19.59,1.87.03.62-.51.24-1.45.01-1.87l-12.32-14.05c-.48-.54-1.31-.59-1.85-.11-.54.48-.6,1.31-.12,1.86Z"/>
      <path class="cls-2" d="M100.41,6.55s.04.06.06.09l23.25,33.69c.41.6.26,1.42-.33,1.83-.59.42-1.41.27-1.82-.33l-23.24-33.69c-.41-.6-.26-1.42.33-1.83.56-.4,1.33-.28,1.76.24Z"/>
      <path class="cls-1" d="M98.32,8.15l14.19,20.56s.94.55,1.65.05c.72-.5.63-1.15.59-1.44l-14.27-20.68s-.04-.06-.06-.09c-.43-.53-1.19-.64-1.76-.24-.59.42-.74,1.24-.33,1.83Z"/>
      <path class="cls-2" d="M33.16,111.48c.41.5.4,1.23-.04,1.72-.49.54-1.32.58-1.85.09L2.85,87.42c-.54-.49-.58-1.32-.09-1.86.49-.54,1.32-.58,1.85-.1l28.41,25.87s.09.09.13.14Z"/>
      <path class="cls-1" d="M2.76,85.56c-.49.54-.45,1.37.09,1.86l15.97,14.54c.86.16,1.9-.09,1.95-1.03.02-.35-.07-.66-.22-.96l-15.94-14.51c-.54-.49-1.36-.44-1.85.1Z"/>
      <path class="cls-2" d="M40.09,93.32c.37.45.4,1.11.05,1.6-.42.59-1.24.73-1.83.31l-20.03-14.34c-.59-.42-.72-1.25-.3-1.84.42-.59,1.24-.73,1.83-.31l20.03,14.34c.1.07.18.15.25.24Z"/>
      <path class="cls-1" d="M17.98,79.06c-.42.59-.29,1.42.3,1.84l11.64,8.34c.3.1,1.26.1,1.6-.41.52-.79.06-1.51-.2-1.83l-11.51-8.24c-.59-.42-1.41-.28-1.83.31Z"/>
      <path class="cls-2" d="M60.01,81.6c.39.48.4,1.19-.01,1.68-.47.56-1.29.63-1.85.17l-18.37-15.44c-.56-.47-.63-1.3-.16-1.86.46-.56,1.29-.63,1.85-.17l18.37,15.44c.06.05.12.11.17.17Z"/>
      <path class="cls-1" d="M49.06,74.19c-.74.76-.09,1.55-.09,1.55l9.18,7.71c.56.47,1.38.39,1.85-.17.41-.5.4-1.2.01-1.68-.05-.06-.11-.12-.17-.17l-9.01-7.58s-.94-.51-1.76.34Z"/>
    </g>
  </g>
</svg>