<?xml version="1.0" encoding="UTF-8"?>
<svg xmlns="http://www.w3.org/2000/svg" xmlns:xlink="http://www.w3.org/1999/xlink" viewBox="0 0 204.55 204.56">
  <defs>
    <style>
      .cls-1, .cls-2, .cls-3 {
        fill: none;
      }

      .cls-5 {
        isolation: isolate;
      }

      .cls-6 {
        fill: #bca779;
      }

      .cls-7 {
        fill: #f4c7b5;
      }

      .cls-2 {
        stroke: #edecf3;
        stroke-width: 1.89px;
      }

      .cls-2, .cls-3 {
        stroke-linecap: round;
        stroke-miterlimit: 10;
      }

      .cls-8 {
        fill: #fff;
      }

      .cls-9 {
        fill: #fffaf7;
      }

      .cls-10 {
        fill: #0f0f0f;
        mix-blend-mode: soft-light;
        opacity: .46;
      }

      .cls-11 {
        fill: #fdd2c1;
      }

      .cls-12 {
        fill: #5e5748;
      }

      .cls-3 {
        stroke: #5e5748;
        stroke-width: 2.2px;
      }

      .cls-13 {
        fill: #feffff;
      }

      .cls-14 {
        clip-path: url(#clippath);
      }

      .cls-15 {
        fill: #efe8ca;
      }
      .start-1{animation:blink-1 5s both infinite -.5s}
      .start-2{animation:blink-1 5s both infinite -.25s}
      .start-3{animation:blink-1 5s both infinite -1s}
      @keyframes blink-1{0%,50%,100%{opacity:1}25%,75%{opacity:0}}
    </style>
    <clipPath id="clippath">
      <path class="cls-1" d="M204.55,102.28c0,46.85-31.52,86.36-74.52,98.47-8.83,2.48-18.14,3.81-27.76,3.81-14.71,0-28.69-3.11-41.32-8.7C25.05,179.98,0,144.05,0,102.28,0,45.79,45.79,0,102.27,0c56.49,0,102.28,45.79,102.28,102.28Z"/>
    </clipPath>
  </defs>
  <g class="cls-5">
    <g id="_圖層_2" data-name="圖層 2">
      <g id="_圖層_1-2" data-name="圖層 1">
        <g>
          <g class="cls-4">
            <path class="cls-6" d="M204.55,102.28c0,46.85-31.52,86.36-74.52,98.47-8.83,2.48-18.14,3.81-27.76,3.81-14.71,0-28.69-3.11-41.32-8.7C25.05,179.98,0,144.05,0,102.28,0,45.79,45.79,0,102.27,0c56.49,0,102.28,45.79,102.28,102.28Z"/>
            <g>
              <path class="cls-8" d="M45.68,31.39h8.89v3.03h-8.89v-3.03ZM46.17,35.2h7.81v2.64h-7.81v-2.64ZM46.17,38.72h7.81v2.64h-7.81v-2.64ZM46.37,50.74v-8.5h7.52v8.5h-2.74v-1.07h-1.95v1.07h-2.83ZM46.56,27.88h7.13v2.64h-7.13v-2.64ZM49.2,45.07v1.95h1.95v-1.95h-1.95ZM62,32.47h3.03v.78c-.07.33-.1.59-.1.78.65,1.82,2.21,3.03,4.69,3.61-.52,1.11-.94,2.15-1.27,3.13-2.28-.72-3.81-1.76-4.59-3.13-.85,1.24-2.28,2.31-4.3,3.22h8.99v9.87h-3.61v-1.17h-5.57v1.17h-3.61v-9.87h3.71c-.13-.33-.46-.91-.98-1.76-.2-.39-.36-.68-.49-.88-.2.39-.42.98-.68,1.76-.07.33-.13.55-.2.68l-2.93-1.37c.26-.65.65-1.6,1.17-2.83.46-1.24.81-2.18,1.07-2.83l2.83,1.17c-.13.33-.33.82-.59,1.47-.26.72-.46,1.24-.59,1.56,2.47-.85,3.78-2.12,3.91-3.81.06-.59.1-1.11.1-1.56ZM54.47,28.27h4.59v2.54c.65-1.04,1.11-2.18,1.37-3.42l3.32.2-.39,1.17h5.96v3.13l-1.17,3.13-2.74-.98.88-2.15h-4.2c-.26.59-.75,1.43-1.47,2.54-.2.26-.33.46-.39.59-.26-.2-.68-.52-1.27-.98-.65-.45-1.11-.78-1.37-.98.46-.59.88-1.17,1.27-1.76h-4.4v-3.03ZM59.26,44.09v2.34h5.57v-2.34h-5.57Z"/>
              <path class="cls-8" d="M75.89,31.39h9.57v1.56c1.17-1.63,2.12-3.52,2.83-5.67l3.71.39c-.26.78-.55,1.5-.88,2.15h7.91c-.07,7.36-.16,12.86-.29,16.51.13,2.8-1.07,4.17-3.61,4.1-.65.06-1.6.1-2.83.1-.07-.39-.23-1.04-.49-1.95-.13-.46-.23-.81-.29-1.07h-5.37v-11.14l-1.66-1.95h-8.6v-3.03ZM76.47,35.2h8.3v2.64h-8.3v-2.64ZM76.47,38.62h8.3v2.74h-8.3v-2.74ZM76.57,50.64v-8.5h8.21v8.5h-3.03v-.98h-2.15v.98h-3.03ZM76.96,27.78h7.52v2.64h-7.52v-2.64ZM79.6,45.07v1.86h2.15v-1.86h-2.15ZM94.25,34.71v12.6c.72-.06,1.11-.59,1.17-1.56.06-2.28.1-6.48.1-12.6h-6.06c-.13.26-.33.59-.59.98-.2.26-.33.46-.39.59h5.76ZM89.27,37.84v1.86h1.86v-1.86h-1.86ZM89.27,44.48h1.86v-1.95h-1.86v1.95Z"/>
              <path class="cls-8" d="M106.39,31.2v-2.74h9.48v-1.17h3.71v1.17h9.57v2.74h-9.57v.88h8.21v7.52h-1.37c1.11.98,2.18,1.99,3.22,3.03l-2.34,1.47h2.15v2.74h-4.69v.68c.06,1.89-.98,2.86-3.13,2.93-.91.06-2.48.1-4.69.1,0-.13-.03-.33-.1-.59-.2-1.04-.39-1.73-.59-2.05h3.42c.85,0,1.27-.36,1.27-1.07h-8.21c.26.2.62.46,1.07.78.52.33.88.59,1.07.78l-2.93,2.15c-.52-.52-1.4-1.34-2.64-2.44.91.78.81.72-.29-.2l1.56-1.07h-4.59v-2.74h14.95v-1.07c-3.19,0-8.08.07-14.65.2l-.29-2.74h9.87v-.88h-8.21v-7.52h8.21v-.88h-9.48ZM111.37,34.23v.78h4.49v-.78h-4.49ZM111.37,36.57v.88h4.49v-.88h-4.49ZM124.07,34.23h-4.49v.78h4.49v-.78ZM124.07,37.45v-.88h-4.49v.88h4.49ZM123.68,40.48c0-.06-.07-.16-.2-.29-.07-.06-.13-.13-.2-.2l.59-.39h-4.3v.88h4.1ZM125.82,42.92h-1.07v1.17h2.05c-.26-.39-.59-.78-.98-1.17Z"/>
              <path class="cls-8" d="M156.42,36.08l1.95,2.93c-.2.13-.49.29-.88.49-.52.26-1.37.65-2.54,1.17.72,2.54,2.31,4.49,4.79,5.86-.46.46-1.07,1.21-1.86,2.25-.33.33-.55.59-.68.78-2.54-1.69-4.33-4.2-5.37-7.52l-.68.29c.26,1.17.39,2.38.39,3.61.06,3.06-1.27,4.56-4.01,4.49-1.04.06-2.25.1-3.61.1-.2-.91-.42-1.82-.68-2.74-1.82.72-3.84,1.43-6.06,2.15-.46-1.11-.94-2.12-1.47-3.03,4.3-.91,8.11-2.44,11.43-4.59l-.2-.59c-2.54,1.43-5.73,2.74-9.57,3.91-.39-.98-.88-2.02-1.47-3.13,3.78-.65,6.97-1.69,9.57-3.13l-.39-.49c-2.02.85-4.46,1.6-7.33,2.25-.2-.52-.55-1.27-1.07-2.25-.2-.39-.33-.65-.39-.78,3.71-.39,6.67-1.04,8.89-1.95h-4.1v-2.74h13.38v2.74h-3.52c-.26.13-.62.33-1.07.59-.65.33-1.14.59-1.46.78.52.59.98,1.21,1.37,1.86,2.21-1.04,4.43-2.15,6.64-3.32ZM145.77,27.29h3.91v1.86h9.28v6.15h-3.91v-2.93h-14.75v2.93h-3.81v-6.15h9.28v-1.86ZM147.82,45.36c-1.3.85-2.64,1.56-4,2.15.26.07.65.07,1.17,0h.78c1.5.07,2.18-.49,2.05-1.66v-.49Z"/>
            </g>
          </g>
          <g class="cls-14">
            <g>
              <g>
                <path class="cls-12" d="M130.35,90.26l-11.16,2.18v30.14c13.72-13.98,11.16-32.32,11.16-32.32Z"/>
                <path class="cls-11" d="M71.15,89.42c2.15-13.56,15.65-36.24,39.65-22.28,7.55,4.39,10.77,12.4,12.3,20.71,1.07,5.8-.99,59.54-.99,59.54-1.67,21.11-34.62,24.29-36.74-.15l.64-15.19c-17.38-5.58-17.27-27.41-14.86-42.64Z"/>
                <path class="cls-10" d="M86.01,132.06s9.82,3.28,28.34-8.23c0,0-10.07,14.98-28.91,21.21l.57-12.98Z"/>
                <path class="cls-11" d="M135.53,96.58c-.61-5.18-5.36-8.91-10.62-8.34-5.26.57-9.03,5.23-8.42,10.41.61,5.18,5.36,8.91,10.62,8.34,5.26-.57,9.03-5.23,8.42-10.41Z"/>
                <path class="cls-12" d="M127.71,93.51c-3.94,1.05-4.73,1.48-5.77,5.52-1.97-4.07,1.85-7.44,5.77-5.52h0Z"/>
                <g>
                  <path class="cls-12" d="M98.4,86.91c-.49.69-1.89.54-3.12-.33-1.23-.88-1.83-2.15-1.34-2.84.49-.69,1.89-.54,3.12.34,1.23.88,1.83,2.15,1.34,2.84Z"/>
                  <path class="cls-12" d="M81.01,83.1c.51.69-.08,1.95-1.3,2.82-1.23.87-2.63,1.02-3.13.33-.51-.69.08-1.95,1.3-2.82,1.22-.87,2.63-1.02,3.13-.33Z"/>
                  <path class="cls-10" d="M115.31,108.16c0,5.52-4.48,10-10,10s-10-4.48-10-10,4.48-10,10-10,10,4.48,10,10Z"/>
                  <path class="cls-8" d="M92.54,104.76c-1.84,5.79-6.6,7.47-9.01.18l9.01-.18Z"/>
                  <path class="cls-12" d="M78.2,93.14c-.07,1.04.36,1.91.96,1.95.6.04,1.14-.77,1.21-1.81s-.36-1.91-.96-1.95c-.6-.04-1.14.77-1.21,1.81Z"/>
                  <path class="cls-12" d="M93.61,93.67c-.07,1.04.36,1.91.96,1.95.6.04,1.14-.77,1.21-1.81.07-1.04-.36-1.91-.96-1.95-.6-.04-1.14.77-1.21,1.81Z"/>
                  <path class="cls-10" d="M70.37,95.54c-.62,6.54-.58,13.65,1.07,19.93,5.01-.55,8.9-4.78,8.9-9.94,0-5.51-4.46-9.98-9.97-10Z"/>
                  <path class="cls-12" d="M86.11,92.2c-.57,2.82-1.82,5.32-3.34,7.71,0,0-.42-1-.42-1,1.75.63,3.49,1.3,5.17,2.2-1.9-.12-3.73-.48-5.55-.87l-.78-.17c1.21-2.89,2.68-5.63,4.92-7.88h0Z"/>
                </g>
                <path class="cls-12" d="M103.44,63.99s-19.17,17.01-29.69,13.14c0,0,8.91-24.13,31.15-17.02,1.62.52,3.27.97,4.94,1.33,6.07,1.32,21.58,6.76,20.58,27.81,0,0-3.76-2.14-7.5-.38-1.33.63-5.1,2.94-5.1,2.94,0,0-14.07-10.05-14.38-27.83Z"/>
              </g>
              <path class="cls-15" d="M136.54,273.95c33.97-15.42-12.96-129.03-14.02-132.23-2.81,2.19-21.73,18.18-21.73,18.18,0,0-10.43-11.13-15.73-17.03-4.6,3.64-7.61,7.15-12.07,13.92-19.88,30.16-20.5,65.54-17.23,100.65.38,4.14,1.18,8.73,4.77,11.26,2.43,1.71,5.65,2.09,8.71,2.37,0,0,28.05,4.45,37.51,5.07,7.45.49,25.21-.11,29.79-2.19Z"/>
              <path class="cls-12" d="M117.4,154.91c.22.2-1.11,2.16-3.86,4.8-2.76,2.64-6.9,5.87-12.29,8.45-.41.17-1.02.36-1.7.22-.66-.14-1.11-.49-1.43-.76-.6-.55-1.03-.99-1.53-1.49-.96-.97-1.86-1.92-2.7-2.85-1.67-1.86-3.09-3.61-4.22-5.13-2.26-3.04-3.37-5.1-3.13-5.28.26-.2,1.83,1.52,4.37,4.25,1.27,1.36,2.79,2.97,4.51,4.72.88.87,1.79,1.77,2.74,2.7.46.45,1.01.97,1.44,1.36.2.18.35.24.39.25.02,0,.13,0,.38-.09,4.93-2.37,9.21-5.33,12.11-7.56,2.93-2.25,4.66-3.8,4.91-3.57Z"/>
              <g>
                <path class="cls-7" d="M-38.15,65.41c-.64,1.64,5.92,9.57,7.92,19.08.11.92.27,1.98.48,3.16,0,0,0,0,0,0,0,0,1.26,25.86,12.51,49.59,6.51-5,13.07-9.94,19.7-14.78.4-.3.81-.59,1.22-.89-7.23-13.34-13.46-31.98-15.37-37.97-.13-.43-.26-.85-.39-1.28h.03s-1.68-8.38-1.88-9.64c-.51-3.15-.51-10.74-.51-10.74,0,0-2.06-1.08-3.25,3.86-1.19,4.94-1.81,3.31-1.81,3.31,0,0-6.82-15.13-9.51-14.98-1,.06-.53,3.34.72,5.38,1.25,2.04,2.38,5.11,2.38,5.11,0,0-7.23-11.23-9.79-10.47,0,0-1.3.56,1.05,3.93,3.26,4.67,5.23,8.76,5.23,8.76,0,0-7.68-9.27-8.94-8.84-2.1.71,5.66,10.15,6.57,13.13,0,0-5.67-7.43-6.34-5.72Z"/>
                <path class="cls-15" d="M-8.71,89.24l-22.07,13.44s8.4,51.8,24.88,66.18c16.48,14.38,78.05,24.16,78.05,24.16l12.96-50.13s-55.93,1.42-69.26-7.7c-13.33-9.12-24.55-45.95-24.55-45.95Z"/>
              </g>
              <path class="cls-9" d="M85.19,142.81s-56.02,1.5-69.35-7.62c-11.02-7.54-20.59-33.98-23.58-42.94-7.47,6.31-16.21,13.1-23.91,18.93,3.36,14.57,12.41,49.08,25.09,60.14,10.6,9.25,40.09,15.57,59.81,18.91-1.55,5.71-2.79,11.53-3.97,17.33-14.21,69.54-22.21,140.35-23.93,211.3,1.65-.02,3.3-.06,4.96-.08,7.96-.08,15.93-.05,23.89.02,2.78-47.1,6.68-94.13,11.7-141.04,1.69-15.77,3.51-31.53,5.32-47.29,2.34-20.31,4.68-40.63,7.02-60.94l6.94-26.73Z"/>
              <g>
                <path class="cls-12" d="M5,139.33c-.15-.63,2.05-1.66,4.65-2.95,2.61-1.27,4.76-2.38,5.17-1.88.4.47-1.28,2.53-4.16,3.94-2.87,1.42-5.53,1.5-5.66.89Z"/>
                <path class="cls-12" d="M12.68,143.1c-.35-.54.64-1.81,1.37-3.49.79-1.66,1.09-3.23,1.73-3.33.31-.03.65.4.8,1.2.15.79.06,1.94-.45,3.07-.51,1.12-1.32,1.95-2.02,2.36-.7.41-1.26.43-1.44.18Z"/>
              </g>
              <g>
                <path class="cls-9" d="M150.36,168.12c-2.2-7.12-2.93-13.47-8.12-18.82-5.19-5.35-13.36-7.91-19.8-7.48-1.31,92.8-4.92,187.82,6.39,279.94l40.92,2.46c2.3-12.14,2.32-24.58,2.34-36.93.1-73.71,0-148.73-21.72-219.16Z"/>
                <path class="cls-9" d="M127.55,142.08l14.35,63.06-2.26,83.52,31.03,9.68c8.13-19.39,10-48.61,11.26-71.31,1.36-24.53-15.63-78.43-54.38-84.96Z"/>
              </g>
              <g>
                <g>
                  <path class="cls-2" d="M71.1,241.44s14.06-7.26,15.88-53.98"/>
                  <path class="cls-2" d="M71.12,187.9s4.08,45.36,17.69,52.16"/>
                </g>
                <g>
                  <path class="cls-3" d="M78.39,174.51s-2.34-29.88,5.95-31.69"/>
                  <path class="cls-3" d="M71.08,188s-1.1-12.71,8.11-12.27c9.2.44,7.67,11.83,7.67,11.83"/>
                </g>
              </g>
              <path class="cls-3" d="M123.91,141.85s14.79,15.33,3.45,77.02"/>
            </g>
            <path class="cls-13 start-1" d="M165.13,135.26l5.52-2.43c1.08-.47,1.08-2,0-2.47l-5.52-2.43-2.43-5.52c-.47-1.08-2-1.08-2.47,0l-2.43,5.52-5.52,2.43c-1.08.47-1.08,2,0,2.47l5.52,2.43,2.43,5.52c.47,1.08,2,1.08,2.47,0l2.43-5.52Z"/>
            <path class="cls-13 start-2" d="M47.41,116.61l3.78-1.66c.74-.32.74-1.37,0-1.69l-3.78-1.66-1.66-3.78c-.32-.74-1.37-.74-1.69,0l-1.66,3.78-3.78,1.66c-.74.32-.74,1.37,0,1.69l3.78,1.66,1.66,3.78c.32.74,1.37.74,1.69,0l1.66-3.78Z"/>
            <path class="cls-13 start-3" d="M181.97,99.07l2.38-1.05c.46-.2.46-.86,0-1.07l-2.38-1.05-1.05-2.38c-.2-.46-.86-.46-1.07,0l-1.05,2.38-2.38,1.05c-.46.2-.46.86,0,1.07l2.38,1.05,1.05,2.38c.2.46.86.46,1.07,0l1.05-2.38Z"/>
          </g>
        </g>
      </g>
    </g>
  </g>
</svg>