<?xml version="1.0" encoding="UTF-8"?>
<svg id="_圖層_2" data-name="圖層 2" xmlns="http://www.w3.org/2000/svg" viewBox="0 0 204.55 204.56">
  <defs>
    <style>
      .cls-1 {
        fill: #eaa192;
      }

      .cls-2 {
        fill: #f6ca85;
      }

      .cls-3 {
        fill: #cba7ed;
      }

      .cls-4 {
        fill: none;
        stroke: #e88d69;
        stroke-linecap: round;
        stroke-miterlimit: 10;
        stroke-width: 1.23px;
      }

      .cls-5 {
        fill: #f4c7b5;
      }

      .cls-6 {
        fill: #f7e3e6;
      }

      .cls-7 {
        fill: #fff;
      }

      .cls-8 {
        fill: #7668f1;
        isolation: isolate;
        opacity: .33;
      }

      .cls-9 {
        fill: #5e5748;
        font-family: SourceHanSansTW-Heavy-B5pc-H, 'Source Han Sans TW';
        font-size: 25.01px;
        font-weight: 800;
        letter-spacing: .2em;
      }
    </style>
  </defs>
  <g id="_參考線" data-name="參考線">
    <g>
      <path class="cls-7" d="M204.55,102.28c0,46.85-31.52,86.36-74.52,98.47-8.83,2.48-18.14,3.81-27.76,3.81-14.71,0-28.69-3.11-41.32-8.7C25.05,179.98,0,144.05,0,102.28,0,45.79,45.79,0,102.27,0c56.49,0,102.28,45.79,102.28,102.28Z"/>
      <g id="go-2">
        <path class="cls-5" d="M146.38,133.07c-.12,5.42-.74,10.94-2.46,14.55-4.43,9.28-15.19,12.56-16.03,17.41-.55,3.15-.48,23.05-.35,36.53-6.94,1.95-14.25,2.99-21.81,2.99-11.55,0-22.54-.26-32.46-4.66l-2.71-74.87-.05-1.49-.21-5.76,15.34-.31,10.95-.21h.18s1.53-.03,1.53-.03l8.6-.17,1-.02h0s.16,0,.16,0l2.31-.05,7.85-.15,1.87-.04h.18s1.71-.04,1.71-.04h.25s4.92-.1,4.92-.1l11.03-.22,7.23-.14h.08s1.07,8.25.88,16.78Z"/>
        <g>
          <g>
            <path class="cls-3" d="M165.39,131.56c-7.39,5.92-18.21,4.23-19.05,1.43-.73-2.45-2.31-7.75-3.72-9.08-.2-.19-.4-.29-.59-.3-.88-.03-15.25.34-27.46.65v.14s-4.59.06-10.83.14c-3.87.1-6.41.17-6.41.17v-.09c-12.22.16-26.59.37-27.46.43-.17.02-.34.12-.48.31-1.17,1.43-1.67,7.52-3.46,9.24-1.86,1.76-9.26,4.22-16.17,1.04-.06-.02-.14-.06-.2-.09-.07-.03-.14-.07-.21-.11-.84-.42-1.68-.92-2.5-1.52-7.6-5.63-5.56-47.13-2.47-51.36.34-.47.79-.89,1.34-1.26.06-.05.13-.09.2-.13.06-.04.13-.09.2-.12,4.54-2.72,14.09-2.64,17.16-1.71,3.58,1.07,4.24,10.29,5.72,13.68.81,1.87,14.58,2.24,26.83,2.19h0s44.46-.19,45.8-3.63c1.34-3.45,1.64-12.68,5.18-13.9,3.53-1.22,15.76-1.64,19.02,2.48,3.25,4.11,6.92,45.5-.45,51.41Z"/>
            <path class="cls-6" d="M52.51,130.15c-.63,1.69-1.47,3.7-2.74,5.48-.06-.02-.14-.06-.2-.09-.07-.03-.14-.07-.21-.11,1.28-1.76,2.11-3.76,2.73-5.44,4.54-12.31,4.21-27-.93-40.29-.76-1.99-1.75-4.28-3.28-6.24-.64-.84-1.37-1.56-2.15-2.17.06-.05.13-.09.2-.13.06-.04.13-.09.2-.12.76.6,1.46,1.33,2.11,2.15,1.55,2,2.56,4.33,3.34,6.35,5.16,13.4,5.5,28.19.93,40.6Z"/>
            <path class="cls-6" d="M148.68,132.65s-.05,0-.07,0c-.12-.04-.19-.16-.15-.28,5.32-17.46,4.73-36.5-1.65-53.6-.04-.12.02-.25.13-.29.12-.05.25.02.29.13,6.42,17.19,7.01,36.33,1.66,53.89-.03.09-.11.16-.21.16Z"/>
          </g>
          <g>
            <path class="cls-6" d="M59.28,85.55c.21,1.37.79,2.68,1.67,3.75.29.36.64.7,1.1.81.64.15,1.32-.24,1.66-.81s.42-1.25.4-1.91c-.03-1.56-.62-4.08-2.13-4.92-1.95-1.09-2.93,1.56-2.71,3.07Z"/>
            <path class="cls-6" d="M62.57,104.69c.15.92.39,1.92,1.15,2.46.24.17.54.28.83.22.42-.09.68-.5.86-.89.95-1.98,1.25-4.22,1.18-6.41-.04-1.19-.74-8.47-3.54-6.57-1.25.85-.98,3.74-.98,5,0,2.07.16,4.14.5,6.18Z"/>
          </g>
          <path class="cls-8" d="M142.63,123.91c-.2-.19-.4-.29-.59-.3-.88-.03-15.25.34-27.46.65v.14s-4.59.06-10.83.14c-3.87.1-6.41.17-6.41.17v-.09c-12.22.16-26.59.37-27.46.43-.17.02-.34.12-.48.31.91-2.83,4.74-4.36,7.72-5.37,16.45-5.62,34.11-7.11,51.46-5.96,4.48.3,9.52,1.08,12.12,4.75,1.06,1.51,1.56,3.33,1.93,5.13Z"/>
        </g>
        <path class="cls-5" d="M71.67,94.04s-.63-8.54,6.12-9.39c6.75-.84,8.86,2,8.86,2,0,0,1.06-7.91,7.07-9.18,6.01-1.27,8.76,2.64,8.76,2.64,0,0,.95-5.27,6.65-5.91,5.7-.63,8.23,3.06,8.23,3.06,0,0,1.06-5.06,7.49-5.06s7.38,4.22,8.02,8.12c.63,3.9.74,15.19.74,20.46s-2.11,12.24-7.07,12.66c-4.96.42-6.33-2-6.33-2,0,0,1.9,11.39-5.38,10.87-7.28-.53-6.91-5.33-6.91-5.33,0,0,.47,5.96-5.85,5.43-6.33-.53-7.6-13.71-7.6-13.71,0,0-4.85,3.9-8.54-.21-3.69-4.11-7.7-12.55-7.7-12.55l-6.54-1.9Z"/>
        <g>
          <path class="cls-1" d="M130.47,104.18s0-.02,0-.03c-.25-1.48-1.63-2.6-3.06-2.85-1.48-.26-3.01.28-4.19,1.2-.67.53-1.26,1.2-1.51,2.02-.64,2.13.01,4.85,1.52,6.5.97,1.07,2.58,1.57,3.98,1.2,1.29-.34,2.45-1.56,2.78-2.84.42-1.63.77-3.5.49-5.19Z"/>
          <path class="cls-1" d="M118.68,111.75s0-.02,0-.03c-.25-1.48-1.63-2.6-3.06-2.85-1.48-.26-3.01.28-4.19,1.2-.67.53-1.26,1.2-1.51,2.02-.64,2.13.01,4.85,1.52,6.5.97,1.07,2.58,1.57,3.98,1.2,1.29-.34,2.45-1.56,2.78-2.84.42-1.63.77-3.5.49-5.19Z"/>
          <path class="cls-1" d="M85.79,101.7c.22-1.3,1.19-2.45,2.44-2.85,1.25-.4,2.74,0,3.58,1.01.5.6.76,1.37.95,2.12.37,1.47.53,2.99.68,4.5.03.27.05.57-.1.8-.13.2-.37.31-.6.39-1.05.4-2.14.69-3.26.85-.21.03-.43.06-.63-.02-.19-.07-.33-.23-.46-.38-1.41-1.65-3-4.18-2.61-6.45Z"/>
          <path class="cls-1" d="M106.53,112.46s0-.02-.01-.03c-.48-1.43-2.01-2.32-3.46-2.35-1.5-.03-2.93.74-3.96,1.83-.58.62-1.06,1.38-1.18,2.23-.3,2.21.76,4.79,2.49,6.2,1.12.9,2.79,1.15,4.12.57,1.23-.53,2.18-1.91,2.32-3.24.17-1.67.22-3.58-.31-5.21Z"/>
        </g>
        <path class="cls-5" d="M146.31,134.79s-.85-27.17-2.53-33.16c-1.32-4.7-11.39-16.99-15.66-22.06-1.31-1.55-3.66-1.69-5.1-.26-7.31,7.27,3.81,25.33,3.81,25.33l.02,9.64c-7.67,3.65-18.24,11-22.95,22.12l25.35-11.63,17.06,10.01Z"/>
        <path class="cls-4" d="M143.71,100.47c-3.67-5.61-7.44-11.16-11.54-16.46-1.37-1.77-3.44-5.83-6.04-5.6-2.41.22-4.08,3.2-4.66,5.26-.79,2.81-.42,5.92.4,8.68,2.64,8.86,5.06,12.24,5.06,12.24,0,0-.21,10.65.74,17.93"/>
        <path class="cls-1" d="M128.45,79.41c-1.55.74-2.38,2.56-2.35,4.28.03,1.72.79,3.35,1.73,4.79.84,1.29,2,2.57,3.54,2.72,1.49.15,2.84-.82,4.03-1.74.2-.15.41-.32.52-.55"/>
        <g>
          <path class="cls-6" d="M157.85,85.17c.21,1.37.79,2.68,1.67,3.75.29.36.64.7,1.1.81.64.15,1.32-.24,1.66-.81.35-.56.42-1.25.4-1.91-.03-1.56-.62-4.08-2.13-4.92-1.95-1.09-2.93,1.56-2.71,3.07Z"/>
          <path class="cls-6" d="M161.15,104.31c.15.92.39,1.92,1.15,2.46.24.17.54.28.83.22.42-.09.68-.5.86-.89.95-1.98,1.25-4.22,1.18-6.41-.04-1.19-.74-8.47-3.54-6.57-1.25.85-.98,3.74-.98,5,0,2.07.16,4.14.5,6.18Z"/>
        </g>
        <polygon class="cls-5" points="103.91 136.41 125.99 153.14 133.87 155.4 146.24 134.47 144.7 117.7 103.91 136.41"/>
        <path class="cls-4" d="M103.31,137.81s7.42-16.79,23.54-23.53"/>
        <line class="cls-4" x1="117.34" y1="77.26" x2="118.64" y2="101.88"/>
        <line class="cls-4" x1="102.47" y1="80.11" x2="107.24" y2="110.49"/>
        <path class="cls-4" d="M86.64,86.65s7.5,8.86,7.81,22.05"/>
      </g>
      <polygon id="go-1" class="cls-2" points="170.86 143.83 182.48 152.39 166.41 160.11 174.73 166.23 138.07 168.85 160.68 158.97 152.37 152.85 170.86 143.83"/>
      <polygon id="go-3" class="cls-2" points="25.31 79.38 10.89 78.89 18.71 94.91 8.39 94.56 35.52 119.34 23.91 97.57 34.23 97.92 25.31 79.38"/>
      <g id="go-4">
        <text class="cls-9" transform="translate(44.19 55.9)"><tspan x="0" y="0">諮詢專家</tspan></text>
      </g>
    </g>
  </g>
</svg>