<?xml version="1.0" encoding="UTF-8"?>
<svg xmlns="http://www.w3.org/2000/svg" viewBox="0 0 145.31 293.64">
  <defs>
    <style>
      .cls-1 {
        fill: #d8d0ab;
      }

      .cls-2 {
        stroke: #edecf3;
        stroke-width: 1.06px;
      }

      .cls-2, .cls-3 {
        fill: none;
        stroke-linecap: round;
        stroke-miterlimit: 10;
      }

      .cls-4 {
        fill: #bbb8c1;
      }

      .cls-5 {
        isolation: isolate;
      }

      .cls-6 {
        fill: #f4c7b5;
      }

      .cls-7 {
        fill: #747f95;
      }

      .cls-8 {
        fill: #fffaf7;
      }

      .cls-9 {
        fill: #0f0f0f;
        mix-blend-mode: soft-light;
        opacity: .46;
      }

      .cls-10 {
        fill: #5e5748;
      }

      .cls-11 {
        fill: #e0dee9;
      }

      .cls-3 {
        stroke: #5e5748;
        stroke-width: 1.23px;
      }

      .cls-12 {
        fill: #efe8ca;
      }
    </style>
  </defs>
  <g class="cls-5">
    <g id="_圖層_2" data-name="圖層 2">
      <g id="_圖層_1-2" data-name="圖層 1">
        <g>
          <path class="cls-1" d="M48.77,293.09c26.15.16,52.3.33,78.44.49,6.2.04,12.74,0,18.09-3.13-5.9-2.89-12.82-2.23-19.36-1.67-19.58,1.68-39.28,1.96-58.9.82-6.92-.4-14.47-.81-20.11,3.21"/>
          <g>
            <path class="cls-10" d="M64.46,42.67l41.35.48s7.1-12.58-2.46-19.52c-9.55-6.94-6.33-18.22-22.19-18.67-16.94-.48-17.55,15.02-16.57,22.7,1.05,8.27-.13,15.02-.13,15.02Z"/>
            <g>
              <path class="cls-6" d="M65.18,19.3c1.69-6.96,9.67-18.19,21.56-9.92,3.74,2.6,5.08,6.9,5.52,11.29.31,3.06-3.02,30.93-3.02,30.93-1.76,10.91-19.03,11.18-19.11-1.63l.97-7.87c-8.81-3.64-7.83-14.99-5.93-22.81Z"/>
              <path class="cls-9" d="M71.11,42.1s4.97,2.12,15.09-3.09c0,0-5.87,7.37-15.93,9.81l.84-6.73Z"/>
              <path class="cls-6" d="M98.36,25.74c-.1-2.72-2.41-4.86-5.17-4.79-2.76.08-4.92,2.34-4.82,5.06.1,2.72,2.41,4.86,5.17,4.79,2.76-.07,4.92-2.34,4.82-5.06Z"/>
              <path class="cls-10" d="M94.43,23.81c-.87.2-1.66.28-2.16.68-.52.36-.73,1.12-1.08,1.95-.86-2.18,1.3-3.8,3.23-2.63h0Z"/>
              <path class="cls-10" d="M79.78,18.45c-.07.44-.75.69-1.53.57-.78-.12-1.36-.58-1.29-1.01.07-.44.75-.69,1.53-.57.78.12,1.36.58,1.29,1.02Z"/>
              <path class="cls-10" d="M70.69,16.69c.15.42-.32.97-1.07,1.22-.74.26-1.47.13-1.62-.29-.15-.42.32-.97,1.07-1.22.74-.26,1.47-.13,1.62.29Z"/>
              <path class="cls-9" d="M87.36,30.91c-.23,2.87-2.75,5.01-5.62,4.78-2.87-.23-5.01-2.75-4.78-5.62.23-2.87,2.75-5.01,5.62-4.78,2.87.23,5.01,2.75,4.78,5.62Z"/>
              <path class="cls-10" d="M75.37,29c-.17,2-2.83,3.06-4.09,1.31-.37-.48-.54-1.04-.6-1.59,1.4,1.95,3,2.32,4.69.28h0Z"/>
              <path class="cls-10" d="M68.69,21.53c-.08.54.11,1.01.42,1.06.31.05.63-.35.71-.89.08-.54-.11-1.01-.42-1.05-.31-.05-.63.35-.71.89Z"/>
              <path class="cls-10" d="M76.68,22.46c-.08.54.11,1.01.42,1.05.31.05.63-.35.71-.89.08-.54-.11-1.01-.42-1.05s-.63.35-.71.89Z"/>
              <path class="cls-9" d="M64.51,22.45c-.6,3.38-.88,7.08-.29,10.41,2.63-.07,4.83-2.11,5.05-4.79.23-2.87-1.9-5.38-4.76-5.62Z"/>
              <path class="cls-10" d="M72.8,21.83c-.09,1.37-.53,2.62-1.14,3.82,0,0-.23-.48-.23-.48.61.23,1.2.52,1.77.89-.8.01-1.56-.11-2.32-.27.39-1.44.96-2.8,1.92-3.97h0Z"/>
            </g>
            <path class="cls-10" d="M67.27,13.73s4.37-.08,11.8-5.52c0,0-.5,14.98,10.3,14.75,0,0,1.45-1.97,3.82-2,0,0-.1-15.88-13.58-14.96,0,0-7.81-1.07-12.33,7.74Z"/>
            <path class="cls-12" d="M97.9,122.79c18.98-8.61-7.24-72.07-7.83-73.86-1.57,1.22-12.14,10.16-12.14,10.16,0,0-5.82-6.22-8.79-9.51-2.57,2.03-4.25,3.99-6.74,7.78-11.1,16.85-11.45,36.61-9.62,56.22.21,2.31.66,4.88,2.66,6.29,1.36.96,3.16,1.17,4.86,1.33,0,0,15.67,2.49,20.95,2.83,4.16.27,14.08-.06,16.64-1.22Z"/>
            <path class="cls-10" d="M87.21,56.3c.12.11-.62,1.2-2.15,2.68-1.54,1.48-3.85,3.28-6.87,4.72-.23.1-.57.2-.95.12-.37-.08-.62-.27-.8-.43-.33-.31-.57-.55-.85-.83-.54-.54-1.04-1.07-1.51-1.59-.93-1.04-1.73-2.02-2.36-2.86-1.26-1.7-1.88-2.85-1.75-2.95.15-.11,1.02.85,2.44,2.37.71.76,1.56,1.66,2.52,2.64.49.48,1,.99,1.53,1.51.26.25.56.54.8.76.11.1.2.14.22.14.01,0,.08,0,.21-.05,2.75-1.32,5.14-2.98,6.76-4.23,1.64-1.26,2.61-2.12,2.74-1.99Z"/>
            <path class="cls-1" d="M115.09,268.68c-15.25.44-23.66-.19-23.66-.19-12.2-57.07-15.7-113.62-15.7-113.62l-2.49-.12c-2.34,35.31-.17,114.95-.17,114.95-13.42.05-23.64-.45-23.64-.45-17.1-118.39,8.58-155.57,8.58-155.57l38.47.61c9.47,13.87,18.61,154.38,18.61,154.38Z"/>
            <path class="cls-10" d="M57.74,284.62s-14.58,5.18-13.54,8.02c1.04,2.85,24.12-1.35,24.12-1.35l-1.27-7.42-9.32.75Z"/>
            <path class="cls-6" d="M55.2,269.54l2.49,15.09s-2.84,2.15-1.83,3.16c1.01,1.01,11.47-2.22,11.47-2.22l-.44-15.9-11.68-.12Z"/>
            <path class="cls-10" d="M101.33,284.38s-14.58,5.18-13.54,8.02c1.04,2.85,24.12-1.35,24.12-1.35l-1.27-7.42-9.32.75Z"/>
            <path class="cls-6" d="M96.62,268.7l4.46,15.77s-2.65,2.06-1.63,3.08c1.01,1.01,11.47-2.22,11.47-2.22l-2.37-16.51-11.92-.12Z"/>
            <g>
              <g>
                <path class="cls-6" d="M.33,6.31c-.36.91,3.31,5.35,4.43,10.66.06.51.15,1.1.27,1.76,0,0,0,0,0,0,0,0,.7,14.45,6.99,27.7,3.64-2.79,7.3-5.55,11-8.25.23-.16.45-.33.68-.5-4.04-7.45-7.52-17.86-8.59-21.21-.07-.24-.14-.48-.22-.71h.02s-.94-4.68-1.05-5.38c-.28-1.76-.29-6-.29-6,0,0-1.15-.6-1.82,2.16-.67,2.76-1.01,1.85-1.01,1.85C10.74,8.38,6.93-.07,5.43,0c-.56.03-.3,1.86.4,3,.7,1.14,1.33,2.85,1.33,2.85C7.16,5.87,3.12-.41,1.69.02,1.69.02.96.33,2.28,2.21c1.82,2.61,2.92,4.89,2.92,4.89C5.2,7.11.91,1.93.2,2.17c-1.18.4,3.16,5.67,3.67,7.33,0,0-3.16-4.15-3.54-3.2Z"/>
                <path class="cls-10" d="M10.92,8.8c-1.03,1.4-2.47,2.62-2.86,4.35,0,0-.44-.56-.44-.56-.79-1-2.18-1.23-3.37-.89.86-.67,2.11-.83,3.08-.28.34.18.62.4.89.72l-.66.13c.57-1.59,1.98-2.63,3.36-3.47h0Z"/>
              </g>
              <path class="cls-12" d="M16.77,19.62l-12.33,7.5s4.69,28.93,13.9,36.97c9.21,8.03,43.59,13.49,43.59,13.49l7.24-28s-31.24.79-38.69-4.3c-7.44-5.09-13.71-25.66-13.71-25.66Z"/>
            </g>
            <path class="cls-8" d="M69.22,49.54s-31.29.84-38.73-4.26c-6.15-4.21-11.5-18.98-13.17-23.98-4.17,3.53-9.06,7.32-13.35,10.57,1.87,8.14,6.93,27.41,14.02,33.59,5.92,5.16,22.39,8.7,33.41,10.56-.87,3.19-1.56,6.44-2.22,9.68-7.94,38.84-12.41,78.39-13.37,118.02.92-.01,1.85-.04,2.77-.04,4.45-.04,8.9-.03,13.34.01,1.55-26.31,3.73-52.58,6.54-78.78.94-8.81,1.96-17.61,2.97-26.41,1.31-11.35,2.61-22.69,3.92-34.04l3.88-14.93Z"/>
            <g>
              <path class="cls-10" d="M24.43,47.59c-.08-.35,1.14-.92,2.6-1.65,1.46-.71,2.66-1.33,2.89-1.05.22.26-.72,1.41-2.32,2.2-1.6.79-3.09.84-3.16.5Z"/>
              <path class="cls-10" d="M28.72,49.7c-.2-.3.36-1.01.77-1.95.44-.92.61-1.81.97-1.86.17-.02.36.23.45.67.09.44.03,1.09-.25,1.72-.29.63-.74,1.09-1.13,1.32-.39.23-.7.24-.8.1Z"/>
            </g>
            <path class="cls-10" d="M41.86,139.44c-.07-.34,2.79-1.22,6.46-1.54,3.66-.33,6.64.02,6.63.37,0,.36-2.93.58-6.51.91-3.58.32-6.5.62-6.57.27Z"/>
            <g>
              <path class="cls-8" d="M105.62,63.68c-1.23-3.98-1.64-7.53-4.54-10.51-2.9-2.99-7.46-4.42-11.06-4.18-.73,51.83-2.75,104.91,3.57,156.36l22.85,1.37c1.28-6.78,1.3-13.73,1.31-20.63.05-41.17,0-83.07-12.13-122.41Z"/>
              <g>
                <g>
                  <path class="cls-6" d="M103.46,125.96c-1,4.37-2.06,8.12-2.57,9.88-.07.24-.15.47-.22.71h-.02s-1.84,4.4-2.14,5.04c-.75,1.62-3.12,5.13-3.12,5.13,0,0,.62,1.14,2.71-.77,2.09-1.91,1.87-.97,1.87-.97,0,0-1.57,9.13-.28,9.91.48.29,1.29-1.38,1.35-2.72.06-1.34.49-3.11.49-3.11,0,0-.16,7.46,1.26,7.91,0,0,.78.15.74-2.15-.05-3.18.32-5.69.32-5.69,0,0,.66,6.69,1.38,6.89,1.2.33.55-6.47,1.06-8.13,0,0,.3,5.21,1.15,4.63.81-.56.25-6.28,2.29-11.31.23-.46.49-1,.77-1.61,0,0,0,0,0,0,0,0,2.5-4.12,5.03-10.38-4.03-1.07-8.06-2.17-12.08-3.27Z"/>
                  <g>
                    <polygon class="cls-12" points="98.87 133.91 113.92 138.79 117.39 129.93 103.32 125.52 98.87 133.91"/>
                    <path class="cls-8" d="M92.88,49.13l8.01,35.22-1.26,46.65,17.33,5.41c4.54-10.83,5.59-27.15,6.29-39.83.76-13.7-8.73-43.81-30.37-47.45Z"/>
                  </g>
                  <g>
                    <path class="cls-8" d="M93.37,141.32c6.81-.23,13.62-.47,20.43-.7.33-.01.71,0,.91.26.12.15.14.36.16.55.18,1.99.36,3.97.55,5.96.52,5.65,1.04,11.35.3,16.97-.24,1.85-.65,3.75-1.78,5.24-1.45,1.92-3.87,2.84-6.23,3.31-3.88.77-8.62.17-10.62-3.24-.63-1.07-.9-2.3-1.17-3.51-.81-3.62-1.62-7.25-2.43-10.87-1.03-4.59-2.05-9.37-.96-13.94"/>
                    <path class="cls-10" d="M114.94,140.76c-.03.36-4.14.31-9.18.27-5.05-.05-9.16-.06-9.18-.42-.02-.34,4.09-.9,9.19-.86,5.1.04,9.2.66,9.17,1.01Z"/>
                  </g>
                </g>
                <path class="cls-10" d="M101.91,92.33c.11-.07,1.16,1.8,1.31,5.13.09,1.65-.05,3.62-.4,5.76-.34,2.14-.9,4.44-1.45,6.84-1.11,4.81-2.25,9.14-3.03,12.27-.78,3.13-1.35,5.05-1.52,5.03-.17-.03.08-2.01.64-5.22.56-3.2,1.55-7.55,2.66-12.37.56-2.41,1.14-4.68,1.54-6.75.4-2.07.63-3.95.66-5.54.08-3.18-.61-5.08-.41-5.15Z"/>
              </g>
            </g>
            <g>
              <g>
                <g>
                  <path class="cls-2" d="M61.35,104.63s7.85-4.05,8.87-30.15"/>
                  <path class="cls-7" d="M61.26,105.18h-.84c-.35,0-.63-.28-.63-.63h0c0-.35.28-.63.63-.63h.84c.35,0,.63.28.63.63h0c0,.35-.28.63-.63.63Z"/>
                </g>
                <g>
                  <path class="cls-2" d="M61.36,74.72s2.28,25.34,9.88,29.14"/>
                  <path class="cls-7" d="M72.09,104.4h-.84c-.35,0-.63-.28-.63-.63h0c0-.35.28-.63.63-.63h.84c.35,0,.63.28.63.63h0c0,.35-.28.63-.63.63Z"/>
                </g>
              </g>
              <g>
                <path class="cls-3" d="M65.42,67.25s-1.31-16.69,3.33-17.7"/>
                <path class="cls-3" d="M61.34,74.78s-.61-7.1,4.53-6.85c5.14.24,4.28,6.61,4.28,6.61"/>
              </g>
            </g>
            <circle class="cls-11" cx="92.61" cy="94.06" r="5.93"/>
            <path class="cls-3" d="M90.84,49s8.26,8.56,1.93,43.02"/>
            <path class="cls-4" d="M95.21,94.24c0,1.54-1.25,2.79-2.79,2.79s-2.79-1.25-2.79-2.79,1.25-2.79,2.79-2.79,2.79,1.25,2.79,2.79Z"/>
          </g>
        </g>
      </g>
    </g>
  </g>
</svg>