<?xml version="1.0" encoding="UTF-8"?>
<svg id="_圖層_2" data-name="圖層 2" xmlns="http://www.w3.org/2000/svg" viewBox="0 0 223.61 243.98">
  <defs>
    <style>
      .cls-1 {
        fill: #f2f2f2;
      }

      .cls-2 {
        fill: #efe8ca;
      }
      @keyframes spin {
        to { transform: rotate(360deg); }
      }
      path {
        transform-box: fill-box;
        transform-origin: center center;
        animation: spin 12s linear infinite;
      }
    </style>
  </defs>
  <g id="_圖層_1-2" data-name="圖層 1">
    <g>
      <path class="cls-1" d="M59.03,243.54c.28-.61.2-2.19-.14-4.21l1.38-7.18c-.84-2.57-2.2-4.17-3.7-4.37-.42-.06-.78-.02-1.1.08-.83-1.76-1.72-3.04-2.56-3.34-3-.98-5.87-2.22-8.61-3.69.04.02.07.05.1.08-.08-.05-.17-.1-.25-.16-.02,0-1.54-.85-4,.2-.01,0-.03.02-.04.02-.22-1.72-.63-3.04-1.3-3.54-2.52-1.78-4.87-3.77-7.04-5.94.03.03.05.07.08.11-.06-.08-.13-.15-.19-.23-.01-.01-1.21-1.24-3.93-1.03.32-1.63.33-2.95-.16-3.61-1.89-2.42-3.58-5.01-5.04-7.74.02.04.03.08.04.12-.04-.09-.08-.18-.12-.27,0-.01-.46-.87-1.82-1.59.3-.7.38-1.33.16-1.84-.26-.6-.51-1.21-.75-1.82-.05-.13-.11-.26-.16-.39-.26-.68-.51-1.37-.75-2.07-.01-.04-.03-.07-.04-.11-.5-1.49-.94-3-1.31-4.54,0,.01,0,.02,0,.03-.39-1.54-2.55-2.86-5.05-3.87-2.5-.99-6.48-.94-8.12.68-3.25.52-3.91,2.01-3.8,4.76C.91,190.59,0,192.87,0,192.88c.4.27.8.53,1.2.79.62-1.12,1.03-2.68.96-5.41-.04-1.76.59-3.15,2.87-3.57,2.28-.41,4.34,1.88,6.24,4.47.46.66,1.05,1.33,1.72,1.98-3.78,2.14-8.63,4.1-10.08,4.68-1.33,1.6,3.38,11.68,5.21,11.61,0,0,.06,0,.16-.02.07,0,.14-.02.21-.04,1.49-.3,7.13-1.52,11.04-1.35-2.51,3.71-5.75,7.62-6.71,8.75-.76,1.92,6.56,10.09,8.24,9.47.06.05,5.81-3.71,10.05-4.95-1.19,4.34-2.97,9.11-3.45,10.6-.13,2.1,9.29,7.84,10.69,6.73.08.03,4.32-5.46,7.92-7.95.34,4.64.25,9.89.23,11.52.54,2.1,11.54,4.89,12.55,3.36Z"/>
    </g>
    <g>
      <path class="cls-2" d="M138.15,56.56c.64.48,2.53.79,4.98.91l8.09,3.45c3.23-.33,5.46-1.52,6.09-3.24.17-.48.22-.91.19-1.32,2.28-.53,4.01-1.25,4.59-2.16,1.92-3.28,4.11-6.35,6.53-9.19-.03.04-.08.07-.12.1.09-.08.17-.17.25-.25.01-.02,1.39-1.6.78-4.76,0-.02-.01-.04-.02-.06,2.08.18,3.74.04,4.5-.62,2.73-2.51,5.67-4.77,8.79-6.76-.04.03-.1.04-.14.06.11-.05.21-.12.31-.17.02-.01,1.77-1.11,2.22-4.36,1.83.79,3.38,1.14,4.29.73,3.33-1.61,6.81-2.94,10.4-3.96-.05.01-.1.01-.15.02.12-.02.23-.05.35-.07.02,0,1.14-.32,2.34-1.73.75.53,1.47.79,2.13.65.77-.16,1.55-.29,2.33-.42.17-.03.33-.06.5-.09.87-.14,1.74-.26,2.62-.36.04,0,.09-.01.13-.02,1.88-.21,3.77-.34,5.68-.39-.01,0-.03,0-.04,0,1.91-.07,4.02-2.27,5.85-4.96,1.81-2.69,2.76-7.39,1.27-9.73.22-3.96-1.37-5.11-4.63-5.68-2.99-.52-5.43-2.17-5.44-2.17-.42.4-.83.81-1.23,1.21,1.15,1.02,2.9,1.9,6.12,2.51,2.08.4,3.55,1.5,3.47,4.28-.1,2.79-3.32,4.63-6.84,6.2-.89.37-1.83.9-2.77,1.52-1.55-4.99-2.62-11.2-2.93-13.05-1.55-1.97-14.6,1-14.99,3.17,0,0-.01.07-.02.2,0,.08,0,.17,0,.26-.03,1.82-.03,8.77-1.23,13.33-3.73-3.89-7.51-8.71-8.58-10.13-2.07-1.39-13.55,5.15-13.25,7.29-.07.06,2.89,7.79,3.27,13.08-4.81-2.51-9.96-5.82-11.59-6.76-2.44-.69-11.59,8.93-10.64,10.86-.05.08,5.32,6.47,7.34,11.35-5.54-.78-11.71-2.22-13.62-2.66-2.61.1-8.69,12.33-7.15,13.91Z"/>
    </g>
  </g>
</svg>