<?xml version="1.0" encoding="UTF-8"?>
<svg id="_圖層_2" data-name="圖層 2" xmlns="http://www.w3.org/2000/svg" viewBox="0 0 52.51 53.69">
  <defs>
    <style>
      .cls-1 {
        fill: #f2f2f2;
      }
    </style>
  </defs>
  <g id="_圖層_1-2" data-name="圖層 1">
    <g>
      <path class="cls-1" d="M52.13,3.49c-.51-.24-1.86-.16-3.57.12l-6.09-1.16c-2.17.72-3.53,1.87-3.7,3.15-.05.35-.02.66.07.94-1.49.71-2.57,1.47-2.83,2.18-.83,2.55-1.87,4.99-3.11,7.31.02-.03.04-.06.07-.09-.05.07-.09.14-.13.21,0,.01-.71,1.31.18,3.4,0,.01.01.02.02.04-1.46.19-2.58.54-3,1.11-1.5,2.14-3.19,4.14-5.03,5.98.03-.02.06-.04.09-.06-.06.05-.13.11-.19.16,0,.01-1.05,1.03-.87,3.34-1.38-.27-2.5-.27-3.07.14-2.05,1.61-4.24,3.05-6.56,4.29.03-.02.07-.02.1-.03-.08.03-.15.07-.23.1,0,0-.74.39-1.35,1.54-.6-.25-1.13-.32-1.56-.13-.51.23-1.02.44-1.54.64-.11.04-.22.09-.33.14-.58.23-1.16.44-1.75.64-.03.01-.06.02-.09.03-1.26.43-2.54.81-3.85,1.13,0,0,.02,0,.03,0-1.3.33-2.42,2.17-3.28,4.3-.84,2.12-.78,5.5.6,6.89.45,2.76,1.72,3.31,4.05,3.21,2.14-.09,4.07.67,4.08.67.23-.34.45-.68.66-1.02-.95-.53-2.28-.87-4.59-.8-1.49.04-2.67-.49-3.04-2.42-.35-1.94,1.59-3.69,3.78-5.3.56-.39,1.13-.9,1.68-1.46,1.82,3.2,3.5,7.32,3.99,8.54,1.36,1.12,9.9-2.9,9.84-4.45,0,0,0-.05-.02-.14,0-.06-.02-.12-.04-.18-.25-1.26-1.31-6.05-1.17-9.36,3.15,2.12,6.48,4.86,7.44,5.68,1.63.64,8.55-5.59,8.02-7.02.04-.05-3.16-4.93-4.22-8.51,3.69,1,7.74,2.5,9,2.91,1.78.11,6.63-7.9,5.69-9.09.02-.06-4.64-3.65-6.76-6.71,3.94-.3,8.4-.24,9.78-.22,1.78-.46,4.12-9.8,2.83-10.66Z"/>
      <path class="cls-1" d="M46.95.82c0-.6-.99-1.14-2.95-.6-1.53.42-2.6,1.16-3.3,1.9l1.77.34c.88-.29,1.9-.51,3.03-.64,1.17-.13,1.45-.57,1.45-.99Z"/>
    </g>
  </g>
</svg>