<?xml version="1.0" encoding="UTF-8"?>
<svg id="_圖層_2" data-name="圖層 2" xmlns="http://www.w3.org/2000/svg" viewBox="0 0 818.38 498.16">
  <defs>
    <style>
      .cls-1 {
        fill: #e70000;
      }

      .cls-2 {
        fill: #fff;
      }

      .cls-3 {
        fill: #1a1a1a;
      }

      .char {
        transform: translate3d(0, 3em, 0);
        clip-path: inset(100% 0 0 0);
        opacity: 0;
        will-change: transform, clip-path, opacity;
        animation: slideUp 1s cubic-bezier(0.6, -0.28, 0.735, 0.045)
                  calc(var(--i) * 0.35s + 1.35s)
                  both;
      }

      @keyframes slideUp {
        from {
          transform: translate3d(0, 3em, 0);
          clip-path: inset(100% 0 0 0);
          opacity: 0;
        }
        to {
          transform: translate3d(0, 0, 0);
          clip-path: inset(0 0 0 0);
          opacity: 1;
        }
      }
    </style>
  </defs>
  <g id="kv-title">
    <g id="sub" class="char" style="--i:3">
      <polygon class="cls-1" points="793.29 414.73 818.38 294.04 25.09 377.47 0 498.16 793.29 414.73"/>
      <path class="cls-2" d="M52.2,457.14c.01-.5.09-1.32.24-2.45.08-1.25.11-2.06.1-2.44-.72,1.69-1.67,3.66-2.87,5.9-1-1.76-1.91-3.53-2.73-5.32,1.32-2.38,2.38-5.11,3.21-8.18.89-2.96,2.05-7.87,3.48-14.74l3.29-15.85,11.77-1.24-7.78,37.42c-.74,3.56-2.17,5.58-4.27,6.05-1.83.44-3.3.72-4.42.84ZM54.91,450.69c1.09.01,1.76-.81,2.02-2.45l.95-4.58-2.66.28c-.73,3.06-1.44,5.38-2.13,6.95.65-.07,1.26-.13,1.82-.19ZM57.69,433.41c-.32,1.53-.67,3-1.05,4.41l2.52-.26,1.27-6.11-2.38.25-.36,1.72ZM62.93,419.41l-2.38.25-1.27,6.11,2.38-.25,1.27-6.11ZM78.95,437.9c2.26,1.01,3.82,1.59,4.71,1.75-1.1,3.98-2.18,7.2-3.24,9.68-1.36,3-3.56,4.6-6.62,4.8l-7,.74c-3.76.52-5.07-1.77-3.91-6.87l7.34-35.32,17.79-1.87-5.28,25.39-12.61,1.33-1.75,8.4c-.37,1.78-.04,2.62.99,2.51l4.76-.5c1.28,0,2.16-.97,2.66-2.89.62-1.68,1.35-4.06,2.17-7.14ZM73.31,418.88l-2.5,12.03,1.82-.19,2.5-12.03-1.82.19ZM81.44,418.03l-1.82.19-2.5,12.03,1.82-.19,2.5-12.03Z"/>
      <path class="cls-2" d="M108.94,410.28c.54,2.68.98,5.38,1.33,8.08l2.42-11.65,5.6-.59-2.38,11.46c.73-1.32,1.76-3.17,3.07-5.55.7-1.19,1.22-2.12,1.54-2.78l4.11,2c-1.74,3.55-3.45,6.71-5.13,9.5l-3.75-2.41-.99,4.77,6.44-.68-1.47,7.07-6.44.68-.95,4.58,7.28-.76-1.47,7.06-7.28.77-2.02,9.74-5.6.59,2.02-9.74-6.86.72,1.47-7.06,6.86-.72.95-4.58-6.3.66,1.47-7.06,6.3-.66.99-4.77-5.22,3.35c-.18-3.09-.54-5.98-1.07-8.66l-6.99,33.6c-.66,3.18-2,5-4.01,5.46-1.68.18-3,.38-3.96.6.09-.88.18-2.2.27-3.95,0-.87,0-1.56.02-2.06.56-.06,1.21-.13,1.96-.21.81.04,1.37-.64,1.66-2.04l1.03-4.96-2.66.28c-1.29,4.87-3.17,9.55-5.66,14.04-.7-1.92-1.51-3.7-2.45-5.34,1.3-2.75,2.33-5.29,3.09-7.61.64-2.18,1.5-5.88,2.58-11.1l4.21-20.24,11.91-1.25-.91,4.39,5-2.95ZM93.34,430.6c-.24,1.14-.49,2.36-.75,3.63l2.52-.26,1.27-6.11-2.52.26-.52,2.48ZM98.88,415.82l-2.52.26-1.19,5.73,2.52-.26,1.19-5.73Z"/>
      <path class="cls-2" d="M134.45,421.98c-2.1,11.43-5.9,20.92-11.4,28.46-1.35-1.85-2.58-3.4-3.69-4.65,3.22-4.07,5.46-8.04,6.72-11.91-2.43,2-3.96,3.22-4.6,3.66l.69-7.92c1.06-.73,3.21-2.27,6.44-4.6l.44-2.1,2.98-14.32,11.21-1.18.87-4.2,5.74-.6-.87,4.2,11.49-1.21-1.43,6.87-23.11,2.43-1.47,7.06ZM125.67,412.82l3.84-1.34c-.1,4-.32,7.88-.64,11.65l-4.2,1.75c.46-3.53.79-7.55,1-12.06ZM140.53,426.38l-2.94,14.13,2.94-.31,3.45-16.61-9.1.96,1.43-6.87,21.43-2.25-1.43,6.87-7,.74-.91,4.39,6.02-.63-1.43,6.87-6.02.63-1.11,5.35,7.7-.81-1.39,6.68-24.37,2.56,1.39-6.68,3.22-.34,2.94-14.13,5.18-.54Z"/>
      <path class="cls-2" d="M187.28,401.86l4.74-3.67c.96,1.52,1.82,3.11,2.57,4.77l-3.28,2.58,4.34-.46-1.43,6.87-9.94,1.04c-.81,4.32-1.3,7.98-1.46,10.99,1.7-2.92,3.56-6.35,5.57-10.3l4.13,2.55c-3.38,6.58-6.6,11.96-9.66,16.14-.01.5.04,1.12.16,1.85.04.25.09.43.16.54.15.61.36.9.64.87.37-.04.69-.45.94-1.22.6-1.56,1.34-3.81,2.23-6.77.48.32,1.18.69,2.1,1.09.85.28,1.44.53,1.76.75-1.12,3.6-2.14,6.57-3.09,8.91-1.32,3.25-3.11,5.06-5.37,5.42-2.43.26-4.05-1.38-4.87-4.9-.12.14-.33.28-.64.44-1.53,1.65-3.66,3.75-6.37,6.27-.63-1.8-1.4-3.59-2.31-5.36,3.3-2.71,6.22-5.51,8.73-8.39.03-4.98.66-11.09,1.89-18.31l-10.37,1.09-.91,4.39,9.1-.96c-.69,3.31-1.68,7.65-2.98,13.01-1.13,4.97-3.24,7.69-6.35,8.14-1.06.24-2.37.44-3.96.6.12-1.01.28-2.89.49-5.65-1.02,3.6-2.77,7.82-5.24,12.69-.39-.33-.91-.9-1.56-1.7-.98-1.02-1.74-1.75-2.29-2.19,2.8-5.15,4.89-11.22,6.25-18.21l3.41-16.42,15.69-1.65c.53-2.54,1.03-4.96,1.51-7.25l5.46-.57c-.48,2.29-.98,4.71-1.51,7.25l3.5-.37c-.58-1.18-1.17-2.49-1.79-3.92ZM166.18,425.55c-.11.51-.31,1.28-.62,2.31-.45,2.17-.89,3.83-1.31,4.99.93-.1,1.73-.18,2.38-.25,1.09.01,1.8-.75,2.12-2.28.13-.63.36-1.53.7-2.69.24-1.15.41-1.97.52-2.48l-3.78.4Z"/>
      <path class="cls-2" d="M191.17,443.1l9.17-44.1,31.09-3.27-9.17,44.1-5.74.6.4-1.91-19.61,2.06-.4,1.91-5.74.6ZM214.43,432.06c-1.18-2.24-2.59-4.46-4.23-6.65-1.9,2.57-4.67,5.35-8.31,8.34-.75-1.66-1.47-3.27-2.15-4.82l-1.11,5.35,19.61-2.06,1.27-6.11-5.07,5.95ZM211.46,405.48l5.6-.59-1.11,5.35,6.02-.63-1.39,6.68-6.16.65c-.35.78-.58,1.49-.72,2.13.59.69,1.47,1.71,2.65,3.08,1.4,1.6,2.47,2.85,3.19,3.77l4.72-22.72-19.61,2.06-4.72,22.72c4.86-3.62,7.78-7.1,8.75-10.44l-5.88.62,1.39-6.68,6.16-.65,1.11-5.35Z"/>
      <path class="cls-2" d="M241.65,411.83l2.05,3.33c-.36.41-.87,1.09-1.52,2.03-.72.82-1.26,1.44-1.62,1.85.63.93,1.14,1.75,1.54,2.45l-3.49,4.29c-.17-.48-.66-1.42-1.47-2.83l-3.21,15.46-4.76.5,3.06-14.7c-.89,1.22-1.89,2.5-3,3.86.01-.5.03-1.25.06-2.25.12-1.01.2-2.94.25-5.82,2.91-3.04,5.58-6.87,8.01-11.49l-5.04.53,1.35-6.49,2.52-.26,1.63-7.83,5.18-.54-1.63,7.83,2.24-.24-1.23,5.92c-1.16,2.49-2.37,4.79-3.63,6.92l-.36,1.72c1.13-1.49,2.15-2.9,3.07-4.24ZM261.35,418.54l-1.19,5.73c-1.61,2.04-3.25,3.77-4.91,5.19,1.57.33,3.5.5,5.78.51-.46.92-1.3,2.5-2.49,4.74-.2.52-.36.85-.48.98-3.67-.36-6.63-1.05-8.89-2.05-2.88,1.54-6.68,3.13-11.4,4.75-.27-2.21-.53-4.05-.77-5.52,3.13-.58,5.79-1.29,7.98-2.15-.56-.81-1.15-1.75-1.75-2.8-.36.41-.99,1.04-1.9,1.88-.45.42-.8.77-1.04,1.04-.71-1.42-1.44-2.77-2.17-4.07,2.9-2.55,5.43-5.24,7.57-8.08l-2.52.26,2.3-11.07-1.8,2.06c.15-2.5.22-5,.19-7.49,2.85-3.16,5.11-6.57,6.79-10.24h5.34s-1.28,2.19-1.28,2.19l13.31-1.4-1.19,5.73-15.83,1.66-1.2,1.81,15.41-1.62-3.41,16.42-10.79,1.13c-.12.14-.31.41-.58.81-.24.28-.43.54-.58.81l11.49-1.21ZM254.54,424.3l-6.72.71c.79,1.04,1.65,1.95,2.59,2.72,1.4-1.02,2.78-2.16,4.14-3.42ZM249.43,411.95l-.36,1.72,8.82-.93.36-1.72-8.82.93ZM250.54,406.6l-.4,1.91,8.82-.93.4-1.91-8.82.93Z"/>
      <path class="cls-2" d="M283.61,433.38l-4.76.5,5.36-25.78-1.48,1.84c.05-.25.12-.57.2-.95-.02-.37,0-.62.02-.75l-2.28,3.04c-.52-1.44-1.11-2.81-1.75-4.11-.59,1.06-1.36,2.14-2.32,3.23l.98-.1-.48,2.29,5.6-.59-1.27,6.11-5.32.56c1.63,1.82,2.95,3.61,3.95,5.37l-3.71,4.69c-.07-.12-.24-.41-.5-.88-.58-1.18-1.03-2.07-1.37-2.66l-1.94,9.35-4.76.5,1.98-9.55c-1.36,2.14-2.89,4.23-4.59,6.27-.2-.35-.58-.94-1.14-1.75-.63-.93-1.08-1.63-1.34-2.1,3.16-3.32,5.48-6.18,6.99-8.58l-4.62.49,1.27-6.11,6.02-.63.48-2.29.42-.04-1.08-2.69c-.73,1.32-1.8,2.93-3.19,4.82-.14-.23-.38-.58-.74-1.04-.54-.94-1.03-1.63-1.48-2.09,2.24-2.85,3.84-5.94,4.81-9.28l3.98-.05-.9,2.34c.23.23.47.57.74,1.04.33.59.57,1,.7,1.23,1.21-1.87,2.03-3.64,2.47-5.3l3.98-.05c-.17.39-.37.91-.6,1.56-.17.39-.27.65-.3.78l1.67,3.19.17-2.82c2.53-4.25,4.71-9.02,6.54-14.32h5.2c-.94,2.35-1.92,4.64-2.93,6.86l2.24-.23c.79-2.07,1.7-4.22,2.71-6.45l4.58-.29c-.25.77-.74,2.01-1.45,3.7-.52,1.18-.88,2.02-1.08,2.54l3.78-.4-1.31,6.3-3.64.38-.83,4.01,3.08-.32-1.27,6.11-3.08.32-.83,4.01,3.08-.32-1.27,6.11-3.08.32-.83,4.01,3.92-.41-1.23,5.92-11.77,1.24-.4,1.91ZM276.85,389.46l5.18-.54-.83,4.01,5.04-.53-1.23,5.92-15.41,1.62,1.23-5.92,5.18-.54.83-4.01ZM275.77,410.49c-.04-.24-.11-.55-.22-.91-.2-.35-.34-.59-.4-.7l-1.2,1.81,1.82-.19ZM286.07,421.54l-.83,4.01,3.22-.34.83-4.01-3.22.34ZM288.18,411.42l-.83,4.01,3.22-.34.83-4.01-3.22.34ZM290.28,401.31l-.83,4.01,3.22-.34.83-4.01-3.22.34Z"/>
      <path class="cls-2" d="M328.29,428.68l3.45-16.61,10.78-1.13-3.45,16.61-3.92.41.44-2.1-2.8.29-.44,2.1-4.06.43ZM332.9,405.23l11.21-1.18-1.07,5.16-11.21,1.18,1.07-5.16ZM334.33,398.36l11.21-1.18-1.07,5.16-11.21,1.18,1.07-5.16ZM334.66,417.18l-.79,3.82,2.8-.29.79-3.82-2.8.29ZM335.17,390.98l12.75-1.34-1.23,5.92-12.75,1.34,1.23-5.92ZM337.86,383.98l10.23-1.07-1.07,5.16-10.23,1.07,1.07-5.16ZM358.13,390.63l4.34-.46c-.05.26-.16.76-.32,1.53-.23.65-.38,1.16-.46,1.54.19,3.47,1.94,5.59,5.26,6.36-1.2,2.25-2.23,4.34-3.09,6.3-2.98-1.06-4.75-2.86-5.31-5.42-1.72,2.55-4.21,4.86-7.47,6.95l12.89-1.35-4.01,19.28-5.18.54.48-2.29-7.98.84-.48,2.29-5.18.54,4.01-19.28,5.32-.56c-.06-.62-.28-1.71-.69-3.29-.12-.73-.24-1.28-.34-1.64-.44.79-1.01,1.97-1.69,3.54-.23.65-.41,1.1-.56,1.37l-3.65-2.23c.64-1.31,1.58-3.22,2.83-5.71,1.15-2.49,2.05-4.39,2.69-5.7l3.59,1.86c-.32.66-.8,1.64-1.44,2.95-.67,1.44-1.16,2.49-1.48,3.14,3.89-2.03,6.27-4.7,7.15-8.04.33-1.15.59-2.18.78-3.07ZM349.05,383.55l6.58-.69-1.03,4.96c1.35-2.13,2.47-4.43,3.35-6.89l4.68-.12-1.04,2.35,8.54-.9-1.27,6.11-2.95,6.29-3.52-1.5,2.13-4.33-6.02.63c-.61,1.18-1.66,2.91-3.13,5.19-.39.54-.65.94-.8,1.2-.29-.34-.77-.91-1.42-1.72-.75-.79-1.27-1.36-1.56-1.7.89-1.21,1.74-2.42,2.53-3.63l-6.3.66,1.23-5.92ZM349.48,413.76l-.95,4.58,7.98-.84.95-4.58-7.98.84Z"/>
      <path class="cls-2" d="M364.47,424.7l3.45-16.61,11.77-1.24-3.45,16.61-4.34.46.4-1.91-3.08.32-.4,1.91-4.34.46ZM369.21,401.23l11.9-1.25-1.11,5.35-11.9,1.25,1.11-5.35ZM370.6,394.54l11.9-1.25-1.07,5.16-11.9,1.25,1.07-5.16ZM371.31,387.19l13.73-1.44-.64,3.05c2.34-3.36,4.46-7.19,6.36-11.5l5.16.2c-.69,1.57-1.4,3.01-2.13,4.33l11.35-1.19c-3.08,14.4-5.46,25.16-7.13,32.31-.95,5.45-3.23,8.31-6.85,8.56-.96.22-2.33.43-4.1.62.07-.75.09-2,.09-3.74,0-.87,0-1.56.02-2.06l-7.7.81,4.53-21.77-1.59-3.57-12.33,1.3,1.23-5.92ZM371.07,413.36l-.75,3.63,3.08-.32.75-3.63-3.08.32ZM374.32,379.96l10.79-1.13-1.07,5.16-10.79,1.13,1.07-5.16ZM385.18,410.75l2.66-.28.79-3.82-2.66.28-.79,3.82ZM387.88,397.77l-.75,3.63,2.66-.28.75-3.63-2.66.28ZM396.29,390.91l-5.12,24.63c1.05-.23,1.83-1.31,2.32-3.23,1.02-4.46,2.77-12.68,5.26-24.64l-8.68.91c-.29.53-.71,1.19-1.24,2-.39.54-.65.94-.8,1.2l8.26-.87Z"/>
      <path class="cls-2" d="M407.95,382.96l1.11-5.35,13.59-1.43.48-2.29,5.32-.56-.48,2.29,13.73-1.44-1.11,5.35-13.73,1.44-.36,1.72,11.77-1.24-3.06,14.7-1.96.21c1.19,1.74,2.32,3.56,3.39,5.43l-3.96,3.22,3.08-.32-1.11,5.35-6.72.71-.28,1.34c-.68,3.68-2.56,5.75-5.67,6.2-1.33.26-3.59.56-6.76.9.05-.26.08-.63.1-1.13.14-2.01.14-3.32,0-3.92,1.96-.21,3.59-.38,4.9-.52,1.21-.13,1.97-.89,2.26-2.29l-11.77,1.24c.29.34.7.8,1.22,1.37.61.56,1.02,1.01,1.22,1.37l-5.07,4.64c-.54-.94-1.47-2.4-2.79-4.38.99,1.39.88,1.28-.34-.34l2.68-2.34-6.58.69,1.11-5.35,21.43-2.25.44-2.1c-4.58.48-11.61,1.35-21.09,2.59l.69-5.3c4.67-.49,9.38-.99,14.15-1.49l.36-1.72-11.77,1.24,3.06-14.7,11.77-1.24.36-1.72-13.59,1.43ZM412.91,392.71l-.36,1.72,6.44-.68.36-1.72-6.44.68ZM413.86,388.13l-.32,1.53,6.44-.68.32-1.53-6.44.68ZM428.97,398.49c.03-.13-.03-.31-.16-.54-.07-.12-.14-.23-.2-.35l1-.85-6.16.65-.36,1.72,5.88-.62ZM430.76,392.52l.36-1.72-6.44.68-.36,1.72,6.44-.68ZM432.07,386.22l-6.44.68-.32,1.53,6.44-.68.32-1.53ZM431.06,402.94c-.47.05-.98.1-1.54.16l-.48,2.29,2.94-.31c-.22-.72-.52-1.44-.92-2.14Z"/>
      <path class="cls-2" d="M449.97,371.26c.47.82,1.16,1.87,2.09,3.14.49.7.84,1.22,1.04,1.57l-3.22,2.95,3.36-.35,1.63-7.83,5.32-.56-1.63,7.83,2.8-.29,1.63-7.83,5.32-.56-1.63,7.83,3.08-.32-1.83-2.42c.81-.83,1.98-2.08,3.52-3.73.81-.83,1.4-1.45,1.76-1.86l2.99,3.42c-.45.42-1.15,1.12-2.08,2.09-.93.97-1.69,1.74-2.26,2.29l4.62-.49-1.15,5.54-6.86.72-1.96,2.82,7-.74-1.11,5.35-12.61,1.32-.4,1.91,11.07-1.16-1.07,5.15-11.07,1.16-.36,1.72,13.87-1.46-1.15,5.54-10.09,1.06c2.34,1.5,5.7,2.45,10.09,2.86-1.3,1.88-2.54,3.88-3.71,5.99-5.04-1.21-8.67-2.89-10.88-5.02l-1.35,6.49-5.32.56,1.35-6.49c-2.88,2.42-7.39,5.01-13.54,7.77-.08-.49-.25-1.22-.5-2.19-.31-1.59-.59-2.68-.83-3.28,4.67-1.36,8.55-3.14,11.66-5.33l-9.94,1.04,1.15-5.54,13.87-1.46.36-1.72-11.07,1.16,1.07-5.15,11.07-1.16.4-1.91-12.75,1.34,1.11-5.35,7.14-.75-.84-2.53-6.86.72,1.15-5.54,4.34-.46c-.24-.6-.71-1.42-1.41-2.47-.34-.59-.6-1.06-.8-1.41l4.4-4.01ZM455.04,383.8l.84,2.53,4.76-.5,1.96-2.82-7.56.79Z"/>
      <path class="cls-2" d="M497.59,411.08l.28-1.34-19.19,2.02-.28,1.34-5.04.53,3.69-17.76,8.26-.87.32-1.53-10.22,1.07.79-3.82,33.06-3.47-.79,3.82-10.08,1.06-.32,1.53,8.26-.87-3.69,17.76-5.04.53ZM495.2,379.77l-3.08.32,2.86,1.38-1.74,2.42,1.26-.13-.79,3.82-16.39,1.72,4.17-20.05,16.67-1.75-.79,3.82-6.58.69-.62,1,6.02-.63-.63,3.05-2.66.28-.42,1.35,3.36-.35-.64,3.05ZM479.67,406.98l-.24,1.14,19.19-2.02.24-1.15-19.19,2.02ZM481.42,398.58l-1.15,5.54,19.19-2.02.2-.95-4.34.46c-2.83.42-3.87-.96-3.11-4.16l-2.52.26c-.49,2.79-1.73,4.35-3.71,4.69-1.45.4-2.88.68-4.28.82l-.53-2.75c.93-.1,1.77-.19,2.52-.26.87-.21,1.42-.9,1.66-2.04l-3.92.41ZM485.04,372.62l-2.58,12.41,2.38-.25c-.14-.23-.34-.59-.6-1.06-.39-.33-.65-.61-.78-.85,1.88-.69,3.18-1.46,3.9-2.28l-3.5.37.64-3.05,1.82-.19c-.55-.44-1.16-1-1.84-1.67,1.24-1.13,2.18-2.34,2.82-3.66l-2.24.24ZM489.4,382.62c-.67.57-1.58,1.23-2.74,1.97l5.32-.56-2.58-1.41ZM487.99,376.23c-.12.14-.3.34-.54.62-.27.4-.46.67-.58.81l2.24-.24.28-1.34-1.4.15ZM490.68,392.94l-.32,1.53,2.52-.26.32-1.53-2.52.26ZM511.1,373.8l-.95,4.58c-1.08,1.23-2.19,2.41-3.34,3.52,1.01.39,1.97.85,2.86,1.38l-2.75,4.02c-1.31-.73-2.73-1.58-4.27-2.54-1.96,1.08-4.42,2.15-7.38,3.2-.17-.48-.36-1.33-.56-2.56-.15-.61-.24-1.03-.28-1.28.68-.19,1.61-.48,2.78-.85.68-.19,1.16-.31,1.44-.34-.96-.65-2-1.16-3.1-1.54l1.84-2.25-1.4.15.83-4.01,1.54-.16-1.38-1.91c1.52-1.16,2.39-2.49,2.61-4.01l.4-1.91,10.37-1.09-.67,3.25c-.11.51.07.74.54.69l.56-.06c.37-.04.65-.5.84-1.39,1.39.35,2.27.51,2.64.47-.81,2.58-1.96,3.94-3.46,4.1l-3.78.4c-1.21.13-1.65-.64-1.3-2.29l.08-.38-3.22.34c-.33,1.16-1.13,2.36-2.39,3.61l10.93-1.15ZM500.61,396.57l-4.06.43-.08.38c-.21,1.02.1,1.48.94,1.39l2.8-.29.4-1.91ZM506.06,378.25l-6.3.66,3.66,1.48c.95-.6,1.83-1.31,2.64-2.15Z"/>
      <path class="cls-2" d="M526.61,363.77c-.15.27-.33.72-.56,1.37-.4,1.04-.75,1.82-1.04,2.35l3.78-.4-3.61,17.37-7.56.79-.71,3.44,8.12-.85-4.17,20.05-4.62.49.52-2.48-3.5.37-.6,2.86-4.62.49,8.57-41.24,3.36-.35c.2-.52.42-1.16.68-1.94.4-1.04.7-1.82.9-2.34l5.06.03ZM519.14,394.43l-3.5.37-1.19,5.73,3.5-.37,1.19-5.73ZM519.92,374.18l-1.03,4.96,2.94-.31,1.03-4.96-2.94.31ZM530.43,364.49l19.47-2.05-1.39,6.68-7.42.78-.79,3.82,6.58-.69-4.37,21c-.65,3.56-2.01,5.51-4.09,5.85-.96.23-1.91.39-2.84.49.09-.88.2-2.26.31-4.14.04-.63.04-1.06,0-1.31l-2.54,12.22-5.04.53,5.6-26.92-1.82.19-4.21,20.24-4.48.47,5.56-26.73,6.3-.66.79-3.82-7,.74,1.39-6.68ZM541.05,379.99l-2.1.22-2.9,13.94,1.26-.13c.56-.06.95-.6,1.16-1.62l2.58-12.41Z"/>
      <path class="cls-2" d="M565.2,398.93c-.2-.35-.44-1.2-.7-2.54-.02-.37-.04-.68-.08-.92-2.07,1.59-4.41,3.2-7.04,4.85-.54-1.81-1.16-3.86-1.87-6.15,3.21-1.83,6.18-3.82,8.91-5.98.17-3.01.57-6.47,1.2-10.4l-4.46,1.03.75-4.93-2.94.31-1.31,6.3c1.33-.26,2.65-.65,3.94-1.16-.61,2.93-1.12,5.41-1.55,7.45-.4.17-1.03.36-1.9.57-.89.34-1.59.6-2.08.78l-2.18,10.5c-.73,3.93-2.45,6.05-5.15,6.33-1.15.24-2.56.46-4.24.63.04-.63.14-2.01.31-4.14.08-1.25.12-2.13.14-2.63.25.1.99.08,2.2-.04.93-.1,1.53-.78,1.8-2.06l1.43-6.87c-.61.31-1.51.66-2.68,1.03-.77.21-1.31.39-1.62.54l1.29-8.17c.37-.04,1.01-.23,1.9-.57,1.15-.24,2.06-.47,2.74-.66l1.51-7.25-3.92.41,1.43-6.87,3.92-.41,1.59-7.64,5.46-.57-1.59,7.64,3.5-.37-.99,4.77,3.9-.97c.19-.89.39-2.34.63-4.36.57-3.17.99-5.64,1.27-7.42l5.74-.6c-.26,1.27-.6,3.12-1.01,5.52-.53,2.55-.87,4.39-1.01,5.52l5.2-1.29c-.29-.34-.72-.92-1.28-1.73-.92-1.27-1.71-2.31-2.37-3.11l4.07-5.1c.75.79,1.72,1.81,2.93,3.05.68.68,1.17,1.19,1.46,1.53l-4.11,5.29,4.92-1.26-1.15,6.84-10.86,2.82c-.11,1.38-.36,3.28-.77,5.68.01.37,0,.69-.06.94,2.44-2.5,4.81-5.11,7.11-7.84l2.93,4.36c-4.03,4.91-7.5,8.63-10.41,11.18.08,1.36.31,2.46.69,3.29.28.84.67,1.18,1.16,1,.47-.05.85-.59,1.16-1.62.71-1.69,1.56-4.21,2.53-7.55,2.07,1.03,3.53,1.68,4.39,1.97-.84,2.7-1.71,5.35-2.61,7.93-1.58,4.52-3.81,6.87-6.67,7.05-2.8.29-4.63-1.01-5.49-3.91Z"/>
      <path class="cls-2" d="M579.89,402.05l4.13-19.86,5.74-.6-2.22,10.69,6.86-.72,2.9-13.94-11.06,1.16,3.81-18.33,5.74-.6-2.26,10.88,5.32-.56,3.1-14.89,6.16-.65-3.1,14.89,5.32-.56,2.26-10.88,5.74-.6-3.81,18.33-11.06,1.16-2.9,13.94,6.86-.72,2.22-10.69,5.6-.59-4.13,19.86-5.6.59.48-2.29-19.89,2.09-.48,2.29-5.74.6Z"/>
      <path class="cls-2" d="M628.32,352.33l4.62.82-.68,1.94,7.84-.82-1.31,6.3-4.07,7.71,2.52-.26-.36,1.72c-1.63,7.39-3.46,13.13-5.49,17.2,1.12,1.63,3.26,2.34,6.41,2.13l.56-2.67-5.04.53,1.07-5.16,5.04-.53.36-1.72-4.34.46,1.07-5.16,4.34-.46.36-1.72-4.2.44,1.03-4.96,4.2-.44.4-1.91-5.04.53,1.07-5.16,5.04-.53.36-1.72-4.06.43,1.07-5.15,4.06-.43.64-3.05,4.62-.49-.64,3.05,6.02-.63-1.43,6.87,1.4-.15-1.07,5.16-1.4.15-1.43,6.87-6.02.63-.36,1.72,6.16-.65-1.07,5.16-6.16.65-.36,1.72,6.58-.69-1.07,5.16-6.58.69-.6,2.86c3.73-.39,6.22-.72,7.46-.97-.37.91-1.03,2.54-1.97,4.88-.25.77-.45,1.29-.6,1.56-1.31.14-3.49.3-6.54.5-1.96.21-3.22.34-3.78.4-4.36.33-7.27-.61-8.73-2.82-1.33,2.01-2.88,3.97-4.65,5.91-.08-.49-.2-1.47-.35-2.95-.23-1.1-.4-2.01-.53-2.75l-1.07,5.15-4.62.49,4.13-19.86c-.85,1.46-1.68,2.79-2.47,4,.23-2.01.52-4.91.85-8.68.04-.62.08-1.06.14-1.32,2.98-5.54,5.87-12.2,8.67-19.96ZM629.3,377.25c.02,1.25.06,2.55.15,3.91.77-1.95,1.45-4.14,2.05-6.57l-.14.02-1.32,2.38-4.2.44-3.06,14.7c1.32-1.51,2.44-2.93,3.36-4.27-.51-1.94-.82-4.21-.91-6.81l4.08-3.79ZM633.75,361.1l-2.94.31,1.23-5.92c-.88,2.46-1.95,5-3.23,7.62l-2.5,12.03,7.44-14.04ZM646.87,367.19l1.68-.18.4-1.91-1.68.18-.4,1.91ZM650.38,358.23l-1.68.18-.36,1.72,1.68-.18.36-1.72Z"/>
      <path class="cls-2" d="M681.36,346.94l-.6,2.86,12.19-1.28-1.27,6.11-11.77,1.24-.36,1.72,9.38-.99-1.43,6.87,2.52-.26-1.11,5.35-2.52.26-1.31,6.3,1.29,3.04c-.22.15-.44.36-.68.63-2.07,1.59-3.68,2.75-4.84,3.5.89.53,2.56,1.1,4.99,1.72-.8,1.2-1.91,3-3.31,5.39-.29.53-.5.86-.62,1-4.01-1.82-6.65-3.84-7.92-6.08l-.52,2.48c-.68,3.68-2.27,5.65-4.79,5.92-.78.2-2.47.45-5.08.72.06-2.5.12-4.31.17-5.43l-5.4,3.56-.75-3.66c-.15.27-.31.59-.48.98-.57,1.43-1.53,3.4-2.87,5.9-.36-.46-.9-1.15-1.63-2.07-.7-1.05-1.22-1.8-1.59-2.26,2.87-5.03,5.08-11.67,6.61-19.93l3.89-18.71,13.31-1.4.6-2.86,5.88-.62ZM658.39,385.59l4.18-2.31-2.57-2.16c-.28.9-.72,2.13-1.31,3.69-.17.39-.27.65-.3.78ZM663.22,372.94l8.4-.88.36-1.72-9.52,1c-.13.64-.38,1.6-.74,2.88-.58,2.8-1.09,4.78-1.51,5.95l2.06-2.65.95-4.58ZM665.46,364.11l1.07-5.15,7.98-.84.36-1.72-9.52,1-1.79,8.59,9.52-1,.36-1.72-7.98.84ZM668.92,385.04c-.52.31-1.21.75-2.06,1.34-1.37.89-2.4,1.44-3.08,1.63,1.21-.13,2.24-.24,3.08-.32,1.1,0,1.71-.55,1.86-1.69l.2-.95ZM666.15,381.22l4.08-2.48.32-1.53-5.6.59,2.51,1.79-1.3,1.63ZM677.55,379.09c.21-.14.53-.37.96-.66.85-.59,1.84-1.38,2.96-2.37l-5.32.56c.44.95.91,1.77,1.41,2.47ZM676.66,371.53l4.48-.47.36-1.72-4.48.47-.36,1.72ZM682.97,362.27l-4.48.47-.36,1.72,4.48-.47.36-1.72Z"/>
      <path class="cls-2" d="M708.71,343.88l5.32-.56-.4,1.91,13.59-1.43-.95,4.58-13.59,1.43-.28,1.34,15.55-1.63-2.71,9.06c-1.51-.22-3.06-.43-4.66-.63l.94-2.53-20.59,2.16-1.87,8.97c-.69,3.31-1.45,6.31-2.29,9.02,1.94-2.32,3.53-4.92,4.77-7.79l4.82-.13c-.44.79-.82,1.52-1.14,2.17l5.04-.53-1.11,5.35c-1.33,2.88-2.75,5.33-4.27,7.36.73.42,1.8.56,3.2.41.19-.02.37-.04.56-.06.25.1.43.14.52.13-.2-.35-.52-.82-.94-1.4-.5-.69-.86-1.15-1.08-1.38,1.98-2.08,3.15-4.19,3.51-6.35l.99-4.77,9.24-.97-1.59,7.64c-.11.51-.02.75.26.72.28-.03.52-.3.72-.82.05-.25.12-.57.2-.95.3-1.03.52-1.86.66-2.5.76.29,1.49.53,2.18.7-.28.9-.6,2-.95,3.28.08-.38-.04-.06-.34.97-.67,2.31-1.84,3.55-3.52,3.73l-1.26.13c-1.96.21-2.68-.96-2.15-3.51l.87-4.2-1.54.16-.16.76c-.54,3.04-2.06,5.94-4.55,8.69,2.71-.28,6.63-.7,11.77-1.24-.15.27-.32.66-.52,1.18-.96,1.97-1.56,3.34-1.81,4.11-3.92.41-8.1.73-12.53.94-2.43.26-4.34-.23-5.73-1.45-2,1.7-4.41,3.2-7.24,4.5-.08-.49-.2-1.22-.36-2.2-.2-1.23-.38-2.14-.52-2.75-.9,1.71-1.88,3.56-2.93,5.54-.31-.72-.93-1.71-1.85-2.98-.47-.82-.84-1.47-1.1-1.94,3.22-4.94,5.56-11.35,7.01-19.23l2.94-14.13,10.22-1.07,1.63-7.83ZM695.31,380.02c-.68,1.94-1.52,3.77-2.51,5.49,2.37-.87,4.26-1.82,5.66-2.84-.15-.6-.38-1.27-.68-1.98-.45.42-.98.98-1.58,1.66-.07-.11-.16-.36-.26-.72-.02-.37-.22-.91-.62-1.62ZM706.28,357.58l5.32-.56-.28,1.34,7.4-1.34-.55,3.98-7.68,1.37c-.19.89.44,1.2,1.86.92l4.9-.51c.9.03,1.5-.41,1.78-1.31.52-1.17.84-2.08.98-2.72.72.05,1.69.2,2.92.44.63.06,1.11.13,1.46.22-.6,1.56-1.14,2.86-1.63,3.91-.7,2.07-2.3,3.17-4.8,3.3l-9.53,1c-2.83.42-3.95-1.01-3.35-4.32l-4.52.66.55-3.98,4.84-.88.32-1.53ZM702.06,375.21l-.22.4c-.12.14-.24.28-.36.41.23,1.1.53,2.06.91,2.89.62-.81,1.45-2.14,2.47-4l-2.8.29Z"/>
      <path class="cls-2" d="M752.96,374.9c-1.26,5.61-4.07,8.58-8.43,8.92-1.52.28-3.87.59-7.04.93.2-2.26.28-4.63.25-7.12.84-.09,1.95-.14,3.32-.16,1.03-.11,1.77-.19,2.24-.24,2.28.01,3.81-1.64,4.6-4.97.25-.77.55-1.99.89-3.64.41-1.54.71-2.75.89-3.64l-9.94,1.05c-2.08,7.81-6.57,14.88-13.45,21.21-.27-.47-.64-1.12-1.1-1.94-.91-1.77-1.63-2.94-2.15-3.51,6.42-5.4,10.49-12.24,12.21-20.52.25-.77.55-1.99.89-3.64.44-1.66.74-2.88.89-3.64l-7.56.79,1.51-7.26,12.89-1.35,1.23-5.92,6.72-.71-1.23,5.92,12.89-1.35-1.51,7.26-18.91,1.99-1.25,5.36,15.55-1.63c-1.75,7.53-3.21,13.47-4.39,17.83Z"/>
      <path class="cls-2" d="M319.49,409.94c0,1.75-1.42,3.47-3.17,3.85s-3.17-.75-3.17-2.5,1.42-3.47,3.17-3.85c1.75-.37,3.17.75,3.17,2.5Z"/>
    </g>
    <g id="sick" class="char" style="--i:2">
      <path class="cls-3" d="M189.9,264.24l37.21-3.91,5.19-24.97-93.31,9.81-5.19,24.97,35.49-3.73-2.27,10.92-36.06,3.79-20.26,97.45c-.25,1.2.74,2.3,1.96,2.17l16.83-1.77c.78-.08,1.42-.66,1.58-1.43l7.19-34.6,6.56,11.52c9.64-8.65,17.22-17.33,22.77-26.06,2.57,3.81,9.68,18.06,9.68,18.06l13.22-15.13-.65,3.12c-1.57,9.33-5.93,14.11-13.06,14.35-5.72.6-11.64,1.22-17.75,1.87l-1.35,25.33,22.49-3.13c15.96-2.22,25.53-12.36,28.49-32l14.44-69.45-35.49,3.73,2.27-10.92ZM140.69,331.23l5.68-27.31,14.31-1.5c-3.48,9.52-10.14,19.13-19.99,28.81ZM197.32,298.57l-4.7,22.63-12.71-16.98c.7-1.6,1.17-2.91,1.38-3.96l16.03-1.68Z"/>
      <path class="cls-3" d="M138.65,236.04l96.57-10.15c.78-.08,1.42-.66,1.58-1.43l4.74-22.81c.25-1.2-.74-2.3-1.96-2.17l-45.62,4.79,2.42-11.62c.25-1.2-.74-2.3-1.96-2.17l-19.69,2.07c-.78.08-1.42.66-1.58,1.43l-2.65,12.75-47.51,4.99-7.14,34.34-1.6-15.21c-.12-1.14-1.26-1.89-2.36-1.53l-17.59,5.71c-.81.26-1.33,1.06-1.24,1.91l4.37,41.53c.12,1.14,1.26,1.89,2.36,1.53l9.65-3.14-2.03,9.76-21.92,14.13c-.45.29-.75.77-.82,1.3l-3.01,24.79c-.19,1.54,1.51,2.58,2.8,1.72,4.8-3.21,13.33-8.91,14.57-9.78-5.59,17.89-14.61,34.36-27.07,49.4,1.09,1.91,3.03,4.26,5.82,7.02,3.61,4.2,6.29,7.47,8.03,9.84,21-25.61,35.58-60.72,43.74-105.35l9.09-43.7Z"/>
      <path class="cls-3" d="M279.6,182.67c-.76-.89-2.15-.82-2.84.13-11.74,16.34-24.11,31.57-37.1,45.67.7,6.02,1.9,18.69,2.49,25.31.14,1.57,2.09,2.22,3.15,1.05,16.5-18.32,31.95-36.96,46.34-55.94.52-.68.48-1.63-.07-2.28l-11.97-13.95Z"/>
      <path class="cls-3" d="M282.19,264.46l79.8-8.39c.78-.08,1.42-.66,1.58-1.43l15.45-74.31c.25-1.2-.74-2.3-1.96-2.17l-79.8,8.39c-.78.08-1.42.66-1.58,1.43l-15.45,74.31c-.25,1.2.74,2.3,1.96,2.17ZM311.85,207.15l41.79-4.39-1.46,7.02-41.79,4.39,1.46-7.02ZM306.5,232.9l41.79-4.39-1.46,7.02-41.79,4.39,1.46-7.02Z"/>
      <path class="cls-3" d="M281.09,250.07l-12.87-16.2c-11.8,19.06-25.94,38.6-42.43,58.65-.15,9.69-.6,19.91-1.34,30.67,4.19-3.99,8.29-8.5,12.33-13.51l-12.15,58.44c-.25,1.2.74,2.3,1.96,2.17l17.4-1.83c.78-.08,1.42-.66,1.58-1.43l19.52-93.91c5.71-7.72,11.04-15.4,15.99-23.05Z"/>
      <path class="cls-3" d="M360.24,291.36l-13.56,1.43,1.46-7.02,12.43-1.31c.78-.08,1.42-.66,1.58-1.43l4.09-19.69c.25-1.2-.74-2.3-1.96-2.17l-88.96,9.35c-.78.08-1.42.66-1.58,1.43l-4.09,19.69c-.25,1.2.74,2.3,1.96,2.17l54.78-5.76-1.46,7.02-59.37,6.24c-.78.08-1.42.66-1.58,1.43l-4.26,20.47c-.25,1.2.74,2.3,1.96,2.17l15.28-1.61-10.37,9.49,11.57,22.45,13.31-12.85-1.19,19.21c46.61.04,52.49-45.21,52.49-45.21l13.59-1.43c.78-.08,1.42-.66,1.58-1.43l4.26-20.47c.25-1.2-.74-2.3-1.96-2.17ZM297.76,336.86l-8.78-14.34,30.91-3.25c-2.75,18.49-22.14,17.59-22.14,17.59Z"/>
      <path class="cls-3" d="M473.37,234.44l-19.1,21.85,3.73-17.95-9.16.96c7.89-11,15.36-22.72,22.43-35.18l46.2-4.86c.78-.08,1.42-.66,1.58-1.43l5.72-27.49c.25-1.2-.74-2.3-1.96-2.17l-126.74,13.32c-.78.08-1.42.66-1.58,1.43l-5.72,27.49c-.25,1.2.74,2.3,1.96,2.17l51.92-5.46c-17.89,30.38-43.47,58.26-76.74,83.63l8.72,28.09c20.2-16.36,37.51-33.2,51.93-50.49l-16.37,78.73c-.25,1.2.74,2.3,1.96,2.17l21.98-2.31c.78-.08,1.42-.66,1.58-1.43l17.9-86.1,29.28,45.01,23.83-28.46-33.36-41.53Z"/>
      <path class="cls-3" d="M667.48,149.92l-70.64,7.43c-.78.08-1.42.66-1.58,1.43l-5.07,24.37c-.25,1.2.74,2.3,1.96,2.17l33.6-3.53c-7.67,13.53-15.39,25.54-23.16,36.02,3.13,11.88,5.74,23.57,7.83,35.05l17.97-11.05c-.99-2.44-2.03-6.39-3.13-11.88-1.76-5.92-3.08-10.36-3.95-13.32,4.84-7.12,9.48-14.22,13.95-21.31-4.47,7.09-3.07,4.9,4.16-6.54l-13.67-6.96,37.04-3.9c.78-.08,1.42-.66,1.58-1.43l5.07-24.37c.25-1.2-.74-2.29-1.96-2.17Z"/>
      <path class="cls-3" d="M645,249.98l-67.2,7.07c-.78.08-1.42.66-1.58,1.43l-4.9,23.59c-.25,1.2.74,2.3,1.96,2.17l21.58-2.27-3.89,18.73-26.9,2.83,2.41-11.62c.25-1.2-.74-2.3-1.96-2.17l-17.57,1.85,1.78-8.58,16.6-1.75,17.52-84.28-16.6,1.75,1.78-8.58,17-1.79c.78-.08,1.42-.66,1.58-1.43l4.42-21.25c.25-1.2-.74-2.3-1.96-2.17l-15.85,1.67,2.42-11.62c.25-1.2-.74-2.3-1.96-2.17l-16.83,1.77c-.78.08-1.42.66-1.58,1.43l-2.65,12.75-17.01,1.79c-.78.08-1.42.66-1.58,1.43l-4.42,21.25c-.25,1.2.74,2.3,1.96,2.17l15.85-1.67-1.78,8.58-16.6,1.75-17.52,84.28,16.6-1.75-1.78,8.58-18.72,1.97c-.78.08-1.42.66-1.58,1.43l-4.09,19.69c-.25,1.2.74,2.3,1.96,2.17l17.57-1.85-4.36,20.98c-.25,1.2.74,2.3,1.96,2.17l16.83-1.77c.78-.08,1.42-.66,1.58-1.43l4.6-22.12,18.32-1.93-2.9,13.96c-.25,1.2.74,2.3,1.96,2.17l75.22-7.91c.78-.08,1.42-.66,1.58-1.43l4.58-22.03c.25-1.2-.74-2.3-1.96-2.17l-26.73,2.81,3.89-18.73,24.45-2.57c.78-.08,1.42-.66,1.58-1.43l4.9-23.59c.25-1.2-.74-2.3-1.96-2.17ZM557.53,221.78l8.59-.9-2.11,10.14-8.59.9,2.11-10.14ZM551.53,250.65l8.59-.9-2.11,10.14-8.59.9,2.11-10.14ZM536.83,262.12l-8.59.9,2.11-10.14,8.59-.9-2.11,10.14ZM542.83,233.25l-8.59.9,2.11-10.14,8.59-.9-2.11,10.14Z"/>
      <path class="cls-3" d="M663.31,187l-12.94-7.8c-7.94,13.05-15.66,25.06-23.16,36.02.93,4.48,2.58,10.93,4.94,19.33,1.43,7.48,2.58,12.7,3.46,15.66l17.15-12.49c-1.27-2.92-2.8-8.1-4.61-15.54-1.42-3.92-2.36-6.62-2.8-8.1,1.08-1.64,2.72-4.1,4.89-7.38,5.43-8.2,9.79-14.77,13.05-19.69Z"/>
      <path class="cls-3" d="M585.81,255.44l17.81-10.27-6.75-26.77s9.32-13.44,11.99-17.29c2.77-4.36,6.53-9.85,6.53-9.85l-13.67-6.96-23.16,36.02,7.26,35.11Z"/>
      <path class="cls-3" d="M780.54,161.7c-2.96-6.67-8.11-11.56-15.46-14.68-7.35-3.11-16.42-4.11-27.21-2.97-11.11,1.17-21.34,4.27-30.69,9.3-9.35,5.03-17.19,11.57-23.52,19.61-6.33,8.04-10.51,16.93-12.53,26.67l-.51,2.43c-.17.81-.04,1.47.4,1.98.44.51,1.05.72,1.85.64l27.6-1.71c1.9-.2,3.04-1.19,3.41-2.98l.81-3.89c1.11-5.35,4.05-9.95,8.8-13.78,4.76-3.83,10.46-6.1,17.13-6.8,6.19-.65,10.86.41,14.01,3.17,3.15,2.76,4.19,6.74,3.11,11.93-1.01,4.87-3.38,9.16-7.1,12.89-3.73,3.72-9.14,8.1-16.24,13.13-8.76,6.32-15.68,12.16-20.76,17.54-5.08,5.38-8.46,12.12-10.14,20.23l-1.62,7.79c-.17.81-.04,1.47.4,1.98.44.51,1.05.72,1.85.64l27.61-2.9c.79-.08,1.52-.44,2.2-1.06.67-.62,1.09-1.34,1.26-2.16l1.16-5.6c.88-4.22,2.97-7.93,6.27-11.13,3.3-3.2,8.23-7.13,14.79-11.79,6.2-4.46,11.39-8.49,15.56-12.11,4.16-3.61,8.01-8.1,11.53-13.47,3.52-5.37,6.03-11.62,7.51-18.76,1.96-9.41,1.45-17.45-1.5-24.12Z"/>
      <path class="cls-3" d="M703.6,279.76c-5.56.58-10.45,2.85-14.68,6.78-4.24,3.94-6.92,8.67-8.07,14.18-1.15,5.52-.31,9.91,2.5,13.19,2.81,3.28,6.91,4.63,12.31,4.06,5.39-.57,10.22-2.86,14.47-6.88,4.25-4.02,6.95-8.78,8.1-14.3,1.18-5.68.43-10.08-2.26-13.21-2.69-3.13-6.81-4.4-12.36-3.82Z"/>
    </g>
    <g id="bmi27">
      <g class="char" style="--i:0">
        <path class="cls-3" d="M110.44,175.61c9.64-7.25,15.76-17.12,18.35-29.61,3.05-14.68-.75-24.55-11.4-29.6-.68-.31-.6-.69.24-1.16,11.86-6.66,19.13-16.43,21.8-29.31,5.14-24.73-7.22-35.52-37.07-32.38l-47.43,4.98c-.63.07-1.21.35-1.75.84-.54.5-.87,1.07-1,1.71l-27.15,130.58c-.13.65-.03,1.17.32,1.57.35.41.83.57,1.46.51l48.94-5.14c13.48-1.42,25.04-5.75,34.68-13ZM67.98,110.44l6.27-30.13c.13-.64.51-1,1.15-1.06l22.11-2.32c5.92-.62,10.22.34,12.89,2.9,2.67,2.55,3.49,6.34,2.44,11.36-1.02,4.89-3.46,8.93-7.32,12.11-3.87,3.18-8.76,5.08-14.68,5.7l-22.11,2.32c-.63.07-.88-.22-.74-.87ZM56.3,166.65l6.67-32.07c.13-.64.51-1,1.15-1.07l23.43-2.46c5.92-.62,10.2.41,12.85,3.09,2.65,2.68,3.42,6.66,2.32,11.94-1.1,5.28-3.6,9.61-7.5,12.98-3.91,3.37-8.76,5.36-14.55,5.97l-23.62,2.48c-.63.07-.88-.22-.74-.87Z"/>
        <path class="cls-3" d="M134.92,183.31c.35.41.83.57,1.46.51l22.11-2.32c.63-.07,1.21-.35,1.75-.85.53-.5.87-1.07,1-1.71l17.67-84.99c.11-.51.29-.82.56-.91.26-.09.48.04.66.4l13.36,29.96c.41.97,1.19,1.39,2.32,1.27l11.15-1.17c1.13-.12,2.12-.72,2.97-1.82l26.69-34.17c.33-.41.62-.63.88-.66.25-.03.32.22.22.73l-17.71,85.19c-.13.65-.03,1.17.32,1.57.35.41.83.57,1.47.51l22.11-2.32c.63-.07,1.21-.35,1.75-.85.53-.5.87-1.07,1-1.71l27.15-130.58c.13-.64.03-1.17-.32-1.57-.35-.4-.84-.57-1.46-.51l-22.11,2.32c-1.13.12-2.12.73-2.97,1.82l-37.89,48.01c-.54.81-.92.85-1.13.12l-18.98-42.03c-.42-.96-1.19-1.39-2.32-1.27l-22.11,2.32c-.63.07-1.21.35-1.75.84-.54.5-.87,1.07-1,1.71l-27.15,130.58c-.13.65-.03,1.17.32,1.57Z"/>
        <path class="cls-3" d="M270.02,169.11c.35.41.83.57,1.46.51l22.11-2.32c.63-.07,1.21-.35,1.75-.85.53-.5.87-1.07,1-1.71l27.15-130.58c.13-.64.03-1.17-.32-1.57-.35-.4-.84-.57-1.47-.51l-22.11,2.32c-.63.07-1.21.35-1.75.84-.54.5-.87,1.07-1,1.71l-27.15,130.58c-.13.65-.03,1.17.32,1.57Z"/>
      </g>
      <g class="char" style="--i:1">
        <path class="cls-1" d="M398.73,155.55c.57-.53.93-1.14,1.07-1.83l4.16-20.03c.14-.69.03-1.25-.34-1.68-.37-.43-.89-.61-1.57-.54l-81.61,8.58c-.68.07-1.3.37-1.87.9-.57.53-.93,1.14-1.07,1.83l-4.16,20.03c-.14.69-.03,1.25.34,1.68.37.43.89.61,1.57.54l81.61-8.58c.67-.07,1.29-.37,1.87-.9Z"/>
        <path class="cls-1" d="M321.23,132.49c.27-.03.7-.21,1.3-.54l89.49-45.56c1.35-.81,2.16-1.84,2.42-3.08l4.38-21.06c.29-1.37-.12-2.28-1.22-2.7l-74.12-28.37c-.72-.33-1.39-.29-2,.11-.61.4-1.02,1.08-1.22,2.05l-4.68,22.51c-.26,1.24.15,2.14,1.22,2.7l49.25,16.84c.72.33.64.74-.26,1.24l-58.57,27.97c-1.33.68-2.13,1.71-2.42,3.08l-4.72,22.72c-.32,1.52.07,2.22,1.14,2.1Z"/>
        <path class="cls-3" d="M470.64,81.32c-4.46,4.25-8.89,8.68-13.3,13.3-2.01,1.98-6.99,6.94-14.92,14.89-7.94,7.95-15.64,15.34-23.09,22.17-.92.85-1.5,1.86-1.74,3.02l-3.7,17.77c-.13.65-.03,1.17.32,1.57.35.41.83.57,1.47.51l85.03-8.94c.63-.07,1.21-.35,1.75-.85.53-.5.87-1.07,1-1.71l3.9-18.74c.13-.64.03-1.17-.32-1.57-.35-.4-.84-.57-1.46-.51l-51.2,5.38c-.38.04-.6-.06-.68-.31-.07-.24.04-.51.35-.79l3.44-3.19c10.87-10.21,19.08-18,24.63-23.37,5.55-5.37,10.8-10.77,15.75-16.2,6.66-7.12,11.9-13.65,15.72-19.6,3.82-5.94,6.3-11.62,7.42-17.03,1.47-7.08,1.02-13.33-1.37-18.75-2.39-5.42-6.53-9.49-12.43-12.2-5.9-2.72-13.33-3.61-22.27-2.67-8.06.85-15.63,3.03-22.71,6.54-7.08,3.52-13.12,8.15-18.14,13.91-5.02,5.76-8.43,12.13-10.26,19.12l-1.89,9.08c-.14.65-.03,1.17.32,1.57.35.41.83.57,1.47.51l22.3-2.34c.63-.07,1.21-.35,1.75-.84.53-.5.87-1.07,1-1.71l1-4.83c.99-4.76,3.36-8.76,7.11-11.99,3.75-3.23,8.14-5.11,13.19-5.64,5.04-.53,8.83.49,11.38,3.06,2.55,2.57,3.35,6.1,2.41,10.61-1.31,6.31-9.05,16.57-23.22,30.78Z"/>
        <path class="cls-3" d="M534.15,142.1l23.62-2.48c1.38-.15,2.39-.82,3.01-2.02l63.42-113.04c.62-1.2,1.01-2.18,1.17-2.96l4.06-19.51c.13-.64.03-1.17-.32-1.57-.35-.4-.84-.57-1.46-.51l-82.57,8.68c-.63.07-1.21.35-1.75.84-.54.5-.87,1.07-1,1.71l-6.62,30.93c-.13.65-.03,1.17.32,1.57.35.41.83.57,1.47.51l17.19-1.81c.63-.07,1.21-.35,1.75-.85.53-.5.87-1.07,1-1.71l1.85-8.89c.13-.64.51-1,1.15-1.06l35.33-3.71c.76-.08.93.28.52,1.08l-63.45,112.29c-1.01,1.87-.56,2.7,1.33,2.51Z"/>
      </g>
    </g>
  </g>
</svg>