<?xml version="1.0" encoding="UTF-8"?>
<svg xmlns="http://www.w3.org/2000/svg" xmlns:xlink="http://www.w3.org/1999/xlink" viewBox="-30 -20 630.16 580.55">
  <defs>
    <style>
      .cls-1 {
        fill: #c1d6f7;
      }

      .cls-2 {
        fill: #b9bf70;
      }

      .cls-3 {
        fill: #ea5e5e;
      }

      .cls-4 {
        fill: #90aae4;
      }

      .cls-5 {
        fill: #475f9a;
      }

      .cls-6 {
        fill: #e06a43;
      }

      .cls-7 {
        isolation: isolate;
      }

      .cls-8 {
        fill: #cb4f30;
      }

      .cls-9 {
        fill: #f4c7b5;
      }

      .cls-10 {
        fill: #9a9e42;
      }

      .cls-11 {
        fill: #efcd97;
      }

      .cls-12 {
        fill: #d98029;
      }

      .cls-13 {
        fill: #e9be83;
      }

      .cls-14 {
        fill: url(#_未命名漸層_5);
      }

      .cls-15 {
        fill: #0f0f0f;
        mix-blend-mode: soft-light;
        opacity: .46;
      }

      .cls-16 {
        fill: #b7a97b;
      }

      .cls-17 {
        fill: #5e5748;
      }

      .cls-18 {
        fill: #eaa78f;
      }

      .cls-19 {
        fill: #f8e9cb;
      }

      .cls-20 {
        fill: #f47171;
      }

      .cls-21 {
        fill: #c6ba8b;
      }

      .cls-22 {
        fill: #efe8ca;
      }
      .wobble-hor-bottom {
        animation: wobble-hor-bottom 10s cubic-bezier(0.175, 0.885, 0.32, 1.275) both infinite -.5s;
      }
      @keyframes wobble-hor-bottom {
        0%,
        100% {
          transform: translateX(0%);
          transform-origin: 50% 50%;
        }
        15% {
          transform: translateX(-30px) rotate(-6deg);
        }
        30% {
          transform: translateX(15px) rotate(6deg);
        }
        45% {
          transform: translateX(-15px) rotate(-3.6deg);
        }
        60% {
          transform: translateX(9px) rotate(2.4deg);
        }
        75% {
          transform: translateX(-6px) rotate(-1.2deg);
        }
      }
    </style>
    <linearGradient id="_未命名漸層_5" data-name="未命名漸層 5" x1="54.29" y1="534.93" x2="495.87" y2="534.93" gradientUnits="userSpaceOnUse">
      <stop offset=".7" stop-color="#e1d6c2"/>
      <stop offset="1" stop-color="#e1d6c1"/>
    </linearGradient>
  </defs>
  <g class="cls-7">
    <g id="_圖層_2" data-name="圖層 2">
      <g id="_圖層_1-2" data-name="圖層 1">
        <g id="libra-girl">
          <g>
            <polygon class="cls-13" points="63.01 309.57 25.73 309.57 25.73 73.78 63.01 73.78 63.01 76.28 28.24 76.28 28.24 307.07 63.01 307.07 63.01 309.57"/>
            <rect class="cls-13" x="26.99" y="190.42" width="36.02" height="2.5"/>
            <rect class="cls-13" x="26.99" y="135.08" width="36.02" height="2.5"/>
            <rect class="cls-13" x="26.99" y="246.61" width="36.02" height="2.5"/>
            <rect class="cls-13" x="26.99" y="103.96" width="23.49" height="2.5"/>
            <rect class="cls-13" x="26.99" y="219.38" width="23.49" height="2.5"/>
            <rect class="cls-13" x="26.99" y="164.23" width="23.49" height="2.5"/>
            <rect class="cls-13" x="26.99" y="279.65" width="23.49" height="2.5"/>
          </g>
          <g>
            <g>
              <path class="cls-10" d="M187.09,427.1c-7.53-12.41-3.41-29.39-11.06-41.73-6.21-10.01-18.38-14.24-29.45-18.28-1.77-.64-3.56-1.33-5.34-2.08-2.71-1.13-5.39-2.39-7.92-3.84-.46,2.88-1.16,5.77-1.98,8.58-.54,1.85-1.13,3.67-1.73,5.46-3.79,11.16-8.13,23.29-4.22,34.4,4.82,13.7,20.61,21.15,25.55,34.8,3.91,10.8.08,22.79,1.15,34.22,1.26,13.4,9.81,25.89,21.84,31.89,7.31,3.66,15.54,4.98,23.24,7.7,7.25,2.55,14.52,6.87,17.83,13.73l-.62-1.4.71,1.37c-3.26-6.89-2.08-15.25.49-22.51,2.72-7.71,6.85-14.94,8.59-22.93,2.86-13.14-1.5-27.63-11.15-37.01-8.23-8.01-19.97-12.55-25.93-22.36Z"/>
              <path class="cls-2" d="M214.38,531.48c-.35,0-.69-.2-.85-.53l-74.04-154.7c-.22-.47-.03-1.03.44-1.25.47-.23,1.03-.03,1.25.44l74.04,154.7c.22.47.03,1.03-.44,1.25-.13.06-.27.09-.4.09Z"/>
              <path class="cls-2" d="M163.78,425.75c-.16,0-.32-.04-.47-.13l-29.33-16.82c-.45-.26-.6-.83-.35-1.28.26-.45.83-.6,1.28-.35l28.18,16.16,5.97-32.52c.09-.51.59-.85,1.09-.75.51.09.85.58.75,1.09l-6.21,33.83c-.06.3-.25.55-.53.68-.13.06-.26.09-.4.09Z"/>
              <path class="cls-2" d="M199.78,501.26c-.16,0-.32-.04-.47-.13l-36.99-21.21c-.45-.26-.6-.83-.35-1.28.26-.45.83-.6,1.28-.35l35.84,20.55,7.59-41.36c.09-.51.59-.85,1.09-.75.51.09.85.58.75,1.09l-7.83,42.66c-.06.3-.25.55-.53.68-.13.06-.26.09-.4.09Z"/>
              <path class="cls-2" d="M178.98,457.26c-.16,0-.32-.04-.47-.13l-22.94-13.16c-.45-.26-.6-.83-.35-1.28.26-.45.83-.6,1.28-.35l21.79,12.5,4.62-25.16c.09-.51.59-.85,1.09-.75.51.09.85.58.75,1.09l-4.86,26.46c-.06.3-.25.55-.53.68-.12.06-.26.09-.39.09Z"/>
            </g>
            <g>
              <path class="cls-2" d="M165.56,535.3c10.86,5.9,29.32-6.09,45.47-4.64-9-13.49-7.3-35.44-17.68-42.15-10.38-6.72-24.82,1.73-34.12-4.16-9.3-5.89-13.03-18.26-21.34-24.76-8.31-6.48-20.04-6.95-31.96-3.97-11.93,2.98-22.24-.58-22.24-.58,0,0,8.07,7.35,11.15,19.25,3.09,11.89,9.11,21.96,18.78,26.15,9.68,4.2,22.32,1.55,31.95,6.9,9.63,5.35,9.12,22.07,19.99,27.97Z"/>
              <path class="cls-10" d="M210.85,531.9c-.16,0-.33-.04-.48-.13l-105.29-62.53c-.45-.26-.59-.84-.33-1.29.27-.45.84-.59,1.29-.33l105.29,62.53c.45.26.59.84.33,1.29-.18.3-.49.46-.81.46Z"/>
              <path class="cls-10" d="M114.8,490.8c-.49,0-.9-.38-.93-.87-.04-.52.36-.97.87-1l22.76-1.55-9.2-21.33c-.21-.48.02-1.03.49-1.23.47-.21,1.03.02,1.23.49l9.72,22.55c.12.28.1.6-.06.86-.16.26-.43.43-.74.45l-24.09,1.64s-.04,0-.06,0Z"/>
              <path class="cls-10" d="M159.82,521.81c-.49,0-.9-.38-.93-.87-.04-.52.36-.96.87-1l29.05-1.98-11.73-27.22c-.21-.48.02-1.03.49-1.23.47-.21,1.03.02,1.23.49l12.26,28.44c.12.28.1.6-.06.86-.16.26-.43.43-.74.45l-30.37,2.06s-.04,0-.07,0Z"/>
              <path class="cls-10" d="M141.56,503.13c-.49,0-.9-.38-.93-.87-.04-.52.36-.97.87-1l17.52-1.19-7.08-16.42c-.2-.48.02-1.03.49-1.23.47-.21,1.03.01,1.23.49l7.6,17.64c.12.28.1.6-.06.86-.16.26-.43.43-.74.45l-18.84,1.28s-.05,0-.07,0Z"/>
            </g>
            <g>
              <path class="cls-10" d="M374.96,424.61c6.53-12.29,1.67-28.32,8.33-40.55,5.4-9.92,16.82-14.63,27.2-19.1,1.66-.71,3.33-1.47,5-2.28,2.53-1.23,5.03-2.58,7.37-4.1.6,2.73,1.42,5.46,2.36,8.11.62,1.74,1.28,3.46,1.95,5.13,4.23,10.48,9.05,21.85,5.91,32.7-3.87,13.37-18.59,21.36-22.57,34.69-3.16,10.55,1.16,21.82.76,32.82-.48,12.9-7.98,25.31-19.18,31.71-6.8,3.9-14.6,5.61-21.83,8.63-6.81,2.84-13.53,7.36-16.33,14.11l.52-1.38-.6,1.35c2.74-6.77,1.16-14.71-1.69-21.52-3.02-7.23-7.37-13.93-9.46-21.48-3.45-12.42-.06-26.52,8.66-36.03,7.45-8.11,18.44-13.09,23.61-22.81Z"/>
              <path class="cls-2" d="M354.45,526.04c-.12,0-.24-.02-.36-.07-.48-.2-.71-.74-.51-1.23l62.48-152.09c.2-.48.75-.71,1.23-.51s.71.74.51,1.23l-62.48,152.09c-.15.36-.5.58-.87.58Z"/>
              <path class="cls-2" d="M397.15,422.09c-.12,0-.24-.02-.35-.07-.28-.11-.5-.36-.57-.65l-7.78-32.04c-.12-.5.19-1.01.69-1.13.5-.13,1.01.19,1.13.69l7.47,30.75,26.05-16.97c.44-.28,1.02-.16,1.3.28.28.43.16,1.02-.28,1.3l-27.16,17.69c-.15.1-.33.15-.51.15Z"/>
              <path class="cls-2" d="M366.79,496.32c-.12,0-.24-.02-.35-.07-.28-.11-.5-.36-.57-.65l-9.81-40.41c-.12-.5.19-1.01.69-1.13.5-.13,1.01.19,1.13.69l9.5,39.12,33.14-21.58c.44-.28,1.02-.16,1.3.28.28.43.16,1.02-.28,1.3l-34.25,22.31c-.15.1-.33.15-.51.15Z"/>
              <path class="cls-2" d="M384.31,453.07c-.12,0-.24-.02-.35-.07-.28-.11-.5-.36-.57-.65l-6.08-25.06c-.12-.5.19-1.01.69-1.13.5-.13,1.01.19,1.13.69l5.77,23.78,20.14-13.11c.44-.28,1.02-.16,1.3.28.28.43.16,1.02-.28,1.3l-21.25,13.84c-.15.1-.33.15-.51.15Z"/>
            </g>
            <g>
              <path class="cls-2" d="M401.77,520.49c-11.14,5.93-29.9-6.47-46.41-5.14,9.31-13.7,7.77-36.14,18.43-42.9,10.66-6.77,25.33,1.98,34.89-3.96,9.56-5.94,13.46-18.54,22.01-25.1,8.54-6.55,20.52-6.93,32.67-3.78,12.15,3.14,22.72-.4,22.72-.4,0,0-8.3,7.43-11.56,19.57-3.25,12.12-9.49,22.35-19.41,26.55-9.92,4.2-22.81,1.39-32.69,6.77-9.88,5.38-9.51,22.46-20.65,28.39Z"/>
              <path class="cls-10" d="M355.56,516.61c-.32,0-.64-.17-.81-.47-.26-.45-.11-1.02.34-1.28l108.08-62.96c.45-.26,1.02-.11,1.28.34.26.45.11,1.02-.34,1.28l-108.08,62.96c-.15.09-.31.13-.47.13Z"/>
              <path class="cls-10" d="M454.01,475.47s-.05,0-.07,0l-24.59-1.88c-.3-.02-.58-.19-.73-.45-.16-.26-.18-.58-.05-.86l10.12-22.95c.21-.47.76-.69,1.24-.48.47.21.69.76.48,1.24l-9.59,21.74,23.26,1.78c.52.04.9.49.86,1.01-.04.49-.45.87-.94.87Z"/>
              <path class="cls-10" d="M407.76,506.75s-.05,0-.07,0l-31.01-2.37c-.3-.02-.58-.19-.73-.45-.16-.26-.18-.58-.05-.86l12.77-28.94c.21-.47.76-.69,1.24-.48.47.21.69.76.48,1.24l-12.23,27.73,29.68,2.27c.52.04.9.49.86,1.01-.04.49-.45.87-.93.87Z"/>
              <path class="cls-10" d="M426.57,487.83s-.05,0-.07,0l-19.23-1.47c-.3-.02-.58-.19-.73-.45-.16-.26-.18-.58-.05-.86l7.92-17.95c.21-.47.76-.69,1.24-.48.47.21.69.76.48,1.24l-7.38,16.74,17.91,1.37c.52.04.9.49.86,1.01-.04.49-.45.87-.94.87Z"/>
            </g>
            <ellipse class="cls-14" cx="275.08" cy="534.93" rx="220.79" ry="16.61"/>
          </g>
          <g id="libra" class="wobble-hor-bottom">
            <g>
              <g>
                <path class="cls-12" d="M546.45,270.33c-11.68,17.63-55.16,81.43-67.83,74.59-12.62-6.81,16.58-77.72,25-97.46,1.38-3.19,5.65-4.45,10.28-3.04,7.67,2.36,19.53,7.12,29.83,15.98,3.52,3.02,4.57,7.14,2.73,9.93Z"/>
                <path class="cls-2" d="M559.41,246.24c-8.85,2.4-15.53,6.3-19.87,9.41-3.84,2.76-8.91,3.04-13.08.79l-.18-.1c-4.17-2.25-6.73-6.64-6.52-11.36.22-5.29-.2-13.05-3.05-21.77-5.3-16.26,15.43-14.23,15.01,1.64-.04,2.06-.23,4.02-.49,5.85,4.35-8.77,10.16-16.52,16.17-13.28,6.03,3.25,2.72,12.35-2.22,20.81,1.38-1.22,2.94-2.44,4.61-3.62,13.05-9.06,26.13,7.15,9.61,11.64Z"/>
                <path class="cls-10" d="M527.3,254.94c-.12,0-.24-.02-.36-.07-.46-.18-.72-.68-.6-1.16,4.87-19.51-3.85-34.89-3.94-35.05-.27-.47-.11-1.08.36-1.35.47-.27,1.08-.11,1.35.36.34.58,7.43,13.11,5.31,30.26l13.4-24.84c.26-.48.86-.66,1.34-.4.48.26.66.86.4,1.34l-16.39,30.39c-.18.33-.51.52-.87.52Z"/>
                <path class="cls-10" d="M527.3,254.94c-.25,0-.49-.09-.68-.28-.39-.38-.41-1-.03-1.4,15.47-16.09,32.58-15.95,33.3-15.93.54.01.98.46.97,1.01-.01.54-.48.96-1.01.97-.2-.02-16.99-.12-31.84,15.33-.19.2-.45.3-.71.3Z"/>
                <path class="cls-8" d="M544.59,265.32c-.1,0-.2-.01-.29-.04-21.84-6.75-31.61-16.87-32.01-17.3-.38-.4-.36-1.02.04-1.39.4-.38,1.02-.36,1.4.04.1.1,9.86,10.19,31.16,16.77.52.16.81.71.65,1.23-.13.42-.52.7-.94.7Z"/>
                <path class="cls-8" d="M539.93,281.07c-.05,0-.11,0-.16-.01-27.36-4.58-41.24-22.18-41.37-22.35-.33-.43-.25-1.05.18-1.38.43-.34,1.05-.25,1.39.18.13.17,13.58,17.16,40.14,21.61.54.09.9.6.81,1.14-.08.48-.5.82-.97.82Z"/>
                <path class="cls-8" d="M526.66,299.78s-.07,0-.1,0c-23.58-2.38-36.43-19.57-36.56-19.74-.32-.44-.23-1.06.21-1.38.44-.32,1.06-.23,1.38.21.12.17,12.48,16.66,35.17,18.95.54.06.94.54.88,1.08-.05.51-.48.89-.98.89Z"/>
                <path class="cls-8" d="M513.57,316.96s-.04,0-.07,0c-20.01-1.32-30.27-15.96-30.69-16.58-.31-.45-.19-1.06.26-1.37.45-.31,1.06-.19,1.37.25.1.15,10.17,14.47,29.19,15.72.54.04.96.51.92,1.05-.04.52-.47.92-.99.92Z"/>
                <path class="cls-8" d="M498.02,334.78h-.02c-14.49-.29-21.29-11.2-21.57-11.66-.28-.47-.14-1.07.33-1.36.47-.28,1.07-.14,1.36.33.07.1,6.54,10.45,19.92,10.72.55.01.98.46.97,1.01-.01.54-.45.97-.99.97Z"/>
              </g>
              <g>
                <path class="cls-1" d="M385.73,282.21l15.12,38.88c1.16,2.99.15,6.39-2.48,8.24-3.21,2.26-8.97,5.44-19.22,9.43-10.26,3.99-16.64,5.53-20.54,6.04-3.18.41-6.22-1.42-7.38-4.4l-15.12-38.88c-.58-1.49-.54-3.14.1-4.6.64-1.46.67-3.12.1-4.6l-1.62-4.17c-.23-.59-.54-1.13-.95-1.62-.09-.12-.18-.22-.28-.34l-2.79-2.95c-.53-.56-.95-1.22-1.23-1.95l-10.13-26.04c-.69-1.77-.83-3.7-.4-5.56l7.69-18.19-1.2-3.08,18.86-7.34,1.2,3.08,17.96,8.21.6.46c1.28,1.03,2.26,2.38,2.86,3.92l10.13,26.04c.28.73.42,1.51.41,2.27l-.06,4.06c-.01.34.02.67.07,1,.06.44.17.86.33,1.27l1.62,4.17c.58,1.48,1.73,2.68,3.19,3.32,1.45.64,2.6,1.83,3.18,3.32Z"/>
                <path class="cls-6" d="M343.28,211.63l3.65,9.4-23.58,9.17-3.65-9.4c-.73-1.89.2-4.02,2.09-4.75l16.73-6.51c1.89-.73,4.02.2,4.75,2.09Z"/>
                <g>
                  <path class="cls-4" d="M383.54,282.8c-22.86,15.73-45.03,17.56-45.25,17.58h-.09c-.59,0-1.08-.45-1.11-1.04-.05-.61.42-1.15,1.03-1.19.22-.03,21.85-1.84,44.16-17.19.5-.34,1.2-.22,1.54.28.35.51.22,1.21-.28,1.55Z"/>
                  <path class="cls-4" d="M365.14,236.41c-23.04,15.85-45.03,17.56-45.25,17.58h-.09c-.57,0-1.06-.45-1.11-1.04-.04-.61.42-1.15,1.04-1.19.21-.03,21.82-1.84,44.15-17.19.51-.35,1.2-.22,1.55.28.17.24.23.55.18.84-.06.29-.22.54-.48.71Z"/>
                  <path class="cls-4" d="M376.75,266.25c-23.03,15.85-45.03,17.56-45.25,17.57h-.09c-.57.01-1.06-.44-1.11-1.03-.05-.61.42-1.15,1.03-1.19.22-.03,21.84-1.84,44.16-17.19.24-.17.54-.23.83-.18.29.06.55.22.72.46.34.51.22,1.21-.3,1.55Z"/>
                  <path class="cls-4" d="M354.56,338.24c.11.27.1.57-.02.84-.11.28-.33.49-.61.6-.12.05-.27.07-.4.07-.46,0-.88-.28-1.04-.71l-12.44-31.99c-.11-.28-.1-.59.01-.85.12-.27.34-.48.62-.59.27-.11.57-.11.85.01.27.12.48.34.59.62l12.44,31.99Z"/>
                  <path class="cls-4" d="M327.54,231.07c-.05-.61.42-1.15,1.03-1.2.09,0,8.25-.65,13.93-5.4.22-.2.51-.28.81-.26.31.03.57.17.76.39.4.48.33,1.19-.13,1.58-6.26,5.24-14.83,5.89-15.2,5.91h-.07c-.59.01-1.08-.45-1.11-1.03Z"/>
                </g>
                <path class="cls-8" d="M321.25,220.1c-.32,0-.63-.2-.75-.52-.16-.42.04-.88.46-1.05l20.74-8.06c.42-.16.89.04,1.05.46.16.42-.04.88-.46,1.05l-20.74,8.06c-.1.04-.2.06-.29.06Z"/>
              </g>
              <g>
                <g>
                  <path class="cls-13" d="M498.96,215.12h0s-6.76,100.22-6.76,100.22c-.52,8.52-7.62,15.19-16.16,15.19h-86.75c-8.53,0-15.63-6.67-16.16-15.2l-6.77-100.21c-.27-4.52,1.28-8.81,4.36-12.1,3.1-3.29,7.28-5.11,11.8-5.11h.59c5.37,0,10.01-3.57,11.55-8.89,4.87-16.8,20.49-28.55,38-28.55s33.14,11.74,38.01,28.55c1.54,5.32,6.18,8.89,11.55,8.89h.59c4.52,0,8.7,1.81,11.8,5.11,3.09,3.29,4.63,7.59,4.35,12.09Z"/>
                  <path class="cls-19" d="M494.71,214.86l-6.76,100.21c-.38,6.28-5.62,11.2-11.91,11.2h-86.75c-6.3,0-11.53-4.92-11.91-11.21l-6.76-100.21c-.21-3.33.94-6.5,3.22-8.93,2.28-2.42,5.37-3.76,8.7-3.76h.59c7.27,0,13.56-4.81,15.63-11.95,4.35-15.01,18.29-25.48,33.92-25.48s29.58,10.47,33.92,25.48c2.07,7.15,8.35,11.95,15.63,11.95h.59c3.33,0,6.42,1.34,8.7,3.76,2.28,2.43,3.43,5.6,3.22,8.93Z"/>
                </g>
                <path class="cls-13" d="M430.13,230.43v78.2c0,6.66-5.84,12.06-13.05,12.06h-20.53c-6.87,0-12.56-4.92-13.02-11.25l-6.32-78.2c-.5-6.96,5.47-12.87,13.02-12.87h26.85c7.22,0,13.05,5.4,13.05,12.06Z"/>
                <path class="cls-13" d="M435.2,230.43v78.2c0,6.66,5.84,12.06,13.05,12.06h20.53c6.87,0,12.56-4.92,13.02-11.25l6.32-78.2c.5-6.96-5.47-12.87-13.02-12.87h-26.85c-7.22,0-13.05,5.4-13.05,12.06Z"/>
                <path class="cls-13" d="M464.49,204.35h-62.61s2.88-32.65,31.3-32.65,31.3,32.65,31.3,32.65Z"/>
                <path class="cls-5" d="M433.19,182.54c-.57,0-1.04-.47-1.04-1.04v-7.44c0-.57.46-1.04,1.04-1.04s1.04.47,1.04,1.04v7.44c0,.58-.47,1.04-1.04,1.04Z"/>
                <path class="cls-5" d="M415.58,200.15h-7.44c-.57,0-1.04-.47-1.04-1.04s.47-1.04,1.04-1.04h7.44c.57,0,1.04.47,1.04,1.04,0,.57-.47,1.04-1.04,1.04Z"/>
                <path class="cls-5" d="M458.24,200.15h-7.44c-.57,0-1.04-.47-1.04-1.04s.47-1.04,1.04-1.04h7.44c.57,0,1.04.47,1.04,1.04,0,.57-.47,1.04-1.04,1.04Z"/>
                <path class="cls-5" d="M445.64,187.7c-.27,0-.53-.1-.73-.3-.41-.41-.41-1.06,0-1.47l5.26-5.26c.41-.41,1.06-.41,1.47,0,.41.41.41,1.06,0,1.47l-5.26,5.26c-.2.2-.47.3-.74.3Z"/>
                <path class="cls-5" d="M420.74,187.7c-.27,0-.53-.1-.73-.3l-5.26-5.26c-.41-.41-.41-1.06,0-1.47.41-.41,1.06-.41,1.47,0l5.26,5.26c.41.41.41,1.06,0,1.47-.2.2-.47.3-.74.3Z"/>
                <path class="cls-6" d="M441.47,204.35h-16.56c0-4.58,3.7-8.28,8.28-8.28s8.28,3.7,8.28,8.28Z"/>
                <polygon class="cls-6" points="430.27 200.21 436.11 200.21 433.19 184.55 430.27 200.21"/>
              </g>
              <g>
                <circle class="cls-2" cx="432.91" cy="258.37" r="32.14"/>
                <path class="cls-19" d="M432.91,286.48c-15.5,0-28.11-12.61-28.11-28.11s12.61-28.11,28.11-28.11,28.11,12.61,28.11,28.11c0,15.5-12.61,28.11-28.11,28.11ZM432.91,235.06c-12.85,0-23.31,10.46-23.31,23.31s10.46,23.31,23.31,23.31,23.31-10.46,23.31-23.31c0-12.85-10.46-23.31-23.31-23.31Z"/>
                <path class="cls-19" d="M429.79,269.67c-.64,0-1.25-.25-1.7-.7l-13.01-13.01c-.94-.94-.94-2.46,0-3.39.94-.94,2.46-.94,3.39,0l11.31,11.31,17.21-17.21c.94-.94,2.46-.94,3.39,0s.94,2.46,0,3.39l-18.9,18.9c-.45.45-1.06.7-1.69.7Z"/>
              </g>
            </g>
            <g>
              <path class="cls-3" d="M230.31,324.76l-.28,1.54c-2.56,13.94-14.71,24.07-28.88,24.07H63.58c-14.17,0-26.32-10.12-28.88-24.07l-.28-1.54h195.89Z"/>
              <path class="cls-20" d="M68.95,350.37s11.4,21.69,63.41,21.69,63.72-21.69,63.72-21.69h-127.13Z"/>
            </g>
            <g>
              <path class="cls-9" d="M171.72,98.97v.08s-17.18,28.2-21.43,33.13c-4.27,4.93-21.42,11.17-25.77,11.37-4.36.19-13.55-10.89-13.07-14.21.47-3.32,10.34-23.72,10.34-23.72,3.83-.75,6.52-1.11,6.52-1.11l2.87-11.92c7.52,2.12,20.62-1.69,35.38-19.9v26.33s2.1-.06,5.17-.05Z"/>
              <path class="cls-9" d="M235.99,327.39c.27,2.25-5.12,12.13-5.75,14.38s-5.31,1.89-5.31,1.89c0,0-3.19,1.98-4.76,1.08,0,0-3.37,1.18-4.22.23,0,0,0,1.2-4.4.76-4.4-.46-6.47-.63-6.47-.63,0,0-.14-1.4,1.16-2.75l.18-.18c.06-.06.13-.12.19-.17,1.01-.86,2.67-1.66,5.37-2.01l.54-10.15-5.22-4.32-1.44,2.42s2.42,9.66-.33,13.91c-.06.11-.14.2-.2.3-.08.1-.16.19-.24.29-.61.69-1.42,1.16-2.46,1.32,0,0-.89-.36-2.34-7.37-1.44-7.01-3.59-11.95-3.23-13.84.17-.87,2.11-5.86,4.18-11.01.01-.02.02-.03.02-.03,2.44-6.09,5.05-12.42,5.05-12.42l-8.67-50.65-5.89-34.38-1.99-8.22-11.11-45.85h0c-4.78-8.52-10.38-19.19-10.38-22.5,0-5.78,8.65-38.44,8.65-38.44,6.52.17,14.34.72,17.88,2.24,0,0,20.86,7.71,21.58,30.36.72,22.65,2.52,79.45,2.52,79.45l7.36,92.93s9.44,21.12,9.71,23.36Z"/>
              <path class="cls-9" d="M102.83,187.51l.08,7.4-20.45,66.33c-6.55,2.88-17.25,7.67-28.78,13.14l8.94-38.35s28.86-112.7,34.1-120.35c2.69-3.92,10.92-6.76,18.3-8.59,0,0-24.15,45.11-25.2,54.39-1.04,9.29,13.01,26.02,13.01,26.02Z"/>
              <path class="cls-9" d="M197.66,248.44c-84.12-11.27-101.5-5.41-102.04-5.23l7.62-17.56-.21-19.69h.21s30.84-9.99,85.98,0l.56-.14,1.99,8.22,5.89,34.38Z"/>
              <path class="cls-16" d="M57.37,391.19c.67,11.54.51,23.97-.03,35.63-17.26,11.78-38.17,4.18-38.53,4.05h-.01c-6.31-30.1-13.66-67.86-16.78-94.47-.07-.56-.14-1.12-.19-1.67v-.02c-1.75-15.45-1.97-26.85.4-30.34,4.55-6.69,29.48-19.56,51.45-30,11.52-5.47,22.23-10.26,28.78-13.14,4.11-1.81,6.58-2.87,6.58-2.87,12.93,2.25,35.88,2.87,35.88,2.87,0,0-102.31,48.8-113.25,56.09-4.6,3.07-5.95,11.09-5.11,18.55.25,2.28.71,4.5,1.34,6.52,0,0,26.51,28.95,49.49,48.79Z"/>
              <path class="cls-21" d="M206.33,299.09s-2.61,6.32-5.05,12.42c0,0-.01.01-.02.03-.88,1.14-31.97,40.79-130.82,34.3,0,0,18.81,13.83,25.89,27.18,1.14,2.15,2.69,4.74,4.48,7.59-7.82,21.42-24.62,26.31-25.09,26.45h-.01c-5.92-5.1-12.14-10.48-18.33-15.85-22.98-19.84-49.48-48.79-49.48-48.79-.63-2.02-1.09-4.24-1.34-6.52-.83-7.47.51-15.49,5.11-18.55,10.94-7.29,113.25-56.09,113.25-56.09,0,0-22.95-.62-35.88-2.87l6.58-15.15h.01c.54-.19,17.92-6.05,102.04,5.22l8.67,50.65Z"/>
              <path class="cls-9" d="M57.34,426.83c-.95,20.53-3.08,38.69-3.93,45.4-12.47,7.61-21.79,4.85-24.74,3.61-1.68-7.29-5.53-24.31-9.86-44.95.37.13,21.27,7.73,38.53-4.06Z"/>
              <path class="cls-9" d="M125.49,416c-2.95,14.25-10.95,19.5-14.54,21.18-2.8-2.39-17.65-15-35.24-30.15.48-.14,17.27-5.02,25.09-26.45,8.27,13.12,21.76,31.47,24.68,35.41Z"/>
              <path class="cls-22" d="M189.78,205.83l-.56.14c-55.14-9.99-85.98,0-85.98,0h-.21l-.12-11.06-.08-7.4s-14.04-16.73-13.01-26.02c1.05-9.28,25.2-54.39,25.2-54.39,2.42-.6,4.74-1.1,6.76-1.48,0,0-9.87,20.41-10.34,23.72-.48,3.32,8.71,14.4,13.07,14.21,4.35-.19,21.5-6.44,25.77-11.37,4.26-4.93,21.43-33.13,21.43-33.13v-.08c1.54.01,3.33.03,5.22.08,0,0-8.65,32.66-8.65,38.44,0,3.32,5.6,13.99,10.38,22.49h0s11.11,45.86,11.11,45.86Z"/>
              <path class="cls-19" d="M74.61,495.63c-31.07,33.16-68.4,41.09-68.4,41.09-2.57-1.31-4.24-2.69-5.17-4.14,0,0,9.93-2.13,23.27-8.07,11.69-5.2,26-13.37,38.56-25.63,2.75-2.66,5.4-5.53,7.94-8.62,2.34,3.13,3.81,5.37,3.81,5.37Z"/>
              <path class="cls-18" d="M62.86,498.88s-7.04-5.83-.99-19.21c3.47,3.53,6.63,7.49,8.93,10.59-2.54,3.09-5.19,5.96-7.94,8.62Z"/>
              <path class="cls-8" d="M62.86,498.88c-12.56,12.25-26.87,20.42-38.56,25.63-7.76-8.84-15.63-7.56-15.63-7.56,4.96-5.25,10.76-11.47,10.76-11.47l8.26-30.12s.34.2.99.48c2.95,1.24,12.27,4.01,24.74-3.61.68-.42,1.37-.87,2.07-1.35l6.39,8.79c-6.05,13.38.99,19.21.99,19.21Z"/>
              <path class="cls-11" d="M33.42,487.97c-.38,0-.75-.17-1-.49-1.91-2.5-5.17-4.03-8.32-3.85-.69.04-1.28-.49-1.31-1.19-.04-.69.49-1.28,1.19-1.32,4-.19,8,1.64,10.44,4.83.42.55.31,1.34-.24,1.75-.23.17-.49.26-.76.26Z"/>
              <path class="cls-11" d="M29.55,494.79c-.33,0-.67-.13-.91-.4-1.63-1.74-4.12-2.7-6.48-2.46-.69.07-1.3-.44-1.36-1.13-.06-.69.44-1.3,1.13-1.36,3.13-.28,6.4.96,8.54,3.25.47.5.45,1.3-.06,1.77-.24.22-.55.34-.86.34Z"/>
              <path class="cls-11" d="M25.72,501.22c-.36,0-.72-.16-.97-.46-1.35-1.64-3.33-2.75-5.43-3.04-.68-.09-1.16-.72-1.07-1.41.09-.69.72-1.17,1.41-1.07,2.72.37,5.28,1.8,7.02,3.93.44.53.36,1.32-.17,1.76-.23.19-.51.28-.79.28Z"/>
              <path class="cls-19" d="M156.69,419.06c1.44,45.42-19.37,77.41-19.37,77.41-2.74.89-4.9,1.09-6.59.73,0,0,5.52-8.52,10.76-22.15,4.59-11.94,8.95-27.83,9.18-45.38.07-3.83-.09-7.74-.47-11.71,3.87.56,6.49,1.11,6.49,1.11Z"/>
              <path class="cls-18" d="M150.68,429.66s-9.1.85-14.28-12.89c4.95.05,9.99.62,13.8,1.18.38,3.98.54,7.89.47,11.71Z"/>
              <path class="cls-18" d="M141.5,475.04c-5.24,13.63-10.76,22.15-10.76,22.15-4.04-.82-5.39-4.68-5.47-9.33-.03-1.82-.1-4.37-.18-7.12,0,0,4.67-6.47,16.4-5.71Z"/>
              <path class="cls-8" d="M150.67,429.66c-.22,17.55-4.58,33.44-9.17,45.38-11.74-.77-16.4,5.7-16.4,5.7-.2-7.21-.49-15.72-.49-15.72l-15.44-27.14s.69-.18,1.78-.7c3.59-1.68,11.59-6.93,14.54-21.18.07-.31.13-.62.18-.93l10.73,1.7c5.18,13.75,14.28,12.89,14.28,12.89Z"/>
              <path class="cls-11" d="M111.55,446.67c-.3,0-.6-.11-.84-.32-.51-.46-.55-1.25-.09-1.77,2.69-2.98,6.83-4.49,10.8-3.96.68.09,1.17.72,1.07,1.41-.09.68-.72,1.16-1.41,1.07-3.12-.42-6.5.82-8.61,3.15-.25.27-.59.41-.93.41Z"/>
              <path class="cls-11" d="M116,453.96c-.28,0-.57-.1-.8-.29-.53-.44-.6-1.23-.16-1.76,2.01-2.41,5.22-3.85,8.34-3.74.69.02,1.23.6,1.21,1.29-.02.69-.61,1.27-1.29,1.21-2.38-.07-4.81,1.01-6.33,2.84-.25.3-.6.45-.96.45Z"/>
              <path class="cls-11" d="M118.3,459.87c-.38,0-.75-.17-1-.5-.42-.55-.31-1.34.24-1.75,2.19-1.66,5.01-2.45,7.75-2.19.69.07,1.19.68,1.12,1.37-.07.69-.67,1.19-1.37,1.12-2.11-.21-4.29.41-5.99,1.69-.22.17-.49.25-.75.25Z"/>
              <path class="cls-18" d="M24.3,524.5c-13.34,5.94-23.27,8.07-23.27,8.07-2.28-3.43-.51-7.12,2.72-10.46,1.26-1.31,3.02-3.16,4.91-5.17,0,0,7.88-1.28,15.64,7.56Z"/>
              <path class="cls-18" d="M197.66,249.69c-.59,0-1.11-.41-1.23-1.01l-8.44-42.47-10.54-45.96c-2.78-11.48-6.61-15.82-6.65-15.86-.46-.51-.43-1.3.08-1.77.51-.47,1.3-.43,1.76.08.17.19,4.28,4.76,7.24,16.98l10.56,46.01,8.45,42.51c.13.68-.31,1.34-.98,1.47-.08.02-.17.03-.25.03Z"/>
              <path class="cls-18" d="M215.95,346.23c-.17,0-.35-.04-.52-.11-.63-.29-.91-1.03-.62-1.66l4.94-10.93c.28-.63,1.03-.91,1.66-.62.63.29.91,1.03.62,1.66l-4.94,10.93c-.21.46-.66.74-1.14.74Z"/>
              <path class="cls-18" d="M220.17,345.99c-.2,0-.39-.05-.58-.14-.61-.32-.85-1.08-.53-1.69l5.57-10.7c.32-.61,1.08-.85,1.69-.53s.85,1.08.53,1.69l-5.57,10.7c-.22.43-.66.67-1.11.67Z"/>
              <path class="cls-18" d="M224.93,344.92c-.2,0-.4-.05-.58-.14-.61-.32-.84-1.08-.52-1.69l4.72-8.95c.32-.61,1.08-.84,1.69-.52.61.32.84,1.08.52,1.69l-4.72,8.95c-.23.43-.66.67-1.11.67Z"/>
              <path class="cls-18" d="M107.91,226.24c-.54,0-1.04-.35-1.2-.9-.2-.66.18-1.36.85-1.55.57-.17,14.34-4.07,42.86-.04.68.1,1.16.73,1.06,1.41-.1.69-.74,1.16-1.41,1.06-27.99-3.96-41.67-.08-41.8-.04-.12.04-.24.05-.35.05Z"/>
              <g>
                <path class="cls-17" d="M111,81.17l92.91,11.57s19.15-26.5-.57-44.54c-19.72-18.04-9.62-42.61-45.18-47.65-37.98-5.38-43.29,29.33-43.05,46.86.26,18.88-4.11,33.75-4.11,33.75Z"/>
                <g>
                  <path class="cls-9" d="M118.55,28.78c5.57-15.24,26.37-38.47,51.03-16.84,7.76,6.8,9.67,16.82,9.56,26.81-.08,6.97-14.65,68.82-14.65,68.82-4.12,14.75-33.14-24.4-33.14-24.4-25.78-9.29-19.05-37.28-12.8-54.39Z"/>
                  <path class="cls-9" d="M191.58,51.69c.47-6.14-4.2-11.55-10.42-12.09-6.23-.53-11.66,4.02-12.13,10.16-.47,6.14,4.2,11.55,10.42,12.08,6.23.53,11.66-4.02,12.13-10.16Z"/>
                  <path class="cls-17" d="M183.21,46.36c-4.88.36-5.76.58-7.94,5.09-1.33-5.2,3.79-8.2,7.94-5.09h0Z"/>
                  <path class="cls-17" d="M151.62,30.56c-.26.97-1.87,1.37-3.59.9-1.72-.47-2.9-1.64-2.64-2.61.26-.97,1.87-1.37,3.59-.9,1.72.47,2.9,1.64,2.64,2.61Z"/>
                  <path class="cls-17" d="M131.63,24.31c.24.98-.98,2.09-2.71,2.48-1.73.39-3.33-.09-3.57-1.07-.24-.98.98-2.09,2.71-2.48,1.73-.39,3.33.09,3.57,1.07Z"/>
                  <path class="cls-15" d="M165.51,60.53c-1.25,6.4-7.46,10.58-13.86,9.33-6.4-1.25-10.58-7.46-9.33-13.86,1.25-6.4,7.46-10.58,13.86-9.33,6.4,1.25,10.58,7.46,9.33,13.86Z"/>
                  <path class="cls-17" d="M139.03,53.2c-.94,4.49-7.1,6.18-9.54,1.91-.69-1.18-.97-2.47-.94-3.74,2.86,4.96,6.16,5.85,10.48,1.83h0Z"/>
                  <path class="cls-17" d="M125.88,34.7c-.31,1.19-.01,2.3.67,2.48.69.18,1.5-.63,1.81-1.82.31-1.19.01-2.3-.67-2.48-.69-.18-1.5.63-1.81,1.82Z"/>
                  <path class="cls-17" d="M143.63,38.81c-.31,1.19-.01,2.3.67,2.48.69.18,1.5-.63,1.81-1.82.31-1.19.01-2.3-.67-2.48s-1.5.63-1.81,1.82Z"/>
                  <path class="cls-15" d="M116.26,35.7c-2.21,7.44-3.77,15.7-3.29,23.36,5.93.5,11.41-3.53,12.58-9.5,1.25-6.39-2.91-12.58-9.29-13.85Z"/>
                  <path class="cls-17" d="M135.05,36.42c-.51,3.02-1.88,5.77-3.52,8.32,0,0-.41-1.15-.41-1.15,1.3.69,2.58,1.46,3.76,2.46-1.82-.15-3.49-.65-5.17-1.19,1.26-3.1,2.88-6.12,5.35-8.45h0Z"/>
                  <path class="cls-9" d="M137.89,71.72s-9.82,11.19-6.27,11.44l-3.3,22.1,30.23,7.37,5.08-2.79,1.27-32.26-18.8-3.56-8.21-2.3Z"/>
                  <path class="cls-15" d="M131.56,83.44s10.82,5.03,34.23-5.72c0,0-13.47,17-36.48,21.52l2.24-15.79Z"/>
                </g>
                <path class="cls-17" d="M124.68,16.77s9.84.94,27.94-9.42c0,0-4.93,33.57,19.43,35.79,0,0,3.76-4.07,9.09-3.54,0,0,3.81-35.76-26.76-37.11,0,0-17.31-4.4-29.71,14.28Z"/>
              </g>
            </g>
            <g>
              <path class="cls-3" d="M521.53,324.76l-.28,1.54c-2.56,13.94-14.71,24.07-28.88,24.07h-137.57c-14.17,0-26.32-10.12-28.88-24.07l-.28-1.54h195.89Z"/>
              <path class="cls-20" d="M360.17,350.37s11.4,21.69,63.41,21.69,63.72-21.69,63.72-21.69h-127.13Z"/>
              <path class="cls-8" d="M513.35,329.9h-181.3c-.69,0-1.25-.56-1.25-1.25s.56-1.25,1.25-1.25h181.3c.69,0,1.25.56,1.25,1.25s-.56,1.25-1.25,1.25Z"/>
            </g>
            <polygon class="cls-13" points="122.3 371.77 126.87 392.02 425.93 392.02 435.9 371.62 122.3 371.77"/>
          </g>
          <g>
            <path class="cls-3" d="M358.52,519.38h-158.84l31.3-116.79c5.83-21.78,25.57-36.93,48.12-36.93,11.27,0,21.84,3.78,30.33,10.29,8.48,6.51,14.87,15.74,17.79,26.64l31.3,116.79Z"/>
            <path class="cls-20" d="M181.15,536.38l.28-1.54c2.56-13.94,14.71-24.07,28.88-24.07h137.57c14.17,0,26.32,10.12,28.88,24.07l.28,1.54h-195.89Z"/>
            <path class="cls-8" d="M214.02,502.33c-.1,0-.21-.01-.31-.04-.67-.17-1.08-.85-.9-1.52l23.83-93.61c.17-.67.85-1.08,1.52-.9.67.17,1.08.85.9,1.52l-23.83,93.61c-.15.57-.65.94-1.21.94Z"/>
            <path class="cls-8" d="M342.43,480.43c-.55,0-1.06-.37-1.21-.94l-20.78-79.42c-.18-.67.23-1.35.89-1.53.67-.17,1.35.23,1.53.89l20.78,79.42c.18.67-.23,1.35-.89,1.53-.11.03-.21.04-.32.04Z"/>
          </g>
          <circle class="cls-13" cx="280" cy="399.76" r="21.85" transform="translate(-159.45 612.11) rotate(-80.78)"/>
        </g>
      </g>
    </g>
  </g>
</svg>