<?xml version="1.0" encoding="UTF-8"?>
<svg id="_圖層_2" data-name="圖層 2" xmlns="http://www.w3.org/2000/svg" viewBox="0 0 151.61 55">
  <defs>
    <style>
      .cls-1 {
        fill: #fff;
      }

      .cls-1, .cls-2 {
        opacity: .3;
      }

      .cls-3 {
        fill: #422b3a;
      }

      .cls-4 {
        fill: #3e86c7;
      }

      .cls-5 {
        fill: #f8efc9;
      }
    </style>
  </defs>
  <g id="_圖層_1-2" data-name="圖層 1">
    <g>
      <g>
        <rect class="cls-4" x="2.1" y="2.09" width="52.55" height="50.81" rx="6.98" ry="6.98"/>
        <path class="cls-4" d="M47.67,2.09c3.86,0,6.98,3.13,6.98,6.98v36.84c0,3.86-3.13,6.98-6.98,6.98H9.08c-3.86,0-6.98-3.13-6.98-6.98V9.08c0-3.86,3.13-6.98,6.98-6.98h38.59ZM47.67,0H9.08C4.07,0,0,4.07,0,9.08v36.84c0,5.01,4.07,9.08,9.08,9.08h38.59c5.01,0,9.08-4.07,9.08-9.08V9.08c0-5.01-4.07-9.08-9.08-9.08h0Z"/>
        <path class="cls-1" d="M4.19,46.62V9.78c0-3.86,3.13-6.98,6.99-6.98h38.59c.39,0,.77.04,1.15.1-.97-.51-2.07-.8-3.24-.8H9.08c-3.86,0-6.98,3.13-6.98,6.98v36.84c0,3.47,2.53,6.34,5.84,6.88-2.22-1.17-3.74-3.5-3.74-6.18Z"/>
        <path class="cls-5" d="M38.12,18.16c-6.24-2.58-13.25-2.58-19.49,0-1.07-2.58-2.14-5.16-3.21-7.74,8.29-3.43,17.61-3.43,25.9,0-1.07,2.58-2.14,5.16-3.21,7.74Z"/>
        <path class="cls-4" d="M28.37,7.84c4.4,0,8.8.86,12.95,2.58-1.07,2.58-2.14,5.16-3.21,7.74-3.12-1.29-6.43-1.94-9.74-1.94s-6.62.65-9.74,1.94c-1.07-2.58-2.14-5.16-3.21-7.74,4.15-1.72,8.55-2.58,12.95-2.58h0ZM28.37,6.44c-4.65,0-9.19.9-13.49,2.68-.71.29-1.05,1.11-.76,1.83l3.21,7.74c.22.54.74.86,1.29.86.18,0,.36-.03.53-.11,2.93-1.21,6.03-1.83,9.21-1.83s6.27.62,9.21,1.83c.17.07.35.11.54.11s.36-.04.53-.11c.34-.14.61-.41.76-.75l1.32-3.19,1.89-4.55c.29-.71-.04-1.53-.76-1.83-4.3-1.78-8.83-2.68-13.49-2.68h0Z"/>
        <path class="cls-2" d="M16.82,11.11c7.81-3.24,16.53-3.42,24.45-.56.02-.05.04-.09.06-.14-8.29-3.43-17.61-3.43-25.9,0,1.07,2.58,2.14,5.16,3.21,7.74.32-.13.64-.25.96-.37-.92-2.22-1.84-4.45-2.76-6.68Z"/>
        <polygon class="cls-3" points="27.67 16.22 28.37 10.4 29.07 16.22 27.67 16.22"/>
      </g>
      <g>
        <path d="M72.86,27.9v-3.2h.78v-5.62h6.41v5.62h.78v3.12h-.94v7.03c0,1.25-.5,1.9-1.48,1.95-.21,0-.5.03-.86.08h-.7c-.05-.57-.16-1.09-.31-1.56h1.17c.47,0,.68-.18.62-.55v-.78h-2.81v2.97h-1.56v-9.06h-1.09ZM74.42,26.19v1.33h4.92v-1.33h-4.92ZM75.21,20.56v4.14h1.09v-2.73h2.27v-1.41h-3.36ZM75.52,28.84v1.41h2.81v-1.41h-2.81ZM75.52,31.42v1.41h2.81v-1.41h-2.81ZM77.32,23.14v1.56h1.25v-1.56h-1.25ZM81.69,33.37v-3.52h8.91v3.52h-1.33l.39.08c-.31.52-.65,1.04-1.02,1.56h3.05v1.41h-11.02v-1.41h3.05l-1.02-1.48.62-.16h-1.64ZM80.99,28.92v-1.41h10.55v1.41h-10.55ZM81.46,26.58v-6.56h2.42v-1.64h1.56v1.64h1.41v-1.64h1.64v1.64h2.42v6.56h-9.45ZM82.86,21.34v1.41h1.41v-1.41h-1.41ZM82.86,23.84v1.41h1.41v-1.41h-1.41ZM83.41,31.03v1.17h5.47v-1.17h-5.47ZM84.42,33.37c.05.1.16.29.31.55.16.26.42.62.78,1.09h1.41l1.02-1.64h-3.52ZM85.44,21.34v1.41h1.41v-1.41h-1.41ZM85.44,23.84v1.41h1.41v-1.41h-1.41ZM89.42,21.34h-1.33v1.41h1.33v-1.41ZM88.1,23.84v1.41h1.33v-1.41h-1.33Z"/>
        <path d="M94.11,37.12l-.47-.47c-.47-.52-.81-.86-1.02-1.02.88-1.72,1.3-4.09,1.25-7.11v-9.45h5.7v15.7c.05,1.2-.55,1.85-1.8,1.95h-.7c-.42.05-.73.08-.94.08-.05-.31-.18-.94-.39-1.88h.47c.36.05.62.08.78.08.57.05.83-.18.78-.7v-3.83h-2.19c0,2.4-.5,4.61-1.48,6.64ZM95.67,20.79v3.2h2.11v-3.2h-2.11ZM95.67,28.53v.31h2.11v-3.2h-2.11v2.89ZM103.8,25.87c-1.77,0-2.66-.86-2.66-2.58v-4.77h1.95v2.5c2.71-.47,5.23-1.07,7.58-1.8l.55,1.72c-2.5.68-5.21,1.25-8.12,1.72v.23c-.05.94.39,1.38,1.33,1.33h3.59c.94.05,1.46-.29,1.56-1.02.16-.47.26-.99.31-1.56.62.26,1.22.47,1.8.62,0,.1-.03.23-.08.39-.1.68-.23,1.2-.39,1.56-.26,1.15-1.12,1.69-2.58,1.64h-4.84ZM101.3,36.97v-9.61h9.38v9.61h-1.95v-1.02h-5.47v1.02h-1.95ZM103.25,29.08v1.88h5.47v-1.88h-5.47ZM103.25,32.51v1.88h5.47v-1.88h-5.47Z"/>
        <path d="M121.38,37.12c-.21-.16-.52-.39-.94-.7-.26-.26-.47-.44-.62-.55-.26.52-.78.81-1.56.86h-1.72c-.05-.21-.1-.5-.16-.86-.1-.42-.18-.73-.23-.94h1.17c.62.05.91-.18.86-.7v-3.44h-2.5c-.1,2.4-.6,4.48-1.48,6.25-.73-.73-1.25-1.22-1.56-1.48.52-.99.86-1.95,1.02-2.89s.23-2.4.23-4.38v-9.14h6.09v15.62c0,.21-.03.42-.08.62,1.82-1.77,2.73-4.45,2.73-8.05.1-1.67.16-3.02.16-4.06h-1.95v-1.95h4.45v-2.89h2.11v2.89h4.3v1.95h-6.88c0,.94-.03,1.88-.08,2.81h6.02v1.02c-.1,2.86-.21,4.9-.31,6.09-.05,2.29-1.07,3.41-3.05,3.36-.83.05-1.67.08-2.5.08-.1-.62-.23-1.28-.39-1.95h2.19c1.15.05,1.72-.57,1.72-1.88.05-.62.1-1.69.16-3.2.05-.73.08-1.28.08-1.64h-3.98c-.05,3.75-1.15,6.8-3.28,9.14ZM115.75,20.95v3.2h2.42v-3.2h-2.42ZM115.75,29.15h2.42v-3.28h-2.42v3.28Z"/>
        <path d="M133.72,30.4l-.94-1.8c1.46-.73,2.89-1.48,4.3-2.27l.94,1.64c-1.41.73-2.84,1.54-4.3,2.42ZM132.86,33.53v-1.8h8.28v-1.33h2.19v1.33h8.28v1.8h-8.28v3.52h-2.19v-3.52h-8.28ZM133.17,22.04v-1.8h7.97v-1.95h2.19v1.95h7.97v1.8h-8.67l.23.08c-.78.89-1.46,1.59-2.03,2.11.21.1.47.26.78.47.36.26.62.44.78.55.88-.89,1.69-1.72,2.42-2.5l1.41,1.09c-1.56,1.46-3.23,3-5,4.61l2.97-.08-.86-1.25,1.41-.78c.94,1.15,1.77,2.29,2.5,3.44l-1.56.86-.55-.94c-.89.05-2.06.1-3.52.16-.94.1-1.64.16-2.11.16-.42,0-.89.05-1.41.16l-.55-1.64h1.48l2.03-1.95c-.83-.62-1.95-1.41-3.36-2.34l1.17-1.17.7.39c.57-.57.99-1.04,1.25-1.41h-7.66ZM136.46,26.26c-.57-.42-1.41-.99-2.5-1.72-.21-.16-.39-.29-.55-.39l1.09-1.41c.62.36,1.48.91,2.58,1.64.21.16.36.26.47.31l-1.09,1.56ZM150.6,30.17c-.37-.21-.5-.29-.39-.23-1.51-.99-2.76-1.74-3.75-2.27l1.02-1.41c1.35.68,2.73,1.41,4.14,2.19l-1.02,1.72ZM147.63,26.19l-.94-1.56c.62-.31,1.54-.83,2.73-1.56.21-.16.36-.26.47-.31l1.02,1.48c-1.25.78-2.34,1.43-3.28,1.95Z"/>
      </g>
    </g>
  </g>
</svg>