<?xml version="1.0" encoding="UTF-8"?>
<svg id="_圖層_2" data-name="圖層 2" xmlns="http://www.w3.org/2000/svg" viewBox="0 0 128.78 71.46">
  <defs>
    <style>
      .cls-1 {
        fill: #f9e0d7;
      }

      .cls-2 {
        fill: #b9bf70;
      }

      .cls-3 {
        fill: #ea5e5e;
      }

      .cls-4, .cls-5, .cls-6 {
        fill: none;
        stroke-linecap: round;
      }

      .cls-4, .cls-6 {
        stroke: #ea5e5e;
        stroke-miterlimit: 10;
      }

      .cls-5 {
        stroke: #bf7e7a;
        stroke-linejoin: round;
        stroke-width: .42px;
      }

      .cls-7 {
        fill: #ffcfcc;
      }

      .cls-6 {
        stroke-dasharray: .91 1.81;
      }
    </style>
  </defs>
  <g id="_圖層_1-2" data-name="圖層 1">
    <g>
      <g>
        <path d="M91.98,43.01c-.47-.57-.94-1.09-1.41-1.56.83-1.3,1.2-3.57,1.09-6.8v-9.53h5.16v15.55c0,1.2-.57,1.85-1.72,1.95h-1.56c0-.05-.03-.13-.08-.23-.1-.73-.21-1.22-.31-1.48h1.25c.52,0,.78-.23.78-.7v-3.75h-1.8c0,2.55-.47,4.74-1.41,6.56ZM93.39,26.83v3.12h1.8v-3.12h-1.8ZM93.39,34.8h1.8v-3.12h-1.8v3.12ZM97.61,36.91v-1.56h3.28c.31-.47.57-.89.78-1.25l1.95.16c-.05.1-.16.26-.31.47-.16.26-.29.47-.39.62h6.64v1.56h-2.19c-.42,1.09-.99,2.03-1.72,2.81.52.21,1.3.52,2.34.94.68.21,1.17.39,1.48.55l-.94,1.64c-.68-.36-1.72-.86-3.12-1.48-.57-.26-.99-.47-1.25-.62-1.35.94-3.44,1.69-6.25,2.27l-.23-.47c-.05-.26-.23-.7-.55-1.33,2.19-.31,3.88-.7,5.08-1.17-.21-.1-.55-.26-1.02-.47-.47-.16-.83-.29-1.09-.39l-.39.55-1.56-.62c.57-.68,1.12-1.41,1.64-2.19h-2.19ZM97.84,26.76v-1.64h11.48v1.64h-3.28v1.64h3.05v5.39h-11.02v-5.39h2.97v-1.64h-3.2ZM99.64,29.96v2.34h1.64v-2.34h-1.64ZM101.05,38.01c.31.1.78.26,1.41.47.57.26,1.02.44,1.33.55.68-.57,1.2-1.28,1.56-2.11h-3.52c-.1.16-.26.39-.47.7-.16.16-.26.29-.31.39ZM102.76,26.76v1.64h1.64v-1.64h-1.64ZM102.76,29.96v2.34h1.64v-2.34h-1.64ZM107.53,29.96h-1.72v2.34h1.72v-2.34Z"/>
        <path d="M111.51,42.93v-17.97h17.27v17.97h-1.95v-.86h-13.36v.86h-1.95ZM115.19,35.04v-3.2h9.92v3.2h-3.36v.94h3.67v1.09h-3.67v1.02h4.3v1.17h-4.3v1.33h5.08v-13.98h-13.36v13.98h6.41v-1.33h-5.7v-1.17h1.09v-2.11h4.61v-.94h-4.69ZM114.25,30.9v-1.09h2.66l.31-1.02h-1.88v-1.09h2.19l.31-1.02h1.8l-.23,1.02h5.39v2.11h1.33v1.09h-11.88ZM116.9,37.07v1.02h2.97v-1.02h-2.97ZM117.06,32.85v1.09h6.17v-1.09h-6.17ZM123,28.79h-3.98l-.23,1.02h4.22v-1.02Z"/>
      </g>
      <g>
        <g>
          <path class="cls-7" d="M47.08,37.24h-.18.18Z"/>
          <path class="cls-1" d="M74.21,25.37c-.03,10.3-16.28,13.4-27.38,13.54-.06,0-.12,0-.18,0h-.18c-.06,0-.11,0-.18,0-11.1-.13-27.38-3.41-27.42-13.71,0-1.56,2.51-1.91,5.5-14.62.66-2.77,1.59-5.98,1.96-7.33.11-.42.39-.78.77-.99C31.07.23,41.71,0,46.55,0s15.48.23,19.45,2.27c.39.21.67.57.78.99.38,1.35,1.3,4.56,1.96,7.33,3,12.71,5.48,13.23,5.47,14.79Z"/>
          <path class="cls-1" d="M26.53,70.93c-1.21-.02-1.88-1.41-5.24-20.99-1.17-6.83-2.36-4.65-2.9-12.26,11.68-.34,23.11,6.39,28.17,16.12,0,0,0-4.46-1.13,6.29-.85,8.06-2.04,11.4-3.45,11.37l-15.44-.53Z"/>
          <path class="cls-1" d="M66.59,70.93c1.21-.02,1.88-1.41,5.24-20.99,1.17-6.83,2.36-4.65,2.9-12.26-11.68-.34-23.11,6.39-28.17,16.12,0,0,0-4.46,1.13,6.29.85,8.06,2.04,11.4,3.45,11.37l15.44-.53Z"/>
          <path class="cls-2" d="M74.72,37.68c-11.27,2.46-23.6,16.36-28.17,16.12-4.57-.24-16.91-13.67-28.17-16.12-.49-2.01-.56-8.87.49-12.47.36,1.07.94,2.23,1.83,2.99,3.26,2.8,15.02,7.96,26.26,7.92,11.24.03,22.19-5.12,25.45-7.92.89-.76,1.44-1.76,1.8-2.83,1.05,3.6,1.02,10.29.52,12.3Z"/>
          <g>
            <path class="cls-5" d="M46.02,24.08c-.55,1.05-.6,2.1-.05,3.15"/>
            <path class="cls-5" d="M47.13,24.08c.55,1.05.6,2.1.05,3.15"/>
            <path class="cls-5" d="M46.52,24.9c-.16.4-.19.87.1,1.49"/>
          </g>
          <g>
            <path class="cls-4" d="M19.25,24.92c.06-.15.11-.3.17-.46"/>
            <path class="cls-6" d="M20.19,22.81c.18-.31.4-.66.68-1.07,1.19-1.74,2.29-6.03,2.29-6.03l.54-2.17"/>
            <line class="cls-4" x1="23.92" y1="12.65" x2="24.04" y2="12.17"/>
          </g>
          <g>
            <path class="cls-4" d="M74,24.92c-.06-.15-.11-.3-.17-.46"/>
            <path class="cls-6" d="M73.05,22.81c-.18-.31-.4-.66-.68-1.07-1.19-1.74-2.29-6.03-2.29-6.03l-.54-2.17"/>
            <line class="cls-4" x1="69.32" y1="12.65" x2="69.2" y2="12.17"/>
          </g>
        </g>
        <g>
          <g>
            <rect class="cls-3" x="79.34" y="17.37" width="13.44" height="2.01"/>
            <path class="cls-3" d="M80.79,18.38l1.76-2.9-.1-.06-4.73,1.87c-1.65.36-3.3.73-4.95,1.09,1.65.36,3.3.73,4.95,1.09l4.73,1.88.1-.05-1.76-2.92Z"/>
          </g>
          <g>
            <rect class="cls-3" x="0" y="17.37" width="13.44" height="2.01"/>
            <path class="cls-3" d="M12,18.38l-1.77,2.91.1.06,4.73-1.88c1.65-.36,3.3-.73,4.95-1.09-1.65-.36-3.29-.73-4.95-1.09l-4.73-1.87-.1.04,1.77,2.92Z"/>
          </g>
        </g>
      </g>
    </g>
  </g>
</svg>