<?xml version="1.0" encoding="UTF-8"?>
<svg id="_圖層_2" data-name="圖層 2" xmlns="http://www.w3.org/2000/svg" viewBox="0 0 106.4 76.97">
  <defs>
    <style>
      .cls-1 {
        fill: #b9bf70;
      }

      .cls-2 {
        fill: #321430;
      }

      .cls-3 {
        isolation: isolate;
      }

      .cls-4 {
        fill: #ede7d9;
      }

      .cls-5 {
        fill: #3e8884;
      }

      .cls-6 {
        opacity: .19;
      }

      .cls-7 {
        opacity: .28;
      }

      .cls-8 {
        opacity: .08;
      }

      .cls-9 {
        fill: #a79a7d;
      }
    </style>
  </defs>
  <g id="_圖層_1-2" data-name="圖層 1">
    <g>
      <g>
        <path d="M74.84,36.42h-7.27v-16.02h6.88c3.39.1,5.18,1.38,5.39,3.83-.05,2.03-1.15,3.28-3.28,3.75v.08c2.45.42,3.78,1.69,3.98,3.83,0,3.02-1.9,4.53-5.7,4.53ZM73.98,22.28h-3.98v4.92h3.98c2.14-.05,3.23-.91,3.28-2.58-.05-1.56-1.15-2.34-3.28-2.34ZM74.29,29.16h-4.3v5.47h4.45c2.29,0,3.44-.96,3.44-2.89-.1-1.67-1.3-2.53-3.59-2.58Z"/>
        <path d="M90.3,36.42l-5-14.06h-.08v14.06h-2.34v-16.02h3.98l4.53,13.36h.08l4.38-13.36h4.06v16.02h-2.42v-14.06h-.08c-.31,1.2-1.9,5.89-4.77,14.06h-2.34Z"/>
        <path d="M103.98,36.42v-16.02h2.42v16.02h-2.42Z"/>
      </g>
      <g>
        <path class="cls-1" d="M24.77,76.97h-3.9c-.83,0-1.51-.68-1.51-1.51v-21.83c0-.83.68-1.51,1.51-1.51h3.9c.83,0,1.51.68,1.51,1.51v21.83c0,.83-.68,1.51-1.51,1.51Z"/>
        <g class="cls-8">
          <rect x="19.36" y="52.37" width="6.89" height="5.52"/>
        </g>
        <path class="cls-9" d="M0,5.32v35.33c0,.57.09,1.13.27,1.67l2.53,7.63c.72,2.18,2.76,3.65,5.05,3.65h29.93c2.3,0,4.33-1.47,5.05-3.65l2.53-7.63c.18-.54.27-1.1.27-1.67V5.32c0-2.94-2.38-5.32-5.32-5.32H5.32C2.38,0,0,2.38,0,5.32Z"/>
        <g class="cls-7">
          <path d="M35.29,39.45H8.69c-3.21,0-5.82-2.6-5.82-5.82V10.36c0-3.21,2.6-5.82,5.82-5.82h26.6c3.21,0,5.82,2.6,5.82,5.82v23.27c0,3.21-2.61,5.82-5.82,5.82Z"/>
        </g>
        <path class="cls-4" d="M35.17,37.84H10.47c-2.92,0-5.28-2.36-5.28-5.28V11.44c0-2.92,2.36-5.28,5.28-5.28h24.7c2.92,0,5.28,2.36,5.28,5.28v21.12c0,2.92-2.36,5.28-5.28,5.28Z"/>
        <g class="cls-3">
          <path class="cls-2" d="M13.32,18.09h-.03l-1.6.87-.24-.95,2.02-1.08h1.06v9.22h-1.21v-8.06Z"/>
          <path class="cls-2" d="M17.78,23.81c0-1.16.7-1.99,1.83-2.47v-.04c-1.04-.48-1.48-1.28-1.48-2.07,0-1.46,1.23-2.46,2.85-2.46,1.79,0,2.68,1.12,2.68,2.27,0,.78-.38,1.62-1.52,2.16v.04c1.15.45,1.86,1.26,1.86,2.38,0,1.6-1.38,2.68-3.14,2.68-1.93,0-3.09-1.15-3.09-2.5ZM22.75,23.76c0-1.12-.78-1.66-2.03-2.02-1.08.31-1.66,1.02-1.66,1.9-.04.94.67,1.76,1.84,1.76s1.84-.7,1.84-1.65ZM19.31,19.15c0,.92.7,1.42,1.76,1.7.79-.27,1.4-.84,1.4-1.67,0-.74-.44-1.5-1.56-1.5-1.04,0-1.6.68-1.6,1.48Z"/>
          <path class="cls-2" d="M25.27,25.42c0-.52.35-.89.85-.89s.84.37.84.89-.33.89-.85.89c-.5,0-.84-.38-.84-.89Z"/>
          <path class="cls-2" d="M33.61,17.98h-3.52l-.35,2.37c.21-.03.41-.06.75-.06.71,0,1.42.16,1.99.5.72.41,1.32,1.21,1.32,2.37,0,1.8-1.43,3.15-3.43,3.15-1.01,0-1.86-.28-2.3-.57l.31-.95c.38.23,1.14.51,1.97.51,1.18,0,2.19-.77,2.19-2-.01-1.19-.81-2.04-2.65-2.04-.52,0-.94.06-1.28.1l.6-4.43h4.41v1.05Z"/>
        </g>
        <g>
          <g class="cls-6">
            <path d="M19.66,50.56h-5.24c-.91,0-1.64-.74-1.64-1.64v-5.24c0-.91.74-1.64,1.64-1.64h5.24c.91,0,1.64.74,1.64,1.64v5.24c0,.91-.74,1.64-1.64,1.64Z"/>
          </g>
          <g class="cls-6">
            <path d="M27.09,42.03h5.24c.91,0,1.64.74,1.64,1.64v5.24c0,.91-.74,1.64-1.64,1.64h-5.24c-.91,0-1.64-.74-1.64-1.64v-5.24c0-.91.74-1.64,1.64-1.64Z"/>
          </g>
          <g>
            <path class="cls-1" d="M18.54,50.56h-5.24c-.91,0-1.64-.74-1.64-1.64v-5.24c0-.91.74-1.64,1.64-1.64h5.24c.91,0,1.64.74,1.64,1.64v5.24c0,.91-.74,1.64-1.64,1.64Z"/>
            <polygon class="cls-5" points="18.53 49.26 13.32 46.3 18.53 43.34 18.53 49.26"/>
          </g>
          <g>
            <path class="cls-1" d="M25.97,42.03h5.24c.91,0,1.64.74,1.64,1.64v5.24c0,.91-.74,1.64-1.64,1.64h-5.24c-.91,0-1.64-.74-1.64-1.64v-5.24c0-.91.74-1.64,1.64-1.64Z"/>
            <polygon class="cls-5" points="25.98 43.34 31.2 46.3 25.98 49.26 25.98 43.34"/>
          </g>
        </g>
      </g>
    </g>
  </g>
</svg>