<?xml version="1.0" encoding="UTF-8"?>
<svg id="_圖層_2" data-name="圖層 2" xmlns="http://www.w3.org/2000/svg" viewBox="0 0 134.37 48.35">
  <defs>
    <style>
      .cls-1 {
        fill: #f9ec56;
      }

      .cls-2 {
        fill: #666;
      }

      .cls-3 {
        fill: #d0c046;
      }

      .cls-4 {
        fill: #cbcbcb;
      }

      .cls-5 {
        fill: #989898;
      }
    </style>
  </defs>
  <g id="_圖層_1-2" data-name="圖層 1">
    <g>
      <g>
        <g>
          <g>
            <path class="cls-1" d="M.02,33.58s-1.27,7.97,22.56,7.67c0,0,28.98.63,41.97-10.75v7.11s-7.6,8.56-31.74,10.37c0,0-27.93,2.58-32.8-6.03v-8.38Z"/>
            <path class="cls-3" d="M.02,33.58s-.15-5.19,9.51-6.13c0,0,10.28-1.14,15.05-1.23,0,0,19.59.32,18.79-6.35l.02,7.91s.32,3.6-9.74,4.85c0,0-18.68,1.26-20.05,1.4,0,0-9.75.68-11.67,3.15,0,0-2.18-1.61-1.91-3.61Z"/>
            <path class="cls-1" d="M15.95,19.88l.13,6.92,14.27-.79s5.68-2.45,8.79-1.62c0,0,6.31-2.03,3.55-5.76,0,0-1.8-3.73-14.81.75,0,0-11.64,4.92-11.94.51Z"/>
            <path class="cls-3" d="M19.78,21.69c.73-.05,1.69-1.33,7.55-2.1,0,0,12.93-5.07,15.62-.61,0,0,7.34.43,12.97-1.21,0,0,2.75-.71,3.39-3.44v-7.8s.89,4.16-7.89,5.04c0,0-16.63.49-18.61.6,0,0-14.88.5-16.69,7,0,0-1.38,2.84,3.66,2.52Z"/>
            <path class="cls-1" d="M59.31,6.53S60.87-.89,44.34.09C44.34.09,16.9,2.52.02,10.22v7.11s8.9-4.12,20.72-6.46c0,0,31.95-7.24,37-1.25,0,0,1.48-1.01,1.57-3.08Z"/>
          </g>
          <g>
            <g>
              <path class="cls-2" d="M1.85,13.43c0,.06-.03.11-.09.12l-.62.09c-.06,0-.11-.03-.12-.09l-.51-2.95c0-.06.03-.11.09-.12l.66-.1c.06,0,.12.03.13.09l.45,2.96Z"/>
              <path class="cls-2" d="M3.01,11.9c0,.06-.03.11-.09.12l-.36.06c-.06,0-.11-.03-.12-.08l-.37-2.03c-.01-.06.03-.11.09-.12l.37-.06c.06-.01.12.03.13.08l.36,2.03Z"/>
              <path class="cls-2" d="M4.43,11.32c.01.06-.03.11-.08.12l-.36.08c-.06.01-.11-.02-.13-.08l-.43-2.02c-.01-.06.03-.11.09-.12l.37-.08c.06-.01.12.02.13.08l.42,2.02Z"/>
              <path class="cls-2" d="M5.87,10.79c.01.06-.02.11-.08.13l-.36.08c-.06.01-.12-.02-.13-.08l-.47-2.01c-.01-.06.02-.11.08-.13l.36-.08c.06-.01.12.02.13.08l.45,2.01Z"/>
              <path class="cls-2" d="M7.27,10.28c.01.06-.02.11-.08.13l-.36.08c-.06.01-.12-.02-.13-.08l-.48-2.01c-.01-.06.02-.11.08-.13l.36-.08c.06-.01.12.02.13.08l.47,2.01Z"/>
            </g>
            <g>
              <path class="cls-2" d="M9.26,10.58c.01.06-.02.11-.08.13l-.61.17c-.06.02-.12-.02-.13-.07l-.78-2.89c-.02-.06.02-.11.08-.13l.63-.17c.06-.02.12.02.13.07l.76,2.89Z"/>
              <path class="cls-2" d="M10.45,9.22c.02.06-.02.11-.08.13l-.35.1c-.06.02-.12-.02-.13-.07l-.55-1.99c-.02-.05.02-.11.08-.13l.36-.1c.06-.02.12.02.13.07l.54,1.99Z"/>
              <path class="cls-2" d="M11.91,8.75c.02.06-.02.11-.07.13l-.35.11c-.06.02-.12-.01-.13-.07l-.61-1.97c-.02-.05.02-.11.07-.13l.36-.11c.06-.02.12.02.13.07l.6,1.97Z"/>
              <path class="cls-2" d="M13.35,8.33c.02.06-.02.11-.07.13l-.35.1c-.06.02-.12-.01-.13-.07l-.59-1.98c-.02-.05.02-.11.07-.13l.36-.1c.06-.02.12.01.13.07l.58,1.98Z"/>
              <path class="cls-2" d="M14.76,7.91c.02.06-.02.11-.08.13l-.35.1c-.06.02-.12-.01-.13-.07l-.57-1.99c-.02-.05.02-.11.08-.13l.36-.1c.06-.02.12.02.13.07l.56,1.99Z"/>
            </g>
            <g>
              <path class="cls-2" d="M16.72,8.35c.01.05-.02.11-.08.13l-.61.17c-.06.01-.12-.02-.13-.07l-.79-2.89c-.02-.06.02-.11.08-.13l.63-.17c.06-.02.12.02.13.07l.78,2.89Z"/>
              <path class="cls-2" d="M17.93,7.06c.01.06-.02.11-.08.13l-.35.09c-.06.02-.12-.02-.13-.07l-.52-2c-.02-.06.02-.11.08-.13l.36-.09c.06-.01.12.02.13.07l.52,2Z"/>
              <path class="cls-2" d="M19.38,6.7c.01.06-.02.11-.08.13l-.36.09c-.06.01-.11-.02-.13-.08l-.5-2c-.01-.06.02-.11.08-.13l.36-.09c.06-.01.12.02.13.07l.5,2Z"/>
              <path class="cls-2" d="M20.84,6.34c.01.06-.02.11-.08.13l-.36.09c-.06.01-.12-.02-.13-.08l-.48-2.01c-.01-.06.02-.11.08-.13l.36-.09c.06-.01.12.02.13.07l.48,2.01Z"/>
              <path class="cls-2" d="M22.27,6.02c.01.06-.02.11-.08.12l-.36.08c-.06.01-.12-.02-.13-.08l-.46-2.01c-.01-.06.02-.11.08-.13l.36-.08c.06-.01.12.02.13.08l.46,2.01Z"/>
            </g>
            <g>
              <path class="cls-2" d="M24.2,6.54c.01.06-.03.11-.08.12l-.62.14c-.06.01-.11-.02-.13-.08l-.64-2.92c-.01-.06.03-.11.08-.13l.63-.14c.06-.01.12.02.13.08l.63,2.93Z"/>
              <path class="cls-2" d="M25.48,5.33c.01.06-.03.11-.08.12l-.36.07c-.06.01-.11-.02-.13-.08l-.42-2.02c-.01-.06.03-.11.09-.12l.37-.07c.06-.01.12.02.13.08l.41,2.02Z"/>
              <path class="cls-2" d="M26.94,5.03c.01.06-.03.11-.08.12l-.36.07c-.06.01-.11-.02-.12-.08l-.4-2.03c-.01-.06.03-.11.09-.12l.36-.07c.06-.01.12.03.13.08l.39,2.03Z"/>
              <path class="cls-2" d="M28.42,4.76c0,.06-.03.11-.09.12l-.36.06c-.06.01-.11-.03-.12-.08l-.38-2.03c-.01-.06.03-.11.09-.12l.37-.06c.06,0,.12.03.13.08l.37,2.03Z"/>
              <path class="cls-2" d="M29.86,4.51c0,.06-.03.11-.09.12l-.36.06c-.06.01-.11-.03-.12-.08l-.36-2.03c0-.06.03-.11.09-.12l.37-.06c.06-.01.12.03.13.08l.35,2.04Z"/>
            </g>
            <g>
              <path class="cls-2" d="M31.77,5.13c0,.06-.03.11-.09.12,0,0-.16.02-.31.05-.16.03-.31.05-.31.05-.06.01-.11-.03-.12-.08l-.49-2.95c0-.06.03-.11.09-.12,0,0,.16-.03.32-.06.16-.02.32-.05.32-.05.06,0,.11.03.12.09l.47,2.96Z"/>
              <path class="cls-2" d="M33.11,3.99c0,.06-.03.11-.09.12l-.36.05c-.06,0-.11-.03-.12-.09l-.31-2.04c0-.06.03-.11.09-.12l.37-.05c.06,0,.11.03.12.09l.3,2.04Z"/>
              <path class="cls-2" d="M34.58,3.78c0,.06-.03.11-.09.12l-.36.05c-.06,0-.11-.03-.12-.09l-.28-2.04c0-.06.03-.11.09-.12l.37-.05c.06,0,.11.03.12.09l.27,2.05Z"/>
              <path class="cls-2" d="M36.07,3.59c0,.06-.04.11-.09.12l-.36.04c-.06,0-.11-.03-.12-.09l-.26-2.05c0-.06.04-.11.09-.12l.37-.04c.06,0,.11.03.12.09l.25,2.05Z"/>
              <path class="cls-2" d="M37.53,3.42c0,.06-.04.11-.09.12l-.36.04c-.06,0-.11-.03-.12-.09l-.24-2.05c0-.06.04-.11.1-.12l.37-.04c.06,0,.11.03.12.09l.22,2.05Z"/>
            </g>
            <g>
              <path class="cls-2" d="M39.39,4.17c0,.06-.04.11-.1.11l-.63.05c-.06,0-.11-.04-.12-.09l-.3-2.98c0-.06.04-.11.1-.11l.65-.06c.06,0,.11.04.12.09l.28,2.98Z"/>
              <path class="cls-2" d="M40.8,3.11c0,.06-.04.11-.1.11l-.36.03c-.06,0-.11-.04-.12-.09l-.18-2.06c0-.06.04-.11.1-.11l.37-.03c.06,0,.11.04.12.09l.16,2.06Z"/>
              <path class="cls-2" d="M42.28,3c0,.06-.04.11-.1.11l-.37.03c-.06,0-.11-.04-.11-.09l-.15-2.06c0-.06.04-.11.1-.11l.37-.03c.06,0,.11.04.12.1l.14,2.06Z"/>
              <path class="cls-2" d="M43.78,2.92c0,.06-.04.11-.1.11l-.37.02c-.06,0-.11-.04-.11-.1l-.12-2.06c0-.06.04-.11.1-.11l.37-.02c.06,0,.11.04.12.1l.1,2.06Z"/>
              <path class="cls-2" d="M45.24,2.85c0,.06-.04.11-.1.11l-.37.02c-.06,0-.11-.04-.11-.1l-.09-2.06c0-.06.05-.11.1-.11l.37-.02c.06,0,.11.04.11.1l.07,2.06Z"/>
            </g>
            <g>
              <path class="cls-2" d="M47.03,3.74c0,.06-.05.1-.1.1h-.63c-.06,0-.11-.04-.11-.1l-.08-2.99c0-.06.05-.1.11-.1h.66c.06,0,.11.04.11.1l.05,2.99Z"/>
              <path class="cls-2" d="M48.52,2.8c0,.06-.05.1-.11.11h-.36c-.06,0-.11-.04-.11-.1V.74c0-.06.04-.1.1-.11h.38c.06,0,.11.04.11.1v2.06Z"/>
              <path class="cls-2" d="M49.99,2.8c0,.06-.05.1-.11.1h-.36c-.06,0-.1-.06-.1-.11l.03-2.06c0-.06.05-.1.11-.1h.39c.06,0,.11.06.11.11l-.07,2.06Z"/>
              <path class="cls-2" d="M51.46,2.9c0,.06-.06.1-.11.09l-.36-.03c-.06,0-.1-.06-.1-.11l.15-2.06c0-.06.06-.1.12-.09l.4.03c.06,0,.11.06.11.12l-.22,2.05Z"/>
              <path class="cls-2" d="M52.85,3.11c-.01.06-.06.09-.12.08l-.34-.06c-.06,0-.09-.06-.08-.12l.34-2.04c0-.06.07-.09.14-.08l.41.07c.07.01.11.07.1.13l-.44,2.02Z"/>
            </g>
            <g>
              <path class="cls-2" d="M54.07,4.47c-.02.05-.08.08-.12.06,0,0-.11-.06-.23-.1-.13-.04-.25-.08-.25-.08-.05-.02-.07-.07-.05-.13l.91-2.85c.02-.05.09-.08.15-.06,0,0,.18.06.36.12.18.06.36.15.36.15.07.03.1.1.08.15l-1.21,2.74Z"/>
              <path class="cls-2" d="M55.78,4.38c-.02.05-.08.08-.13.06,0,0-.3-.13-.3-.12-.05-.01-.08-.07-.06-.13l.63-1.96c.02-.05.09-.08.16-.06,0-.01.44.17.44.17.07.03.11.1.09.15l-.83,1.89Z"/>
              <path class="cls-2" d="M56.89,5.4s-.09.07-.14.04l-.28-.16s-.07-.08-.05-.13l.84-1.88c.02-.05.1-.07.17-.04l.42.23c.07.04.1.11.07.16l-1.05,1.78Z"/>
              <path class="cls-2" d="M57.87,6.52s-.09.07-.13.04c0,0-.28-.18-.29-.16-.05-.02-.07-.08-.04-.13l.87-1.87c.02-.05.1-.07.17-.04.01-.01.41.23.41.23.07.04.09.11.07.16l-1.05,1.78Z"/>
              <path class="cls-2" d="M58.75,7.84s-.06.06-.1.05l-.26-.07s-.07-.06-.05-.1l.42-1.58s.07-.07.12-.05l.34.1c.05.02.08.07.07.11l-.54,1.54Z"/>
            </g>
          </g>
          <g>
            <g>
              <path class="cls-2" d="M17.04,24.73c0,.06-.06.1-.12.1,0,0-.16-.01-.32-.02-.12-.01-.25-.02-.25-.02-.05,0-.08-.05-.08-.11l.15-2.99c0-.06.06-.1.12-.09,0,0,.17.02.34.03.14,0,.27.02.27.02.05,0,.08.05.08.11l-.2,2.99Z"/>
              <path class="cls-2" d="M18.56,24.16c0,.06-.05.1-.1.1h-.36c-.06-.01-.1-.06-.1-.12l.07-2.06c0-.06.04-.1.09-.1h.3s.09.06.09.12v2.06Z"/>
              <path class="cls-2" d="M19.9,24.25c0,.06-.05.1-.1.1h-.35c-.06-.01-.1-.06-.1-.12l.06-2.06c0-.06.04-.1.09-.1h.31s.09.06.09.12v2.06Z"/>
              <path class="cls-2" d="M21.32,24.12c0,.06-.04.11-.09.12,0,0-.36.03-.36.02-.06,0-.11-.04-.11-.1l-.09-2.06c0-.06.03-.1.08-.1,0,0,.28,0,.28-.02.05,0,.09.04.1.09l.2,2.05Z"/>
              <path class="cls-2" d="M22.69,23.64c0,.06-.03.11-.08.12l-.35.07c-.06.01-.11-.03-.12-.09l-.31-2.04c0-.06.02-.11.07-.12l.3-.06s.1.03.11.09l.38,2.03Z"/>
            </g>
            <g>
              <path class="cls-2" d="M24.66,24.03c.02.05-.01.11-.07.13l-.6.19c-.06.02-.11-.01-.13-.07l-.84-2.87c-.02-.05.01-.11.06-.13l.54-.17c.05-.02.11.02.12.07l.92,2.85Z"/>
              <path class="cls-2" d="M25.71,22.69c.02.05,0,.11-.06.13l-.33.11c-.05.02-.11-.01-.13-.07l-.67-1.95c-.02-.05,0-.11.06-.13l.31-.11c.05-.02.11.01.13.07l.68,1.95Z"/>
              <path class="cls-2" d="M27.01,22.23c.02.05,0,.11-.06.13l-.32.11c-.05.02-.11-.01-.13-.06l-.69-1.95c-.02-.05,0-.11.06-.13l.32-.11c.05-.02.11.01.13.06l.69,1.95Z"/>
              <path class="cls-2" d="M28.32,21.78c.02.05,0,.11-.06.13l-.32.11c-.05.02-.11-.01-.13-.07l-.68-1.95c-.02-.05,0-.11.06-.13l.33-.11c.05-.02.11.01.13.07l.67,1.95Z"/>
              <path class="cls-2" d="M29.6,21.35c.02.05,0,.11-.06.13l-.32.1c-.05.02-.11-.01-.13-.07l-.66-1.96c-.02-.05.01-.11.06-.13l.33-.11c.05-.02.11.01.13.07l.64,1.96Z"/>
            </g>
            <g>
              <path class="cls-2" d="M31.43,21.73c.02.05-.01.11-.06.13l-.55.17c-.05.02-.11-.01-.12-.07l-.9-2.85c-.02-.05.01-.11.07-.13l.58-.18c.05-.02.11.02.13.07l.87,2.86Z"/>
              <path class="cls-2" d="M32.48,20.47c.01.06-.02.11-.07.13l-.32.09c-.05.01-.11-.02-.12-.07l-.56-1.99c-.02-.05.02-.11.07-.13l.34-.09c.06-.01.11.02.13.07l.53,2Z"/>
              <path class="cls-2" d="M33.8,20.15c.01.06-.02.11-.07.12l-.32.07c-.05.01-.11-.02-.12-.08l-.47-2.01c-.01-.06.02-.11.08-.13l.35-.08c.06-.01.11.02.13.08l.43,2.02Z"/>
              <path class="cls-2" d="M35.14,19.9c0,.06-.03.11-.08.12l-.32.05c-.05,0-.1-.03-.11-.09l-.37-2.03c0-.06.03-.11.09-.12l.36-.06c.06,0,.11.03.12.09l.32,2.04Z"/>
              <path class="cls-2" d="M36.44,19.75c0,.06-.03.11-.09.11l-.32.03c-.05,0-.1-.04-.11-.09l-.23-2.05c0-.06.04-.11.1-.11l.37-.04c.06,0,.11.04.12.1l.16,2.06Z"/>
            </g>
            <g>
              <path class="cls-2" d="M37.93,20.57c0,.06-.04.1-.09.1,0,0-.12-.01-.25,0-.13,0-.26,0-.26,0-.05,0-.09-.05-.09-.1l-.05-2.99c0-.06.05-.11.11-.11,0,0,.17,0,.34,0,.17,0,.34.01.34.01.06,0,.11.05.11.11l-.17,2.99Z"/>
              <path class="cls-2" d="M39.14,19.66c0,.06-.05.1-.1.09,0,0-.08,0-.15-.02-.08,0-.15,0-.15,0-.05,0-.09-.05-.09-.11l.1-2.06c0-.06.06-.1.12-.1,0,0,.1,0,.21.01.1.01.21.02.21.02.07,0,.12.06.11.12l-.25,2.05Z"/>
              <path class="cls-2" d="M40.51,19.85c0,.06-.05.1-.1.09,0,0-.29-.04-.29-.03-.05,0-.08-.05-.08-.11l.11-2.06c0-.06.06-.1.13-.1,0,0,.45.05.45.05.07,0,.12.06.11.12l-.33,2.04Z"/>
              <path class="cls-2" d="M41.74,20.51c-.01.05-.06.09-.1.08l-.26-.02s-.07-.05-.07-.1l.28-1.89c0-.05.07-.1.15-.09l.45.04c.07,0,.12.06.1.12l-.55,1.87Z"/>
              <path class="cls-2" d="M42.5,21.96c-.02.05-.07.09-.11.07l-.25-.04s-.06-.06-.05-.11l.5-1.92c.01-.05.08-.09.15-.08l.41.07c.06.02.1.07.08.13l-.73,1.88Z"/>
            </g>
          </g>
          <g>
            <path class="cls-2" d="M.2,39.31l.49-2.95c0-.06-.03-.11-.09-.12l-.58-.1v3.25s.05,0,.05,0c.06,0,.12-.03.12-.08Z"/>
            <path class="cls-2" d="M1.3,39.4c0,.06-.06.1-.12.09l-.36-.05c-.06,0-.1-.06-.09-.12l.31-2.04c0-.06.06-.1.12-.09l.35.05c.06,0,.1.06.09.12l-.31,2.04Z"/>
            <path class="cls-2" d="M2.6,40.27c0,.06-.06.1-.12.09l-.36-.05c-.06,0-.1-.06-.09-.12l.29-2.04c0-.06.06-.1.12-.09l.35.05c.06,0,.1.06.09.12l-.28,2.05Z"/>
            <path class="cls-2" d="M4.02,41.17c0,.06-.06.1-.12.09l-.36-.05c-.06,0-.1-.06-.09-.12l.27-2.05c0-.06.06-.1.12-.09l.35.05c.06,0,.1.06.09.12l-.26,2.05Z"/>
            <path class="cls-2" d="M5.39,41.74c0,.06-.06.1-.12.09l-.36-.04c-.06,0-.1-.06-.09-.12l.24-2.05c0-.06.06-.1.12-.09l.36.04c.06,0,.1.06.09.11l-.24,2.05Z"/>
            <path class="cls-2" d="M6.9,43.32c0,.06-.06.1-.12.09l-.63-.07c-.06,0-.1-.06-.09-.11l.33-2.98c0-.06.06-.1.12-.09l.62.07c.06,0,.1.06.09.11l-.31,2.98Z"/>
            <path class="cls-2" d="M8.48,42.8c0,.06-.06.1-.12.09l-.36-.03c-.06,0-.1-.06-.09-.11l.2-2.06c0-.06.06-.1.12-.09l.36.03c.06,0,.1.06.1.11l-.2,2.05Z"/>
            <path class="cls-2" d="M9.94,43.06c0,.06-.06.1-.11.1l-.36-.03c-.06,0-.1-.06-.1-.11l.19-2.06c0-.06.06-.1.11-.09l.36.03c.06,0,.1.06.1.11l-.18,2.06Z"/>
            <path class="cls-2" d="M11.43,43.23c0,.06-.06.1-.11.09l-.36-.03c-.06,0-.1-.06-.1-.11l.17-2.06c0-.06.05-.1.11-.09l.36.03c.06,0,.1.06.1.11l-.16,2.06Z"/>
            <path class="cls-2" d="M12.87,43.47c0,.06-.06.1-.11.1l-.36-.02c-.06,0-.1-.05-.1-.11l.15-2.06c0-.06.06-.1.11-.1l.36.02c.06,0,.1.05.1.11l-.14,2.06Z"/>
            <path class="cls-2" d="M14.58,44.63c0,.06-.05.1-.11.1l-.64-.04c-.06,0-.1-.05-.1-.11l.19-2.99c0-.06.05-.1.11-.1l.63.04c.06,0,.1.05.1.11l-.18,2.99Z"/>
            <path class="cls-2" d="M16.12,43.79c0,.06-.05.1-.11.1l-.36-.02c-.06,0-.1-.05-.1-.11l.11-2.06c0-.06.05-.1.11-.1l.36.02c.06,0,.1.05.1.11l-.11,2.06Z"/>
            <path class="cls-2" d="M17.59,43.85c0,.06-.05.1-.11.1h-.36c-.06-.02-.1-.07-.1-.12l.1-2.06c0-.06.05-.1.11-.1h.36c.06.02.1.06.1.12l-.09,2.06Z"/>
            <path class="cls-2" d="M19.08,43.91c0,.06-.05.1-.11.1h-.36c-.06-.02-.11-.07-.1-.12l.08-2.06c0-.06.05-.1.11-.1h.36c.06.02.1.07.1.12l-.07,2.06Z"/>
            <path class="cls-2" d="M20.53,43.97c0,.06-.05.1-.11.1l-.36-.02c-.06,0-.1-.05-.1-.11l.06-2.06c0-.06.05-.1.11-.1h.36c.06.02.1.07.1.12l-.06,2.06Z"/>
            <path class="cls-2" d="M22.27,44.92c0,.06-.05.1-.11.1h-.64c-.06,0-.11-.06-.1-.11l.06-2.99c0-.06.05-.1.11-.1h.63c.06,0,.1.06.1.11l-.05,2.99Z"/>
            <path class="cls-2" d="M23.78,44.01c0,.06-.05.1-.11.1h-.36c-.06,0-.11-.05-.1-.11l.02-2.06c0-.06.05-.1.11-.1h.36c.06,0,.1.05.1.11l-.02,2.06Z"/>
            <path class="cls-2" d="M25.25,44.03c0,.06-.05.1-.11.1h-.36c-.06,0-.11-.05-.11-.11v-2.06c0-.06.05-.1.11-.1h.36c.06,0,.1.05.1.11v2.06Z"/>
            <path class="cls-2" d="M26.74,44.01c0,.06-.05.11-.11.11h-.36c-.06,0-.11-.04-.11-.1v-2.06c-.01-.06.03-.1.09-.11h.36c.06,0,.11.04.11.1l.02,2.06Z"/>
            <path class="cls-2" d="M28.19,43.99c0,.06-.05.1-.11.11h-.36c-.06,0-.11-.04-.11-.1l-.03-2.06c0-.06.05-.11.1-.11h.36c.06,0,.11.04.11.1l.04,2.06Z"/>
            <path class="cls-2" d="M29.98,44.88c0,.06-.04.1-.1.11h-.64c-.06.01-.11-.03-.11-.09l-.07-2.99c0-.06.04-.11.1-.11h.63c.06-.01.11.03.11.09l.08,2.99Z"/>
            <path class="cls-2" d="M31.44,43.74c0,.06-.04.11-.1.11l-.36.02c-.06,0-.11-.04-.11-.1l-.07-2.06c0-.06.04-.11.1-.11l.36-.02c.06,0,.11.04.11.1l.08,2.06Z"/>
            <path class="cls-2" d="M32.91,43.57c0,.06-.04.11-.1.11l-.36.02c-.06,0-.11-.04-.11-.1l-.09-2.06c0-.06.04-.11.1-.11l.36-.02c.06,0,.11.04.11.1l.1,2.06Z"/>
            <path class="cls-2" d="M34.4,43.44c0,.06-.04.11-.1.11l-.36.02c-.06,0-.11-.04-.11-.1l-.11-2.06c0-.06.04-.11.1-.11l.36-.02c.06,0,.11.04.11.1l.11,2.06Z"/>
            <path class="cls-2" d="M35.85,43.31c0,.06-.04.11-.1.11l-.36.02c-.06,0-.11-.04-.11-.1l-.13-2.06c0-.06.04-.11.1-.11l.36-.02c.06,0,.11.04.11.1l.13,2.06Z"/>
            <path class="cls-2" d="M37.67,44c0,.06-.04.11-.1.11l-.64.06c-.06,0-.11-.04-.11-.09l-.21-2.99c0-.06.04-.11.1-.11l.62-.06c.06,0,.11.04.11.09l.23,2.98Z"/>
            <path class="cls-2" d="M38.96,42.82c0,.06-.04.11-.1.11l-.36.03c-.06,0-.11-.04-.11-.09l-.17-2.06c0-.06.04-.11.1-.11l.36-.03c.06,0,.11.04.11.09l.18,2.06Z"/>
            <path class="cls-2" d="M40.46,42.59c0,.06-.04.11-.1.11l-.36.03c-.06,0-.11-.04-.12-.09l-.19-2.06c0-.06.04-.11.1-.11l.36-.03c.06,0,.11.04.11.09l.2,2.06Z"/>
            <path class="cls-2" d="M41.92,42.41c0,.06-.04.11-.1.11l-.36.03c-.06,0-.11-.04-.12-.09l-.21-2.05c0-.06.04-.11.09-.11l.36-.03c.06,0,.11.04.11.09l.22,2.05Z"/>
            <path class="cls-2" d="M43.4,42.16c0,.06-.04.11-.09.12l-.36.05c-.06,0-.11-.03-.12-.09l-.23-2.05c0-.06.04-.11.09-.12l.35-.05c.06,0,.11.03.12.09l.24,2.05Z"/>
            <path class="cls-2" d="M45.2,42.83c0,.06-.03.11-.09.12l-.63.08c-.06,0-.11-.03-.12-.09l-.36-2.97c0-.06.03-.11.09-.12l.62-.08c.06,0,.11.03.12.09l.38,2.97Z"/>
            <path class="cls-2" d="M46.54,41.53c0,.06-.03.11-.09.12l-.36.05c-.06,0-.11-.03-.12-.09l-.28-2.05c0-.06.03-.11.09-.12l.36-.05c.06,0,.11.03.12.09l.29,2.05Z"/>
            <path class="cls-2" d="M47.97,41.24c0,.06-.03.11-.09.12l-.36.05c-.06,0-.11-.03-.12-.09l-.3-2.04c0-.06.03-.11.09-.12l.35-.05c.06,0,.11.03.12.09l.31,2.04Z"/>
            <path class="cls-2" d="M49.42,40.75c0,.06-.03.11-.09.12l-.36.06c-.06.01-.11-.03-.12-.08l-.32-2.04c0-.06.03-.11.09-.12l.35-.06c.06-.01.11.03.12.08l.33,2.04Z"/>
            <path class="cls-2" d="M50.82,40.43c0,.06-.03.11-.09.12l-.36.06c-.06,0-.11-.03-.12-.08l-.35-2.04c0-.06.03-.11.09-.12l.35-.06c.06,0,.11.03.12.08l.35,2.03Z"/>
            <path class="cls-2" d="M52.63,40.79c.01.06-.03.11-.09.12l-.63.11c-.06.01-.11-.03-.12-.08l-.53-2.94c-.01-.06.03-.11.08-.12l.61-.11c.06-.01.11.03.12.08l.55,2.94Z"/>
            <path class="cls-2" d="M53.9,39.5c.01.06-.03.11-.08.12l-.36.06c-.06,0-.11-.03-.13-.08l-.4-2.03c-.01-.06.03-.11.08-.12l.35-.06c.06-.01.11.03.12.08l.41,2.02Z"/>
            <path class="cls-2" d="M55.22,38.89c.01.06-.02.11-.08.13l-.36.08c-.06.01-.11-.02-.12-.08l-.42-2.02c-.01-.06.02-.11.08-.13l.35-.08c.06-.01.11.02.12.08l.43,2.02Z"/>
            <path class="cls-2" d="M56.66,38.34c.01.06-.02.11-.08.13l-.36.08c-.06.01-.11-.02-.13-.08l-.45-2.02c-.01-.06.02-.11.08-.13l.35-.08c.06-.01.11.02.12.08l.46,2.01Z"/>
            <path class="cls-2" d="M57.97,37.78c0,.06-.03.11-.09.12l-.36.05c-.06,0-.11-.03-.12-.09l-.29-2.04c0-.06.03-.11.09-.12l.35-.05c.06,0,.11.03.12.09l.3,2.04Z"/>
            <path class="cls-2" d="M59.64,38c0,.06-.03.11-.09.12l-.63.1c-.06,0-.11-.03-.12-.09l-.5-2.95c0-.06.03-.11.09-.12l.62-.09c.06,0,.11.03.12.09l.52,2.95Z"/>
            <path class="cls-2" d="M60.71,36.43c0,.06-.04.11-.09.12l-.36.05c-.06,0-.11-.03-.12-.09l-.24-2.05c0-.06.03-.11.09-.12l.35-.05c.06,0,.11.03.12.09l.25,2.05Z"/>
            <path class="cls-2" d="M61.87,35.71c0,.06-.04.11-.1.12l-.36.04c-.06,0-.11-.03-.12-.09l-.21-2.05c0-.06.04-.11.09-.12l.35-.04c.06,0,.11.04.12.09l.22,2.05Z"/>
            <path class="cls-2" d="M63.14,35.16c0,.06-.04.11-.09.12l-.36.04c-.06,0-.11-.03-.12-.09l-.25-2.05c0-.06.03-.11.09-.12l.35-.04c.06,0,.11.03.12.09l.26,2.05Z"/>
            <path class="cls-2" d="M64.28,34.57c0,.06-.04.11-.1.11l-.36.03c-.06,0-.11-.04-.12-.09l-.22-2.05c0-.06.04-.11.09-.11l.36-.03c.06,0,.11.04.11.09l.23,2.05Z"/>
          </g>
        </g>
        <path class="cls-4" d="M64.55,30.51v7.11s-1.31,1.23-1.72,1.49l-.11-2.04c-1.37.59-2-1.88-.41-2.7l-.16-2,2.4-1.85Z"/>
        <path class="cls-4" d="M.02,17.33v-7.11s2.01-.87,2.51-1.08v1.86c1.39-.56,1.61,1.83,0,2.61v2.66L.02,17.33Z"/>
        <path class="cls-5" d="M.22,10.34c.37-.16,1.52-.66,2.12-.91v1.85l.27-.11c.12-.05.22-.07.32-.07.35,0,.47.3.51.49.14.6-.19,1.45-.98,1.83l-.11.05v2.65l-2.12.9v-6.69Z"/>
        <path class="cls-5" d="M62.91,36.78l-.26.11c-.11.05-.23.07-.33.07-.4,0-.63-.36-.71-.7-.14-.56.05-1.34.79-1.72l.12-.06-.16-2.03,2.01-1.55v6.63c-.36.34-.96.88-1.35,1.2l-.1-1.95Z"/>
      </g>
      <g>
        <path d="M76.79,31.06c-.47-.57-.94-1.09-1.41-1.56.83-1.3,1.2-3.57,1.09-6.8v-9.53h5.16v15.55c0,1.2-.57,1.85-1.72,1.95h-1.56c0-.05-.03-.13-.08-.23-.1-.73-.21-1.22-.31-1.48h1.25c.52,0,.78-.23.78-.7v-3.75h-1.8c0,2.55-.47,4.74-1.41,6.56ZM78.2,14.89v3.12h1.8v-3.12h-1.8ZM78.2,22.86h1.8v-3.12h-1.8v3.12ZM82.42,24.97v-1.56h3.28c.31-.47.57-.88.78-1.25l1.95.16c-.05.1-.16.26-.31.47-.16.26-.29.47-.39.62h6.64v1.56h-2.19c-.42,1.09-.99,2.03-1.72,2.81.52.21,1.3.52,2.34.94.68.21,1.17.39,1.48.55l-.94,1.64c-.68-.37-1.72-.86-3.12-1.48-.57-.26-.99-.47-1.25-.62-1.35.94-3.44,1.69-6.25,2.27-.05-.1-.13-.26-.23-.47-.05-.26-.23-.7-.55-1.33,2.19-.31,3.88-.7,5.08-1.17-.21-.1-.55-.26-1.02-.47-.47-.16-.83-.29-1.09-.39l-.39.55-1.56-.62c.57-.68,1.12-1.41,1.64-2.19h-2.19ZM82.65,14.81v-1.64h11.48v1.64h-3.28v1.64h3.05v5.39h-11.02v-5.39h2.97v-1.64h-3.2ZM84.45,18.02v2.34h1.64v-2.34h-1.64ZM85.85,26.06c.31.1.78.26,1.41.47.57.26,1.02.44,1.33.55.68-.57,1.2-1.28,1.56-2.11h-3.52c-.1.16-.26.39-.47.7-.16.16-.26.29-.31.39ZM87.57,14.81v1.64h1.64v-1.64h-1.64ZM87.57,18.02v2.34h1.64v-2.34h-1.64ZM92.34,18.02h-1.72v2.34h1.72v-2.34Z"/>
        <path d="M95.54,15.59v-1.64h8.44v-1.72h2.11v1.72h8.28v1.64h-18.83ZM96.48,30.83v-8.91h17.03v6.56c.05,1.46-.73,2.21-2.34,2.27-.62.05-1.59.08-2.89.08-.05-.37-.16-.86-.31-1.48-.05-.16-.08-.26-.08-.31h2.19c.99.05,1.46-.29,1.41-1.02v-4.45h-12.97v7.27h-2.03ZM98.43,20.83v-4.06h13.05v4.06h-13.05ZM100.46,18.09v1.33h8.98v-1.33h-8.98ZM100.62,28.8v-4.06h8.67v4.06h-8.67ZM102.57,26.06v1.56h4.77v-1.56h-4.77Z"/>
        <path d="M116.87,30.98l-1.25-1.88,1.25-.39V12.7h2.19v5.62h4.69v2.03h-4.69v7.42c.36-.16.91-.39,1.64-.7,1.3-.57,2.29-.99,2.97-1.25,0,.21.03.57.08,1.09v1.09c-1.56.52-3.07,1.12-4.53,1.8-.99.42-1.77.81-2.34,1.17ZM127.89,30.52c-1.93.1-2.87-.81-2.81-2.73v-15.39h2.19v7.42c2.03-1.56,3.8-3.18,5.31-4.84l1.64,1.48c-2.14,2.14-4.45,4.09-6.95,5.86v4.92c-.05.99.42,1.46,1.41,1.41h1.72c.94.05,1.46-.42,1.56-1.41.16-.78.26-1.77.31-2.97.16.05.42.13.78.23.73.21,1.17.34,1.33.39-.05.68-.16,1.54-.31,2.58-.05.42-.1.73-.16.94-.26,1.46-1.3,2.16-3.12,2.11h-2.89Z"/>
      </g>
    </g>
  </g>
</svg>