<?xml version="1.0" encoding="UTF-8"?>
<svg id="_圖層_2" data-name="圖層 2" xmlns="http://www.w3.org/2000/svg" viewBox="0 0 131.52 71.46">
  <defs>
    <style>
      .cls-1 {
        fill: #f9e0d7;
      }

      .cls-2 {
        fill: #b9bf70;
      }

      .cls-3 {
        fill: none;
        stroke: #bf7e7a;
        stroke-linecap: round;
        stroke-linejoin: round;
        stroke-width: .42px;
      }

      .cls-4 {
        fill: #ffcfcc;
      }
    </style>
  </defs>
  <g id="_圖層_1-2" data-name="圖層 1">
    <g>
      <g>
        <path class="cls-4" d="M29.04,37.24h-.18.18Z"/>
        <path class="cls-1" d="M56.17,25.37c-.03,10.3-16.28,13.4-27.38,13.54-.06,0-.12,0-.18,0h-.18c-.06,0-.11,0-.18,0-11.1-.13-27.38-3.41-27.42-13.71,0-1.56,2.51-1.91,5.5-14.62.66-2.77,1.59-5.98,1.96-7.33.11-.42.39-.78.77-.99C13.03.23,23.68,0,28.52,0s15.48.23,19.45,2.27c.39.21.67.57.78.99.38,1.35,1.3,4.56,1.96,7.33,3,12.71,5.48,13.23,5.47,14.79Z"/>
        <path class="cls-1" d="M8.49,70.93c-1.21-.02-1.88-1.41-5.24-20.99-1.17-6.83-2.36-4.65-2.9-12.26,11.68-.34,23.11,6.39,28.17,16.12,0,0,0-4.46-1.13,6.29-.85,8.06-2.04,11.4-3.45,11.37l-15.44-.53Z"/>
        <path class="cls-1" d="M48.55,70.93c1.21-.02,1.88-1.41,5.24-20.99,1.17-6.83,2.36-4.65,2.9-12.26-11.68-.34-23.11,6.39-28.17,16.12,0,0,0-4.46,1.13,6.29.85,8.06,2.04,11.4,3.45,11.37l15.44-.53Z"/>
        <path class="cls-2" d="M56.68,37.68c-11.27,2.46-23.6,16.36-28.17,16.12-4.57-.24-16.91-13.67-28.17-16.12-.49-2.01-.56-8.87.49-12.47.36,1.07.94,2.23,1.83,2.99,3.26,2.8,15.02,7.96,26.26,7.92,11.24.03,22.19-5.12,25.45-7.92.89-.76,1.44-1.76,1.8-2.83,1.05,3.6,1.02,10.29.52,12.3Z"/>
        <g>
          <path class="cls-3" d="M27.98,24.08c-.55,1.05-.6,2.1-.05,3.15"/>
          <path class="cls-3" d="M29.09,24.08c.55,1.05.6,2.1.05,3.15"/>
          <path class="cls-3" d="M28.48,24.9c-.16.4-.19.87.1,1.49"/>
        </g>
      </g>
      <g>
        <path d="M73.95,43.01c-.47-.57-.94-1.09-1.41-1.56.83-1.3,1.2-3.57,1.09-6.8v-9.53h5.16v15.55c0,1.2-.57,1.85-1.72,1.95h-1.56c0-.05-.03-.13-.08-.23-.1-.73-.21-1.22-.31-1.48h1.25c.52,0,.78-.23.78-.7v-3.75h-1.8c0,2.55-.47,4.74-1.41,6.56ZM75.35,26.83v3.12h1.8v-3.12h-1.8ZM75.35,34.8h1.8v-3.12h-1.8v3.12ZM79.57,36.91v-1.56h3.28c.31-.47.57-.89.78-1.25l1.95.16c-.05.1-.16.26-.31.47-.16.26-.29.47-.39.62h6.64v1.56h-2.19c-.42,1.09-.99,2.03-1.72,2.81.52.21,1.3.52,2.34.94.68.21,1.17.39,1.48.55l-.94,1.64c-.68-.36-1.72-.86-3.12-1.48-.57-.26-.99-.47-1.25-.62-1.35.94-3.44,1.69-6.25,2.27-.05-.1-.13-.26-.23-.47-.05-.26-.23-.7-.55-1.33,2.19-.31,3.88-.7,5.08-1.17-.21-.1-.55-.26-1.02-.47-.47-.16-.83-.29-1.09-.39l-.39.55-1.56-.62c.57-.68,1.12-1.41,1.64-2.19h-2.19ZM79.81,26.76v-1.64h11.48v1.64h-3.28v1.64h3.05v5.39h-11.02v-5.39h2.97v-1.64h-3.2ZM81.6,29.96v2.34h1.64v-2.34h-1.64ZM83.01,38.01c.31.1.78.26,1.41.47.57.26,1.02.44,1.33.55.68-.57,1.2-1.28,1.56-2.11h-3.52c-.1.16-.26.39-.47.7-.16.16-.26.29-.31.39ZM84.73,26.76v1.64h1.64v-1.64h-1.64ZM84.73,29.96v2.34h1.64v-2.34h-1.64ZM89.49,29.96h-1.72v2.34h1.72v-2.34Z"/>
        <path d="M100.2,28.48h1.48v1.17h1.02v1.02h-1.02v1.17h1.41v1.09h-7.97c-.26.78-.62,1.59-1.09,2.42-.26-.21-.6-.49-1.02-.86-.21-.16-.37-.26-.47-.31,1.04-1.46,1.51-3.54,1.41-6.25v-3.05h8.75v3.52h-7.03v1.25h1.48v-1.25h1.48v1.25h1.56v-1.17ZM95.27,42.93v-7.58h1.17c-.37-.31-.78-.57-1.25-.78.78-.47,1.54-.96,2.27-1.48l1.25.62c-.57.52-1.3,1.07-2.19,1.64h12.73v5.31c.05,1.46-.76,2.19-2.42,2.19h-3.36c-.1-.42-.23-.86-.39-1.33h2.97c.78,0,1.17-.29,1.17-.86h-10v2.27h-1.95ZM95.59,30.66c0,.05-.03.16-.08.31-.05.36-.08.65-.08.86h1.72v-1.17h-1.56ZM95.66,26.05v1.25h5.31v-1.25h-5.31ZM97.23,36.6v.94h10v-.94h-10ZM97.23,38.63v.94h10v-.94h-10ZM98.63,30.66v1.17h1.56v-1.17h-1.56ZM101.37,35.12c-.16-.16-.44-.39-.86-.7-.42-.31-.73-.55-.94-.7l1.17-.7c.57.42,1.22.86,1.95,1.33l-1.33.78ZM109.57,28.87c-.99,0-1.48-.42-1.48-1.25v-1.8h-2.27v.39c.05,1.2-.57,2.16-1.88,2.89-.42-.42-.83-.78-1.25-1.09,1.09-.42,1.59-1.09,1.48-2.03v-1.33h5.47v2.58c0,.31.13.47.39.47h.31c.16,0,.26-.08.31-.23.16-.26.21-.62.16-1.09.21.1.55.21,1.02.31.05.05.1.08.16.08-.1.73-.23,1.25-.39,1.56-.21.36-.62.55-1.25.55h-.78ZM110.82,35.19c-1.67-.36-2.94-.81-3.83-1.33-.89.47-2.03.89-3.44,1.25-.16-.42-.42-.89-.78-1.41,1.15-.21,2.08-.47,2.81-.78-.57-.42-1.2-1.15-1.88-2.19l.47-.23h-.78v-1.25h7.42v1.33c-.62.99-1.35,1.8-2.19,2.42.78.31,1.8.57,3.05.78-.37.52-.65.99-.86,1.41ZM109.02,30.51h-3.59c.47.68,1.04,1.25,1.72,1.72.68-.42,1.3-.99,1.88-1.72Z"/>
        <path d="M114.02,42.93l-1.25-1.88,1.25-.39v-16.02h2.19v5.62h4.69v2.03h-4.69v7.42c.36-.16.91-.39,1.64-.7,1.3-.57,2.29-.99,2.97-1.25,0,.21.03.57.08,1.09v1.09c-1.56.52-3.07,1.12-4.53,1.8-.99.42-1.77.81-2.34,1.17ZM125.04,42.46c-1.93.1-2.87-.81-2.81-2.73v-15.39h2.19v7.42c2.03-1.56,3.8-3.18,5.31-4.84l1.64,1.48c-2.14,2.14-4.45,4.09-6.95,5.86v4.92c-.05.99.42,1.46,1.41,1.41h1.72c.94.05,1.46-.42,1.56-1.41.16-.78.26-1.77.31-2.97.16.05.42.13.78.23.73.21,1.17.34,1.33.39-.05.68-.16,1.54-.31,2.58-.05.42-.1.73-.16.94-.26,1.46-1.3,2.16-3.12,2.11h-2.89Z"/>
      </g>
    </g>
  </g>
</svg>