<?xml version="1.0" encoding="UTF-8"?>
<svg xmlns="http://www.w3.org/2000/svg" viewBox="0 0 47.91 47.32">
  <defs>
    <style>
      .cls-1 {
        fill: #d52b1e;
      }

      .cls-2 {
        fill: #e6e6e6;
      }

      .cls-3 {
        isolation: isolate;
      }

      .cls-4 {
        fill: #a45d97;
      }

      .cls-5, .cls-6 {
        fill: #666;
      }

      .cls-6 {
        mix-blend-mode: screen;
      }

      .cls-7 {
        fill: #b3b3b3;
      }
    </style>
  </defs>
  <g class="cls-3">
    <g id="_圖層_2" data-name="圖層 2">
      <g id="_圖層_1-2" data-name="圖層 1">
        <g>
          <g>
            <path class="cls-4" d="M23.95,2.29c-7.21,0-18.54,1.78-21.15,5.74-.41.63-.87,1.68-.06,3.56l.06.15.04.16c2.87,10.79,7.64,28.28,8.79,31.23.71.47,3.43,1.89,10.16,1.89.65,0,1.34-.01,2.07-.04h.37c8.19,0,11.26-1.42,12.05-1.88,1.16-3.04,5.92-20.45,8.78-31.2l.04-.16.07-.15c.81-1.89.36-2.94-.06-3.57-2.6-3.95-13.93-5.72-21.15-5.72Z"/>
            <path class="cls-7" d="M23.95,0C18.22,0-4.02,1.66.63,12.49c0,0,8.36,31.49,9.17,32.11,0,0,2.8,3.12,14.15,2.68,11.72.04,14.15-2.68,14.15-2.68.81-.62,9.17-32.11,9.17-32.11C51.92,1.66,29.82,0,23.95,0ZM45.17,11.59l-.07.15-.04.16c-2.86,10.76-7.61,28.17-8.78,31.2-.79.46-3.86,1.88-12.05,1.88h-.37c-.73.03-1.41.04-2.07.04-6.73,0-9.45-1.43-10.16-1.89-1.14-2.95-5.92-20.44-8.79-31.23l-.04-.16-.06-.15c-.81-1.88-.35-2.93.06-3.56,2.61-3.96,13.94-5.74,21.15-5.74s18.55,1.77,21.15,5.72c.41.63.87,1.68.06,3.57Z"/>
            <path class="cls-2" d="M7.71,19.21s16.8-6.81,32.5,0l1.82-11.09S26.04.61,5.89,8.13l1.82,11.09Z"/>
            <path class="cls-1" d="M22.21,16.26l1.21-6.46c.16-.85.42-.85.58,0l1.19,6.39-2.98.07Z"/>
            <g>
              <g>
                <path class="cls-5" d="M8.53,12c.02.07,0,.14-.07.17l-.68.25c-.06.02-.14-.01-.16-.08l-1.4-3.57c-.03-.07,0-.14.08-.17l.74-.27c.07-.03.15.01.17.08l1.33,3.6Z"/>
                <path class="cls-5" d="M9.78,10.3c.02.07-.01.14-.08.17l-.41.13c-.06.02-.14-.02-.16-.09l-.86-2.5c-.02-.07.01-.15.08-.17l.43-.14c.07-.02.15.02.17.09l.83,2.51Z"/>
                <path class="cls-5" d="M11.43,9.79c.02.07-.02.14-.08.16l-.41.12c-.07.02-.14-.02-.16-.09l-.78-2.53c-.02-.07.02-.15.09-.17l.44-.12c.07-.02.14.02.16.09l.74,2.54Z"/>
                <path class="cls-5" d="M13.13,9.32c.02.07-.02.14-.09.16,0,0-.1.02-.21.05-.1.03-.21.06-.21.06-.07.02-.14-.02-.15-.1l-.68-2.56c-.02-.07.02-.15.09-.16,0,0,.11-.03.22-.06.11-.03.22-.05.22-.05.07-.02.14.03.16.1l.65,2.57Z"/>
                <path class="cls-5" d="M14.79,8.93c.01.07-.03.14-.09.16l-.41.1c-.07.02-.14-.03-.15-.1l-.59-2.58c-.02-.07.03-.14.1-.16l.44-.1c.07-.02.14.03.16.1l.55,2.59Z"/>
              </g>
              <g>
                <path class="cls-5" d="M17.02,9.71c.01.07-.03.14-.1.15l-.71.14c-.07.01-.13-.04-.14-.11l-.71-3.77c-.01-.07.03-.14.11-.16l.78-.15c.07-.01.14.03.15.11l.63,3.79Z"/>
                <path class="cls-5" d="M18.56,8.29c0,.07-.04.14-.11.15l-.42.06c-.07,0-.13-.04-.14-.11l-.37-2.62c0-.07.04-.14.11-.15l.45-.06c.07-.01.14.04.15.11l.33,2.63Z"/>
                <path class="cls-5" d="M20.28,8.12c0,.07-.04.14-.11.14l-.42.04c-.07,0-.13-.05-.14-.12l-.27-2.63c0-.07.05-.14.12-.14l.45-.04c.07,0,.14.05.14.12l.23,2.64Z"/>
                <path class="cls-5" d="M22.03,8c0,.07-.05.14-.12.14l-.43.02c-.07,0-.13-.05-.13-.13l-.16-2.64c0-.07.05-.14.13-.14l.46-.02c.07,0,.14.05.14.13l.12,2.64Z"/>
                <path class="cls-5" d="M23.73,7.96c0,.07-.06.13-.12.13h-.43c-.07,0-.13-.05-.13-.13l-.05-2.65c0-.07.06-.14.13-.14h.45c.07,0,.13.06.13.14v2.65Z"/>
              </g>
              <g>
                <path class="cls-5" d="M25.74,9.19c0,.07-.06.13-.13.12,0,0-.18-.01-.36-.01-.18,0-.36,0-.36,0-.07,0-.12-.06-.12-.13l.09-3.84c0-.07.06-.13.14-.13,0,0,.2,0,.4,0,.2,0,.4.01.4.01.07,0,.13.07.13.14l-.18,3.83Z"/>
                <path class="cls-5" d="M27.55,8.12c0,.07-.07.13-.14.12l-.42-.03c-.07,0-.12-.07-.11-.14l.2-2.64c0-.07.07-.13.14-.12l.46.03c.07,0,.13.07.12.14l-.24,2.64Z"/>
                <path class="cls-5" d="M29.26,8.33c0,.07-.07.13-.14.12l-.42-.05c-.07,0-.12-.08-.11-.15l.31-2.63c0-.07.07-.13.15-.12l.45.06c.07,0,.12.08.11.15l-.35,2.62Z"/>
                <path class="cls-5" d="M30.99,8.6c-.01.07-.08.12-.15.11l-.42-.08c-.07-.01-.11-.08-.1-.15l.42-2.61c.01-.07.08-.12.15-.11l.45.08c.07.01.12.08.11.16l-.47,2.61Z"/>
                <path class="cls-5" d="M32.66,8.92c-.02.07-.08.12-.15.1l-.42-.08c-.07-.01-.11-.08-.1-.15l.53-2.59c.01-.07.09-.12.16-.11,0,0,.45.09.45.09.07.02.12.09.1.16l-.58,2.58Z"/>
              </g>
              <g>
                <path class="cls-5" d="M34.35,10.57c-.02.07-.09.12-.15.1l-.7-.17c-.07-.02-.1-.09-.09-.16l.93-3.72c.02-.07.09-.11.16-.1l.77.19c.07.02.11.09.09.16l-1.03,3.7Z"/>
                <path class="cls-5" d="M36.34,9.94c-.02.07-.09.11-.16.09l-.41-.13c-.07-.02-.1-.09-.08-.16l.77-2.53c.02-.07.1-.11.17-.09l.44.14c.07.02.11.1.08.17l-.81,2.52Z"/>
                <path class="cls-5" d="M37.98,10.5c-.03.07-.1.11-.16.08l-.4-.15c-.06-.02-.1-.1-.07-.17l.88-2.5c.02-.07.1-.11.17-.08l.42.16c.07.03.1.1.08.17l-.92,2.48Z"/>
                <path class="cls-5" d="M39.61,11.13c-.03.07-.1.1-.17.08l-.4-.15c-.06-.02-.09-.1-.07-.17l.98-2.46c.03-.07.11-.1.17-.08l.43.16c.07.03.1.1.07.17l-1.02,2.44Z"/>
                <path class="cls-5" d="M41.17,11.83c-.03.07-.11.1-.17.07l-.39-.18c-.06-.03-.09-.11-.06-.17l1.07-2.42c.03-.07.11-.1.18-.07l-.25,1.94-.38.83Z"/>
              </g>
            </g>
          </g>
          <path class="cls-6" d="M7.71,19.21s14.33-10.06,22.81-14.02c0,0-11.18-2.11-24.63,2.93l1.82,11.09Z"/>
        </g>
      </g>
    </g>
  </g>
</svg>