<?xml version="1.0" encoding="UTF-8"?>
<svg id="_圖層_2" data-name="圖層 2" xmlns="http://www.w3.org/2000/svg" xmlns:xlink="http://www.w3.org/1999/xlink" viewBox="0 0 248.34 360.19">
  <defs>
    <style>
      .cls-1 {
        fill: none;
      }

      .cls-2 {
        fill: #dd966f;
      }

      .cls-3 {
        fill: #dfe78d;
      }

      .cls-4 {
        fill: #34375a;
      }

      .cls-5 {
        fill: #cc6a5c;
      }

      .cls-6 {
        fill: #afbc60;
      }

      .cls-7 {
        clip-path: url(#clippath-1);
      }

      .cls-8 {
        fill: #fff;
      }

      .cls-9 {
        fill: #828241;
      }

      .cls-10 {
        opacity: .6;
      }

      .cls-11 {
        fill: #5e5748;
      }

      .cls-12 {
        fill: #f3c54f;
      }

      .cls-13 {
        fill: #efc1a4;
      }

      .cls-14 {
        fill: #ee8441;
      }

      .cls-15 {
        fill: #3e86c7;
      }

      .cls-16 {
        fill: #f47171;
      }

      .cls-17 {
        clip-path: url(#clippath);
      }

      .cls-18 {
        fill: #ecddd4;
      }

      .cls-19 {
        fill: #d2e9f7;
      }
    </style>
    <clipPath id="clippath">
      <rect class="cls-1" x="0" width="248.34" height="360.19"/>
    </clipPath>
    <clipPath id="clippath-1">
      <polygon class="cls-19" points="53.46 11.78 -21.4 566.16 -22.18 571.96 160.93 571.96 235.79 17.58 236.58 11.78 53.46 11.78"/>
    </clipPath>
  </defs>
  <g id="_圖層_1-2" data-name="圖層 1">
    <g class="cls-17">
      <g>
        <path class="cls-4" d="M211.98,176.83h-6.66v7.31h0l34.97,366.63H89.22v-147.03h-7.31v154.34h166.43l-36.36-381.25Z"/>
        <g class="cls-10">
          <polygon class="cls-19" points="53.46 11.78 -21.4 566.16 -22.18 571.96 160.93 571.96 235.79 17.58 236.58 11.78 53.46 11.78"/>
          <g class="cls-7">
            <g>
              <g>
                <g>
                  <path class="cls-13" d="M168.5,139.49c1.71,3.08,2.74,6.49,3.81,9.85,2.38,7.47,5,14.86,7.88,22.15,3.03,7.68,6.37,15.44,6.9,23.69.25,4.01-.29,8.12-1.73,11.88-.65,1.7-1.66,3.04-2.51,4.59-.99,1.81-1.47,3.61-3.09,5.05-5.29,4.69-9.83-1.73-12.13-6-4.12-7.64-7.67-15.58-10.62-23.74-2.89-7.99-5.67-16.42-6.82-24.86-.66-4.85-.6-9.77-.54-14.66.05-4.06.19-8.4,2.55-11.71,2.06-2.89,5.63-4.81,8.87-3.42,3.3,1.41,5.7,4.08,7.43,7.18Z"/>
                  <path class="cls-18" d="M163.78,170.55c-3.38,2.5-6.74,5.33-9.44,8.63-1.81-5.6-3.35-11.34-4.13-17.08-.66-4.85-.6-9.77-.54-14.66.05-4.06.19-8.4,2.55-11.71,2.06-2.89,5.63-4.81,8.87-3.42,3.3,1.41,5.7,4.08,7.43,7.18,1.71,3.08,2.74,6.49,3.81,9.85,1.41,4.44,2.91,8.85,4.5,13.22-4.55,2.31-8.94,4.96-13.03,7.99Z"/>
                </g>
                <path class="cls-13" d="M167.41,208.69c0,.19,0,.38.02.57.04.67.89,2.05,1.18,2.74.45,1.09,1.02,2.14,1.67,3.13,1.06,1.61,3.82,3.96,5.73,4.34.74.15,1.51.05,2.25-.08,5.7-.98,9.88-4.82,12.59-9.77,5.29-9.65,8.03-20.46,10.72-31.14,2.76-10.93,5.51-21.85,8.26-32.78.1-.4.2-.85-.02-1.21-.18-.3-.54-.44-.87-.56-1.46-.53-2.83-1.29-4.32-1.77-.73-.23-1.46-.23-2.18-.4-.72-.16-1.18-.53-1.93-.04-.49.32-.82.84-1.14,1.34-3.13,4.98-5.96,10.16-8.47,15.48-2.52,5.34-5.3,10.48-8.21,15.64-4.01,7.09-8.09,14.14-11.59,21.5-1.96,4.11-3.78,8.48-3.7,13.02Z"/>
                <path class="cls-5" d="M177.97,180.84c1.01-1.44,2.03-2.87,3-4.33.15-.23.92-.13.76.11-3.31,4.99-7.26,9.7-9.23,15.44-.53,1.56-.9,3.17-1.05,4.81-.03.29-.81.27-.79,0,.55-6.02,3.93-11.2,7.31-16.02Z"/>
                <g>
                  <g>
                    <path class="cls-13" d="M199.73,138.53c-.52,1.04-.8,2.2-.69,3.33.19,1.94,1.88,2.73,3.23,3.84.44.36.75.87,1.22,1.23,2.09,1.6,4.84,1.78,7.12.58,2.43-1.28,4.71-2.84,6.79-4.63,2.08-1.8,3.92-3.91,5.47-6.17.45-.66.89-1.35,1.18-2.09.26-.66.61-1.67.37-2.37-.12-.34-.45-.63-.8-.57-.39.06-.59.48-.75.84-.96,2.19-2.47,4.19-4.73,5.1.26-.1.61-.76.79-.98.29-.37.58-.75.86-1.14.54-.75,1.04-1.52,1.47-2.34.43-.81.78-1.66,1.01-2.55.17-.65.6-1.96-.05-2.47-.25-.2-.63-.23-.91-.08-.29.16-.46.46-.62.76-.71,1.36-1.38,2.75-2.2,4.06-.36.58-.78,1.38-1.34,1.8-.53.39-1.11.65-1.47,1.26,1.23-2.11,2.75-4.01,3.56-6.35.16-.46.55-1.34.4-1.82-.14-.48-.79-.6-1.19-.37-.33.19-.55.53-.76.85-.72,1.13-1.48,2.23-2.29,3.3-.77,1.02-1.69,1.86-2.58,2.77.31-.31.5-1.04.72-1.43.28-.5.59-1,.87-1.51.41-.76,1.16-1.93.82-2.83-.5-.04-.94.32-1.31.67-.99.94-1.95,1.92-2.87,2.94-.74.82-1.46,1.68-2.31,2.39-.85.71-1.85,1.29-2.95,1.44.79-1.2,1.58-2.41,2.38-3.61.22-.34.45-.78.24-1.13-.69-.13-1.34.33-1.89.77-.94.75-1.86,1.51-2.77,2.29-.87.74-1.62,1.56-2.43,2.36-.64.62-1.18,1.04-1.6,1.88Z"/>
                    <path class="cls-5" d="M209.45,140.8c-2.21.05-4.32,1.08-5.66,2.84-.11.14.19.24.28.25.17.03.38,0,.49-.14,1.15-1.52,2.99-2.5,4.9-2.55.12,0,.4-.03.4-.2s-.29-.2-.4-.2Z"/>
                  </g>
                  <g>
                    <path class="cls-9" d="M211.1,115.91c2.07-.1,4.01-.67,5.75.75.7.57,1.3,1.27,2.01,1.83.45.36.94.66,1.38,1.04,1.18,1.02,1.84,2.51,2.47,3.94-1.66-.32-3.39.15-5.06-.14-.72-.13-1.4-.39-2.08-.66-1.01-.39-2.04-.8-2.92-1.43-.81-.59-1.32-1.37-1.94-2.12-.51-.61-.86-1.34-1.38-1.94-.79-.92-1.99-1.04-2.84-1.83-.24-.23-.43-.53-.45-.86.21-.04.43.02.62.14.18.11.34.27.5.41,1.2,1.09,2.43.95,3.95.88Z"/>
                    <g>
                      <g>
                        <path class="cls-16" d="M206.14,120.41c.72-2.06.2-4.46-1.13-6.16-.25-.32.45-1.29.75-.91,1.57,2.01,1.88,4.73,1.05,7.11-.07.2-.33.55-.57.52-.27-.03-.16-.4-.1-.56Z"/>
                        <path class="cls-16" d="M212.94,118.02c2.22.4,4.15,1.81,5.19,4.27.89,2.11.93,4.5.51,6.75-.41,2.25-1.26,4.4-2.1,6.53-.28.71-.56,1.43-1.01,2.05-1.66,2.28-3.8.84-6.04.79-2.43-.05-4.24,2.35-6.69,1.26-1.14-.51-2.01-1.49-2.71-2.53-2.05-3.07-3.41-6.7-3.86-10.37-.27-2.22.12-4.86,1.73-6.53,1.58-1.65,4.25-2.32,6.42-1.57,1.76.61,1.77.85,3.59.04,1.66-.74,3.39-.97,4.98-.69Z"/>
                      </g>
                      <path class="cls-8" d="M198.38,125.83c-.6-.07-.41-1.6-.36-1.95.15-.95.37-1.94.92-2.75.1-.14.72-.68.72-.19,0,.27-.12.51-.23.76-.5,1.13-.51,2.18-.5,3.39,0,.15-.01.31-.07.45s-.18.26-.33.29c-.05.01-.1.01-.14,0Z"/>
                    </g>
                  </g>
                </g>
              </g>
              <path class="cls-13" d="M2.83,228.06c.48-1.81,1.58-3.39,2.76-4.85,2.15-2.67,4.99-5.26,8.42-5.34,1.97-.05,3.95.8,5.27,2.26,4.61,5.1,4.57,12.97,1.03,18.63-.23.36-.48.73-.83.98-.54.39-1.24.46-1.91.43-3.64-.17-6.56-2.91-9.83-4.51-1.37-.67-2.88-1.18-3.9-2.31-1.26-1.39-1.5-3.49-1.02-5.3Z"/>
              <path class="cls-11" d="M16.25,240.05c.91.95,2.26,1.88,2.85,2.44,3.28,3.11,7.18,5.48,11.06,7.81,14.16,8.52,28.54,17.04,44.35,21.85,3.51,1.07,7.13,1.95,10.8,1.86,3.67-.09,7.43-1.25,10.06-3.8,4.03-3.9,7.8-13.34.96-15.92-24.73-9.35-51.07-13.56-77.23-17.39-1.49-.22-3.57-.02-3.75,1.47-.06.51.33,1.1.89,1.68Z"/>
              <g>
                <path class="cls-13" d="M54.54,209.02c-2.97,0-5.89.69-8.73,1.5-2.71.78-5.51,1.39-8.27,2.1-6.02,1.55-12.13,2.78-18.28,3.68-2.13.31-4.3.59-6.27,1.45-1.98.85-3.78,2.37-4.44,4.42-.51,1.61-.25,3.45.69,4.85,1.84,2.73,5.65,2.88,8.6,2.57.66-.07,1.32-.13,1.98-.19,14.53-1.27,29.15.02,43.71-.53,1.75-.07,3.53-.15,5.16-.78,1.74-.67,4.34-2.79,3.78-4.96-.61-2.37-2.48-4.77-4.03-6.62-1.8-2.14-3.82-4.15-6.24-5.55-2.46-1.42-5.05-1.94-7.67-1.93Z"/>
                <g>
                  <path class="cls-13" d="M66.82,139.49c-3.62,6.53-3.93,14.05-4.67,21.3-.77,7.54-2.39,14.98-3.31,22.56-.5,4.14-1.01,8.28-1.79,12.37-.75,3.94-1.73,7.83-2.43,11.78-.62,3.52-1.75,6.8-1.46,10.46.2,2.54,1.11,5.11,2.99,6.83,1.21,1.11,2.74,1.79,4.25,2.45,1.72.75,3.5,1.52,5.38,1.5,2.7-.03,5.17-1.71,6.81-3.86,3.7-4.86,5-12.03,6.53-17.81,1.72-6.5,3.07-13.1,4.07-19.76,1.99-13.19,2.64-26.55,2.47-39.87-.05-4.06-.19-8.4-2.55-11.71-2.06-2.89-5.63-4.81-8.87-3.42-3.3,1.41-5.7,4.08-7.43,7.18Z"/>
                  <path class="cls-18" d="M61.65,165.03c.19-1.41.37-2.82.51-4.24.74-7.25,1.05-14.77,4.67-21.3,1.72-3.11,4.13-5.77,7.43-7.18,3.24-1.39,6.82.53,8.87,3.42,2.36,3.31,2.49,7.65,2.55,11.71.13,10.66-.26,21.33-1.43,31.93-6.68-5.89-14.48-10.51-22.59-14.33Z"/>
                </g>
                <path class="cls-5" d="M54.88,208.75c.06-.16.36-.15.48-.14,3.32.3,6.42,2.23,8.11,5.11.15.25-.62.34-.76.11-1.58-2.7-4.44-4.55-7.56-4.83-.12-.01-.34-.09-.28-.25Z"/>
              </g>
              <path class="cls-11" d="M112.27,128.33c4.56.11,9.13-.4,13.48-1.75,6.07-1.89,11.69-5.5,15.42-10.64,1.93-2.65,3.33-5.65,4.39-8.75,2.91-8.52,3.24-17.91.93-26.61-2.46-9.27-8.52-20.65-17.77-24.58-6.28-2.67-14.37-2.64-20.81-.67-7.51,2.31-14.11,7.84-17.09,15.12-3.25,7.96-2.04,17.01.01,25.36,1.12,4.56,2.48,9.3,1.42,13.87-.76,3.29-2.61,5.3-1.29,8.66,1.05,2.68,3.02,4.88,5.47,6.38,3.13,1.92,6.81,2.74,10.45,3.19,1.79.22,3.59.36,5.39.41Z"/>
              <path class="cls-13" d="M77.07,131.06c4.58-1.56,9.38-2.46,13.85-4.3,1.47-.6,2.91-1.33,4.26-2.2,2.76-1.77,5.12-4.1,6.44-7.07.27-.62.51-1.28.96-1.78,1.72-1.89,6.11.45,8.01,1.06,2.44.78,4.89,1.57,7.33,2.35,2.44-.78,4.89-1.57,7.33-2.35,1.9-.61,6.29-2.95,8.01-1.06.46.5.69,1.16.97,1.78,1.31,2.97,3.67,5.3,6.44,7.07,1.35.86,2.79,1.59,4.26,2.2,4.47,1.84,9.27,2.74,13.85,4.3,7.5,2.56,9.91,9.67,7.8,17.01-1.01,3.52-2.77,6.76-4.28,10.04-1.57,3.4-1.62,6.75-1.57,10.44.09,7.05-.61,14.1-2.09,20.99-2.7,12.63-5.5,25.14-4.86,38.13.6,12.14,7.79,24.75,10.49,36.8.36,1.61.66,3.42-.24,4.8-.93,1.4-2.77,1.82-4.42,2.1-16.28,2.71-32.97,3.01-49.34.88-10.67-1.39-21.33-3.8-32.07-3.17-1.54.09-3.16.23-4.57-.4-2.9-1.31-1.72-4.38-1.07-6.68,4.32-15.43,10.32-29.16,9.65-45.46-.38-9.33-3.03-17.97-4.96-26.99-1.47-6.89-2.18-13.95-2.09-20.99.05-3.7,0-7.04-1.57-10.44-1.51-3.28-3.27-6.52-4.28-10.04-2.11-7.33.3-14.45,7.8-17.01Z"/>
              <path class="cls-18" d="M69.27,148.07c1.01,3.52,2.77,6.76,4.28,10.04,1.57,3.4,1.62,6.75,1.57,10.44-.09,7.05.62,14.1,2.09,20.99,1.14,5.33,2.53,10.54,3.56,15.82h74.68c.9-5.28,2.05-10.54,3.18-15.82,1.47-6.89,2.18-13.94,2.09-20.99-.05-3.7,0-7.04,1.57-10.44,1.51-3.29,3.27-6.52,4.28-10.04,2.11-7.33-.3-14.45-7.8-17.01-4.58-1.56-9.37-2.46-13.85-4.3-.18-.08-.37-.15-.55-.23-1.28-.56-2.53-1.21-3.71-1.97-2.76-1.77-5.12-4.1-6.44-7.07-.28-.62-.51-1.28-.97-1.78-1.72-1.89-6.11.44-8.01,1.06-2.44.78-4.89,1.57-7.33,2.35-2.44-.79-4.89-1.57-7.33-2.35-1.9-.61-6.29-2.95-8.01-1.06-.46.5-.69,1.16-.96,1.78-1.31,2.98-3.67,5.3-6.44,7.07-1.18.75-2.44,1.41-3.71,1.96-.18.08-.37.15-.55.23-4.47,1.84-9.27,2.74-13.85,4.3-7.5,2.56-9.91,9.67-7.8,17.01Z"/>
              <path class="cls-13" d="M91.46,126.53c.37.53.75,1.05,1.11,1.57,3.97,5.67,10.55,9.35,17.34,10.38,1.86.28,3.74.39,5.6.33,1.6-.04,3.2-.04,4.8,0,1.87.05,3.74-.05,5.6-.33,6.79-1.03,13.37-4.71,17.34-10.38.37-.52.75-1.04,1.12-1.57-1.28-.56-2.53-1.21-3.71-1.97-2.76-1.77-5.12-4.1-6.44-7.07-.28-.62-.51-1.28-.97-1.78-1.72-1.89-6.11.44-8.01,1.06-2.44.78-4.89,1.57-7.33,2.35-2.44-.79-4.89-1.57-7.33-2.35-1.9-.61-6.29-2.95-8.01-1.06-.46.5-.69,1.16-.96,1.78-1.31,2.98-3.67,5.3-6.44,7.07-1.18.75-2.44,1.41-3.71,1.96Z"/>
              <g>
                <path class="cls-13" d="M106.44,101.78c0,.19,0,.39,0,.58,0,.11,0,.21,0,.31l.52,12.38v.14s.07,1.51.07,1.51c0,.17.01.34.02.51.15,3.62-1.26,7.88,3.12,9.15,5.89,1.71,12.34,1.39,18.03-.89,1.47-.59,2.91-1.32,4.03-2.45,2.91-2.95,1.46-6.53.94-10.07-.59-4.03-.87-8.09-1.05-12.16-.06-1.38-.53-2.5-1.93-3-1.34-.48-2.62.29-3.97.32-.01,0-12.83.35-12.83.35-2.12.06-5.75-.57-6.71,1.88h0c-.15.39-.24.85-.24,1.41Z"/>
                <path class="cls-5" d="M106.44,101.78c0,.19,0,.39,0,.58,0,.11,0,.21,0,.31l.52,12.38c.15.16.31.32.5.47.93.75,1.93,1.44,3.05,1.86,3.7,1.41,8.75.09,11.94-2.05,2.85-1.92,4.45-5.06,5.39-8.27,1.1-3.78-.21-5.61-3.41-6.89-2.8-1.13-5.84-1.37-8.8-1.2-2.26.14-4.37.98-6.54,1.18-.89.07-1.67.04-2.4.23h0c-.15.39-.24.85-.24,1.41Z"/>
              </g>
              <path class="cls-13" d="M103.38,64.15c.93-.69,1.91-1.3,2.95-1.76,1.7-.75,3.53-1.1,5.36-1.26,6.19-.54,12.58,1.18,17.51,5.05,5.81,4.56,9.4,11.99,8.48,19.59-.61,5-2.14,9.86-4.24,14.41-2.22,4.79-5.33,9.25-9.48,12.53-4.17,3.3-11.73,4.8-16.37,1.51-3.27-2.32-5.73-4.99-7.43-8.77-.59-1.33-1.06-2.71-1.51-4.09-2.25-6.94-2.88-13.45-2.97-20.79-.03-2.81-.17-5.99.98-8.59,1.06-2.4,2.82-4.41,4.72-6.15.64-.58,1.3-1.15,1.99-1.66Z"/>
              <path class="cls-11" d="M97.31,82.5c.58-2.3,1.31-4.56,2.3-6.72,2.18-4.74,5.83-9.03,10.72-10.84.67-.25,1.38-.45,2.1-.42,2.12.09,3.6,2.05,4.75,3.82.89,1.36,1.77,2.71,2.66,4.07,1.71,2.62,3.45,5.26,5.74,7.38,1.9,1.76,4.14,3.12,6,4.93,2.81,2.75,3.04,6.26,4.29,9.77.28.8.8,1.61.99,2.43.22.96-.15,1.94.15,2.88,1.07-.57,1.68-1.81,2.15-2.84,5.37-11.9,1.57-27.53-10.78-34.16-2.86-1.54-6.09-2.4-9.34-2.9-3.58-.55-7.26-.25-10.66.95-7.5,2.65-11.2,7.61-13.2,14.59-.69,2.39-1.1,4.79-1.58,7.22-.41,2.1-1.29,4.07-1.57,6.24-.57,4.52.16,9.09.57,13.6.19,2.14.28,4.45-.83,6.29-1.07,1.78-3.03,2.79-4.85,3.79-2.03,1.11-4.04,2.35-5.54,4.12-1.5,1.76-2.43,4.14-1.97,6.41.31,1.56,1.23,2.91,1.83,4.38.83,2.04,1.04,4.34.59,6.5-.44,2.12-1.49,4.05-2.28,6.06-1.27,3.21-1.91,6.66-1.88,10.11.01,1.23.11,2.47.52,3.63.41,1.16,1.11,2.19,1.93,3.1,2.26,2.54,6.36,4.68,9.81,4.78,4.07.11,7.92-2.72,9.51-6.47.84-1.98,1.21-4.29,2.8-5.73.88-.8,2.04-1.21,3.04-1.85,2.71-1.73,4.15-5.24,3.43-8.37-.35-1.52-1.15-2.9-1.66-4.38-.63-1.79-.84-3.71-.63-5.6.19-1.76,1.06-2.85,1.56-4.46.96-3.08.16-6.93-1.52-9.61-1.96-3.13-4.38-5.99-5.97-9.34-1.51-3.18-2.14-6.69-2.76-10.16-.77-4.35-1.51-8.84-.41-13.19Z"/>
              <g>
                <g>
                  <path class="cls-2" d="M109.55,84.58s.05-.01.08-.01c.82-.04.9,2.13.94,2.69.09,1.16,0,2.34-.2,3.48-.26,1.45-.83,2.81-1.1,4.24-.33,1.79,1.86,2.46,3.21,2.7.71.13.22.66-.3.57-1.25-.22-2.9-.71-3.69-1.8-.4-.56-.38-1.21-.21-1.85.21-.81.49-1.6.69-2.41.3-1.2.51-2.43.55-3.67.02-.63,0-1.26-.09-1.89-.07-.53-.43-1.29-.19-1.8.06-.12.18-.22.31-.25Z"/>
                  <path class="cls-2" d="M97.63,86.22s-.07.07-.1.11c-.06.06-.27.35-.36.24-.07-.09-.05-.22-.03-.33.13-.63.45-1.14.79-1.59.73-1,1.52-1.71,2.57-2.1,1.26-.47,2.55-.6,3.91-.57.71.01,2.3.03,1.99,1.58-.1.52-.57.69-.98.73-.5.05-1.02.02-1.54-.08-.73-.15-1.46-.43-2.18-.42-.74,0-1.45.25-2.09.64-.51.31-.98.71-1.42,1.17-.19.2-.37.41-.55.62Z"/>
                  <path class="cls-2" d="M127.74,84.78c-.29-1.29-2.21-2.47-3.14-3.02-2.06-1.2-4.48-1.61-6.79-1.02-.86.22-1.78,1.39-.76,2.19.29.23.67.3,1.02.34.85.09,1.72.07,2.57-.08,1.17-.2,2.37-.61,3.52-.32.7.18,1.3.61,1.9,1.03.43.3,1.17,1.05,1.68.88Z"/>
                </g>
                <path class="cls-11" d="M121.14,85.86c.37-.42.95-.41,1.43-.2.42.1.82.36,1.07.7.37.51.5,1.16.47,1.78-.03.57-.15,1.16-.48,1.64-.38.55-1.03.73-1.65.57-.03,0-.06-.03-.09-.03-.09-.03-.18-.07-.26-.11,0,0,0,0,0,0-.06-.03-.12-.05-.18-.09-.13-.07-.25-.14-.35-.25-.48-.48-.65-1.26-.64-1.92,0-.39.09-.81.24-1.19.09-.33.23-.65.44-.89Z"/>
                <path class="cls-11" d="M104.01,87.05c.32-.45.9-.51,1.4-.35.43.06.85.27,1.14.58.42.46.62,1.1.65,1.72.03.58-.03,1.17-.31,1.68-.32.59-.95.83-1.58.75-.03,0-.06-.02-.09-.03-.09-.02-.19-.04-.28-.08,0,0,0,0,0,0-.06-.02-.13-.04-.19-.07-.13-.05-.26-.12-.37-.21-.52-.43-.78-1.18-.83-1.84-.03-.39,0-.81.11-1.21.06-.34.16-.68.35-.94Z"/>
                <path class="cls-8" d="M110.16,104.35c-.17-.18-.3-.38-.37-.61-.23-.72.27-1.17.88-1.39,1.5-.56,3.05.06,4.61-.67.54-.25,1.09-.53,1.69-.61,1.84-.25,2.67,1.58,1.35,2.82-.53.49-1.06,1-1.71,1.32-1.81.92-4.12.7-5.81-.36-.23-.14-.45-.3-.63-.5Z"/>
              </g>
              <path class="cls-13" d="M133.77,86.5c.39-.51.97-.87,1.77-.99,1.32-.23,2.68.47,3.48,1.54.8,1.07,1.09,2.45,1.08,3.79-.03,3.91-2.67,7.66-6.34,9-.22.08-.46.15-.67.06-.23-.1-.34-.37-.41-.62-.37-1.37-.11-2.83.16-4.23.22-1.16.72-2.53.68-3.71-.02-.8-.42-1.61-.43-2.45-.01-.92.19-1.77.68-2.4Z"/>
              <path class="cls-5" d="M116.3,237.97s.01,0,.02,0c.74,0,1.07,2.53,1.12,3.06.11,1.12-.04,2.3-.67,3.26-.3.46-.88-.05-1.08-.32-.37-.51-.47-1.16-.49-1.78-.03-.82.06-1.64.25-2.44.09-.39.31-1.75.85-1.78Z"/>
              <path class="cls-8" d="M162.61,455.06c2.56,18.03,2.12,36.68.34,54.92-.45,4.58-.97,9.15-1.54,13.71-.2,1.59-.19,4.88-.57,7.77h-38.83c-1.46-17.35-2.61-34.72-3.48-52.08-.48-9.59-1.72-19.12-3.23-28.59-.76-4.76-1.6-9.51-2.46-14.26-.41-2.29-1.21-4.78-1.29-7.1-.05-1.4.57-2.85-.3-3.91.42.51-.38,4.57-.4,5.41-.04,1.86.25,3.49.47,5.28.55,4.44.2,9.09.12,13.57-.16,9.53-.49,19.05-1,28.57-.78,14.59-1.97,29.16-3.57,43.68-.32,2.88-.21,6.49-.91,9.43h-36.97c-.71-1.39-.85-3.03-.97-4.61-.53-7-1.17-13.99-1.92-20.97-4.63-43.28-13.45-85.92-22.69-128.41-4.66-21.41-9.32-42.83-13.98-64.24-4.47-20.54-8.45-40.96-12.21-61.56-.38-2.11-3.85-14.11-1.4-14.82.68-.2,1.39.05,2.05.29,21.67,8,42.37,18.66,64.5,25.28,1.26.38,2.53.74,3.84.78,1.3.03,2.58-.26,3.85-.55,3.32-.76,6.49-1.75,9.76-2.6,3.24-.84,6.43-1.86,9.63-2.83,8.65-2.62,17.37-4.96,26.11-7.28.58-.15,1.15-.31,1.73-.46,1.82-.48,3.65-.97,5.47-1.45,4.3-1.14,8.62-2.29,13.01-3.03.74-.13,1.53-.24,2.24.02,1.44.52,1.61,3.6,2.04,4.91.67,2.1,1.34,4.2,1.93,6.31,2.78,9.92,4.91,19.82,5.96,30.09,1.04,10.29,1.32,20.65,1.57,30.98.59,25.1,1.03,50.3-1.9,75.23-2.42,20.6-7.93,41.74-4.98,62.5Z"/>
              <g>
                <path class="cls-11" d="M18.08,250.63c1.22.5,2.45,1,3.67,1.5l11.52,4.7c.08,1.92-.02,3.84-.28,5.74-.94,6.83-4.04,13.37-8.8,18.37-.34.35.68.51.91.27,1.35-1.41,2.57-2.95,3.65-4.57,3.76-5.69,5.76-12.55,5.59-19.38l16.39,6.69c4.85,1.98,9.7,3.96,14.55,5.94,2.4.98,4.81,1.96,7.21,2.94,2.26.92,4.51,1.92,6.81,2.73.46.16.93.31,1.4.44.42,3.75.96,7.49,1.56,11.22,1.12,6.94,2.4,13.87,3.77,20.77.34,1.7.68,3.4,1.1,5.08.17.7.52,1.2,1.28,1.31.68.09,1.36-.16,1.93-.51,1.36-.85,2.61-1.94,3.77-3.03,1.1-1.04,2.28-2.17,2.6-3.71.17-.8.12-1.62.08-2.43-.04-.89-.09-1.77-.14-2.66-.1-1.77-.22-3.54-.36-5.31-.28-3.49-.62-6.98-1.02-10.47-.42-3.74-.9-7.46-1.4-11.19,4.38-1.15,8.78-2.2,13.19-3.2,9.24-2.1,18.52-4.03,27.66-6.54,1.02-.28,2.04-.57,3.05-.86.85,2.13,2.01,4.13,3.44,5.92,2.72,3.41,6.3,6.07,10.35,7.7,4.47,1.8,9.37,2.39,14.15,1.84.14-.02.46-.12.37-.33-.09-.21-.46-.21-.65-.19-2.57.3-5.16.23-7.71-.19-4.34-.72-8.49-2.53-11.89-5.33-3.14-2.57-5.62-5.91-7.09-9.7,7.61-2.25,15.07-4.99,22.16-8.57.52-.27-.44-.53-.74-.38-1.02.52-2.06,1.02-3.09,1.51-8.39,3.91-17.25,6.7-26.19,9.01-8.93,2.31-17.97,4.17-26.95,6.25-3.39.78-6.74,1.67-10.11,2.52-.42-3.13-.86-6.26-1.31-9.39-.05-.39-1.1-.34-1.05,0,.12.84.24,1.67.35,2.51.33,2.38.67,4.76.99,7.14-.82.21-1.65.41-2.47.61-2.54.6-5.17,1-7.76.49-.28-.06-.56-.12-.83-.19-.44-3.99-.76-7.99-.9-12-.01-.38-1.06-.37-1.05,0,.03.86.07,1.72.11,2.58.16,3.05.42,6.08.75,9.11-1.72-.54-3.38-1.28-5.04-1.96-9.44-3.86-18.87-7.71-28.31-11.56-9.48-3.87-18.96-7.75-28.44-11.62-.2-.08-.56-.15-.74,0-.14.11-.23.29,0,.38ZM81.76,276.29c1.42.31,2.87.44,4.36.34,2.29-.15,4.51-.7,6.72-1.28.57,4.24,1.11,8.48,1.57,12.73.37,3.42.69,6.85.94,10.28.12,1.7.23,3.41.32,5.12.08,1.56.36,3.34-.44,4.76-.37.67-.9,1.22-1.44,1.76-.55.55-1.12,1.08-1.71,1.59-.59.51-1.2.99-1.83,1.45-.31.23-.62.46-.96.64-.16.09-.45.25-.65.2-.33-.09-.43-.62-.5-.9-.09-.4-.19-.79-.28-1.19-.19-.84-.37-1.67-.54-2.51-.34-1.66-.66-3.32-.97-4.99-1.26-6.71-2.53-13.42-3.54-20.17-.39-2.6-.74-5.21-1.04-7.82Z"/>
                <path class="cls-11" d="M84.87,267.68c1.89-1.47,4.64,1.26,3.35,3.2-.48.72-1.49,1.25-2.36,1.12-.85-.13-1.42-.86-1.65-1.64-.28-.94-.16-2.05.66-2.69Z"/>
                <path class="cls-11" d="M59.79,310.41c.23-.03.5,0,.65.19,2.83,3.5,5.83,6.86,8.98,10.08,3.16,3.22,6.47,6.29,9.92,9.19,1.94,1.63,3.92,3.2,5.94,4.72.2.15-.05.32-.19.37-.23.07-.53.05-.72-.1-3.62-2.73-7.11-5.62-10.45-8.68-3.34-3.06-6.53-6.28-9.56-9.65-1.7-1.89-3.34-3.82-4.94-5.79-.15-.18.26-.31.37-.33Z"/>
                <path class="cls-11" d="M96.23,349.11c1.6,4.75,3.09,9.54,4.47,14.36,1.37,4.78,2.63,9.58,3.79,14.41,1.17,4.88,2.22,9.78,3.16,14.71.94,4.9,1.77,9.83,2.48,14.76.72,4.96,1.33,9.94,1.82,14.93.06.62.12,1.24.18,1.85.03.35-1.02.38-1.05,0-.46-4.97-1.04-9.93-1.72-14.87-.69-4.94-1.49-9.87-2.39-14.78-.91-4.88-1.92-9.75-3.04-14.59-1.13-4.88-2.38-9.74-3.73-14.57-1.35-4.81-2.81-9.58-4.37-14.32-.19-.59-.39-1.18-.59-1.77-.13-.4.9-.47,1.01-.14Z"/>
              </g>
              <path class="cls-11" d="M73.01,152.83c1.26,4.43,2.05,9,2.33,13.6.08,1.3.12,2.61.11,3.91,0,.28-.79.28-.79,0,0-4.55-.48-9.1-1.45-13.54-.28-1.3-.61-2.59-.97-3.87-.09-.31.69-.35.76-.11Z"/>
              <path class="cls-11" d="M162.88,154.56c.64-1.32,1.43-2.57,2.35-3.71.11-.14.32-.17.48-.14.07.01.39.11.28.25-3.31,4.1-4.61,9.35-4.99,14.51-.11,1.49-.14,2.99-.12,4.49,0,.28-.79.28-.79,0-.06-5.22.47-10.65,2.79-15.39Z"/>
              <g>
                <path class="cls-11" d="M120.99,66.6c2.8,5.51,7.24,10.15,12.6,13.23,1.52.87,3.1,1.61,4.75,2.22.17.06.35.19.19.37-.15.16-.53.17-.72.1-5.96-2.18-11.22-6.12-15.01-11.22-1.07-1.43-2.01-2.96-2.82-4.55-.18-.35.85-.46,1.01-.14Z"/>
                <path class="cls-11" d="M127.73,69.03c.23-.03.5,0,.65.19,2.15,2.67,5,4.79,8.19,6.04.16.06.35.19.19.37-.15.16-.53.17-.72.1-3.4-1.34-6.38-3.52-8.67-6.36-.15-.18.26-.31.37-.33Z"/>
                <path class="cls-11" d="M126.48,57.3c.16-.17.52-.16.72-.1,2.52.79,4.81,2.23,6.59,4.19.33.36-.68.52-.91.27-1.68-1.86-3.82-3.25-6.21-4-.17-.05-.35-.2-.19-.37Z"/>
                <path class="cls-11" d="M92.02,74.56c.52-1.6,1.21-3.15,2.04-4.62.18-.31,1.21-.2,1.01.14-2.9,5.1-3.91,11.18-2.92,16.96.28,1.66.74,3.28,1.35,4.84.15.38-.88.47-1.01.14-2.18-5.55-2.31-11.8-.47-17.47Z"/>
                <path class="cls-11" d="M137.97,113.96c3.05-2.41,4.77-6.01,5.89-9.65.35-1.16.65-2.33.93-3.5.09-.38,1.13-.32,1.05,0-.94,3.94-2.12,7.98-4.71,11.18-.67.83-1.41,1.58-2.25,2.24-.19.15-.49.17-.72.1-.14-.05-.38-.21-.19-.37Z"/>
                <path class="cls-11" d="M85.6,118.82c.69-1.93,2-3.61,3.76-4.67.2-.12.54-.11.74,0,.19.11.19.27,0,.38-1.69,1-2.89,2.69-3.53,4.52-.77,2.21-.69,4.63-.2,6.88.07.32-.97.39-1.05,0-.51-2.35-.55-4.84.27-7.12Z"/>
                <path class="cls-11" d="M90.45,121.3c.13-.33,1.17-.24,1.01.14-.96,2.45-.71,5.27.64,7.52.2.33-.83.45-1.01.14-1.41-2.34-1.64-5.27-.64-7.8Z"/>
                <path class="cls-11" d="M83.43,144.28c.32-1.12.76-2.22,1.5-3.14.15-.18.42-.22.65-.19.1.02.52.15.37.33-.63.77-1.04,1.67-1.34,2.61-.34,1.04-.59,2.12-.75,3.19-.32,2.04-.27,4.17.61,6.07.44.96,1.08,1.81,1.91,2.47.19.15-.04.32-.19.37-.22.07-.53.05-.72-.1-1.52-1.2-2.4-3.01-2.71-4.89-.37-2.25.06-4.56.68-6.73Z"/>
                <path class="cls-11" d="M89.4,144.38c.09-.33,1.13-.27,1.01.14-.63,2.25-.11,4.72,1.33,6.55.15.19-.26.31-.37.33-.22.03-.5,0-.65-.19-1.51-1.92-1.99-4.49-1.33-6.83Z"/>
              </g>
              <g>
                <path class="cls-13" d="M17.38,231.22c-.46,2.73.87,5.6,1.21,8.29.11.85-.27,1.75-1.17,1.94-1.52.32-2.85-.69-3.79-1.72-.45.78-1.5,1.06-2.36.79-.85-.27-1.5-1-1.88-1.81-.41.72-1.31,1.14-2.13.98-.82-.16-1.5-.88-1.6-1.71-.59.45-1.44.55-2.12.25-1.65-.72-1.99-3.22-1.99-4.77-.02-2.66.88-5.31,2.31-7.54.64-1.01,1.44-1.99,2.55-2.42.57-.22,1.2-.28,1.81-.27,2.61.04,5.19,1.26,6.87,3.25,1.68,2,2.45,4.74,2.04,7.32l.24-2.59Z"/>
                <g>
                  <path class="cls-5" d="M17.51,233.83c.07-.53.18-1.04.33-1.55.18-.61.44-1.19.56-1.81.04-.19.56-.16.53,0-.12.57-.33,1.1-.51,1.65-.18.56-.31,1.13-.38,1.71-.15,1.15-.09,2.31.17,3.44.04.16-.48.19-.53,0-.25-1.13-.31-2.29-.17-3.44Z"/>
                  <path class="cls-5" d="M11.62,234.46c.4,1.8,1.09,3.52,2.05,5.1.1.16-.41.23-.51.07-.96-1.6-1.66-3.34-2.06-5.17-.04-.16.48-.19.53,0Z"/>
                  <path class="cls-5" d="M7.6,233.99c.25,1.63.81,3.2,1.65,4.63.1.16-.41.23-.51.07-.85-1.44-1.42-3.04-1.67-4.7-.03-.17.5-.19.53,0Z"/>
                  <path class="cls-5" d="M5.01,233.72c-.01,1.32.22,2.63.69,3.86.07.19-.44.24-.51.07-.48-1.26-.72-2.59-.71-3.94,0-.19.53-.19.53,0Z"/>
                  <path class="cls-5" d="M21.33,222.19c.9,2.1,1.48,4.33,1.7,6.6.02.18-.51.19-.53,0-.22-2.25-.79-4.45-1.68-6.53-.08-.19.44-.23.51-.07Z"/>
                </g>
              </g>
              <g>
                <path class="cls-9" d="M83.49,32.07c.72-.14,1.5.05,2.08.49.02.17-.11.33-.26.4-.15.07-.33.06-.5.04-.12-.02-.27-.03-.34.07-.06.08-.04.19-.1.26-.1.12-.3.03-.46.07-.13.03-.22.17-.25.3-.02.14.01.27.05.41.08.26.19.5.32.74.09.17.2.34.23.53.03.19-.04.42-.22.49-.14.05-.29,0-.43-.04-.84-.28-2.64-.43-2.31-1.67.26-.98,1.16-1.94,2.19-2.08Z"/>
                <path class="cls-12" d="M87.4,35.76c1.49.42,2.63,1.22,2.54,3.18-.06,1.16-.68,2.58-1.08,3.69-.62,1.7-1.56,3.35-2.33,4.99-.44.95-.89,1.91-1.44,2.81-.32.53-.69,1.05-1.22,1.37-2.17,1.32-4.78-.26-6.78-1.06-.91-.36-1.88-.58-2.86-.63-.68-.04-1.28-.55-1.77-1.01-.75-.7-.86-1.83-.88-2.85-.08-4.13-.13-16.11,7.08-13.65,1.3.45,2.35,1.43,3.58,2.05,1.29.65,3.45.63,5.16,1.11Z"/>
                <g>
                  <path class="cls-14" d="M86.24,36.73c.09-.01.2.03.27.09.5.53.75,1.26.65,1.98-.01.08-.18.05-.22.03-.07-.02-.17-.08-.16-.16.09-.65-.13-1.34-.58-1.81-.06-.06-.03-.12.05-.14Z"/>
                  <path class="cls-14" d="M85.75,41.8c.05-.13.42,0,.38.13-.91,2.6-2.14,5.08-3.66,7.37-.08.12-.44-.03-.38-.13,1.52-2.29,2.75-4.77,3.66-7.37Z"/>
                  <path class="cls-14" d="M75.05,36.33c-.57,3.75-.94,7.53-1.09,11.31,0,.16-.39.06-.38-.07.16-3.81.53-7.6,1.1-11.37.02-.13.4-.02.38.13Z"/>
                  <path class="cls-14" d="M79.78,40.14c.04-.13.42,0,.38.13-.59,1.83-1.21,3.66-1.85,5.47-.05.13-.42,0-.38-.13.64-1.81,1.26-3.64,1.85-5.47Z"/>
                </g>
              </g>
              <g>
                <path class="cls-6" d="M179.58,124.55c-1.7-.41-2.9-2.03-3.52-3.69-.65-1.74-.88-3.63-1.64-5.32-1.26-2.81-3.85-4.76-6.42-6.46-1.44-.96-3.07-2.17-3.06-3.9,0-.42.11-.82.13-1.24.1-2.45-2.66-3.96-3.68-6.18-1.07-2.34-.01-5.14,1.56-7.18.78-1.02,1.74-2.07,1.72-3.36,0-.49-.16-.96-.26-1.43-.49-2.49-.24-5.19,1.58-7.11.99-1.04,2.34-1.73,3.76-1.96,1.47-.24,2.82.48,3.92-.78.37-.42.79-.82,1.32-1,.78-.27,1.64-.03,2.42.27.77.3,1.55.67,2.38.67.73,0,1.43-.31,2.15-.44,1.35-.23,2.8.22,3.77,1.18.29.28.56.64.94.81.4.18.82.23,1.22.43.87.44,1.68,1.01,2.38,1.69.56.55,1.06,1.17,1.72,1.59.61.39,1.32.6,1.91,1.03,1.42,1.03,1.73,3.05,1.41,4.78-.32,1.72-1.14,3.32-1.54,5.02-.41,1.75-.36,3.57-.72,5.33-.31,1.51-.9,2.94-1.44,4.38-1.64,4.34-2.9,8.96-3.85,13.47-.78,3.68-1.74,7.98-5.78,9.25-.69.22-1.42.33-2.13.21-.09-.01-.17-.03-.26-.05Z"/>
                <path class="cls-9" d="M186.34,118.57c-.21-1.74.84-3.25,1.57-4.75.4-.83.69-1.67.68-2.6-.01-.92-.17-1.83,0-2.74.18-.97.83-1.75,1.14-2.67.33-.97.26-2.02.09-3.01-.17-.96-.52-1.89-.58-2.87-.06-.98.33-1.81.85-2.61.5-.78.97-1.54,1.2-2.45.21-.86.25-1.77.09-2.64-.08-.43-.2-.86-.37-1.26-.17-.4-.37-.79-.54-1.19-.16-.39-.29-.8-.33-1.22-.04-.5.07-.99.18-1.47.19-.86.23-1.67-.04-2.52-.26-.79-.74-1.49-1.39-2.02-.58-.48-1.29-.86-1.69-1.52-.47-.77-.21-1.67-.37-2.51-.35-1.8-2.16-2.8-3.88-2.87-.97-.04-1.89.25-2.84.41-.44.08-.9.12-1.35.08-.46-.05-.89-.21-1.32-.39-.82-.35-1.7-.83-2.62-.58-.81.22-1.4.92-1.69,1.69-.18.5-.25,1.03-.29,1.56-.03.51,0,1.02-.08,1.52-.08.46-.26.86-.56,1.21-.3.35-.64.65-.86,1.06-.47.84-.54,1.84-.47,2.78.07.94.26,1.87.56,2.77.29.87.77,1.71,1.14,2.57.16.37.29.76.35,1.16.07.48,0,.95-.09,1.42-.11.5-.27,1-.29,1.52-.01.3.02.59.09.88.15.6.44,1.14.78,1.65.7,1.07,1.61,2.01,2.22,3.14.29.53.5,1.1.57,1.71.09.86-.19,1.67-.35,2.5-.08.44-.12.89.01,1.32.09.31.25.59.45.85.41.54.97.95,1.48,1.38.5.41,1,.85,1.34,1.42.36.6.45,1.29.49,1.97.04.66,0,1.37.27,1.99.15.33.38.6.69.79.42.25.91.35,1.35.56.63.32,1.09.98.83,1.7-.02.07-.09.17-.17.12-.08-.05-.04-.22-.02-.28.14-.37-.24-.77-.52-.97-.38-.27-.86-.37-1.28-.56-.69-.3-1.09-.84-1.25-1.57-.15-.69-.11-1.4-.18-2.09-.08-.71-.33-1.32-.81-1.85-.88-.97-2.23-1.61-2.78-2.85-.34-.78-.22-1.62-.03-2.42.18-.78.35-1.53.13-2.32-.65-2.45-3.38-3.93-3.56-6.56-.06-.95.36-1.82.4-2.75.05-.93-.46-1.78-.86-2.59-.1-.21-.2-.43-.3-.65-.8-.57-1.88-.69-2.78-.28-.26.12-.49.26-.78.26-.25,0-.49-.08-.72-.19-.47-.23-.92-.58-1.46-.62-.26-.02-.67.03-.89.2-.09.07-.29.49-.4.18-.15-.43.72-.74.98-.79.56-.1,1.03.13,1.51.4.24.14.49.28.77.35.31.07.57,0,.85-.15.48-.24,1-.36,1.54-.33.39.02.77.13,1.12.3-.48-1.33-.75-2.77-.67-4.17.05-.89.28-1.79.81-2.52.27-.38.66-.67.9-1.06.28-.46.25-1.02.26-1.53.02-.98.13-1.99.61-2.86.37-.67,1-1.25,1.76-1.42.92-.2,1.78.27,2.6.62.43.18.88.34,1.35.38.48.04.95-.03,1.42-.12.93-.18,1.84-.43,2.8-.37.92.06,1.83.35,2.56.92.62.49,1.09,1.17,1.29,1.93.22.83-.08,1.78.36,2.55.39.69,1.15,1.07,1.74,1.57.61.52,1.07,1.2,1.34,1.95.27.76.35,1.58.21,2.37-.09.51-.26,1.01-.29,1.53-.03.48.1.94.28,1.37.34.82.75,1.58.92,2.46.16.86.16,1.74,0,2.6-.16.88-.49,1.71-.97,2.47-.53.84-1.18,1.65-1.15,2.69.03,1,.41,1.97.58,2.96.16.96.22,1.96,0,2.92-.11.46-.3.89-.52,1.32-.23.45-.5.89-.64,1.37-.28.93-.06,1.92-.05,2.88,0,.89-.2,1.72-.56,2.52-.36.81-.82,1.57-1.19,2.38-.35.76-.6,1.56-.5,2.41.02.16-.2.45-.24.17Z"/>
                <path class="cls-3" d="M179.88,124.49c-.66-.22-1.23-.68-1.7-1.24-1.38-1.65-1.53-3.82-1.94-5.84-.23-1.13-.62-2.21-1.08-3.27-.45-1.05-.91-2.1-1.38-3.15-.02-.05-.04-.1-.07-.14-.74.05-1.46-.39-2.07-.79-.12-.08,0-.49.15-.4.51.33,1.11.7,1.72.75-.57-1.24-1.16-2.46-1.8-3.66-.23.19-.47.37-.75.5-.39.18-.81.21-1.23.13-.92-.18-1.68-.8-2.61-.98-.15-.03-.06-.46.1-.43.88.17,1.61.75,2.49.95.41.1.82.1,1.21-.07.23-.1.44-.24.64-.4-.29-.53-.59-1.05-.91-1.57-.43-.71-.93-1.38-1.37-2.08-1.08.31-2.16-.16-3.13-.61-.15-.07-.03-.48.1-.43.87.4,1.84.83,2.81.67-.09-.15-.17-.3-.25-.45-.49-.96-.77-2.02-1.07-3.05,0,0-.02,0-.03,0-.75-.11-1.46-.42-2.05-.89-.12-.09.02-.5.15-.4.52.41,1.14.69,1.79.82-.14-.39-.34-.83-.37-1.22-.04-.58.41-.14.53.15.16.4.31.8.47,1.19.2-.17.32-.4.41-.65.12-.35.22-.71.32-1.06.22-.73.43-1.47.37-2.24,0-.08.02-.24.11-.28.09-.04.13.03.13.11.07.89-.18,1.75-.43,2.59-.18.6-.31,1.39-.78,1.84.17.42.36.84.59,1.25.35.62.73,1.22,1.14,1.81.54-.46.98-1.03,1.3-1.67.17-.35.31-.71.39-1.09.1-.41.14-.84.36-1.21.04-.07.11-.12.17-.04.06.07.01.23-.03.3-.22.38-.23.85-.35,1.26-.11.39-.27.78-.46,1.14-.31.59-.72,1.11-1.21,1.56.12.17.23.34.35.5.72,1,1.47,1.98,2.18,2.99,1.09-.49,1.48-1.75,1.77-2.83.02-.06.07-.21.16-.19.09.02.08.18.06.24-.31,1.13-.72,2.46-1.78,3.08.4.59.79,1.19,1.15,1.81.38.66.74,1.35,1.06,2.04.51-.55.9-1.2,1.15-1.9.02-.06.09-.17.17-.12.08.05.04.21.02.28-.26.75-.67,1.44-1.2,2.02.1.23.2.46.3.69.37.9.69,1.82,1.02,2.73.11.3.22.61.34.91.93-.58,1.56-1.57,1.64-2.67,0-.07.05-.23.14-.24.09-.02.1.12.1.18-.08,1.22-.74,2.38-1.75,3.06.53,1.36,1.16,2.69,2.1,3.81.31.36.64.69,1.01,1,.2.17.41.33.61.49.14-.52.3-1.04.47-1.55.51-1.51,1.05-3,1.45-4.55.31-1.21.57-2.44.77-3.68-1.3-.17-2.09-1.56-3.19-2.17-.12-.07,0-.48.15-.4,1.05.59,1.85,1.98,3.1,2.14.03-.2.06-.41.09-.61.19-1.35.31-2.71.4-4.06-.68.18-1.41.17-2.07-.08-.99-.36-1.72-1.15-2.55-1.75-.47-.34-.98-.61-1.56-.69-.15-.02-.06-.45.1-.43,1,.14,1.77.82,2.52,1.43.4.32.8.64,1.26.87.46.23.96.34,1.47.34.29,0,.59-.04.87-.11.08-1.47.11-2.94.11-4.41-.92.16-1.88.07-2.75-.28-1.13-.45-2-1.35-3-2.02-.61-.4-1.25-.75-1.91-1.05-.15-.07-.03-.48.1-.43,1.13.51,2.17,1.16,3.14,1.93.47.37.95.75,1.5,1.01.51.24,1.05.39,1.61.45.44.05.89.03,1.32-.04,0-.12,0-.25,0-.37-.02-1.76-.05-3.54-.16-5.31-.91.28-1.9.04-2.79-.25-.63-.2-1.26-.42-1.83-.76-.6-.35-1.13-.83-1.67-1.26-.64-.52-1.29-1.05-1.93-1.57-.11-.09.02-.5.15-.4.54.44,1.08.88,1.62,1.32.53.43,1.05.89,1.61,1.28.56.39,1.19.64,1.83.86.53.18,1.07.35,1.63.44.45.07.91.07,1.34-.06-.09-1.26-.23-2.52-.45-3.76-.09-.51-.2-1.02-.32-1.52-.05.02-.1.04-.16.06-.25.08-.51.13-.78.15-.53.04-1.06-.02-1.57-.19-.51-.17-.99-.45-1.38-.82-.45-.42-.79-.95-1.25-1.36-.53-.47-1.17-.81-1.81-1.12-.15-.07-.03-.48.1-.43.5.24,1.01.5,1.46.83.46.33.82.75,1.19,1.18.35.41.72.77,1.19,1.03.44.24.93.39,1.42.44.29.03.58.03.87,0,.13-.02.26-.04.39-.07.05-.01.14-.03.23-.05-.44-1.74-1.03-3.45-1.49-5.19-.03.07-.08.12-.13.11-1.06-.1-1.94-.75-2.77-1.37-.12-.09.02-.5.15-.4.8.6,1.65,1.22,2.67,1.33-.1-.39-.2-.78-.28-1.17-.11-.53-.23-1.17-.06-1.71.07.04.07.14.07.22,0,.28.14.5.24.75.13.32.23.65.34.97.09.25.18.5.27.75.73-.31,1.32-.95,1.49-1.74.01-.07.07-.21.16-.19.09.02.07.18.06.24-.19.88-.78,1.64-1.58,2.04.11.3.21.6.32.89.47,1.31.93,2.62,1.35,3.95.02.05.03.11.05.16.01-.02.03-.03.05-.03,1.64-.55,1.87-2.46,2-3.93,0-.07.04-.23.14-.24.09-.02.1.12.1.18-.14,1.61-.44,3.73-2.17,4.39.56,1.81,1.04,3.64,1.37,5.5.65-.15,1.21-.6,1.58-1.15.57-.84.71-1.89.85-2.87.01-.07.04-.23.14-.24.09-.02.11.12.1.18-.16,1.11-.33,2.28-.97,3.23-.39.58-.96,1.06-1.63,1.24.12.76.22,1.53.28,2.3.1,1.16.13,2.32.15,3.48.23-.07.46-.14.68-.24.41-.18.61-.51.79-.9.38-.8.81-1.57,1.31-2.29.05-.08.13-.04.15.04.03.1-.01.22-.07.3-.28.39-.53.8-.76,1.22-.22.4-.4.81-.61,1.22-.18.35-.42.64-.78.81-.23.11-.47.19-.72.26,0,.32,0,.63.01.95.01,1.17.03,2.35.04,3.52,1.53-.17,2.6-1.5,3.26-2.81.04-.07.11-.12.17-.04.06.08,0,.23-.03.3-.69,1.37-1.81,2.76-3.39,2.97,0,.34,0,.68.01,1.01.01,1.37.03,2.73.04,4.1.8-.58,1.44-1.37,1.82-2.28.02-.06.09-.17.17-.12.07.05.04.21.02.28-.42,1.01-1.11,1.89-2,2.53,0,.15,0,.3,0,.45.02,1.61.04,3.23-.1,4.84-.09,1.03-.29,2.03-.51,3.04,1.21-1.05,1.77-3.03,2.22-4.56.21,3.24-.54,7.12-3.5,8.95-.98.61-2.11.97-3.26,1.09-.38.04-.75-.01-1.1-.13Z"/>
                <path class="cls-6" d="M180.33,124.73c.27,0,.55-.07.83-.11.26-.04.53-.07.79-.11.43-.06.84-.17,1.22-.39.36-.21.73-.47,1.04-.76.27-.26.51-.62.52-1,0-.18-.07-.3-.25-.33-.24-.04-.48-.06-.72-.09-.4-.05-.86-.16-1.24.04-.17.09-.31.22-.46.34-.18.14-.37.22-.58.27-.38.1-.8.16-1.1.44-.17.16-.29.39-.32.63,0,0,0,.02-.01.03-.14.31-.27,1.05.28,1.02ZM180.32,124.3c-.11-.03-.15-.09-.15-.17.08,0,.18-.24.15-.34-.12-.37.39-.56.67-.64.33-.09.68-.14.98-.33.24-.15.43-.4.72-.48.33-.1.72,0,1.06.04.18.02.37.04.55.07.03,0,.19,0,.2.03.02.02-.05.15-.06.17-.14.28-.4.48-.64.65-.27.2-.55.41-.86.55-.3.14-.62.2-.94.24-.36.05-.72.1-1.08.15-.17.02-.42.1-.59.06Z"/>
              </g>
              <path class="cls-8" d="M150.56,42.34c-1.68,3.64-.19,6.8,2.69,8.46,2.88,1.66,6.05,1.18,7.73-2.46,1.68-3.64,1.84-10.38-1.04-12.03-2.88-1.66-7.7,2.4-9.38,6.03Z"/>
              <path class="cls-8" d="M173.53,55.97c1.8,3.56,4.99,3.9,7.81,2.13,2.82-1.78,4.2-5.01,2.39-8.57-1.8-3.56-6.76-7.4-9.58-5.62-2.82,1.78-2.42,8.51-.62,12.07Z"/>
              <g>
                <path class="cls-8" d="M58.33,122.22c-.44-.38-.78-.85-.99-1.39-.05-.13-.1-.26-.15-.39h0c-1.23-3.38-1.78-7.22-1.63-11.4,0-.23.02-.47.04-.7.09-1.32.32-2.66.53-3.95.35-2.12.72-4.32.52-6.48-.13-1.36-.53-2.64-1.11-4.15-.1-.26-.2-.52-.3-.78-.42-1.07-.85-2.18-1.13-3.32-.37-1.47-.5-2.93-.39-4.32.27-3.58,2.02-6.4,4.81-7.73.04-.02.07-.03.11-.05l-.41-3.48,5.36-.63.41,3.48s.08.01.11.02c3.02.65,5.38,2.98,6.47,6.4.43,1.34.64,2.78.62,4.29-.01,1.2-.18,2.4-.34,3.56-.04.25-.07.51-.1.76-.17,1.29-.33,2.79-.11,4.29.31,2.15,1.17,4.2,2.01,6.18.51,1.21,1.04,2.46,1.44,3.72.07.22.14.44.2.67,1.12,4.04,1.48,7.9,1.06,11.47-.02.14-.04.28-.06.42-.08.57-.31,1.11-.64,1.58-.29.94-1.19,2.35-1.89,2.43l-1.55.18c-.54.06-1.06-.18-1.38-.63-.22.5-.69.87-1.26.94l-3.67.43c-.56.07-1.1-.18-1.44-.61-.21.5-.65.86-1.19.92l-1.55.18c-.7.08-1.91-1.08-2.4-1.93ZM63.67,122.51c.19.48.68.78,1.19.72l3.67-.43c.51-.06.92-.46.99-.97l.02-.17.44-.05.06.16c.18.48.64.78,1.12.72l1.55-.18c.42-.05,1.26-1.24,1.53-2.16l.03-.07c.31-.41.51-.9.58-1.41.02-.14.04-.27.05-.41.41-3.52.05-7.32-1.05-11.3-.06-.22-.12-.44-.19-.65-.39-1.24-.92-2.48-1.42-3.68-.85-2.01-1.72-4.08-2.04-6.29-.22-1.55-.06-3.09.11-4.41.03-.25.07-.51.1-.77.16-1.14.32-2.33.33-3.5.02-1.46-.19-2.86-.6-4.15-1.04-3.27-3.28-5.49-6.15-6.11-.08-.02-.16-.03-.24-.04l-.17-.02-.4-3.39-4.49.53.4,3.39-.16.06c-.08.03-.15.06-.23.09-2.64,1.26-4.31,3.95-4.56,7.37-.1,1.34.03,2.75.38,4.18.28,1.12.7,2.21,1.12,3.27.1.26.2.52.3.78.59,1.54,1.01,2.85,1.14,4.27.2,2.22-.17,4.44-.52,6.59-.21,1.28-.43,2.61-.53,3.91-.02.23-.03.45-.04.68-.15,4.13.39,7.91,1.61,11.24.05.13.1.26.15.38.19.47.5.9.89,1.24l.05.06c.47.83,1.57,1.79,1.99,1.74l1.55-.18c.47-.06.85-.45.92-.96l.02-.17.43-.05.06.16Z"/>
                <path class="cls-11" d="M58.37,76.06l5.5-.65-.02-1.2c-.02-.92-.75-1.64-1.57-1.54l-2.99.35c-.82.1-1.37.97-1.17,1.87l.26,1.18Z"/>
                <path class="cls-8" d="M58.46,76.31h5.54c.16,0,.29.13.29.29h0c0,.16-.13.29-.29.29h-5.54c-.16,0-.29-.13-.29-.29h0c0-.16.13-.29.29-.29Z" transform="translate(130.99 145.52) rotate(173.28)"/>
                <path class="cls-8" d="M73.87,106.23c-1.05-3.33-2.95-6.45-3.45-9.93-.21-1.46-.08-2.91.11-4.35l-14.79,1.74c.52,1.36.99,2.74,1.12,4.21.32,3.51-.8,6.98-1.05,10.46l18.06-2.13Z"/>
                <path class="cls-8" d="M56.67,81.49c.07-.13.5-.13.43,0-1.29,2.59-1.49,5.64-.55,8.37.04.13-.38.21-.43.05-.95-2.75-.74-5.83.56-8.43Z"/>
                <path class="cls-8" d="M66.19,79.56c1.14.79,1.94,2,2.22,3.36.03.15-.4.21-.43.05-.27-1.31-1.05-2.49-2.14-3.25-.16-.11.25-.24.36-.16Z"/>
              </g>
            </g>
          </g>
        </g>
        <path class="cls-15" d="M160.93,571.96H-22.18l.78-5.8L53.46,11.78h183.12l-.78,5.8-74.86,554.38ZM-10.47,561.73h162.46L224.87,22.02H62.41L-10.47,561.73Z"/>
        <g>
          <path class="cls-8" d="M193.46,98.45c-1.31-.4-2.87-.26-4,.53-17.41,12.24-34.62,24.75-51.63,37.54-17.01,12.79-33.81,25.85-50.4,39.17-9.36,7.51-18.64,15.11-27.86,22.79-1.03.86.21,1.78,1.05,2.04,1.22.37,2.97.32,4-.54,16.35-13.62,32.91-26.98,49.69-40.07,16.77-13.09,33.76-25.92,50.94-38.47,9.69-7.08,19.45-14.06,29.26-20.96,1.12-.79-.29-1.81-1.05-2.04Z"/>
          <path class="cls-8" d="M164.73,142c-1.22-.37-2.97-.32-4,.53-15.76,13.08-31.77,25.86-48.03,38.32-4.67,3.58-9.35,7.12-14.06,10.65-1.09.81.26,1.8,1.05,2.04,1.28.39,2.91.28,4-.54,16.4-12.28,32.56-24.87,48.46-37.77,4.56-3.7,9.11-7.44,13.63-11.19,1.03-.86-.21-1.78-1.05-2.04Z"/>
          <path class="cls-8" d="M172.4,227.22c-1.25-.38-2.94-.31-4,.53-17.5,13.87-35.03,27.69-52.6,41.46-17.57,13.77-35.17,27.5-52.81,41.19-9.93,7.7-19.87,15.39-29.82,23.06-1.07.83.25,1.79,1.05,2.04,1.26.39,2.92.3,4-.53,17.68-13.63,35.32-27.31,52.93-41.03,17.61-13.72,35.18-27.49,52.72-41.31,9.87-7.77,19.73-15.56,29.57-23.37,1.06-.84-.23-1.79-1.05-2.04Z"/>
          <path class="cls-8" d="M123.8,289.47c-1.05-.59-3.08-.68-4.13,0-9.03,5.87-18.05,11.74-27.07,17.6-.97.63-1.1,1.5,0,2.11,1.05.59,3.08.68,4.13,0,9.02-5.87,18.05-11.74,27.08-17.6.97-.63,1.1-1.5,0-2.11Z"/>
          <path class="cls-8" d="M142.46,351.96c-1.22-.37-2.98-.33-4,.53-14.96,12.59-29.91,25.18-44.87,37.76-14.96,12.59-29.91,25.18-44.87,37.76-8.48,7.14-16.96,14.28-25.45,21.42-1.02.86.2,1.78,1.05,2.04,1.22.37,2.98.33,4-.54,14.96-12.59,29.91-25.18,44.87-37.76,14.96-12.59,29.91-25.18,44.87-37.76,8.48-7.14,16.96-14.28,25.45-21.42,1.02-.86-.2-1.78-1.05-2.04Z"/>
          <path class="cls-8" d="M146.43,28.23c-1.06-.59-3.07-.68-4.13,0-17.85,11.42-35.42,23.26-52.7,35.53-4.94,3.51-9.85,7.05-14.74,10.62-1.1.8.27,1.8,1.05,2.04,1.29.4,2.89.28,4-.53,16.88-12.35,34.06-24.3,51.52-35.81,4.98-3.28,9.98-6.53,15-9.74.98-.63,1.09-1.5,0-2.11Z"/>
        </g>
      </g>
    </g>
  </g>
</svg>