<?xml version="1.0" encoding="UTF-8"?>
<svg id="_圖層_2" data-name="圖層 2" xmlns="http://www.w3.org/2000/svg" viewBox="0 0 33.79 140.49">
  <defs>
    <style>
      .cls-1 {
        fill: #fff;
      }

      .cls-2 {
        opacity: .9;
      }
    </style>
  </defs>
  <g id="_圖層_1-2" data-name="圖層 1">
    <g class="cls-2">
      <path class="cls-1" d="M17.48,0c1.03,0,1.87.84,1.87,1.87v1.87c0,1.04-.84,1.87-1.87,1.87s-1.87-.84-1.87-1.87v-1.87c0-1.03.84-1.87,1.87-1.87ZM17.48,11.24c1.03,0,1.87.84,1.87,1.87v1.87c0,1.04-.84,1.87-1.87,1.87s-1.87-.84-1.87-1.87v-1.87c0-1.03.84-1.87,1.87-1.87ZM17.48,22.48c1.03,0,1.87.84,1.87,1.87v1.87c0,1.04-.84,1.87-1.87,1.87s-1.87-.84-1.87-1.87v-1.87c0-1.03.84-1.87,1.87-1.87ZM17.48,33.72c1.03,0,1.87.84,1.87,1.87v1.87c0,1.04-.84,1.87-1.87,1.87s-1.87-.84-1.87-1.87v-1.87c0-1.03.84-1.87,1.87-1.87ZM17.48,44.96c1.03,0,1.87.84,1.87,1.87v1.87c0,1.04-.84,1.87-1.87,1.87s-1.87-.84-1.87-1.87v-1.87c0-1.03.84-1.87,1.87-1.87ZM17.48,56.2c1.03,0,1.87.84,1.87,1.87v1.87c0,1.04-.84,1.87-1.87,1.87s-1.87-.84-1.87-1.87v-1.87c0-1.03.84-1.87,1.87-1.87ZM17.48,67.44c1.03,0,1.87.84,1.87,1.87v1.87c0,1.04-.84,1.87-1.87,1.87s-1.87-.84-1.87-1.87v-1.87c0-1.03.84-1.87,1.87-1.87ZM17.48,78.68c1.03,0,1.87.84,1.87,1.87v1.87c0,1.04-.84,1.87-1.87,1.87s-1.87-.84-1.87-1.87v-1.87c0-1.03.84-1.87,1.87-1.87ZM17.48,89.91c1.03,0,1.87.84,1.87,1.87v1.87c0,1.04-.84,1.87-1.87,1.87s-1.87-.84-1.87-1.87v-1.87c0-1.03.84-1.87,1.87-1.87ZM17.48,101.15c1.03,0,1.87.84,1.87,1.87v1.87c0,1.04-.84,1.87-1.87,1.87s-1.87-.84-1.87-1.87v-1.87c0-1.03.84-1.87,1.87-1.87ZM17.48,112.39c1.03,0,1.87.84,1.87,1.87v1.87c0,1.04-.84,1.87-1.87,1.87s-1.87-.84-1.87-1.87v-1.87c0-1.03.84-1.87,1.87-1.87ZM17.48,123.63c1.03,0,1.87.84,1.87,1.87v1.87c0,1.04-.84,1.87-1.87,1.87s-1.87-.84-1.87-1.87v-1.87c0-1.03.84-1.87,1.87-1.87ZM17.48,134.87c1.03,0,1.87.84,1.87,1.87v1.87c0,1.04-.84,1.87-1.87,1.87s-1.87-.84-1.87-1.87v-1.87c0-1.03.84-1.87,1.87-1.87Z"/>
      <path class="cls-1" d="M1.87,56.2c1.03,0,1.87.84,1.87,1.87v1.87c0,1.04-.84,1.87-1.87,1.87s-1.87-.84-1.87-1.87v-1.87c0-1.03.84-1.87,1.87-1.87ZM1.87,67.44c1.03,0,1.87.84,1.87,1.87v1.87c0,1.04-.84,1.87-1.87,1.87s-1.87-.84-1.87-1.87v-1.87c0-1.03.84-1.87,1.87-1.87ZM1.87,78.68c1.03,0,1.87.84,1.87,1.87v1.87c0,1.04-.84,1.87-1.87,1.87s-1.87-.84-1.87-1.87v-1.87c0-1.03.84-1.87,1.87-1.87ZM1.87,89.91c1.03,0,1.87.84,1.87,1.87v1.87c0,1.04-.84,1.87-1.87,1.87s-1.87-.84-1.87-1.87v-1.87c0-1.03.84-1.87,1.87-1.87ZM1.87,101.15c1.03,0,1.87.84,1.87,1.87v1.87c0,1.04-.84,1.87-1.87,1.87s-1.87-.84-1.87-1.87v-1.87c0-1.03.84-1.87,1.87-1.87ZM1.87,112.39c1.03,0,1.87.84,1.87,1.87v1.87c0,1.04-.84,1.87-1.87,1.87s-1.87-.84-1.87-1.87v-1.87c0-1.03.84-1.87,1.87-1.87ZM1.87,123.63c1.03,0,1.87.84,1.87,1.87v1.87c0,1.04-.84,1.87-1.87,1.87s-1.87-.84-1.87-1.87v-1.87c0-1.03.84-1.87,1.87-1.87ZM1.87,134.87c1.03,0,1.87.84,1.87,1.87v1.87c0,1.04-.84,1.87-1.87,1.87s-1.87-.84-1.87-1.87v-1.87c0-1.03.84-1.87,1.87-1.87Z"/>
      <path class="cls-1" d="M31.92,33.72c1.03,0,1.87.84,1.87,1.87v1.87c0,1.04-.84,1.87-1.87,1.87s-1.87-.84-1.87-1.87v-1.87c0-1.03.84-1.87,1.87-1.87ZM31.92,44.96c1.03,0,1.87.84,1.87,1.87v1.87c0,1.04-.84,1.87-1.87,1.87s-1.87-.84-1.87-1.87v-1.87c0-1.03.84-1.87,1.87-1.87ZM31.92,56.2c1.03,0,1.87.84,1.87,1.87v1.87c0,1.04-.84,1.87-1.87,1.87s-1.87-.84-1.87-1.87v-1.87c0-1.03.84-1.87,1.87-1.87ZM31.92,67.44c1.03,0,1.87.84,1.87,1.87v1.87c0,1.04-.84,1.87-1.87,1.87s-1.87-.84-1.87-1.87v-1.87c0-1.03.84-1.87,1.87-1.87ZM31.92,78.68c1.03,0,1.87.84,1.87,1.87v1.87c0,1.04-.84,1.87-1.87,1.87s-1.87-.84-1.87-1.87v-1.87c0-1.03.84-1.87,1.87-1.87ZM31.92,89.91c1.03,0,1.87.84,1.87,1.87v1.87c0,1.04-.84,1.87-1.87,1.87s-1.87-.84-1.87-1.87v-1.87c0-1.03.84-1.87,1.87-1.87ZM31.92,101.15c1.03,0,1.87.84,1.87,1.87v1.87c0,1.04-.84,1.87-1.87,1.87s-1.87-.84-1.87-1.87v-1.87c0-1.03.84-1.87,1.87-1.87ZM31.92,112.39c1.03,0,1.87.84,1.87,1.87v1.87c0,1.04-.84,1.87-1.87,1.87s-1.87-.84-1.87-1.87v-1.87c0-1.03.84-1.87,1.87-1.87ZM31.92,123.63c1.03,0,1.87.84,1.87,1.87v1.87c0,1.04-.84,1.87-1.87,1.87s-1.87-.84-1.87-1.87v-1.87c0-1.03.84-1.87,1.87-1.87ZM31.92,134.87c1.03,0,1.87.84,1.87,1.87v1.87c0,1.04-.84,1.87-1.87,1.87s-1.87-.84-1.87-1.87v-1.87c0-1.03.84-1.87,1.87-1.87Z"/>
    </g>
  </g>
</svg>