<?xml version="1.0" encoding="UTF-8"?>
<svg xmlns="http://www.w3.org/2000/svg" viewBox="0 0 654.98 327.65">
  <defs>
    <style>
      .cls-1 {
        fill: #dca07a;
      }

      .cls-2 {
        isolation: isolate;
      }

      .cls-3 {
        fill: #fff;
      }

      .cls-4 {
        fill: #0f0f0f;
        mix-blend-mode: soft-light;
        opacity: .46;
      }

      .cls-5 {
        fill: #5e5748;
      }

      .cls-6 {
        fill: #bf774f;
      }

      .cls-7 {
        fill: #f38b2f;
      }

      .cls-8 {
        fill: #fca768;
      }
    </style>
  </defs>
  <g class="cls-2">
    <g id="_圖層_2" data-name="圖層 2">
      <g id="_圖層_1-2" data-name="圖層 1">
        <g>
          <g>
            <path class="cls-3" d="M226.72,94.82c0,19.7-4.83,34.68-14.5,44.93-9.67,10.25-23.81,15.38-42.45,15.38s-32.45-5.15-42.25-15.46c-9.8-10.3-14.7-25.31-14.7-45.01s4.87-34.37,14.62-44.65c9.74-10.28,23.91-15.42,42.49-15.42s32.76,5.1,42.37,15.3c9.61,10.2,14.42,25.18,14.42,44.93ZM146.15,94.82c0,22.64,7.88,33.96,23.63,33.96,8.01,0,13.95-2.75,17.82-8.25,3.87-5.5,5.81-14.07,5.81-25.71s-1.96-20.33-5.89-25.91c-3.92-5.58-9.78-8.37-17.58-8.37-15.86,0-23.79,11.43-23.79,34.28Z"/>
            <path class="cls-3" d="M313.61,36.44h35.4l-38.36,117.09h-37.24l-38.2-117.09h35.56l15.94,59.35c3.31,13.19,5.13,22.37,5.45,27.55.37-3.74,1.12-8.41,2.24-14.02,1.12-5.61,2.11-10.01,2.96-13.21l16.26-59.67Z"/>
            <path class="cls-3" d="M431.19,153.53h-69.52V36.44h69.52v25.39h-37.88v18.42h35.08v25.39h-35.08v22.1h37.88v25.79Z"/>
            <path class="cls-3" d="M483.32,110.92v42.61h-31.63V36.44h38.36c31.82,0,47.73,11.53,47.73,34.6,0,13.56-6.62,24.05-19.86,31.48l34.12,51.02h-35.88l-24.83-42.61h-8.01ZM483.32,87.14h5.93c11.05,0,16.58-4.89,16.58-14.66,0-8.06-5.42-12.09-16.26-12.09h-6.25v26.75Z"/>
          </g>
          <g>
            <path class="cls-3" d="M136.63,321.56h-37.4l-11.21-51.02c-.54-2.14-1.38-6.38-2.52-12.73-1.15-6.35-1.99-11.67-2.52-15.94-.43,3.47-1.12,7.78-2.08,12.93-.96,5.15-1.91,9.89-2.84,14.22-.93,4.33-4.82,21.84-11.65,52.54H28.99L0,204.46h30.51l12.73,58.71c2.88,12.97,4.86,23.31,5.93,31,.69-5.45,1.93-12.84,3.72-22.19,1.79-9.34,3.46-17.09,5-23.23l10.33-44.29h29.31l10.01,44.29c1.71,7.1,3.44,15.3,5.21,24.59,1.76,9.29,2.94,16.23,3.52,20.82.69-5.93,2.59-16.2,5.69-30.83l12.97-58.87h30.51l-28.83,117.09Z"/>
            <path class="cls-3" d="M250.12,321.56h-69.52v-117.09h69.52v25.39h-37.88v18.42h35.08v25.39h-35.08v22.1h37.88v25.79Z"/>
            <path class="cls-3" d="M270.62,321.56v-117.09h31.8v117.09h-31.8Z"/>
            <path class="cls-3" d="M374.74,253h50.54v63.11c-13.72,4.7-28.81,7.05-45.25,7.05-18.05,0-32-5.23-41.85-15.7-9.85-10.46-14.78-25.39-14.78-44.77s5.39-33.61,16.18-44.13c10.78-10.52,25.9-15.78,45.33-15.78,7.37,0,14.32.69,20.86,2.08,6.54,1.39,12.24,3.15,17.1,5.29l-10.01,24.83c-8.44-4.16-17.7-6.25-27.79-6.25-9.24,0-16.38,3-21.42,9.01-5.05,6.01-7.57,14.59-7.57,25.75s2.28,19.29,6.85,25.03c4.56,5.74,11.14,8.61,19.74,8.61,4.7,0,9.02-.45,12.97-1.36v-18.34h-20.9v-24.43Z"/>
            <path class="cls-3" d="M549.5,321.56h-31.8v-47.73h-36.76v47.73h-31.79v-117.09h31.79v43.41h36.76v-43.41h31.8v117.09Z"/>
            <path class="cls-3" d="M626.46,321.56h-31.63v-91.22h-28.59v-25.87h88.74v25.87h-28.51v91.22Z"/>
          </g>
          <g>
            <g>
              <path class="cls-5" d="M293.15,69.48c-1.53-1.42-3.28-2.4-5.04-2.91-1.16-.34-2.71-.88-4.39-1.49-1.38-.5-2.86-1.06-4.26-1.6-3.62-1.38-6.77-2.66-6.77-2.66l-21.17-3.02s-6.06,1.33-11.94,2.74c-1.32.32-2.63.63-3.86.95-2.64.66-4.92,1.28-6.12,1.7-.74.26-1.94,1.52-3.45,3.54-.49-.75-.8-1.6-.89-2.49-.2-1.94.67-3.95,2.22-5.13.9-.68,2.01-1.11,2.69-2.01,1.49-1.99.04-5.01,1.11-7.26,1.24-2.6,5.08-2.77,6.87-5.04,1.29-1.64,1.19-3.94.94-6-.26-2.07-.59-4.28.35-6.14,1.26-2.46,4.41-3.53,5.59-6.04.93-1.96,1.19-9.87,7.03-11.22v-.04c4.16-4.15,10.68-5.77,16.31-4.04,5.62,1.73,10.11,6.73,11.21,12.52.2,1.01.3,2.07.43,3.11.23,1.69.53,3.34,1.43,4.76.53.84,1.26,1.56,1.95,2.3.88.94,1.7,1.91,1.96,3.16.58,2.81-2,5.75-.88,8.39.85,2.02,3.57,2.92,4.03,5.07.47,2.13-1.63,4.36-.8,6.39.67,1.65,2.96,2.18,3.64,3.83.5,1.2-.03,2.58.1,3.88.15,1.43,1.11,2.64,1.55,4,.08.24.13.49.16.75Z"/>
              <path class="cls-6" d="M253.9,49.86c2.11,2.69,5.04,5.13,8.82,5.25.11.01.21.01.32.01h0c.1,0,.21,0,.32-.01,3.04-.1,5.53-1.69,7.48-3.7l.49,2.51c-8.96,10.18-19.81,3.88-19.81,3.88l2.37-7.94Z"/>
              <path class="cls-1" d="M276.76,37c-.11,1.22-.26,2.75-.37,3.89-.06.54-.15,1.08-.28,1.6,0,.02-.01.03-.01.05h.25s-1.88,11.22-11.8,12.45c-.29.04-.6.07-.9.09-.1,0-.2.03-.3.03-.1.01-.21.01-.31.01h-.01c-.11,0-.2,0-.31-.01-11.17,0-12.66-11.74-12.74-12.47-.01-.03-.01-.04-.01-.04-.15-.56-.25-1.14-.31-1.72-.15-1.33-.26-2.72-.36-3.9-.03-.55-.06-1.06-.09-1.51,0-.05.02-.12.03-.22,0,0,1.84-16.52,14.33-16.52,12.49,0,13.57,14.38,13.19,18.27Z"/>
              <path class="cls-8" d="M296.92,157.59c-18.34-.53-33.69,21.02-33.69,21.02-8.86-20.03-39.23-26.65-39.23-26.65.58-2.64,1.32-5.12,2.13-7.41h0c.49.4,30.19,23.62,67.89,1.94h0c.72,2.41,1.43,4.97,2.1,7.63.29,1.15.55,2.31.79,3.47Z"/>
              <path class="cls-8" d="M229.52,98.75c.13-5.78,2.43-12.4,4.01-18.02,1.99-7.1,2.19-18.91,2.19-19.24,1.23-.32,2.54-.63,3.86-.95,0,0-3.03,29.92,22.37,29.92s17.5-26.97,17.5-26.97c1.4.54,2.88,1.09,4.26,1.6,0,0,8.47,20.76,8.93,30.52.46,9.75-4.47,17.09-4.47,17.09,0,0-.23,2-.55,4.73-24.42-11.6-53.83,0-53.83,0h0c-.05-2.87-.07-5.04-.07-5.04,0,0-2.02-2.37-3.73-8.97-.38-1.46-.52-3.03-.48-4.66Z"/>
              <path class="cls-1" d="M293.15,69.48c2.5,2.3,4.43,5.75,4.94,10.25.83,7.26,3.78,48.24,3.78,48.24,0,0,.83,31.53,0,37.95,0,0,.94,10.82.37,14.08-.57,3.26-4.3,9.71-4.3,9.71l-.12-.02c1.13-10.49,1.2-21.64-.9-32.1-.23-1.16-.49-2.32-.78-3.47-.67-2.65-1.38-5.21-2.1-7.63-3.6-12.09-7.4-20.65-7.4-20.65.34-2.79.71-5.92,1-8.42.32-2.74.55-4.73.55-4.73,0,0,4.92-7.33,4.47-17.09-.45-9.76-8.93-30.52-8.93-30.52,1.67.61,3.23,1.14,4.39,1.49,1.76.51,3.5,1.49,5.04,2.91Z"/>
              <path class="cls-1" d="M296.92,157.59c2.11,10.46,2.03,21.6.9,32.1-2.67,24.62-11.18,45.63-11.18,45.63,0,0,3.68,22.3,1.03,35.69-2.64,13.38-7.26,22.75-8.32,32.21-1.05,9.45,2.87,17.14,1.06,20.73-1.48,2.93-12.47,1.77-17.66-1.13.47-1.15.56-2.37.42-3.43-.2-1.44-1.09-4-2.07-7.05,1.63-3.63,5.18-11,5.24-13.82.08-3.7-3.25-55.15-3.25-55.15.09-.81.14-1.25.14-1.25,0,0,1.95-47.63,0-63.51,0,0,15.34-21.56,33.68-21.02Z"/>
              <path class="cls-1" d="M294.03,146.49c-1.58.91-3.15,1.74-4.7,2.49,0,0-9.78,11.97-24.07,11.97s-26.81-9.67-26.81-9.67c-7.62-3.05-12.13-6.58-12.32-6.73,3.42-9.61,8.2-15.83,8.2-15.83-.31-2.88-.46-7.66-.53-11.3,0,0,13.08-5.16,29.03-5.16,7.97,0,16.66,1.29,24.8,5.16-.28,2.5-.66,5.64-1,8.42,0,0,3.8,8.56,7.4,20.65Z"/>
              <path class="cls-1" d="M279.46,33.59c.66.24,1.08,1.2,1.03,3.35-.05,2.77-1.78,4.94-2.51,5.46-.72.51-1.63.14-1.63.14l-.24-.05c.13-.52.22-1.06.28-1.6.11-1.14.27-2.67.38-3.89.57-.98,1.05-2.03,1.41-3.13.21-.17.43-.29.66-.33.23-.04.44-.03.63.05Z"/>
              <path class="cls-1" d="M279.46,63.48s7.9,26.97-17.5,26.97-22.37-29.92-22.37-29.92c5.88-1.41,11.94-2.74,11.94-2.74,0,0,10.85,6.29,19.81-3.88l1.36,6.91s3.14,1.27,6.77,2.66Z"/>
              <path class="cls-1" d="M262.75,322.81c-1.01,2.49-3.74,4.73-9.56,4.73-8.55,0-12.33-3.76-11.04-5.78,1.28-2.02,3.17-13.71,3.17-13.71,0,0-10.81-45.28-11.19-53.38-.38-8.09,3.33-19.73,3.33-19.73-7.03-15-11.21-36.25-13.23-48.84-1.02-6.38-1.49-10.54-1.49-10.54,1.4,1.7,2.83,3.46,3.15,3.96.68,1.06,4.41.72,2.04-5.06-2.36-5.79-3.73-7.3-3.73-7.3,0,0,1.97-4.52-1.3-7.91.2-2.53.59-4.96,1.09-7.28,0,0,30.37,6.61,39.23,26.65,1.95,15.88,0,63.51,0,63.51,0,0-.05.44-.14,1.25-.84,7.73-5.25,49.06-4.92,55.9.22,4.27,1.64,9.08,2.92,13.06.98,3.05,1.88,5.61,2.07,7.05.14,1.06.05,2.27-.42,3.43Z"/>
              <path class="cls-1" d="M245.96,34.25h0c.3-.61.75-.8,1.3-.71.22.04.45.16.65.33.72.58,1.28,1.69,1.28,1.69,0,0,0-.03.01-.09,0-.05.02-.13.04-.22-.01.1-.03.17-.03.22.03.45.07.96.1,1.51.09,1.19.21,2.57.35,3.9.06.58.16,1.16.32,1.72-.47.08-1.35.16-1.88-.2-.72-.52-2.46-2.69-2.51-5.46-.02-1.28.12-2.15.37-2.69Z"/>
              <path class="cls-1" d="M222.74,175.55s.47,4.16,1.49,10.54h0s-2.45-.87-3.32-2.57c-.87-1.7-5.22-5.14-5.22-5.14l-.23-1.06c-.23-1.06-.12-6.63-.58-10-.45-3.38-12.75-38.91-13.71-42.44-.96-3.52-.8-5.24-.8-5.24,4.54-16.75,18.62-43.34,25.78-52.92,1.51-2.01,2.71-3.27,3.45-3.54,1.21-.42,3.48-1.04,6.12-1.7,0,.33-.2,12.14-2.19,19.24-1.58,5.62-3.88,12.24-4.01,18.02l-12.73,23.51,4.15,35.49c.8.46,1.45.96,1.96,1.5,3.27,3.39,1.3,7.91,1.3,7.91,0,0,1.37,1.51,3.73,7.3,2.37,5.78-1.36,6.12-2.04,5.06-.32-.5-1.75-2.26-3.15-3.96Z"/>
              <polygon points="245.72 33.31 245.72 33.3 246.72 33.3 245.72 33.31"/>
              <path class="cls-6" d="M248.97,40.87c-.22,0-.42-.14-.48-.36-.44-1.58-1.1-3.09-1.96-4.49-.14-.24-.07-.54.17-.69.23-.14.54-.07.69.17.9,1.48,1.6,3.07,2.07,4.74.07.27-.08.54-.35.62-.05.01-.09.02-.14.02Z"/>
              <path class="cls-6" d="M277.25,40.65s-.08,0-.12-.01c-.27-.07-.43-.33-.37-.6.42-1.73,1.1-3.37,2.03-4.89.14-.24.45-.31.69-.17.23.14.31.45.17.69-.87,1.43-1.51,2.97-1.91,4.6-.06.23-.26.38-.49.38Z"/>
              <path class="cls-6" d="M297.82,190.19s-.04,0-.05,0c-.27-.03-.48-.27-.45-.55,1.86-17.86-.71-31.23-3.77-43.02-2.84-10.92-7.32-20.47-7.36-20.57-.04-.09-.06-.18-.04-.27l1-8.42c.03-.27.3-.47.55-.44.27.03.47.28.44.56l-.98,8.28c.55,1.19,4.69,10.29,7.37,20.61,3.08,11.88,5.68,25.35,3.8,43.37-.03.26-.24.45-.5.45Z"/>
              <path class="cls-6" d="M263.09,243.87s-.06,0-.09,0c-.27-.05-.45-.31-.41-.58,3.65-20.93.17-64.2.13-64.63-.02-.27.18-.52.46-.54.27-.01.52.18.54.46.04.44,3.53,43.83-.14,64.89-.04.24-.25.41-.49.41Z"/>
              <path class="cls-6" d="M254.58,239.82c-1.18,0-2.37-.2-3.5-.59-2.3-.8-4.27-2.39-5.54-4.47-.14-.23-.07-.54.17-.69.23-.14.54-.07.69.17,1.14,1.85,2.96,3.33,5.02,4.05,2.05.72,4.4.7,6.45-.04.26-.09.55.04.64.3.1.26-.04.55-.3.64-1.17.42-2.39.64-3.62.64Z"/>
              <path class="cls-6" d="M274.57,239.83c-2.24,0-4.45-.7-6.28-1.99-.23-.16-.28-.47-.12-.7.16-.23.48-.28.7-.12,1.83,1.29,4.07,1.93,6.32,1.79,2.24-.14,4.39-1.05,6.04-2.56.2-.19.52-.17.71.03.19.2.17.52-.03.71-1.83,1.66-4.19,2.66-6.65,2.82-.22.01-.45.02-.67.02Z"/>
              <path class="cls-6" d="M262.46,323.13s-.07,0-.11-.01c-.27-.06-.44-.33-.38-.6.76-3.34.26-6.98-1.38-9.99-.13-.24-.04-.55.2-.68.24-.13.55-.04.68.2,1.75,3.22,2.29,7.11,1.48,10.69-.05.23-.26.39-.49.39Z"/>
              <path class="cls-6" d="M257.09,327.42c-.16,0-.31-.08-.41-.22-1.2-1.73-1.56-3.98-.97-6,.08-.26.35-.42.62-.34.27.08.42.35.34.62-.5,1.71-.18,3.68.83,5.15.16.23.1.54-.13.7-.09.06-.18.09-.28.09Z"/>
              <path class="cls-6" d="M252.09,327.65c-.22,0-.42-.14-.48-.37-.35-1.26-.43-2.6-.24-3.89.04-.27.3-.46.57-.42.27.04.46.3.42.57-.17,1.15-.1,2.35.21,3.47.07.27-.08.54-.35.61-.05.01-.09.02-.13.02Z"/>
              <path class="cls-6" d="M248.62,327.4c-.26,0-.48-.2-.5-.47-.07-1.25.1-2.54.51-3.72.09-.26.38-.4.64-.31.26.09.4.38.31.64-.37,1.06-.53,2.21-.46,3.33.02.27-.19.51-.47.53,0,0-.02,0-.03,0Z"/>
              <path class="cls-6" d="M244.76,325.88s-.02,0-.02,0c-.27-.01-.49-.25-.47-.52.05-1.09.25-2.17.58-3.2.08-.26.36-.41.63-.32.26.08.41.36.32.63-.3.95-.48,1.95-.54,2.95-.01.27-.23.47-.5.47Z"/>
              <path class="cls-6" d="M266.54,324.62c-.06,0-.12-.01-.18-.03-.26-.1-.39-.39-.29-.64.32-.84.52-1.72.59-2.61.08-.9-.07-1.52-.44-1.85-.2-.18-.22-.5-.04-.71.18-.21.5-.22.71-.04.61.55.87,1.45.76,2.68-.09.98-.31,1.95-.65,2.88-.08.2-.27.32-.47.32Z"/>
              <path class="cls-6" d="M270.37,325.56c-.08,0-.16-.02-.23-.06-.24-.13-.34-.43-.21-.67.53-1.02.67-2.25.38-3.36-.07-.27.09-.54.36-.61.27-.07.54.09.61.36.35,1.35.18,2.84-.46,4.07-.09.17-.26.27-.44.27Z"/>
              <path class="cls-6" d="M273.88,325.82c-.06,0-.13-.01-.19-.04-.26-.1-.38-.4-.27-.65.38-.92.47-1.95.26-2.92-.06-.27.11-.54.38-.6.27-.06.54.11.6.38.25,1.16.14,2.41-.31,3.51-.08.19-.27.31-.46.31Z"/>
              <path class="cls-6" d="M278.03,325.23c-.06,0-.11,0-.17-.03-.26-.09-.4-.38-.31-.64.26-.74.28-1.56.05-2.31-.08-.26.07-.54.33-.62.27-.08.54.07.62.33.29.95.27,1.99-.06,2.93-.07.21-.27.33-.47.33Z"/>
              <path class="cls-6" d="M275.53,302.16c-.06,0-.12-.01-.18-.04-1.65-.66-3.39-1.12-5.15-1.37-.27-.04-.46-.29-.42-.57.04-.27.3-.46.57-.42,1.84.26,3.65.74,5.37,1.43.26.1.38.39.28.65-.08.2-.27.32-.46.32Z"/>
              <path class="cls-6" d="M247.76,305.65c-.19,0-.38-.11-.46-.3-.11-.25,0-.55.26-.66,1.42-.61,2.9-1.08,4.42-1.37.26-.05.53.12.59.4.05.27-.12.53-.4.59-1.44.28-2.86.72-4.21,1.31-.06.03-.13.04-.2.04Z"/>
              <path class="cls-6" d="M263.11,140.43c-.11,0-.22-.04-.31-.11-.22-.17-.25-.49-.08-.7l1.69-2.13c.17-.22.49-.25.7-.08.22.17.25.49.08.7l-1.69,2.13c-.1.12-.24.19-.39.19Z"/>
              <path class="cls-6" d="M227.31,180.66c-.07,0-.12,0-.17-.02-.36-.07-.58-.35-.7-.5l-6.86-8.68c-.17-.22-.13-.53.08-.7.22-.17.53-.13.7.08l6.86,8.68s.08.11.12.14c0-.02.05-.07.13-.18.79-1.12.9-2.76.29-4.4-.52-1.39-1.45-2.65-2.35-3.85l-.24-.32c-.7-.94-1.34-1.88-1.52-3.01-.11-.74-.01-1.45.08-2.15.04-.28.08-.56.11-.85.18-2.17-.69-4.44-2.28-5.93-.2-.19-.21-.51-.02-.71.19-.2.51-.21.71-.02,1.81,1.69,2.8,4.28,2.6,6.75-.02.3-.07.6-.11.9-.09.65-.18,1.26-.09,1.85.14.91.71,1.74,1.33,2.57l.24.32c.94,1.27,1.92,2.58,2.48,4.1.72,1.95.57,3.94-.41,5.32-.35.5-.72.61-.97.61ZM227.35,179.67h.01-.01Z"/>
              <path class="cls-6" d="M225.75,193.43c-.22,0-.43-.15-.48-.38-1.55-6-2.73-12.16-3.5-18.32-.03-.27.16-.52.43-.56.27-.04.52.16.56.43.76,6.11,1.93,12.23,3.48,18.19.07.27-.09.54-.36.61-.04.01-.09.02-.13.02Z"/>
              <path class="cls-6" d="M222.93,179.94c-.12,0-.24-.04-.34-.13l-2.62-2.42c-.2-.19-.22-.5-.03-.71.19-.2.5-.22.71-.03l2.62,2.42c.2.19.22.5.03.71-.1.11-.23.16-.37.16Z"/>
              <g>
                <path class="cls-5" d="M269.74,29.78c-.02.52-.78.91-1.71.88-.93-.03-1.66-.48-1.64-1,.02-.52.78-.91,1.71-.88.92.03,1.66.48,1.64,1Z"/>
                <path class="cls-5" d="M259.07,29.47c.09.52-.57,1.05-1.48,1.2-.91.15-1.72-.15-1.81-.67-.09-.51.57-1.05,1.48-1.2.91-.15,1.72.15,1.81.67Z"/>
                <path class="cls-4" d="M274.59,40.84c.07,1.7-1.26,3.14-2.96,3.2-1.7.07-3.14-1.26-3.2-2.96-.07-1.7,1.26-3.14,2.96-3.2,1.7-.07,3.14,1.26,3.2,2.96Z"/>
                <path class="cls-4" d="M258.18,40.84c.07,1.7-1.26,3.14-2.96,3.2-1.7.07-3.14-1.26-3.2-2.96-.07-1.7,1.26-3.14,2.96-3.2,1.7-.07,3.14,1.26,3.2,2.96Z"/>
                <path class="cls-5" d="M266.57,41.32c-.58,3.83-6.05,3.97-7.18.38.63.47,1.21.88,1.83,1.16,1.93.9,4.06.11,5.35-1.53h0Z"/>
                <path class="cls-5" d="M257.26,34.93c-.02.64.27,1.16.64,1.17.37,0,.68-.5.7-1.13.02-.64-.27-1.16-.64-1.17-.37-.01-.68.5-.7,1.13Z"/>
                <path class="cls-5" d="M266.7,34.89c-.02.64.27,1.16.64,1.17.37.01.68-.5.7-1.13.02-.64-.27-1.16-.64-1.17s-.68.5-.7,1.13Z"/>
                <path class="cls-5" d="M263.09,34.7c.09,1.61-.26,3.12-.79,4.61,0,0-.34-.53-.34-.53.74.2,1.48.42,2.19.79-.94.14-1.83.08-2.75.02.26-1.73.72-3.41,1.69-4.9h0Z"/>
              </g>
            </g>
            <g>
              <path class="cls-1" d="M424.6,154.25v17.4c0,1.44-2.38,5.39-2.38,5.39,0,0-.21,3.47-1.08,4.37-.87.9-7.32,5.91-7.32,5.91,0,0-2.45-1.73-.64-3.99,1.8-2.24,3.92-6.55,3.92-6.55l-1.73-10.98s-3.56,6.16-5.14,7.57c-1.57,1.41-3.98.32-3.98.32,0,0,3.24-7.77,3.98-9.31.73-1.54,1.32-8.51,3.53-9.25,0,0-10.56-35.96-10.85-38.27-.28-2.32-.26-4.82-.26-4.82l-3.92-9.18-.39,11.04s3.53,8.09,5.07,17.34c.45,2.68.89,8.05,1.25,14.69-4.12,3.58-15.56,11.51-36.24,11.51s-32.13-7.93-36.24-11.51c.35-6.64.8-12.01,1.25-14.69,1.54-9.24,5.07-17.34,5.07-17.34l-.39-11.04-3.92,9.18s.04,2.5-.26,4.82c-.29,2.31-10.85,38.27-10.85,38.27,2.22.74,2.79,7.71,3.53,9.25.73,1.54,3.98,9.31,3.98,9.31,0,0-2.4,1.1-3.98-.32-1.57-1.41-5.14-7.57-5.14-7.57l-1.73,10.98s2.12,4.3,3.92,6.55c1.8,2.25-.64,3.99-.64,3.99,0,0-6.45-5.01-7.33-5.91-.87-.89-1.08-4.37-1.08-4.37,0,0-2.38-3.95-2.38-5.39v-17.4c0-.26,2.89-29.09,3.46-34.87.58-5.78,2.63-9.57,2.63-9.57,0,0,2.06-16.73,5.07-32.81,3.02-16.08,7.33-20.45,11.75-22.79,4.43-2.35,22.67-8.16,22.67-8.16,0,0,14.94,1.43,20.46-6.82l.73,6.82s18.24,5.81,22.67,8.16c4.43,2.34,8.73,6.71,11.75,22.79,3.02,16.08,5.07,32.81,5.07,32.81,0,0,2.05,3.79,2.63,9.57.58,5.78,3.47,34.61,3.47,34.87Z"/>
              <path class="cls-6" d="M371.75,42.81c.95-.57,4.12-3.22,6.28-5.81l.41,3.79c-5.52,8.25-20.63,5.25-20.63,5.25l.87-8.01c2.05,2.22,4.54,4.28,5.36,4.78,1.39.83,3.85.89,3.85.89,0,0,2.47-.06,3.85-.89Z"/>
              <path class="cls-1" d="M381.18,22.8c-.09,1.74-.27,4.43-.51,6.8,0,0,.28,15.08-12.76,14.1,0,0-1.51-.04-2.83-.45-10.18-2.51-9.94-13.65-9.94-13.65-.24-2.37-.42-5.06-.51-6.8-.06-1.12-.09-1.84-.09-1.84,0,0,.02-3.28,1.23-7.36,1.21-4.08,3.68-5.14,5.07-4.97,1.38.17,2.93.98,7.07.98s5.68-.81,7.06-.98c1.39-.17,3.86.89,5.07,4.97,1.21,4.08,1.23,7.36,1.23,7.36,0,0-.02.72-.09,1.84Z"/>
              <path class="cls-7" d="M404.66,145.95c.14,2.56.26,5.32.36,8.18-12.34.66-36.09,22.99-36.09,22.99h-1.03s-23.75-22.32-36.08-22.99c.1-2.86.22-5.61.35-8.18,4.12,3.58,15.56,11.51,36.24,11.51s32.13-7.93,36.25-11.51Z"/>
              <path class="cls-1" d="M409.58,323.39c0,.96-.39,2.02-1.93,2.63-1.54.61-8.41,1.03-10.46,1.29-2.06.26-6.56-1.39-9.12-3.98,0,0-4.75,0-6.29-1.54-1.55-1.55,1.15-10.4,1.15-10.4,0,0-3.33-19.62-3.92-23.96-.58-4.33-3.18-42.39-2.99-48.07l-7.1-62.25s23.76-22.33,36.09-22.99c.22,6.3.35,13.13.31,19.58-.04,9.23-.41,17.71-1.27,22.9-2.45,14.74-6.94,38.43-6.94,38.43,0,0,3.22,19.97,2.89,31.34-.32,11.36-4.23,43.8-4.23,43.8,0,0,5.45,7.22,8.48,9.11,3.02,1.9,5.33,3.15,5.33,4.11Z"/>
              <path class="cls-1" d="M367.9,177.11l-7.1,62.25c.19,5.68-2.4,43.74-2.99,48.07-.58,4.34-3.92,23.96-3.92,23.96,0,0,2.7,8.86,1.16,10.4-1.55,1.54-6.29,1.54-6.29,1.54-2.57,2.6-7.07,4.24-9.12,3.98-2.06-.26-8.93-.68-10.47-1.29-1.54-.61-1.93-1.67-1.93-2.63s2.32-2.21,5.34-4.11c3.02-1.89,8.48-9.11,8.48-9.11,0,0-3.92-32.43-4.24-43.8s2.89-31.34,2.89-31.34c0,0-4.48-23.69-6.94-38.43-.87-5.18-1.23-13.67-1.27-22.9-.04-6.46.1-13.28.32-19.58,12.33.66,36.08,22.99,36.08,22.99Z"/>
              <path class="cls-1" d="M353.58,29.46c-.69-.5-2.36-2.61-2.41-5.32-.05-2.7.63-3.47,1.6-3.31s1.86,1.97,1.86,1.97c.1,1.74.27,4.43.51,6.81,0,0-.86.35-1.56-.14Z"/>
              <path class="cls-1" d="M382.23,29.46c-.69.5-1.56.15-1.56.15.24-2.37.42-5.07.51-6.81,0,0,.89-1.81,1.86-1.97.97-.16,1.65.62,1.6,3.31-.06,2.7-1.72,4.81-2.41,5.31Z"/>
              <path class="cls-5" d="M368.05,0c17.26,0,14.99,20.83,14.99,20.83-.97.16-1.86,1.97-1.86,1.97.06-1.12.09-1.84.09-1.84,0,0-.02-3.27-1.23-7.35-1.21-4.08-3.68-5.14-5.07-4.97-1.39.17-2.93.98-7.07.98s-5.68-.81-7.07-.98c-1.39-.17-3.85.89-5.07,4.97-1.21,4.08-1.23,7.35-1.23,7.35,0,0,.03.73.09,1.84,0,0-.89-1.81-1.86-1.97,0,0-1.98-20.83,15.28-20.83Z"/>
              <path class="cls-6" d="M338.1,103.38c-.26,0-.48-.2-.5-.47-.07-1.04-1.67-25.37-1.67-27.01,0-.28.22-.5.5-.5s.5.22.5.5c0,1.6,1.65,26.69,1.67,26.94.02.27-.19.51-.47.53-.01,0-.02,0-.03,0Z"/>
              <path class="cls-6" d="M337.19,89.31c-.16,0-.32-.08-.41-.22-1.52-2.24-3.42-6.92-3.5-7.12-.1-.26.02-.55.27-.65.25-.1.55.02.65.27.02.05,1.95,4.78,3.4,6.93.15.23.1.54-.13.7-.08.06-.18.08-.28.08Z"/>
              <path class="cls-6" d="M352.7,95.12c-7.37,0-11.67-2.93-11.93-3.11-.23-.16-.28-.47-.12-.7.16-.23.47-.28.7-.12.09.06,9.13,6.17,23.42.43.26-.1.55.02.65.28.1.26-.02.55-.28.65-4.76,1.92-8.94,2.57-12.43,2.57Z"/>
              <path class="cls-6" d="M353,88.81c0,.89-1.05,1.61-2.34,1.61s-2.34-.72-2.34-1.61,1.05-1.61,2.34-1.61,2.34.72,2.34,1.61Z"/>
              <path class="cls-6" d="M315.31,181.27c-.21,0-.4-.13-.48-.34-.4-1.19-.71-3.72-.72-3.82l-.33-4.97c-.02-.27.19-.51.47-.53.28-.02.51.19.53.47l.33,4.94h0s.31,2.51.67,3.6c.09.26-.05.54-.32.63-.05.02-.11.02-.16.02Z"/>
              <path class="cls-6" d="M367.53,135.04c-.23,0-.43-.15-.48-.38-.07-.27.1-.54.36-.61,1.34-.34,2.61-.98,3.66-1.86.21-.18.53-.15.7.06.18.21.15.53-.06.71-1.17.98-2.58,1.69-4.06,2.06-.04.01-.08.02-.12.02Z"/>
              <path class="cls-6" d="M349.06,238.89c-2.23,0-4.47-.97-5.95-2.63-.18-.21-.17-.52.04-.71s.52-.17.71.04c1.52,1.71,3.96,2.58,6.23,2.21.27-.04.53.14.57.42.04.27-.14.53-.42.57-.39.06-.79.09-1.18.09Z"/>
              <path class="cls-6" d="M350.7,315.3c-.14,0-.28-.06-.38-.17-.18-.21-.16-.52.05-.71.93-.8,1.56-1.96,1.75-3.17.04-.27.3-.46.57-.42.27.04.46.3.42.57-.22,1.44-.98,2.82-2.08,3.78-.09.08-.21.12-.33.12Z"/>
              <path class="cls-6" d="M339.14,327.56c-.08,0-.17-.02-.25-.07-.63-.36-1.06-1.09-1.17-1.98-.02-.18-.09-.72.22-1.15.21-.29.51-.43.73-.53l1.83-.85c.25-.11.55,0,.66.24.11.25,0,.55-.24.66l-1.83.85c-.12.06-.29.13-.34.21-.04.05-.07.17-.04.44.07.58.33,1.04.68,1.24.24.14.32.44.18.68-.09.16-.26.25-.43.25Z"/>
              <path class="cls-6" d="M335.57,327.37c-.17,0-.34-.09-.44-.25-.42-.74-.81-1.54-.59-2.4.14-.54.53-1.03,1.09-1.38.46-.29.97-.45,1.43-.59.27-.08.55.07.63.33.08.26-.07.54-.33.63-.42.13-.85.26-1.2.48-.2.12-.55.39-.65.78-.13.5.16,1.07.49,1.66.14.24.05.55-.19.68-.08.04-.16.07-.25.07Z"/>
              <path class="cls-6" d="M333.02,326.91c-.14,0-.29-.06-.39-.18-.35-.42-.74-.89-.94-1.48-.26-.74-.14-1.5.32-2,.25-.27.56-.43.83-.56l1.52-.76c.25-.12.55-.02.67.23.12.25.02.55-.23.67l-1.52.76c-.21.11-.41.21-.53.34-.23.25-.22.68-.11,1,.15.42.46.8.77,1.17.18.21.15.53-.07.7-.09.08-.21.11-.32.11Z"/>
              <path class="cls-6" d="M329.73,326.81c-.18,0-.36-.1-.45-.27-.22-.43-.44-.89-.56-1.4-.14-.61-.1-1.19.12-1.68.22-.49.63-.91,1.19-1.21.46-.25.94-.4,1.41-.54.26-.08.54.07.62.34.08.27-.07.54-.34.62-.42.12-.85.25-1.21.45-.26.14-.59.39-.76.75-.16.36-.12.77-.06,1.05.09.4.28.78.48,1.18.13.25.03.55-.22.67-.07.04-.15.05-.23.05Z"/>
              <path class="cls-6" d="M398.53,103.47s-.02,0-.03,0c-.27-.02-.48-.26-.47-.53.02-.25,1.67-25.34,1.67-26.94,0-.28.22-.5.5-.5s.5.22.5.5c0,1.63-1.6,25.97-1.67,27.01-.02.26-.24.47-.5.47Z"/>
              <path class="cls-6" d="M399.44,89.4c-.1,0-.19-.03-.28-.09-.23-.15-.29-.47-.13-.69,1.46-2.15,3.39-6.89,3.4-6.93.1-.26.39-.38.65-.27s.38.4.28.65c-.08.2-1.98,4.88-3.5,7.12-.1.14-.25.22-.41.22Z"/>
              <path class="cls-6" d="M383.93,95.21c-3.49,0-7.67-.66-12.43-2.57-.26-.1-.38-.39-.28-.65.1-.26.39-.38.65-.28,14.29,5.74,23.33-.37,23.42-.43.23-.16.54-.1.7.12.16.23.1.54-.12.7-.26.18-4.56,3.1-11.93,3.1Z"/>
              <path class="cls-6" d="M421.33,181.36c-.05,0-.11,0-.16-.02-.26-.09-.4-.37-.32-.63.36-1.09.67-3.6.68-3.63l.33-4.91c.02-.28.27-.49.53-.47.27.02.48.26.47.53l-.33,4.94c-.02.13-.33,2.66-.72,3.85-.07.21-.27.34-.48.34Z"/>
              <path class="cls-6" d="M369.1,135.13s-.08,0-.12-.01c-1.48-.37-2.89-1.09-4.06-2.06-.21-.18-.24-.49-.06-.7.18-.21.49-.24.7-.06,1.06.88,2.33,1.53,3.66,1.86.27.07.43.34.36.61-.06.23-.26.38-.49.38Z"/>
              <path class="cls-6" d="M387.57,238.98c-.4,0-.79-.03-1.18-.09-.27-.04-.46-.3-.42-.57.04-.27.31-.45.57-.42,2.25.37,4.7-.51,6.23-2.21.18-.2.5-.22.71-.04.21.18.22.5.04.71-1.48,1.66-3.72,2.63-5.95,2.63Z"/>
              <path class="cls-6" d="M385.94,315.39c-.12,0-.23-.04-.33-.12-1.1-.96-1.86-2.33-2.08-3.78-.04-.27.14-.53.42-.57.27-.04.53.15.57.42.19,1.21.83,2.37,1.75,3.17.21.18.23.5.05.71-.1.11-.24.17-.38.17Z"/>
              <path class="cls-6" d="M397.49,327.65c-.17,0-.34-.09-.43-.25-.14-.24-.06-.55.18-.68.35-.2.61-.67.68-1.24.03-.27,0-.39-.04-.44-.05-.08-.21-.15-.34-.21l-1.83-.85c-.25-.12-.36-.41-.24-.66.12-.25.41-.36.66-.24l1.83.85c.22.1.52.24.73.53.21.29.28.67.22,1.15-.11.9-.54,1.62-1.17,1.98-.08.05-.17.07-.25.07Z"/>
              <path class="cls-6" d="M401.06,327.46c-.08,0-.17-.02-.25-.07-.24-.14-.32-.44-.19-.68.32-.56.62-1.16.49-1.66-.1-.39-.45-.66-.65-.78-.35-.22-.78-.35-1.2-.48-.26-.08-.41-.36-.33-.63.08-.26.36-.42.63-.33.45.14.96.3,1.43.58.56.35.95.84,1.09,1.38.24.94-.28,1.85-.59,2.4-.09.16-.26.25-.44.25Z"/>
              <path class="cls-6" d="M403.61,327c-.11,0-.23-.04-.32-.11-.21-.18-.24-.49-.07-.7.31-.37.62-.75.77-1.17.11-.32.12-.75-.11-1-.12-.14-.33-.24-.54-.34l-1.52-.76c-.25-.12-.35-.42-.23-.67.12-.25.42-.35.67-.23l1.52.76c.26.13.58.29.83.56.45.49.57,1.26.32,2-.21.59-.6,1.07-.94,1.48-.1.12-.24.18-.39.18Z"/>
              <path class="cls-6" d="M406.9,326.9c-.08,0-.15-.02-.23-.05-.25-.13-.34-.43-.22-.67.19-.37.38-.77.48-1.17.06-.28.11-.69-.06-1.05-.16-.36-.5-.61-.76-.75-.36-.2-.78-.32-1.21-.46-.27-.08-.42-.36-.33-.62.08-.27.36-.41.62-.33.47.14.95.29,1.41.54.56.31.97.73,1.18,1.21.22.49.26,1.07.12,1.68-.12.52-.35,1-.56,1.4-.09.17-.26.27-.45.27Z"/>
              <path class="cls-6" d="M388.67,88.81c0,.89-1.05,1.61-2.34,1.61s-2.34-.72-2.34-1.61,1.05-1.61,2.34-1.61,2.34.72,2.34,1.61Z"/>
              <path class="cls-6" d="M354.29,28.81c-.22,0-.42-.14-.48-.36-.42-1.51-1.05-2.95-1.86-4.28-.14-.24-.07-.54.17-.69.23-.14.54-.07.69.17.86,1.41,1.52,2.93,1.97,4.53.07.27-.08.54-.35.62-.05.01-.09.02-.14.02Z"/>
              <path class="cls-6" d="M381.27,28.59s-.08,0-.12-.01c-.27-.07-.43-.33-.37-.6.4-1.65,1.05-3.22,1.94-4.67.14-.24.45-.31.69-.17.23.14.31.45.17.69-.83,1.36-1.44,2.83-1.82,4.38-.06.23-.26.38-.49.38Z"/>
              <g>
                <path class="cls-5" d="M374.92,19.23c-.31.49-1.26.43-2.13-.12-.87-.55-1.31-1.4-1.01-1.88.31-.49,1.26-.43,2.13.12.86.55,1.31,1.4,1,1.88Z"/>
                <path class="cls-5" d="M362.99,17.24c.37.45.02,1.33-.79,1.96-.8.63-1.75.78-2.11.33-.37-.45-.01-1.33.79-1.96.8-.63,1.75-.78,2.11-.34Z"/>
                <path class="cls-4" d="M362.34,30.69c0,1.56-1.27,2.83-2.83,2.83s-2.83-1.27-2.83-2.83,1.27-2.83,2.83-2.83,2.83,1.27,2.83,2.83Z"/>
                <path class="cls-4" d="M379.25,30.69c0,1.56-1.27,2.83-2.83,2.83s-2.83-1.27-2.83-2.83,1.27-2.83,2.83-2.83,2.83,1.27,2.83,2.83Z"/>
                <path class="cls-3" d="M371.05,32.15c-1.36,4.31-4.89,5.56-6.7.15l6.7-.15Z"/>
                <path class="cls-5" d="M361.43,24.15c-.01.71.31,1.28.72,1.29.41,0,.75-.56.76-1.27s-.31-1.28-.72-1.29c-.41,0-.75.56-.76,1.27Z"/>
                <path class="cls-5" d="M371.9,23.98c-.01.71.31,1.28.72,1.29.41,0,.75-.56.76-1.27.01-.71-.31-1.28-.72-1.29-.41,0-.75.56-.76,1.27Z"/>
                <path class="cls-5" d="M368.27,23.24c-.29,1.93-1.05,3.67-2,5.34,0,0-.32-.66-.32-.66,1.21.37,2.42.76,3.58,1.32-1.29-.02-2.55-.2-3.8-.4l-.53-.09c.72-2,1.62-3.91,3.07-5.52h0Z"/>
              </g>
            </g>
          </g>
        </g>
      </g>
    </g>
  </g>
</svg>