<?xml version="1.0" encoding="UTF-8"?>
<svg xmlns="http://www.w3.org/2000/svg" viewBox="0 0 749.08 331.27">
  <defs>
    <style>
      .cls-1 {
        fill: #b5c96b;
      }

      .cls-2 {
        fill: #dca07a;
      }

      .cls-3 {
        isolation: isolate;
      }

      .cls-4 {
        fill: #fff;
      }

      .cls-5 {
        fill: #8db228;
      }

      .cls-6 {
        fill: #0f0f0f;
        mix-blend-mode: soft-light;
        opacity: .46;
      }

      .cls-7 {
        fill: #5e5748;
      }

      .cls-8 {
        fill: #bf774f;
      }
    </style>
  </defs>
  <g class="cls-3">
    <g id="_圖層_2" data-name="圖層 2">
      <g id="_圖層_1-2" data-name="圖層 1">
        <g>
          <g>
            <g>
              <path class="cls-4" d="M100.35,158.17h-31.8v-47.73H31.79v47.73H0V41.08h31.79v43.41h36.76v-43.41h31.8v117.09Z"/>
              <path class="cls-4" d="M195.18,158.17h-69.52V41.08h69.52v25.39h-37.88v18.42h35.08v25.39h-35.08v22.1h37.88v25.79Z"/>
              <path class="cls-4" d="M287.52,158.17l-5.77-21.94h-38.04l-5.93,21.94h-34.76l38.2-117.57h42.21l38.68,117.57h-34.6ZM275.19,110.28l-5.05-19.22c-1.17-4.27-2.6-9.8-4.28-16.58-1.68-6.78-2.79-11.64-3.32-14.58-.48,2.72-1.43,7.21-2.84,13.46-1.42,6.25-4.55,18.55-9.41,36.92h24.91Z"/>
              <path class="cls-4" d="M334.78,158.17V41.08h31.64v91.54h45.09v25.55h-76.73Z"/>
              <path class="cls-4" d="M481.9,158.17h-31.64v-91.22h-28.59v-25.87h88.74v25.87h-28.51v91.22Z"/>
              <path class="cls-4" d="M627.5,158.17h-31.8v-47.73h-36.76v47.73h-31.79V41.08h31.79v43.41h36.76v-43.41h31.8v117.09Z"/>
              <path class="cls-4" d="M694.62,84.49l20.18-43.41h34.28l-38.52,71.36v45.73h-31.88v-44.77l-38.52-72.32h34.44l20.02,43.41Z"/>
            </g>
            <g>
              <path class="cls-4" d="M175.56,326.2h-37.4l-11.21-51.02c-.53-2.14-1.38-6.38-2.52-12.73-1.15-6.35-1.99-11.67-2.52-15.94-.43,3.47-1.12,7.78-2.08,12.93-.96,5.15-1.91,9.89-2.84,14.22-.93,4.33-4.82,21.84-11.65,52.54h-37.4l-28.99-117.09h30.51l12.73,58.71c2.88,12.97,4.86,23.31,5.93,31,.69-5.45,1.93-12.84,3.72-22.19,1.79-9.34,3.46-17.09,5-23.23l10.33-44.29h29.31l10.01,44.29c1.71,7.1,3.44,15.3,5.21,24.59,1.76,9.29,2.94,16.23,3.52,20.82.69-5.93,2.59-16.2,5.69-30.83l12.97-58.87h30.51l-28.83,117.09Z"/>
              <path class="cls-4" d="M289.04,326.2h-69.52v-117.09h69.52v25.39h-37.88v18.42h35.08v25.39h-35.08v22.1h37.88v25.79Z"/>
              <path class="cls-4" d="M309.55,326.2v-117.09h31.8v117.09h-31.8Z"/>
              <path class="cls-4" d="M413.67,257.64h50.54v63.11c-13.72,4.7-28.81,7.05-45.25,7.05-18.05,0-32-5.23-41.85-15.7-9.85-10.46-14.78-25.39-14.78-44.77s5.39-33.61,16.18-44.13c10.79-10.52,25.9-15.78,45.33-15.78,7.37,0,14.32.69,20.86,2.08,6.54,1.39,12.24,3.15,17.1,5.29l-10.01,24.83c-8.44-4.16-17.7-6.25-27.79-6.25-9.24,0-16.38,3-21.42,9.01s-7.57,14.59-7.57,25.75,2.28,19.29,6.85,25.03c4.57,5.74,11.14,8.61,19.74,8.61,4.7,0,9.02-.45,12.97-1.36v-18.34h-20.9v-24.43Z"/>
              <path class="cls-4" d="M588.42,326.2h-31.8v-47.73h-36.76v47.73h-31.8v-117.09h31.8v43.41h36.76v-43.41h31.8v117.09Z"/>
              <path class="cls-4" d="M665.39,326.2h-31.64v-91.22h-28.59v-25.87h88.74v25.87h-28.51v91.22Z"/>
            </g>
          </g>
          <g>
            <g>
              <path class="cls-8" d="M262.83,68.14c2,2.69,4.79,5.13,8.38,5.25.1.01.2.01.3.01h0c.1,0,.2,0,.3-.01,2.48-.09,4.57-1.27,6.29-2.88l.24,2.18c-6.09,5.22-16.38,3.51-16.38,3.51l.87-8.07Z"/>
              <path class="cls-2" d="M269.49,281.86c-1.95,10.42-4.42,24.08-4.35,26.08.03.8.16,2.47.3,4.55.33,4.79.67,11.78-.26,15.44-.33,1.27-.8,2.15-1.49,2.38-3.51,1.21-10.92.08-12.4-1.28-1.47-1.36-.04-8.09,1.06-10.96,1.09-2.87,1.74-9,1.74-9,0,0,0-31.91-.3-47.18-.3-15.27,7.1-19.51,7.1-19.51-15.06-34.72-17.82-55.86-18.04-65.92,0,0,20.99,1.81,31.8,13.83,0,0,3.97,47.18,3.44,51.49s-6.32,27.97-6.32,27.97c0,0-1.04,5.37-2.3,12.1Z"/>
              <path class="cls-2" d="M289.43,83.53c4.41,2.12,8.85,4.61,10.27,6.59,3.13,4.34,8.37,49.3,8.37,49.3l.15,33.37s.71,9.17.71,10.28-4.54,7.01-4.74,7.66c-.2.65-1.42,4.62-4.34,5.78,1.86-11.62,3.25-22.59,2.93-27.94-.22-3.63-1.25-7.56-2.66-11.39-1.03-2.8-2.27-5.54-3.55-8.08h0s-3.31-14.98-3.31-14.98l-3.57-14.87c1.46-2.76,2.79-6.07,2.76-8.98-.05-6.45-7.88-28.96-7.88-28.96,1.5.65,3.18,1.41,4.86,2.22Z"/>
              <path class="cls-2" d="M302.78,167.68c.32,5.35-1.07,17.39-2.93,29.01-3.1,19.34-7.51,40.46-7.51,40.46,0,0,1.44,15.77.46,23.11-.98,7.33-14.12,42.77-14.12,42.77,0,0,2.52,19.52,1.06,22.85-1.46,3.32-11.6,3.7-14.57,2.23.93-3.66.58-10.65.26-15.44,0-.1,3.62-10.48,3.62-10.48l.42-20.15c1.26-6.73,2.3-12.1,2.3-12.1,0,0,5.79-23.67,6.32-27.97s-3.44-52.55-3.44-52.55c5.37-16.25,28.12-21.73,28.12-21.73Z"/>
              <path class="cls-1" d="M300.12,157.18c1.41,3.83,2.44,7.76,2.66,11.39,0,0-22.75,5.47-28.12,21.72-10.81-12.02-31.8-13.83-31.8-13.83-.1-4.69.37-6.98.39-7.11,1.41-.62,2.34-1.28,2.34-1.28,0,0,3.15,1.47,5.71,1.55s3.59-1.47,3.59-1.47c0,0,2.46,1.53,3.44.3.98-1.23.11-1.7.11-1.7,0,0,.59.09.72-.42,0,0,24.78,3.26,40.69-9.05l.27-.1Z"/>
              <path class="cls-2" d="M300.12,157.18l-.26.11c-15.91,12.3-40.7,9.04-40.7,9.04.14-.51-14.33.27-15.19-.28-.12-.08-.11-.3,0-.62v-9.08c2.13-12.98,3.92-14.59,3.92-14.59l-3.25-13.55s18.77-7.82,41.63-1.56l2.29,8.94s4.18,5.85,8.01,13.5h0c1.27,2.56,2.51,5.3,3.54,8.09Z"/>
              <path class="cls-1" d="M292.45,110.28c.02,2.9-1.3,6.21-2.76,8.98-1.79,3.38-3.79,5.95-3.79,5.95l.37,1.45c-22.86-6.27-41.63,1.56-41.63,1.56l-3.71-15.48c14.94-.02,9.15-32.99,9.06-33.49h0c.86-.25,1.72-.48,2.55-.71.04.48,2.02,23.53,18.99,23.08,17.03-.45,10.13-21.27,10.04-21.57.85.35,1.88.78,3.01,1.27,0,0,7.83,22.51,7.88,28.96Z"/>
              <path class="cls-2" d="M286.11,60.3c-.15.17-.29.3-.41.39-.68.51-1.54.14-1.54.14l-.23-.05c.12-.52.21-1.06.27-1.6.11-1.14.25-2.67.35-3.89.54-.98,1-2.03,1.34-3.13.07-.22.14-.44.2-.67h.05c.63.25,2,1.59,1.96,3.74-.04,2.32-1.2,4.21-1.98,5.07Z"/>
              <path class="cls-2" d="M284.65,53.84h0c-.02.37-.07.87-.11,1.44-.1,1.22-.24,2.75-.35,3.89-.05.54-.14,1.08-.27,1.6-.16.68-.38,1.34-.65,1.99-.64,1.45-1.67,3.5-3.09,5.41-.62.83-1.31,1.63-2.08,2.35-1.72,1.6-3.81,2.79-6.29,2.88-.1.01-.2.01-.3.01h0c-.1,0-.2,0-.3-.01-3.59-.12-6.38-2.56-8.38-5.25-1.45-1.94-2.49-4.02-3.11-5.47-.25-.58-.46-1.18-.61-1.78-.15-.57-.24-1.14-.3-1.72-.14-1.33-.24-2.71-.33-3.9-.03-.55-.07-1.06-.09-1.51h0c.34-.23,11.25-7.53,12.95-15.14.09-.39.15-.78.19-1.16,0,0,10.95,2.04,13.13,16.39Z"/>
              <path class="cls-2" d="M281.55,80.04c.1.29,6.99,21.12-10.04,21.57-16.97.45-18.95-22.6-18.99-23.08,5.1-1.38,9.43-2.32,9.43-2.32,0,0,10.29,1.71,16.38-3.51l.7,6.33s.98.38,2.51,1.01t0,0Z"/>
              <path class="cls-7" d="M271.52,37.45c-.04.39-.1.78-.19,1.16-1.7,7.61-12.61,14.91-12.95,15.14,0-.06.02-.12.03-.22-.02.09-.03.17-.03.22,0,.06-.01.09-.01.09,0,0-.53-1.11-1.22-1.69-.2-.17-.41-.29-.62-.33-.52-.09-.95.1-1.23.71-.24.54-.38,1.4-.36,2.69.05,2.77,1.7,4.94,2.39,5.46.49.36,1.34.28,1.78.2.15.61.36,1.2.61,1.78.63,1.45,1.66,3.53,3.11,5.47l-.87,8.07s-4.32.94-9.43,2.32c-.83.22-1.69.46-2.55.7h0c-3.67,1.05-7.44,2.27-10.1,3.48-.91.42-2.04,1.47-3.33,3-4.18-10.42,3.1-18.66,10.04-24.88,7.66-6.86,10-16.54,10-16.54,1.22-7.61,7.44-13.41,14.93-13.41,8.37,0,15.15,7.23,15.15,16.16,0,1.54-.2,3.03-.58,4.44-.06.23-.12.45-.2.67-.34,1.1-.79,2.15-1.34,3.13.04-.57.09-1.07.11-1.44h0c-2.18-14.35-13.13-16.39-13.13-16.39Z"/>
              <path class="cls-7" d="M289.43,83.53c-1.68-.81-3.36-1.57-4.86-2.21-1.13-.49-2.16-.93-3.01-1.27h0c-1.53-.64-2.51-1.01-2.51-1.01l-.7-6.33-.24-2.18c.77-.72,1.46-1.52,2.08-2.35,1.42-1.91,2.45-3.96,3.09-5.41.28-.64.49-1.31.65-1.99l.23.05s.86.36,1.54-.14c.11-.09.26-.22.41-.39,1.05,2.45,5.26,13.21,3.32,23.23Z"/>
              <path class="cls-2" d="M243.97,156.35l5.36-5.14,7.94,1.51c-.02,2.99-7.11,2.65-7.11,2.65l-1.47,2.87s5.39.55,6.24,1.09c.85.55,4.37,6.48,4.24,6.99-.14.51-.72.42-.72.42,0,0,.87.47-.11,1.7-.98,1.23-3.44-.3-3.44-.3,0,0-1.04,1.55-3.59,1.47s-5.71-1.55-5.71-1.55c0,0-.93.66-2.34,1.28-1.21.52-2.77,1.01-4.43,1.02-3.6.02-7.56-6.16-7.56-6.16,0,0-19.05-28.65-19.05-32.51,0-3.36,15.63-35.61,24.34-45.99,1.29-1.53,2.42-2.58,3.33-3,2.66-1.21,6.43-2.43,10.1-3.48.09.51,5.88,33.47-9.06,33.49l-.74-3.09-13.84,20.32,12.02,29.49,5.48-2.99.12-.11Z"/>
              <path class="cls-2" d="M255.29,52.53c.28-.61.71-.79,1.23-.71.21.04.42.16.62.33.68.58,1.22,1.69,1.22,1.69,0,0,0-.03.01-.09,0-.05.02-.13.03-.22-.01.09-.02.16-.03.22h0c.03.45.06.96.09,1.51.09,1.19.2,2.57.33,3.9.06.58.16,1.16.3,1.72-.45.08-1.29.16-1.78-.2-.68-.52-2.33-2.69-2.39-5.46-.02-1.29.12-2.15.36-2.69Z"/>
              <path class="cls-8" d="M284.86,60s-.09,0-.14-.02c-.27-.07-.42-.35-.35-.62.44-1.57,1.1-3.07,1.95-4.47.14-.24.45-.31.69-.17s.31.45.17.69c-.8,1.32-1.42,2.74-1.84,4.22-.06.22-.26.37-.48.37Z"/>
              <path class="cls-8" d="M258.25,59.79c-.23,0-.43-.15-.49-.38-.37-1.53-.97-2.98-1.79-4.32-.15-.24-.07-.54.16-.69.24-.14.54-.07.69.17.87,1.43,1.52,2.98,1.91,4.61.07.27-.1.54-.37.6-.04.01-.08.01-.12.01Z"/>
              <path class="cls-8" d="M271.38,155.43c-.07,0-.14-.01-.21-.05-.25-.12-.36-.41-.25-.66l1.43-3.12c.12-.25.41-.36.66-.25.25.12.36.41.25.66l-1.43,3.12c-.08.18-.26.29-.46.29Z"/>
              <path class="cls-8" d="M299.85,197.01s-.06,0-.09,0c-.27-.05-.45-.31-.4-.58,4.89-27.19,2.77-32.66.71-37.96-.14-.37-.29-.74-.43-1.11-2.12-5.67-6.45-13.46-6.49-13.54-.13-.24-.05-.54.19-.68.24-.13.54-.05.68.19.04.08,4.41,7.94,6.56,13.68.14.37.28.73.42,1.1,2.1,5.42,4.27,11.03-.66,38.5-.04.24-.25.41-.49.41Z"/>
              <path class="cls-8" d="M301.81,187.59c-.07,0-.13-.01-.2-.04-.25-.11-.37-.4-.26-.66.67-1.52,1.52-2.97,2.55-4.28.17-.22.48-.26.7-.09.22.17.26.48.09.7-.97,1.25-1.79,2.62-2.42,4.07-.08.19-.27.3-.46.3Z"/>
              <path class="cls-8" d="M239.31,111.42c-.1,0-.2-.03-.28-.09-.23-.16-.29-.47-.13-.7l5.55-8.09c.16-.23.47-.29.7-.13.23.16.29.47.13.7l-5.55,8.09c-.1.14-.25.22-.41.22Z"/>
              <path class="cls-8" d="M226.35,130.46c-.2,0-.38-.12-.46-.31-.71-1.73-2.93-1.46-3.02-1.44-.27.03-.52-.16-.56-.43s.15-.52.43-.56c1.06-.15,3.28.1,4.08,2.06.1.26-.02.55-.27.65-.06.03-.12.04-.19.04Z"/>
              <path class="cls-8" d="M248.89,158.55c-.13,0-.25-.05-.35-.15-.2-.19-.2-.51,0-.71.27-.27.43-.67.6-1.1.23-.57.48-1.21,1.07-1.63.59-.41,1.3-.45,1.88-.48,1.62-.08,3.07-.19,4.36-.79.2-.09.41-.21.54-.37.09-.11.11-.24.08-.3-.07-.14-.45-.21-.6-.24l-4.23-.79c-.81-.15-1.65-.31-2.44-.16-1.29.23-2.32,1.24-3.16,2.19l-.43.5c-.81.93-1.64,1.9-2.77,2.52-.24.13-.55.04-.68-.2-.13-.24-.04-.55.2-.68.97-.53,1.71-1.39,2.49-2.3l.44-.51c.9-1.02,2.14-2.22,3.73-2.51.96-.18,1.94,0,2.8.16l4.23.79c.32.06,1,.19,1.3.76.22.42.15.96-.17,1.38-.26.33-.62.53-.91.66-1.45.68-3.07.81-4.73.88-.47.02-1,.05-1.35.29-.34.24-.52.7-.71,1.18-.2.5-.4,1.01-.81,1.43-.1.1-.22.15-.35.15Z"/>
              <path class="cls-8" d="M259.19,167.15c-.18,0-.36-.1-.45-.27-.12-.25-.02-.55.22-.67,0,0,.01-.06,0-.11-.02-.14-.12-.31-.22-.47l-2.49-4.05c-.39-.64-.83-1.36-1.48-1.72-.42-.24-.95-.33-1.46-.42l-5.52-.96c-.27-.05-.45-.31-.41-.58.05-.27.3-.46.58-.41l5.52.96c.56.1,1.21.21,1.78.53.87.49,1.41,1.37,1.84,2.07l2.49,4.05c.14.23.31.51.36.86.07.48-.15.94-.54,1.14-.07.04-.15.05-.22.05Z"/>
              <path class="cls-8" d="M259.09,167.68c-.08,0-.16-.02-.23-.06-1.03-.54-1.86-1.33-2.67-2.1-.82-.79-1.6-1.53-2.55-2-1.01-.49-2.15-.64-3.36-.79-1.33-.17-2.71-.35-3.94-1.03-.24-.13-.33-.44-.19-.68.13-.24.44-.33.68-.19,1.05.59,2.28.74,3.57.91,1.24.16,2.52.32,3.68.89,1.09.53,1.96,1.37,2.81,2.18.79.76,1.54,1.47,2.44,1.94.24.13.34.43.21.68-.09.17-.26.27-.45.27Z"/>
              <path class="cls-8" d="M255.15,169.04c-.14,0-.27-.06-.37-.16-2.52-2.79-6.42-4.27-10.15-3.87-.27.03-.52-.17-.55-.44-.03-.27.17-.52.44-.55,4.04-.43,8.26,1.18,11,4.19.18.21.17.52-.04.71-.09.09-.21.13-.33.13Z"/>
              <path class="cls-8" d="M269.43,285.15s-.07,0-.1-.01c-.27-.05-.45-.32-.39-.59.06-.31,6.28-31.4,8.68-42.87,2.38-11.38-3.39-50.92-3.45-51.31-.04-.27.15-.53.42-.57.27-.03.53.15.57.42.24,1.63,5.85,40.11,3.44,51.66-2.4,11.47-8.61,42.54-8.67,42.86-.05.24-.26.4-.49.4Z"/>
              <path class="cls-8" d="M270.31,244.93c-1.65,0-3.31-.48-4.69-1.4-.23-.15-.29-.46-.14-.69.15-.23.46-.29.69-.14,1.77,1.17,4.04,1.54,6.08.97.27-.08.54.08.62.35.07.27-.08.54-.35.61-.72.2-1.47.3-2.21.3Z"/>
              <path class="cls-8" d="M282.44,244.32c-.17,0-.34,0-.5-.02-.27-.02-.49-.25-.47-.53.02-.27.24-.51.53-.47,2.06.13,4.12-.6,5.67-1.97.2-.18.52-.17.71.04.18.21.16.52-.04.71-1.61,1.44-3.74,2.24-5.89,2.24Z"/>
              <path class="cls-8" d="M264.99,328.42s-.05,0-.08,0c-.27-.04-.46-.3-.41-.57,1.05-6.62,1.08-13.35.08-19.98-.04-.27.15-.53.42-.57.27-.04.53.15.57.42,1.02,6.73.99,13.56-.08,20.28-.04.25-.25.42-.49.42Z"/>
              <path class="cls-8" d="M260.45,331.22c-.06,0-.11,0-.17-.03-.26-.09-.4-.38-.3-.64.31-.86.32-1.82.05-2.7-.08-.26.06-.54.33-.63.26-.08.54.06.63.33.34,1.08.32,2.27-.06,3.33-.07.21-.27.33-.47.33Z"/>
              <path class="cls-8" d="M256.92,331.03c-.06,0-.12-.01-.18-.04-.26-.1-.38-.39-.28-.65.28-.7.37-1.46.27-2.21-.04-.27.15-.52.43-.56.27-.04.52.15.56.43.12.92.01,1.85-.33,2.71-.08.2-.27.31-.46.31Z"/>
              <path class="cls-8" d="M254.03,330.52c-.07,0-.14-.02-.21-.05-.25-.11-.36-.41-.25-.66.27-.58.4-1.23.38-1.87,0-.28.21-.51.49-.51.25-.02.51.21.51.49.02.79-.15,1.59-.48,2.31-.08.18-.26.29-.46.29Z"/>
              <path class="cls-8" d="M252.27,329.82c-.08,0-.15-.02-.23-.06-.24-.13-.34-.43-.21-.67.24-.48.4-1.01.45-1.54.03-.27.27-.47.54-.45.27.03.48.27.45.55-.06.66-.25,1.31-.56,1.9-.09.17-.26.27-.44.27Z"/>
              <path class="cls-8" d="M268.01,329.27c-.27,0-.49-.22-.5-.49l-.05-2.32c0-.28.21-.51.49-.51.27-.01.5.21.51.49l.05,2.32c0,.27-.21.5-.49.51,0,0,0,0,0,0Z"/>
              <path class="cls-8" d="M271.64,329.4c-.27,0-.5-.22-.5-.49l-.03-2.36c0-.28.22-.5.49-.51h0c.27,0,.5.22.5.49l.03,2.36c0,.28-.22.5-.49.51h0Z"/>
              <path class="cls-8" d="M274.55,328.85c-.25,0-.47-.19-.5-.45l-.21-1.95c-.03-.27.17-.52.44-.55.27-.03.52.17.55.44l.21,1.95c.03.27-.17.52-.44.55-.02,0-.04,0-.05,0Z"/>
              <path class="cls-8" d="M277.42,328.02c-.24,0-.45-.18-.49-.42l-.25-1.58c-.04-.27.14-.53.41-.57.27-.04.53.14.57.42l.25,1.58c.04.27-.14.53-.42.57-.03,0-.05,0-.08,0Z"/>
              <path class="cls-8" d="M255.34,308.82c-.21,0-.4-.13-.47-.33-.09-.26.04-.55.3-.64,1.41-.5,2.97-.56,4.41-.15.27.08.42.35.34.62-.07.27-.35.42-.62.34-1.24-.35-2.59-.31-3.8.13-.06.02-.11.03-.17.03Z"/>
              <path class="cls-8" d="M274.93,303.33s-.07,0-.1-.01c-1.26-.27-2.54-.45-3.83-.53-.27-.02-.48-.26-.46-.53s.27-.49.53-.46c1.33.09,2.66.28,3.97.55.27.06.44.32.39.59-.05.23-.26.4-.49.4Z"/>
              <g>
                <path class="cls-7" d="M278.13,50.86c-.02.52-.78.91-1.71.88-.93-.03-1.66-.48-1.64-1,.02-.52.78-.91,1.71-.88.92.03,1.66.48,1.64,1Z"/>
                <path class="cls-7" d="M267.45,50.55c.09.52-.57,1.05-1.48,1.2-.91.15-1.72-.15-1.81-.67-.09-.51.57-1.05,1.48-1.2.91-.15,1.72.15,1.81.67Z"/>
                <path class="cls-6" d="M282.98,61.93c.07,1.7-1.26,3.14-2.96,3.2-1.7.07-3.14-1.26-3.2-2.96-.07-1.7,1.26-3.14,2.96-3.2,1.7-.07,3.14,1.26,3.2,2.96Z"/>
                <path class="cls-6" d="M266.56,61.93c.07,1.7-1.26,3.14-2.96,3.2-1.7.07-3.14-1.26-3.2-2.96-.07-1.7,1.26-3.14,2.96-3.2,1.7-.07,3.14,1.26,3.2,2.96Z"/>
                <path class="cls-7" d="M274.96,62.4c-.58,3.83-6.05,3.97-7.18.38.63.47,1.21.88,1.83,1.16,1.93.9,4.06.11,5.35-1.53h0Z"/>
                <path class="cls-7" d="M265.65,56.01c-.02.64.27,1.16.64,1.17.37,0,.68-.5.7-1.13.02-.64-.27-1.16-.64-1.17-.37-.01-.68.5-.7,1.13Z"/>
                <path class="cls-7" d="M275.09,55.97c-.02.64.27,1.16.64,1.17.37.01.68-.5.7-1.13.02-.64-.27-1.16-.64-1.17s-.68.5-.7,1.13Z"/>
                <path class="cls-7" d="M271.48,55.79c.1,1.61-.26,3.12-.79,4.61,0,0-.34-.53-.34-.53.74.2,1.48.42,2.19.79-.94.14-1.83.08-2.75.02.26-1.73.72-3.41,1.69-4.9h0Z"/>
              </g>
            </g>
            <g>
              <path class="cls-5" d="M401.95,152.23c.39,3.94.67,7.31.71,9.4-10.98,2.33-28.86,21.35-28.86,21.35h-1.6s-17.88-19.02-28.86-21.35c.04-2.09.31-5.45.71-9.4,2.9,1.06,10.28,2.49,28.95,2.49s26.06-1.43,28.96-2.49Z"/>
              <path class="cls-8" d="M383.29,41.82c-6.57,10-21.86,6.62-21.86,6.62l1.54-8.09c2.07,2.62,5.21,5.34,6.14,5.93,1.34.82,3.71.89,3.71.89,0,0,2.38-.07,3.72-.89.97-.6,4.32-3.53,6.4-6.24l.34,1.8Z"/>
              <path class="cls-2" d="M360.52,33.06s-.83.36-1.5-.14-2.28-2.62-2.33-5.32c-.03-1.68.21-2.62.64-3.05.24-.26.55-.33.91-.27.94.16,1.79,1.97,1.79,1.97.09,1.74.26,4.44.49,6.8Z"/>
              <path class="cls-2" d="M388.3,24.5c.46.39.73,1.34.69,3.11-.05,2.7-1.66,4.82-2.33,5.32s-1.5.14-1.5.14c.24-2.37.4-5.07.5-6.81h0c.1-.21.91-1.81,1.79-1.96.33-.06.62,0,.85.21Z"/>
              <path class="cls-2" d="M362.98,40.35c-.91-1.14-1.61-2.26-1.85-3.17-.24-.91-.44-2.43-.61-4.11-.24-2.36-.4-5.06-.49-6.8-.06-1.12-.09-1.84-.09-1.84,0,0,.02-3.27,1.19-7.35,1.16-4.08,3.55-5.15,4.89-4.98,1.34.17,2.83.98,6.82.98s5.49-.8,6.83-.98,3.72.89,4.89,4.98c1.17,4.08,1.19,7.35,1.19,7.35,0,0-.03.71-.08,1.82h0c-.1,1.75-.26,4.45-.5,6.82-.17,1.68-.37,3.2-.61,4.11-.21.83-.81,1.82-1.59,2.86-2.07,2.72-5.43,5.64-6.4,6.24-1.34.82-3.72.89-3.72.89,0,0-2.38-.07-3.71-.89-.93-.58-4.07-3.31-6.14-5.93Z"/>
              <path class="cls-2" d="M426.94,166.92c0,1.16-.64,3.85-.64,3.85,0,0,.26,11.98.32,14.26.06,2.28-2.89,5.65-2.89,5.65,0,0-.9,4.86-1.38,5.99-.48,1.13-5.97,4.89-6.51,5.25-.53.37-1.25-1.05-1.25-1.05l-1.93,1.88s-2.17-.29-.96-3.38c1.21-3.08,4.23-6.69,4.23-6.69l.87-8.14s-2.7,3.58-3.71,6.16-2,4.05-2.45,4.05-1.81-.65-1.59-3.33c.21-2.67,2.65-7.99,2.65-7.99,0,0-.03-4.91.87-8,.89-3.08,4.72-8.43,4.72-8.43,0,0-8.07-24.48-9.88-30.01-1.8-5.52-1.41-16.18-1.41-16.18l-4.88-21.32-3.08,20.94s2.61,18.93,3.92,31.8c-2.9,1.06-10.29,2.49-28.96,2.49s-26.05-1.43-28.95-2.49c1.3-12.87,3.91-31.8,3.91-31.8l-3.08-20.94-4.88,21.32s.38,10.66-1.41,16.18c-1.8,5.52-9.88,30.01-9.88,30.01,0,0,3.82,5.34,4.72,8.43s.87,8,.87,8c0,0,2.43,5.32,2.65,7.99.22,2.67-1.13,3.33-1.59,3.33s-1.44-1.47-2.45-4.05c-1.01-2.58-3.71-6.16-3.71-6.16l.87,8.14s3.03,3.61,4.23,6.69c1.21,3.08-.96,3.38-.96,3.38l-1.93-1.88s-.72,1.42-1.25,1.05c-.53-.36-6.01-4.12-6.5-5.25-.48-1.13-1.38-5.99-1.38-5.99,0,0-2.95-3.38-2.89-5.65s.32-14.26.32-14.26c0,0-.64-2.7-.64-3.85s2.82-27.74,2.7-31.21c-.13-3.47,3.34-15.29,3.34-15.29,0,0,3.37-44.66,4.43-51.05,1.06-6.39,6.49-11.18,11.37-12.65,4.88-1.48,20.55-8.28,20.55-8.28,0,0,15.29,3.38,21.86-6.62l1.26,6.62s15.67,6.81,20.55,8.28c4.88,1.48,10.3,6.26,11.36,12.65s4.43,51.05,4.43,51.05c0,0,3.47,11.82,3.34,15.29-.13,3.46,2.7,30.05,2.7,31.21Z"/>
              <path class="cls-2" d="M372.2,182.98l-9.99,58.57s.57,11.43-.78,20.29c-1.34,8.86-8.73,45.21-8.73,45.21.33,1.6.42,5.12.42,5.12,0,0,1.88,8.18,1.64,9.87-.24,1.68-7.23,3.33-7.23,3.33-1.23,1.54-5.44,3.71-5.44,3.71,0,0-2.7,2-5.83,1.88s-10.19-.48-11.17-1.4c-.99-.92-1.66-1.27-1.69-2.65-.02-1.37,7.25-5.32,8.29-6.45,1.03-1.13,9.36-10.64,9.36-10.64,0,0-.73-54.62-.93-58.37-.19-3.76.93-15.03.93-15.03-2.34-17.33,2.22-66.01,2.28-74.49,0-.09,0-.19,0-.28,10.98,2.33,28.86,21.35,28.86,21.35Z"/>
              <path class="cls-2" d="M414.3,320.45c1.03,1.13,8.31,5.08,8.28,6.45-.02,1.37-.69,1.73-1.68,2.65-.98.92-8.04,1.28-11.17,1.4-3.13.12-5.83-1.88-5.83-1.88,0,0-4.21-2.17-5.44-3.71,0,0-6.99-1.64-7.23-3.33-.24-1.68,1.64-9.87,1.64-9.87,0,0,.1-3.52.42-5.12,0,0-7.39-36.35-8.74-45.21-1.34-8.86-.77-20.29-.77-20.29l-9.99-58.57s17.88-19.02,28.86-21.35c0,.1,0,.19,0,.28.06,8.48,4.62,57.16,2.27,74.49,0,0,1.13,11.27.93,15.03-.19,3.76-.93,58.37-.93,58.37,0,0,8.33,9.52,9.36,10.64Z"/>
              <path class="cls-7" d="M360.37,5.92c.23-1.5.76-2.94,1.55-4.22.46-.74,1.07-1.47,1.92-1.65.72-.16,1.46.11,2.17.31,2.46.71,5.07.67,7.62.69,2.56.01,5.19.11,7.57,1.07,2.32.94,4.39,2.89,4.85,5.35.66.19,1.27.66,1.64,1.24.65,1.02.75,2.29.8,3.49.17,4.1,0,8.21-.19,12.31-.24-.21-.53-.27-.85-.21-.88.15-1.68,1.75-1.79,1.95.06-1.11.08-1.82.08-1.82,0,0-.02-3.27-1.19-7.35-1.16-4.08-3.55-5.15-4.89-4.98-1.34.17-2.83.98-6.83.98s-5.48-.8-6.82-.98-3.72.89-4.89,4.98c-1.17,4.08-1.19,7.35-1.19,7.35,0,0,.03.73.09,1.84,0,0-.86-1.82-1.79-1.97-.35-.06-.66.01-.91.27-.3-3.64-.56-7.29-.38-10.94.08-1.57.24-3.16.84-4.61.51-1.27,1.4-2.44,2.58-3.1Z"/>
              <path class="cls-8" d="M347.95,120.92c-.24,0-.45-.17-.49-.42l-4.61-27.96-4.92-10.24c-.12-.25-.01-.55.23-.67.25-.12.55-.01.67.23l4.95,10.3s.04.09.04.13l4.62,28.03c.04.27-.14.53-.41.57-.03,0-.05,0-.08,0Z"/>
              <path class="cls-8" d="M356.49,104.17c-.2,0-.38-.12-.46-.31-.11-.25.01-.55.27-.65.48-.2,11.93-4.99,16.75-4.47,4.73.51,17.25,3.48,17.79,3.61.27.06.43.33.37.6-.06.27-.33.44-.6.37-.13-.03-13-3.08-17.66-3.59-4.56-.49-16.14,4.35-16.26,4.4-.06.03-.13.04-.19.04Z"/>
              <path class="cls-8" d="M322.26,191.18c-.24,0-.45-.17-.49-.41l-.77-4.43c-.05-.27.13-.53.41-.58.27-.06.53.13.58.41l.77,4.43c.05.27-.13.53-.41.58-.03,0-.06,0-.09,0Z"/>
              <path class="cls-8" d="M331.4,201.36c-.12,0-.24-.04-.34-.13-.49-.45-4.85-4.39-5.51-5.55-.67-1.17-1.97-8.51-2.11-9.35-.05-.27.13-.53.41-.58.27-.06.53.13.58.41.54,3.08,1.56,8.26,2,9.02.44.77,3.42,3.6,5.31,5.31.21.19.22.5.04.71-.1.11-.23.17-.37.17Z"/>
              <path class="cls-8" d="M346.04,240.87c-1.99,0-3.97-1.11-4.94-2.88-.13-.24-.04-.55.2-.68s.55-.04.68.2c.92,1.68,2.96,2.64,4.84,2.29.28-.05.53.13.58.4.05.27-.13.53-.4.58-.32.06-.64.09-.96.09Z"/>
              <path class="cls-8" d="M333.62,331.27c-.05,0-.11,0-.16-.03-.54-.19-.95-.68-1.16-1.38-.24-.83-.17-1.75.21-2.53.37-.78,1.04-1.42,1.84-1.75.25-.11.55.01.65.27.11.25-.01.55-.27.65-.57.24-1.06.7-1.32,1.26-.27.56-.32,1.23-.15,1.82.11.37.3.64.52.72.26.09.4.38.31.64-.07.21-.26.34-.47.34Z"/>
              <path class="cls-8" d="M330.01,330.85s-.02,0-.03,0c-.39-.03-.74-.27-1-.7-.37-.61-.5-1.35-.36-2.05.14-.7.54-1.33,1.12-1.75.22-.16.54-.11.7.11.16.22.12.54-.11.7-.37.27-.64.69-.73,1.14-.09.45,0,.94.24,1.33.1.16.19.22.21.22.28.02.48.26.47.53-.02.27-.24.47-.5.47Z"/>
              <path class="cls-8" d="M327.59,330.49h-.02c-.28-.01-.54-.16-.72-.41-.14-.19-.2-.39-.24-.55-.26-1.01-.06-2.12.51-2.98.15-.23.46-.29.69-.14.23.15.29.46.14.69-.42.63-.56,1.44-.38,2.17.02.07.04.16.08.2.28.01.47.24.46.52,0,.27-.25.48-.52.48Z"/>
              <path class="cls-8" d="M325.37,330.12c-.14,0-.27-.06-.37-.17-.55-.61-.82-1.46-.72-2.27.1-.82.57-1.57,1.25-2.03.23-.15.54-.09.69.14.15.23.09.54-.14.69-.44.3-.75.79-.81,1.32-.07.53.11,1.08.47,1.48.19.2.17.52-.04.71-.1.08-.22.13-.34.13Z"/>
              <path class="cls-8" d="M350.26,311.59c-.11,0-.22-.04-.31-.11-.7-.55-1.3-1.21-1.78-1.96-.15-.23-.08-.54.15-.69.23-.15.54-.08.69.15.42.65.95,1.23,1.56,1.71.22.17.26.48.09.7-.1.13-.24.19-.39.19Z"/>
              <path class="cls-8" d="M355.78,91.87c0,.89-1.05,1.61-2.34,1.61s-2.34-.72-2.34-1.61,1.05-1.61,2.34-1.61,2.34.72,2.34,1.61Z"/>
              <path class="cls-8" d="M394.89,91.87c0,.89-1.05,1.61-2.34,1.61s-2.34-.72-2.34-1.61,1.05-1.61,2.34-1.61c1.29,0,2.34.72,2.34,1.61Z"/>
              <path class="cls-8" d="M373.17,136.71c-.12,0-.23-.04-.32-.12-.84-.72-1.57-1.54-2.18-2.46-.15-.23-.09-.54.14-.69.23-.15.54-.09.69.14.56.84,1.23,1.6,1.99,2.26.21.18.23.49.05.71-.1.12-.24.17-.38.17Z"/>
              <path class="cls-8" d="M398.04,120.92s-.04,0-.07,0c-.27-.04-.46-.29-.43-.56l3.77-28.03c0-.05.02-.1.05-.15l4.95-10.3c.12-.25.42-.35.67-.23.25.12.35.42.23.67l-4.92,10.23-3.76,27.96c-.03.25-.25.43-.5.43Z"/>
              <path class="cls-8" d="M422.88,191.18s-.06,0-.09,0c-.27-.05-.45-.31-.41-.58l.77-4.43c.05-.27.31-.46.58-.41.27.05.45.31.41.58l-.77,4.43c-.04.24-.25.41-.49.41Z"/>
              <path class="cls-8" d="M413.75,201.36c-.14,0-.27-.06-.37-.17-.18-.2-.17-.52.04-.71,1.89-1.71,4.87-4.53,5.31-5.31.44-.76,1.46-5.94,2-9.02.05-.27.31-.46.58-.41.27.05.45.31.41.58-.15.83-1.45,8.18-2.11,9.35-.66,1.16-5.01,5.11-5.51,5.55-.1.09-.22.13-.34.13Z"/>
              <path class="cls-8" d="M399.11,240.87c-.32,0-.64-.03-.96-.09-.27-.05-.45-.31-.4-.58.05-.27.31-.45.58-.4,1.88.35,3.92-.61,4.84-2.29.13-.24.44-.33.68-.2.24.13.33.44.2.68-.97,1.76-2.94,2.87-4.94,2.87Z"/>
              <path class="cls-8" d="M411.53,331.27c-.21,0-.4-.13-.47-.34-.09-.26.05-.55.31-.64.22-.08.42-.35.52-.72.17-.6.12-1.26-.15-1.82s-.75-1.02-1.32-1.26c-.26-.11-.38-.4-.27-.65.11-.26.4-.38.65-.27.8.33,1.47.97,1.84,1.75.37.78.45,1.7.21,2.53-.2.7-.61,1.19-1.16,1.38-.05.02-.11.03-.16.03Z"/>
              <path class="cls-8" d="M415.14,330.85c-.26,0-.48-.2-.5-.47-.02-.27.19-.51.47-.53.02,0,.11-.06.21-.22.24-.4.33-.88.23-1.33-.09-.45-.36-.87-.73-1.14-.22-.16-.27-.48-.11-.7.16-.22.48-.27.7-.11.57.42.98,1.06,1.12,1.75.14.7,0,1.44-.36,2.05-.26.43-.61.67-1,.7-.01,0-.02,0-.03,0Z"/>
              <path class="cls-8" d="M417.55,330.49c-.27,0-.49-.21-.5-.48-.01-.26.18-.48.43-.52.04-.06.06-.14.08-.2.19-.73.05-1.55-.38-2.17-.15-.23-.09-.54.14-.69.23-.15.54-.09.69.14.58.86.77,1.98.52,2.98-.04.16-.1.36-.24.55-.18.24-.44.39-.72.4,0,0-.01,0-.02,0Z"/>
              <path class="cls-8" d="M419.77,330.12c-.12,0-.24-.04-.34-.13-.2-.19-.22-.5-.04-.71.36-.4.53-.95.47-1.48s-.37-1.02-.81-1.32c-.23-.15-.29-.46-.14-.69.15-.23.46-.29.69-.14.68.46,1.15,1.21,1.25,2.03.1.81-.17,1.66-.72,2.27-.1.11-.23.17-.37.17Z"/>
              <path class="cls-8" d="M394.89,311.59c-.15,0-.3-.07-.39-.19-.17-.22-.13-.53.08-.7.61-.48,1.14-1.06,1.56-1.71.15-.23.46-.3.69-.15.23.15.3.46.15.69-.48.75-1.08,1.41-1.78,1.96-.09.07-.2.11-.31.11Z"/>
              <path class="cls-8" d="M359.81,32.27c-.22,0-.42-.14-.48-.36-.41-1.47-1.03-2.88-1.82-4.19-.14-.24-.07-.54.17-.69.24-.14.54-.07.69.17.84,1.38,1.49,2.88,1.93,4.44.07.27-.08.54-.35.62-.05.01-.09.02-.14.02Z"/>
              <path class="cls-8" d="M386.22,32.06s-.08,0-.12-.01c-.27-.07-.43-.33-.37-.6.39-1.62,1.03-3.15,1.9-4.57.14-.24.45-.31.69-.17.24.14.31.45.17.69-.81,1.33-1.41,2.77-1.78,4.29-.06.23-.26.38-.49.38Z"/>
              <g>
                <path class="cls-7" d="M379.92,22.39c-.31.49-1.26.43-2.13-.12-.87-.55-1.31-1.4-1.01-1.88.31-.49,1.26-.43,2.13.12.86.55,1.31,1.4,1,1.88Z"/>
                <path class="cls-7" d="M367.99,20.4c.37.45.02,1.33-.79,1.96-.8.63-1.75.78-2.11.33-.37-.45-.01-1.33.79-1.96.8-.63,1.75-.78,2.11-.34Z"/>
                <path class="cls-6" d="M367.34,33.85c0,1.56-1.27,2.83-2.83,2.83s-2.83-1.27-2.83-2.83,1.27-2.83,2.83-2.83,2.83,1.27,2.83,2.83Z"/>
                <path class="cls-6" d="M384.25,33.85c0,1.56-1.27,2.83-2.83,2.83s-2.83-1.27-2.83-2.83,1.27-2.83,2.83-2.83,2.83,1.27,2.83,2.83Z"/>
                <path class="cls-4" d="M376.05,35.32c-1.36,4.31-4.89,5.56-6.7.15l6.7-.15Z"/>
                <path class="cls-7" d="M366.43,27.31c-.01.71.31,1.28.72,1.29.41,0,.75-.56.76-1.27s-.31-1.28-.72-1.29c-.41,0-.75.56-.76,1.27Z"/>
                <path class="cls-7" d="M376.9,27.14c-.01.71.31,1.28.72,1.29.41,0,.75-.56.76-1.27.01-.71-.31-1.28-.72-1.29-.41,0-.75.56-.76,1.27Z"/>
                <path class="cls-7" d="M373.27,26.4c-.29,1.93-1.05,3.67-2,5.34,0,0-.32-.66-.32-.66,1.21.37,2.42.76,3.58,1.32-1.29-.02-2.55-.2-3.8-.4l-.53-.09c.72-2,1.62-3.91,3.07-5.52h0Z"/>
              </g>
            </g>
          </g>
        </g>
      </g>
    </g>
  </g>
</svg>