<?xml version="1.0" encoding="UTF-8"?>
<svg xmlns="http://www.w3.org/2000/svg" viewBox="0 0 654.98 331.22">
  <defs>
    <style>
      .cls-1 {
        mix-blend-mode: multiply;
      }

      .cls-1, .cls-2 {
        opacity: .46;
      }

      .cls-3 {
        fill: #dca07a;
      }

      .cls-4 {
        isolation: isolate;
      }

      .cls-5 {
        fill: #29a5bb;
      }

      .cls-6 {
        fill: #76c6ce;
      }

      .cls-7 {
        fill: #fff;
      }

      .cls-2 {
        fill: #0f0f0f;
        mix-blend-mode: soft-light;
      }

      .cls-8 {
        fill: #5e5748;
      }

      .cls-9 {
        fill: #bf774f;
      }
    </style>
  </defs>
  <g class="cls-4">
    <g id="_圖層_2" data-name="圖層 2">
      <g id="_圖層_1-2" data-name="圖層 1">
        <g>
          <g>
            <path class="cls-7" d="M148.31,40.46v70.48c0,15.32-4.34,27.19-13.01,35.6-8.68,8.41-21.18,12.61-37.52,12.61s-28.23-4.08-36.8-12.25c-8.57-8.17-12.85-19.92-12.85-35.24V40.46h31.8v68.72c0,8.28,1.55,14.28,4.65,18.02,3.1,3.74,7.66,5.61,13.7,5.61,6.46,0,11.15-1.85,14.06-5.57,2.91-3.71,4.36-9.78,4.36-18.22V40.46h31.64Z"/>
            <path class="cls-7" d="M284.38,157.55h-41.49l-42.77-82.49h-.72c1.01,12.97,1.52,22.88,1.52,29.71v52.78h-28.03V40.46h41.33l42.61,81.37h.48c-.75-11.8-1.12-21.28-1.12-28.43v-52.94h28.19v117.09Z"/>
            <path class="cls-7" d="M409.08,96.52c0,19.54-5.38,34.6-16.14,45.17-10.76,10.57-25.88,15.86-45.37,15.86h-37.88V40.46h40.53c18.79,0,33.3,4.81,43.53,14.42,10.22,9.61,15.34,23.49,15.34,41.65ZM376.24,97.65c0-10.73-2.12-18.69-6.37-23.87-4.24-5.18-10.69-7.77-19.34-7.77h-9.21v65.59h7.05c9.61,0,16.66-2.79,21.14-8.37,4.48-5.58,6.73-14.11,6.73-25.59Z"/>
            <path class="cls-7" d="M499.58,157.55h-69.52V40.46h69.52v25.39h-37.88v18.42h35.08v25.39h-35.08v22.1h37.88v25.79Z"/>
            <path class="cls-7" d="M551.72,114.95v42.61h-31.64V40.46h38.36c31.82,0,47.73,11.53,47.73,34.6,0,13.56-6.62,24.05-19.86,31.48l34.12,51.02h-35.88l-24.83-42.61h-8.01ZM551.72,91.16h5.93c11.05,0,16.58-4.89,16.58-14.66,0-8.06-5.42-12.09-16.26-12.09h-6.25v26.75Z"/>
          </g>
          <g>
            <path class="cls-7" d="M136.63,325.58h-37.4l-11.21-51.02c-.53-2.14-1.38-6.38-2.52-12.73-1.15-6.35-1.99-11.67-2.52-15.94-.43,3.47-1.12,7.78-2.08,12.93-.96,5.15-1.91,9.89-2.84,14.22-.93,4.33-4.82,21.84-11.65,52.54H28.99L0,208.49h30.51l12.73,58.71c2.88,12.97,4.86,23.31,5.93,31,.69-5.45,1.93-12.84,3.72-22.19,1.79-9.34,3.46-17.09,5.01-23.23l10.33-44.29h29.31l10.01,44.29c1.71,7.1,3.44,15.3,5.21,24.59,1.76,9.29,2.94,16.23,3.52,20.82.69-5.93,2.59-16.2,5.69-30.83l12.97-58.87h30.51l-28.83,117.09Z"/>
            <path class="cls-7" d="M250.12,325.58h-69.52v-117.09h69.52v25.39h-37.88v18.42h35.08v25.39h-35.08v22.1h37.88v25.79Z"/>
            <path class="cls-7" d="M270.62,325.58v-117.09h31.8v117.09h-31.8Z"/>
            <path class="cls-7" d="M374.74,257.02h50.54v63.11c-13.72,4.7-28.81,7.05-45.25,7.05-18.05,0-32-5.23-41.85-15.7-9.85-10.46-14.78-25.39-14.78-44.77s5.39-33.61,16.18-44.13c10.78-10.52,25.9-15.78,45.33-15.78,7.37,0,14.32.69,20.86,2.08,6.54,1.39,12.24,3.15,17.1,5.29l-10.01,24.83c-8.44-4.16-17.7-6.25-27.79-6.25-9.24,0-16.38,3-21.42,9.01-5.05,6.01-7.57,14.59-7.57,25.75s2.28,19.29,6.85,25.03c4.57,5.74,11.15,8.61,19.74,8.61,4.7,0,9.02-.45,12.97-1.36v-18.34h-20.9v-24.43Z"/>
            <path class="cls-7" d="M549.5,325.58h-31.8v-47.73h-36.76v47.73h-31.8v-117.09h31.8v43.41h36.76v-43.41h31.8v117.09Z"/>
            <path class="cls-7" d="M626.46,325.58h-31.64v-91.22h-28.59v-25.87h88.74v25.87h-28.51v91.22Z"/>
          </g>
          <g>
            <path class="cls-9" d="M274.36,72.57c-4.42,5.38-14.6,3.6-14.6,3.6l1.31-5.84c1.8,1.84,4.05,3.24,6.75,3.33.1.01.2.01.3.01h0c.1,0,.2,0,.3-.01,2.21-.08,4.12-1.03,5.73-2.39l.2,1.31Z"/>
            <path class="cls-6" d="M289.22,102.86c-.79,5.28-2.06,13.82-3.22,21.64-15.48-7.03-43.57-2.22-43.57-2.22-.58-4.05-1.17-8.19-1.69-11.8,5.21-7.04,4.82-22.61,4.36-29.35h.01c-.14-2-.28-3.21-.28-3.21.56-.05,1.13-.08,1.72-.12h0s-.03,1.25.09,3.22c.48,7.71,3.14,19.45,17.95,19.45,18.6,0,22.28-21.81,22.28-21.81l1.6.08s-5.22,19.08.75,24.12Z"/>
            <path class="cls-3" d="M288.47,78.74l-1.6-.08s-3.68,21.81-22.28,21.81c-14.81,0-17.47-11.74-17.94-19.45-.12-1.97-.1-3.21-.1-3.21h0c6.03-.34,12.9-.3,12.9-.3l.31-1.35s10.18,1.79,14.6-3.6l.91,5.86s7.1-.04,13.2.32Z"/>
            <path class="cls-3" d="M237.62,154.48c-6.53,1.79-9.37-4.65-9.37-4.65,0,0-22.83-24.9-23.54-25.96-.71-1.06-.96-4.54,0-6.25.96-1.71,29.53-37.6,34.17-38.91,1.3-.37,3.48-.62,5.95-.8,0,0,.14,1.22.27,3.21.45,6.74.85,22.31-4.36,29.35-.89-6.28-1.56-10.99-1.56-10.99l-20.72,19.05,15.43,26.13s4.06-1.52,7.35-2.71c2-.73,3.72-1.34,4.06-1.42.89-.2,1.94.13,1.94.13,0,0,8.81,4.37,8.62,5.31s-2.32,1.38-3.98,1.34c-1.66-.04-4.66-1.91-4.66-1.91l-1.28,1.1s4.85,2.77,4.88,3.38c.04.61-.12,3.93-.12,3.93,0,0,1.95,3.05,1.79,3.58-.16.53-2.64.12-2.64.12,0,0,.58.88.15,1.44-.43.55-2.9.18-2.9.18l-.15.7c-2.67.35-4.44-3.57-4.44-3.57l-4.08-2.04c-.28.1-.55.19-.82.26Z"/>
            <path class="cls-3" d="M286.35,142.15c.68-.35,1.12-.57,1.12-.57,0,0,1.05-.33,1.94-.12.9.2,11.42,4.13,11.42,4.13l6.77-25.84-17.61-22s-.3,1.99-.76,5.12c-5.97-5.04-.75-24.12-.75-24.12,3.04.18,5.82.46,7.36.89,4.63,1.31,24.56,37.49,25.52,39.21.96,1.71.71,5.19,0,6.25-.71,1.06-14.89,25.66-14.89,25.66,0,0-3.08,6.98-10.18,4.38l-4.08,2.04s-.26.57-.71,1.25c-.75,1.12-2.06,2.55-3.72,2.33l-.15-.71s-2.47.38-2.9-.17c-.43-.55.15-1.44.15-1.44,0,0-2.48.41-2.64-.12-.16-.51,1.68-3.4,1.78-3.57h0s-.17-3.33-.13-3.93c.04-.61,4.89-3.38,4.89-3.38l-1.28-1.11s-3,1.88-4.66,1.91-3.8-.39-3.98-1.34c-.15-.73,5.13-3.53,7.5-4.75Z"/>
            <path class="cls-3" d="M283.61,230.88s1.39,10.94,1.14,19.81c-.26,8.87-5.72,51.15-5.72,51.15l.12,6.24s2.87,18.17,1.87,19.53c-1,1.35-11.11.28-11.11.28,0,0-1.82.11-3.01-.4.09-3.26.29-9.71-.04-13.72.29-2.53.66-4.74,1.14-5.8,1.38-3.1,2.44-6.91,2.44-6.91l-2.5-44.34c.67-9.79,1.19-17.45,1.19-18.33,0-2.62-2.19-59.31-2.19-59.31l24.98-18.65c.47,2.46.7,4.69.68,6.41,0,0-1.46,27.97-8.99,64.04Z"/>
            <path class="cls-6" d="M291.92,160.43l-24.98,18.65-29.64-10.59c-.52-5.83-.28-8.63-.28-8.63,0,0,20.67,6.83,47-5.13-.11.17-1.95,3.06-1.78,3.57.16.53,2.64.12,2.64.12,0,0-.58.89-.15,1.44.43.55,2.9.17,2.9.17l.15.71c1.66.22,2.97-1.21,3.72-2.33.16.69.3,1.36.42,2.01Z"/>
            <path class="cls-3" d="M288.78,147.43s-.02,0-.05.03c-.54.31-4.81,2.78-4.84,3.35-.04.6.13,3.93.13,3.93h-.01c-26.32,11.96-46.99,5.13-46.99,5.13-.02-1.57.21-3.42.6-5.38.27-.08,3.36-12.43,3.63-12.53,1.55-4.33,2.93-7.54,2.93-7.54-.5-3.44-1.12-7.73-1.75-12.13,0,0,28.1-4.81,43.58,2.22-.7,4.74-1.37,9.22-1.85,12.55,0,0,3.35,7.31,4.62,10.37Z"/>
            <path class="cls-3" d="M283.72,52.13c.63.24,1.02,1.2.99,3.35-.05,2.77-1.7,4.94-2.39,5.46-.68.51-1.54.14-1.54.14l-.23-.05c.12-.52.21-1.06.27-1.6.11-1.14.25-2.67.35-3.89.54-.98,1-2.03,1.34-3.13.2-.17.41-.29.62-.33.22-.04.41-.03.6.05Z"/>
            <path class="cls-8" d="M261.24,32.91c2.07-1.14,4.41-1.77,6.89-1.77,3.8,0,7.27,1.5,9.93,3.96,3.2,2.96,5.22,7.32,5.22,12.19,0,1.78-.27,3.5-.78,5.11-.34,1.1-.79,2.15-1.34,3.13.04-.57.09-1.07.11-1.44h0c-.3-.05-.59-.1-.86-.16-.09-.02-.18-.04-.26-.07-.06-.02-.12-.03-.17-.04-.07-.02-.14-.04-.21-.06-.08-.02-.16-.04-.24-.07-.01,0-.02,0-.03-.01,0,0-.02,0-.02,0,0,0-.01,0-.02,0-.02-.01-.03-.01-.04-.02,0,0-.01,0-.02,0h0s0,0-.01,0c-.01,0-.02,0-.04-.01-.02,0-.03-.01-.04-.02h0s-.09-.03-.13-.05h0s-.09-.03-.13-.05c-.11-.04-.22-.09-.33-.14-.21-.1-.41-.2-.59-.31-.18-.11-.36-.22-.52-.34-.11-.08-.21-.16-.31-.25s-.19-.17-.28-.27c-2.14-2.18-1.78-5.72-3.78-8.88-.67-1.06-1.47-1.92-2.3-2.61-.11-.1-.23-.2-.35-.29-.16-.12-.32-.24-.47-.35-.26-.18-.51-.35-.76-.5-.37-.23-.73-.42-1.08-.59-.2-.1-.39-.18-.58-.27-.28-.12-.54-.22-.78-.31-.12-.04-.23-.08-.34-.11-.06-.02-.11-.04-.17-.05-.05-.02-.09-.03-.14-.04h0c-.14-.04-.27-.08-.38-.1-.04-.01-.07-.02-.1-.03-.01,0-.02,0-.02,0-.04-.01-.07-.02-.1-.02h0s-.07-.02-.09-.02c-.08-.02-.12-.03-.12-.03,0,0,0,0,0,0-.27.13-.52.27-.77.41-.25.15-.5.29-.73.45-.24.16-.47.32-.7.48-.23.16-.45.33-.66.5-.46.36-.89.75-1.29,1.14-.14.12-.27.26-.4.4-.39.4-.75.82-1.09,1.24-.22.28-.44.57-.65.85-.21.28-.4.58-.59.86-.65,1.02-1.19,2.04-1.63,3.03-.12.28-.25.56-.35.84-.11.27-.21.54-.31.81-.15.4-.27.78-.39,1.15-.08.25-.15.48-.21.71-.03.11-.07.23-.09.34-.12.44-.22.84-.29,1.2-.02.08-.03.16-.05.24,0,.03-.02.06-.02.09-.03.17-.06.33-.09.47-.03.15-.05.29-.07.4-.01.06-.02.11-.02.16-.02.09-.03.17-.03.22,0,.06-.01.09-.01.09,0,0-.53-1.11-1.22-1.69-.51-1.61-.78-3.32-.78-5.11,0-6.28,3.35-11.72,8.26-14.39Z"/>
            <path class="cls-3" d="M261.07,70.32c-.59-.6-1.14-1.26-1.63-1.92-1.45-1.94-2.49-4.02-3.11-5.47-.25-.58-.46-1.18-.61-1.78-.15-.57-.25-1.14-.31-1.72-.14-1.33-.25-2.71-.33-3.9-.03-.55-.07-1.06-.09-1.51,0-.05.02-.12.03-.22,0-.05.01-.1.02-.16.02-.11.04-.25.07-.4.03-.14.05-.3.09-.47,0-.03.02-.06.02-.09.02-.08.04-.16.05-.24.08-.35.17-.76.29-1.2.03-.11.06-.22.09-.34.07-.23.14-.47.21-.71.11-.36.25-.75.39-1.15.1-.26.2-.53.31-.81.11-.28.23-.56.35-.84.44-.99.98-2.01,1.63-3.03.18-.29.38-.58.59-.86.21-.29.42-.57.65-.85.34-.42.7-.84,1.09-1.24.13-.13.26-.27.4-.4.4-.39.83-.77,1.29-1.14.21-.17.43-.34.66-.5.22-.16.46-.32.7-.48.24-.15.48-.3.73-.45.25-.14.51-.28.77-.41,0,0,.02,0,.05.01.02,0,.04,0,.07.01.03,0,.05.01.09.02h0s.06.01.1.02c0,0,.01,0,.02,0,.03,0,.07.02.1.03.1.03.23.07.38.1h0s.09.03.14.04c.05.02.11.03.17.05.11.04.22.07.34.11.24.09.51.19.78.31.19.08.38.17.58.27.34.17.71.36,1.08.59.25.15.51.32.76.5.16.11.32.23.47.35.12.09.24.18.35.28.83.69,1.63,1.55,2.3,2.61,2,3.15,1.64,6.7,3.78,8.88.09.09.18.18.28.27.1.09.2.17.31.25.16.12.34.23.52.34.18.11.38.21.59.31.1.05.22.09.33.14.04.02.09.03.13.05h0s.08.03.12.05h0s.03.01.04.02c.01,0,.03.01.04.02h.02s.01,0,.02,0c.01,0,.02,0,.04.02,0,0,.01,0,.02,0s.02,0,.02,0c.01,0,.02,0,.03.01.08.03.16.05.24.07.07.02.14.04.21.06.05.02.11.03.17.05.09.02.17.04.26.06.27.05.56.11.86.16h0c-.02.37-.07.87-.11,1.44-.1,1.22-.25,2.75-.35,3.89-.05.54-.14,1.08-.27,1.6-.16.68-.38,1.34-.65,1.99-.64,1.45-1.67,3.5-3.09,5.41-.76,1.02-1.64,2.01-2.64,2.83-1.61,1.36-3.52,2.31-5.73,2.39-.1.01-.2.01-.3.01h0c-.1,0-.2,0-.3-.01-2.69-.09-4.94-1.49-6.74-3.33Z"/>
            <path class="cls-8" d="M279.37,30.26c.1,1.7-.35,3.45-1.32,4.84-2.66-2.47-6.13-3.96-9.93-3.96-2.48,0-4.82.64-6.89,1.77-.9-.8-1.46-2.02-1.51-3.25-.05-1.75.81-3.44,2.05-4.67,1.24-1.23,2.82-2.06,4.45-2.71,1.68-.67,3.49-1.19,5.3-.97,2.16.26,4.1,1.57,5.49,3.24,1.34,1.61,2.24,3.62,2.36,5.7Z"/>
            <path class="cls-3" d="M267.94,256.72c-1.34,19.41-3.34,47.19-3.34,47.19,0,0,.71,3.89,1.81,7.11.21.61.35,1.58.46,2.75.33,4,.13,10.45.04,13.72-.02.8-.04,1.42-.04,1.75,0,2.08-4.16,1.44-4.16,1.44,0,0-10.17.15-11.04-1.28s3.63-19.28,3.63-19.28l.68-6.2s-6.24-36.86-6.81-45.36c-.57-8.51,4.08-29.04,4.08-29.04-11.62-30.72-15.02-50.66-15.96-61.02l29.64,10.59s2.19,56.69,2.19,59.31c0,.88-.51,8.54-1.18,18.33Z"/>
            <path class="cls-3" d="M251.9,52.79c.28-.61.71-.79,1.23-.71.21.04.42.16.62.33.68.58,1.22,1.69,1.22,1.69,0,0,0-.03.01-.09,0-.05.02-.13.03-.22-.01.1-.02.17-.03.22.03.45.06.96.09,1.51.09,1.19.2,2.57.33,3.9.06.58.16,1.16.31,1.72-.45.08-1.29.16-1.78-.2-.68-.52-2.33-2.69-2.39-5.46-.02-1.29.11-2.15.36-2.69Z"/>
            <polygon points="283.53 52.76 283.53 52.75 284.53 52.75 283.53 52.76"/>
            <path class="cls-9" d="M281.44,59.9s-.09,0-.14-.02c-.27-.07-.42-.35-.35-.62.44-1.57,1.1-3.08,1.95-4.47.14-.24.45-.31.69-.17.24.14.31.45.17.69-.8,1.32-1.42,2.74-1.84,4.22-.06.22-.26.37-.48.37Z"/>
            <path class="cls-9" d="M254.83,59.7c-.23,0-.43-.15-.49-.38-.37-1.53-.97-2.98-1.79-4.32-.14-.24-.07-.54.17-.69.24-.14.54-.07.69.17.87,1.43,1.52,2.98,1.91,4.61.07.27-.1.54-.37.6-.04.01-.08.01-.12.01Z"/>
            <path class="cls-9" d="M250.73,158.19c-.38,0-.76-.07-1.07-.21-.25-.11-.37-.4-.26-.66.11-.25.4-.37.66-.26.4.18,1.01.16,1.45-.02.22-.09.37-.22.42-.35.04-.3-.72-1.52-1.6-2.55-.08-.1-.12-.22-.12-.34.05-1.69.04-3.72-.09-4.05-.19-.18-2.26-1.5-4.11-2.64-.12-.07-.2-.19-.23-.33-.03-.14,0-.28.09-.39l.96-1.29c.08-.11.21-.18.35-.2.14-.01.28.03.38.12.02.02,2.32,2.05,4.57,1.79,1.7-.19,2.42-.71,2.49-.88-.02.01-.08-.04-.23-.12-.36-.18-1.12-.58-2.03-1.08-1.89-1.02-5.4-2.92-6.13-3.01-.87-.11-3.82.47-4.87.71-.27.06-.54-.11-.6-.38-.06-.27.11-.54.38-.6.41-.09,4.01-.87,5.21-.72.85.11,3.43,1.48,6.48,3.12.9.48,1.63.88,1.99,1.05.82.39.82.96.78,1.18-.17,1-1.85,1.54-3.36,1.71-2.09.24-4.08-1.05-4.93-1.7l-.32.43c1.54.95,3.7,2.31,3.96,2.66.1.14.37.5.26,4.43.81.97,1.97,2.55,1.65,3.41-.15.4-.48.71-.97.91-.35.15-.76.23-1.16.23Z"/>
            <path class="cls-9" d="M249.34,159.96c-.78,0-1.73-.39-2.07-.55-.25-.11-.36-.41-.25-.66.11-.25.41-.36.66-.25.76.34,1.66.55,1.86.44-.03-.81-.55-1.75-1.06-2.66-.11-.19-.21-.39-.32-.57-.38-.72-.45-1.8-.5-2.68-.02-.32-.04-.75-.08-.95-.79-.39-4.08-2.1-4.24-2.18-.25-.13-.34-.43-.21-.67.13-.25.43-.34.67-.21,1.1.57,4.02,2.09,4.32,2.22.45.2.48.75.54,1.74.04.77.1,1.74.38,2.26.1.18.2.37.31.56.57,1.02,1.16,2.08,1.15,3.16,0,.35-.15.65-.43.82-.2.13-.46.18-.74.18ZM247.72,152.14s0,0,0,0c0,0,0,0,0,0Z"/>
            <path class="cls-9" d="M246.22,160.03c-.22,0-.43-.05-.64-.15-.99-.49-2.25-1.45-2.73-3.29l-4.42-1.83c-.71.26-3.1,1.05-4.92.29-.26-.11-.38-.4-.27-.65.11-.25.4-.37.65-.27,1.72.71,4.32-.36,4.35-.37.12-.05.26-.05.38,0l4.84,2.01c.15.06.26.2.3.36.35,1.61,1.42,2.45,2.26,2.86.2.1.36.02.42-.02.06-.04.2-.16.19-.38-.08-1.25-.59-2.7-1.09-3.09-.96-.76-4.9-3.63-4.94-3.65-.22-.16-.27-.48-.11-.7.16-.22.47-.27.7-.11.16.12,3.99,2.91,4.97,3.68.84.66,1.39,2.46,1.47,3.81.03.52-.2.99-.63,1.28-.24.16-.51.24-.78.24Z"/>
            <path class="cls-9" d="M232.12,146.78c-.08,0-.17-.02-.24-.06-.24-.13-.33-.44-.19-.68.03-.06.77-1.37,2.04-1.84.26-.1.55.04.64.29.1.26-.03.55-.29.64-.91.34-1.51,1.38-1.51,1.39-.09.17-.26.26-.44.26Z"/>
            <path class="cls-9" d="M302.24,148.68c-.23,0-.44-.16-.49-.4-.15-.73-.5-1.4-1.01-1.95-.19-.2-.18-.52.02-.71.2-.19.52-.18.71.02.63.68,1.07,1.52,1.26,2.42.06.27-.12.54-.39.59-.03,0-.07,0-.1,0Z"/>
            <path class="cls-9" d="M284.01,155.24c-.24,0-.45-.17-.49-.41-.1-.53-.55-3.24-.09-4.23.38-.83,3.04-2.43,4.48-3.25l-.48-.42c-.89.48-3.47,1.84-5.34,2.24-2.06.45-3.32-1.16-3.7-2.08-.11-.25.01-.54.26-.65,1.89-.82,7.35-4.66,7.41-4.7.23-.16.54-.1.7.12.16.23.11.54-.12.7-.21.15-4.83,3.4-7.09,4.56.35.53,1.1,1.34,2.34,1.07,2.09-.46,5.34-2.29,5.37-2.31.18-.1.41-.08.57.06l1.28,1.11c.12.11.19.27.17.43-.02.16-.11.31-.25.39-2.08,1.15-4.46,2.68-4.68,3.15-.24.52-.05,2.44.16,3.63.05.27-.13.53-.4.58-.03,0-.06,0-.09,0Z"/>
            <path class="cls-9" d="M284.31,159.25c-.14,0-.28-.06-.38-.17-.18-.21-.16-.52.05-.71,1.03-.9,1.68-2.24,1.74-3.6,0-.15,0-.29,0-.44,0-.45,0-.91.15-1.37.31-1.01,1.14-1.61,1.93-2.19.63-.45,1.22-.88,1.51-1.48.12-.25.42-.35.67-.23.25.12.35.42.22.67-.4.81-1.12,1.33-1.82,1.84-.69.5-1.35.98-1.57,1.67-.1.32-.1.69-.1,1.08,0,.16,0,.32,0,.48-.07,1.63-.85,3.24-2.08,4.32-.1.08-.21.12-.33.12Z"/>
            <path class="cls-9" d="M287.25,160.84c-.14,0-.27-.06-.37-.16-.18-.21-.17-.52.04-.71.35-.32.54-.87.58-1.7v-.44c.03-.64.04-1.29.3-1.93.35-.88,1.05-1.48,1.73-2.06.67-.58,1.31-1.12,1.49-1.86.07-.27.34-.43.61-.36.27.07.43.34.36.61-.26,1.04-1.05,1.72-1.81,2.37-.61.53-1.19,1.02-1.45,1.67-.19.47-.2,1.01-.21,1.58,0,.15,0,.31-.01.46-.05,1.11-.35,1.9-.91,2.4-.1.09-.22.13-.33.13Z"/>
            <path class="cls-9" d="M267.31,266.3s-.02,0-.04,0c-.28-.02-.48-.26-.46-.53.01-.16,1.14-16.46,1.82-27.4.68-10.91-2.16-58.77-2.19-59.25-.02-.28.19-.51.47-.53.27-.02.51.19.53.47.03.48,2.88,48.4,2.19,59.37-.68,10.94-1.81,27.24-1.82,27.41-.02.26-.24.46-.5.46Z"/>
            <path class="cls-9" d="M263.3,234.61c-2.37,0-4.75-.93-6.42-2.63-.19-.2-.19-.51,0-.71.2-.19.51-.19.71,0,2.16,2.2,5.66,2.94,8.52,1.8.26-.1.55.02.65.28.1.26-.02.55-.28.65-1.02.41-2.1.6-3.19.6Z"/>
            <path class="cls-9" d="M277.61,236.14c-1.84,0-3.69-.58-5.15-1.69-.22-.17-.26-.48-.1-.7.17-.22.48-.26.7-.1,2.11,1.6,5.14,1.95,7.55.85.25-.11.55,0,.66.25.11.25,0,.55-.25.66-1.07.48-2.24.72-3.42.72Z"/>
            <path class="cls-9" d="M238.99,99.69c-.24,0-.46-.18-.49-.43-.27-1.82-.68-3.63-1.21-5.38-.08-.26.07-.54.33-.62.26-.08.54.07.62.33.54,1.8.96,3.66,1.24,5.52.04.27-.15.53-.42.57-.03,0-.05,0-.08,0Z"/>
            <path class="cls-9" d="M289.63,98.25s-.03,0-.04,0c-.28-.02-.48-.26-.46-.54.14-1.7.68-3.37,1.55-4.84.14-.24.45-.32.69-.17.24.14.32.45.17.69-.8,1.34-1.28,2.86-1.41,4.41-.02.26-.24.46-.5.46Z"/>
            <path class="cls-9" d="M307.62,120.25c-.09,0-.17-.02-.25-.07-.24-.14-.32-.45-.18-.68.88-1.49,2.25-2.65,3.87-3.26.26-.1.55.03.65.29.1.26-.03.55-.29.65-1.4.54-2.6,1.54-3.36,2.83-.09.16-.26.25-.43.25Z"/>
            <path class="cls-9" d="M218.5,118.96c-.1,0-.21-.03-.3-.1-.96-.73-2.2-1.12-3.42-1.05-.28.02-.51-.2-.53-.47-.02-.27.2-.51.47-.53,1.44-.09,2.93.38,4.08,1.26.22.17.26.48.09.7-.1.13-.25.2-.4.2Z"/>
            <path class="cls-9" d="M264.07,151.18c-.11,0-.22-.04-.32-.11l-2.24-1.85c-.21-.18-.24-.49-.07-.7.17-.21.49-.24.7-.07l2.24,1.85c.21.18.24.49.07.7-.1.12-.24.18-.39.18Z"/>
            <path class="cls-9" d="M258.19,306.84c-.23,0-.44-.16-.49-.39-.06-.27.11-.54.38-.6,1.37-.31,2.78-.41,4.18-.31.28.02.48.26.46.54-.02.27-.27.48-.54.46-1.31-.1-2.61,0-3.89.28-.04,0-.07.01-.11.01Z"/>
            <path class="cls-9" d="M276.54,304.98c-.06,0-.12-.01-.18-.03-1.11-.44-2.37-.52-3.53-.24-.27.06-.54-.1-.6-.37-.07-.27.1-.54.37-.6,1.36-.33,2.83-.23,4.13.28.26.1.38.39.28.65-.08.2-.26.32-.46.32Z"/>
            <path class="cls-9" d="M270.35,328.32c-.19,0-.37-.11-.46-.3-.11-.25,0-.55.25-.66.39-.18.57-.71.53-1.15-.04-.56-.33-1.11-.61-1.64-.13-.24-.03-.55.21-.67.25-.13.55-.03.68.21.31.59.66,1.26.72,2.02.06.79-.26,1.75-1.12,2.14-.07.03-.14.04-.2.04Z"/>
            <path class="cls-9" d="M274.02,328.87c-.11,0-.23-.04-.32-.12-.21-.18-.24-.49-.06-.7.24-.29.36-.68.33-1.06-.04-.37-.24-.73-.54-.97-.22-.17-.26-.48-.09-.7.17-.22.48-.26.7-.09.51.4.85,1,.92,1.65s-.14,1.31-.56,1.81c-.1.12-.24.18-.38.18Z"/>
            <path class="cls-9" d="M276.42,328.65c-.11,0-.22-.04-.32-.11-.21-.17-.24-.49-.07-.7.23-.28.22-.71.14-1.02-.12-.43-.38-.83-.64-1.22-.15-.23-.09-.54.14-.69.23-.15.54-.09.69.14.29.43.62.93.78,1.51.19.71.07,1.43-.33,1.92-.1.12-.24.18-.39.18Z"/>
            <path class="cls-9" d="M278.83,328.59c-.15,0-.29-.06-.39-.19-.17-.22-.14-.53.08-.7.23-.19.39-.48.42-.77.03-.3-.08-.61-.27-.83-.18-.21-.16-.52.05-.71.21-.18.52-.16.71.05.38.43.57,1.01.52,1.58-.05.57-.34,1.11-.79,1.47-.09.07-.2.11-.31.11Z"/>
            <path class="cls-9" d="M262.85,331.22c-.12,0-.24-.04-.33-.13-.71-.64-1.17-1.55-1.25-2.5-.09-.95.19-1.93.76-2.7.17-.22.48-.27.7-.1.22.17.26.48.1.7-.43.57-.63,1.3-.56,2,.07.71.41,1.38.93,1.86.21.18.22.5.04.71-.1.11-.24.17-.37.17Z"/>
            <path class="cls-9" d="M259.11,330.65c-.18,0-.35-.1-.44-.27-.55-1.05-.48-2.42.19-3.4.15-.23.47-.29.69-.13.23.15.29.47.13.69-.46.69-.52,1.64-.13,2.37.13.24.04.55-.21.68-.08.04-.16.06-.23.06Z"/>
            <path class="cls-9" d="M256.33,330.73c-.18,0-.35-.1-.44-.27-.64-1.2-.3-2.79.78-3.61.22-.17.53-.13.7.09.17.22.13.53-.09.7-.68.52-.91,1.59-.51,2.35.13.24.04.55-.21.68-.08.04-.16.06-.24.06Z"/>
            <path class="cls-9" d="M253.67,330.3c-.15,0-.31-.07-.4-.2-.66-.89-.74-2.15-.2-3.11.13-.24.44-.33.68-.19.24.14.33.44.19.68-.35.62-.29,1.46.13,2.04.16.22.12.54-.11.7-.09.06-.19.1-.3.1Z"/>
            <path class="cls-9" d="M266.88,328.87h-.01c-.28,0-.5-.23-.49-.51,0-.08.17-8.11.16-10.02,0-1.86-.26-5.38-.41-6.37-.14-.94-.94-3.27-.95-3.29-.09-.26.05-.55.31-.64.26-.09.54.05.64.31.03.1.84,2.44,1,3.47.16,1.04.42,4.58.43,6.52,0,1.92-.16,9.97-.16,10.05,0,.27-.23.49-.5.49Z"/>
            <g>
              <path class="cls-5" d="M401.27,158.37c-19.72-.46-27.79,14.48-27.79,14.48-1.59.68-3.22,0-3.22,0,0,0-7.39-14.43-27.79-14.39.13-6.44.43-11.42.69-13.47,0,0,6.76,3.44,27.71,3.44s29.72-3.44,29.72-3.44c.25,2.04.56,6.99.69,13.39Z"/>
              <polygon class="cls-3" points="361 54.78 363.32 35.96 380.84 37.94 382.91 53.16 361 54.78"/>
              <path class="cls-3" d="M408.41,323.15s5.01,2.17,2.27,5.11c0,0-1.16,1.81-3.67,2.02-1.96.17-6.71.43-8.67.53-.57.03-1.12-.11-1.61-.4l-5.32-3.21s-4.96-1.42-5.83-2.7c-.87-1.27,1.54-13,1.54-13,0,0-.67-2.12.1-6.23l-10.01-68.2s-.84-6.17-.9-9.25c-.06-3.08-2.83-54.97-2.83-54.97,0,0,8.07-14.93,27.79-14.48.21,10.56-.04,25.07-1.72,36.96-2.7,19.07-3.08,44.3-3.08,44.3,0,0,3.67,18.07,3.18,24.66-.48,6.6-1.01,46.09-1.16,48.16,0,0,4.24,7.17,9.92,10.69Z"/>
              <path class="cls-3" d="M370.25,172.85s-2.76,51.89-2.83,54.97c-.06,3.08-.9,9.25-.9,9.25l-10.01,68.2c.77,4.11.1,6.23.1,6.23,0,0,2.4,11.73,1.54,13-.87,1.27-5.83,2.7-5.83,2.7l-5.32,3.21c-.49.29-1.04.43-1.61.4-1.96-.1-6.71-.36-8.68-.53-2.5-.21-3.66-2.02-3.66-2.02-2.74-2.94,2.27-5.11,2.27-5.11,5.68-3.51,9.92-10.69,9.92-10.69-.15-2.07-.68-41.57-1.16-48.16-.49-6.6,3.17-24.66,3.17-24.66,0,0-.38-25.23-3.08-44.3-1.68-11.85-1.93-26.32-1.72-36.88,20.4-.04,27.79,14.39,27.79,14.39Z"/>
              <path class="cls-3" d="M425.11,166.95s1.86,16.15,1.35,17.6c-.51,1.44-1.54,2.5-1.54,2.5,0,0-.06,1.93-.19,2.51-.13.57-1.86,2.18-1.86,2.18,0,0-.87,1.22-2.24,1.86-1.39.64-4.5,1.8-4.5,1.8l-3.28,2.5s-2.02-.54-.89-2.56,2.95-4.82,2.95-4.82l.83-9.57s-1.28.04-1.28,1.35-.39,5.97-.96,6.74c-.57.77-2.47,1.89-3.34,1.6s.96-6.2.26-8.54c-.71-2.34-.03-4.66.26-5.52.29-.87,4.56-10.4,4.56-10.4,0,0-7.96-35.07-8.6-37.12-.65-2.06-.39-7.19-.39-7.19l-6.68-25.24-2.38,18.95s2.73,23.99,3.41,29.41c0,0-8.77,3.44-29.72,3.44s-27.71-3.44-27.71-3.44c.68-5.43,3.41-29.41,3.41-29.41l-2.38-18.95-6.68,25.24s.26,5.13-.39,7.19c-.64,2.05-8.6,37.12-8.6,37.12,0,0,4.27,9.54,4.56,10.4.28.87.96,3.18.26,5.52s1.12,8.25.26,8.54c-.87.29-2.76-.83-3.34-1.6-.58-.78-.96-5.43-.96-6.74s-1.28-1.35-1.28-1.35l.83,9.57s1.83,2.79,2.95,4.82c1.12,2.02-.89,2.56-.89,2.56l-3.28-2.5s-3.11-1.16-4.5-1.8c-1.38-.64-2.25-1.86-2.25-1.86,0,0-1.73-1.61-1.86-2.18-.12-.58-.19-2.51-.19-2.51,0,0-1.03-1.06-1.54-2.5-.51-1.45,1.35-17.6,1.35-17.6,0,0,2.89-34.1,3.85-38.92.96-4.82,2.95-12.45,2.95-12.45,0,0,4.23-38.92,6.81-48.3,2.57-9.37,13.87-10.27,13.87-10.27l15.28-7.07s13.42,2.09,20.23-7.17h0l.71,7.17,15.28,7.07s11.3.9,13.87,10.27c2.56,9.38,6.8,48.3,6.8,48.3,0,0,1.99,7.64,2.95,12.45.96,4.82,3.85,38.92,3.85,38.92Z"/>
              <path class="cls-3" d="M383.82,32.25c.24-2.37.4-5.06.49-6.81,0,0,.57-1.2,1.3-1.73.16-.12.33-.21.51-.24.94-.16,1.59.62,1.54,3.31-.05,2.7-1.66,4.82-2.33,5.32-.66.5-1.5.14-1.5.14Z"/>
              <path class="cls-3" d="M358.69,25.43h0c-.06-1.12-.08-1.83-.08-1.83,0,0,.02-3.27,1.19-7.35,1.16-4.08,3.55-5.14,4.89-4.98,1.34.17,2.83.98,6.83.98s5.48-.8,6.82-.98c1.34-.17,3.72.89,4.89,4.98,1.16,4.08,1.18,7.35,1.18,7.35,0,0-.03.73-.09,1.84-.09,1.75-.26,4.43-.49,6.81-.17,1.68-.37,3.19-.6,4.1-.25.95-1,2.11-1.94,3.29-2.09,2.58-5.14,5.24-6.06,5.81-1.34.83-3.71.89-3.71.89,0,0-2.38-.06-3.72-.89-.83-.52-3.41-2.74-5.44-5.07-1.23-1.42-2.26-2.88-2.55-4.03-.24-.91-.44-2.43-.6-4.1-.24-2.38-.41-5.08-.51-6.82Z"/>
              <path class="cls-3" d="M358.69,25.43c.1,1.74.26,4.44.51,6.82h0s-.83.35-1.5-.14c-.67-.5-2.28-2.61-2.33-5.32-.05-2.7.61-3.47,1.54-3.31.17.03.34.11.5.23.67.49,1.21,1.56,1.29,1.72,0,0,0,0,0,0Z"/>
              <path class="cls-8" d="M378.45,4.28c1.05.33,2.2.78,3.28,1.41,3.15,1.83,5.5,5.76,4.93,9.39-.46,2.94-.89,7.12-1.05,8.64-.73.53-1.3,1.73-1.3,1.73.06-1.12.09-1.84.09-1.84,0,0-.02-3.27-1.18-7.35-1.17-4.08-3.55-5.14-4.89-4.98-1.34.17-2.83.98-6.82.98s-5.49-.8-6.83-.98c-1.34-.17-3.72.89-4.89,4.98-1.17,4.08-1.19,7.35-1.19,7.35,0,0,.03.71.08,1.82-.08-.16-.62-1.23-1.29-1.72-.15-1.51-.58-5.7-1.05-8.63-.57-3.63,1.79-7.56,4.93-9.39.12-.07.24-.14.37-.2.31-.98.77-1.92,1.4-2.74.92-1.18,2.2-2.11,3.66-2.51,1.64-.45,3.4-.21,5,.35,1.6.57,3.06,1.46,4.51,2.33.75.45,1.49.9,2.23,1.35Z"/>
              <path class="cls-9" d="M346.56,116.07c-.24,0-.46-.18-.49-.42-.98-6.3-3.89-34.13-3.92-34.42-.03-.27.17-.52.44-.55.28-.03.52.17.55.45.03.28,2.94,28.09,3.92,34.37.04.27-.14.53-.42.57-.03,0-.05,0-.08,0Z"/>
              <path class="cls-9" d="M343.97,94.1c-.17,0-.34-.09-.43-.25l-4.7-7.99c-.14-.24-.06-.54.18-.68.24-.14.54-.06.68.18l4.7,7.99c.14.24.06.54-.18.68-.08.05-.17.07-.25.07Z"/>
              <path class="cls-9" d="M390.61,99.7s-.07,0-.1,0c-14.11-2.84-38.96-.02-39.21,0-.27.04-.52-.16-.55-.44s.17-.52.44-.55c.25-.03,25.26-2.87,39.52,0,.27.05.45.32.39.59-.05.24-.26.4-.49.4Z"/>
              <path class="cls-9" d="M372.21,129.33s-.06,0-.08,0c-.96-.16-1.88-.63-2.57-1.32-.19-.2-.2-.51,0-.71s.51-.2.71,0c.55.55,1.27.92,2.03,1.05.27.05.46.3.41.58-.04.24-.25.42-.49.42Z"/>
              <path class="cls-9" d="M327.61,195.9c-.15,0-.31-.07-.41-.21-.48-.66-2.87-4.04-2.92-5.38-.04-.96-.89-5.69-1.34-8.05-.05-.27.13-.53.4-.58.27-.05.53.13.58.4.05.28,1.31,6.92,1.36,8.2.03.76,1.61,3.28,2.73,4.83.16.22.11.54-.11.7-.09.07-.19.1-.29.1Z"/>
              <path class="cls-9" d="M321.42,192.87c-.15,0-.3-.07-.4-.2-1.38-1.85-1.05-8.38-1-9.12.02-.28.25-.5.53-.47.28.02.49.25.47.53-.11,1.91-.18,7.15.81,8.47.17.22.12.53-.1.7-.09.07-.2.1-.3.1Z"/>
              <path class="cls-9" d="M318.81,187.54c-.26,0-.48-.2-.5-.46l-.32-3.95c-.02-.27.18-.52.46-.54.29-.01.52.18.54.46l.32,3.95c.02.27-.18.52-.46.54-.01,0-.03,0-.04,0Z"/>
              <path class="cls-9" d="M359.08,240.51c-3.39,0-5.54-2.85-5.57-2.89-.16-.22-.12-.53.1-.7.22-.17.54-.12.7.1.12.16,3,3.94,7.28,1.87.25-.12.55-.02.67.23s.02.55-.23.67c-1.06.51-2.04.71-2.95.71Z"/>
              <path class="cls-9" d="M354.69,311.8c-.12,0-.24-.04-.33-.13-.86-.77-1.38-1.89-1.42-3.05-.01-.27.21-.51.48-.52.28,0,.51.21.52.48.03.88.44,1.75,1.09,2.33.21.18.22.5.04.71-.1.11-.23.17-.37.17Z"/>
              <path class="cls-9" d="M396.98,116.17s-.05,0-.08,0c-.27-.04-.46-.3-.42-.57.98-6.27,3.89-34.08,3.92-34.37.03-.27.27-.48.55-.45.27.03.47.27.45.55-.03.28-2.94,28.12-3.92,34.42-.04.25-.25.42-.49.42Z"/>
              <path class="cls-9" d="M399.57,94.2c-.09,0-.17-.02-.25-.07-.24-.14-.32-.45-.18-.68l4.7-7.99c.14-.24.45-.32.68-.18.24.14.32.45.18.68l-4.7,7.99c-.09.16-.26.25-.43.25Z"/>
              <path class="cls-9" d="M415.92,196c-.1,0-.2-.03-.29-.1-.22-.16-.27-.47-.11-.7,1.12-1.55,2.7-4.07,2.73-4.83.05-1.27,1.3-7.91,1.36-8.2.05-.27.31-.45.58-.4.27.05.45.31.4.58-.45,2.36-1.3,7.09-1.34,8.05-.05,1.34-2.44,4.72-2.92,5.38-.1.13-.25.21-.41.21Z"/>
              <path class="cls-9" d="M422.11,192.97c-.1,0-.21-.03-.3-.1-.22-.17-.27-.48-.1-.7.99-1.32.92-6.56.81-8.46-.02-.27.2-.51.47-.53.27-.03.51.19.53.47.04.74.38,7.27-1,9.12-.1.13-.25.2-.4.2Z"/>
              <path class="cls-9" d="M424.73,187.65s-.03,0-.04,0c-.27-.02-.48-.26-.46-.54l.32-3.95c.02-.27.26-.48.54-.46.27.02.48.26.46.54l-.32,3.95c-.02.26-.24.46-.5.46Z"/>
              <path class="cls-9" d="M384.46,240.62c-.9,0-1.89-.2-2.95-.71-.25-.12-.35-.42-.23-.67.12-.25.42-.35.67-.23,4.28,2.07,7.16-1.71,7.28-1.87.16-.22.48-.27.7-.1.22.17.27.48.1.7-.03.04-2.19,2.89-5.57,2.89Z"/>
              <path class="cls-9" d="M388.85,311.9c-.14,0-.27-.06-.37-.17-.18-.2-.17-.52.04-.71.65-.59,1.06-1.46,1.09-2.34,0-.28.28-.49.52-.48.28.01.49.24.48.52-.04,1.16-.56,2.27-1.42,3.05-.09.09-.21.13-.33.13Z"/>
              <path class="cls-9" d="M354.42,90.07c0,.89-1.05,1.61-2.34,1.61s-2.34-.72-2.34-1.61,1.05-1.61,2.34-1.61c1.29,0,2.34.72,2.34,1.61Z"/>
              <path class="cls-9" d="M391.19,90.07c0,.89-1.05,1.61-2.34,1.61s-2.34-.72-2.34-1.61,1.05-1.61,2.34-1.61,2.34.72,2.34,1.61Z"/>
              <path class="cls-9" d="M343.4,331.22c-.11,0-.23-.04-.32-.12-.93-.79-1.47-1.98-1.43-3.2.04-1.22.65-2.38,1.63-3.11.22-.16.54-.12.7.1.16.22.12.54-.1.7-.73.54-1.19,1.43-1.22,2.34-.03.9.39,1.83,1.08,2.41.21.18.24.49.06.7-.1.12-.24.18-.38.18Z"/>
              <path class="cls-9" d="M339.52,330.81c-.15,0-.29-.06-.39-.18-.55-.67-.8-1.55-.7-2.41.1-.86.56-1.65,1.25-2.18.22-.17.54-.12.7.1.17.22.12.53-.1.7-.47.35-.79.92-.86,1.5-.07.58.11,1.21.48,1.66.17.21.14.53-.07.7-.09.08-.2.11-.31.11Z"/>
              <path class="cls-9" d="M337.37,330.6c-.09,0-.19-.02-.27-.08-.59-.38-.99-1.08-1.08-1.87-.09-.76.11-1.49.26-1.97.04-.11.1-.3.23-.47.19-.23.49-.35.76-.31.27.04.46.3.42.57-.04.22-.21.38-.42.42-.01.03-.02.07-.03.09-.2.63-.27,1.12-.22,1.55.06.5.29.93.63,1.14.23.15.3.46.15.69-.1.15-.26.23-.42.23Z"/>
              <path class="cls-9" d="M334.05,329.84c-.2,0-.39-.12-.47-.32-.36-.95-.36-2.03,0-2.98.25-.64.66-.78.88-.8.27-.02.52.17.54.45.03.26-.15.49-.4.54-.02.02-.05.08-.09.17-.28.72-.28,1.54,0,2.27.1.26-.03.55-.29.65-.06.02-.12.03-.18.03Z"/>
              <path class="cls-9" d="M400.89,330.75c-.08,0-.17-.02-.25-.07-.24-.14-.32-.44-.19-.68.36-.62.43-1.4.21-2.09s-.76-1.26-1.42-1.55c-.25-.11-.37-.4-.26-.66.11-.25.4-.37.66-.26.92.4,1.65,1.2,1.96,2.15.32.95.21,2.03-.29,2.9-.09.16-.26.25-.43.25Z"/>
              <path class="cls-9" d="M403.37,330.73c-.11,0-.21-.03-.3-.1-.22-.17-.26-.48-.09-.7.36-.47.53-1.07.46-1.66-.06-.59-.36-1.14-.81-1.52-.21-.18-.24-.49-.06-.7.18-.21.49-.23.71-.06.64.55,1.07,1.34,1.15,2.18.09.84-.15,1.7-.66,2.38-.1.13-.25.19-.4.19Z"/>
              <path class="cls-9" d="M405.81,330.42c-.1,0-.21-.03-.29-.1-.22-.16-.27-.48-.11-.7.27-.37.4-.85.35-1.3-.05-.46-.28-.89-.63-1.19-.21-.18-.23-.5-.05-.7.18-.21.5-.23.71-.05.53.46.89,1.13.96,1.84s-.12,1.43-.54,2c-.1.13-.25.2-.4.2Z"/>
              <path class="cls-9" d="M409.37,329.39s-.07,0-.1-.01c-.27-.05-.45-.32-.39-.59.16-.82-.34-1.74-1.12-2.04-.26-.1-.38-.39-.28-.65.1-.26.39-.39.65-.28,1.23.48,1.99,1.87,1.74,3.17-.05.24-.25.4-.49.4Z"/>
              <path class="cls-9" d="M358.5,30.91c-.22,0-.42-.14-.48-.36-.41-1.47-1.03-2.88-1.82-4.19-.14-.24-.07-.54.17-.69.23-.14.54-.07.69.17.84,1.38,1.49,2.88,1.93,4.44.07.27-.08.54-.35.62-.04.01-.09.02-.14.02Z"/>
              <path class="cls-9" d="M384.91,30.7s-.08,0-.12-.01c-.27-.07-.43-.33-.37-.6.39-1.61,1.03-3.15,1.9-4.57.14-.24.45-.31.69-.17.24.14.31.45.17.69-.81,1.33-1.41,2.77-1.78,4.28-.06.23-.26.38-.49.38Z"/>
              <g>
                <path class="cls-8" d="M378.73,21.67c-.31.49-1.26.43-2.13-.12-.87-.55-1.31-1.4-1.01-1.88.31-.49,1.26-.43,2.13.12.86.55,1.31,1.4,1,1.88Z"/>
                <path class="cls-8" d="M366.79,19.68c.37.45.02,1.33-.79,1.96-.8.63-1.75.78-2.11.33-.37-.45-.01-1.33.79-1.96.8-.63,1.75-.78,2.11-.34Z"/>
                <path class="cls-2" d="M366.15,33.13c0,1.56-1.27,2.83-2.83,2.83s-2.83-1.27-2.83-2.83,1.27-2.83,2.83-2.83,2.83,1.27,2.83,2.83Z"/>
                <path class="cls-2" d="M383.06,33.13c0,1.56-1.27,2.83-2.83,2.83s-2.83-1.27-2.83-2.83,1.27-2.83,2.83-2.83,2.83,1.27,2.83,2.83Z"/>
                <path class="cls-7" d="M374.86,34.59c-1.36,4.31-4.89,5.56-6.7.15l6.7-.15Z"/>
                <path class="cls-8" d="M365.23,26.59c-.01.71.31,1.28.72,1.29.41,0,.75-.56.76-1.27s-.31-1.28-.72-1.29c-.41,0-.75.56-.76,1.27Z"/>
                <path class="cls-8" d="M375.71,26.42c-.01.71.31,1.28.72,1.29.41,0,.75-.56.76-1.27.01-.71-.31-1.28-.72-1.29-.41,0-.75.56-.76,1.27Z"/>
                <path class="cls-8" d="M372.08,25.68c-.29,1.93-1.05,3.67-2,5.34,0,0-.32-.66-.32-.66,1.21.37,2.42.76,3.58,1.32-1.29-.02-2.55-.2-3.8-.4l-.53-.09c.72-2,1.62-3.91,3.07-5.52h0Z"/>
              </g>
              <g class="cls-1">
                <path class="cls-9" d="M381.31,39.67l.31,3.1h0c-6.81,9.27-19.93,7.38-19.93,7.38l1.11-9.96c2.03,2.33,4.15,4.74,4.98,5.26,1.34.83,3.72.89,3.72.89,0,0,2.38-.06,3.71-.89.92-.57,3.97-3.22,6.06-5.81l.04.03Z"/>
              </g>
            </g>
            <g>
              <path class="cls-8" d="M274.41,50.93c-.02.52-.78.91-1.71.88-.93-.03-1.66-.48-1.64-1,.02-.52.78-.91,1.71-.88.92.03,1.66.48,1.64,1Z"/>
              <path class="cls-8" d="M263.73,50.62c.09.52-.57,1.05-1.48,1.2-.91.15-1.72-.15-1.81-.67-.09-.51.57-1.05,1.48-1.2.91-.15,1.72.15,1.81.67Z"/>
              <path class="cls-2" d="M279.26,61.99c.07,1.7-1.26,3.14-2.96,3.2-1.7.07-3.14-1.26-3.2-2.96-.07-1.7,1.26-3.14,2.96-3.2,1.7-.07,3.14,1.26,3.2,2.96Z"/>
              <path class="cls-2" d="M262.84,61.99c.07,1.7-1.26,3.14-2.96,3.2-1.7.07-3.14-1.26-3.2-2.96-.07-1.7,1.26-3.14,2.96-3.2,1.7-.07,3.14,1.26,3.2,2.96Z"/>
              <path class="cls-8" d="M271.24,62.47c-.58,3.83-6.05,3.97-7.18.38.63.47,1.21.88,1.83,1.16,1.93.9,4.06.11,5.35-1.53h0Z"/>
              <path class="cls-8" d="M261.92,56.07c-.02.64.27,1.16.64,1.17.37,0,.68-.5.7-1.13.02-.64-.27-1.16-.64-1.17-.37-.01-.68.5-.7,1.13Z"/>
              <path class="cls-8" d="M271.37,56.04c-.02.64.27,1.16.64,1.17.37.01.68-.5.7-1.13.02-.64-.27-1.16-.64-1.17s-.68.5-.7,1.13Z"/>
              <path class="cls-8" d="M267.76,55.85c.1,1.61-.26,3.12-.79,4.61,0,0-.34-.53-.34-.53.74.2,1.48.42,2.19.79-.94.14-1.83.08-2.75.02.26-1.73.72-3.41,1.69-4.9h0Z"/>
            </g>
          </g>
        </g>
      </g>
    </g>
  </g>
</svg>