<?xml version="1.0" encoding="UTF-8"?>
<svg id="_圖層_2" data-name="圖層 2" xmlns="http://www.w3.org/2000/svg" viewBox="0 0 50.85 49.28">
  <defs>
    <style>
      .cls-1 {
        fill: #fff;
      }

      .cls-1, .cls-2 {
        opacity: .3;
      }

      .cls-3 {
        fill: #422b3a;
      }

      .cls-4 {
        fill: #f38b2f;
      }

      .cls-5 {
        fill: #f8efc9;
      }
    </style>
  </defs>
  <g id="_圖層_1-2" data-name="圖層 1">
    <g>
      <rect class="cls-4" x="1.88" y="1.88" width="47.09" height="45.53" rx="6.26" ry="6.26"/>
      <path class="cls-4" d="M42.71,1.88c3.46,0,6.26,2.8,6.26,6.26v33.01c0,3.46-2.8,6.26-6.26,6.26H8.14c-3.46,0-6.26-2.8-6.26-6.26V8.14c0-3.46,2.8-6.26,6.26-6.26h34.57ZM42.71,0H8.14C3.65,0,0,3.65,0,8.14v33.01c0,4.49,3.65,8.14,8.14,8.14h34.57c4.49,0,8.14-3.65,8.14-8.14V8.14c0-4.49-3.65-8.14-8.14-8.14h0Z"/>
      <path class="cls-1" d="M3.75,41.77V8.76c0-3.46,2.8-6.26,6.26-6.26h34.58c.35,0,.69.04,1.03.09-.87-.46-1.86-.72-2.9-.72H8.14c-3.46,0-6.26,2.8-6.26,6.26v33.01c0,3.11,2.26,5.68,5.23,6.17-1.99-1.05-3.35-3.13-3.35-5.54Z"/>
      <path class="cls-5" d="M34.15,16.27c-5.59-2.32-11.87-2.32-17.46,0-.96-2.31-1.92-4.63-2.87-6.94,7.43-3.08,15.78-3.08,23.21,0-.96,2.31-1.92,4.63-2.87,6.94Z"/>
      <path class="cls-4" d="M25.42,7.02c3.94,0,7.89.77,11.6,2.31-.96,2.31-1.92,4.63-2.87,6.94-2.79-1.16-5.76-1.74-8.73-1.74s-5.94.58-8.73,1.74c-.96-2.31-1.92-4.63-2.87-6.94,3.72-1.54,7.66-2.31,11.6-2.31h0ZM25.42,5.77c-4.17,0-8.23.81-12.08,2.4-.64.26-.94,1-.68,1.64l2.87,6.94c.2.48.67.77,1.16.77.16,0,.32-.03.48-.1,2.63-1.09,5.41-1.64,8.25-1.64s5.62.55,8.25,1.64c.15.06.32.1.48.1s.33-.03.48-.1c.31-.13.55-.37.68-.68l1.18-2.86,1.69-4.08c.26-.64-.04-1.37-.68-1.64-3.85-1.6-7.92-2.4-12.08-2.4h0Z"/>
      <path class="cls-2" d="M15.07,9.96c7-2.9,14.81-3.07,21.91-.5.02-.04.03-.08.05-.12-7.43-3.08-15.78-3.08-23.21,0,.96,2.31,1.92,4.63,2.87,6.94.28-.12.57-.22.86-.33-.83-1.99-1.65-3.99-2.48-5.98Z"/>
      <polygon class="cls-3" points="24.8 14.53 25.42 9.32 26.05 14.53 24.8 14.53"/>
    </g>
  </g>
</svg>