<?xml version="1.0" encoding="UTF-8"?>
<svg xmlns="http://www.w3.org/2000/svg" viewBox="0 0 680.52 335.59">
  <defs>
    <style>
      .cls-1 {
        fill: #dca07a;
      }

      .cls-2 {
        isolation: isolate;
      }

      .cls-3 {
        fill: #fff;
      }

      .cls-4 {
        fill: #0f0f0f;
        mix-blend-mode: soft-light;
        opacity: .46;
      }

      .cls-5 {
        fill: #5e5748;
      }

      .cls-6 {
        fill: #bf774f;
      }

      .cls-7 {
        fill: #f47171;
      }

      .cls-8 {
        fill: #e2342b;
      }
    </style>
  </defs>
  <g class="cls-2">
    <g id="_圖層_2" data-name="圖層 2">
      <g id="_圖層_1-2" data-name="圖層 1">
        <g>
          <g>
            <path class="cls-3" d="M113.89,172.32c0,19.7-4.83,34.68-14.5,44.93s-23.81,15.38-42.45,15.38-32.45-5.15-42.25-15.46c-9.8-10.3-14.7-25.31-14.7-45.01s4.87-34.37,14.62-44.65c9.74-10.28,23.91-15.42,42.49-15.42s32.76,5.1,42.37,15.3c9.61,10.2,14.42,25.18,14.42,44.93ZM33.32,172.32c0,22.64,7.88,33.96,23.63,33.96,8.01,0,13.95-2.75,17.82-8.25,3.87-5.5,5.81-14.07,5.81-25.71s-1.96-20.33-5.89-25.91c-3.92-5.58-9.79-8.37-17.58-8.37-15.86,0-23.79,11.43-23.79,34.28Z"/>
            <path class="cls-3" d="M135.03,113.93h40.85c15.91,0,27.72,2.36,35.44,7.09,7.71,4.73,11.57,12.08,11.57,22.06,0,6.57-1.68,12.17-5.05,16.82-3.36,4.65-7.8,7.64-13.29,8.97v.8c7.26,1.92,12.52,5.13,15.78,9.61,3.26,4.49,4.89,10.31,4.89,17.46,0,10.63-3.99,19-11.97,25.11-7.98,6.11-18.86,9.17-32.64,9.17h-45.57v-117.09ZM166.67,158.86h9.53c4.54,0,8.05-.93,10.53-2.8,2.48-1.87,3.72-4.65,3.72-8.33,0-6.57-4.96-9.85-14.9-9.85h-8.89v20.98ZM166.67,182.01v24.59h11.13c9.88,0,14.82-4.17,14.82-12.49,0-3.9-1.32-6.89-3.96-8.97-2.64-2.08-6.47-3.12-11.49-3.12h-10.49Z"/>
            <path class="cls-3" d="M315.07,231.02h-69.52v-117.09h69.52v25.39h-37.88v18.42h35.08v25.39h-35.08v22.1h37.88v25.79Z"/>
            <path class="cls-3" d="M412.14,195.46c0,7.26-1.84,13.71-5.53,19.34-3.68,5.63-9,10.01-15.94,13.13s-15.08,4.69-24.43,4.69c-7.8,0-14.34-.55-19.62-1.64-5.29-1.09-10.79-3-16.5-5.73v-28.19c6.03,3.1,12.31,5.51,18.82,7.25,6.51,1.74,12.49,2.6,17.94,2.6,4.7,0,8.14-.81,10.33-2.44,2.19-1.63,3.28-3.72,3.28-6.29,0-1.6-.44-3-1.32-4.2s-2.3-2.42-4.24-3.64c-1.95-1.23-7.14-3.74-15.58-7.53-7.64-3.47-13.36-6.83-17.18-10.09-3.82-3.26-6.65-6.99-8.49-11.21-1.84-4.22-2.76-9.21-2.76-14.98,0-10.78,3.92-19.19,11.77-25.23,7.85-6.03,18.63-9.05,32.36-9.05,12.12,0,24.48,2.8,37.08,8.41l-9.69,24.43c-10.95-5.02-20.4-7.53-28.35-7.53-4.11,0-7.1.72-8.97,2.16-1.87,1.44-2.8,3.23-2.8,5.37,0,2.3,1.19,4.35,3.56,6.17,2.38,1.82,8.82,5.13,19.34,9.93,10.09,4.54,17.1,9.41,21.02,14.62,3.92,5.21,5.89,11.76,5.89,19.66Z"/>
            <path class="cls-3" d="M430.24,231.02v-117.09h31.8v117.09h-31.8Z"/>
            <path class="cls-3" d="M539,231.02h-31.63v-91.22h-28.59v-25.87h88.74v25.87h-28.51v91.22Z"/>
            <path class="cls-3" d="M626.06,157.34l20.18-43.41h34.28l-38.52,71.36v45.73h-31.88v-44.77l-38.52-72.32h34.44l20.02,43.41Z"/>
          </g>
          <g>
            <g>
              <path class="cls-5" d="M277.36,63.14s-3.34,2.12-5.55.35l-.43-2.17-.43-2.2c.36-.39.71-.79,1.04-1.19,1.59-1.92,2.75-3.96,3.47-5.41.31-.64.55-1.31.73-1.99l.27.05s.3.11.7.12c-.99,2.31-3.19,7.81-2.26,9.5,1.19,2.16,2.48,2.92,2.48,2.92Z"/>
              <path class="cls-5" d="M280.5,42.38c-.18-.41-.44-.64-.74-.75-.21-.08-.42-.09-.67-.05-.24.04-.48.16-.7.33-.38,1.1-.89,2.15-1.5,3.13.05-.57.1-1.07.12-1.44h-.01c-.33-.05-.66-.1-.96-.16-.1-.02-.2-.04-.29-.07-.07-.02-.14-.03-.2-.04-.08-.02-.16-.04-.23-.06-.05-.02-.11-.03-.16-.04-.04,0-.07-.02-.1-.03-.02,0-.04-.01-.06-.02-.02,0-.04-.01-.07-.02,0,0-.01,0-.02,0h0s-.01,0-.02,0c-.02,0-.06-.02-.08-.03h0c-.05-.02-.1-.03-.15-.05h0s-.1-.03-.15-.05c-.12-.04-.25-.09-.37-.14-.23-.1-.46-.2-.66-.31-.21-.11-.4-.22-.59-.34-.12-.08-.23-.16-.34-.25-.11-.09-.22-.17-.32-.27-2.39-2.18-1.99-5.72-4.24-8.88-.76-1.06-1.65-1.92-2.58-2.61-.13-.1-.26-.2-.4-.29-.18-.12-.35-.24-.53-.35-.28-.18-.57-.35-.85-.5-.41-.23-.82-.42-1.21-.59-.22-.1-.43-.18-.65-.27-.31-.12-.61-.22-.88-.31-.14-.04-.26-.08-.39-.11-.07-.02-.12-.04-.19-.05-.05-.02-.1-.03-.15-.04h0s-.08-.02-.11-.03c-.08-.02-.15-.04-.21-.05-.03,0-.07-.02-.09-.02-.04-.01-.08-.02-.11-.03-.02,0-.02,0-.03,0-.04-.01-.07-.02-.11-.02h0s-.08-.02-.1-.02c-.02,0-.03,0-.04,0-.06-.02-.09-.02-.09-.02,0,0,0,0,0,0-.3.13-.59.27-.86.41-.28.15-.55.29-.83.45-.27.16-.53.32-.78.48-.26.16-.5.33-.74.5-.51.36-.99.75-1.45,1.14-.15.12-.29.26-.44.4-.43.4-.84.82-1.22,1.24-.25.28-.49.57-.72.85-.23.28-.45.58-.66.86-.73,1.02-1.34,2.04-1.83,3.03-.14.28-.27.56-.39.84-.12.27-.24.54-.35.81-.17.4-.3.78-.43,1.15-.09.25-.17.48-.24.71-.03.11-.07.23-.1.34s-.07.22-.09.32c-.09.32-.17.61-.23.88-.02.08-.04.16-.05.24-.01.03-.02.06-.03.09-.04.17-.07.33-.1.47-.03.15-.05.29-.07.4-.02.06-.02.11-.03.16-.02.09-.03.17-.03.22-.01.06-.02.09-.02.09,0,0-.6-1.11-1.36-1.69-.22-.17-.46-.29-.7-.33-.58-.09-1.06.1-1.38.71h0c-.28.54-.43,1.41-.4,2.69.06,2.77,1.91,4.94,2.68,5.46.55.36,1.5.28,2,.2.17.61.4,1.2.68,1.78.7,1.45,1.87,3.53,3.49,5.47.33.4.69.81,1.06,1.21l-.38,3.87c-2.37,1.97-4.26,0-4.26,0,3.93-2.91-7.3-11.23-6.62-15.72.1-.67.14-1.44.14-2.26-.02-4.64-1.39-11.18-.14-14.76,1.47-4.21,6.62-5.43,6.62-5.43,0,0,3.32-5.86,13.32-5.74.63,0,1.24.04,1.85.1,9.2.85,16.92,7.06,18.27,9.5,1.03,1.89-.8,9.58-1.9,13.72Z"/>
              <path class="cls-1" d="M277.01,43.61c-.03.37-.08.87-.13,1.44-.11,1.22-.27,2.74-.39,3.89-.06.53-.16,1.07-.3,1.6,0,.02-.01.03-.01.05h.28s.49,7.17-5.22,10.9c-1.97,1.29-4.68,2.17-8.4,2.2-.07,0-.15.01-.23.01-.11.01-.23.01-.34.01h-.01c-.11,0-.21,0-.33-.01-.24-.01-.47-.03-.7-.05-3.46-.2-5.99-1.17-7.84-2.5-5.29-3.8-5.03-10.5-5.03-10.5-.16-.57-.28-1.14-.34-1.72-.15-1.34-.27-2.72-.37-3.9-.04-.55-.08-1.07-.1-1.51,0-.06.01-.13.02-.22.01-.05.01-.1.03-.16.02-.12.04-.25.07-.4s.06-.3.1-.47c0-.04.01-.06.03-.1.01-.07.03-.15.06-.23.06-.27.14-.56.22-.88.03-.1.06-.21.1-.32.03-.11.07-.22.1-.34.08-.23.15-.47.24-.71.13-.37.28-.75.43-1.15.11-.26.23-.53.35-.8l.39-.84c.5-.99,1.1-2.01,1.84-3.03.2-.29.42-.58.65-.87.24-.28.48-.57.73-.85.38-.42.79-.84,1.22-1.24.15-.14.29-.27.44-.4.45-.39.94-.77,1.45-1.13.24-.18.48-.34.74-.5.25-.17.51-.32.78-.48.27-.15.54-.3.82-.45.28-.14.57-.28.87-.41,0,0,.02,0,.06.01h.04s.02,0,.04.01c.03.01.06.01.1.02h.01s.06.01.11.02c0,.01.01.01.03.01.03,0,.07.01.11.03.03,0,.06.01.09.02.07.01.14.03.21.05.04.01.08.02.12.03.05.02.1.03.16.04.06.02.12.04.19.06.12.04.25.07.38.11.27.09.57.19.88.31.22.08.43.16.65.26.39.17.79.36,1.21.59.28.15.57.32.85.49.18.12.36.23.54.36.13.09.26.18.39.28.93.69,1.82,1.55,2.58,2.61,2.25,3.16,1.84,6.7,4.24,8.88.1.09.2.18.31.27.11.08.23.16.35.25.18.12.38.23.58.34.21.11.43.21.67.31.12.05.24.09.37.13.05.02.09.04.14.05h.01s.09.04.14.05c.03.01.07.02.09.04h.04s.04.02.07.02c.02.01.03.01.06.02.03.01.06.02.1.03.05.01.11.03.16.04.08.02.16.04.24.06.06.02.13.03.19.05.1.02.2.04.3.06.3.05.63.11.96.16h.01Z"/>
              <path class="cls-7" d="M297.66,157.42l-4.26,3.59-.57.99c-16.1,8.09-33.41,23.47-33.41,23.47-9.14-8.25-21.68-12.61-30.43-15.61-6.1-2.1-14.17-4.81-14.17-4.81.42-1.14,1.61-5.3,1.97-6.02.49-.05,7.76,2.82,12.51,4.55,2.16.79,3.79,1.35,4.03,1.29h0c2.04.72,23.76,7.84,55.09-5.52.72.77,2.75,2.61,4.38,1.05,1.95-1.86,4.69-2.92,4.86-2.98Z"/>
              <path class="cls-1" d="M289.22,159.09l.87-.06s-18.98,15.1-35.24,14.36c-12.88-.59-21.39-6.4-24.37-8.8l-13.69-5.56c.39-1.13,2.11-9.65,2.22-10.84.6-6.22,6.6-17.99,6.6-17.99,0,0,33.74-10.8,69.03-2.72,0,0,4.07,10.37,7.57,19.93h.01c.22.63.96,7.74,1.17,8.41,0,0-11.06,2.44-14.17,3.27Z"/>
              <path class="cls-6" d="M271.24,61.49c-6.16,7.01-18.4,5.28-18.4,5.28l.37-3.78.18-1.84c1.85,1.33,4.38,2.3,7.84,2.5.23.02.46.04.7.05.12.01.22.01.33.01h.01c.11,0,.23,0,.34-.01.08,0,.16-.01.23-.01,3.72-.03,6.43-.91,8.4-2.2Z"/>
              <path class="cls-1" d="M308.87,149.74l1.34-28.69-15.59-9.95h0c.51-6.04-2.53-9.62-4.37-15.6-2.66-8.62,0-23.83,0-23.83,2.12.66,6.15,0,10.1,1.6,4.31,1.75,28.59,35.8,28.47,45.66-.11,9.87-9.3,42.14-9.3,42.14-2.19,5.88-13.19,2.73-13.19,2.73l-.94.43-4.54,2.1c-.02,3.25-3.82,3.14-3.82,3.14l.79-4.31,5.52-5.6-4.77,1.51s-1.79,3.16-3.78,4.62c-1.98,1.46-4.12,0-4.12,0l2.15-3.7.58-.99,4.26-3.59c-.17.06-2.91,1.12-4.86,2.98-1.63,1.56-3.66-.28-4.38-1.05-.17-.18-.27-.3-.27-.3l3.86-2.73c-2.89.66-3.56-1.36-3.56-1.36,0,0,6.24-4.19,8.17-4.82,1.88-.62,6.08-.77,6.26-.78-.21-.67-.43-1.32-.66-1.95l5.97,2.29.69.03Z"/>
              <path class="cls-1" d="M259.41,185.47c3.4,20.86-5.14,69.4-4.69,79.23,0,0,0,.51.02,1.42v.04c-.22,11.77-7.27,47.99-7.27,47.99,0,0,2.72,13.61,3.02,14.82.03.14.1.35.17.6.5,1.87,1.14,6.22-9.39,5.76-11.95-.53-10.51-3.4-8.47-6.96,2.04-3.55,3.93-12.85,3.93-12.85,0,0-10.36-44.38-13.26-52.17-2.9-7.78,1.01-17.69,1.01-17.69,0,0-7.41-23.29-12.1-48.24-2.96-15.78.57-29.31,2.44-32.36,0,0,8.07,2.71,14.17,4.8,8.75,3.01,21.29,7.36,30.43,15.61Z"/>
              <path class="cls-1" d="M268.64,315.73c0,2.31,6.05,12.24,5.97,15.34-.08,3.1-19.89,5.83-22.68,0-.26-.54-.44-1.1-.56-1.68-1.19-5.76,3.74-13.53,3.81-17.75.07-4.13-.35-38-.44-45.49v-.04c0-.53,0-1-.02-1.42-.45-9.82,8.09-58.36,4.69-79.23,0,0,17.31-15.38,33.41-23.47l-2.15,3.7s2.14,1.46,4.12,0,3.78-4.62,3.78-4.62l4.77-1.51-5.52,5.6-.79,4.31s3.8.11,3.82-3.14l5.15-5.45s3.72,7.97,3.55,15.34c-.63,28.48-24.73,66.64-24.73,66.64,0,0,5.1,15.85,0,29.48-5.1,13.63-16.18,41.08-16.18,43.38Z"/>
              <g>
                <path class="cls-1" d="M221.55,108.59l-9.91,10.62,2.27,29.93s2.3-3.01,6.44-4.37c-.44,1.12-.9,2.3-1.34,3.42l7.74.53,6.41,5.59c-.77,1.59-3.49.36-3.71.26l3.59,4.05c-1.5,2.42-5.3-.32-5.47-.43l3.4,5.94c-1.34.74-2.64.73-3.82.33-.07-.03-.1-.04-.1-.04-2.58-2.33-3.61-4.29-3.61-4.29l-4.74-2.11c.29.3,4.8,5.06,5.24,5.94.45.91,1.21,4.58-1.04,3.77-2.25-.8-6.89-5.99-6.89-5.99-.77.15-1.51.24-2.22.27-4.58.24-8.22-1.8-11.28-7.44-3.54-6.52-9.03-35.58-8.6-39.54.44-3.97,23.75-40.55,34.33-44.66,2.19-.84,6.19-1.34,8.4-1.8,0,0,0,0-.01.02-.23.73-5.19,16.51-8.66,24.34-1.81,4.07-5.01,8.67-6.08,13.36-.18.76-.29,1.53-.34,2.3Z"/>
                <path class="cls-7" d="M296.62,111.1c-.22,2.67-1.57,6.95-3.59,11l1.61,5.38c-35.29-8.08-69.03,2.72-69.03,2.72l1.49-6.66c-2.66-2.88-5.08-9.77-5.48-12.83-.09-.71-.11-1.41-.07-2.12.05-.77.16-1.54.34-2.3,1.07-4.69,4.27-9.29,6.08-13.36,3.47-7.83,8.43-23.61,8.66-24.34.01,0,.01-.02.01-.02.81-.21,1.61-.4,2.4-.56,0,0-10.48,25.59,22.28,27.45,25.29,1.43,23.1-25.46,23.1-25.46,2.09.56,4.14,1.14,5.83,1.67,0,0-2.67,15.21,0,23.83,1.84,5.97,6.88,9.55,6.37,15.6Z"/>
              </g>
              <path class="cls-1" d="M271.81,63.48l.68,3.47s6.14,1.47,11.92,3.04c0,0,2.19,26.9-23.1,25.46-32.76-1.86-22.28-27.45-22.28-27.45,7.44-1.53,13.8-1.25,13.8-1.25,0,0,12.43,1.77,18.54-5.45l.43,2.17Z"/>
              <path class="cls-1" d="M280.5,42.38c.25.54.39,1.38.36,2.61-.05,2.77-1.9,4.94-2.68,5.46-.34.22-.72.28-1.03.27-.4-.02-.7-.12-.7-.12l-.27-.05c.14-.52.24-1.06.3-1.6.12-1.14.28-2.67.4-3.89.61-.98,1.12-2.03,1.5-3.13.22-.17.46-.29.7-.33.24-.04.46-.03.67.05.3.1.56.34.74.74Z"/>
              <path class="cls-1" d="M244.08,42.3h0c.32-.61.8-.8,1.38-.71.24.04.48.16.7.33.77.58,1.36,1.69,1.36,1.69,0,0,0-.03.02-.09,0-.05.02-.13.03-.22-.01.1-.02.17-.03.22.03.45.07.96.1,1.51.1,1.19.22,2.57.37,3.9.07.58.18,1.16.34,1.72-.5.08-1.45.16-2-.2-.77-.52-2.62-2.69-2.68-5.46-.03-1.29.12-2.15.4-2.69Z"/>
              <path class="cls-6" d="M254.88,153.45c-3.25,0-4.12-2.04-4.16-2.12-.1-.26.02-.55.27-.65.25-.1.54.02.65.27.03.07.7,1.51,3.23,1.51.28,0,.5.22.5.5,0,.28-.22.5-.5.5Z"/>
              <path class="cls-6" d="M254.88,268.98c-.25,0-.47-.19-.5-.45-.52-5.22.22-11.79,1.84-26.17.28-2.46.58-5.15.91-8.11,2.24-20.18,1.78-48.49,1.78-48.77,0-.28.22-.5.49-.51.29,0,.5.21.51.49,0,.28.47,28.66-1.78,48.9-.33,2.96-.63,5.65-.91,8.12-1.62,14.31-2.35,20.84-1.84,25.96.03.27-.17.52-.45.55-.02,0-.03,0-.05,0Z"/>
              <path class="cls-6" d="M240.3,250.09c-4.14,0-6.63-2.68-6.66-2.72-.18-.2-.17-.52.03-.7.2-.18.52-.17.71.03.2.22,5.03,5.36,12.65-.07.22-.16.54-.11.7.12.16.23.11.54-.12.7-2.78,1.98-5.24,2.65-7.3,2.65Z"/>
              <path class="cls-6" d="M273.86,246.43c-4.28,0-7.58-2.11-7.76-2.23-.23-.15-.3-.46-.15-.69.15-.23.46-.3.69-.15.06.04,5.66,3.61,11.47,1.25.26-.11.55.02.65.27.1.26-.02.55-.27.65-1.6.65-3.17.9-4.63.9Z"/>
              <path class="cls-6" d="M245.59,335.28c-.24,0-.45-.17-.49-.42-.17-1.1-.18-2.22-.03-3.33.04-.27.3-.46.57-.42.27.04.46.29.42.57-.14,1.01-.14,2.02.03,3.03.04.27-.14.53-.41.57-.03,0-.05,0-.08,0Z"/>
              <path class="cls-6" d="M241.6,335.59s-.03,0-.04,0c-.28-.02-.48-.26-.46-.54l.22-2.95c.02-.27.26-.49.54-.46.28.02.48.26.46.54l-.22,2.95c-.02.26-.24.46-.5.46Z"/>
              <path class="cls-6" d="M238.32,335.05s-.03,0-.04,0c-.28-.02-.48-.26-.46-.54l.19-2.42c.02-.27.28-.48.54-.46.28.02.48.26.46.54l-.19,2.42c-.02.26-.24.46-.5.46Z"/>
              <path class="cls-6" d="M234.31,334.75c-.27,0-.49-.21-.5-.48-.03-.9.08-1.79.33-2.65.08-.27.35-.41.62-.34.27.08.42.36.34.62-.22.76-.32,1.54-.29,2.33.01.27-.2.51-.48.52,0,0-.01,0-.02,0Z"/>
              <path class="cls-6" d="M259.86,335.13c-.07,0-.15-.02-.21-.05-.25-.12-.36-.42-.24-.67.54-1.15.29-2.65-.6-3.57-.19-.2-.19-.52.01-.71.2-.19.52-.19.71.01,1.18,1.22,1.51,3.15.78,4.69-.08.18-.26.29-.45.29Z"/>
              <path class="cls-6" d="M263.52,334.69c-.07,0-.13-.01-.2-.04-.25-.11-.37-.4-.26-.66.37-.86.41-1.86.1-2.74-.09-.26.05-.55.31-.64s.55.05.64.31c.38,1.11.34,2.38-.13,3.46-.08.19-.27.3-.46.3Z"/>
              <path class="cls-6" d="M267.8,334.22s-.06,0-.09,0c-.27-.05-.45-.31-.41-.58.16-.93.12-1.9-.12-2.81-.07-.27.09-.54.35-.61.27-.07.54.09.61.35.28,1.05.33,2.17.14,3.24-.04.24-.25.42-.49.42Z"/>
              <path class="cls-6" d="M272.03,333.39c-.27,0-.49-.21-.5-.48-.03-.8-.19-1.59-.48-2.34-.1-.26.03-.55.29-.64.26-.1.55.03.64.29.32.85.51,1.75.54,2.66.01.27-.2.51-.48.52,0,0-.01,0-.02,0Z"/>
              <path class="cls-6" d="M240.51,315.34c-.46,0-.92-.01-1.38-.04-.28-.01-.49-.25-.47-.52.01-.27.21-.52.52-.47,1.48.07,2.98.02,4.45-.15.26-.04.52.16.55.44.03.27-.16.52-.44.55-1.07.13-2.16.19-3.24.19Z"/>
              <path class="cls-6" d="M264.4,315.92s-.09,0-.13-.02c-1.28-.35-2.64-.53-3.95-.5h0c-.27,0-.5-.22-.5-.49,0-.28.22-.5.49-.51,1.43-.02,2.85.16,4.22.54.27.07.42.35.35.61-.06.22-.26.37-.48.37Z"/>
              <path class="cls-6" d="M231.43,155.91c-.72-.03-1.43-.3-1.97-.78-.21-.18-.22-.5-.04-.71s.5-.22.71-.04c.57.51,1.44.68,2.16.41.27-.1.44-.3.42-.38-.02-.08-.17-.21-.26-.29l-4.36-3.82c-.58-.51-1.24-1.09-2-1.31-.59-.18-1.24-.13-1.94-.09l-.32.02c-2.28.13-4.55-.13-6.75-.77-.27-.08-.42-.35-.34-.62.08-.26.35-.42.62-.34,2.09.61,4.25.85,6.42.73l.31-.02c.74-.05,1.52-.1,2.28.13.96.28,1.71.94,2.38,1.52l4.36,3.82c.19.17.49.43.57.83.16.72-.43,1.3-1.05,1.53-.39.15-.8.2-1.21.19Z"/>
              <path class="cls-6" d="M230.94,160.12c-1.28-.06-2.56-.56-3.51-1.42-.21-.18-.22-.5-.03-.71.18-.21.5-.22.71-.04,1.01.92,2.48,1.34,3.82,1.11.29-.05.48-.18.5-.24,0-.04-.12-.17-.16-.22l-3.22-3.75c-.77-.9-1.65-1.92-2.77-2.38-.88-.36-1.89-.38-2.86-.4l-4.73-.09s-.01,0-.01,0c-.27-.01-.48-.24-.48-.51,0-.28.23-.5.51-.49l4.73.09c1.02.02,2.17.04,3.22.48,1.35.55,2.3,1.67,3.15,2.65l3.22,3.75c.13.15.36.41.4.77.07.64-.47,1.19-1.32,1.33-.38.07-.77.09-1.16.07Z"/>
              <path class="cls-6" d="M228.29,165.37c-.55-.02-1.1-.12-1.63-.28-.26-.08-.41-.36-.33-.62.08-.26.36-.41.62-.33,1.16.36,2.43.32,3.57-.1.03,0,.05-.02.07-.03,0,0-.01-.02-.02-.03l-3.56-5.75c-.35-.57-.75-1.21-1.31-1.57-.49-.31-1.11-.42-1.72-.52l-5.33-.92c-.27-.05-.45-.3-.41-.58.05-.27.31-.46.58-.41l5.33.92c.67.12,1.42.25,2.08.66.75.48,1.22,1.23,1.63,1.89l3.56,5.75c.09.14.27.43.2.78-.07.34-.32.59-.75.74-.82.3-1.7.43-2.57.39Z"/>
              <path class="cls-6" d="M208.42,154.76c-.09,0-.18-.03-.26-.08-.23-.15-.29-.46-.14-.69,1.45-2.17,3.42-4.02,5.68-5.33.23-.14.54-.06.68.18.14.24.06.54-.18.68-2.13,1.24-3.98,2.98-5.35,5.02-.1.15-.27.23-.44.22Z"/>
              <path class="cls-6" d="M302.84,150.59c-.23,0-.43-.15-.48-.38l-.62-2.52c-.07-.27.1-.54.37-.6.27-.06.54.1.6.37l.62,2.52c.07.27-.1.54-.37.6-.04,0-.08.01-.12.01Z"/>
              <path class="cls-6" d="M291.5,156.81c-1.08,0-2.14-.43-2.92-1.18-.36-.35-.51-.71-.44-1.08.09-.47.48-.71.7-.84l3.19-1.92c1.1-.67,2.25-1.35,3.54-1.72,1.43-.41,2.9-.39,4.32-.37,2.53.04,5.39.08,7.91,1.23.25.11.36.41.25.66-.11.25-.41.36-.66.25-2.33-1.06-5.08-1.1-7.51-1.14-1.35-.02-2.75-.04-4.04.33-1.17.33-2.25.99-3.3,1.62l-3.19,1.92c-.15.09-.21.15-.23.17.01,0,.04.07.16.18.59.57,1.4.9,2.22.9h.02c.28,0,.5.22.5.5,0,.28-.23.52-.51.5Z"/>
              <path class="cls-6" d="M288.4,160s-.1,0-.15-.02c-.19-.06-.35-.2-.45-.38-.1-.21-.12-.46-.04-.68.11-.29.33-.47.48-.59l5.15-4.12c.66-.53,1.4-1.12,2.28-1.46,1.34-.52,2.76-.4,4.13-.27,1.12.1,2.18.2,3.19-.04.27-.07.54.1.6.37s-.1.54-.37.6c-1.16.27-2.36.17-3.51.06-1.31-.12-2.55-.23-3.68.2-.73.29-1.39.81-2.02,1.31l-5.15,4.12s-.05.04-.09.07c.1.12.14.3.09.46-.07.22-.27.36-.48.36Z"/>
              <path class="cls-6" d="M297.87,157.7c-.24,0-.45-.18-.49-.42-.04-.27.14-.53.41-.57l5.59-.89c.28-.04.53.14.57.41.04.27-.14.53-.41.57l-5.59.89s-.05,0-.08,0Z"/>
              <path class="cls-6" d="M292.5,166.74c-.41,0-.81-.06-1.18-.19-.68-.24-.85-.65-.9-.89-.07-.37.1-.68.2-.87l1.94-3.65c.13-.24.43-.34.68-.21.24.13.34.43.21.68l-1.94,3.64s-.1.18-.1.23c0,0,.06.05.24.11.85.29,1.91.11,2.85-.48.93-.59,1.66-1.51,2.24-2.32l.13-.19c.4-.56.81-1.14,1.39-1.59.79-.61,1.72-.86,2.63-1.1.77-.21,1.5-.4,2.1-.8.23-.15.54-.09.69.14.15.23.09.54-.14.69-.74.49-1.58.71-2.39.93-.85.23-1.65.44-2.27.93-.46.36-.81.85-1.19,1.38l-.14.19c-.64.89-1.44,1.9-2.52,2.58-.79.5-1.68.77-2.52.77Z"/>
              <path class="cls-6" d="M297.73,170.36c-.62,0-1.1-.26-1.27-.71-.13-.34-.05-.67.01-.89l.46-1.72c.18-.68.38-1.45.8-2.11.39-.63.93-1.11,1.46-1.57l.16-.14c1.7-1.53,3.23-3.26,4.53-5.13.16-.23.47-.28.7-.12.23.16.28.47.12.7-1.35,1.94-2.93,3.72-4.69,5.3l-.16.15c-.49.44-.96.85-1.27,1.36-.34.54-.51,1.2-.68,1.84l-.46,1.72c-.02.06-.06.22-.05.27.02.02.16.08.36.07,1.07-.01,2.1-.76,2.46-1.76.05-.14.09-.28.13-.43.11-.4.24-.86.56-1.24.33-.39.79-.59,1.15-.75l4.18-1.85c.25-.11.55,0,.66.26.11.25,0,.55-.26.66l-4.18,1.85c-.3.13-.61.27-.8.49-.18.21-.27.52-.36.85-.05.17-.09.34-.15.5-.5,1.41-1.9,2.4-3.39,2.43-.01,0-.02,0-.03,0Z"/>
              <path class="cls-6" d="M315.43,153c-.1,0-.2-.03-.28-.09-1.66-1.14-3.6-1.88-5.59-2.16-.27-.04-.47-.29-.43-.56s.3-.46.56-.43c2.15.3,4.23,1.1,6.02,2.32.23.16.29.47.13.7-.1.14-.25.22-.41.22Z"/>
              <path class="cls-6" d="M211.45,119.55c-.15,0-.3-.07-.4-.2-1.01-1.32-2.45-2.31-4.03-2.8-.26-.08-.41-.36-.33-.62.08-.26.36-.41.62-.33,1.78.55,3.39,1.67,4.53,3.15.17.22.13.53-.09.7-.09.07-.2.1-.31.1Z"/>
              <path class="cls-6" d="M219.89,110.75c-.19,0-.37-.11-.46-.3-.69-1.54-1.66-2.93-2.86-4.12-.2-.19-.2-.51,0-.71.19-.2.51-.2.71,0,1.29,1.28,2.33,2.77,3.07,4.43.11.25,0,.55-.25.66-.07.03-.14.04-.2.04Z"/>
              <path class="cls-6" d="M290.59,100.4c-.07,0-.13-.01-.19-.04-.26-.11-.37-.4-.27-.65.89-2.1,2.22-4.05,3.85-5.64.2-.19.52-.19.71,0,.19.2.19.51,0,.71-1.54,1.5-2.79,3.34-3.63,5.32-.08.19-.27.31-.46.31Z"/>
              <path class="cls-6" d="M310.21,121.7s-.09,0-.13-.02c-.27-.07-.42-.35-.35-.61.46-1.68,1.84-3.05,3.53-3.49.27-.07.54.09.61.36.07.27-.09.54-.36.61-1.33.34-2.46,1.46-2.81,2.78-.06.22-.26.37-.48.37Z"/>
              <polygon points="244.36 41.96 244.36 41.95 245.36 41.95 244.36 41.96"/>
              <path class="cls-6" d="M247.65,49.64c-.22,0-.42-.14-.48-.36-.45-1.61-1.12-3.15-1.99-4.58-.14-.24-.07-.54.17-.69.23-.14.54-.07.69.17.92,1.5,1.62,3.13,2.1,4.83.07.27-.08.54-.35.62-.05.01-.09.02-.14.02Z"/>
              <path class="cls-6" d="M276.44,49.42s-.08,0-.12-.01c-.27-.07-.43-.33-.37-.6.42-1.76,1.12-3.43,2.06-4.97.15-.24.45-.31.69-.17.23.14.31.45.17.69-.89,1.45-1.54,3.03-1.94,4.68-.06.23-.26.38-.49.38Z"/>
              <path class="cls-6" d="M223.03,135.21c-1.94,3.83-3.46,7.85-4.54,12.01-.16.62.8.89.96.27,1.06-4.07,2.54-8.02,4.44-11.77.29-.57-.57-1.08-.86-.51Z"/>
              <path class="cls-6" d="M227.22,164.29c-1.43-.99-2.28-2.57-3.14-4.03-.22-.38-.46-.65-.89-.8-.42-.15-.85-.24-1.27-.38-.95-.32-1.86-.73-2.73-1.21-.13-.07-.25-.07-.35-.04-.42-.18-.92.41-.54.83,2.12,2.33,4.3,4.6,6.54,6.8.46.45,1.17-.26.71-.71-1.7-1.68-3.35-3.4-4.98-5.14.25.1.5.21.76.31.46.16.92.3,1.38.43.23.07.33.1.45.3.11.18.22.37.33.56.87,1.48,1.8,2.95,3.24,3.94.53.37,1.03-.5.51-.86Z"/>
              <g>
                <path class="cls-5" d="M268.91,40.65c-.02.52-.78.91-1.71.88-.93-.03-1.66-.48-1.64-1,.02-.52.78-.91,1.71-.88.92.03,1.66.48,1.64,1Z"/>
                <path class="cls-5" d="M258.24,40.34c.09.52-.57,1.05-1.48,1.2-.91.15-1.72-.15-1.81-.67-.09-.51.57-1.05,1.48-1.2.91-.15,1.72.15,1.81.67Z"/>
                <path class="cls-4" d="M273.76,51.71c.07,1.7-1.26,3.14-2.96,3.2-1.7.07-3.14-1.26-3.2-2.96-.07-1.7,1.26-3.14,2.96-3.2,1.7-.07,3.14,1.26,3.2,2.96Z"/>
                <path class="cls-4" d="M257.34,51.71c.07,1.7-1.26,3.14-2.96,3.2-1.7.07-3.14-1.26-3.2-2.96-.07-1.7,1.26-3.14,2.96-3.2,1.7-.07,3.14,1.26,3.2,2.96Z"/>
                <path class="cls-5" d="M265.74,52.19c-.58,3.83-6.05,3.97-7.18.38.63.47,1.21.88,1.83,1.16,1.93.9,4.06.11,5.35-1.53h0Z"/>
                <path class="cls-5" d="M256.43,45.8c-.02.64.27,1.16.64,1.17.37,0,.68-.5.7-1.13.02-.64-.27-1.16-.64-1.17-.37-.01-.68.5-.7,1.13Z"/>
                <path class="cls-5" d="M265.87,45.76c-.02.64.27,1.16.64,1.17.37.01.68-.5.7-1.13.02-.64-.27-1.16-.64-1.17s-.68.5-.7,1.13Z"/>
                <path class="cls-5" d="M262.26,45.58c.1,1.61-.26,3.12-.79,4.61,0,0-.34-.53-.34-.53.74.2,1.48.42,2.19.79-.94.14-1.83.08-2.75.02.26-1.73.72-3.41,1.69-4.9h0Z"/>
              </g>
            </g>
            <g>
              <path class="cls-6" d="M407.85,43.78c-2.91,2.83-6.37,4.4-9.79,5.22-7.88,1.9-15.52-.24-15.52-.24l1.19-8.9c2.27,2.85,6.14,6.01,7.24,6.64,1.49.85,4.14.92,4.14.92,0,0,1.24-.04,2.5-.33.58-.14,1.15-.32,1.63-.59,1.22-.71,5.89-4.54,7.96-7.61l.65,4.89Z"/>
              <path class="cls-5" d="M379.83,9c-.33-.89-.51-1.84-.44-2.79.1-1.24.67-2.49,1.7-3.19,1.01-.7,2.29-.81,3.51-.96,3.79-.46,7.5-1.48,11.3-1.9,2.74-.31,5.63-.29,8.11.93,2.14,1.05,3.83,2.99,4.59,5.25,1.29.22,2.38,1.25,2.94,2.46.62,1.35.7,2.88.69,4.37-.01,3.56-.44,7.1-.89,10.64h-.02c-1.04.17-1.99,2.03-1.99,2.03.06-1.15.1-1.9.1-1.9,0,0-.02-3.38-1.32-7.59-1.3-4.21-3.94-5.31-5.43-5.14-1.49.18-3.14,1.01-7.58,1.01s-6.09-.83-7.58-1.01c-1.48-.17-4.12.92-5.43,5.14-1.3,4.21-1.32,7.59-1.32,7.59,0,0,.04.75.1,1.9,0,0-.95-1.86-1.99-2.03-.29-.05-.55-.02-.78.11-.43-3.58-.78-7.17-.49-10.76.08-.89.19-1.82.6-2.62.33-.69.9-1.29,1.62-1.55Z"/>
              <path class="cls-1" d="M395.32,47.41c-.07.01-.14.01-.21.01-.15,0-.29,0-.44-.02-16.57-.35-13.79-21.55-13.79-21.55-.06-1.15-.09-1.9-.09-1.9,0,0,.02-3.37,1.31-7.59,1.31-4.21,3.95-5.3,5.43-5.13,1.49.18,3.14,1.01,7.58,1.01s6.08-.83,7.57-1.01c1.48-.17,4.12.92,5.43,5.13,1.29,4.22,1.31,7.59,1.31,7.59,0,0-.03.75-.09,1.9,0,0,2.81,21.39-14.01,21.56Z"/>
              <path class="cls-8" d="M396.22,183.06h-1.41s-4-1.4-9.54-6.22c-5.54-4.82-33.01-14.21-33.01-14.21,1.48-9.4,2.94-20.25,2.94-20.25,0,0,7,18.89,39.91,19.35,33.65-.16,40.71-19.36,40.71-19.36,0,0,1.45,10.85,2.93,20.25,0,0-27.46,9.38-33,14.2-5.54,4.82-9.54,6.23-9.54,6.23Z"/>
              <path class="cls-1" d="M409.32,25.85s.95-1.86,1.99-2.03h.02c1.03-.15,1.75.66,1.7,3.42-.06,2.78-1.84,4.96-2.59,5.48-.75.51-1.67.15-1.67.15h0c.26-2.45.45-5.23.55-7.02Z"/>
              <path class="cls-1" d="M381.43,32.87s-.92.37-1.67-.15c-.74-.52-2.52-2.7-2.58-5.48-.05-2.02.33-2.99.93-3.31.23-.13.49-.16.78-.11,1.04.17,1.99,2.03,1.99,2.03.1,1.79.29,4.57.55,7.02h0Z"/>
              <path class="cls-1" d="M353.93,134.95c-2.1,9.83-7.93,27.4-7.93,27.4,0,0,3.98,5.61,5.25,8.7.22.55.36,1.01.38,1.36.12,2.29,2.65,11.13,2.65,11.13,0,0-.15,2.62-2.6,1.1-2.46-1.51-5.44-8.48-5.44-8.48l-1.45,8.77s3.93,6.53,4.05,8.82c.12,2.29-2.41,2.12-2.41,2.12-.17.77-1.18,1.23-1.93.43-.74-.79-6.02-5.49-6.55-7.08-.53-1.59-.77-2.32-.77-2.32,0,0-1.95-2.79-2.5-4.33-.55-1.54.31-18.93.31-18.93,0,0,.41-15.99.02-24.66-.38-8.67,4.21-21.39,4.21-21.39,0,0,2.48-21.38,2.03-34.55-.45-13.17,5.01-19.65,14-22.86,8.99-3.21,27.28-11.43,27.28-11.43,0,0,7.64,2.14,15.52.24,3.42-.82,6.88-2.39,9.78-5.22l.66,4.96s18.29,8.22,27.28,11.43c8.99,3.21,14.45,9.7,14,22.85-.45,13.17,2.03,34.55,2.03,34.55,0,0,4.59,12.72,4.21,21.39-.39,8.66.02,24.66.02,24.66,0,0,.87,17.39.31,18.93s-2.5,4.34-2.5,4.34c0,0-.24.72-.77,2.31-.53,1.59-5.81,6.29-6.56,7.08-.74.79-1.75.33-1.93-.44,0,0-2.52.17-2.41-2.12.12-2.29,4.05-8.81,4.05-8.81l-1.45-8.77s-2.99,6.96-5.44,8.48c-2.46,1.52-2.6-1.11-2.6-1.11,0,0,2.53-8.84,2.65-11.12.01-.34.15-.81.38-1.35,1.27-3.09,5.25-8.72,5.25-8.72,0,0-5.83-17.57-7.93-27.39-.8,4.85-1.28,7.44-1.28,7.44,0,0-7.06,23.2-40.71,23.36-32.91-.46-39.91-23.35-39.91-23.35,0,0-.47-2.59-1.28-7.44Z"/>
              <path class="cls-1" d="M395.53,184.98c-1.12,11.12-5.04,50.44-5.04,52.35,0,2.21-1.93,6.74-1.93,6.74-.14,2.7-7.35,67.01-7.35,67.01.8,2.03.06,5.65.06,5.65,0,0,3.31,6.68,2.83,9.38s-5.28,3.02-11.19,4.24c-5.9,1.22-7.77,4.75-10.33,4.75s-13.33-1.67-13.62-3.85,2.63-2.79,3.34-3.6c.71-.8,11.3-10.73,11.75-12.65.45-1.93-.51-12.46-.77-16.7-.26-4.24-4.24-41.22-4.24-47.14s2.05-14.25,2.05-14.25c0,0-3.58-17.78-6.54-27.61-2.96-9.83-3.29-38.25-3.29-38.25.15-2.35.53-5.31,1.02-8.42,0,0,27.47,9.39,33.01,14.21,4.65,4.06,8.93,4.99,10.17,5.19-.15.02-.23.03-.23.03,0,0,.11,1.07.3,2.92Z"/>
              <path class="cls-1" d="M442.09,331.23c-.29,2.19-11.05,3.86-13.62,3.86s-6.43-3.54-12.34-4.76c-5.9-1.22-8.7-1.53-9.18-4.23s2.83-9.38,2.83-9.38c0,0-.75-3.63.06-5.64,0,0-7.21-64.32-7.35-67.02,0,0-1.93-4.52-1.93-6.74,0-1.9-3.92-41.21-5.03-52.34.18-1.84.29-2.91.29-2.91,0,0-.12,0-.35-.04,1.06-.15,5.47-1.01,10.29-5.21,5.54-4.81,33-14.19,33-14.19.49,3.11.88,6.07,1.03,8.42,0,0-.33,28.41-3.29,38.24-2.96,9.82-6.55,27.61-6.55,27.61,0,0,2.06,8.35,2.06,14.26s-3.99,42.89-4.25,47.13c-.25,4.24-1.22,14.77-.77,16.7.46,1.93,11.05,11.84,11.76,12.65.71.8,3.62,1.41,3.34,3.59Z"/>
              <path class="cls-6" d="M361.03,106.15c-.16,0-.32-.08-.41-.22-3.51-5.17-4.02-22.64-4.04-23.39,0-.28.21-.51.49-.51h.01c.27,0,.49.21.5.49,0,.18.52,17.93,3.86,22.85.15.23.1.54-.13.69-.08.06-.18.09-.28.09Z"/>
              <path class="cls-6" d="M357.62,91.34c-.17,0-.33-.08-.42-.24l-3.14-5.03c-.15-.23-.08-.54.16-.69.23-.15.54-.07.69.16l3.14,5.03c.15.23.08.54-.16.69-.08.05-.17.07-.26.07Z"/>
              <path class="cls-6" d="M353.93,135.45c-.26,0-.48-.2-.5-.46-1.31-16.35,5.76-32.28,5.83-32.44.11-.25.41-.36.66-.25.25.11.36.41.25.66-.07.16-7.04,15.86-5.74,31.95.02.27-.18.52-.46.54-.01,0-.03,0-.04,0Z"/>
              <path class="cls-6" d="M414.28,103.25s-.1,0-.15-.02c-19.82-6.05-36.28-.07-36.44,0-.26.1-.55-.03-.64-.29-.1-.26.04-.55.29-.64.17-.06,16.93-6.17,37.09,0,.26.08.41.36.33.62-.07.21-.26.35-.48.35Z"/>
              <path class="cls-6" d="M396.82,144.52c-.09,0-.17-.02-.25-.07-.97-.55-1.84-1.3-2.54-2.17-.17-.21-.14-.53.08-.7.22-.17.53-.14.7.08.62.77,1.4,1.44,2.25,1.93.24.14.32.44.18.68-.09.16-.26.25-.43.25Z"/>
              <ellipse class="cls-6" cx="367.86" cy="95.7" rx="2.34" ry="1.61"/>
              <ellipse class="cls-6" cx="421.96" cy="95.7" rx="2.34" ry="1.61"/>
              <path class="cls-6" d="M352.98,185.6c-.08,0-.16,0-.24-.01-1.01-.1-1.98-.74-2.65-1.76-.15-.23-.09-.54.14-.69.23-.15.54-.09.69.14.51.77,1.21,1.25,1.92,1.32.67.07,1.48-.35,1.61-1.04.1-.58-.24-1.18-.61-1.81l-.16-.28c-1.1-1.95-1.51-4.16-1.91-6.3-.09-.46-.17-.91-.26-1.37-.45-2.22-1.22-4.97-3.2-6.64-.21-.18-.24-.49-.06-.7.18-.21.49-.24.7-.06,2.22,1.87,3.05,4.83,3.53,7.21.09.46.18.92.27,1.38.39,2.06.78,4.19,1.8,5.99l.15.27c.42.73.9,1.55.73,2.49-.19,1.06-1.28,1.88-2.44,1.88Z"/>
              <path class="cls-6" d="M346.09,176.84c-.12,0-.25-.05-.35-.14l-2.69-2.58c-.2-.19-.21-.51-.02-.71.19-.2.51-.21.71-.02l2.69,2.58c.2.19.21.51.02.71-.1.1-.23.16-.36.16Z"/>
              <path class="cls-6" d="M346.63,196.31c-.13,0-.25-.05-.35-.14-1.64-1.6-3.35-3.25-4.76-5.13-1.54-2.05-4.02-6.18-3.22-10.83.05-.27.31-.45.58-.41.27.05.45.3.41.58-.73,4.28,1.59,8.14,3.04,10.06,1.37,1.82,3.04,3.44,4.66,5.01.2.19.2.51.01.71-.1.1-.23.15-.36.15Z"/>
              <path class="cls-6" d="M340.56,192.84c-.11,0-.22-.04-.32-.11-1.95-1.59-2.84-3.9-3.24-5.55-.5-2.07-.55-4.22-.59-6.29,0-.28.21-.51.49-.51h.01c.27,0,.49.22.5.49.04,2.02.09,4.1.56,6.07.36,1.51,1.17,3.6,2.9,5.01.21.18.25.49.07.7-.1.12-.24.18-.39.18Z"/>
              <path class="cls-6" d="M378.98,245.97c-3.18,0-8.38-1.2-10.69-3.38-.2-.19-.21-.51-.02-.71s.51-.21.71-.02c2.8,2.63,9.01,3.72,12.73,2.77.27-.07.54.1.61.36.07.27-.09.54-.36.61-.97.25-1.97.37-2.97.37Z"/>
              <path class="cls-6" d="M377.6,320.18c-.14,0-.27-.05-.37-.16-.19-.2-.17-.52.03-.71,1.02-.93,1.93-1.97,2.72-3.11.16-.23.47-.28.7-.13.23.16.28.47.13.7-.83,1.19-1.79,2.3-2.86,3.27-.1.09-.22.13-.34.13Z"/>
              <path class="cls-6" d="M361.27,335.32c-.1,0-.2-.03-.29-.09-.66-.47-.75-1.36-.49-2,.2-.51.6-.94,1.23-1.36.15-.1.3-.19.46-.28.29-.17.56-.33.79-.53.21-.18.53-.15.7.06.18.21.15.53-.06.7-.3.25-.61.44-.92.63-.14.08-.29.17-.42.26-.46.3-.73.58-.85.89-.12.3-.06.67.14.81.23.16.28.47.12.7-.1.14-.25.21-.41.21Z"/>
              <path class="cls-6" d="M358.4,335.1c-.15,0-.3-.07-.39-.19-.51-.65-.73-1.53-.61-2.35.13-.82.61-1.59,1.29-2.06.16-.11.34-.21.52-.31.31-.17.58-.32.73-.54.15-.23.47-.29.69-.14.23.15.29.47.14.69-.28.42-.7.65-1.07.85-.15.08-.3.16-.43.25-.46.32-.79.84-.87,1.39-.08.55.07,1.14.41,1.58.17.22.13.53-.09.7-.09.07-.2.11-.31.11Z"/>
              <path class="cls-6" d="M354.78,334.18c-.13,0-.26-.05-.36-.15-.47-.49-.73-1.15-.71-1.83.02-.68.33-1.33.83-1.78.38-.34.83-.54,1.26-.73.39-.17.76-.33,1.02-.59.2-.19.52-.19.71.01.19.2.19.52-.01.71-.39.38-.86.58-1.32.78-.38.16-.73.32-.99.55-.3.27-.49.67-.5,1.07-.01.4.14.81.43,1.1.19.2.19.52-.01.71-.1.09-.22.14-.35.14Z"/>
              <path class="cls-6" d="M351.64,333.34s-.05,0-.07,0l-.13-.02c-.15-.02-.29-.11-.37-.25-.35-.61-.46-1.35-.3-2.03.16-.68.58-1.3,1.16-1.69.23-.15.48-.27.74-.39.3-.14.59-.27.79-.47.2-.19.51-.2.71,0,.19.2.19.51,0,.71-.32.32-.72.51-1.07.67-.2.1-.41.19-.6.31-.37.25-.64.65-.75,1.09-.09.37-.05.77.1,1.12.19.09.32.3.29.52-.03.25-.25.43-.5.43Z"/>
              <path class="cls-6" d="M430.45,106.42c-.1,0-.2-.03-.28-.09-.23-.15-.29-.47-.13-.69,3.35-4.93,3.86-22.67,3.86-22.85,0-.27.23-.49.5-.49h.01c.28,0,.49.24.49.51-.02.74-.53,18.22-4.03,23.39-.1.14-.25.22-.41.22Z"/>
              <path class="cls-6" d="M433.86,91.6c-.09,0-.18-.02-.27-.08-.23-.15-.31-.46-.16-.69l3.14-5.03c.15-.24.46-.3.69-.16.23.15.31.46.16.69l-3.14,5.03c-.09.15-.26.24-.42.24Z"/>
              <path class="cls-6" d="M437.54,135.71s-.03,0-.04,0c-.28-.02-.48-.26-.46-.54,1.29-16.09-5.67-31.79-5.74-31.95-.11-.25,0-.55.25-.66.25-.11.55,0,.66.25.07.16,7.14,16.09,5.83,32.44-.02.26-.24.46-.5.46Z"/>
              <path class="cls-6" d="M421.28,95.97c0,.89,1.05,1.61,2.34,1.61s2.34-.72,2.34-1.61-1.05-1.61-2.34-1.61-2.34.72-2.34,1.61Z"/>
              <path class="cls-6" d="M438.18,184.87c-1.18,0-2.24-.8-2.43-1.88-.17-.94.31-1.76.73-2.49l.15-.27c1.02-1.8,1.41-3.93,1.8-5.99.09-.46.17-.93.27-1.38.48-2.38,1.32-5.34,3.53-7.21.21-.18.53-.15.7.06.18.21.15.53-.06.7-1.98,1.67-2.75,4.43-3.2,6.64-.09.45-.18.91-.26,1.37-.4,2.14-.81,4.35-1.91,6.3l-.16.28c-.37.63-.72,1.23-.61,1.81.12.7.95,1.12,1.61,1.04.7-.07,1.42-.56,1.92-1.32.15-.23.47-.29.69-.14.23.15.29.46.14.69-.68,1.02-1.65,1.66-2.65,1.76-.09,0-.17.01-.25.01Z"/>
              <path class="cls-6" d="M445.09,176.11c-.13,0-.26-.05-.36-.15-.19-.2-.18-.52.02-.71l2.69-2.58c.2-.19.52-.18.71.02.19.2.18.52-.02.71l-2.69,2.58c-.1.09-.22.14-.35.14Z"/>
              <path class="cls-6" d="M444.54,195.58c-.13,0-.26-.05-.36-.15-.19-.2-.19-.51.01-.71,1.62-1.57,3.29-3.2,4.66-5.01,1.45-1.92,3.77-5.79,3.03-10.07-.05-.27.14-.53.41-.58.27-.05.53.14.58.41.79,4.65-1.68,8.78-3.22,10.84-1.41,1.88-3.12,3.53-4.76,5.13-.1.09-.22.14-.35.14Z"/>
              <path class="cls-6" d="M450.62,192.11c-.14,0-.29-.06-.39-.18-.17-.21-.14-.53.07-.7,1.73-1.41,2.53-3.51,2.9-5.01.48-1.97.52-4.06.57-6.07,0-.27.23-.49.5-.49h.01c.28,0,.49.23.49.51-.04,2.07-.09,4.21-.59,6.29-.4,1.66-1.29,3.96-3.24,5.55-.09.08-.2.11-.31.11Z"/>
              <path class="cls-6" d="M412.5,246.23c-1,0-2-.12-2.97-.37-.27-.07-.43-.34-.36-.61.07-.27.34-.43.61-.36,3.72.95,9.93-.14,12.73-2.77.2-.19.52-.18.71.02.19.2.18.52-.02.71-2.31,2.17-7.51,3.38-10.69,3.38Z"/>
              <path class="cls-6" d="M413.87,320.45c-.12,0-.24-.04-.34-.13-1.07-.98-2.03-2.08-2.86-3.27-.16-.23-.1-.54.13-.7.23-.15.54-.1.7.13.78,1.13,1.7,2.18,2.72,3.11.2.19.22.5.03.71-.1.11-.23.16-.37.16Z"/>
              <path class="cls-6" d="M430.2,335.59c-.16,0-.31-.07-.41-.21-.16-.23-.11-.54.12-.7.2-.14.27-.51.14-.81-.12-.31-.4-.59-.85-.89-.14-.09-.28-.18-.42-.26-.31-.19-.63-.38-.93-.63-.21-.18-.24-.49-.06-.7.18-.21.49-.23.7-.06.23.2.51.36.8.53.15.09.31.18.46.28.64.42,1.03.85,1.23,1.35.26.64.17,1.53-.49,2.01-.09.06-.19.09-.29.09Z"/>
              <path class="cls-6" d="M433.08,335.36c-.11,0-.22-.03-.31-.1-.22-.17-.26-.48-.09-.7.34-.44.49-1.03.41-1.58s-.41-1.07-.87-1.39c-.14-.09-.28-.17-.43-.25-.37-.2-.79-.43-1.07-.85-.15-.23-.09-.54.14-.69.23-.15.54-.09.69.14.15.22.41.36.72.54.18.1.35.19.52.31.68.47,1.16,1.24,1.29,2.06.13.83-.09,1.69-.61,2.35-.1.13-.25.19-.4.19Z"/>
              <path class="cls-6" d="M436.69,334.45c-.12,0-.25-.05-.35-.14-.2-.19-.2-.51-.01-.71.28-.29.44-.7.42-1.1-.01-.4-.2-.8-.5-1.07-.26-.23-.61-.39-.99-.55-.46-.2-.93-.4-1.32-.79-.2-.19-.2-.51-.01-.71.19-.2.51-.2.71-.01.26.26.63.42,1.02.59.43.19.88.38,1.26.73.51.45.81,1.1.83,1.78.02.68-.23,1.35-.71,1.83-.1.1-.23.15-.36.15Z"/>
              <path class="cls-6" d="M439.84,333.61c-.25,0-.46-.18-.49-.43-.03-.22.09-.43.28-.52.15-.35.19-.75.1-1.12-.1-.44-.37-.84-.75-1.09-.19-.13-.39-.22-.6-.31-.35-.16-.75-.35-1.07-.67-.2-.2-.2-.51,0-.71.2-.2.51-.2.71,0,.2.2.48.33.78.47.24.11.5.23.74.39.58.39,1,1.01,1.16,1.69.16.68.05,1.42-.3,2.03-.08.14-.21.23-.37.25l-.13.02s-.04,0-.07,0ZM439.97,333.09h.01-.01Z"/>
              <path class="cls-6" d="M380.65,32.14c-.22,0-.42-.14-.48-.36-.45-1.62-1.13-3.17-2-4.6-.14-.24-.07-.54.17-.69.24-.14.54-.07.69.17.92,1.51,1.63,3.14,2.11,4.85.07.27-.08.54-.35.62-.05.01-.09.02-.14.02Z"/>
              <path class="cls-6" d="M409.6,31.91s-.08,0-.12-.01c-.27-.07-.43-.33-.37-.6.43-1.77,1.13-3.45,2.07-5,.15-.24.45-.31.69-.17.23.14.31.45.17.69-.9,1.46-1.55,3.05-1.96,4.71-.06.23-.26.38-.49.38Z"/>
              <g>
                <path class="cls-5" d="M402.16,21.95c-.31.49-1.26.43-2.13-.12-.87-.55-1.31-1.4-1.01-1.88.31-.49,1.26-.43,2.13.12.86.55,1.31,1.4,1,1.88Z"/>
                <path class="cls-5" d="M390.23,19.96c.37.45.02,1.33-.79,1.96-.8.63-1.75.78-2.11.33-.37-.45-.01-1.33.79-1.96.8-.63,1.75-.78,2.11-.34Z"/>
                <path class="cls-4" d="M389.58,33.42c0,1.56-1.27,2.83-2.83,2.83s-2.83-1.27-2.83-2.83,1.27-2.83,2.83-2.83,2.83,1.27,2.83,2.83Z"/>
                <path class="cls-4" d="M406.49,33.42c0,1.56-1.27,2.83-2.83,2.83s-2.83-1.27-2.83-2.83,1.27-2.83,2.83-2.83,2.83,1.27,2.83,2.83Z"/>
                <path class="cls-3" d="M398.29,34.88c-1.36,4.31-4.89,5.56-6.7.15l6.7-.15Z"/>
                <path class="cls-5" d="M388.67,26.88c-.01.71.31,1.28.72,1.29.41,0,.75-.56.76-1.27s-.31-1.28-.72-1.29c-.41,0-.75.56-.76,1.27Z"/>
                <path class="cls-5" d="M399.14,26.71c-.01.71.31,1.28.72,1.29.41,0,.75-.56.76-1.27.01-.71-.31-1.28-.72-1.29-.41,0-.75.56-.76,1.27Z"/>
                <path class="cls-5" d="M395.51,25.96c-.29,1.93-1.05,3.67-2,5.34,0,0-.32-.66-.32-.66,1.21.37,2.42.76,3.58,1.32-1.29-.02-2.55-.2-3.8-.4l-.53-.09c.72-2,1.62-3.91,3.07-5.52h0Z"/>
              </g>
            </g>
          </g>
        </g>
      </g>
    </g>
  </g>
</svg>