<?xml version="1.0" encoding="UTF-8"?>
<svg xmlns="http://www.w3.org/2000/svg" viewBox="0 0 1053.72 519.68">
  <defs>
    <style>
      .cls-1 {
        fill: #826baa;
      }

      .cls-2 {
        fill: #c4d5f3;
      }

      .cls-3 {
        fill: #e27dc3;
      }

      .cls-4 {
        fill: #f5e8cd;
      }

      .cls-5 {
        fill: #222935;
      }

      .cls-6 {
        fill: #b5c96b;
      }

      .cls-7 {
        isolation: isolate;
      }

      .cls-8 {
        fill: #ebb32f;
      }

      .cls-9 {
        fill: #dcecef;
      }

      .cls-10 {
        fill: #f4c7b5;
      }

      .cls-11 {
        fill: none;
        stroke: #fff;
        stroke-dasharray: 12 12;
        stroke-linecap: round;
        stroke-miterlimit: 10;
        stroke-width: 4px;
      }

      .cls-12 {
        fill: #9a9c50;
      }

      .cls-13 {
        fill: #fff;
      }

      .cls-14 {
        fill: #e9cd9d;
      }

      .cls-15 {
        fill: #eab3a0;
      }

      .cls-16 {
        fill: #0f0f0f;
        mix-blend-mode: soft-light;
        opacity: .46;
      }

      .cls-17 {
        fill: #5e5748;
      }

      .cls-18 {
        fill: #b9bd7a;
      }

      .cls-19 {
        fill: #2b6ea0;
      }

      .cls-20 {
        fill: #3e86c7;
      }

      .cls-21 {
        fill: #f47171;
      }

      .cls-22 {
        fill: #94ab6c;
      }

      .cls-23 {
        fill: #d1704d;
      }

      .cls-24 {
        fill: #f38b2f;
      }

      .cls-25 {
        fill: #bc573a;
      }

      .cls-26 {
        fill: #93a9de;
      }
      
    </style>
  </defs>
  <g class="cls-7">
    <g id="_圖層_2" data-name="圖層 2">
      <g id="_圖層_1-2" data-name="圖層 1">
        <g id="rotation-girl">
          <g id="girl">
            <g>
              <g>
                <path class="cls-12" d="M644.61,301.53c6.98-13.67,1.31-31.26,8.42-44.88,5.77-11.05,18.27-16.45,29.64-21.58,1.82-.82,3.65-1.68,5.47-2.61,2.77-1.4,5.49-2.94,8.05-4.66.71,3,1.67,5.99,2.75,8.9.71,1.91,1.48,3.79,2.25,5.62,4.86,11.47,10.39,23.93,7.13,35.95-4.01,14.82-20.1,23.91-24.24,38.69-3.29,11.69,1.69,24.04,1.45,36.19-.29,14.23-8.33,28.06-20.55,35.34-7.43,4.43-16,6.46-23.91,9.93-7.45,3.26-14.78,8.37-17.74,15.87l.55-1.53-.64,1.5c2.9-7.52,1-16.24-2.27-23.7-3.47-7.92-8.39-15.22-10.84-23.52-4.04-13.63-.57-29.25,8.88-39.91,8.06-9.09,20.09-14.79,25.61-25.6Z"/>
                <path class="cls-18" d="M623.87,413.9c-.14,0-.28-.03-.42-.08-.59-.23-.88-.9-.65-1.49l66.05-168.93c.23-.59.89-.88,1.49-.65.59.23.88.9.65,1.49l-66.05,168.93c-.18.45-.61.73-1.07.73Z"/>
                <path class="cls-18" d="M669.01,298.45c-.14,0-.27-.02-.41-.07-.35-.13-.61-.42-.71-.78l-9.18-35.2c-.16-.61.21-1.24.82-1.4.61-.16,1.24.21,1.4.82l8.77,33.63,28.28-19.11c.52-.36,1.24-.22,1.59.31.36.52.22,1.24-.31,1.59l-29.63,20.02c-.19.13-.42.2-.64.2Z"/>
                <path class="cls-18" d="M636.93,380.89c-.14,0-.27-.02-.41-.07-.35-.13-.61-.42-.71-.78l-11.58-44.38c-.16-.61.21-1.24.82-1.4.61-.16,1.24.21,1.4.82l11.17,42.81,36.02-24.34c.52-.36,1.24-.22,1.59.31.36.52.22,1.24-.31,1.59l-37.36,25.25c-.19.13-.42.2-.64.2Z"/>
                <path class="cls-18" d="M655.43,332.87c-.14,0-.27-.02-.4-.07-.35-.13-.61-.42-.71-.79l-7.18-27.53c-.16-.61.21-1.24.82-1.4.6-.15,1.24.21,1.4.82l6.77,25.96,21.83-14.75c.52-.36,1.24-.22,1.59.31.36.52.22,1.24-.31,1.59l-23.18,15.66c-.19.13-.42.2-.64.2Z"/>
              </g>
              <g>
                <path class="cls-12" d="M403.37,273.21c-8.01-13.19-3.63-31.25-11.76-44.37-6.6-10.65-19.54-15.14-31.31-19.44-1.88-.69-3.78-1.42-5.68-2.22-2.88-1.2-5.73-2.54-8.42-4.08-.49,3.06-1.23,6.13-2.1,9.12-.57,1.97-1.2,3.91-1.84,5.8-4.03,11.86-8.64,24.76-4.49,36.58,5.12,14.56,21.92,22.48,27.17,36.99,4.16,11.48.08,24.23,1.22,36.39,1.34,14.25,10.43,27.52,23.22,33.91,7.77,3.89,16.52,5.29,24.71,8.18,7.71,2.71,15.44,7.3,18.96,14.59l-.66-1.49.75,1.46c-3.46-7.32-2.21-16.21.52-23.93,2.89-8.2,7.29-15.88,9.13-24.38,3.04-13.97-1.6-29.37-11.85-39.35-8.75-8.51-21.23-13.34-27.57-23.77Z"/>
                <path class="cls-18" d="M432.39,384.34c-.43,0-.84-.24-1.04-.65l-78.72-164.48c-.27-.57-.03-1.26.54-1.53.57-.27,1.26-.03,1.53.54l78.72,164.48c.27.57.03,1.26-.54,1.53-.16.08-.33.11-.49.11Z"/>
                <path class="cls-18" d="M378.59,271.93c-.2,0-.4-.05-.57-.15l-31.18-17.88c-.55-.32-.74-1.02-.42-1.57.31-.55,1.02-.74,1.57-.42l29.78,17.07,6.31-34.37c.11-.62.71-1.04,1.34-.92.62.11,1.04.71.92,1.34l-6.6,35.97c-.07.37-.31.68-.65.83-.15.07-.32.11-.48.11Z"/>
                <path class="cls-18" d="M416.86,352.21c-.2,0-.4-.05-.57-.15l-39.33-22.55c-.55-.31-.74-1.02-.42-1.57.32-.55,1.02-.74,1.57-.42l37.92,21.74,8.03-43.76c.11-.62.71-1.04,1.34-.92.62.11,1.04.71.92,1.34l-8.33,45.36c-.07.37-.31.68-.65.83-.15.07-.32.11-.48.11Z"/>
                <path class="cls-18" d="M394.75,305.43c-.2,0-.4-.05-.57-.15l-24.39-13.99c-.55-.32-.74-1.02-.42-1.57.32-.55,1.02-.74,1.57-.42l22.99,13.18,4.87-26.54c.11-.62.71-1.04,1.34-.92.62.11,1.04.71.92,1.34l-5.16,28.13c-.07.37-.31.68-.65.83-.15.07-.32.11-.48.11Z"/>
              </g>
              <g>
                <path class="cls-18" d="M675.99,406.78c-12.18,6.75-33.1-6.58-51.28-4.79,10.01-15.28,7.88-40,19.51-47.66,11.62-7.67,27.98,1.71,38.41-5.02,10.43-6.73,14.5-20.7,23.8-28.1,9.3-7.39,22.51-8.03,35.96-4.79,13.47,3.24,25.05-.87,25.05-.87,0,0-9.02,8.36-12.38,21.8-3.36,13.43-10.05,24.84-20.91,29.65-10.86,4.82-25.13,1.96-35.93,8.08-10.79,6.12-10.07,24.96-22.25,31.71Z"/>
                <path class="cls-12" d="M624.92,403.49c-.39,0-.77-.2-.98-.55-.33-.54-.16-1.25.39-1.58l118.02-71.47c.54-.32,1.25-.16,1.58.39.33.54.16,1.25-.39,1.58l-118.02,71.47c-.19.11-.39.17-.59.17Z"/>
                <path class="cls-12" d="M732.73,356.25s-.05,0-.07,0l-27.15-1.61c-.37-.02-.71-.22-.91-.54-.2-.32-.23-.71-.08-1.05l10.73-25.5c.25-.59.92-.85,1.5-.61.58.25.86.92.61,1.5l-10.1,24.01,25.53,1.51c.63.04,1.12.58,1.08,1.22-.04.61-.54,1.08-1.15,1.08Z"/>
                <path class="cls-12" d="M682.31,391.62s-.05,0-.07,0l-34.24-2.03c-.37-.02-.71-.22-.91-.54-.2-.32-.23-.71-.08-1.05l13.53-32.16c.25-.59.92-.86,1.5-.61.58.25.86.92.61,1.5l-12.91,30.67,32.62,1.94c.63.04,1.12.58,1.08,1.22-.04.61-.54,1.08-1.14,1.08Z"/>
                <path class="cls-12" d="M702.7,370.4s-.05,0-.07,0l-21.24-1.26c-.37-.02-.71-.22-.91-.54-.2-.32-.23-.71-.08-1.05l8.4-19.95c.25-.59.92-.86,1.5-.61.58.25.86.92.61,1.5l-7.77,18.46,19.62,1.16c.63.04,1.12.58,1.08,1.22-.04.61-.54,1.08-1.14,1.08Z"/>
              </g>
              <g>
                <path class="cls-18" d="M380.48,388.25c11.55,6.27,31.18-6.48,48.35-4.94-9.57-14.34-7.76-37.68-18.8-44.82-11.03-7.14-26.39,1.84-36.28-4.43s-13.85-19.41-22.69-26.32c-8.84-6.9-21.3-7.39-33.98-4.22-12.68,3.17-23.65-.62-23.65-.62,0,0,8.58,7.81,11.86,20.47,3.28,12.64,9.68,23.35,19.97,27.8,10.29,4.46,23.73,1.64,33.97,7.33,10.23,5.69,9.7,23.47,21.25,29.74Z"/>
                <path class="cls-12" d="M428.63,384.79c-.2,0-.4-.05-.59-.16l-111.95-66.48c-.55-.32-.72-1.03-.4-1.57s1.03-.73,1.57-.4l111.95,66.48c.55.32.72,1.03.4,1.57-.21.36-.6.56-.99.56Z"/>
                <path class="cls-12" d="M326.52,341.1c-.6,0-1.1-.46-1.15-1.07-.04-.63.44-1.18,1.07-1.22l23.99-1.63-9.69-22.49c-.25-.58.02-1.26.6-1.51.58-.25,1.26.02,1.51.6l10.33,23.98c.15.34.12.74-.07,1.05-.19.32-.53.52-.9.55l-25.61,1.74s-.05,0-.08,0Z"/>
                <path class="cls-12" d="M374.38,374.06c-.6,0-1.1-.46-1.14-1.07-.04-.63.44-1.18,1.07-1.22l30.68-2.08-12.39-28.75c-.25-.58.02-1.26.6-1.51.58-.25,1.26.02,1.51.6l13.03,30.24c.15.34.12.74-.07,1.05-.19.32-.53.52-.9.55l-32.29,2.19s-.05,0-.08,0Z"/>
                <path class="cls-12" d="M354.97,354.21c-.6,0-1.1-.46-1.15-1.07-.04-.63.44-1.18,1.07-1.22l18.41-1.25-7.44-17.27c-.25-.58.02-1.26.6-1.51.58-.25,1.26.02,1.51.6l8.09,18.76c.15.34.12.74-.07,1.05-.19.32-.53.52-.9.55l-20.03,1.36s-.05,0-.08,0Z"/>
              </g>
              <ellipse class="cls-9" cx="518.7" cy="490.25" rx="195.61" ry="29.43"/>
              <ellipse class="cls-9" cx="320.05" cy="434.14" rx="99.33" ry="14.95"/>
              <ellipse class="cls-9" cx="720.46" cy="427.22" rx="68.98" ry="14.95"/>
              <g>
                <path class="cls-2" d="M332.48,430.23c-4.55,1-10.81,1.52-27.74,1.53h-.37c-16.93,0-23.18-.52-27.74-1.53-4.59-1-3.87-4.94-3.87-4.94v-73.63c0-4.67,4.01-6.04,4.01-6.04,2.22-8.7,0-13.74,0-13.74-3.94-1.74-4.01-5.86-4.01-5.86v-37.91c0-7.23,5.16-7.69,5.16-7.69h53.26s5.16.46,5.16,7.69v37.91s-.07,4.12-4.02,5.86c0,0-2.22,5.04,0,13.74,0,0,4.02,1.38,4.02,6.04v73.63s.72,3.94-3.87,4.94Z"/>
                <polygon class="cls-20" points="329.22 277.49 329.22 280.41 279.9 280.41 279.9 277.49 304.37 277.49 304.56 277.51 304.74 277.49 329.22 277.49"/>
                <path class="cls-20" d="M314.16,238.48h-19.2c1.67-3.33,8.46-3.1,9.61-3.03,1.23-.07,7.94-.27,9.59,3.03Z"/>
                <path class="cls-20" d="M333.84,259.08v18.41h-58.57v-18.41c.06-2.75,1.94-4.81,1.94-4.81h54.7s1.88,2.06,1.94,4.81Z"/>
                <polygon class="cls-20" points="331.9 254.27 277.21 254.27 297.42 249.19 297.42 238.48 311.68 238.48 311.68 249.19 331.9 254.27"/>
                <path class="cls-26" d="M305.65,334.77c-15.54,0-27.29-2.26-27.47-2.29-.62-.12-1.03-.73-.9-1.35.12-.62.72-1.03,1.35-.9.26.05,26.29,5.05,51.95,0,.62-.12,1.23.28,1.35.9s-.28,1.23-.9,1.35c-8.75,1.72-17.54,2.29-25.36,2.29Z"/>
                <path class="cls-26" d="M305.63,350.65c-15.58,0-27.38-3.01-27.56-3.06-.61-.16-.98-.79-.82-1.4.16-.61.79-.98,1.4-.82.26.07,26.26,6.69,51.81,0,.62-.15,1.24.21,1.4.82.16.61-.21,1.24-.82,1.4-8.76,2.29-17.57,3.06-25.41,3.06Z"/>
                <path class="cls-26" d="M277.21,321.04c-.63,0-1.15-.51-1.15-1.15v-30.39c0-.64.51-1.15,1.15-1.15s1.15.51,1.15,1.15v30.39c0,.64-.51,1.15-1.15,1.15Z"/>
                <path class="cls-26" d="M278.36,424.79c-.63,0-1.15-.51-1.15-1.15v-63.37c0-.64.51-1.15,1.15-1.15s1.15.51,1.15,1.15v63.37c0,.63-.51,1.15-1.15,1.15Z"/>
                <path class="cls-19" d="M331.9,255.42h-54.7c-.63,0-1.15-.51-1.15-1.15s.51-1.15,1.15-1.15h54.7c.63,0,1.15.51,1.15,1.15s-.51,1.15-1.15,1.15Z"/>
                <path class="cls-19" d="M329.22,278.63h-49.32c-.63,0-1.15-.51-1.15-1.15s.51-1.15,1.15-1.15h49.32c.63,0,1.15.51,1.15,1.15s-.51,1.15-1.15,1.15Z"/>
                <path class="cls-19" d="M314.16,239.62h-19.2c-.63,0-1.15-.51-1.15-1.15s.51-1.15,1.15-1.15h19.2c.63,0,1.15.51,1.15,1.15s-.51,1.15-1.15,1.15Z"/>
                <path class="cls-19" d="M308.69,250.5h-8.93c-.63,0-1.15-.51-1.15-1.15s.51-1.15,1.15-1.15h8.93c.63,0,1.15.51,1.15,1.15s-.51,1.15-1.15,1.15Z"/>
                <path class="cls-19" d="M283.27,278.63c-.63,0-1.15-.51-1.15-1.15v-23.21c0-.64.51-1.15,1.15-1.15s1.15.51,1.15,1.15v23.21c0,.64-.51,1.15-1.15,1.15Z"/>
                <path class="cls-19" d="M304.22,278.63c-.63,0-1.15-.51-1.15-1.15v-23.21c0-.64.51-1.15,1.15-1.15s1.15.51,1.15,1.15v23.21c0,.64-.51,1.15-1.15,1.15Z"/>
                <path class="cls-19" d="M325.51,278.63c-.63,0-1.15-.51-1.15-1.15v-23.21c0-.64.51-1.15,1.15-1.15s1.15.51,1.15,1.15v23.21c0,.64-.51,1.15-1.15,1.15Z"/>
                <path class="cls-19" d="M293.91,278.63c-.63,0-1.15-.51-1.15-1.15v-23.21c0-.64.51-1.15,1.15-1.15s1.15.51,1.15,1.15v23.21c0,.64-.51,1.15-1.15,1.15Z"/>
                <path class="cls-19" d="M315.2,278.63c-.63,0-1.15-.51-1.15-1.15v-23.21c0-.64.51-1.15,1.15-1.15s1.15.51,1.15,1.15v23.21c0,.64-.51,1.15-1.15,1.15Z"/>
              </g>
              <g>
                <path class="cls-23" d="M303.95,397.48c-.3,12.47-13.42,25.24-19.15,31.56-4.73,5.21-14.12,2.79-17.26,1.78-3.14,1.01-12.54,3.44-17.27-1.78-5.73-6.32-18.85-19.09-19.15-31.56-.29-12.47,5.5-26.71,17.26-26.95,9.31-.19,16.55,2.59,19.16,3.75,2.62-1.17,9.85-3.94,19.15-3.75,11.76.24,17.55,14.48,17.26,26.95Z"/>
                <path class="cls-12" d="M270.16,356.38s-4.89,8.16-3.86,19.15c0,0,.25,1.06,1.86,0,0,0-1.51-10.48,5.47-17.81,0,0-.4-2.8-3.47-1.34Z"/>
                <path class="cls-25" d="M262.82,377.8c-2.75,0-4.88-.64-5.06-.69-.61-.19-.94-.83-.76-1.43.19-.61.83-.94,1.43-.76.08.02,7.65,2.27,11.9-2.29.43-.46,1.16-.49,1.62-.06.46.43.49,1.16.06,1.62-2.69,2.89-6.29,3.61-9.2,3.61Z"/>
                <path class="cls-25" d="M239.16,409.19c-.37,0-.72-.17-.95-.5-3.76-5.48-5.19-12.36-3.93-18.88,1.27-6.52,5.17-12.37,10.7-16.04.53-.35,1.24-.21,1.59.32.35.53.21,1.24-.32,1.59-5.03,3.33-8.57,8.64-9.71,14.56-1.15,5.92.15,12.17,3.57,17.14.36.52.23,1.24-.3,1.6-.2.14-.42.2-.65.2Z"/>
                <path class="cls-25" d="M290.95,417.94c-.32,0-.63-.13-.86-.39-.42-.47-.38-1.2.1-1.62,6.5-5.77,9.74-15.03,8.25-23.59-.11-.62.31-1.22.93-1.33.63-.1,1.22.31,1.33.93,1.63,9.33-1.9,19.42-8.99,25.7-.22.19-.49.29-.76.29Z"/>
                <path class="cls-12" d="M266.69,366.53s-5.23-14.39-14.69-17.76c-9.46-3.37-24.35,3.19-24.35,3.19,0,0,3.79,25.52,39.04,14.56Z"/>
              </g>
              <g>
                <path class="cls-20" d="M747.75,430.77c-4.59.66-12.92,1.46-26.54,1.46s-21.95-.8-26.55-1.46c-3.06-.44-5.51-2.73-6.25-5.73-1.96-8.04-1.16-15.76-.12-20.85.72-3.53,3.8-6.09,7.41-6.09h1.89c8.4,0,10.56-6.94,8.84-15.82-1.73-8.87-1.69-19.51-1.69-19.51,0,0-.05-10.64,1.69-19.51,1.72-8.87-.44-15.82-8.84-15.82h-1.89c-3.6,0-6.69-2.55-7.41-6.09-1.04-5.09-1.85-12.81.12-20.85.74-3,3.19-5.28,6.25-5.73,4.6-.66,12.92-1.44,26.55-1.44s21.95.79,26.54,1.44c3.06.45,5.51,2.73,6.25,5.73,1.96,8.04,1.17,15.76.13,20.85-.73,3.53-3.81,6.09-7.42,6.09h-1.89c-8.39,0-10.56,6.94-8.84,15.82,1.73,8.87,1.69,19.51,1.69,19.51,0,0,.05,10.64-1.69,19.51-1.72,8.87.45,15.82,8.84,15.82h1.89c3.6,0,6.69,2.55,7.42,6.09,1.04,5.09,1.84,12.81-.13,20.85-.74,3-3.19,5.29-6.25,5.73Z"/>
                <path class="cls-19" d="M721.11,302.79c-15.5,0-26.62-2.39-26.79-2.43-.62-.14-1.01-.75-.88-1.37.14-.62.75-1.01,1.37-.88.24.05,24.83,5.33,51.72,0,.62-.13,1.23.28,1.35.9.12.62-.28,1.23-.9,1.35-9.17,1.82-18.08,2.43-25.87,2.43Z"/>
                <path class="cls-19" d="M722.23,331.47c-8.14,0-15.16-1.05-15.6-1.12-.63-.1-1.06-.68-.96-1.31.1-.63.67-1.06,1.31-.96.16.02,16.1,2.41,27.58.01.62-.14,1.23.27,1.36.89.13.62-.27,1.23-.89,1.36-4.06.85-8.58,1.13-12.79,1.13Z"/>
                <path class="cls-19" d="M721.71,401.38c-9.83,0-17.22-2.04-17.68-2.17-.61-.17-.96-.81-.79-1.42.17-.61.81-.97,1.42-.79.16.04,16.71,4.6,32.99,0,.61-.18,1.24.18,1.42.79.17.61-.18,1.24-.79,1.42-5.76,1.63-11.48,2.17-16.56,2.17Z"/>
                <path class="cls-19" d="M722.67,408.46c-17.94,0-32.21-3.79-32.42-3.85-.61-.17-.97-.8-.81-1.41.17-.61.79-.98,1.41-.81.32.08,31.84,8.45,59.75,0,.6-.18,1.25.16,1.43.77.18.61-.16,1.25-.77,1.43-9.57,2.9-19.55,3.86-28.6,3.86Z"/>
                <path class="cls-19" d="M692.4,425.68c-.47,0-.91-.29-1.08-.76-2.35-6.48-.14-16.9-.04-17.34.13-.62.75-1.02,1.37-.88.62.13,1.01.74.88,1.37-.02.1-2.16,10.22-.04,16.07.22.6-.09,1.26-.69,1.47-.13.05-.26.07-.39.07Z"/>
                <path class="cls-19" d="M710.48,382.91c-.45,0-.88-.27-1.06-.71-6.22-15.03-.3-36.36-.04-37.26.17-.61.81-.97,1.42-.79.61.17.96.81.79,1.42-.06.21-5.96,21.47-.04,35.76.24.59-.04,1.26-.62,1.5-.14.06-.29.09-.44.09Z"/>
              </g>
              <g>
                <path class="cls-6" d="M588.21,371.29s-.98.74-3,1.91h0c-8.49,5.01-35.3,19.72-82.89,19.72h0c-47.59,0-74.39-14.72-82.89-19.71h0c-2.01-1.19-3-1.92-3-1.92.18-20.61,6.98-26.61,12.87-41.38.4.26,3.19-8.64,3.53-8.4,2.89-6.45,4.98-10.33,4.98-10.33l-1.78-21.04c-19.91-14.81-12.36-31.54-10.01-45.34.15-.88.34-1.97.54-3.25,2.7-16.41,10.02-62.96,11.74-74,.25-1.53.38-2.38.38-2.38l9.59-1.53s.01.93.13,2.54c.82,11.59,7.05,58.81,53.89,58.81h.01c46.84,0,53.07-47.22,53.89-58.81.12-1.62.13-2.54.13-2.54l9.59,1.53s.13.85.38,2.38c1.72,11.05,9.04,57.59,11.74,74,.21,1.28.4,2.37.54,3.25,2.34,13.8,9.9,30.53-10.01,45.34l-1.78,21.04s2.09,3.88,4.97,10.33c.34-.24,3.14,8.67,3.54,8.4,5.89,14.77,12.69,20.77,12.87,41.38Z"/>
                <path class="cls-16" d="M383.77,327.84c-.17,0-.34-.04-.5-.11l-5.72-2.76c-.57-.27-.81-.96-.54-1.53.27-.57.96-.81,1.53-.54l5.72,2.76c.57.27.81.96.54,1.53-.2.41-.61.65-1.03.65Z"/>
                <g>
                  <path class="cls-10" d="M432.84,321.51c4.55,4.75,5.14,7.68,4.94,9.17-.35,2.66-1.53,4.09-7.35,0-.34-.24-.72-.5-1.12-.76-6.38-4.3-19.41-11.9-19.41-11.9,0,0-2.39,1.75-6.33,2.66-3.92.93-5.51-.51-5.51-.51-2.15,3.69-6.95,3.79-6.95,3.79-2.34,3.16-7.35,2.75-7.35,2.75,0,0-5.04,4.08-8.99,1.91-3.94-2.17-19.32-25.87-19.32-25.87,0,0-17.7-10.47-27.24-16.34-9.52-5.85-12.8-11.17-12.8-11.17-.96-5.72-.41-20.97,4.08-26.95,4.5-5.99,86.32-72.29,96.4-75.97l22.42-4.76c-1.72,11.05-9.04,57.59-11.74,74h-.13s-5.41-7.46-5.41-7.46l-60.66,29.81,5.22,9.29s36,12.15,38.29,15.63c2.29,3.47,9.3,17.97,9.3,17.97,10.04,6.14,16.07,10.99,19.66,14.72Z"/>
                  <path class="cls-16" d="M409.91,319.16c-.17,0-.35-.04-.52-.12l-13.21-6.7c-.57-.29-.79-.98-.5-1.54.29-.56.98-.79,1.54-.5l13.21,6.7c.57.29.79.98.5,1.54-.2.4-.61.63-1.02.63Z"/>
                  <path class="cls-16" d="M413.18,307.93c-.23,0-.45-.07-.65-.2l-8.44-5.82c-.12-.08-.23-.19-.31-.31l-2.86-4.36c-.35-.53-.2-1.24.33-1.59.53-.35,1.24-.2,1.59.33l2.74,4.17,8.26,5.69c.52.36.65,1.08.29,1.6-.22.32-.58.5-.95.5Z"/>
                  <path class="cls-16" d="M398.06,321.31c-.15,0-.31-.03-.46-.1l-4.9-2.14c-.58-.25-.85-.93-.59-1.51.25-.58.93-.85,1.51-.59l4.9,2.14c.58.25.85.93.59,1.51-.19.43-.61.69-1.05.69Z"/>
                  <path class="cls-16" d="M391.12,325.09c-.21,0-.42-.06-.61-.18l-4.9-3.1c-.54-.34-.7-1.05-.36-1.58s1.05-.69,1.58-.36l4.9,3.1c.54.34.7,1.05.36,1.58-.22.35-.59.54-.97.54Z"/>
                  <path class="cls-16" d="M360.39,265.05c-.41,0-.81-.22-1.01-.61-.05-.09-5-9.31-9.69-14.73-4.44-5.13-14.72-5.46-14.82-5.46-.63-.02-1.13-.54-1.12-1.18.02-.64.5-1.1,1.18-1.12.46.01,11.39.35,16.5,6.25,4.86,5.61,9.77,14.76,9.98,15.15.3.56.09,1.26-.47,1.56-.17.09-.36.14-.54.14Z"/>
                  <path class="cls-16" d="M425.52,242.21l-5.41-7.45c-1.94-2.67-7.7-8.63-7.76-8.69-.44-.46-.43-1.18.03-1.62.45-.44,1.18-.43,1.62.03.24.25,5.93,6.14,7.97,8.94l5.41,7.45-1.86,1.35Z"/>
                </g>
                <path class="cls-16" d="M613.54,325.09c-.38,0-.75-.19-.97-.54-.34-.54-.18-1.24.36-1.58l4.9-3.1c.54-.34,1.25-.18,1.58.36.34.54.18,1.24-.36,1.58l-4.9,3.1c-.19.12-.4.18-.61.18Z"/>
                <path class="cls-16" d="M620.89,327.84c-.43,0-.84-.24-1.03-.65-.28-.57-.04-1.26.54-1.53l5.72-2.76c.58-.27,1.26-.04,1.53.54.28.57.04,1.26-.54,1.53l-5.72,2.76c-.16.08-.33.11-.5.11Z"/>
                <path class="cls-10" d="M689.24,275.23s-3.28,5.32-12.8,11.17c-9.54,5.86-27.24,16.34-27.24,16.34,0,0-15.38,23.7-19.34,25.87-3.94,2.17-8.98-1.91-8.98-1.91,0,0-5.01.41-7.36-2.75,0,0-4.79-.1-6.93-3.79,0,0-1.59,1.44-5.51.51-3.94-.91-6.33-2.66-6.33-2.66,0,0-13.03,7.6-19.41,11.9-.4.26-.78.53-1.12.76-5.82,4.09-6.99,2.66-7.36,0-.19-1.48.38-4.42,4.94-9.17,3.59-3.73,9.62-8.58,19.67-14.72,0,0,6.99-14.5,9.3-17.97,2.29-3.48,38.29-15.63,38.29-15.63l5.2-9.29-60.65-29.81-5.41,7.45h-.13c-2.7-16.4-10.02-62.94-11.74-73.99l22.42,4.76c10.08,3.69,91.9,69.98,96.4,75.97,4.48,5.98,5.02,21.23,4.08,26.94Z"/>
                <path class="cls-16" d="M594.75,319.16c-.42,0-.82-.23-1.03-.63-.29-.57-.06-1.26.5-1.54l13.21-6.7c.57-.29,1.26-.06,1.54.5.29.57.06,1.26-.5,1.54l-13.21,6.7c-.17.08-.35.12-.52.12Z"/>
                <path class="cls-16" d="M591.48,307.93c-.36,0-.72-.17-.95-.5-.36-.52-.23-1.24.29-1.6l8.26-5.69,2.74-4.17c.35-.53,1.06-.68,1.59-.33.53.35.68,1.06.33,1.59l-2.86,4.36c-.08.12-.19.23-.31.31l-8.44,5.82c-.2.14-.43.2-.65.2Z"/>
                <path class="cls-16" d="M606.59,321.31c-.44,0-.86-.26-1.05-.69-.25-.58.01-1.26.59-1.51l4.9-2.14c.58-.26,1.26.01,1.51.59.25.58-.01,1.26-.59,1.51l-4.9,2.14c-.15.07-.3.1-.46.1Z"/>
                <path class="cls-16" d="M644.27,265.05c-.18,0-.37-.04-.54-.14-.56-.3-.77-.99-.47-1.56.21-.39,5.12-9.54,9.98-15.15,5.11-5.9,16.03-6.24,16.5-6.25h.03c.62,0,1.13.49,1.15,1.12.02.63-.48,1.16-1.12,1.18-.1,0-10.38.33-14.82,5.46-4.7,5.42-9.64,14.64-9.69,14.73-.21.39-.6.61-1.01.61Z"/>
                <path class="cls-16" d="M579.13,242.21l-1.86-1.35,5.41-7.45c2.03-2.8,7.73-8.69,7.97-8.94.44-.46,1.17-.47,1.62-.03.46.44.47,1.17.03,1.62-.06.06-5.82,6.02-7.76,8.69l-5.41,7.45Z"/>
                <path class="cls-17" d="M556.8,148.75c-7.48,6.82-16.66,11.71-26.4,14.56-29.51,9.21-55.77-3.01-55.77-3.01-3.85-1.16-7.72-2.25-11.66-2.98-6.96-1.27-14.41-1.36-20.91,1.32-5.22-7.83-5.45-18.2-3.45-27.49,2.09-9.7,6.29-18.83,8.67-28.46.68-2.75,1.21-5.53,1.66-8.32.99-6.15,1.63-12.37,2.71-18.5,1.57-8.93,4.23-17.94,9.84-25.05,4.57-5.8,11.43-10.14,18.68-10.8,8.11-5.46,18.29-6.63,28.01-6.63,2.48,0,4.95.2,7.41.64,12.07,2.07,23.25,9.53,29.19,20.26,7.58,13.72,5.62,28.4,5.66,44.06,0,.65,0,1.3.02,1.95.19,16.33,2.32,32.64,6.33,48.46Z"/>
                <path class="cls-10" d="M467.16,111.97c.16,1.62.44,3.22.84,4.79-1.22.21-3.56.43-4.92-.59-1.91-1.41-6.46-7.42-6.61-15.09-.07-3.57.31-5.97.98-7.45.79-1.69,1.98-2.2,3.41-1.95,2.66.44,5.08,5.58,5.08,5.58,0,0,.01-.09.04-.25.24,3.91.62,9.57,1.18,14.96Z"/>
                <path class="cls-10" d="M545.46,91.81c1.67.63,2.73,3.09,2.73,8.51v.76c-.15,7.67-4.7,13.68-6.61,15.09-1.91,1.43-4.28.41-4.28.41l-.65-.15c.35-1.46.59-2.94.74-4.44.44-4.61,1.07-11.53,1.28-14.74h.03s2.44-5.14,5.1-5.58c.6-.1,1.16-.07,1.66.13Z"/>
                <path class="cls-10" d="M535.56,96.64c.96.24,2,.44,3.11.62-.21,3.2-.84,10.12-1.28,14.74-.15,1.5-.38,2.98-.74,4.44-.43,1.87-1.04,3.7-1.81,5.48-1.66,3.76-4.28,9.01-7.86,14-.22.32-.46.65-.69.97h-.01c-5.54,7.44-13.24,14.11-23.13,14.46-.28.03-.56.03-.84.03h-.01c-.28,0-.54,0-.82-.03-9.93-.34-17.65-7.08-23.18-14.53-.22-.29-.44-.6-.65-.9-3.67-5.11-6.33-10.46-7.96-14.24-.69-1.6-1.25-3.25-1.69-4.92-.4-1.57-.68-3.17-.84-4.79-.56-5.39-.94-11.05-1.17-14.96.06-.57.28-2.15.76-4.38,1.7-7.86,6.69-24.01,20.14-34.73,2.37-1.89,5-3.61,7.93-5.1,0,0,7.26,1.26,14.24,6.7,2.63,2.03,5.2,4.64,7.35,8.01,7.38,11.65,3.16,25.19,19.14,29.13Z"/>
                <path class="cls-15" d="M503.16,151.34c9.89-.35,17.59-7.02,23.13-14.44-.29.87-12.19,34.56-51.16,19.47l2.53-20.45c.21.29.43.6.65.9,5.54,7.45,13.25,14.19,23.18,14.53.28.03.54.03.82.03h.01c.28,0,.56,0,.84-.03Z"/>
                <path class="cls-10" d="M530.4,163.32v.12s25.83,2.75,25.83,2.75c-.82,11.59-7.05,58.81-53.89,58.81h-.01c-46.84,0-53.07-47.22-53.89-58.81l25.81-2.75.38-3.13.5-3.94c38.96,15.09,50.86-18.6,51.16-19.47h.01c.24-.34.47-.66.69-.98l3.41,27.4Z"/>
                <polygon points="456.31 93.66 456.31 93.64 458.61 93.64 456.31 93.66"/>
                <path class="cls-16" d="M464.5,112.91c-.5,0-.96-.33-1.1-.84-1.14-4.06-2.84-7.95-5.03-11.55-.33-.54-.16-1.25.38-1.58.54-.33,1.25-.16,1.58.38,2.3,3.78,4.08,7.86,5.28,12.13.17.61-.18,1.24-.79,1.42-.1.03-.21.04-.31.04Z"/>
                <path class="cls-16" d="M537.02,112.34c-.09,0-.18-.01-.27-.03-.62-.15-.99-.77-.85-1.39,1.07-4.41,2.81-8.61,5.18-12.49.33-.54,1.04-.71,1.58-.38.54.33.71,1.04.38,1.58-2.25,3.67-3.9,7.65-4.91,11.83-.13.53-.6.88-1.12.88Z"/>
                <g>
                  <path class="cls-5" d="M565.03,365.63l-56.34,48.78-88.07-50.97c2.53,1.35,43.56,22.82,84.26,22.82,25.66,0,47.25-11.59,60.15-20.62Z"/>
                  <path class="cls-5" d="M617.57,410.25l-25.84,24.23c-1.7-.17-3.23-.01-4.57.6-3.36,1.53-7.89,4.94-11.92,8.27-5.2,4.28-9.56,8.46-9.56,8.46h-9.49l-11.76-5.5,73.13-36.06Z"/>
                  <path class="cls-17" d="M676.16,325.44c0,8.93-.56,51.05-21.2,65.83-20.64,14.79-37.39,18.98-37.39,18.98l-73.13,36.06-5.53-2.59c-1.96,15.48-6.32,28.54-9.01,35.53-1.35,3.5-2.28,5.47-2.28,5.47,0,0-16.78-4.55-40.02-11.22-12.96-3.7-27.92-8.08-43.1-12.71-18.35-5.56-36.99-11.47-52.78-16.97-4.33-1.52-8.44-2.99-12.27-4.42-9.88-3.69-17.92-7.09-22.97-9.91-30.75-17.16-31.39-38.92-31.39-51.47s22.6-35.15,33.06-34.31c10.46.84,62.35,19.66,62.35,19.66l.12.06.35.19,87.73,50.78,56.34-48.78c8.22-5.75,12.93-10.46,12.93-10.46,0,0,2.43-2.33,6.31-5.9,12.25-11.28,38.96-34.97,48.92-36.67,13.11-2.22,42.97,3.91,42.97,12.84Z"/>
                  <path class="cls-5" d="M538.9,444.86h-.01c-.64,0-1.14-.52-1.14-1.16.04-4.9-1.21-8.5-1.61-9.52l-28.1-18.83c-.53-.35-.67-1.07-.31-1.59.35-.53,1.07-.67,1.59-.31l28.39,19.02c.18.12.32.29.41.48.08.18,1.98,4.48,1.93,10.77,0,.63-.52,1.14-1.15,1.14Z"/>
                </g>
                <g>
                  <path class="cls-10" d="M538.9,443.72l17.3,8.09c-4.61,7.25,2.79,15.75,2.79,15.75-6.83,4.18-7.25,21.34-7.25,21.34l-21.85-9.66c2.69-6.98,7.05-20.05,9.01-35.52Z"/>
                  <path class="cls-4" d="M591.72,434.48c8.02.83,19.26,9.21,26.4,11.75,8.65,3.07,36.55-4.18,51.06,11.71,14.5,15.9,15.47,22.6,13.95,33.47-1.54,10.88-19.53,11.44-21.48,11.44,0,0,10.7-8.56-.74-31.06-1.11-2.2-2.41-4.06-3.83-5.67-13.2-14.83-38.24-6.41-48.06-13.3-10.88-7.63-31.98-9.48-31.98-9.48h-1.79c4.02-3.34,8.56-6.74,11.92-8.28,1.33-.61,2.87-.76,4.56-.59Z"/>
                  <path class="cls-4" d="M660.9,471.8c11.44,22.5.74,31.06.74,31.06-.64,0-8.69-1.08-19.45-2.54h0s-8.96-16.1,2.96-25.14h0c5.2-1.59,9.44-4.43,11.91-9.05,1.42,1.61,2.72,3.47,3.83,5.67Z"/>
                  <path class="cls-12" d="M645.16,475.17h0c-11.92,9.05-2.96,25.14-2.96,25.14h0c-22.16-3.01-55.83-7.59-60.06-7.5-6.27.14-30.12-.83-30.12-.83l-.28-3.07s.42-17.16,7.25-21.34c0,0,30.55,1.3,47.14,5.54,11.44,2.91,27.54,5.57,39.03,2.07Z"/>
                  <path class="cls-6" d="M657.07,466.13c-2.47,4.63-6.71,7.47-11.91,9.04-11.49,3.5-27.58.84-39.02-2.07-16.6-4.23-47.14-5.54-47.14-5.54,0,0-7.4-8.5-2.79-15.75h9.48s4.37-4.18,9.56-8.47h1.79s21.1,1.87,31.98,9.49c9.81,6.88,34.86-1.54,48.06,13.3Z"/>
                  <path class="cls-14" d="M663.9,503.28c-.16,0-.32-.03-.48-.11-.58-.27-.83-.95-.56-1.52,3.49-7.57,3.7-16.7.54-24.42-3.15-7.72-9.69-14.09-17.49-17.05-.59-.22-.89-.89-.67-1.48s.89-.89,1.48-.67c8.38,3.18,15.41,10.03,18.8,18.33,3.39,8.3,3.17,18.11-.58,26.25-.2.42-.61.67-1.05.67Z"/>
                  <path class="cls-14" d="M583.68,488.37s-.04,0-.06,0c-5.96-.31-12.12-.64-18.19-2.05-6.83-1.58-12.42-4.34-16.6-8.19-2.3-2.11-3.18-4.28-2.54-6.26.8-2.52,3.68-3.43,6.1-3.44h.07c6.72,0,12.71,4.13,16.63,7.24,1,.79,1.99,1.61,2.97,2.43,1.23,1.02,2.47,2.04,3.74,3.03-5.17-6.92-8.12-14.47-8.48-21.86-.1-1.98.08-6.74,3.78-8.15,1.82-.7,4.11-.21,5.83,1.24,1.49,1.26,2.41,3,3.1,4.53,4.38,9.67,4.61,20.62,4.81,30.29,0,.32-.12.63-.35.85-.21.21-.5.32-.8.32ZM552.46,470.74h-.06c-1.54,0-3.49.49-3.92,1.84-.45,1.42,1,3.03,1.91,3.87,3.89,3.58,9.12,6.15,15.56,7.64,4.09.95,8.28,1.39,12.42,1.68-2.78-1.73-5.31-3.83-7.79-5.88-.98-.81-1.95-1.61-2.94-2.4-3.96-3.14-9.26-6.75-15.2-6.75ZM572.86,453.11c-.33,0-.65.06-.95.17-2.36.9-2.36,4.74-2.3,5.89.43,8.98,5,18.25,12.88,26.22-.2-8.97-.65-18.89-4.57-27.53-.59-1.3-1.34-2.76-2.49-3.72-.78-.66-1.72-1.02-2.57-1.02Z"/>
                  <path class="cls-14" d="M591.14,494.32h-.03c-.63-.02-1.13-.54-1.12-1.18.19-7.89,2.19-15.77,5.78-22.8.29-.56.98-.79,1.55-.5.57.29.79.98.5,1.55-3.44,6.72-5.35,14.26-5.53,21.81-.02.62-.53,1.12-1.15,1.12Z"/>
                  <path class="cls-14" d="M600.94,496.11c-.61,0-1.11-.48-1.15-1.09-.39-7.55,1.45-15.34,5.17-21.93.31-.55,1.01-.75,1.56-.43.55.31.75,1.01.43,1.56-3.51,6.21-5.24,13.55-4.87,20.68.03.63-.45,1.17-1.09,1.21-.02,0-.04,0-.06,0Z"/>
                  <path class="cls-14" d="M615.11,497.54c-.6,0-1.1-.46-1.15-1.07-.5-7.32.89-14.7,4-21.34.27-.57.95-.82,1.53-.55.57.27.82.95.55,1.53-2.95,6.29-4.26,13.28-3.79,20.21.04.63-.44,1.18-1.07,1.22-.02,0-.05,0-.08,0Z"/>
                </g>
                <g>
                  <path class="cls-4" d="M390.8,498.32c-5.52.27-8.39.07-8.39.07,0,0-17.57-7.67-18.69-26.78-.84-14.43,10.25-26.94,15.72-32.2,3.83,1.43,7.95,2.9,12.27,4.41-1.25,1.18-2.68,2.63-4.12,4.3-5.55,6.35-11.52,15.95-10.19,26.84,1.54,12.7,6.74,18.64,10.19,21.24,1.86,1.4,3.2,1.83,3.2,1.83v.29Z"/>
                  <path class="cls-12" d="M487.59,473.5c-.99.62-2.02,1.19-3.07,1.73h-.01c-7.39.41-60.41,3.44-75.32,6.42-.47.09-.94.2-1.4.3.96-8.35-.13-14.14-1.81-18.08,9.95.71,27.22-1.41,38.5-3.07,15.17,4.62,30.14,8.99,43.1,12.7Z"/>
                  <path class="cls-6" d="M409.19,481.65c14.91-2.98,67.93-6.01,75.32-6.42-7.38,3.77-16.12,5.77-25.67,8.93-33.02,10.95-56.41,13.6-68.04,14.16v-.29s-1.36-.43-3.21-1.83c0,0,5.24-10.68,20.21-14.25.45-.1.92-.21,1.4-.3Z"/>
                  <path class="cls-6" d="M405.99,463.87c-2.94-.21-5.24-.67-6.56-1.47-8.37-5.02-11.84-14.29-11.84-14.29,1.44-1.67,2.87-3.11,4.12-4.3,15.79,5.5,34.44,11.42,52.78,16.98-11.28,1.66-28.55,3.78-38.5,3.07Z"/>
                  <path class="cls-4" d="M405.99,463.87c1.68,3.94,2.77,9.73,1.81,18.08-14.97,3.57-20.21,14.25-20.21,14.25-3.45-2.6-8.65-8.54-10.19-21.24-1.32-10.9,4.65-20.49,10.19-26.84,0,0,3.47,9.27,11.84,14.29,1.32.79,3.62,1.25,6.56,1.47Z"/>
                  <path class="cls-14" d="M429.36,486.45s-.05,0-.08,0c-.63-.04-1.11-.59-1.07-1.22.57-8.53-.68-17.29-3.6-25.32-.22-.6.09-1.26.69-1.47.59-.22,1.26.09,1.47.69,3.03,8.33,4.32,17.41,3.73,26.26-.04.61-.55,1.07-1.15,1.07Z"/>
                  <path class="cls-14" d="M449.5,480.82s-.06,0-.09,0c-.63-.05-1.11-.6-1.06-1.23.5-6.54-.62-13.17-3.22-19.19-.25-.58.01-1.26.6-1.51.58-.25,1.26.02,1.51.6,2.75,6.36,3.93,13.37,3.41,20.28-.05.6-.55,1.06-1.14,1.06Z"/>
                  <path class="cls-14" d="M388.73,497.98c-.31,0-.62-.12-.85-.37-6.69-7.28-10.36-17.12-10.07-27,.29-9.88,4.53-19.49,11.63-26.37.46-.44,1.18-.43,1.62.03s.43,1.18-.03,1.62c-6.68,6.46-10.66,15.5-10.93,24.79-.27,9.29,3.18,18.54,9.47,25.38.43.47.4,1.19-.07,1.62-.22.2-.5.3-.78.3Z"/>
                </g>
                <g>
                  <path class="cls-17" d="M520.8,88.91c-.05,1.45-2.17,2.54-4.75,2.45-2.58-.09-4.62-1.34-4.58-2.79.05-1.45,2.18-2.54,4.75-2.45,2.58.09,4.62,1.34,4.57,2.79Z"/>
                  <path class="cls-17" d="M491.07,88.04c.25,1.43-1.59,2.93-4.12,3.33-2.53.41-4.79-.42-5.04-1.86-.25-1.43,1.59-2.92,4.12-3.33,2.53-.41,4.79.42,5.04,1.86Z"/>
                  <path class="cls-16" d="M534.3,119.71c.18,4.74-3.51,8.73-8.25,8.91-4.74.18-8.73-3.51-8.91-8.25-.18-4.74,3.51-8.73,8.25-8.91,4.74-.18,8.73,3.51,8.91,8.25Z"/>
                  <path class="cls-16" d="M488.58,119.71c.18,4.74-3.51,8.73-8.25,8.91-4.74.18-8.73-3.51-8.91-8.25-.18-4.74,3.51-8.73,8.25-8.91,4.74-.18,8.73,3.51,8.91,8.25Z"/>
                  <path class="cls-17" d="M486.03,103.25c-.05,1.77.74,3.23,1.77,3.26,1.03.03,1.9-1.39,1.94-3.16.05-1.77-.74-3.23-1.77-3.26-1.03-.03-1.9,1.39-1.95,3.16Z"/>
                  <path class="cls-17" d="M512.32,103.14c-.05,1.77.74,3.23,1.77,3.26,1.03.03,1.9-1.39,1.95-3.16.05-1.77-.74-3.23-1.77-3.26-1.03-.03-1.9,1.39-1.95,3.16Z"/>
                  <path class="cls-17" d="M502.26,102.62c.28,4.41-.72,8.73-2.19,12.85,0,0-.95-1.48-.95-1.48,2.09.55,4.14,1.2,6.09,2.21-2.56.39-5.11.25-7.66.04.74-4.78,2.01-9.55,4.71-13.63h0Z"/>
                  <path class="cls-13" d="M513.32,122.21c-4.46,13.49-15.62,17.3-21.07.2l21.07-.2Z"/>
                </g>
              </g>
            </g>
          </g>
          <g id="rotation">
            <g>
              <path class="cls-13" d="M493.34,369.73c-.19,0-.38-.02-.57-.05-24.15-4.55-41.68-25.72-41.68-50.34s17.53-45.8,41.68-50.35c1.66-.31,3.26.78,3.57,2.44.31,1.66-.78,3.26-2.44,3.57-21.27,4.01-36.71,22.66-36.71,44.35s15.44,40.32,36.71,44.33c1.66.31,2.75,1.91,2.44,3.57-.28,1.47-1.56,2.49-3,2.49Z"/>
              <path class="cls-13" d="M511.32,369.73c-1.44,0-2.72-1.02-3-2.49-.31-1.66.78-3.26,2.44-3.57,21.27-4.01,36.71-22.65,36.71-44.33s-15.44-40.34-36.71-44.35c-1.66-.31-2.75-1.91-2.44-3.57.31-1.66,1.91-2.75,3.57-2.44,24.15,4.55,41.68,25.73,41.68,50.35s-17.53,45.79-41.68,50.34c-.19.04-.38.05-.57.05Z"/>
              <path class="cls-13" d="M487.94,288.48c-.38,0-.76-.07-1.14-.22-1.57-.63-2.32-2.41-1.7-3.97l4.49-11.17-10.83-7.49c-1.39-.96-1.73-2.86-.77-4.25.96-1.39,2.86-1.74,4.25-.77l12.83,8.88c1.17.81,1.63,2.33,1.1,3.65l-5.4,13.43c-.48,1.19-1.63,1.92-2.84,1.92Z"/>
              <path class="cls-13" d="M523.65,378.71c-.6,0-1.2-.18-1.74-.54l-12.83-8.88c-1.17-.81-1.63-2.33-1.1-3.65l5.4-13.43c.63-1.56,2.4-2.32,3.97-1.7,1.57.63,2.32,2.41,1.7,3.97l-4.49,11.17,10.83,7.49c1.39.96,1.73,2.86.77,4.25-.59.86-1.55,1.32-2.52,1.32Z"/>
            </g>
            <g>
              <path class="cls-4" d="M502.45,349.38c-14.54,0-27.05-10.35-29.73-24.62-.31-1.66.78-3.26,2.44-3.57,1.65-.31,3.26.78,3.57,2.44,2.14,11.38,12.12,19.64,23.73,19.64s21.58-8.26,23.72-19.64c.31-1.66,1.91-2.75,3.57-2.44,1.66.31,2.75,1.91,2.44,3.57-2.69,14.26-15.19,24.62-29.73,24.62Z"/>
              <path class="cls-4" d="M529.17,317.1c-1.44,0-2.72-1.02-3-2.49-2.14-11.38-12.12-19.64-23.72-19.64s-21.59,8.26-23.73,19.64c-.31,1.66-1.91,2.75-3.57,2.44-1.66-.31-2.75-1.91-2.44-3.57,2.69-14.26,15.19-24.62,29.73-24.62s27.04,10.35,29.73,24.62c.31,1.66-.78,3.26-2.44,3.57-.19.04-.38.05-.57.05Z"/>
              <path class="cls-4" d="M470.71,334.5c-.6,0-1.2-.18-1.74-.54-1.39-.96-1.73-2.86-.77-4.25l6.4-9.25,9.85,3.95c1.57.63,2.32,2.41,1.7,3.97-.63,1.56-2.4,2.32-3.97,1.7l-5.32-2.14-3.62,5.24c-.59.86-1.55,1.32-2.52,1.32Z"/>
              <path class="cls-4" d="M530.06,317.79l-9.85-3.95c-1.57-.63-2.32-2.41-1.7-3.97.63-1.56,2.41-2.32,3.97-1.7l5.32,2.14,3.62-5.24c.96-1.39,2.86-1.73,4.25-.77,1.39.96,1.73,2.86.77,4.25l-6.4,9.25Z"/>
            </g>
          </g>
          <g id="rotation-icon-2">
            <g>
              <path class="cls-1" d="M38.86,139.42l-4.31,1.59c-1-1.88-2.72-2.81-5.16-2.81-3.13.31-4.81,2.53-5.06,6.66.12,4.25,1.94,6.53,5.44,6.84,2.37,0,4.03-.72,4.97-2.16v-2.53h-6.09v-3.75h10.41v7.69c-1.44,3-4.59,4.5-9.47,4.5-6.56-.25-9.97-3.81-10.22-10.69.38-6.69,3.69-10.22,9.94-10.59,4.75,0,7.94,1.75,9.56,5.25Z"/>
              <path class="cls-1" d="M56.3,155.07h-4.59v-8.25c0-2.19-.91-3.28-2.72-3.28-1.81.19-2.78,1.34-2.91,3.47v8.06h-4.5v-21.94h4.5v9.47c1.25-1.69,2.84-2.56,4.78-2.62,3.62,0,5.44,2.03,5.44,6.09v9Z"/>
              <path class="cls-1" d="M69.89,140.73l-1.5,3.84c-.5-.38-1.12-.56-1.88-.56-2,.06-3.03,1.31-3.09,3.75v7.31h-4.5v-14.72h4.5v2.72c.75-2.06,2.06-3.09,3.94-3.09,1,.06,1.84.31,2.53.75Z"/>
              <path class="cls-1" d="M87.05,147.95v1.12h-11.53c.19,2,1.44,3.09,3.75,3.28,1.75,0,2.81-.59,3.19-1.78l4.88.56c-1.19,2.87-3.84,4.31-7.97,4.31-5.38-.19-8.19-2.66-8.44-7.41.25-5.19,2.87-7.88,7.88-8.06,5.44.06,8.19,2.72,8.25,7.97ZM75.42,146.26h7.22c-.19-1.94-1.38-3-3.56-3.19-2.25.13-3.47,1.19-3.66,3.19Z"/>
              <path class="cls-1" d="M94.17,155.07h-4.59v-21.94h4.59v21.94Z"/>
              <path class="cls-1" d="M101.86,138.29h-4.69v-3.84h4.69v3.84ZM101.86,155.17h-4.69v-14.72h4.69v14.72Z"/>
              <path class="cls-1" d="M119.39,155.07h-4.59v-8.25c.06-2.25-.84-3.34-2.72-3.28-1.88.13-2.84,1.28-2.91,3.47v8.06h-4.59v-14.72h4.59v2.25c1.19-1.62,2.78-2.5,4.78-2.62,3.69-.06,5.5,1.97,5.44,6.09v9Z"/>
              <path class="cls-1" d="M0,171.31v-8.16h19.12v8.16H0ZM.94,184.43v-11.72h17.25v8.44c.12,2.06-.97,3.09-3.28,3.09h-3.84c-.06-.25-.19-.69-.38-1.31-.06-.31-.13-.53-.19-.66.44,0,1.09.03,1.97.09h1.59c1.19.12,1.72-.41,1.59-1.59H3.38v3.66H.94ZM2.34,164.84v1.69h6v-1.69H2.34ZM2.34,168.03v1.59h6v-1.59H2.34ZM3.38,174.4v1.69h12.28v-1.69H3.38ZM3.38,177.59v1.69h12.28v-1.69H3.38ZM16.69,164.84h-5.91v1.69h5.91v-1.69ZM10.78,168.03v1.59h5.91v-1.59h-5.91Z"/>
              <path class="cls-1" d="M22.69,176.09c-.06-.31-.13-.75-.19-1.31-.19-.81-.31-1.47-.38-1.97,2.06-3.06,3.62-6.59,4.69-10.59l2.44.66c-.56,1.94-1.28,3.84-2.16,5.72v16.03h-2.34v-11.53c-.63,1.06-1.31,2.06-2.06,3ZM30.19,171.96v-8.53h13.03v8.53h-4.97v3.38h5.81v2.16h-5.81v4.12h6.84c-.19.44-.44,1.16-.75,2.16-3.19,0-5.41-.03-6.66-.09-2.75-.13-4.72-1.19-5.91-3.19-.38,1.19-1.19,2.59-2.44,4.22l-1.88-1.78c2-1.94,3-4.94,3-9l2.34.09c0,.25-.03.62-.09,1.12-.06,1-.13,1.75-.19,2.25.81,2,1.91,3.28,3.28,3.84v-9.28h-5.62ZM32.62,165.59v4.12h8.16v-4.12h-8.16Z"/>
              <path class="cls-1" d="M48.75,173.18c-.63-.44-1.41-.91-2.34-1.41,1.88-2.38,3.34-5.22,4.41-8.53l2.62.47c-.38,1.12-.78,2.16-1.22,3.09h4.69v-4.69h2.62v4.69h8.16v2.44h-8.16v4.59h7.41v2.44h-7.41v5.06h9.38v2.16h-22.22v-2.16h10.22v-5.06h-8.06v-2.44h8.06v-4.59h-5.81c-.56,1.25-1.34,2.56-2.34,3.94Z"/>
              <path class="cls-1" d="M70.41,175.99v-2.06h3.28v-10.88h17.16v1.97h-14.53v1.78h13.69v1.78h-13.69v1.78h13.78v1.88h-13.78v1.69h16.5v2.06h-3.47l1.41,1.59c-1.63.75-3.34,1.56-5.16,2.44,1.88.94,4.31,1.59,7.31,1.97-.25.31-.59.91-1.03,1.78-.19.31-.31.53-.38.66-6.56-1.44-10.91-4.25-13.03-8.44h-2.62v5.62c1.75-.56,3.47-1.12,5.16-1.69,0,.31.03.75.09,1.31v.94c-3.5,1-6.31,1.91-8.44,2.72l-.75-2.34c.06,0,.19-.03.38-.09.44-.06.78-.16,1.03-.28v-6.19h-2.91ZM83.62,178.71c1.75-.81,3.5-1.72,5.25-2.72h-7.97c.75,1.06,1.66,1.97,2.72,2.72Z"/>
              <path class="cls-1" d="M97.31,173.37c-.94-1.12-1.97-2.16-3.09-3.09l1.69-1.59c1,.81,2.06,1.78,3.19,2.91l-1.78,1.78ZM96.75,184.34l-2.34-.66c.56-1.63,1.28-4.37,2.16-8.25.81.31,1.56.53,2.25.66-.5,1.88-1.19,4.63-2.06,8.25ZM97.78,167.18c-.63-.69-1.63-1.72-3-3.09l1.69-1.5c.75.62,1.78,1.59,3.09,2.91l-1.78,1.69ZM115.78,184.34c-1.38-1.25-2.5-2.47-3.38-3.66-1,1.25-2.25,2.59-3.75,4.03-.19-.25-.5-.69-.94-1.31-.19-.31-.34-.53-.47-.66-.31.81-1.09,1.25-2.34,1.31h-1.97c0-.06-.03-.19-.09-.38-.06-.69-.16-1.22-.28-1.59.31.06.84.09,1.59.09.81.06,1.25-.25,1.31-.94l.09-1.88h-3c-.13,1.69-1.03,3.41-2.72,5.16-.38-.31-.97-.78-1.78-1.41,1.62-1.31,2.47-2.94,2.53-4.88.06-.56.09-1.22.09-1.97h-1.5v-1.78h3.47v-1.88h-2.62v-8.44h2.25c.19-.69.34-1.37.47-2.06l2.34.19c-.06.25-.16.62-.28,1.12-.13.31-.22.56-.28.75h3.09v7.41c1.5-2.87,2.62-6,3.38-9.38l2.16.47c-.25,1.31-.63,2.53-1.12,3.66h4.78v2.16h-1.03c-.25,4.5-.97,7.88-2.16,10.12.87,1.25,2,2.41,3.38,3.47-.06.12-.22.41-.47.84-.38.69-.63,1.16-.75,1.41ZM102,165.87v1.78h3.66v-1.78h-3.66ZM102,169.24v1.69h3.66v-1.69h-3.66ZM108.66,173.74c-.06-.12-.22-.34-.47-.66-.25-.31-.44-.53-.56-.66v.19h-2.81v1.88h3.66v1.78h-5.62c0,.44-.03.91-.09,1.41h4.97c0,.81-.06,2.09-.19,3.84,0,.38-.09.75-.28,1.12,1.75-1.31,3.06-2.69,3.94-4.12-.75-1.5-1.31-3.62-1.69-6.38-.06.19-.19.44-.38.75-.19.38-.34.66-.47.84ZM112.41,176.18c.75-1.81,1.22-4.37,1.41-7.69h-2.53l-.19.47c.25,3.13.69,5.53,1.31,7.22Z"/>
              <path class="cls-1" d="M119.25,165.78v-1.78h9.09v-1.88h2.53v1.88h9v1.78h-9v1.41h7.88v1.59h-7.88v1.41h9.84v1.78h-6.28l1.97,1.41c-1.5.69-3.88,1.72-7.12,3.09-.75.31-1.31.53-1.69.66,2.5-.12,4.81-.22,6.94-.28l-1.41-1.12,1.5-1.03c2.5,1.75,4.25,2.97,5.25,3.66l-1.59,1.41-1.5-1.22-6,.28v5.91h-2.53v-5.81l-8.44.56-.47-2.06,3.56-.09,2.72-1.12-1.69-.84c-1.5-.81-2.62-1.37-3.38-1.69l1.31-1.22c.75.25,1.44.53,2.06.84.87-.38,1.69-.81,2.44-1.31h-7.97v-1.78h9.94v-1.41h-7.97v-1.59h7.97v-1.41h-9.09ZM119.91,184.06c-.06-.19-.19-.47-.38-.84l-.56-1.12c2.62-.62,4.91-1.41,6.84-2.34l1.12,1.78c-.56.19-1.47.5-2.72.94-1.88.75-3.31,1.28-4.31,1.59ZM127.78,175.15c2.56-1.12,4.75-2.19,6.56-3.19h-3.94l.09.09c-.5.19-1.31.53-2.44,1.03-1.06.5-1.84.84-2.34,1.03.25.13.59.28,1.03.47.5.25.84.44,1.03.56ZM139.03,184.06c-2.13-.94-4.41-1.84-6.84-2.72l1.12-1.69c.94.31,2.28.81,4.03,1.5,1.25.5,2.19.84,2.81,1.03l-1.12,1.88Z"/>
            </g>
            <path class="cls-11" d="M94.71,210.96s-4.47,51.43,67.09,55.9c71.56,4.47,93.92,49.2,93.92,49.2"/>
          </g>
          <g id="rotation-icon-1">
            <g>
              <path class="cls-8" d="M46.32,444.89h-15.28v-20.72h4.69v17.06h10.59v3.66Z"/>
              <path class="cls-8" d="M64.14,437.67v1.12h-11.53c.19,2,1.44,3.09,3.75,3.28,1.75,0,2.81-.59,3.19-1.78l4.88.56c-1.19,2.87-3.84,4.31-7.97,4.31-5.38-.19-8.19-2.66-8.44-7.41.25-5.19,2.87-7.88,7.88-8.06,5.44.06,8.19,2.72,8.25,7.97ZM52.51,435.98h7.22c-.19-1.94-1.38-3-3.56-3.19-2.25.13-3.47,1.19-3.66,3.19Z"/>
              <path class="cls-8" d="M71.26,443.02v7.5h-4.5v-20.44h4.5v2.25c1.12-1.69,2.81-2.56,5.06-2.62,3.69.19,5.62,2.66,5.81,7.41,0,5.38-2.16,8.06-6.47,8.06-1.94-.06-3.41-.78-4.41-2.16ZM71.26,437.11v1.12c.06,2.31,1.06,3.5,3,3.56,2.12,0,3.19-1.53,3.19-4.59-.06-2.56-1.06-3.88-3-3.94-2.13,0-3.19,1.28-3.19,3.84Z"/>
              <path class="cls-8" d="M85.79,440.58v-7.12h-2.34v-3.38h2.34v-5.06l4.5-.94v6h3.56v3.38h-3.56v6c0,1.63.59,2.41,1.78,2.34.44,0,.87-.12,1.31-.38l.94,2.91c-1.06.56-2.31.84-3.75.84-3.25.06-4.84-1.47-4.78-4.59Z"/>
              <path class="cls-8" d="M100.7,428.02h-4.69v-3.84h4.69v3.84ZM100.7,444.89h-4.69v-14.72h4.69v14.72Z"/>
              <path class="cls-8" d="M118.23,444.8h-4.59v-8.25c.06-2.25-.84-3.34-2.72-3.28-1.88.13-2.84,1.28-2.91,3.47v8.06h-4.59v-14.72h4.59v2.25c1.19-1.62,2.78-2.5,4.78-2.62,3.69-.06,5.5,1.97,5.44,6.09v9Z"/>
              <path class="cls-8" d="M39.39,467.4l-.47-2.53c1.12-.5,2.31-1.06,3.56-1.69v-9.28h8.53v-1.97h2.34v1.97h8.25v1.88h-16.88v6.28c.19,5.19-.94,9.28-3.38,12.28-.63-.56-1.28-1.06-1.97-1.5,1.88-2.19,2.84-4.62,2.91-7.31l-2.91,1.88ZM40.51,462.25c-.25-1.25-.72-3.06-1.41-5.44l1.59-.38c.19.56.44,1.44.75,2.62.38,1.19.62,2.09.75,2.72l-1.69.47ZM44.82,474.44c-.19-.56-.5-1.19-.94-1.88,2.5-.25,4.69-.59,6.56-1.03-1.31-.75-2.47-1.66-3.47-2.72l.56-.38h-1.69v-1.59h6.19v-10.41h2.34v10.41h5.25v1.69c-1,1.19-2.31,2.19-3.94,3,1.69.31,3.69.56,6,.75-.19.44-.5,1.09-.94,1.97-3.13-.38-5.72-.97-7.78-1.78-2.25.88-4.97,1.53-8.16,1.97ZM46.04,465.62v-8.06c1.44-.19,2.94-.47,4.5-.84l.75,1.5c-1,.25-2.03.47-3.09.66v1.5h2.72v1.5h-2.72v1.59h2.81v1.59h-2.81v.56h-2.16ZM56.92,468.44h-7.31c1,.94,2.19,1.69,3.56,2.25,1.56-.75,2.81-1.5,3.75-2.25ZM55.51,461.87v-1.5h2.72v-1.59h-2.81v-1.5h4.97v8.34h-2.16v-.56h-2.91v-1.59h2.91v-1.59h-2.72Z"/>
              <path class="cls-8" d="M63.2,463.37v-3.84h.94v-6.75h7.69v6.75h.94v3.75h-1.12v8.44c0,1.5-.59,2.28-1.78,2.34-.25,0-.59.03-1.03.09h-.84c-.06-.69-.19-1.31-.38-1.88h1.41c.56,0,.81-.22.75-.66v-.94h-3.38v3.56h-1.88v-10.88h-1.31ZM65.07,461.31v1.59h5.91v-1.59h-5.91ZM66.01,454.56v4.97h1.31v-3.28h2.72v-1.69h-4.03ZM66.39,464.5v1.69h3.38v-1.69h-3.38ZM66.39,467.59v1.69h3.38v-1.69h-3.38ZM68.54,457.65v1.88h1.5v-1.88h-1.5ZM73.79,469.94v-4.22h10.69v4.22h-1.59l.47.09c-.38.62-.78,1.25-1.22,1.88h3.66v1.69h-13.22v-1.69h3.66l-1.22-1.78.75-.19h-1.97ZM72.95,464.59v-1.69h12.66v1.69h-12.66ZM73.51,461.78v-7.88h2.91v-1.97h1.88v1.97h1.69v-1.97h1.97v1.97h2.91v7.88h-11.34ZM75.2,455.5v1.69h1.69v-1.69h-1.69ZM75.2,458.5v1.69h1.69v-1.69h-1.69ZM75.85,467.12v1.41h6.56v-1.41h-6.56ZM77.07,469.94c.06.13.19.34.38.66.19.31.5.75.94,1.31h1.69l1.22-1.97h-4.22ZM78.29,455.5v1.69h1.69v-1.69h-1.69ZM78.29,458.5v1.69h1.69v-1.69h-1.69ZM83.07,455.5h-1.59v1.69h1.59v-1.69ZM81.48,458.5v1.69h1.59v-1.69h-1.59Z"/>
              <path class="cls-8" d="M88.14,455.5v-1.78h9.09v-1.88h2.53v1.88h9v1.78h-9v1.41h7.88v1.59h-7.88v1.41h9.84v1.78h-6.28l1.97,1.41c-1.5.69-3.88,1.72-7.12,3.09-.75.31-1.31.53-1.69.66,2.5-.12,4.81-.22,6.94-.28l-1.41-1.12,1.5-1.03c2.5,1.75,4.25,2.97,5.25,3.66l-1.59,1.41-1.5-1.22-6,.28v5.91h-2.53v-5.81l-8.44.56-.47-2.06,3.56-.09,2.72-1.12-1.69-.84c-1.5-.81-2.62-1.37-3.38-1.69l1.31-1.22c.75.25,1.44.53,2.06.84.87-.38,1.69-.81,2.44-1.31h-7.97v-1.78h9.94v-1.41h-7.97v-1.59h7.97v-1.41h-9.09ZM88.79,473.78c-.06-.19-.19-.47-.38-.84l-.56-1.12c2.62-.62,4.91-1.41,6.84-2.34l1.12,1.78c-.56.19-1.47.5-2.72.94-1.88.75-3.31,1.28-4.31,1.59ZM96.67,464.87c2.56-1.12,4.75-2.19,6.56-3.19h-3.94l.09.09c-.5.19-1.31.53-2.44,1.03-1.06.5-1.84.84-2.34,1.03.25.13.59.28,1.03.47.5.25.84.44,1.03.56ZM107.92,473.78c-2.13-.94-4.41-1.84-6.84-2.72l1.12-1.69c.94.31,2.28.81,4.03,1.5,1.25.5,2.19.84,2.81,1.03l-1.12,1.88Z"/>
            </g>
            <path class="cls-11" d="M143.51,456.23s121.66,29.52,207.96-38.01c86.31-67.54,93.92-64.72,93.92-64.72"/>
          </g>
          <g id="rotation-icon-4">
            <g>
              <path class="cls-24" d="M790.92,117.87h-3.47v7.31h-4.69v-20.72h8.62c5,.13,7.59,2.31,7.78,6.56.06,4.56-2.69,6.84-8.25,6.84ZM790.55,108.12h-3.09v6.19h3.09c2.44-.06,3.69-1.09,3.75-3.09-.06-2-1.31-3.03-3.75-3.09Z"/>
              <path class="cls-24" d="M821.2,104.46l-8.25,12.56v8.16h-4.69v-8.06l-8.16-12.66h5.34l4.12,6.94c.44.62.84,1.31,1.22,2.06.5-.81.88-1.5,1.12-2.06l3.84-6.94h5.44Z"/>
              <path class="cls-24" d="M842.3,104.46l-8.25,12.56v8.16h-4.69v-8.06l-8.16-12.66h5.34l4.12,6.94c.44.62.84,1.31,1.22,2.06.5-.81.88-1.5,1.12-2.06l3.84-6.94h5.44Z"/>
              <path class="cls-24" d="M776.29,139.35c-.06-.12-.19-.31-.38-.56-.38-.62-.69-1.09-.94-1.41,3.87-1.56,6.91-3.38,9.09-5.44l2.91.38c-.75.69-1.5,1.31-2.25,1.88h9.84v2.25c-4.63,3.88-11.13,6.72-19.5,8.53-.06-.12-.16-.31-.28-.56-.06-.31-.28-.84-.66-1.59,3.38-.69,6.25-1.47,8.62-2.34-1.19-1.12-2.22-2.03-3.09-2.72l1.88-1.12c.25.19.66.5,1.22.94,1,.75,1.81,1.38,2.44,1.88l-.28.19c2.25-.94,4.28-2.06,6.09-3.38h-9c-1.25.88-3.16,1.91-5.72,3.09ZM776.66,149.48c-.63-1.12-1.06-1.84-1.31-2.16,4.81-1.5,8.59-3.5,11.34-6l2.81.47c-.69.56-1.31,1.09-1.88,1.59h7.97v2.16c-4.44,4.75-11.25,7.78-20.44,9.09-.19-.69-.47-1.41-.84-2.16,4.37-.62,7.66-1.37,9.84-2.25-.31-.31-.78-.75-1.41-1.31-.63-.56-1.09-1-1.41-1.31l2.06-1.03c.38.31.91.75,1.59,1.31.69.56,1.19,1,1.5,1.31,2.12-1,4.06-2.25,5.81-3.75h-7.41c-2.5,1.63-5.25,2.97-8.25,4.03Z"/>
              <path class="cls-24" d="M813.13,153.7c-.25-.62-.81-1.63-1.69-3-.13-.19-.22-.34-.28-.47-.56,1.06-1.69,2.5-3.38,4.31-.44-.5-.94-1.16-1.5-1.97-.25,1.06-.97,1.62-2.16,1.69h-1.03c-.56.06-.97.09-1.22.09-.06-.38-.16-.94-.28-1.69-.06-.31-.09-.53-.09-.66.19.06.72.09,1.59.09.87.06,1.28-.28,1.22-1.03v-3.94h-2.91c-.13,3.06-.75,5.56-1.88,7.5-.63-.62-1.22-1.22-1.78-1.78.62-1.06,1.03-2.22,1.22-3.47.19-1.25.28-3.34.28-6.28v-9.94h7.22v18.75l-.09.09c3.38-3.19,5.28-7.19,5.72-12h-4.78v-2.34h4.97c.12-2.19.19-4,.19-5.44h2.44c0,2.25-.06,4.06-.19,5.44h5.62v2.34h-5.44c.81,5.12,2.78,9.09,5.91,11.91-.31.38-.75.91-1.31,1.59-.19.31-.34.53-.47.66-2.75-3-4.53-6.47-5.34-10.41-.44,2.06-1.12,3.97-2.06,5.72l1.22-.56c.12.19.31.47.56.84.81,1.44,1.37,2.44,1.69,3l-1.97.94ZM801.51,135.23v3.94h2.81v-3.94h-2.81ZM801.51,144.13v.94h2.81v-3.94h-2.81v3Z"/>
              <path class="cls-24" d="M827.31,151.92v-8.41l-5.42-9.77h2.69l4.05,7.21,4.03-7.21h2.42l-5.41,9.77v8.41h-2.37Z"/>
              <path class="cls-24" d="M841.71,151.92v-8.41l-5.42-9.77h2.69l4.05,7.21,4.03-7.21h2.42l-5.41,9.77v8.41h-2.37Z"/>
            </g>
            <line class="cls-11" x1="666.77" y1="208.14" x2="762.93" y2="179.07"/>
          </g>
          <g id="rotation-icon-3">
            <g>
              <path class="cls-21" d="M276,20.81h-4.78V.09h4.78v20.72Z"/>
              <path class="cls-21" d="M293.53,20.72h-4.59v-8.25c.06-2.25-.84-3.34-2.72-3.28-1.88.13-2.84,1.28-2.91,3.47v8.06h-4.59V6h4.59v2.25c1.19-1.62,2.78-2.5,4.78-2.62,3.69-.06,5.5,1.97,5.44,6.09v9Z"/>
              <path class="cls-21" d="M311.72,10.59l-4.59.75c-.56-1.31-1.56-2.03-3-2.16-2.38.13-3.63,1.56-3.75,4.31,0,2.81,1.25,4.22,3.75,4.22,1.69-.12,2.69-1,3-2.62l4.88.56c-1.12,3.75-3.81,5.56-8.06,5.44-5.38-.13-8.13-2.69-8.25-7.69.19-5,2.97-7.59,8.34-7.78,3.81.13,6.38,1.78,7.69,4.97Z"/>
              <path class="cls-21" d="M325.12,6.38l-1.5,3.84c-.5-.38-1.12-.56-1.88-.56-2,.06-3.03,1.31-3.09,3.75v7.31h-4.5V6h4.5v2.72c.75-2.06,2.06-3.09,3.94-3.09,1,.06,1.84.31,2.53.75Z"/>
              <path class="cls-21" d="M342.28,13.59v1.12h-11.53c.19,2,1.44,3.09,3.75,3.28,1.75,0,2.81-.59,3.19-1.78l4.88.56c-1.19,2.87-3.84,4.31-7.97,4.31-5.38-.19-8.19-2.66-8.44-7.41.25-5.19,2.87-7.88,7.88-8.06,5.44.06,8.19,2.72,8.25,7.97ZM330.66,11.91h7.22c-.19-1.94-1.38-3-3.56-3.19-2.25.13-3.47,1.19-3.66,3.19Z"/>
              <path class="cls-21" d="M346.12,16.5v-7.12h-2.34v-3.38h2.34V.94l4.5-.94v6h3.56v3.38h-3.56v6c0,1.63.59,2.41,1.78,2.34.44,0,.87-.12,1.31-.38l.94,2.91c-1.06.56-2.31.84-3.75.84-3.25.06-4.84-1.47-4.78-4.59Z"/>
              <path class="cls-21" d="M361.03,3.94h-4.69V.09h4.69v3.84ZM361.03,20.81h-4.69V6.09h4.69v14.72Z"/>
              <path class="cls-21" d="M378.56,20.72h-4.59v-8.25c.06-2.25-.84-3.34-2.72-3.28-1.88.13-2.84,1.28-2.91,3.47v8.06h-4.59V6h4.59v2.25c1.19-1.62,2.78-2.5,4.78-2.62,3.69-.06,5.5,1.97,5.44,6.09v9Z"/>
              <path class="cls-21" d="M290.91,50.36c-.56-.62-1.12-1.22-1.69-1.78,1-1.94,1.47-4.81,1.41-8.62v-11.25h6.28v18.84c.06,1.44-.59,2.22-1.97,2.34h-.84c-.5.06-.88.09-1.12.09-.06-.38-.19-.91-.38-1.59-.06-.25-.13-.44-.19-.56h1.59c.62,0,.94-.28.94-.84v-4.5h-2.34c0,3-.56,5.62-1.69,7.88ZM292.69,30.76v3.84h2.25v-3.84h-2.25ZM292.69,40.04v.47h2.25v-3.94h-2.25v3.47ZM297.94,39.95v-1.88h14.16v1.88h-9.56c-.06.13-.16.25-.28.38-.13.31-.38.69-.75,1.12h9.75c0,1.63-.06,3.5-.19,5.62-.13,1.94-1.09,2.91-2.91,2.91h-2.06c-.19-.94-.34-1.63-.47-2.06h.84c.5.06.87.09,1.12.09.87.06,1.31-.34,1.31-1.22.12-.94.19-2.16.19-3.66h-1.41c-.88,2.94-2.44,5.31-4.69,7.12-.31-.31-.84-.78-1.59-1.41,2.12-1.37,3.56-3.28,4.31-5.72h-1.69c-1.25,2.62-3.09,4.66-5.53,6.09-.31-.44-.75-.97-1.31-1.59,2.19-1.12,3.81-2.62,4.88-4.5h-1.97c-.56.56-1.16,1.12-1.78,1.69-.38-.5-.81-1-1.31-1.5,1.31-1,2.41-2.12,3.28-3.38h-2.34ZM299.25,36.76v-7.97h11.25v7.97h-11.25ZM301.5,30.48v1.5h6.75v-1.5h-6.75ZM301.5,33.58v1.5h6.75v-1.5h-6.75Z"/>
              <path class="cls-21" d="M317.06,39.29c-.31-.25-.81-.69-1.5-1.31-1.06-.88-1.81-1.5-2.25-1.88l1.59-1.78c.44.31,1.09.81,1.97,1.5.87.69,1.5,1.19,1.88,1.5l-1.69,1.97ZM316.12,50.17l-2.53-.84c.56-1.38,1.37-3.75,2.44-7.12.19-.62.34-1.09.47-1.41.62.25,1.41.5,2.34.75-.38,1.12-.94,2.94-1.69,5.44-.44,1.37-.78,2.44-1.03,3.19ZM318.38,33.39c-.63-.56-1.53-1.31-2.72-2.25-.56-.5-1-.88-1.31-1.12l1.59-1.78c.75.56,1.91,1.44,3.47,2.62.31.25.53.44.66.56l-1.69,1.97ZM326.72,49.61c-1.94,0-3-.81-3.19-2.44-.25.19-.59.41-1.03.66-1,.81-1.81,1.41-2.44,1.78-.31-.5-.81-1.16-1.5-1.97,1.94-1.12,3.59-2.34,4.97-3.66v-11.81h2.44v9.19c1.56-1.88,3-4.25,4.31-7.12.31-.56.69-1.47,1.12-2.72.31-.69.53-1.22.66-1.59l2.25.94c-.25.56-.59,1.41-1.03,2.53-.38.75-.63,1.31-.75,1.69-1.69,3.81-3.88,7.09-6.56,9.84v.94c-.06,1.12.47,1.69,1.59,1.69h1.59c1.06,0,1.66-.44,1.78-1.31.19-.81.34-1.91.47-3.28.12.06.28.13.47.19.87.31,1.5.53,1.88.66-.19,1.31-.41,2.47-.66,3.47-.38,1.62-1.5,2.41-3.38,2.34h-3ZM321.19,42.67c-.75-.31-1.5-.5-2.25-.56.56-2.19,1.03-4.5,1.41-6.94l2.16.38c-.38,2.38-.81,4.75-1.31,7.12ZM328.31,33.39c-.75-.94-2.06-2.31-3.94-4.12l1.69-1.5c1.37,1.19,2.72,2.5,4.03,3.94l-1.78,1.69ZM333.84,42.86c-.06-.19-.13-.47-.19-.84-.63-2.5-1.09-4.34-1.41-5.53l2.25-.56c.75,2.19,1.31,4.31,1.69,6.38l-2.34.56Z"/>
              <path class="cls-21" d="M338.44,31.42v-1.78h9.09v-1.88h2.53v1.88h9v1.78h-9v1.41h7.88v1.59h-7.88v1.41h9.84v1.78h-6.28l1.97,1.41c-1.5.69-3.88,1.72-7.12,3.09-.75.31-1.31.53-1.69.66,2.5-.12,4.81-.22,6.94-.28l-1.41-1.12,1.5-1.03c2.5,1.75,4.25,2.97,5.25,3.66l-1.59,1.41-1.5-1.22-6,.28v5.91h-2.53v-5.81l-8.44.56-.47-2.06,3.56-.09,2.72-1.12-1.69-.84c-1.5-.81-2.62-1.37-3.38-1.69l1.31-1.22c.75.25,1.44.53,2.06.84.87-.38,1.69-.81,2.44-1.31h-7.97v-1.78h9.94v-1.41h-7.97v-1.59h7.97v-1.41h-9.09ZM339.09,49.7c-.06-.19-.19-.47-.38-.84l-.56-1.12c2.62-.62,4.91-1.41,6.84-2.34l1.12,1.78c-.56.19-1.47.5-2.72.94-1.88.75-3.31,1.28-4.31,1.59ZM346.97,40.79c2.56-1.12,4.75-2.19,6.56-3.19h-3.94l.09.09c-.5.19-1.31.53-2.44,1.03-1.06.5-1.84.84-2.34,1.03.25.13.59.28,1.03.47.5.25.84.44,1.03.56ZM358.22,49.7c-2.13-.94-4.41-1.84-6.84-2.72l1.12-1.69c.94.31,2.28.81,4.03,1.5,1.25.5,2.19.84,2.81,1.03l-1.12,1.88Z"/>
            </g>
            <line class="cls-11" x1="381.4" y1="162.75" x2="333.75" y2="74.32"/>
          </g>
          <g id="rotation-icon-5">
            <g>
              <path class="cls-22" d="M983.12,199.22l-4.5,1.03c-.63-2.12-2.06-3.25-4.31-3.38-3.19.19-4.88,2.41-5.06,6.66.19,4.25,1.88,6.53,5.06,6.84,2.56-.06,4.06-1.59,4.5-4.59l4.5,1.41c-1.06,4.63-4.06,6.94-9,6.94-6.38-.31-9.72-3.84-10.03-10.59.31-6.75,3.66-10.31,10.03-10.69,4.5.19,7.44,2.31,8.81,6.38Z"/>
              <path class="cls-22" d="M1003.66,199.22l-4.5,1.03c-.63-2.12-2.06-3.25-4.31-3.38-3.19.19-4.88,2.41-5.06,6.66.19,4.25,1.88,6.53,5.06,6.84,2.56-.06,4.06-1.59,4.5-4.59l4.5,1.41c-1.06,4.63-4.06,6.94-9,6.94-6.38-.31-9.72-3.84-10.03-10.59.31-6.75,3.66-10.31,10.03-10.69,4.5.19,7.44,2.31,8.81,6.38Z"/>
              <path class="cls-22" d="M1025.78,213.76h-5.91l-6-8.72-3.09,3.38v5.44h-4.69v-20.72h4.69v9.47l8.53-9.38h5.81l-8.25,8.72,8.91,11.81Z"/>
              <path class="cls-22" d="M943.66,243.39c-.19-.13-.44-.34-.75-.66-.38-.38-.66-.62-.84-.75-.31.56-.84.88-1.59.94h-1.78c-.19-.81-.38-1.53-.56-2.16.44.06.94.09,1.5.09.62,0,.94-.25.94-.75v-4.5h-2.34c0,2.81-.53,5.41-1.59,7.78l-1.69-1.69c1-1.94,1.47-4.81,1.41-8.62v-11.16h6.09v18.66c0,.31-.06.62-.19.94.75-1.25,1.22-2.53,1.41-3.84.25-1.19.38-3.19.38-6v-5.06c-.38-.38-.72-.75-1.03-1.12,1.94-1.31,3.44-2.91,4.5-4.78l2.34.28c-.06.13-.19.34-.38.66-.19.25-.34.47-.47.66h6.75v1.5l-1.31,1.5h3.38v1.59h-1.12c.44.06.84.16,1.22.28,0,.5-.09.94-.28,1.31-.19.62-.78.94-1.78.94h-1.59c-1.25,0-1.88-.44-1.88-1.31v-1.22h-2.16c-.13,1.25-.91,2.28-2.34,3.09h7.97v1.22h-8.16v-1.12c-.25.06-.53.16-.84.28-.19-.19-.5-.44-.94-.75v2.34h11.91v1.31h-12c0,4.31-.72,7.69-2.16,10.12ZM938.22,223.89v3.94h2.34v-3.94h-2.34ZM938.22,233.64h2.34v-3.84h-2.34v3.84ZM945.91,226.89v2.25c1.31-.5,2.12-1.25,2.44-2.25h-2.44ZM953.31,223.8h-5.44c-.44.56-.91,1.06-1.41,1.5h5.53l1.31-1.5ZM946.47,243.3v-4.59h10.59v4.59h-1.97v-.84h-6.56v.84h-2.06ZM946.66,235.52v-1.31h10.31v1.31h-10.31ZM946.66,237.68v-1.22h10.31v1.22h-10.31ZM948.53,240.02v1.03h6.56v-1.03h-6.56ZM956.12,228.02c.12-.38.19-.75.19-1.12h-1.97v.94c.06.25.28.38.66.38h.66c.19,0,.34-.06.47-.19Z"/>
              <path class="cls-22" d="M971.31,232.61v-2.62h7.69v2.62h-3.47v.84h5.16v.94h-5.16v1.03h4.59v.94h-4.59v.94h6.09v1.22h-3.09l.94,1.03-2.81,1.03c1.44.25,3.19.47,5.25.66-.44.88-.72,1.47-.84,1.78-3.94-.44-6.81-1.19-8.62-2.25,0,.19-.03.44-.09.75-.06.31-.09.56-.09.75-.38.06-1,.16-1.88.28-2.94.38-5,.72-6.19,1.03l-.56-1.59,1.5-.19v-1.22c-1.63.56-3.47,1.03-5.53,1.41-.06-.13-.13-.28-.19-.47-.13-.5-.25-.84-.38-1.03,3.31-.44,6.12-1.09,8.44-1.97h-7.88v-1.22h5.91v-.94h-4.5v-.94h4.5v-1.03h-5.06v-.94h5.06v-.84h-3.38v-2.62h7.69v2.62h-1.97v.84h5.44v-.84h-1.97ZM959.97,223.43v-1.41h9.38v-1.22h2.44v1.22h9.38v1.41h-9.38v.94h7.78v2.81h-7.78v.84h9.56v3.09h-2.25v-1.88h-17.16v1.88h-2.25v-3.09h9.66v-.84h-7.78v-2.81h7.78v-.94h-9.38ZM963.91,225.3v.94h5.44v-.94h-5.44ZM964,230.83v.94h3.84v-.94h-3.84ZM969.91,238.99c-.81.38-1.69.75-2.62,1.12v1.41l5.06-.75c-.88-.44-1.69-1.03-2.44-1.78ZM967.84,234.39v1.03h5.44v-1.03h-5.44ZM967.84,236.36v.94h5.44v-.94h-5.44ZM977.22,225.3h-5.44v.94h5.44v-.94ZM974.59,240.02c1.25-.44,2.37-.94,3.38-1.5h-6.09c.75.62,1.66,1.12,2.72,1.5ZM973.19,230.83v.94h3.84v-.94h-3.84Z"/>
              <path class="cls-22" d="M992.87,232.52c-.13-.19-.38-.53-.75-1.03-.31-.44-.56-.75-.75-.94v12.66h-2.44v-6.38c-1.94.94-3.53,1.75-4.78,2.44l-1.12-2.34c.31-.12.72-.28,1.22-.47v-12.75h2.25v11.72l1.69-.84c.31-.19.56-.31.75-.38v-13.22h2.44v9.47c2.12-2.94,3.69-6.12,4.69-9.56l2.53.38c-.06.25-.19.62-.38,1.12-.44,1.06-.78,1.88-1.03,2.44h8.53v2.44h-2.16c-.44,4.06-1.53,7.38-3.28,9.94,1.31,1.44,3.19,2.62,5.62,3.56-.13.25-.34.59-.66,1.03-.44.56-.75,1-.94,1.31-2.31-1.31-4.19-2.62-5.62-3.94-1.44,1.38-3.28,2.75-5.53,4.12-.06-.13-.16-.28-.28-.47-.56-.75-1-1.31-1.31-1.69,2.31-1.12,4.16-2.44,5.53-3.94-1.25-1.88-2.16-4.19-2.72-6.94-.13.25-.38.62-.75,1.12-.31.5-.56.88-.75,1.12ZM998.69,235.24c1.31-2,2.16-4.66,2.53-7.97h-5.16c.44,3.5,1.31,6.16,2.62,7.97Z"/>
              <path class="cls-22" d="M1007.5,235.43l-.47-2.06h1.5l2.06-3.47c-1.31-1.06-2.62-2.09-3.94-3.09l1.12-1.59.94.66c.94-1.56,1.75-3.25,2.44-5.06l2.16.84c-1.25,2.19-2.31,3.94-3.19,5.25.56.38,1.06.75,1.5,1.12.12-.31.34-.75.66-1.31.25-.31.66-1.03,1.22-2.16l1.78.94c-.88,1.63-2.44,4.22-4.69,7.78l2.16-.09-.66-1.78,1.59-.47c.56,1.5,1.09,3.03,1.59,4.59l-1.69.56-.28-1.12-1.03.09v8.34h-2.06v-8.25c-.63.06-1.38.13-2.25.19.19,0,.03.03-.47.09ZM1008.44,242.27l-1.69-.28c.44-1.44.78-3.12,1.03-5.06l1.59.19c0,.19-.03.47-.09.84-.31,2-.59,3.44-.84,4.31ZM1014.25,241.24c-.19-.69-.56-1.84-1.12-3.47-.13-.38-.22-.66-.28-.84l1.5-.47c.69,2.06,1.19,3.5,1.5,4.31l-1.59.47ZM1015.75,227.36v-3.84h5.62v-2.72h2.44v2.72h5.91v3.47h-2.25v-1.41h-9.47v1.5l.09-.47,2.06.66c-.38,1.19-.84,2.34-1.41,3.47v12.56h-2.06v-9c-.13.25-.38.62-.75,1.12-.13.19-.22.34-.28.47-.13-.31-.31-.88-.56-1.69-.13-.38-.22-.66-.28-.84,1.31-1.88,2.34-3.88,3.09-6h-2.16ZM1020.25,229.61v-1.97h9.38v1.97h-3.94l-.47,2.06h3.75v11.62h-2.06v-1.22h-4.41v1.22h-1.97v-11.62h2.53l.38-2.06h-3.19ZM1022.5,233.55v2.44h4.41v-2.44h-4.41ZM1022.5,237.86v2.53h4.41v-2.53h-4.41Z"/>
              <path class="cls-22" d="M1032.25,224.46v-1.78h9.09v-1.88h2.53v1.88h9v1.78h-9v1.41h7.88v1.59h-7.88v1.41h9.84v1.78h-6.28l1.97,1.41c-1.5.69-3.88,1.72-7.12,3.09-.75.31-1.31.53-1.69.66,2.5-.12,4.81-.22,6.94-.28l-1.41-1.12,1.5-1.03c2.5,1.75,4.25,2.97,5.25,3.66l-1.59,1.41-1.5-1.22-6,.28v5.91h-2.53v-5.81l-8.44.56-.47-2.06,3.56-.09,2.72-1.12-1.69-.84c-1.5-.81-2.62-1.37-3.38-1.69l1.31-1.22c.75.25,1.44.53,2.06.84.87-.38,1.69-.81,2.44-1.31h-7.97v-1.78h9.94v-1.41h-7.97v-1.59h7.97v-1.41h-9.09ZM1032.91,242.74c-.06-.19-.19-.47-.38-.84l-.56-1.12c2.62-.62,4.91-1.41,6.84-2.34l1.12,1.78c-.56.19-1.47.5-2.72.94-1.88.75-3.31,1.28-4.31,1.59ZM1040.78,233.83c2.56-1.12,4.75-2.19,6.56-3.19h-3.94l.09.09c-.5.19-1.31.53-2.44,1.03-1.06.5-1.84.84-2.34,1.03.25.13.59.28,1.03.47.5.25.84.44,1.03.56ZM1052.03,242.74c-2.13-.94-4.41-1.84-6.84-2.72l1.12-1.69c.94.31,2.28.81,4.03,1.5,1.25.5,2.19.84,2.81,1.03l-1.12,1.88Z"/>
            </g>
            <path class="cls-11" d="M982.31,263.1s-24.43,10.86-69.89,63.9c-47.93,55.92-171.45,53.16-171.45,53.16"/>
          </g>
          <g id="rotation-icon-6">
            <g>
              <path class="cls-3" d="M911.61,444.46h-4.78l-8.16-12.94c-.56-.94-.94-1.59-1.12-1.97.06.94.09,2.12.09,3.56v11.34h-4.41v-20.72h5.06l7.88,12.75c.56.81.94,1.5,1.12,2.06v-.09c-.06-.69-.09-1.75-.09-3.19v-11.53h4.41v20.72Z"/>
              <path class="cls-3" d="M922.86,437.15h-3.47v7.31h-4.69v-20.72h8.62c5,.13,7.59,2.31,7.78,6.56.06,4.56-2.69,6.84-8.25,6.84ZM922.48,427.4h-3.09v6.19h3.09c2.44-.06,3.69-1.09,3.75-3.09-.06-2-1.31-3.03-3.75-3.09Z"/>
              <path class="cls-3" d="M953.14,423.74l-8.25,12.56v8.16h-4.69v-8.06l-8.16-12.66h5.34l4.12,6.94c.44.62.84,1.31,1.22,2.06.5-.81.87-1.5,1.12-2.06l3.84-6.94h5.44Z"/>
              <path class="cls-3" d="M888.22,470.07l-1.59-.47c.62-2.5,1.12-4.88,1.5-7.12l1.69.28c-.56,2.62-1.09,5.06-1.59,7.31ZM887.19,460.51v-2.25h7.97v2.25h-2.62v13.22h-2.25v-13.22h-3.09ZM888.22,455.26v-2.25h6.28v2.25h-6.28ZM894.41,468.1c0-.12-.03-.28-.09-.47-.5-1.94-.97-3.47-1.41-4.59l1.5-.47c.69,1.94,1.22,3.59,1.59,4.97l-1.59.56ZM901.25,473.91v-5.53h-3v1.12h-2.16v-14.16h5.16v-3.75h2.25v3.75h5.25v14.16h-2.16v-1.12h-3.09v5.53h-2.25ZM898.25,457.51v3.38h3v-3.38h-3ZM898.25,462.76v3.38h3v-3.38h-3ZM906.59,457.51h-3.09v3.38h3.09v-3.38ZM903.5,462.76v3.38h3.09v-3.38h-3.09Z"/>
              <path class="cls-3" d="M911.75,466.04l-.66-1.88c.12,0,.31-.03.56-.09h.47c.87-1.12,1.69-2.31,2.44-3.56-1.12-1.12-2.38-2.25-3.75-3.38l1.22-1.41.56.38c.94-1.44,1.78-2.97,2.53-4.59l2.25.75c-.25.38-.59.91-1.03,1.59-1,1.63-1.75,2.78-2.25,3.47l1.59,1.41c.44-.62,1.06-1.56,1.88-2.81.19-.31.31-.53.38-.66l1.88,1.03c-1.63,2.38-3.41,4.94-5.34,7.69l2.62-.19c-.06-.19-.16-.5-.28-.94-.19-.38-.31-.66-.38-.84l1.59-.56c.44.94,1,2.28,1.69,4.03.06.25.12.44.19.56l-1.78.56-.38-.94h-1.22v8.44h-2.06v-8.34l-.84.09c-.25,0-.56.03-.94.09-.44,0-.75.03-.94.09ZM912.5,472.69l-1.69-.19c.44-2.12.75-3.84.94-5.16l1.59.19c-.06.62-.19,1.5-.38,2.62-.19,1.06-.34,1.91-.47,2.53ZM920.28,467.16v-2.16h12.75v2.16h-5.34v3.84h6v2.06h-14.25v-1.69l-.75.19c-.25-1.19-.66-2.59-1.22-4.22l1.41-.38c.25.62.62,1.69,1.12,3.19.12.38.22.66.28.84h5.06v-3.84h-5.06ZM922.44,464.35c-1.12-1.62-2.16-3.06-3.09-4.31,1-1.19,2-2.66,3-4.41l1.88.94c-1.12,1.56-1.97,2.69-2.53,3.38.94,1.06,1.81,2.16,2.62,3.28l-1.88,1.12ZM920,454.98v-2.25h13.12v2.25h-13.12ZM927.03,464.35c-.56-.81-1.41-2-2.53-3.56-.31-.38-.53-.66-.66-.84,1.19-1.5,2.19-2.94,3-4.31l1.88.94c-1.12,1.56-1.97,2.69-2.53,3.38.56.62,1.44,1.72,2.62,3.28l-1.78,1.12ZM931.62,464.35c-.81-1.12-1.94-2.59-3.38-4.41.12-.19.38-.5.75-.94,1.12-1.56,1.91-2.69,2.34-3.38l1.88.94c-.44.56-1.09,1.41-1.97,2.53-.31.38-.53.66-.66.84.56.56,1.47,1.59,2.72,3.09l-1.69,1.31Z"/>
              <path class="cls-3" d="M950.19,472.98c-.25-.62-.81-1.63-1.69-3-.13-.19-.22-.34-.28-.47-.56,1.06-1.69,2.5-3.38,4.31-.44-.5-.94-1.16-1.5-1.97-.25,1.06-.97,1.62-2.16,1.69h-1.03c-.56.06-.97.09-1.22.09-.06-.38-.16-.94-.28-1.69-.06-.31-.09-.53-.09-.66.19.06.72.09,1.59.09.87.06,1.28-.28,1.22-1.03v-3.94h-2.91c-.13,3.06-.75,5.56-1.88,7.5-.63-.62-1.22-1.22-1.78-1.78.62-1.06,1.03-2.22,1.22-3.47.19-1.25.28-3.34.28-6.28v-9.94h7.22v18.75l-.09.09c3.38-3.19,5.28-7.19,5.72-12h-4.78v-2.34h4.97c.12-2.19.19-4,.19-5.44h2.44c0,2.25-.06,4.06-.19,5.44h5.62v2.34h-5.44c.81,5.12,2.78,9.09,5.91,11.91-.31.38-.75.91-1.31,1.59-.19.31-.34.53-.47.66-2.75-3-4.53-6.47-5.34-10.41-.44,2.06-1.12,3.97-2.06,5.72l1.22-.56c.12.19.31.47.56.84.81,1.44,1.37,2.44,1.69,3l-1.97.94ZM938.56,454.51v3.94h2.81v-3.94h-2.81ZM938.56,463.41v.94h2.81v-3.94h-2.81v3Z"/>
            </g>
            <path class="cls-11" d="M557.2,351.26s76.6,147.59,322.31,100.21"/>
          </g>
        </g>
      </g>
    </g>
  </g>
</svg>