<?xml version="1.0" encoding="UTF-8"?>
<svg id="_圖層_2" data-name="圖層 2" xmlns="http://www.w3.org/2000/svg" xmlns:xlink="http://www.w3.org/1999/xlink" viewBox="0 0 175.41 98.99">
  <defs>
    <style>
      .cls-1 {
        fill: none;
      }

      .cls-2 {
        fill: #fff;
      }

      .cls-3 {
        fill: #5e5748;
      }

      .cls-4 {
        clip-path: url(#clippath);
      }
    </style>
    <clipPath id="clippath">
      <path class="cls-1" d="M175.35,86.66C174.81,38.78,135.68,0,87.68,0S0,39.33,0,87.68c0,4.61,3.74,8.35,8.35,8.35h158.71c4.61,0,8.35-3.74,8.35-8.35,0-.35-.02-.68-.06-1.02Z"/>
    </clipPath>
  </defs>
  <g id="_圖層_1-2" data-name="圖層 1">
    <g class="cls-4">
      <g>
        <path class="cls-2" d="M175.35,86.66C174.81,38.78,135.68,0,87.68,0S0,39.33,0,87.68c0,4.61,3.74,8.35,8.35,8.35h158.71c4.61,0,8.35-3.74,8.35-8.35,0-.35-.02-.68-.06-1.02Z"/>
        <path class="cls-3" d="M108.1,96.81c-.13-11.14-9.23-20.16-20.4-20.16s-20.4,9.15-20.4,20.4c0,1.07.87,1.94,1.94,1.94h36.93c1.07,0,1.94-.87,1.94-1.94,0-.08,0-.16-.02-.24Z"/>
        <path class="cls-3" d="M21.29,87.18h-10.06c-1.87,0-3.37-1.51-3.37-3.37s1.51-3.37,3.37-3.37h10.06c1.86,0,3.37,1.51,3.37,3.37,0,1.86-1.5,3.37-3.37,3.37Z"/>
        <path class="cls-3" d="M40.55,42.49c-.86,0-1.72-.33-2.38-.99l-6.66-6.66c-1.32-1.32-1.32-3.45,0-4.76,1.31-1.31,3.45-1.31,4.76,0l6.66,6.66c1.31,1.32,1.31,3.45,0,4.76-.66.65-1.52.99-2.39.99Z"/>
        <path class="cls-3" d="M87.7,23.24c-1.87,0-3.37-1.51-3.37-3.37v-10.07c0-1.87,1.5-3.37,3.37-3.37s3.37,1.51,3.37,3.37v10.07c0,1.86-1.51,3.37-3.37,3.37Z"/>
        <path class="cls-3" d="M63.1,27.64c-1.33,0-2.59-.79-3.12-2.1l-3.57-8.81c-.7-1.72.13-3.69,1.85-4.39,1.72-.7,3.69.13,4.39,1.85l3.57,8.81c.7,1.72-.13,3.69-1.85,4.39-.42.17-.84.24-1.27.24Z"/>
        <path class="cls-3" d="M27.18,62.02c-.41,0-.84-.08-1.25-.24l-9.02-3.62c-1.73-.69-2.56-2.65-1.87-4.38.69-1.73,2.65-2.58,4.38-1.87l9.02,3.61c1.72.69,2.56,2.66,1.88,4.39-.53,1.32-1.8,2.11-3.14,2.11Z"/>
        <path class="cls-3" d="M166.01,88.4h-10.06c-1.86,0-3.37-1.51-3.37-3.37s1.51-3.37,3.37-3.37h10.06c1.86,0,3.37,1.51,3.37,3.37s-1.51,3.37-3.37,3.37Z"/>
        <path class="cls-3" d="M136.69,43.7c-.87,0-1.73-.33-2.39-.99-1.31-1.32-1.31-3.45,0-4.77l6.66-6.66c1.32-1.32,3.45-1.32,4.76,0,1.32,1.32,1.32,3.46,0,4.76l-6.66,6.66c-.66.66-1.52.99-2.38.99Z"/>
        <path class="cls-3" d="M114.14,28.85c-.42,0-.85-.08-1.27-.24-1.72-.7-2.55-2.67-1.85-4.39l3.57-8.81c.69-1.72,2.67-2.56,4.39-1.85,1.73.69,2.55,2.66,1.85,4.39l-3.57,8.8c-.53,1.31-1.8,2.11-3.13,2.11Z"/>
        <path class="cls-3" d="M150.07,63.22c-1.34,0-2.6-.8-3.13-2.11-.69-1.73.15-3.69,1.88-4.38l9.02-3.62c1.72-.71,3.69.15,4.38,1.88.69,1.72-.15,3.69-1.87,4.38l-9.02,3.62c-.41.17-.84.24-1.25.24Z"/>

        <g id="needle" transform="rotate(0 87.68 86.66)">
          <path class="cls-3" d="M84.94,77.92l-51.24,3.35c-1.77.11-3.14,1.57-3.15,3.34-.01,1.76,1.34,3.24,3.1,3.38l52.16,4.15c1.01.08,2-.3,2.7-1.03.05-.06.1-.11.14-.16.6-.71.88-1.65.77-2.58l-.91-7.49c-.22-1.78-1.79-3.07-3.57-2.96Z"/>
           <animateTransform
            attributeName="transform"
            type="rotate"
            dur="5s"
            calcMode="linear"
            repeatCount="indefinite"
            values="
              0 87.68 86.66;
              180 87.68 86.66;
              0 87.68 86.66
            "
            keyTimes="0;0.5;1"
          />
        </g>
      </g>
    </g>
  </g>
</svg>