<?xml version="1.0" encoding="UTF-8"?>
<svg id="_圖層_2" data-name="圖層 2" xmlns="http://www.w3.org/2000/svg" viewBox="0 0 719.15 359.93">
  <defs>
    <style>
      .cls-1 {
        fill: none;
      }

      .cls-2 {
        fill: #ede9da;
      }

      .cls-3, .cls-4, .cls-5 {
        fill: #fff;
      }

      .cls-3, .cls-5 {
        font-size: 24.4px;
      }

      .cls-6 {
        font-family: GenSenRoundedJP-H, 'GenSenRoundedJP H';
      }

      .cls-7 {
        fill: #b5c96b;
      }

      .cls-8 {
        fill: #29a5bb;
      }

      .cls-9 {
        fill: #eba975;
      }

      .cls-10 {
        fill: #76c6ce;
      }

      .cls-11 {
        fill: #f4ddc2;
      }

      .cls-12 {
        fill: #8db228;
      }

      .cls-13 {
        fill: #5e5748;
      }

      .cls-14, .cls-5 {
        font-family: FZLTTHB--B51-0, 'Lantinghei TC';
      }

      .cls-15 {
        fill: #d1c6a1;
      }

      .cls-4 {
        font-family: FZLTZHB--B51-0, 'Lantinghei TC';
        font-size: 26px;
      }

      .cls-16 {
        fill: #f47171;
      }

      .cls-17 {
        fill: #c6ba8b;
      }

      .cls-18 {
        fill: #f38b2f;
      }

      .cls-19 {
        fill: #fca768;
      }

      .cls-20 {
        fill: #e2342b;
      }
    </style>
  </defs>
  <g id="_圖層_1-2" data-name="圖層 1">
    <g>
      <g>
        <g>
          <g>
            <path class="cls-1" d="M320.09,221.47c-6.14,1.75-12.1,3.9-17.89,6.43-.55.24-1.09.47-1.62.72-.11.04-.2.09-.31.14-8.57,3.89-16.68,8.6-24.25,14.03-2.68,1.92-5.29,3.92-7.82,6.02-3.66,3.02-7.17,6.22-10.51,9.58l99,101.54,1.83-143.93c-13.32.1-26.2,1.99-38.42,5.47Z"/>
            <path class="cls-1" d="M414.09,226.69c-.12-.05-.25-.11-.37-.15-.63-.26-1.26-.51-1.89-.75-16.2-6.34-33.81-9.81-52.26-9.81-.35,0-.7.02-1.06.02l-1.83,143.93,104.47-101.85c-13.35-13.36-29.32-24.1-47.07-31.39Z"/>
            <path class="cls-9" d="M268.2,248.8c2.53-2.09,5.14-4.1,7.82-6.02-6.54,4.69-12.67,9.91-18.33,15.6h0c3.34-3.36,6.85-6.56,10.51-9.58Z"/>
            <path class="cls-7" d="M170.52,144.23c20.05-17.56,42.5-32.47,66.37-43.97,37.2-17.64,78.78-27.5,122.68-27.5.25,0,.51,0,.76,0L361.26.02c-.56,0-1.12-.02-1.68-.02-55.84,0-108.7,12.73-155.85,35.45-36.01,17.35-68.69,40.52-96.81,68.28l50.95,52.26c4.1-4.04,8.32-7.97,12.65-11.76Z"/>
            <path class="cls-10" d="M118.54,204.11c11.19-17.34,24.46-33.49,39.32-48.12l-50.95-52.26c-19.41,19.17-36.66,40.54-51.33,63.69-17.61,27.8-31.5,58.17-41,90.43C5.09,290.11,0,324.24,0,359.57h215.98v-.06H72.83c0-56.35,17.64-111.07,45.71-155.4Z"/>
            <path class="cls-9" d="M242.55,276.33c4.56-6.39,9.63-12.39,15.14-17.94h0c-5.52,5.55-10.59,11.55-15.14,17.94Z"/>
            <path class="cls-19" d="M469.67,94.65c35.4,14.79,67.36,36.55,93.99,63.5l52.14-50.83c-33.3-33.82-73.23-61.09-117.71-79.67-.13-.05-.25-.1-.35-.14h-.01C455.68,9.98,409.6.24,361.26.02l-.92,72.74c38.73.1,75.66,7.87,109.33,21.88Z"/>
            <path class="cls-9" d="M478.82,279.55c6.86,10.2,12.43,21.33,16.51,33.16-3.97-11.9-9.41-23.11-16.1-33.39-.26.15-.41.24-.41.24Z"/>
            <path class="cls-16" d="M719.15,359.57c0-70.06-20.03-135.45-54.7-190.73-13.96-22.27-30.3-42.89-48.65-61.53l-52.14,50.83c14.23,14.4,26.94,30.27,37.84,47.36,0,.06-.53.43-1.47,1.04l1.43-.85c27.37,44.58,43.19,97.3,43.19,153.81h-141.47v.06h215.98Z"/>
            <path class="cls-2" d="M300.27,228.76c-8.57,3.89-16.69,8.6-24.25,14.03,7.57-5.42,15.69-10.14,24.25-14.03Z"/>
            <path class="cls-2" d="M502.92,359.51h.25c0-16.39-2.77-32.13-7.83-46.8,4.9,14.68,7.58,30.42,7.59,46.8Z"/>
            <path class="cls-18" d="M469.67,94.65c-33.68-14.01-70.61-21.78-109.33-21.88l-1.82,143.23c.35,0,.7-.02,1.06-.02,18.44,0,36.06,3.47,52.26,9.81.63.25,1.26.49,1.89.75.12.04.25.1.37.15,17.75,7.29,33.72,18.03,47.07,31.39l102.5-99.93c-26.63-26.95-58.59-48.71-93.99-63.5Z"/>
            <path class="cls-20" d="M601.45,205.7l-1.43.85c.95-.61,1.47-.98,1.47-1.04-10.9-17.09-23.61-32.97-37.84-47.36l-102.5,99.93c6.03,6.03,11.53,12.6,16.41,19.63.42.61.85,1.24,1.26,1.85,0,0,.15-.09.41-.24,6.69,10.28,12.13,21.49,16.1,33.39,5.06,14.67,7.83,30.41,7.83,46.8h141.47c0-56.5-15.82-109.22-43.19-153.81Z"/>
            <path class="cls-8" d="M157.87,155.99c-14.86,14.63-28.13,30.78-39.32,48.12-28.07,44.33-45.71,99.05-45.71,155.4h143.15c.01-30.07,9.28-57.99,25.09-81.06.49-.71.99-1.41,1.48-2.12,4.56-6.39,9.62-12.39,15.14-17.94l-99.82-102.39Z"/>
            <path class="cls-12" d="M236.89,100.26c-23.87,11.5-46.33,26.41-66.37,43.97-4.34,3.8-8.55,7.72-12.65,11.76l99.82,102.39c5.66-5.69,11.79-10.91,18.33-15.6,7.57-5.43,15.69-10.14,24.25-14.03.11-.05.2-.1.31-.14.54-.25,1.07-.48,1.62-.72,5.78-2.53,11.75-4.68,17.89-6.43,12.22-3.49,25.1-5.38,38.42-5.47l1.82-143.23c-.25,0-.51,0-.76,0-43.9,0-85.48,9.87-122.68,27.5Z"/>
          </g>
          <path class="cls-15" d="M452.75,359.58h-186.36c0-21.78,7.47-41.83,20.01-57.69,8.42-10.67,19.13-19.45,31.39-25.61,2.43-1.22,4.92-2.34,7.46-3.35,5.82-2.31,11.92-4.04,18.24-5.14,5.22-.91,10.59-1.38,16.07-1.38,11.31,0,22.16,2.02,32.19,5.71.76.27,1.51.57,2.27.87,15.86,6.31,29.57,16.85,39.74,30.23,11.91,15.65,18.98,35.19,18.98,56.37Z"/>
          <path class="cls-17" d="M421.43,359.58h-123.7c0-16.06,6.12-30.69,16.16-41.69,4.29-4.7,9.3-8.74,14.85-11.94,3.44-1.98,7.09-3.64,10.9-4.94,5.98-2.03,12.36-3.18,19-3.27.32-.01.63-.01.94-.01,6.89,0,13.51,1.13,19.71,3.21.85.28,1.68.58,2.51.9,9.58,3.69,18.01,9.69,24.61,17.32,9.37,10.84,15.03,24.97,15.03,40.42Z"/>
        </g>
        <text class="cls-4" transform="translate(30.86 246.05)"><tspan x="0" y="0">過 輕</tspan></text>
        <text class="cls-4" transform="translate(628.9 246.05)"><tspan x="0" y="0">肥 胖</tspan></text>
        <text class="cls-4" transform="translate(202.04 75.93)"><tspan x="0" y="0">正 常</tspan></text>
        <text class="cls-4" transform="translate(456.51 75.93)"><tspan x="0" y="0">過 重</tspan></text>
        <text class="cls-5" transform="translate(109.27 275.43)"><tspan x="0" y="0">BMI 小於</tspan><tspan x="26.36" y="29.28">18.5</tspan></text>
        <text class="cls-3" transform="translate(493.12 286.18)"><tspan class="cls-14" x="0" y="0">BMI </tspan><tspan class="cls-6" x="60.44" y="0">≧ </tspan><tspan class="cls-14" x="90.52" y="0">27</tspan></text>
        <text class="cls-3" transform="translate(192.09 160.12)"><tspan class="cls-14" x="0" y="0">18.5 </tspan><tspan class="cls-6" x="63.39" y="0">≦ </tspan><tspan class="cls-14" x="93.48" y="0">BMI</tspan><tspan class="cls-6" x="40.85" y="29.28">＜ </tspan><tspan class="cls-14" x="70.93" y="29.28">24</tspan></text>
        <text class="cls-3" transform="translate(389.62 160.12)"><tspan class="cls-14" x="0" y="0">24 </tspan><tspan class="cls-6" x="42.13" y="0">≦ </tspan><tspan class="cls-14" x="72.22" y="0">BMI</tspan><tspan class="cls-6" x="30.84" y="29.28">＜ </tspan><tspan class="cls-14" x="60.93" y="29.28">27</tspan></text>
      </g>
      <g id="needle" transform="rotate(0 358.83 334.06)">
        <path class="cls-13" d="M375.4,328.09c1.16,2.82,1.53,6,.9,9.21-.1.5-.22,1-.36,1.48-.14.49-.31.97-.49,1.43-2.58,6.51-9.16,10.67-16.22,10.15-.12,0-.24-.03-.36-.06l-6.43-1.61h0s-25.31-6.32-25.31-6.32l-28.66-7.16-45.87-11.46-16.02-4h-.02s0,0,0,0h-.01s-88.09-22.01-88.09-22.01c-1.02-.25-1.65-1.26-1.45-2.28l.65-3.35c.2-1.02,1.15-1.7,2.18-1.57l107.56,14.08,48.03,6.28,31.07,4.07,24.35,3.19,3.43.45.72.1c.13.01.25.04.37.08,4.66,1.5,8.26,4.98,10.02,9.29Z"/>
        <path class="cls-11" d="M356.57,341.05c-3.86-1.25-5.98-5.39-4.73-9.25,1.25-3.86,5.39-5.98,9.25-4.73,3.86,1.25,5.98,5.39,4.73,9.25-1.25,3.86-5.39,5.98-9.25,4.73Z"/>
        <animateTransform
          attributeName="transform"
          type="rotate"
          dur="4s"
          repeatCount="indefinite"
          calcMode="discrete"
          values="
            0    358.83 334.06;
            50   358.83 334.06;
            105   358.83 334.06;
            160  358.83 334.06;
            220  358.83 334.06
          "
          keyTimes="0;0.25;0.5;0.75;1"
        />
      </g>
    </g>
  </g>
</svg>