<?xml version="1.0" encoding="UTF-8"?>
<svg id="_圖層_1" data-name="圖層_1" xmlns="http://www.w3.org/2000/svg" xmlns:xlink="http://www.w3.org/1999/xlink" version="1.1" viewBox="0 0 117.2 116">
  <!-- Generator: Adobe Illustrator 29.6.1, SVG Export Plug-In . SVG Version: 2.1.1 Build 9)  -->
  <defs>
    <style>
      .st0, .st1, .st2 {
        fill: none;
      }

      .st3 {
        fill: #d8d0ab;
      }

      .st4 {
        fill: #0f0f0f;
        mix-blend-mode: soft-light;
        opacity: .5;
      }

      .st4, .st5 {
        isolation: isolate;
      }

      .st6 {
        fill: #c6c1b3;
      }

      .st1 {
        stroke: #edecf3;
        stroke-width: 1.5px;
      }

      .st1, .st2 {
        stroke-linecap: round;
        stroke-miterlimit: 10;
      }

      .st7 {
        fill: #bbb8c1;
      }

      .st8 {
        fill: #f4c7b5;
      }

      .st9 {
        fill: #747f95;
      }

      .st10 {
        fill: #fffaf7;
      }

      .st11 {
        fill: #5e5748;
      }

      .st12 {
        fill: #e0dee9;
      }

      .st13 {
        clip-path: url(#clippath);
      }

      .st2 {
        stroke: #5e5748;
        stroke-width: 1.7px;
      }

      .st14 {
        fill: #efe8ca;
      }
    </style>
    <clipPath id="clippath">
      <circle class="st0" cx="58" cy="58" r="58" transform="translate(-1.1 1.2) rotate(-1.1)"/>
    </clipPath>
  </defs>
  <g class="st5">
    <g id="_圖層_2">
      <g id="_參考線">
        <g>
          <circle class="st6" cx="58" cy="58" r="58"/>
          <g class="st13">
            <g>
              <path class="st3" d="M12.1,407.5c35.9.2,71.8.5,107.6.7,8.5,0,17.5,0,24.8-4.3-8.1-4-17.6-3.1-26.6-2.3-26.9,2.3-53.9,2.7-80.8,1.1-9.5-.5-19.8-1.1-27.6,4.4"/>
              <g>
                <path class="st11" d="M33.6,63.8l56.7.7s9.7-17.3-3.4-26.8c-13.1-9.5-8.7-25-30.4-25.6-23.2-.7-24.1,20.6-22.7,31.1,1.4,11.4-.2,20.6-.2,20.6h0Z"/>
                <g>
                  <path class="st8" d="M34.6,31.8c2.3-9.6,13.3-25,29.6-13.6,5.1,3.6,7,9.5,7.6,15.5.4,4.2-4.2,42.4-4.2,42.4-2.4,15-26.1,15.3-26.2-2.2l1.3-10.8c-12.1-5-10.7-20.6-8.1-31.3h0Z"/>
                  <path class="st4" d="M42.7,63.1s6.8,2.9,20.7-4.2c0,0-8.1,10.1-21.9,13.5l1.2-9.2h0Z"/>
                  <path class="st8" d="M80.1,40.6c-.1-3.7-3.3-6.7-7.1-6.6-3.8,0-6.8,3.2-6.6,6.9s3.3,6.7,7.1,6.6c3.8,0,6.8-3.2,6.6-6.9h0Z"/>
                  <path class="st11" d="M74.7,38c-1,.3-2.2.3-3,.9-.8.6-1,1.7-1.5,2.7-1.2-3,1.8-5.2,4.4-3.6h0Z"/>
                  <path class="st11" d="M54.6,30.6c0,.6-1,1-2.1.8s-1.9-.8-1.8-1.4c0-.6,1-1,2.1-.8s1.9.8,1.8,1.4Z"/>
                  <path class="st11" d="M42.2,28.2c.2.6-.4,1.3-1.5,1.7-1,.4-2,.2-2.2-.4s.4-1.3,1.5-1.7c1-.4,2-.2,2.2.4Z"/>
                  <path class="st4" d="M65,47.7c-.3,3.9-3.8,6.9-7.7,6.6-3.9-.3-6.9-3.8-6.6-7.7.3-3.9,3.8-6.9,7.7-6.6,3.9.3,6.9,3.8,6.6,7.7Z"/>
                  <path class="st11" d="M48.6,45.1c-.2,2.8-3.9,4.2-5.6,1.8-.5-.7-.8-1.4-.8-2.2.5.6,1,1.2,1.5,1.6,1.7,1.5,3.7.3,5-1.2h0Z"/>
                  <path class="st11" d="M39.4,34.8c-.1.7.2,1.4.6,1.5.4,0,.9-.5,1-1.2s-.2-1.4-.6-1.5c-.4,0-.9.5-1,1.2Z"/>
                  <path class="st11" d="M50.4,36.1c-.1.7.2,1.4.6,1.5.4,0,.9-.5,1-1.2s-.2-1.4-.6-1.5-.9.5-1,1.2Z"/>
                  <path class="st4" d="M33.7,36.1c-.8,4.6-1.2,9.7-.4,14.3,3.6,0,6.6-2.9,6.9-6.6.3-3.9-2.6-7.4-6.5-7.7Z"/>
                  <path class="st11" d="M45,35.3c-.1,1.9-.7,3.6-1.6,5.2l-.3-.7c.8.3,1.7.7,2.4,1.2-1.1,0-2.1-.2-3.2-.4.6-2,1.3-3.9,2.6-5.5h0Z"/>
                </g>
                <path class="st11" d="M37.5,24.1s6-.1,16.2-7.6c0,0-.7,20.6,14.1,20.2,0,0,2-2.7,5.2-2.8,0,0-.1-21.8-18.6-20.5,0,0-10.7-1.5-16.9,10.6h0Z"/>
                <path class="st14" d="M79.5,173.8c26-11.8-9.9-98.9-10.7-101.3-2.2,1.7-16.7,13.9-16.7,13.9,0,0-8-8.5-12.1-13.1-3.5,2.8-5.8,5.5-9.2,10.7-15.2,23.1-15.7,50.2-13.2,77.1.3,3.2.9,6.7,3.7,8.6,1.9,1.3,4.3,1.6,6.7,1.8,0,0,21.5,3.4,28.7,3.9,5.7.4,19.3,0,22.8-1.7h0Z"/>
                <path class="st11" d="M64.8,82.5c.2.2-.8,1.7-3,3.7-2.1,2-5.3,4.5-9.4,6.5-.3.1-.8.3-1.3.2-.5-.1-.8-.4-1.1-.6-.5-.4-.8-.8-1.2-1.1-.7-.7-1.4-1.5-2.1-2.2-1.3-1.4-2.4-2.8-3.2-3.9-1.7-2.3-2.6-3.9-2.4-4.1.2-.2,1.4,1.2,3.3,3.2,1,1,2.1,2.3,3.5,3.6.7.7,1.4,1.4,2.1,2.1.3.3.8.8,1.1,1,.2.1.3.2.3.2s0,0,.3,0c3.8-1.8,7.1-4.1,9.3-5.8,2.2-1.7,3.6-2.9,3.8-2.7h0Z"/>
                <path class="st3" d="M103.1,374c-20.9.6-32.5-.3-32.5-.3-16.8-78.3-21.6-155.9-21.6-155.9l-3.4-.2c-3.2,48.5-.2,157.7-.2,157.7-18.4,0-32.4-.6-32.4-.6-23.5-162.5,11.8-213.5,11.8-213.5l52.8.8c13,19,25.5,211.9,25.5,211.9h0Z"/>
                <path class="st11" d="M24.4,395.9s-20,7.1-18.6,11,33.1-1.9,33.1-1.9l-1.7-10.2-12.8,1h0Z"/>
                <path class="st8" d="M20.9,375.2l3.4,20.7s-3.9,3-2.5,4.3c1.4,1.4,15.7-3,15.7-3l-.6-21.8-16-.2Z"/>
                <path class="st11" d="M84.2,395.5s-20,7.1-18.6,11,33.1-1.9,33.1-1.9l-1.7-10.2-12.8,1h0Z"/>
                <path class="st8" d="M77.7,374l6.1,21.6s-3.6,2.8-2.2,4.2,15.7-3,15.7-3l-3.3-22.6-16.4-.2h0Z"/>
                <g>
                  <g>
                    <path class="st8" d="M-54.4,13.9c-.5,1.2,4.5,7.3,6.1,14.6,0,.7.2,1.5.4,2.4h0s1,19.8,9.6,38c5-3.8,10-7.6,15.1-11.3.3-.2.6-.5.9-.7-5.5-10.2-10.3-24.5-11.8-29.1-.1-.3-.2-.6-.3-1h0s-1.3-6.4-1.4-7.4c-.4-2.4-.4-8.2-.4-8.2,0,0-1.6-.8-2.5,3-.9,3.8-1.4,2.5-1.4,2.5,0,0-5.2-11.6-7.3-11.5-.8,0-.4,2.6.6,4.1,1,1.6,1.8,3.9,1.8,3.9,0,0-5.5-8.6-7.5-8,0,0-1,.4.8,3,2.5,3.6,4,6.7,4,6.7,0,0-5.9-7.1-6.8-6.8-1.6.6,4.3,7.8,5,10.1,0,0-4.3-5.7-4.9-4.4h0Z"/>
                    <path class="st11" d="M-39.9,17.4c-1.4,1.9-3.4,3.6-3.9,6l-.6-.8c-1.1-1.4-3-1.7-4.6-1.2,1.2-.9,2.9-1.1,4.2-.4.5.2.9.5,1.2,1l-.9.2c.8-2.2,2.7-3.6,4.6-4.8h0Z"/>
                  </g>
                  <path class="st14" d="M-31.8,32.2l-16.9,10.3s6.4,39.7,19.1,50.7c12.6,11,59.8,18.5,59.8,18.5l9.9-38.4s-42.9,1.1-53.1-5.9-18.8-35.2-18.8-35.2h0Z"/>
                </g>
                <path class="st10" d="M40.1,73.3s-42.9,1.2-53.2-5.8c-8.4-5.8-15.8-26-18.1-32.9-5.7,4.8-12.4,10-18.3,14.5,2.6,11.2,9.5,37.6,19.2,46.1,8.1,7.1,30.7,11.9,45.8,14.5-1.2,4.4-2.1,8.8-3.1,13.3C1.7,176.2-4.4,230.5-5.7,284.9c1.3,0,2.5,0,3.8,0,6.1,0,12.2,0,18.3,0,2.1-36.1,5.1-72.1,9-108.1,1.3-12.1,2.7-24.2,4.1-36.2,1.8-15.6,3.6-31.1,5.4-46.7l5.3-20.5h0Z"/>
                <g>
                  <path class="st11" d="M-21.3,70.6c-.1-.5,1.6-1.3,3.6-2.3,2-1,3.7-1.8,4-1.4.3.4-1,1.9-3.2,3-2.2,1.1-4.2,1.2-4.3.7h0Z"/>
                  <path class="st11" d="M-15.4,73.5c-.3-.4.5-1.4,1-2.7.6-1.3.8-2.5,1.3-2.6.2,0,.5.3.6.9s0,1.5-.3,2.3c-.4.9-1,1.5-1.5,1.8-.5.3-1,.3-1.1.1h0Z"/>
                </g>
                <path class="st11" d="M2.6,196.6c0-.5,3.8-1.7,8.9-2.1,5-.5,9.1,0,9.1.5,0,.5-4,.8-8.9,1.2-4.9.4-8.9.9-9,.4h0Z"/>
                <g>
                  <path class="st10" d="M90.1,92.7c-1.7-5.5-2.2-10.3-6.2-14.4-4-4.1-10.2-6.1-15.2-5.7-1,71.1-3.8,144,4.9,214.6l31.4,1.9c1.8-9.3,1.8-18.8,1.8-28.3,0-56.5,0-114-16.6-168h0Z"/>
                  <g>
                    <g>
                      <path class="st8" d="M87.1,178.1c-1.4,6-2.8,11.1-3.5,13.6-.1.3-.2.6-.3,1h0s-2.5,6-2.9,6.9c-1,2.2-4.3,7.1-4.3,7.1,0,0,.9,1.6,3.7-1.1s2.6-1.3,2.6-1.3c0,0-2.1,12.5-.4,13.6.7.4,1.8-1.9,1.9-3.7,0-1.8.7-4.3.7-4.3,0,0-.2,10.2,1.7,10.9,0,0,1.1.2,1-2.9,0-4.4.4-7.8.4-7.8,0,0,.9,9.2,1.9,9.4,1.6.4.8-8.9,1.5-11.2,0,0,.4,7.1,1.6,6.4,1.1-.8.3-8.6,3.1-15.5.3-.6.7-1.4,1.1-2.2h0s3.4-5.6,6.9-14.2c-5.5-1.5-11.1-3-16.6-4.5h0Z"/>
                      <g>
                        <polygon class="st14" points="80.8 189 101.5 195.7 106.2 183.6 86.9 177.5 80.8 189"/>
                        <path class="st10" d="M72.6,72.7l11,48.3-1.7,64,23.8,7.4c6.2-14.9,7.7-37.3,8.6-54.7,1-18.8-12-60.1-41.7-65.1h0Z"/>
                      </g>
                      <g>
                        <path class="st10" d="M73.3,199.2c9.3-.3,18.7-.6,28-1,.4,0,1,0,1.2.4.2.2.2.5.2.8.2,2.7.5,5.4.8,8.2.7,7.8,1.4,15.6.4,23.3-.3,2.5-.9,5.1-2.4,7.2-2,2.6-5.3,3.9-8.6,4.5-5.3,1.1-11.8.2-14.6-4.4-.9-1.5-1.2-3.2-1.6-4.8-1.1-5-2.2-9.9-3.3-14.9-1.4-6.3-2.8-12.9-1.3-19.1"/>
                        <path class="st11" d="M102.9,198.5c0,.5-5.7.4-12.6.4-6.9,0-12.6,0-12.6-.6,0-.5,5.6-1.2,12.6-1.2,7,0,12.6.9,12.6,1.4h0Z"/>
                      </g>
                    </g>
                    <path class="st11" d="M85,132c.2-.1,1.6,2.5,1.8,7,.1,2.3,0,5-.6,7.9-.5,2.9-1.2,6.1-2,9.4-1.5,6.6-3.1,12.5-4.1,16.8-1.1,4.3-1.9,6.9-2.1,6.9-.2,0,.1-2.8.9-7.2.8-4.4,2.1-10.4,3.6-17,.8-3.3,1.6-6.4,2.1-9.3.6-2.8.9-5.4.9-7.6.1-4.4-.8-7-.6-7.1h0Z"/>
                  </g>
                </g>
                <g>
                  <g>
                    <g>
                      <path class="st1" d="M29.4,148.9s10.8-5.6,12.2-41.4"/>
                      <path class="st9" d="M29.2,149.6h-1.2c-.5,0-.9-.4-.9-.9h0c0-.5.4-.9.9-.9h1.2c.5,0,.9.4.9.9h0c0,.5-.4.9-.9.9Z"/>
                    </g>
                    <g>
                      <path class="st1" d="M29.4,107.8s3.1,34.8,13.6,40"/>
                      <path class="st9" d="M44.1,148.5h-1.2c-.5,0-.9-.4-.9-.9h0c0-.5.4-.9.9-.9h1.2c.5,0,.9.4.9.9h0c0,.5-.4.9-.9.9Z"/>
                    </g>
                  </g>
                  <g>
                    <path class="st2" d="M34.9,97.6s-1.8-22.9,4.6-24.3"/>
                    <path class="st2" d="M29.3,107.9s-.8-9.7,6.2-9.4c7.1.3,5.9,9.1,5.9,9.1"/>
                  </g>
                </g>
                <circle class="st12" cx="72.2" cy="134.4" r="8.1"/>
                <path class="st2" d="M69.8,72.5s11.3,11.8,2.7,59"/>
                <path class="st7" d="M75.8,134.6c0,2.1-1.7,3.8-3.8,3.8s-3.8-1.7-3.8-3.8,1.7-3.8,3.8-3.8,3.8,1.7,3.8,3.8Z"/>
              </g>
            </g>
          </g>
        </g>
      </g>
    </g>
  </g>
</svg>