<?xml version="1.0" encoding="UTF-8"?>
<svg id="_圖層_1" data-name="圖層_1" xmlns="http://www.w3.org/2000/svg" xmlns:xlink="http://www.w3.org/1999/xlink" version="1.1" viewBox="0 0 116 116">
  <!-- Generator: Adobe Illustrator 29.6.1, SVG Export Plug-In . SVG Version: 2.1.1 Build 9)  -->
  <defs>
    <style>
      .st0 {
        fill: none;
      }

      .st1 {
        fill: #d8d0ab;
      }

      .st2 {
        fill: #0f0f0f;
        mix-blend-mode: soft-light;
        opacity: .5;
      }

      .st2, .st3 {
        isolation: isolate;
      }

      .st4 {
        fill: #c6c1b3;
      }

      .st5 {
        fill: #fff;
      }

      .st6 {
        fill: #fffaf7;
      }

      .st7 {
        fill: #fdd2c1;
      }

      .st8 {
        fill: #5e5748;
      }

      .st9 {
        clip-path: url(#clippath);
      }

      .st10 {
        fill: #efe8ca;
      }
    </style>
    <clipPath id="clippath">
      <circle class="st0" cx="58" cy="58" r="58" transform="translate(-.9 115) rotate(-89.1)"/>
    </clipPath>
  </defs>
  <g class="st3">
    <g id="_圖層_2">
      <g id="_參考線">
        <g>
          <circle class="st4" cx="58" cy="58" r="58"/>
          <g class="st9">
            <g>
              <path class="st8" d="M80.7,36.8l-8.4,1.6v22.7c10.3-10.5,8.4-24.3,8.4-24.3Z"/>
              <path class="st7" d="M36.2,36.2c1.6-10.2,11.8-27.3,29.9-16.8,5.7,3.3,8.1,9.3,9.3,15.6.8,4.4-.7,44.8-.7,44.8-1.3,15.9-26.1,18.3-27.7-.1l.5-11.4c-13.1-4.2-13-20.7-11.2-32.1Z"/>
              <path class="st2" d="M47.3,68.3s7.4,2.5,21.4-6.2c0,0-7.6,11.3-21.8,16l.4-9.8h0Z"/>
              <path class="st7" d="M84.6,41.6c-.5-3.9-4-6.7-8-6.3s-6.8,3.9-6.3,7.8,4,6.7,8,6.3,6.8-3.9,6.3-7.8Z"/>
              <path class="st8" d="M78.8,39.3c-3,.8-3.6,1.1-4.3,4.2-1.5-3.1,1.4-5.6,4.3-4.2h0Z"/>
              <g>
                <path class="st8" d="M56.7,34.3c-.4.5-1.4.4-2.3-.2s-1.4-1.6-1-2.1c.4-.5,1.4-.4,2.3.2.9.7,1.4,1.6,1,2.1Z"/>
                <path class="st8" d="M43.6,31.4c.4.5,0,1.5-1,2.1s-2,.8-2.4.2,0-1.5,1-2.1,2-.8,2.4-.2Z"/>
                <path class="st2" d="M69.4,50.3c0,4.2-3.4,7.5-7.5,7.5s-7.5-3.4-7.5-7.5,3.4-7.5,7.5-7.5,7.5,3.4,7.5,7.5Z"/>
                <path class="st5" d="M52.3,47.7c-1.4,4.4-5,5.6-6.8.1h6.8Z"/>
                <path class="st8" d="M41.5,39c0,.8.3,1.4.7,1.5.5,0,.9-.6.9-1.4s-.3-1.4-.7-1.5c-.5,0-.9.6-.9,1.4Z"/>
                <path class="st8" d="M53.1,39.4c0,.8.3,1.4.7,1.5.5,0,.9-.6.9-1.4s-.3-1.4-.7-1.5c-.5,0-.9.6-.9,1.4Z"/>
                <path class="st2" d="M35.6,40.8c-.5,4.9-.4,10.3.8,15,3.8-.4,6.7-3.6,6.7-7.5s-3.4-7.5-7.5-7.5h0Z"/>
                <path class="st8" d="M47.4,38.3c-.4,2.1-1.4,4-2.5,5.8l-.3-.8c1.3.5,2.6,1,3.9,1.7-1.4,0-2.8-.4-4.2-.7h-.6c.9-2.3,2-4.4,3.7-6h0Z"/>
              </g>
              <path class="st8" d="M60.5,17s-14.4,12.8-22.4,9.9c0,0,6.7-18.2,23.5-12.8,1.2.4,2.5.7,3.7,1,4.6,1,16.2,5.1,15.5,21,0,0-2.8-1.6-5.7-.3-1,.5-3.8,2.2-3.8,2.2,0,0-10.6-7.6-10.8-21h0Z"/>
              <path class="st1" d="M31.7,163.2l61.9-4.2s16.2,51.8,16.7,92.8c.6,49.4,3.5,88.4,19.4,156.3,0,0-16.1,2.9-31,4,0,0-35.5-72.5-34.9-163.8,0,0-14.1,61.1-16.7,165.6,0,0-16.8.7-30.3,1.6,0,0-15.1-141.5,15-252.2h0Z"/>
              <path class="st8" d="M62,223.6c.5,0,1.3,5.5,1.8,12.3.5,6.8.5,12.4,0,12.4s-1.3-5.5-1.8-12.3c-.5-6.8-.5-12.4,0-12.4h0Z"/>
              <path class="st8" d="M29.7,432.7s-21,7.5-19.5,11.6,34.9-1.8,34.9-1.8l-1.8-10.7-13.6,1h0Z"/>
              <path class="st7" d="M24.8,415l3.8,18s-3.1,2.8-1.6,4.2c1.5,1.5,16.7-3.1,16.7-3.1l-.9-20.1s-17.9.9-17.9.9Z"/>
              <path class="st8" d="M116.4,430.5s-19.6,10.7-17.5,14.5c2.1,3.8,35-8.1,35-8.1l-3.5-10.3-14,3.9h0Z"/>
              <path class="st7" d="M106.9,411.3l8.4,19.7s-2.6,3.2-.9,4.5c1.7,1.2,16.8-6.5,16.8-6.5l-5.2-20-19.1,2.3h0Z"/>
              <path class="st10" d="M46.2,78.1l9.4,3.3,4.6,1.3,4.4-1.7s8.5-4.2,10.6-4.9c0,0,17.1,17.4,20,24.8,5.8,14.9,17.9,68.7,1.9,67.5-33.6-2.7-58.2,5-66.2,2.4-14.5-4.8-.8-50.3,2.5-64.6,1.7-7.5,12.8-28.1,12.8-28.1Z"/>
              <path class="st8" d="M66.2,147.2l-3.1-54.2c2.3-2.2,2.7-10.6,2.7-10.6l-9.4,1.1s-.7,8.3,1.2,9.9l-6.7,53.9c-.3,2.3.5,4.7,2.3,6.3,0,0,0,0,0,.1,2.8,2.6,7.3,2.6,10.1,0,.2-.2.4-.4.6-.6,1.5-1.5,2.3-3.6,2.2-5.7h0Z"/>
              <path class="st1" d="M62.8,93.1s0,0,.1,0c0,0,0,.2,0,.3-.2.2-.3.3-.5.4-.4.2-1.1.4-1.8.5-1.5.1-2.6-.4-2.6-.7,0-.3,1.2-.4,2.4-.5.7,0,1.2-.1,1.7-.1.2,0,.4,0,.5,0,0,0,.1,0,.2,0h0Z"/>
              <polygon class="st6" points="60.1 82.8 55.3 91.5 40.3 80.3 45.8 76.6 60.1 82.8"/>
              <polygon class="st6" points="60.1 82.8 66.6 90.9 80.7 79.8 75.2 76.1 60.1 82.8"/>
              <path class="st6" d="M44.8,162.1c2.7-25.6,4.1-50.6,1.6-77.2l-4.9-3.7h0c-5,1.2-9.4,5.9-12.8,9.7C13.2,108.5,1.6,129.5-5.2,151.9c-1.2,3.9-2.2,7.9-2.2,11.9,0,2.3.3,4.8,1.8,6.7,2.7,3.5,7.9,3.5,12.2,3,4.3-.5,8.5-1.2,12.7-2-.2,3.6-.6,7.2-1.1,10.8-.2,1.8-.4,3.5-.6,5.3l-.4.6-12.2,101,23.3-1.4c3-17.2,5.9-34.4,8.9-51.6,1.4-7.9,2.7-15.9,3.8-23.9,2.2-15.7,3.4-31.6,3.6-47.5.1,0,.3,0,.4-.1v-2.6q-.1,0-.1,0Z"/>
              <path class="st6" d="M120.9,138.9c-8.5-22.5-20.9-44.8-40.2-58.9,0,0-5.7,4.4-5.7,4.4,0,0-.2,7.3-.2,11.5,0,5.6.3,10.1.4,15.7.4,24.8,3.8,49.7,11.3,73.3,1.4,4.3,2.9,8.6,3.8,13,2.2,9.9,1.6,20.2.9,30.3-.5,7.4-1.9,48.7-2.4,56.1l14.1,3.4c.8.3,1.6.6,2.5.8,4.6,1.3,9.3,2.4,14,3.1,2.7-18.7.7-37.8-1.7-56.5-2.9-22.7-6.4-45.3-10.5-67.8,2.3.4,4.7.8,7.1.9,2.3.1,4.7,0,6.6-1.2,1.9-1.3,2.9-3.5,3.4-5.7,1.8-7.5-.7-15.3-3.4-22.5h0Z"/>
              <g>
                <path class="st8" d="M46.1,124.2c-.3,0-1-2.5-2.5-6.5-.7-2-1.6-4.4-2.7-7-.5-1.3-1.2-2.7-1.8-4.1-.2-.3-.3-.7-.5-1.2-.2-.4-.3-1.1,0-1.7.2-.6.4-1,.6-1.3s.4-.7.6-1.1c.4-.7.9-1.4,1.3-2.1.2-.3.5-.7.6-.9,0-.1,0-.2,0-.2s0,0,0,0c0-.1-.4-.4-.7-.6-.3-.2-.6-.5-.9-.7-.6-.5-1.1-.9-1.7-1.3-.6-.4-1.1-.8-1.7-1.2-.2-.1-.3-.2-.5-.4-.2-.2-.4-.5-.4-.9,0-.8.4-1.2.5-1.4.8-1,1.6-1.9,2.3-2.7,2.9-3.2,4.9-5,5.1-4.8.2.2-1.5,2.2-4.1,5.7-.7.9-1.3,1.8-2.1,2.8,0,.1-.2.2-.2.3,0,0,0,0,0,0,0,0-.2,0-.2,0,0,0,0,0,.1,0s0,0,0,0c0,0,.1.1.3.2.6.3,1.2.7,1.8,1.2s1.2.8,1.8,1.3c.3.2.6.5.9.7.3.3.6.4,1,.9.2.2.4.6.4,1.1s-.1.7-.2,1c-.2.5-.4.8-.7,1.1-.4.7-.8,1.4-1.3,2.1-.4.7-1,1.5-1.1,1.9,0,.2,0,.3,0,.6,0,.3.3.6.4,1,.6,1.4,1.2,2.8,1.7,4.2,1,2.7,1.8,5.2,2.4,7.2,1.1,4.2,1.5,6.9,1.2,6.9h0Z"/>
                <path class="st8" d="M75.9,119c-.4-.2,3.8-8.7,9.7-19.2l.2,1.1c-.5-.5-1.1-.9-1.7-1.3-1.2-.8-2.4-1.4-3.7-1.8l-1.5-.5,1.1-1.1c2.1-2,4.1-3.9,5.9-5.5v1.1c-4.4-5.4-6.5-9.4-6.3-9.6.3-.2,3,3.5,7.4,8.6l.5.5-.5.5c-1.7,1.7-3.6,3.6-5.7,5.7l-.4-1.5c1.4.4,2.9,1.1,4.2,2,.7.5,1.3,1,1.9,1.5l.5.5-.3.6c-5.9,10.6-10.9,18.6-11.3,18.3h0Z"/>
              </g>
              <g>
                <path class="st8" d="M95.6,139.8c-.5,0-1.2-4.8-1.6-10.6-.4-5.9-.3-10.7.2-10.8.5,0,1.2,4.7,1.6,10.6s.3,10.8-.2,10.8Z"/>
                <path class="st8" d="M108,140.7c-.2.5-2.8.1-6.2,0-3.3-.2-6,0-6.1-.6-.1-.5,2.7-1.4,6.2-1.3,3.6.2,6.2,1.4,6.1,1.9h0Z"/>
                <path class="st7" d="M81,135.1c1.8-.5,3.5-.9,5.3-1.2,2.4-.4,4.9-.8,7.3-.1,2.4.6,4.9,2.6,5.5,5,0,.2-15,4.9-15,4.7-.9-2.8-1.8-5.6-2.8-8.5"/>
                <path class="st8" d="M38.5,138.3c0,.5-3.7,1.2-8.3,1.9-4.6.8-8.3,1.4-8.5.9-.1-.5,3.5-1.9,8.2-2.8,4.7-.8,8.6-.6,8.6-.1h0Z"/>
                <path class="st7" d="M52.8,137.2l-.2-1c-1.8-.8-3.7-1.5-5.6-2.3-4.1-1.6-8.6-3.1-13-2.3-.2,3.3-.3,6.6-.6,9.9.2,0,.5.1.8.1,3.2.1,6.4.1,9.6,0,3,0,6-.2,8.7-1.4.8-.4,1.8-.9,1.9-1.8s-1-1.9-1.7-1.3h0Z"/>
                <path class="st8" d="M33.5,139.3c-.5,0-1-6.1-1.2-13.7-.1-7.6.2-13.8.7-13.8.5,0,1,6.1,1.2,13.7s-.2,13.8-.7,13.8Z"/>
                <path class="st6" d="M86,147.2c-2.2-4.3-4-8.8-5.6-13.4-.2-.7-.5-1.4-1.1-1.9-.9-.7-2.1-.5-3.2-.3-13.9,2.5-27.7,4.9-41.6,7.4-4.5.8-9.1,1.6-13.3,3.3-.8.3-1.6.7-2.1,1.4-.8,1-.8,2.3-.8,3.6,0,6.4.5,12.9,1.3,19.3,0,.4.1.9.5,1.2.4.3,1,.3,1.5.2,23.1-2.4,46.4-8.1,65.4-21.4"/>
              </g>
            </g>
          </g>
        </g>
      </g>
    </g>
  </g>
</svg>