<?xml version="1.0" encoding="UTF-8"?>
<svg xmlns="http://www.w3.org/2000/svg" viewBox="-15 0 330.17 312.9">
  <defs>
    <style>
      .cls-1, .cls-2 {
        stroke: #b54e3e;
      }

      .cls-1, .cls-2, .cls-3 {
        fill: none;
        stroke-miterlimit: 10;
      }

      .cls-1, .cls-3 {
        stroke-width: 1.51px;
      }

      .cls-4 {
        fill: #fbfcfa;
      }

      .cls-5 {
        isolation: isolate;
      }

      .cls-6 {
        fill: #f4c7b5;
      }

      .cls-2 {
        stroke-width: 1.22px;
      }

      .cls-7 {
        fill: #eab3a0;
      }

      .cls-8 {
        fill: #0f0f0f;
        mix-blend-mode: soft-light;
        opacity: .46;
      }

      .cls-3 {
        stroke: #0a0a0a;
      }

      .cls-9 {
        fill: #5e5748;
      }

      .cls-10 {
        fill: #f47171;
      }

      .cls-11 {
        fill: #d1e2e5;
      }

      .cls-12 {
        fill: #bfd5d8;
      }
      .blink{animation:blink-1 3s both infinite -1s}
      @keyframes blink-1{0%,50%,100%{opacity:1}25%,75%{opacity:0}}

      .wobble-hor-bottom{animation:wobble-hor-bottom 5s cubic-bezier(0.445, 0.05, 0.55, 0.95) both infinite}
      @keyframes wobble-hor-bottom {
        0%,
        100% {
          transform: translateX(0%);
          transform-origin: 50% 50%;
        }
        15% {
          transform: translateX(-2px) rotate(-3deg);
        }
        30% {
          transform: translateX(2px) rotate(3deg);
        }
        45% {
          transform: translateX(-4px) rotate(-3.6deg);
        }
        60% {
          transform: translateX(3px) rotate(2.4deg);
        }
        75% {
          transform: translateX(-3px) rotate(-1.2deg);
        }
      }
    </style>
  </defs>
  <g class="cls-5 wobble-hor-bottom">
    <g id="_圖層_2" data-name="圖層 2">
      <g id="_圖層_1-2" data-name="圖層 1">
        <g class="wobble-hor-bottom">
          <path class="cls-12" d="M270.62,195.75c0,1.63-.03,3.27-.12,4.9-.12,3.34-.41,6.64-.83,9.89-.06.64-.15,1.27-.24,1.91-1.54,10.82-4.55,21.18-8.86,30.83-10.07,22.69-27.14,41.57-48.47,53.91-1.42.83-2.86,1.62-4.31,2.37-.54.29-1.09.57-1.63.85-1.26.65-2.54,1.26-3.84,1.86-12.09,5.55-25.28,9.11-39.15,10.24-1.06.09-2.13.17-3.21.21-1.07.06-2.15.11-3.24.14-1.19.03-2.39.05-3.59.05-.62,0-1.24,0-1.85-.02-2.16-.05-4.31-.14-6.44-.3-.95-.06-1.91-.15-2.84-.24-.54-.05-1.09-.11-1.63-.17-.56-.06-1.1-.12-1.65-.2-.8-.09-1.6-.21-2.41-.33-.85-.12-1.66-.24-2.5-.39-.09-.02-.15-.02-.23-.03-.68-.12-1.35-.24-2.01-.38-1.15-.2-2.28-.42-3.42-.68-.82-.18-1.62-.36-2.41-.56-.17-.03-.35-.09-.51-.12-.8-.2-1.59-.39-2.36-.62-.06-.02-.09-.02-.14-.03-.7-.18-1.39-.39-2.09-.59-.3-.08-.64-.18-.94-.27-.61-.18-1.2-.36-1.78-.56l-.77-.24c-.73-.23-1.45-.47-2.16-.73-.06-.02-.11-.03-.15-.05-.73-.26-1.44-.51-2.16-.77-.29-.12-.56-.23-.83-.33-.57-.2-1.15-.44-1.71-.65-.27-.11-.53-.21-.79-.33-.59-.23-1.18-.47-1.75-.71-.29-.12-.54-.24-.82-.36-.51-.21-1.03-.44-1.53-.67-.23-.12-.47-.21-.68-.32v-.02c-.09-.05-.2-.08-.3-.12-.29-.14-.59-.29-.89-.44-.06-.02-.15-.05-.2-.08-.54-.26-1.07-.51-1.6-.77v-.02c-.79-.38-1.54-.77-2.3-1.16-.29-.14-.57-.29-.85-.45-.32-.15-.62-.32-.94-.5-.82-.44-1.63-.89-2.44-1.38-.05-.02-.09-.05-.14-.08-.7-.39-1.41-.8-2.1-1.23-.64-.38-1.26-.79-1.88-1.16-.53-.32-1.04-.67-1.56-1-1.92-1.26-3.8-2.57-5.63-3.92-1.39-1.04-2.78-2.12-4.13-3.22-.71-.56-1.39-1.13-2.07-1.71-1.36-1.16-2.69-2.34-3.99-3.57-.73-.67-1.44-1.35-2.15-2.04-7.58-7.43-14.16-15.88-19.5-25.14-1.24-2.13-2.41-4.33-3.51-6.53-5.49-11.1-9.3-23.19-11.04-35.94-.06-.48-.12-.95-.18-1.44-.61-4.8-.92-9.67-.92-14.6,0-19.68,4.86-38.23,13.43-54.49,8.76-16.65,21.4-30.95,36.76-41.64,18.98-13.27,42.08-21.04,67-21.04,17.26,0,33.64,3.74,48.39,10.42,6.61,3,12.87,6.6,18.77,10.72,4.75,3.33,9.26,7,13.46,11,7.47,7.08,14.02,15.16,19.42,23.99.06.08.09.15.15.24,1.06,1.74,2.06,3.51,3.04,5.31,8.88,16.52,13.93,35.41,13.93,55.48Z"/>
          <path class="cls-11" d="M306.69,105.7c-.62.91-1.75,1.36-2.84,1.42-1.12.08-2.21-.2-3.28-.47-.17-.05-.36-.09-.54-.14,1.21.57,2.37,1.27,3.18,2.33.91,1.21,1.19,3.03.27,4.24-.67.89-1.82,1.3-2.92,1.32-.14,0-.29,0-.42-.02-.94-.05-1.89-.32-2.81-.59-2.9-.85-5.79-1.71-8.76-2.28,1.29.73,2.51,1.56,3.69,2.47,1.21.92,2.39,1.98,2.98,3.39.61,1.39.45,3.22-.71,4.17-.86.71-2.09.83-3.16.61-1.07-.24-2.04-.8-3.01-1.36-2.62-1.53-5.28-3.09-8.05-4.36-1.52,1.38-6.26,2.45-9.67,9.87-18.55,40.37-66.54,52.63-66.54,52.63-3.22,2.27-2.83,2.1-5.52,4.98l-.06.06c-1.82,1.95-3.45,4.07-4.87,6.31-.98,1.51-1.89,3.12-2.66,4.73-3.39,6.96-5.04,14.78-4.6,22.52.68,12.22,6.55,24.05,15.87,31.98,2.34,2,4.93,3.78,7.67,5.2.92.48,1.86.94,2.81,1.32.62.26,1.24.5,1.88.71,1.09.39,2.21.73,3.33.98.15.03.32.08.47.11,9.41,2.07,19.38-.27,27.88-4.78,5.07-2.69,9.7-6.1,14.29-9.77-10.07,22.69-27.14,41.57-48.47,53.91-1.42.83-2.86,1.62-4.31,2.37-.54.29-1.09.57-1.63.85-1.26.65-2.54,1.26-3.84,1.86-12.09,5.55-25.28,9.11-39.15,10.24-1.06.09-2.13.17-3.21.21-1.07.06-2.15.11-3.24.14-1.19.03-2.39.05-3.59.05-.62,0-1.24,0-1.85-.02-2.16-.05-4.31-.14-6.44-.3-.95-.06-1.91-.15-2.84-.24-.54-.05-1.09-.11-1.63-.17-.56-.06-1.1-.12-1.65-.2-.8-.09-1.6-.21-2.41-.33-.85-.12-1.66-.24-2.5-.39-.09-.02-.15-.02-.23-.03-.68-.12-1.35-.24-2.01-.38-1.15-.2-2.28-.42-3.42-.68-.82-.18-1.62-.36-2.41-.56-.17-.03-.35-.09-.51-.12-.8-.2-1.59-.39-2.36-.62-.06-.02-.09-.02-.14-.03-.7-.18-1.39-.39-2.09-.59-.3-.08-.64-.18-.94-.27-.61-.18-1.2-.36-1.78-.56l-.77-.24c-.73-.23-1.45-.47-2.16-.73-.06-.02-.11-.03-.15-.05-.73-.26-1.44-.51-2.16-.77-.29-.12-.56-.23-.83-.33-.57-.2-1.15-.44-1.71-.65-.27-.11-.53-.21-.79-.33-.59-.23-1.18-.47-1.75-.71-.29-.12-.54-.24-.82-.36-.51-.21-1.03-.44-1.53-.67-.23-.12-.47-.21-.68-.32-.09-.05-.2-.09-.3-.14-.29-.14-.59-.29-.89-.44-.06-.02-.15-.05-.2-.08-.54-.26-1.07-.51-1.6-.77v-.02c-.79-.38-1.54-.77-2.3-1.16-.29-.14-.57-.29-.85-.45-.32-.15-.62-.32-.94-.5-.82-.44-1.63-.89-2.44-1.38-.05-.02-.09-.05-.14-.08-.7-.39-1.41-.8-2.1-1.23-.64-.38-1.26-.79-1.88-1.16-.53-.32-1.04-.67-1.56-1-1.92-1.26-3.8-2.57-5.63-3.92-1.39-1.04-2.78-2.12-4.13-3.22-.71-.56-1.39-1.13-2.07-1.71-1.36-1.16-2.69-2.34-3.99-3.57-.73-.67-1.44-1.35-2.15-2.04-6.37-6.73-12.07-14.07-16.96-21.25-.86-1.29-1.71-2.59-2.54-3.89-2.48-3.96-4.76-8.06-6.84-12.25-5.29-10.72-9.26-22.12-12.04-33.78-.09-.36-.17-.71-.24-1.07h-.02c-.82-3.46-1.51-6.96-2.12-10.47-2.16-12.48-3.12-25.17-2.69-37.83.35-11.06,1.74-22.07,4.25-32.82,1.13-4.87,2.5-9.7,4.08-14.43C70.95,8.78,171.51-1.06,206.74,34.17c13.22,13.22,11.18,30.59,3.37,44.22-2.25,3.93-5.11,7.38-8.27,10.62-7.06,7.31-15.52,13.54-21.53,21.77-2.89,3.96-5.23,8.55-5.4,13.45-.17,4.9,2.25,10.12,6.73,12.12,1.95.86,4.14,1.07,6.29,1.12,27.01.57,55.18-28.24,56.59-29.69,2.34-2.41,9.65-8.52,12.24-10.65.86-.71,1.75-1.41,2.68-2.06,2.84-2.01,5.93-3.66,9.18-4.92,9.05-3.49,19.29-3.96,28.56-1.06,2.27.71,6.22,2.57,5.39,5.39-.57,1.92-2.18,2.9-4.14,3.28,1.36.33,2.71.79,4.01,1.3,1.42.56,2.84,1.26,3.81,2.42.94,1.18,1.3,2.98.44,4.24Z"/>
          <g>
            <path class="cls-6" d="M126.08,197.47c0,3.55.74,7.08.85,10.63.03.86.02,1.74-.03,2.6-.38,7.14-3.31,14.13-8.18,19.38-.32.33-.64.67-.95.98-5.32,5.2-12.57,8.41-20,8.8h-.02c-.12.02-.23.03-.35.03-.08-.05-.17-.11-.24-.15-1.51-.97-3-1.91-4.51-2.81-.02-.02-.03-.03-.05-.03-1.88-1.15-3.77-2.27-5.64-3.34-10.26-5.94-20.48-11.09-30.51-16.47-.03-.02-.06-.03-.09-.05-16.79-9.02-33.05-18.65-48-33.63-5.54-5.55-8.29-13.49-6.79-21.18.68-3.54,2.15-6.87,4.39-9.62,2.18-2.69,6.97-6.93,9.59-9.18,6.78-5.84,13.48-11.54,20.48-17.38,3.65-3.03,7.38-6.1,11.24-9.24,10.94-8.89,22.99-18.33,37.32-29.15.05-.05.09-.09.15-.12,1.36,1.72,9.05,17.41,9.05,17.41-.41.45-.83.92-1.26,1.42-2.63,3.09-5.31,6.76-7.94,10.72-1.86,2.8-3.69,5.72-5.49,8.67-8.49,13.98-15.99,28.48-19.83,31.48-5.37,4.21-10.48,6.82-17.88,7.55,15.41,6.14,36.02,11.13,47.91,13.4,3.63.68,6.44,1.1,8.06,1.24,1.35.11,2.71.24,4.05.41,8.06.89,16.09,2.56,22.54,4.55,1.71.53,3.3,1.07,4.75,1.65.05.02.08.03.12.05h.02c.08.03.15.06.23.09-2.12,3.96-2.98,7.73-2.98,11.28Z"/>
            <g>
              <path class="cls-7" d="M99.45,77.34c.3-4.48,2.77-8.91,6.21-12.43,3.44-3.52,7.8-6.19,12.33-8.33,1.36-.64,2.78-1.25,4.25-1.43,1.22-.14,2.52.07,3.27.87.79.85.78,2.2.24,3.32-.53,1.12-1.5,2.06-2.53,2.87-4.26,3.4-9.97,5.48-12.9,9.88-1.34,2.01-1.94,4.3-2.57,6.53-.22.78-.45,1.56-.84,2.29-1.1,2.05-3.54,3.53-5.94,3.6l-1.51-7.19Z"/>
              <path class="cls-6" d="M135.49,77.93c-1.06.65-2.37.89-3.69,1.01-5.43.5-11.33-.89-16.2,1.16-2.07.89-3.74,2.33-5.37,3.75-1.6,7.99-5.05,23.72-17.99,22.51l-9.73-16.71c5.25-5.25,10.6-8.65,15.08-14.22,2.51-3.12,5.2-6.14,8.49-8.44,5.16-3.62,11.47-5.2,17.74-5.84,3.6-.36,7.37-.39,10.63,1.38,1.53.83,2.41,2.66,1.72,4.27-1.39,3.33-6.4,3.09-11.45,3.59-1.03.11-2.24.24-3.48.45,3.07-.14,6.2.09,9.27.51,1.5.21,3.01.48,4.33,1.15,1.1.54,2.07,1.44,2.27,2.53.18,1.13-.56,2.27-1.63,2.9Z"/>
              <path class="cls-6" d="M98.78,86.79c3.27-3.57,7.59-5.53,11.75-6,4.16-.47,8.19.44,11.93,1.92,1.13.44,2.25.96,3.1,1.88.7.77,1.21,1.89,1.02,3.12-.2,1.29-1.15,2.42-2.2,2.99s-2.18.65-3.26.59c-4.49-.22-8.77-2.61-13.29-1.03-2.07.73-3.96,2.23-5.83,3.65-.65.5-1.31.99-2.02,1.32-1.98.93-4.22.41-5.46-1.27l4.26-7.18Z"/>
            </g>
          </g>
          <path class="cls-6" d="M297.91,183.42c-14.95,14.98-31.21,24.61-48,33.63-10.06,5.4-20.32,10.56-30.6,16.52-1.88,1.07-3.77,2.19-5.64,3.34-.02,0-.03.02-.05.03-1.59.95-3.16,1.95-4.75,2.96-7.7-.32-15.23-3.66-20.65-9.14-.23-.21-.45-.45-.67-.68-4.87-5.25-7.81-12.24-8.18-19.38-.05-.86-.06-1.74-.03-2.6.11-3.55.85-7.08.85-10.63s-.86-7.32-2.98-11.28c.08-.03.15-.06.23-.09h.02s.08-.03.12-.05c1.38-.54,2.89-1.07,4.51-1.57,6.47-2.03,14.61-3.72,22.78-4.63,1.35-.17,2.71-.3,4.05-.41,6.93-.57,35.87-6.63,55.97-14.64-7.4-.73-12.51-3.34-17.88-7.55-4.66-3.63-14.66-24.13-25.32-40.15-2.63-3.96-5.31-7.64-7.94-10.72-.42-.5-.85-.97-1.26-1.42,0,0,7.68-15.69,9.05-17.41.05.03.09.06.12.11.05.03.08.06.12.09,0,.02.02.02.02.02,14.28,10.77,26.29,20.19,37.21,29.06,11.28,9.18,21.42,17.74,31.72,26.62,2.62,2.25,7.41,6.49,9.59,9.18,2.24,2.75,3.71,6.08,4.39,9.62,1.5,7.68-1.26,15.63-6.79,21.18Z"/>
          <path class="cls-7" d="M205.3,74.55c-1.31-4.3-4.72-8.05-8.86-10.69-4.15-2.64-9-4.26-13.89-5.32-1.47-.32-2.99-.59-4.46-.43-1.22.14-2.44.64-2.99,1.59-.58,1.01-.26,2.32.52,3.29.77.97,1.93,1.66,3.11,2.23,4.93,2.35,10.95,3.08,14.81,6.69,1.77,1.66,2.86,3.75,3.99,5.78.39.71.79,1.41,1.34,2.04,1.54,1.75,4.25,2.64,6.6,2.16l-.16-7.35Z"/>
          <path class="cls-6" d="M170.79,77.93c1.06.65,2.37.89,3.69,1.01,5.43.5,11.33-.89,16.2,1.16,2.07.89,3.74,2.33,5.37,3.75,1.6,7.99,5.05,23.72,17.99,22.51l9.73-16.71c-5.25-5.25-10.6-8.65-15.08-14.22-2.51-3.12-5.2-6.14-8.49-8.44-5.16-3.62-11.47-5.2-17.74-5.84-3.6-.36-7.37-.39-10.63,1.38-1.53.83-2.41,2.66-1.72,4.27,1.39,3.33,6.4,3.09,11.45,3.59,1.03.11,2.24.24,3.48.45-3.07-.14-6.2.09-9.27.51-1.5.21-3.01.48-4.33,1.15-1.1.54-2.07,1.44-2.27,2.53-.18,1.13.56,2.27,1.63,2.9Z"/>
          <path class="cls-6" d="M207.5,86.79c-3.27-3.57-7.59-5.53-11.75-6-4.16-.47-8.19.44-11.93,1.92-1.13.44-2.25.96-3.1,1.88-.7.77-1.21,1.89-1.02,3.12.2,1.29,1.15,2.42,2.2,2.99s2.18.65,3.26.59c4.49-.22,8.77-2.61,13.29-1.03,2.07.73,3.96,2.23,5.83,3.65.65.5,1.31.99,2.02,1.32,1.98.93,4.22.41,5.46-1.27l-4.26-7.18Z"/>
          <g>
            <g>
              <g>
                <path class="cls-9" d="M105.7,95.65c0,14.75-.11,18.85-1.59,26.62-2.01,10.56-5.26,20.93-.94,31.25,1.07,2.56,2.78,5.17,6.24,6.92,5.08,2.57,12.57,2.69,19.38,2.67,16.89-.05,33.79-.11,50.68-.16,7.47-.02,15.43-.13,21.62-2.51,7.4-2.85,10.35-8.25,11.09-13.31,1.25-8.61-2.4-17.18-4.98-25.69-2.61-8.61-4.13-17.33-4.56-26.07-.18-3.72-89.08-5.98-96.93.29Z"/>
                <path class="cls-3" d="M106.52,102.27c.73,4.72.2,9.64-1.51,14.1-1.34,3.5-3.37,6.69-4.78,10.15-1.59,3.88-2.37,8.09-2.3,12.29.09,5.57,2.29,11.78,7.44,13.91"/>
              </g>
              <g>
                <polygon class="cls-6" points="137.78 135.37 166.71 135.37 169.68 188.55 137.78 188.28 137.78 135.37"/>
                <polygon class="cls-6" points="166.71 135.37 166.71 161.03 137.78 152.45 137.78 135.37 166.71 135.37"/>
              </g>
              <path class="cls-9" d="M105.34,93.56l.35,11.03c.79,24.86,23.09,44.33,49.8,43.48,13.37-.43,25.3-5.84,33.8-14.27,17.18-17.04,13.43-36.97,12.8-43.32-2.33-23.65-23.09-44.32-49.82-43.46-13.37.43-25.3,5.84-33.78,14.27-6.34,6.29-10.76,14.23-12.43,23.02-.58,3-.83,6.1-.73,9.25Z"/>
              <path class="cls-6" d="M110.4,99.28c-.48,2.67-.68,5.43-.58,8.25l.18,5.47.13,4.38c.37,11.71,5.73,22.1,13.96,29.17,7.35,6.34,17.01,10.05,27.48,9.71,6.65-.22,12.86-2.02,18.29-5.08,3.63-2,6.91-4.58,9.74-7.59,3.95-4.22,7.01-9.28,8.85-14.9.95-2.89,1.6-5.93,1.86-9.05.09-1,.14-2.01.15-3.03.01-.6.01-1.2,0-1.81l-.23-7.27-.08-2.58c-.71-22.18-19.25-39.58-41.45-38.87-11.1.35-20.99,5.16-28.02,12.66-5.26,5.59-8.91,12.67-10.28,20.52Z"/>
              <path class="cls-9" d="M197.26,106.03c-14.23,4.11-30.21,3.07-43.09-5.05-12.87-8.11-21.92-23.87-20.46-39.77,18.41-5.32,56.69-5.35,63.54,44.81Z"/>
              <g>
                <path class="cls-9" d="M131.06,111.24c-.05-1.63-1.42-2.92-3.05-2.86-1.63.05-2.92,1.42-2.86,3.05.05,1.63,1.42,2.92,3.05,2.86,1.63-.05,2.91-1.42,2.86-3.05Z"/>
                <path class="cls-9" d="M163.05,110.28c-.05-1.63-1.42-2.92-3.05-2.86-1.63.05-2.92,1.42-2.86,3.05.05,1.63,1.42,2.92,3.05,2.86,1.63-.05,2.91-1.42,2.86-3.05Z"/>
              </g>
              <path class="cls-9" d="M123.95,102.02c2.2-.59,4.6-.83,7.2-1.37,1.03-.21,2.19-.72,2.38-1.74.1-.56-.13-1.14-.49-1.58-.97-1.2-2.7-1.49-4.24-1.38-2.19.15-4.5.74-6.09,2.25-2.74,2.6-.23,4.22,1.23,3.83Z"/>
              <path class="cls-1" d="M143.82,105.77c-.61,2.87-1.27,5.85-3.17,8.09-1.22,1.44-2.97,2.62-3.37,4.47-.37,1.72.67,3.57,2.22,4.47,1.55.9,3.5.94,5.19.4.67-.21,1.33-.52,2.05-.53"/>
              <path class="cls-2" d="M132.13,132.13c.79-.43,1.6-.87,2.48-1.06.88-.19,1.87-.09,2.58.47,1.08.85,1.35,2.59,2.62,3.11,1.01.41,2.11-.15,3.16-.43,2.44-.65,5.24.45,6.59,2.58"/>
              <g>
                <path class="cls-6" d="M181.53,118.75c.15,4.54,2.98,8.35,6.93,9.95,1.39.59,2.94.87,4.55.83,2.89-.1,5.49-1.28,7.41-3.16,2.15-2.1,3.44-5.06,3.34-8.31-.19-6.15-5.33-10.97-11.47-10.77-.72.03-1.41.12-2.07.26-3.38.75-6.16,3.05-7.61,6.07-.75,1.55-1.15,3.3-1.08,5.14Z"/>
                <g>
                  <path class="cls-1" d="M198.9,112.02c-5.46,2.45-9.64,7.56-10.97,13.4"/>
                  <path class="cls-1" d="M198.06,117.94c-2.34-.77-5.01-.49-7.14.74"/>
                </g>
              </g>
              <path class="cls-8" d="M187.32,127.02c.24,6.18-4.58,11.39-10.76,11.63-6.18.24-11.39-4.58-11.63-10.76-.24-6.18,4.58-11.39,10.76-11.63,6.18-.24,11.39,4.58,11.63,10.76Z"/>
              <path class="cls-8" d="M134.91,127.02c.24,6.18-4.58,11.39-10.76,11.63-6.18.24-11.39-4.58-11.63-10.76-.24-6.18,4.58-11.39,10.76-11.63,6.18-.24,11.39,4.58,11.63,10.76Z"/>
            </g>
            <path class="cls-4" d="M307.02,163.68c-1.21-12.12-11.36-21.13-20.86-28.74-2.9-2.33-5.81-4.64-8.73-6.94-3.1-2.45-6.22-4.89-9.33-7.32-1.48-1.15-2.96-2.3-4.46-3.45-5.87-4.54-11.77-9.03-17.7-13.48-3.71-2.8-7.44-5.57-11.18-8.32-2.53-1.86-5.05-3.72-7.59-5.57-.09,0-3.31,4.9-6.55,9.86-3.31,5.05-6.64,10.18-6.64,10.18.51.61,1.01,1.21,1.5,1.82,2.6,3.18,5.04,6.47,7.32,9.88,3.78,5.64,7.14,11.59,10.01,17.74,1.16,2.5,2.3,5.08,3.51,7.62,1.48,3.12,3.07,6.17,4.96,8.91,2.45,3.55,5.39,6.6,9.23,8.59-10.6,3.07-21.12,6.37-31.74,9.3-3.71,1.01-7.46,2.01-11.27,2.51h-.02c-1.51.2-3.01.33-4.54.35-1.69.03-3.39-.08-5.07-.27-7.34-.8-14.6-3.22-21.87-3.72-2.28-.17-4.57-.14-6.85.18-.05.15-.86.91-2.12,2.04-3.37,3.04-9.95,8.68-13.46,11.69-.11-.09-.23-.2-.35-.29-.03-.02-.06-.06-.12-.11-3.65-3.12-9.91-8.5-13.11-11.39-1.2-1.07-1.97-1.82-2.01-1.95-2.51-.35-5.02-.35-7.53-.14-8.73.74-17.43,4.08-26.27,3.95-5.37-.08-10.63-1.44-15.82-2.86-10.6-2.93-21.12-6.23-31.74-9.3,9.27-4.83,13.3-15.66,17.71-25.13,4.93-10.59,11.28-20.51,18.82-29.44,0,0-3.37-5.19-6.69-10.29-3.22-4.93-6.4-9.76-6.49-9.76-14.29,10.41-28.41,21.06-42.35,31.92-1.8,1.41-3.6,2.81-5.39,4.25-3.77,2.93-7.52,5.91-11.25,8.91-2.53,2.03-5.1,4.16-7.55,6.43-6.73,6.2-12.43,13.42-13.31,22.31-1.1,11.12,5.99,21.66,14.6,28.91,1.44,1.27,2.89,2.53,4.36,3.77,1.59,1.35,3.21,2.66,4.83,3.95,2.92,2.34,5.88,4.61,8.89,6.85h.02c1.45,1.09,2.9,2.15,4.39,3.19,15.9,11.41,32.82,21.46,49.66,31.48l8.21,55.5,3.37,1.88c.27.17.56.32.85.45.76.39,1.51.79,2.3,1.16v.02c.53.26,1.06.51,1.6.77.05.03.14.06.2.08.3.15.61.3.89.44.11.05.21.09.3.14.21.11.45.2.68.32.5.23,1.01.45,1.53.67.27.12.53.24.82.36.57.24,1.16.48,1.75.71.26.12.51.23.79.33.56.21,1.13.45,1.71.65.27.11.54.21.83.33.73.26,1.44.51,2.16.77.05.02.09.03.15.05.71.26,1.44.5,2.16.73l.77.24c.59.2,1.18.38,1.78.56.3.09.64.2.94.27.7.2,1.39.41,2.09.59.05.02.08.02.14.03.77.23,1.56.42,2.36.62.17.03.35.09.51.12.79.2,1.59.38,2.41.56,1.13.26,2.27.48,3.42.68.67.14,1.33.26,2.01.38.08.02.14.02.23.03.83.15,1.65.27,2.5.39.8.12,1.6.24,2.41.33.54.08,1.09.14,1.65.2.54.06,1.09.12,1.63.17.94.09,1.89.18,2.84.24,2.13.17,4.28.26,6.44.3.61.02,1.23.02,1.85.02,1.19,0,2.39-.02,3.59-.05,1.09-.03,2.16-.08,3.24-.14,1.07-.05,2.15-.12,3.21-.21,13.87-1.13,27.06-4.69,39.15-10.24,1.3-.61,2.59-1.21,3.84-1.86.54-.27,1.09-.56,1.63-.85,1.45-.76,2.89-1.54,4.31-2.37l5.82-39.47,1.21-8.15,1.15-7.74c16.75-9.95,33.57-19.95,49.39-31.28,4.28-3.06,8.49-6.2,12.6-9.48,3.45-2.71,6.84-5.54,10.15-8.47,8.61-7.25,15.7-17.79,14.6-28.91Z"/>
            <g>
              <path class="cls-11" d="M138.73,172.28s14.88,14.28,14.84,14.37c-1.05,2.27-2.65,4.33-4.75,5.68-2.11,1.35-4.74,1.94-7.17,1.35-3.9-.94-6.53-4.59-8.17-8.26-1.86-4.17-2.6-9.34-3.05-12.88,4.13-.66,8.3-.27,8.3-.27Z"/>
              <path class="cls-11" d="M167.72,172.28s-14.88,14.28-14.84,14.37c1.05,2.27,2.65,4.33,4.75,5.68,2.11,1.35,4.74,1.94,7.17,1.35,3.9-.94,6.53-4.59,8.17-8.26,1.86-4.17,2.6-9.34,3.05-12.88-4.13-.66-8.3-.27-8.3-.27Z"/>
            </g>
          </g>
          <path class="cls-11" d="M148.49,225.55c-.62.91-1.75,1.36-2.85,1.43-1.11.07-2.2-.2-3.27-.47-.18-.04-.37-.1-.54-.14,1.21.57,2.38,1.26,3.17,2.32.91,1.22,1.2,3.03.29,4.24-.67.9-1.82,1.3-2.92,1.32-1.1.03-2.19-.29-3.25-.6-2.89-.86-5.79-1.71-8.75-2.3,1.28.73,2.51,1.56,3.68,2.47,1.21.92,2.39,1.98,2.99,3.38s.45,3.22-.72,4.18c-.86.71-2.08.83-3.15.6-1.07-.25-2.05-.8-3.02-1.36-2.62-1.54-5.27-3.08-8.04-4.36-.77.71-1.66,1.29-2.39,2.02-2.51,2.57-2.72,6.53-3.68,10-1.37,4.94-4.52,9.29-8.53,12.51-2.57,2.08-5.47,3.7-8.35,5.31-.5.29-1.01.56-1.51.84-7.68,5.15-16.33,9.27-24.06,14.48-.72-.67-1.44-1.34-2.15-2.04-6.37-6.74-12.06-14.07-16.95-21.26-.87-1.28-1.71-2.58-2.54-3.89-2.49-3.97-4.77-8.06-6.83-12.25.33.22.68.39,1.05.56,1.96.87,4.14,1.09,6.29,1.13,9.2.19,18.43-2.65,25.93-7.99,7.49-5.34,13.11-12.92,20.2-18.75.87-.71,1.75-1.4,2.68-2.05,10.76-7.63,25.15-9.92,37.75-5.98,2.26.71,6.21,2.58,5.38,5.39-.57,1.92-2.17,2.89-4.14,3.27,1.36.34,2.7.79,4.01,1.3,1.41.56,2.84,1.25,3.8,2.42.95,1.18,1.3,2.98.45,4.24Z"/>
          <g class="blink">
            <polygon class="cls-10" points="211.47 59.19 215.01 44.5 234.49 43.82 234.58 25.4 255.37 25.77 238.94 29.92 241.8 49.84 217.92 48.36 211.47 59.19"/>
            <polygon class="cls-10" points="117.5 50.99 102.49 49.33 99.36 30.09 81.08 32.32 78.83 11.64 85.01 27.42 104.41 22.08 105.95 45.96 117.5 50.99"/>
            <polygon class="cls-10" points="199.38 0 190.04 10.18 198.48 25.55 184.78 34.97 194.6 50.81 190.15 36.03 206.32 28.13 194.26 10.47 199.38 0"/>
          </g>
        </g>
      </g>
    </g>
  </g>
</svg>