<?xml version="1.0" encoding="UTF-8"?>
<svg id="_圖層_2" data-name="圖層 2" xmlns="http://www.w3.org/2000/svg" viewBox="0 0 120.49 140.43">
  <defs>
    <style>
      .cls-1 {
        fill: #fff;
      }

      .cls-2 {
        fill: #5e5748;
      }

      .cls-3 {
        fill: #e8f6f9;
      }

      .cls-4 {
        fill: #f2fbfc;
      }

      .cls-5 {
        fill: #3e86c7;
      }

      .cls-6 {
        fill: #3377a0;
      }

      .cls-7 {
        fill: #feffff;
      }
    </style>
  </defs>
  <g id="_圖層_1-2" data-name="圖層 1">
    <g>
      <g>
        <circle class="cls-3" cx="73.27" cy="69.55" r="31.3" transform="translate(-14.49 19.51) rotate(-13.81)"/>
        <path class="cls-4" d="M93.86,66.14c.84,6.82-3.79,10.66-10.34,8.58-6.55-2.08-12.53-9.3-13.37-16.12-.84-6.82,3.79-10.66,10.34-8.58,6.55,2.08,12.53,9.3,13.37,16.12Z"/>
        <rect class="cls-1" x="35.08" y="103.19" width="28.96" height="11.06" transform="translate(-69.11 94.82) rotate(-58.81)"/>
        <path class="cls-2" d="M31.05,139.31h0c-3.68-2.23-4.86-7.02-2.63-10.7l12.63-20.87,13.33,8.07-12.63,20.87c-2.23,3.68-7.02,4.86-10.7,2.63Z"/>
        <path class="cls-6" d="M36.99,79.89c-2.22-9.04-1-18.92,4.19-27.5,10.38-17.14,32.77-22.65,49.92-12.27,17.15,10.38,22.65,32.77,12.27,49.92h0c-10.38,17.15-32.77,22.65-49.92,12.27-8.57-5.19-14.24-13.38-16.46-22.42ZM97.76,64.95c-1.61-6.53-5.7-12.45-11.89-16.2-12.39-7.5-28.57-3.52-36.07,8.87-7.5,12.39-3.52,28.57,8.87,36.07,12.39,7.5,28.57,3.52,36.07-8.87h0c3.75-6.19,4.63-13.34,3.02-19.87Z"/>
        <path class="cls-5" d="M38.66,77.11c-2.22-9.04-1-18.92,4.19-27.5,10.38-17.14,32.77-22.65,49.92-12.27,17.15,10.38,22.65,32.77,12.27,49.92h0c-10.38,17.15-32.77,22.65-49.92,12.27-8.57-5.19-14.24-13.38-16.46-22.42ZM99.43,62.17c-1.61-6.53-5.7-12.45-11.89-16.2-12.39-7.5-28.57-3.52-36.07,8.87-7.5,12.39-3.52,28.57,8.87,36.07,12.39,7.5,28.57,3.52,36.07-8.87h0c3.75-6.19,4.63-13.34,3.02-19.87Z"/>
      </g>
      <path class="cls-7" d="M112.94,16.28l6.58-2.89c1.28-.56,1.28-2.38,0-2.95l-6.58-2.89-2.89-6.58c-.56-1.28-2.38-1.28-2.95,0l-2.89,6.58-6.58,2.89c-1.28.56-1.28,2.38,0,2.95l6.58,2.89,2.89,6.58c.56,1.28,2.38,1.28,2.95,0l2.89-6.58Z"/>
      <path class="cls-7" d="M11.15,62.98l4.51-1.98c.88-.39.88-1.63,0-2.02l-4.51-1.98-1.98-4.51c-.39-.88-1.63-.88-2.02,0l-1.98,4.51-4.51,1.98c-.88.39-.88,1.63,0,2.02l4.51,1.98,1.98,4.51c.39.88,1.63.88,2.02,0l1.98-4.51Z"/>
    </g>
  </g>
</svg>