<?xml version="1.0" encoding="UTF-8"?>
<svg id="_圖層_2" data-name="圖層 2" xmlns="http://www.w3.org/2000/svg" viewBox="0 0 146.88 150.37">
  <defs>
    <style>
      .cls-1 {
        fill: #ff554d;
      }

      .cls-2 {
        fill: #fffbf2;
      }

      .cls-3 {
        fill: #fff;
      }

      .cls-4 {
        fill: #e3423a;
      }

      .cls-5 {
        fill: #decdc1;
      }

      .cls-6 {
        fill: #e7dcd2;
      }

      .cls-7 {
        fill: #ad8772;
      }
      .blink{animation:blink-1 4s both infinite -1s}
      @keyframes blink-1{0%,50%,100%{opacity:1}25%,75%{opacity:0}}
    </style>
  </defs>
  <g id="_圖層_1-2" data-name="圖層 1">
    <g>
      <g>
        <g>
          <path class="cls-5" d="M32.49,75.59l-15.08-45.11,12.17,2.48,36.28,108.55c.38,1.14.25,2.05-.27,2.57h0s-5.16,5.8-5.16,5.8l-2.99-4.72.09-2.04c-1.61-.61-24.45-65.75-25.04-67.52Z"/>
          <path class="cls-7" d="M52.9,149.14l5.71,1.16c1.78.36,2.69-.96,2.02-2.95L24.36,38.81l-12.17-2.48,36.28,108.55c.67,1.99,2.65,3.9,4.43,4.27Z"/>
        </g>
        <g>
          <g>
            <path class="cls-6" d="M12.85,37.77l6.18-28.86-7.21-1.45h0c-2.13-.41-4.55.58-6.75,3.07C.64,15.53-1.24,24.68.86,30.97c1.06,3.16,2.92,4.99,5.07,5.41h0s6.92,1.39,6.92,1.39Z"/>
            <path class="cls-2" d="M8.39,32.49c-2.1-6.29-.22-15.44,4.2-20.44,4.42-5,9.72-3.95,11.82,2.34,2.1,6.29.22,15.44-4.2,20.44-4.42,5-9.72,3.95-11.82-2.34Z"/>
          </g>
          <g>
            <path class="cls-1" d="M25.49,40.36l5.89-28.92-12.44-2.53h0c-2.13-.41-4.55.58-6.75,3.07-4.42,5-6.31,14.15-4.2,20.44,1.06,3.16,2.92,4.99,5.07,5.41h0s12.44,2.54,12.44,2.54Z"/>
            <path class="cls-2" d="M21.03,35.07c-2.1-6.29-.22-15.44,4.2-20.44,4.43-5,9.72-3.95,11.82,2.34s.22,15.44-4.2,20.44c-4.42,5-9.72,3.95-11.82-2.34Z"/>
          </g>
          <path class="cls-6" d="M21.03,35.07c-2.1-6.29-.22-15.44,4.2-20.44,2.29-2.59,4.81-3.54,7.01-3h0s30.32-1.89,30.32-1.89L93.26.56l-16.61,73.07-18.01-15.85-33.15-17.42v-.04c-1.88-.62-3.5-2.38-4.46-5.24Z"/>
          <path class="cls-2" d="M70.47,63.14c-5.63-16.83-.59-41.32,11.25-54.69,11.84-13.37,25.99-10.57,31.62,6.26,5.63,16.83.59,41.32-11.25,54.69-11.84,13.37-26,10.57-31.62-6.26Z"/>
          <path class="cls-5" d="M72.21,61.17c-5.17-15.47-.54-37.96,10.33-50.25,10.88-12.29,23.89-9.71,29.06,5.76,5.17,15.47.54,37.96-10.33,50.25-10.88,12.29-23.89,9.71-29.06-5.76Z"/>
          <g>
            <path class="cls-1" d="M70.37,52.37l20.31,3.99,6.41-31.42-21.01-4.12c-4.64,9.53-6.79,21.25-5.71,31.56Z"/>
            <path class="cls-2" d="M85.84,50.61c-2.29-6.84-.24-16.78,4.57-22.21,4.81-5.43,10.56-4.29,12.84,2.54,2.29,6.84.24,16.78-4.57,22.21-4.81,5.43-10.56,4.29-12.84-2.54Z"/>
            <path class="cls-4" d="M89.58,48.37c-1.71-5.1-.18-12.53,3.41-16.58,3.59-4.05,7.88-3.2,9.59,1.9,1.71,5.1.18,12.53-3.41,16.58-3.59,4.05-7.88,3.2-9.59-1.9Z"/>
          </g>
        </g>
      </g>
      <g>
        <path class="cls-3 blink" d="M142.83,26.41h0c-.32-.89-1.34-1.35-2.29-1.01l-12.24,4.33c-.95.34-1.46,1.33-1.14,2.23h0c.32.89,1.34,1.35,2.29,1.01l12.24-4.33c.95-.34,1.46-1.33,1.14-2.23Z"/>
        <path class="cls-3 blink" d="M131.38,67.74h0c.71-.69.73-1.79.03-2.44l-9.03-8.47c-.7-.66-1.85-.63-2.56.07h0c-.71.69-.73,1.79-.03,2.44l9.03,8.47c.7.66,1.85.63,2.56-.07Z"/>
        <path class="cls-3 blink" d="M146.81,49.9h0c.29-.92-.25-1.87-1.21-2.11l-12.35-3.14c-.96-.24-1.97.31-2.26,1.23h0c-.29.92.25,1.87,1.21,2.11l12.35,3.14c.96.24,1.97-.31,2.26-1.23Z"/>
      </g>
    </g>
  </g>
</svg>