<?xml version="1.0" encoding="UTF-8"?>
<svg id="_圖層_1" xmlns="http://www.w3.org/2000/svg" xmlns:xlink="http://www.w3.org/1999/xlink" version="1.1" viewBox="0 0 240 240">
  <!-- Generator: Adobe Illustrator 29.6.1, SVG Export Plug-In . SVG Version: 2.1.1 Build 9)  -->
  <defs>
    <style>
      .st0 {
        fill: none;
      }

      .st1 {
        fill: #d8d0ab;
      }

      .st2 {
        mix-blend-mode: soft-light;
        opacity: .5;
      }

      .st2, .st3 {
        isolation: isolate;
      }

      .st2, .st4 {
        fill: #0f0f0f;
      }

      .st5 {
        fill: #fff;
      }

      .st6 {
        fill: #fffaf7;
      }

      .st7 {
        mix-blend-mode: overlay;
      }

      .st8 {
        fill: #fdd2c1;
      }

      .st9 {
        fill: #5e5748;
      }

      .st10 {
        clip-path: url(#clippath);
      }

      .st11 {
        fill: #ff676c;
      }

      .st12 {
        fill: #efe8ca;
      }
      .blink{animation:blink-1 3s both infinite -1s}
      @keyframes blink-1{0%,50%,100%{opacity:1}25%,75%{opacity:0}}
    </style>
    <clipPath id="clippath">
      <rect class="st0" x="3" width="237" height="240"/>
    </clipPath>
  </defs>
  <g class="st3">
    <g id="_圖層_2">
      <g id="_圖層_1-2">
        <g class="st10">
          <g>
            <g class="st7">
              <path class="st4" d="M57.9,580.6c45.4,1.3,90.8,2.5,136.3,3.8,28.8.8,58.3,1.5,85.8-7.4,0-3.3-4.3-4.4-7.6-4.5-63.4-1.6-127.2,10.4-190.1,2.4-9.2-1.2-19.4-2.6-27,2.7"/>
            </g>
            <g>
              <path class="st9" d="M160.3,41.2l-11,2.2v29.7c13.5-13.8,11-31.8,11-31.9Z"/>
              <path class="st8" d="M101.9,40.4c2.1-13.4,15.4-35.7,39.1-22,7.4,4.3,10.6,12.2,12.1,20.4,1.1,5.7-1,58.7-1,58.7-1.6,20.8-34.1,23.9-36.2-.2l.6-15c-17.1-5.5-17-27-14.7-42h0Z"/>
              <path class="st2" d="M116.6,82.4s9.7,3.2,27.9-8.1c0,0-9.9,14.8-28.5,20.9l.6-12.8Z"/>
              <path class="st8" d="M165.4,47.4c-.6-5.1-5.3-8.8-10.5-8.2s-8.9,5.2-8.3,10.3c.6,5.1,5.3,8.8,10.5,8.2s8.9-5.2,8.3-10.3Z"/>
              <path class="st9" d="M157.7,44.4c-3.9,1-4.7,1.4-5.7,5.4-1.9-4,1.8-7.3,5.7-5.4h0Z"/>
              <g>
                <path class="st9" d="M128.8,37.9c-.5.7-1.9.5-3.1-.3-1.2-.9-1.8-2.1-1.3-2.8s1.9-.5,3.1.3c1.2.9,1.8,2.1,1.3,2.8Z"/>
                <path class="st9" d="M111.6,34.1c.5.7,0,1.9-1.3,2.8-1.2.9-2.6,1-3.1.3s0-1.9,1.3-2.8c1.2-.9,2.6-1,3.1-.3Z"/>
                <path class="st2" d="M145.4,58.8c0,5.4-4.4,9.8-9.8,9.8s-9.8-4.4-9.8-9.8,4.4-9.8,9.8-9.8,9.8,4.4,9.8,9.8Z"/>
                <path class="st5" d="M123,55.5c-1.8,5.7-6.5,7.4-8.9.2l8.9-.2Z"/>
                <path class="st9" d="M108.9,44c0,1,.4,1.9.9,1.9s1.1-.8,1.2-1.8-.4-1.9-.9-1.9-1.1.8-1.2,1.8Z"/>
                <path class="st9" d="M124,44.6c0,1,.4,1.9.9,1.9s1.1-.8,1.2-1.8c0-1-.4-1.9-.9-1.9s-1.1.8-1.2,1.8Z"/>
                <path class="st2" d="M101.1,46.4c-.6,6.4-.6,13.5,1.1,19.6,4.9-.5,8.8-4.7,8.8-9.8s-4.4-9.8-9.8-9.8h0Z"/>
                <path class="st9" d="M116.7,43.1c-.6,2.8-1.8,5.2-3.3,7.6l-.4-1c1.7.6,3.4,1.3,5.1,2.2-1.9,0-3.7-.5-5.5-.8l-.8-.2c1.2-2.8,2.6-5.6,4.8-7.8h.1Z"/>
              </g>
              <path class="st9" d="M133.7,15.3s-18.9,16.8-29.3,13c0,0,8.8-23.8,30.7-16.8,1.6.5,3.2,1,4.9,1.3,6,1.3,21.3,6.7,20.3,27.4,0,0-3.7-2.1-7.4-.4-1.3.6-5,2.9-5,2.9,0,0-13.9-9.9-14.2-27.4Z"/>
              <path class="st1" d="M96.1,206.6l81-5.5s21.2,67.8,21.8,121.4c.8,64.6,4.6,115.7,25.4,204.6,0,0-21.1,3.8-40.6,5.2,0,0-46.5-94.9-45.7-214.3,0,0-18.4,79.9-21.8,216.6,0,0-22,.9-39.7,2.1,0,0-19.8-185.2,19.6-330h0Z"/>
              <path class="st9" d="M135.7,285.6c.7,0,1.7,7.1,2.4,16.1.7,8.9.7,16.2,0,16.3-.7,0-1.7-7.1-2.4-16.1-.7-8.9-.7-16.2,0-16.3Z"/>
              <path class="st9" d="M93.4,559.3s-27.5,9.8-25.6,15.2,45.7-2.4,45.7-2.4l-2.4-14-17.8,1.2h0Z"/>
              <path class="st8" d="M87,536.1l4.9,23.6s-4,3.7-2.1,5.6,21.8-4,21.8-4l-1.2-26.3-23.5,1.2h0Z"/>
              <path class="st9" d="M206.9,556.4s-25.6,14-22.9,19,45.8-10.6,45.8-10.6l-4.6-13.5-18.4,5h0Z"/>
              <path class="st8" d="M194.4,531.3l11.1,25.7s-3.4,4.2-1.2,5.8,21.9-8.5,21.9-8.5l-6.8-26.2-25,3.1h0Z"/>
              <path class="st12" d="M115,95.3l12.3,4.4,6,1.7,5.8-2.2s11.1-5.5,13.8-6.4c0,0,22.4,22.7,26.1,32.4,7.6,19.5,23.4,90,2.5,88.3-43.9-3.5-76.2,6.6-86.6,3.1-19-6.3-1.1-65.8,3.2-84.6,2.3-9.9,16.8-36.8,16.8-36.8h0Z"/>
              <path class="st9" d="M141.2,185.6l-4.1-71c2.9-2.9,3.6-13.9,3.6-13.9l-12.3,1.4s-1,10.9,1.6,12.9l-8.7,70.5c-.4,3.1.7,6.1,3,8.2h0c3.7,3.6,9.5,3.5,13.2.1.3-.2.5-.5.8-.8,2-2,3.1-4.7,2.9-7.5h-.1Z"/>
              <path class="st1" d="M136.7,114.8s.1,0,.2,0c0,0,0,.3-.1.4-.2.2-.4.3-.7.5-.6.3-1.4.6-2.4.7-2,.2-3.4-.5-3.3-1,0-.4,1.5-.5,3.2-.6.8,0,1.6,0,2.2-.2h.7s.2,0,.3,0h0Z"/>
              <polygon class="st6" points="133.3 101.4 127 112.8 107.4 98.1 114.5 93.3 133.3 101.4"/>
              <polygon class="st6" points="133.3 101.4 141.7 112 160.2 97.5 153.1 92.7 133.3 101.4"/>
              <path class="st6" d="M113.2,205.2c3.6-33.5,5.3-66.3,2.1-101.1l-6.4-4.8h0c-6.5,1.6-12.3,7.7-16.7,12.7-20.3,23-35.5,50.4-44.4,79.8-1.5,5.1-2.9,10.3-2.9,15.6s.5,6.3,2.3,8.7c3.5,4.6,10.3,4.6,16,4,5.6-.6,11.1-1.5,16.6-2.6-.3,4.7-.8,9.4-1.4,14.1-.3,2.3-.5,4.6-.8,6.9l-.6.8-16,132.1,30.5-1.8c3.9-22.5,7.7-45,11.6-67.5,1.8-10.4,3.6-20.8,5-31.2,2.9-20.6,4.4-41.3,4.8-62.1.2,0,.3-.1.5-.2v-3.4h-.2Z"/>
              <path class="st6" d="M212.8,174.7c-11.2-29.4-27.3-58.6-52.7-77.1l-7.4,5.8s-.3,9.6-.2,15.1c0,7.3.4,13.2.5,20.6.5,32.5,5,65,14.8,96,1.8,5.6,3.8,11.2,5,17,2.8,13,2,26.4,1.2,39.6-.6,9.7-2.6,63.8-3.1,73.4l18.4,4.4c1.1.4,2.1.8,3.2,1.1,6,1.7,12.1,3.1,18.3,4.1,3.5-24.5.9-49.4-2.2-74-3.8-29.7-8.4-59.2-13.7-88.7,3.1.6,6.1,1,9.2,1.1,3,.1,6.1,0,8.6-1.6s3.8-4.6,4.5-7.4c2.4-9.8-.9-20-4.5-29.5h0Z"/>
              <g>
                <path class="st9" d="M115,155.5c-.3,0-1.4-3.3-3.3-8.5-.9-2.6-2.1-5.8-3.6-9.2-.7-1.7-1.5-3.5-2.4-5.3-.2-.5-.4-.9-.7-1.5-.2-.6-.4-1.5,0-2.2.2-.7.6-1.3.8-1.7.3-.4.6-.9.8-1.4.6-.9,1.1-1.8,1.7-2.7.3-.4.6-.9.7-1.2v-.2h0c0,0-.6-.5-.9-.8-.4-.3-.8-.6-1.1-.9-.8-.6-1.5-1.2-2.2-1.7s-1.5-1.1-2.2-1.5c-.2,0-.4-.3-.7-.6s-.5-.7-.6-1.2c0-1.1.5-1.5.7-1.9,1.1-1.3,2.1-2.5,3-3.5,3.8-4.2,6.4-6.5,6.7-6.3.2.2-2,2.9-5.4,7.4-.8,1.1-1.8,2.4-2.7,3.7,0,.2-.2.3-.2.4h-.2,0c0,0,0,0,0,0,0,0,.2,0,.3.2.8.5,1.5,1,2.3,1.5s1.6,1.1,2.4,1.7c.4.3.8.6,1.2.9.4.3.8.6,1.3,1.2.2.3.5.8.5,1.4s0,1-.3,1.3c-.3.6-.6,1-.8,1.5-.6.9-1.1,1.8-1.7,2.7-.5.9-1.3,1.9-1.4,2.5v.8c0,.4.4.8.6,1.3.8,1.9,1.6,3.7,2.3,5.4,1.3,3.5,2.4,6.8,3.1,9.5,1.5,5.5,1.9,9,1.6,9.1h0l.4-.2Z"/>
                <path class="st9" d="M153.9,148.8c-.5-.3,5-11.3,12.7-25.1l.2,1.4c-.6-.6-1.4-1.2-2.2-1.8-1.5-1-3.2-1.8-4.8-2.3l-2-.6,1.5-1.4c2.8-2.6,5.4-5.1,7.7-7.2v1.4c-5.7-7.1-8.6-12.3-8.2-12.6.4-.3,3.9,4.5,9.7,11.2l.6.7-.7.7c-2.2,2.2-4.8,4.7-7.5,7.4l-.5-2c1.9.6,3.8,1.4,5.5,2.6.9.6,1.7,1.3,2.5,2l.7.6-.4.8c-7.8,13.8-14.3,24.3-14.8,24h0v.2Z"/>
              </g>
              <g>
                <path class="st9" d="M179.8,175.9c-.7,0-1.6-6.2-2.1-13.9s-.4-14,.3-14.1c.7,0,1.6,6.2,2.1,13.9.5,7.8.4,14.1-.3,14.1h0Z"/>
                <path class="st9" d="M195.9,177.1c-.2.7-3.7.1-8,0-4.3-.2-7.9,0-8-.8-.1-.6,3.5-1.9,8.1-1.6,4.6.2,8.1,1.9,7.9,2.5h0Z"/>
                <path class="st8" d="M160.6,169.8c2.3-.6,4.6-1.1,6.9-1.6,3.2-.6,6.4-1,9.6-.2,3.1.8,6.4,3.4,7.2,6.5,0,.3-19.6,6.4-19.7,6.1-1.2-3.7-2.4-7.4-3.6-11.1"/>
                <path class="st9" d="M105,174c0,.7-4.9,1.5-10.9,2.6-6,1-10.9,1.9-11.1,1.2-.2-.6,4.5-2.6,10.7-3.6,6.1-1.1,11.2-.8,11.3-.2h0Z"/>
                <path class="st8" d="M123.7,172.6l-.3-1.3c-2.4-1-4.9-2-7.3-3-5.4-2.1-11.3-4.1-17-3.1-.2,4.3-.4,8.6-.8,12.9.3.1.7.1,1,.2,4.2.1,8.4.2,12.5,0,3.9-.1,7.8-.3,11.4-1.8,1.1-.5,2.3-1.2,2.5-2.4s-1.3-2.5-2.2-1.7l.2.2Z"/>
                <path class="st9" d="M98.5,175.3c-.7,0-1.4-8-1.6-18s.2-18,.9-18,1.4,8,1.6,18c.2,9.9-.2,18-.9,18h0Z"/>
                <path class="st6" d="M167.1,185.6c-2.8-5.7-5.3-11.5-7.3-17.5-.3-.9-.7-1.9-1.4-2.5-1.1-.9-2.7-.7-4.1-.4-18.2,3.2-36.3,6.5-54.4,9.7-5.9,1.1-11.9,2.1-17.5,4.4-1,.4-2.1.9-2.8,1.8-1,1.3-1.1,3-1.1,4.6,0,8.4.6,16.9,1.7,25.2,0,.6.2,1.2.6,1.6.5.4,1.2.4,1.9.3,30.2-3.2,60.8-10.6,85.6-28"/>
              </g>
            </g>
          </g>
        </g>
      </g>
    </g>
    <path class="st11" d="M1412.7,4055.4c.4,1.8,1.2,5.9,2.3,12.4,1.1,6.5,1.8,11,2,13.4.3,2.9.2,5-.2,6.2-.4,1.1-1.5,1.9-3.3,2.4-1.7.4-3.1.2-4-.6-.9-.9-2-2.7-3.1-5.4-.9-2.3-2.3-6.5-4.4-12.8-2-6.3-3.3-10.3-3.7-12.1-1.1-4.6.7-7.5,5.5-8.6,4.8-1.2,7.7.5,8.9,5.1h0ZM1424,4100.5c.5,2,.2,3.9-.8,5.7-1.2,1.8-2.7,3-4.8,3.5-2,.5-4,.2-5.8-.9-1.7-1.1-2.9-2.6-3.4-4.6s-.2-4,.8-5.8c1.2-1.8,2.8-2.9,4.8-3.4s4-.2,5.8.8c1.8,1.2,2.9,2.8,3.4,4.8h0Z"/>
    <path class="st11 blink" d="M60.3,29.4c.4,1.8,1.2,5.9,2.3,12.4s1.8,11,2,13.4c.3,2.9.2,5-.2,6.2-.4,1.1-1.5,1.9-3.3,2.4-1.7.4-3.1.2-4-.6-.9-.9-2-2.7-3.1-5.4-.9-2.3-2.3-6.5-4.4-12.8-2-6.3-3.3-10.3-3.7-12.1-1.1-4.6.7-7.5,5.5-8.6,4.8-1.2,7.7.5,8.9,5.1ZM71.6,74.5c.5,2,.2,3.9-.8,5.7-1.2,1.8-2.7,3-4.8,3.5-2,.5-4,.2-5.8-.9-1.7-1.1-2.9-2.6-3.4-4.6s-.2-4,.8-5.8c1.2-1.8,2.8-2.9,4.8-3.4s4-.2,5.8.8c1.8,1.2,2.9,2.8,3.4,4.8h0Z"/>
  </g>
</svg>