<?xml version="1.0" encoding="UTF-8"?>
<svg id="_圖層_2" data-name="圖層 2" xmlns="http://www.w3.org/2000/svg" viewBox="0 0 100.74 112.51">
  <defs>
    <style>
      .cls-1 {
        fill: #3e86c7;
      }

      .cls-2 {
        fill: #f47171;
      }
    </style>
  </defs>
  <g id="_圖層_1-2" data-name="圖層 1">
    <g>
      <path class="cls-1" d="M100.74,21.82l-12.46,9.64c-7.72-9.98-19.4-15.71-32.02-15.71s-23.89,5.54-31.63,15.21l-12.3-9.85C23.07,7.7,39.08,0,56.26,0s33.76,7.96,44.48,21.82Z"/>
      <path class="cls-2" d="M100.74,90.66c-10.71,13.89-26.93,21.85-44.49,21.85C25.24,112.51,0,87.28,0,56.26c0-12.75,4.38-25.23,12.33-35.15l12.29,9.85c-5.8,7.24-8.87,15.98-8.87,25.29,0,22.33,18.17,40.5,40.51,40.5,12.64,0,24.31-5.73,32.02-15.72l12.47,9.62Z"/>
    </g>
  </g>
</svg>