<?xml version="1.0" encoding="UTF-8"?>
<svg id="_圖層_2" data-name="圖層 2" xmlns="http://www.w3.org/2000/svg" viewBox="0 0 135.91 101.8">
  <defs>
    <style>
      .cls-1 {
        fill: #f9ec56;
      }

      .cls-2 {
        fill: #666;
      }

      .cls-3 {
        fill: #d0c046;
      }

      .cls-4 {
        fill: #cbcbcb;
      }

      .cls-5 {
        fill: #989898;
      }
    </style>
  </defs>
  <g id="_圖層_1-2" data-name="圖層 1">
    <g>
      <g>
        <g>
          <path class="cls-1" d="M.05,70.7s-2.67,16.77,47.5,16.15c0,0,61.02,1.32,88.36-22.63v14.97s-16.01,18.01-66.83,21.83c0,0-58.8,5.44-69.05-12.69l.03-17.64Z"/>
          <path class="cls-3" d="M.05,70.7s-.32-10.93,20.02-12.91c0,0,21.63-2.4,31.69-2.59,0,0,41.24.66,39.55-13.36l.05,16.65s.68,7.57-20.51,10.21c0,0-39.33,2.65-42.2,2.95,0,0-20.53,1.44-24.57,6.63,0,0-4.59-3.39-4.03-7.59Z"/>
          <path class="cls-1" d="M33.58,41.85l.26,14.57,30.05-1.67s11.95-5.17,18.52-3.42c0,0,13.28-4.27,7.48-12.13,0,0-3.78-7.85-31.18,1.58,0,0-24.5,10.36-25.13,1.07Z"/>
          <path class="cls-3" d="M41.64,45.66c1.53-.1,3.56-2.81,15.9-4.41,0,0,27.23-10.67,32.9-1.28,0,0,15.46.91,27.31-2.54,0,0,5.8-1.5,7.13-7.25V13.75s1.87,8.75-16.61,10.61c0,0-35,1.03-39.18,1.26,0,0-31.32,1.06-35.14,14.75,0,0-2.9,5.98,7.7,5.3Z"/>
          <path class="cls-1" d="M124.87,13.75S128.14-1.88,93.35.19C93.35.19,35.57,5.31.05,21.51v14.97s18.75-8.68,43.63-13.6c0,0,67.26-15.25,77.89-2.64,0,0,3.11-2.12,3.31-6.49Z"/>
        </g>
        <g>
          <g>
            <path class="cls-2" d="M3.9,28.27c.02.12-.07.23-.18.25l-1.3.19c-.12.02-.23-.06-.26-.18l-1.06-6.21c-.02-.12.07-.23.2-.25l1.38-.21c.13-.02.25.06.26.18l.95,6.23Z"/>
            <path class="cls-2" d="M6.34,25.05c.02.12-.07.23-.19.25l-.76.13c-.12.02-.24-.06-.26-.18l-.79-4.27c-.02-.12.06-.23.19-.25l.78-.13c.13-.02.25.06.27.18l.75,4.28Z"/>
            <path class="cls-2" d="M9.33,23.84c.03.12-.05.23-.18.26l-.75.17c-.12.03-.24-.05-.26-.17l-.91-4.25c-.02-.12.06-.23.18-.26l.77-.17c.12-.03.25.05.27.17l.88,4.26Z"/>
            <path class="cls-2" d="M12.37,22.71c.03.12-.05.24-.17.27l-.75.17c-.12.03-.24-.04-.27-.16l-.98-4.23c-.03-.12.05-.24.18-.27l.77-.18c.12-.03.25.05.27.16l.95,4.24Z"/>
            <path class="cls-2" d="M15.31,21.65c.03.12-.05.24-.17.26l-.75.17c-.12.03-.25-.04-.27-.16l-1.01-4.23c-.03-.12.05-.24.18-.26l.76-.17c.12-.03.25.04.27.16l.99,4.23Z"/>
          </g>
          <g>
            <path class="cls-2" d="M19.5,22.28c.03.12-.04.24-.16.27l-1.29.35c-.12.03-.24-.04-.27-.15l-1.65-6.08c-.03-.12.04-.24.16-.27l1.33-.36c.12-.03.25.03.28.15l1.6,6.09Z"/>
            <path class="cls-2" d="M22,19.41c.03.12-.04.24-.16.27l-.74.2c-.12.03-.24-.03-.27-.15l-1.16-4.19c-.03-.11.04-.24.16-.27l.76-.21c.12-.03.25.04.28.15l1.14,4.19Z"/>
            <path class="cls-2" d="M25.07,18.42c.03.12-.03.24-.15.27l-.74.23c-.12.04-.24-.03-.28-.14l-1.28-4.15c-.04-.12.03-.24.15-.28l.75-.24c.12-.04.25.03.28.15l1.26,4.16Z"/>
            <path class="cls-2" d="M28.11,17.53c.04.12-.04.24-.15.28l-.74.22c-.12.04-.25-.03-.28-.15l-1.24-4.17c-.03-.12.04-.24.16-.28l.76-.22c.12-.04.25.03.28.15l1.22,4.17Z"/>
            <path class="cls-2" d="M31.07,16.66c.03.12-.04.24-.16.27l-.74.22c-.12.04-.25-.03-.28-.15l-1.19-4.18c-.03-.11.04-.24.16-.28l.75-.22c.12-.03.25.04.28.15l1.18,4.18Z"/>
          </g>
          <g>
            <path class="cls-2" d="M35.2,17.57c.03.12-.04.24-.16.27l-1.29.35c-.12.03-.25-.04-.28-.15l-1.67-6.08c-.03-.12.04-.24.16-.27l1.32-.36c.12-.03.25.04.28.15l1.64,6.08Z"/>
            <path class="cls-2" d="M37.76,14.87c.03.12-.04.24-.17.27l-.75.2c-.12.03-.25-.04-.27-.15l-1.1-4.2c-.03-.12.04-.24.16-.27l.76-.2c.12-.03.25.04.28.16l1.08,4.21Z"/>
            <path class="cls-2" d="M40.8,14.11c.03.12-.04.24-.17.27l-.75.19c-.12.03-.24-.04-.27-.16l-1.06-4.22c-.03-.12.05-.24.17-.27l.76-.19c.12-.03.24.04.27.16l1.05,4.22Z"/>
            <path class="cls-2" d="M43.87,13.35c.03.12-.05.24-.17.27l-.75.19c-.12.03-.24-.04-.27-.16l-1.02-4.23c-.03-.12.05-.24.17-.27l.76-.19c.12-.03.24.04.27.16l1,4.23Z"/>
            <path class="cls-2" d="M46.88,12.67c.03.12-.05.24-.17.26l-.75.17c-.12.03-.25-.05-.27-.16l-.97-4.23c-.03-.12.05-.24.17-.26l.77-.17c.12-.03.25.05.27.16l.96,4.24Z"/>
          </g>
          <g>
            <path class="cls-2" d="M50.95,13.76c.02.12-.05.23-.17.26l-1.31.29c-.12.03-.24-.05-.27-.16l-1.35-6.15c-.03-.12.06-.24.18-.26l1.34-.3c.12-.03.24.05.27.16l1.32,6.16Z"/>
            <path class="cls-2" d="M53.65,11.22c.03.12-.05.23-.18.26l-.76.15c-.12.02-.24-.05-.27-.17l-.88-4.26c-.02-.12.06-.23.18-.26l.77-.15c.12-.02.24.05.27.17l.86,4.26Z"/>
            <path class="cls-2" d="M56.72,10.6c.02.12-.06.24-.18.26l-.76.15c-.12.02-.24-.05-.26-.17l-.84-4.26c-.02-.12.06-.23.18-.26l.77-.15c.12-.02.24.05.27.17l.83,4.27Z"/>
            <path class="cls-2" d="M59.83,10.02c.02.12-.06.23-.19.25l-.76.13c-.12.02-.24-.06-.26-.18l-.8-4.27c-.02-.12.06-.23.19-.26l.77-.13c.13-.02.24.06.27.18l.78,4.27Z"/>
            <path class="cls-2" d="M62.87,9.49c.02.12-.07.23-.19.26l-.76.13c-.12.02-.24-.06-.26-.18l-.75-4.28c-.02-.12.06-.23.19-.26l.77-.13c.12-.02.24.06.27.18l.73,4.28Z"/>
          </g>
          <g>
            <path class="cls-2" d="M66.88,10.8c.02.12-.07.23-.19.25,0,0-.33.05-.66.1-.33.06-.66.11-.66.11-.12.02-.24-.06-.26-.18l-1.02-6.22c-.02-.12.07-.23.19-.26,0,0,.34-.06.67-.12.34-.05.68-.1.68-.1.12-.02.24.06.26.18l.98,6.22Z"/>
            <path class="cls-2" d="M69.71,8.4c.02.12-.07.23-.19.25l-.76.11c-.12.02-.24-.06-.26-.18l-.65-4.3c-.02-.12.07-.23.19-.25l.78-.11c.12-.02.24.06.26.18l.63,4.3Z"/>
            <path class="cls-2" d="M72.8,7.95c.02.12-.07.23-.19.25l-.76.11c-.12.02-.24-.06-.25-.18l-.6-4.3c-.02-.12.07-.23.2-.25l.78-.11c.12-.02.24.07.26.18l.58,4.31Z"/>
            <path class="cls-2" d="M75.95,7.57c.01.12-.08.23-.2.24l-.77.09c-.13.01-.24-.07-.25-.19l-.55-4.31c-.01-.12.08-.23.2-.24l.78-.09c.13-.02.24.07.26.19l.53,4.32Z"/>
            <path class="cls-2" d="M79.01,7.21c.01.12-.08.23-.2.24l-.77.09c-.12.02-.23-.07-.25-.19l-.49-4.32c-.01-.12.08-.23.21-.24l.78-.09c.12-.02.24.07.25.19l.47,4.32Z"/>
          </g>
          <g>
            <path class="cls-2" d="M82.92,8.77c.01.12-.08.23-.2.24l-1.33.11c-.12,0-.23-.08-.25-.2l-.64-6.27c-.01-.12.08-.23.21-.24l1.37-.12c.13-.01.24.08.25.2l.59,6.27Z"/>
            <path class="cls-2" d="M85.89,6.56c.01.12-.08.23-.21.24l-.77.07c-.12.01-.23-.08-.24-.2l-.37-4.33c0-.12.08-.23.21-.24l.79-.07c.12-.01.24.08.25.2l.34,4.33Z"/>
            <path class="cls-2" d="M89.01,6.31c0,.12-.09.22-.21.23l-.77.06c-.12.01-.23-.08-.24-.2l-.31-4.33c0-.12.09-.23.21-.24l.79-.06c.13,0,.23.09.24.21l.29,4.34Z"/>
            <path class="cls-2" d="M92.16,6.15c0,.12-.09.22-.21.23l-.77.04c-.12,0-.23-.09-.24-.21l-.25-4.34c0-.12.09-.22.22-.23l.79-.04c.13,0,.23.09.24.21l.22,4.34Z"/>
            <path class="cls-2" d="M95.24,6c0,.12-.09.22-.22.23l-.77.04c-.12,0-.23-.09-.23-.21l-.18-4.34c0-.12.1-.22.22-.23l.79-.04c.12,0,.23.09.24.21l.15,4.34Z"/>
          </g>
          <g>
            <path class="cls-2" d="M99.01,7.87c0,.12-.1.22-.22.22h-1.33c-.12.01-.23-.08-.23-.2l-.16-6.3c0-.12.1-.22.22-.22l1.38-.02c.13,0,.23.1.23.22l.1,6.3Z"/>
            <path class="cls-2" d="M102.15,5.89c0,.12-.1.22-.23.22h-.77c-.12,0-.23-.09-.23-.21l-.02-4.35c0-.12.1-.22.23-.22h.79c.13,0,.23.09.23.21v4.35Z"/>
            <path class="cls-2" d="M105.25,5.9c0,.12-.11.22-.23.21l-.76-.02c-.12,0-.22-.1-.22-.22l.06-4.35c0-.12.11-.22.24-.21l.81.02c.13,0,.23.1.23.22l-.14,4.35Z"/>
            <path class="cls-2" d="M108.34,6.1c-.01.12-.12.2-.24.2l-.75-.06c-.12,0-.21-.12-.2-.24l.32-4.33c0-.12.12-.21.26-.2l.84.07c.13,0,.24.12.23.24l-.46,4.32Z"/>
            <path class="cls-2" d="M111.27,6.56c-.02.12-.14.19-.26.17l-.72-.13c-.12-.02-.2-.13-.18-.25l.72-4.29c.02-.12.15-.2.29-.17l.86.16c.14.02.23.15.21.27l-.92,4.25Z"/>
          </g>
          <g>
            <path class="cls-2" d="M113.83,9.42c-.05.11-.16.17-.25.13,0,0-.23-.12-.49-.21-.26-.08-.53-.17-.53-.17-.1-.03-.15-.15-.11-.27l1.91-6.01c.04-.11.18-.17.32-.12,0,0,.38.13.76.26.38.13.76.31.76.31.14.06.21.2.17.31l-2.54,5.77Z"/>
            <path class="cls-2" d="M117.43,9.23c-.05.11-.17.17-.27.12,0,0-.62-.28-.64-.26-.11-.03-.16-.15-.13-.26l1.33-4.14c.04-.11.19-.17.34-.13,0-.03.92.37.92.37.15.06.23.2.18.31l-1.74,3.98Z"/>
            <path class="cls-2" d="M119.78,11.36c-.06.1-.19.15-.28.09l-.59-.33c-.1-.04-.15-.16-.1-.27l1.77-3.97c.05-.11.21-.15.36-.09l.89.49c.14.08.21.23.15.34l-2.2,3.75Z"/>
            <path class="cls-2" d="M121.84,13.72c-.06.1-.19.14-.28.09,0,0-.59-.37-.6-.34-.1-.04-.14-.16-.09-.27l1.83-3.95c.05-.11.21-.15.36-.08.03-.03.86.47.86.47.14.08.2.23.14.33l-2.2,3.75Z"/>
            <path class="cls-2" d="M123.68,16.51c-.03.09-.13.13-.21.1l-.54-.14c-.09-.02-.14-.12-.12-.21l.89-3.32c.03-.09.14-.14.25-.11l.72.2c.11.04.17.15.14.24l-1.14,3.24Z"/>
          </g>
        </g>
        <g>
          <g>
            <path class="cls-2" d="M35.88,52.06c0,.12-.12.21-.25.2,0,0-.34-.02-.68-.05-.26-.02-.52-.05-.52-.05-.1,0-.17-.12-.16-.24l.31-6.29c0-.12.12-.21.25-.2,0,0,.36.03.72.06.29.02.57.04.57.04.1,0,.18.11.17.23l-.42,6.29Z"/>
            <path class="cls-2" d="M39.08,50.86c0,.12-.1.22-.22.21l-.75-.02c-.12,0-.22-.1-.21-.23l.16-4.34c0-.12.09-.22.2-.21l.64.02c.1,0,.19.11.19.23v4.35Z"/>
            <path class="cls-2" d="M41.9,51.04c0,.12-.1.22-.22.21l-.75-.02c-.12,0-.22-.11-.21-.23l.12-4.34c0-.12.09-.22.19-.21l.65.02c.1,0,.19.11.19.23l.02,4.35Z"/>
            <path class="cls-2" d="M44.88,50.79c.01.12-.08.23-.2.25,0,.02-.76.07-.76.05-.12,0-.23-.09-.23-.22l-.18-4.34c0-.12.07-.22.16-.22,0,.02.59-.02.6-.04.1-.01.19.08.2.19l.42,4.33Z"/>
            <path class="cls-2" d="M47.77,49.77c.02.12-.06.23-.17.26l-.73.14c-.12.03-.23-.06-.25-.18l-.65-4.3c-.02-.12.05-.23.15-.25l.64-.13c.1-.02.2.06.22.18l.79,4.27Z"/>
          </g>
          <g>
            <path class="cls-2" d="M51.91,50.59c.04.11-.03.24-.14.27l-1.26.39c-.12.04-.24-.03-.27-.14l-1.77-6.05c-.03-.11.02-.24.13-.27l1.13-.35c.11-.03.22.04.26.15l1.93,6Z"/>
            <path class="cls-2" d="M54.12,47.78c.04.11-.01.24-.12.28l-.69.24c-.11.04-.23-.02-.27-.14l-1.4-4.11c-.04-.11.02-.24.12-.28l.66-.23c.11-.04.23.03.27.14l1.43,4.1Z"/>
            <path class="cls-2" d="M56.86,46.81c.04.12-.02.24-.12.28l-.68.24c-.11.04-.23-.02-.27-.14l-1.45-4.1c-.04-.11.02-.24.13-.28l.67-.24c.11-.04.23.02.27.14l1.45,4.1Z"/>
            <path class="cls-2" d="M59.62,45.84c.04.11-.02.24-.13.27l-.67.24c-.11.04-.23-.02-.27-.14l-1.43-4.1c-.04-.11.02-.24.13-.28l.69-.24c.11-.04.23.02.27.14l1.42,4.11Z"/>
            <path class="cls-2" d="M62.32,44.94c.04.12-.02.24-.13.27l-.68.22c-.11.04-.23-.03-.27-.14l-1.39-4.12c-.04-.11.03-.24.14-.27l.69-.23c.11-.04.23.03.27.14l1.36,4.13Z"/>
          </g>
          <g>
            <path class="cls-2" d="M66.17,45.76c.03.12-.02.24-.13.27l-1.17.36c-.11.04-.23-.03-.26-.14l-1.9-6.01c-.04-.11.03-.24.14-.27l1.22-.38c.11-.03.24.03.27.15l1.82,6.03Z"/>
            <path class="cls-2" d="M68.39,43.09c.03.12-.03.24-.14.27l-.68.19c-.11.03-.23-.04-.26-.16l-1.17-4.18c-.03-.12.04-.24.15-.27l.72-.2c.12-.03.24.04.27.16l1.11,4.2Z"/>
            <path class="cls-2" d="M71.15,42.43c.03.12-.04.23-.15.26l-.68.16c-.11.03-.22-.05-.25-.17l-1-4.23c-.03-.12.04-.23.16-.26l.74-.17c.12-.03.24.05.27.17l.91,4.25Z"/>
            <path class="cls-2" d="M73.97,41.9c.01.12-.06.23-.17.25l-.68.12c-.11.02-.22-.06-.24-.18l-.77-4.28c-.02-.12.06-.23.19-.25l.76-.13c.12-.02.24.06.26.18l.66,4.29Z"/>
            <path class="cls-2" d="M76.72,41.58c0,.12-.07.22-.19.23l-.68.07c-.11.01-.21-.08-.23-.2l-.47-4.32c-.01-.12.08-.23.2-.24l.78-.08c.13-.01.24.08.25.2l.33,4.33Z"/>
          </g>
          <g>
            <path class="cls-2" d="M79.84,43.31c0,.12-.09.21-.19.21,0,0-.26-.02-.53-.02-.27,0-.54,0-.54,0-.1,0-.18-.1-.19-.22l-.1-6.3c0-.12.1-.22.23-.22,0,0,.35,0,.71,0,.35,0,.72.02.72.02.13,0,.24.11.23.23l-.35,6.29Z"/>
            <path class="cls-2" d="M82.4,41.39c-.01.12-.11.21-.21.2,0,0-.16-.02-.32-.04-.16,0-.33-.02-.33-.02-.11,0-.19-.11-.18-.23l.2-4.34c0-.12.12-.21.26-.21,0,0,.22.01.43.03.22.02.44.05.44.05.14.02.24.13.23.25l-.52,4.31Z"/>
            <path class="cls-2" d="M85.28,41.8c-.02.12-.11.21-.21.19,0,0-.61-.08-.62-.07-.1,0-.18-.11-.17-.23l.23-4.34c0-.12.13-.21.28-.21,0-.02.94.1.94.1.15.02.26.13.24.25l-.69,4.29Z"/>
            <path class="cls-2" d="M87.88,43.18c-.03.11-.12.18-.22.17l-.55-.04c-.09-.01-.15-.1-.14-.21l.59-3.98c.02-.11.16-.21.31-.19l.96.08c.15.02.25.14.22.24l-1.16,3.93Z"/>
            <path class="cls-2" d="M89.47,46.24c-.04.11-.14.18-.23.15l-.52-.08c-.08-.02-.13-.12-.1-.23l1.06-4.04c.03-.11.17-.19.31-.17l.86.15c.13.04.2.16.16.27l-1.55,3.95Z"/>
          </g>
        </g>
        <g>
          <path class="cls-2" d="M.41,82.76l1.03-6.22c.02-.12-.06-.23-.18-.25l-1.23-.21v6.83s.11.02.11.02c.12.02.24-.06.26-.18Z"/>
          <path class="cls-2" d="M2.75,82.96c-.02.12-.13.2-.25.18l-.76-.11c-.12-.02-.2-.13-.19-.25l.66-4.29c.02-.12.13-.2.25-.19l.74.11c.12.02.2.13.19.25l-.64,4.3Z"/>
          <path class="cls-2" d="M5.47,84.78c-.02.12-.13.2-.25.19l-.76-.11c-.12-.02-.21-.13-.19-.25l.61-4.3c.02-.12.13-.2.25-.18l.74.1c.12.02.2.13.19.24l-.59,4.31Z"/>
          <path class="cls-2" d="M8.47,86.67c-.01.12-.13.2-.25.19l-.76-.1c-.12-.02-.21-.13-.19-.25l.56-4.31c.02-.12.13-.2.25-.19l.75.1c.12.02.21.13.19.25l-.54,4.31Z"/>
          <path class="cls-2" d="M11.35,87.88c-.01.12-.13.21-.25.19l-.76-.08c-.12-.01-.21-.12-.2-.24l.51-4.32c.02-.12.12-.21.25-.19l.75.08c.12.01.21.12.19.24l-.5,4.32Z"/>
          <path class="cls-2" d="M14.52,91.21c-.01.12-.12.21-.25.19l-1.34-.15c-.12-.01-.21-.12-.2-.24l.69-6.26c.01-.12.12-.21.24-.19l1.31.14c.12.01.21.12.2.24l-.66,6.27Z"/>
          <path class="cls-2" d="M17.85,90.11c-.01.12-.12.21-.25.2l-.76-.06c-.12-.01-.21-.12-.2-.24l.43-4.33c.01-.12.12-.21.24-.2l.75.07c.12.01.21.12.2.24l-.41,4.33Z"/>
          <path class="cls-2" d="M20.94,90.66c-.01.12-.12.21-.24.2l-.76-.07c-.12-.01-.21-.12-.2-.24l.39-4.33c0-.12.12-.21.24-.2l.75.07c.12.01.21.12.2.24l-.38,4.33Z"/>
          <path class="cls-2" d="M24.06,91.02c0,.12-.12.21-.24.2l-.76-.07c-.12-.01-.22-.12-.2-.24l.35-4.33c0-.12.11-.21.24-.2l.75.07c.12.01.21.12.2.24l-.34,4.33Z"/>
          <path class="cls-2" d="M27.1,91.52c0,.12-.12.21-.24.2l-.76-.05c-.12,0-.22-.11-.21-.23l.32-4.34c0-.12.12-.21.24-.2l.75.05c.12,0,.21.11.21.23l-.3,4.34Z"/>
          <path class="cls-2" d="M30.69,93.96c0,.12-.12.21-.24.2l-1.34-.09c-.12,0-.22-.11-.21-.23l.41-6.29c0-.12.11-.21.24-.21l1.32.09c.12,0,.22.11.21.23l-.38,6.29Z"/>
          <path class="cls-2" d="M33.94,92.2c0,.12-.11.21-.23.21l-.76-.04c-.12,0-.22-.11-.21-.23l.24-4.34c0-.12.11-.21.23-.2l.76.04c.12,0,.22.11.21.23l-.22,4.34Z"/>
          <path class="cls-2" d="M37.03,92.32c0,.12-.11.22-.23.21l-.77-.03c-.12,0-.22-.11-.21-.23l.2-4.34c0-.12.11-.22.23-.21l.76.03c.12,0,.22.11.21.23l-.19,4.34Z"/>
          <path class="cls-2" d="M40.16,92.45c0,.12-.11.21-.23.21l-.76-.03c-.12,0-.22-.11-.22-.23l.16-4.34c0-.12.11-.22.23-.21l.76.03c.12,0,.22.11.21.23l-.15,4.34Z"/>
          <path class="cls-2" d="M43.21,92.57c0,.12-.1.21-.23.21l-.76-.03c-.12,0-.22-.1-.22-.23l.13-4.34c0-.12.11-.22.23-.21l.76.03c.12,0,.22.11.21.23l-.12,4.35Z"/>
          <path class="cls-2" d="M46.89,94.57c0,.12-.11.22-.23.21l-1.34-.02c-.12,0-.22-.1-.22-.22l.14-6.3c0-.12.11-.22.23-.21l1.32.02c.12,0,.22.1.22.22l-.11,6.3Z"/>
          <path class="cls-2" d="M50.06,92.66c0,.12-.1.22-.23.22h-.77c-.12-.01-.22-.11-.22-.23l.05-4.34c0-.12.1-.22.22-.22h.76c.12.01.22.11.22.23l-.04,4.35Z"/>
          <path class="cls-2" d="M53.16,92.69c0,.12-.1.22-.22.22h-.76c-.12-.01-.22-.11-.22-.23v-4.35c.01-.12.11-.22.23-.22h.76c.12,0,.22.11.22.23v4.35Z"/>
          <path class="cls-2" d="M56.29,92.66c0,.12-.1.22-.22.22h-.76c-.12.01-.22-.08-.23-.2l-.02-4.34c0-.12.1-.22.22-.22h.75c.12-.02.22.08.22.2l.04,4.35Z"/>
          <path class="cls-2" d="M59.34,92.6c0,.12-.1.22-.22.22h-.76c-.12.02-.22-.08-.23-.2l-.06-4.35c0-.12.1-.22.22-.22h.75c.12-.02.23.08.23.2l.08,4.35Z"/>
          <path class="cls-2" d="M63.11,94.49c0,.12-.09.22-.22.22l-1.34.02c-.12,0-.23-.1-.23-.22l-.14-6.3c0-.12.09-.22.22-.23l1.32-.02c.12,0,.23.09.23.21l.18,6.3Z"/>
          <path class="cls-2" d="M66.19,92.08c0,.12-.09.23-.22.23l-.76.04c-.12,0-.23-.09-.23-.21l-.14-4.34c0-.12.09-.22.22-.22l.75-.04c.12,0,.23.09.23.21l.16,4.34Z"/>
          <path class="cls-2" d="M69.29,91.72c0,.12-.09.22-.21.23l-.76.04c-.12,0-.23-.09-.23-.21l-.19-4.34c0-.12.09-.22.21-.23l.76-.04c.12,0,.22.09.23.21l.2,4.34Z"/>
          <path class="cls-2" d="M72.42,91.45c0,.12-.09.22-.21.23l-.76.04c-.12,0-.23-.09-.24-.21l-.23-4.34c0-.12.09-.22.21-.23l.76-.04c.12,0,.23.09.23.21l.24,4.34Z"/>
          <path class="cls-2" d="M75.46,91.18c0,.12-.08.22-.21.23l-.76.04c-.12,0-.23-.09-.24-.21l-.26-4.34c0-.12.09-.22.21-.23l.75-.04c.12,0,.23.09.23.21l.28,4.34Z"/>
          <path class="cls-2" d="M79.32,92.64c.01.12-.09.23-.21.24l-1.34.12c-.12.01-.23-.08-.24-.2l-.44-6.29c0-.12.08-.23.2-.24l1.31-.12c.12-.01.23.08.24.2l.48,6.28Z"/>
          <path class="cls-2" d="M82.03,90.16c.01.12-.08.23-.2.24l-.76.07c-.12.01-.23-.08-.24-.2l-.36-4.33c0-.12.08-.23.2-.24l.75-.07c.12-.01.23.08.24.2l.37,4.33Z"/>
          <path class="cls-2" d="M85.17,89.67c.01.12-.08.23-.2.24l-.76.07c-.12.01-.23-.08-.24-.2l-.4-4.33c0-.12.08-.23.2-.24l.75-.07c.12-.01.23.08.24.2l.42,4.33Z"/>
          <path class="cls-2" d="M88.26,89.28c.01.12-.08.23-.2.24l-.76.07c-.12,0-.23-.08-.25-.2l-.44-4.32c-.01-.12.08-.23.2-.24l.75-.07c.12-.01.23.08.24.2l.46,4.32Z"/>
          <path class="cls-2" d="M91.36,88.75c.01.12-.08.23-.2.25l-.76.1c-.12.02-.23-.07-.25-.19l-.48-4.32c-.01-.12.08-.23.19-.25l.75-.1c.12-.02.23.07.24.19l.5,4.32Z"/>
          <path class="cls-2" d="M95.16,90.17c.01.12-.07.23-.2.25l-1.33.17c-.12.02-.24-.07-.25-.19l-.77-6.25c-.02-.12.07-.23.19-.25l1.3-.17c.12-.02.23.07.25.19l.81,6.25Z"/>
          <path class="cls-2" d="M97.97,87.44c.02.12-.07.23-.19.25l-.76.1c-.12.02-.24-.07-.25-.19l-.59-4.31c-.02-.12.07-.23.19-.25l.75-.1c.12-.02.23.07.25.19l.6,4.31Z"/>
          <path class="cls-2" d="M100.99,86.81c.02.12-.07.23-.19.25l-.76.1c-.12.02-.23-.07-.25-.19l-.63-4.3c-.02-.12.07-.23.19-.25l.75-.1c.12-.02.23.07.25.19l.65,4.3Z"/>
          <path class="cls-2" d="M104.03,85.79c.02.12-.07.23-.19.26l-.75.13c-.12.02-.24-.06-.26-.18l-.68-4.29c-.02-.12.06-.23.18-.25l.74-.13c.12-.02.23.06.25.18l.7,4.29Z"/>
          <path class="cls-2" d="M106.99,85.11c.02.12-.06.23-.18.26l-.76.13c-.12.02-.24-.06-.26-.18l-.73-4.29c-.02-.12.06-.23.18-.25l.74-.13c.12-.02.23.06.26.18l.74,4.28Z"/>
          <path class="cls-2" d="M110.8,85.88c.02.12-.06.23-.18.25l-1.33.23c-.12.02-.24-.06-.26-.17l-1.12-6.2c-.02-.12.06-.23.18-.25l1.29-.23c.12-.02.23.06.26.18l1.16,6.19Z"/>
          <path class="cls-2" d="M113.48,83.17c.02.12-.06.23-.18.25l-.75.13c-.12.02-.24-.06-.27-.18l-.83-4.27c-.02-.12.06-.23.17-.25l.74-.13c.12-.02.23.06.26.18l.86,4.26Z"/>
          <path class="cls-2" d="M116.25,81.88c.03.12-.05.24-.17.27l-.75.17c-.12.03-.24-.05-.26-.16l-.88-4.25c-.03-.12.05-.24.17-.26l.73-.17c.12-.03.24.05.26.16l.91,4.25Z"/>
          <path class="cls-2" d="M119.28,80.73c.03.12-.05.24-.17.27l-.75.17c-.12.03-.24-.05-.26-.16l-.94-4.24c-.03-.12.05-.24.17-.26l.73-.17c.12-.03.24.05.26.16l.96,4.24Z"/>
          <path class="cls-2" d="M122.05,79.53c.02.12-.07.23-.19.25l-.76.1c-.12.02-.23-.07-.25-.19l-.6-4.31c-.02-.12.07-.23.19-.25l.74-.1c.12-.02.23.07.25.19l.63,4.3Z"/>
          <path class="cls-2" d="M125.57,80.01c.02.12-.06.23-.19.25l-1.33.2c-.12.02-.24-.06-.26-.18l-1.04-6.21c-.02-.12.06-.23.18-.25l1.3-.19c.12-.02.23.06.26.18l1.09,6.21Z"/>
          <path class="cls-2" d="M127.8,76.69c.01.12-.08.23-.2.25l-.76.11c-.12.02-.23-.06-.25-.18l-.5-4.32c-.01-.12.07-.23.19-.25l.74-.11c.12-.02.23.07.24.19l.53,4.31Z"/>
          <path class="cls-2" d="M130.26,75.18c.01.12-.08.23-.2.24l-.76.09c-.12.01-.23-.07-.24-.19l-.44-4.32c-.01-.12.08-.23.2-.24l.74-.09c.12-.01.23.08.24.19l.46,4.32Z"/>
          <path class="cls-2" d="M132.93,74.03c.01.12-.08.23-.2.24l-.76.09c-.12.02-.24-.07-.25-.19l-.53-4.31c-.01-.12.07-.23.19-.24l.74-.09c.12-.01.23.07.25.19l.56,4.31Z"/>
          <path class="cls-2" d="M135.34,72.77c.01.12-.08.23-.2.24l-.76.07c-.12.01-.24-.08-.25-.2l-.46-4.32c-.01-.12.08-.23.2-.24l.75-.07c.12-.01.23.08.24.2l.48,4.32Z"/>
        </g>
      </g>
      <path class="cls-4" d="M135.91,64.23v14.97s-2.75,2.59-3.63,3.13l-.22-4.29c-2.89,1.24-4.22-3.97-.87-5.69l-.34-4.21,5.06-3.9Z"/>
      <path class="cls-4" d="M.05,36.48v-14.97s4.23-1.83,5.29-2.27v3.91c2.92-1.17,3.39,3.85,0,5.49v5.6L.05,36.48Z"/>
      <path class="cls-5" d="M.46,21.78c.78-.34,3.2-1.38,4.47-1.92v3.9l.56-.23c.24-.1.47-.15.67-.15.73,0,.99.64,1.07,1.02.29,1.26-.41,3.06-2.07,3.86l-.23.11v5.58l-4.47,1.89v-14.08Z"/>
      <path class="cls-5" d="M132.44,77.43l-.54.23c-.24.1-.47.16-.69.16-.84,0-1.32-.76-1.49-1.48-.29-1.19.11-2.83,1.66-3.63l.24-.13-.35-4.27,4.23-3.26v13.95c-.76.71-2.02,1.86-2.85,2.52l-.21-4.11Z"/>
    </g>
  </g>
</svg>