<?xml version="1.0" encoding="UTF-8"?>
<svg id="_圖層_2" data-name="圖層 2" xmlns="http://www.w3.org/2000/svg" xmlns:xlink="http://www.w3.org/1999/xlink" viewBox="0 0 956.48 541.43">
  <defs>
    <style>
      .cls-1, .cls-2, .cls-3, .cls-4 {
        fill: none;
      }

      .cls-5 {
        filter: url(#drop-shadow-1);
      }

      .cls-6 {
        filter: url(#drop-shadow-2);
      }

      .cls-7 {
        fill: #fade84;
      }

      .cls-8 {
        fill: #ecb09e;
      }

      .cls-9 {
        fill: #bca779;
      }

      .cls-10 {
        fill: #fff;
      }

      .cls-2 {
        stroke: #5e5748;
      }

      .cls-2, .cls-3, .cls-4 {
        stroke-linecap: round;
        stroke-miterlimit: 10;
        stroke-width: 4px;
      }

      .cls-3, .cls-4 {
        stroke: #ed655f;
      }

      .cls-11 {
        fill: #dedede;
      }

      .cls-12 {
        fill: #5e5748;
      }

      .cls-13 {
        fill: #ed655f;
      }

      .cls-4 {
        stroke-dasharray: 11.71 11.71;
      }

      .cls-14 {
        clip-path: url(#clippath);
      }

      .cls-15 {
        fill: #c8c8c8;
      }
    </style>
    <filter id="drop-shadow-1" x="-5.67" y="13.02" width="235" height="540" filterUnits="userSpaceOnUse">
      <feOffset dx="2.68" dy="2.68"/>
      <feGaussianBlur result="blur" stdDeviation="2.68"/>
      <feFlood flood-color="#000" flood-opacity=".1"/>
      <feComposite in2="blur" operator="in"/>
      <feComposite in="SourceGraphic"/>
    </filter>
    <clipPath id="clippath">
      <rect class="cls-1" x="438.43" y="83.57" width="406.89" height="445.47"/>
    </clipPath>
    <filter id="drop-shadow-2" x="427.43" y="-40.88" width="444" height="990" filterUnits="userSpaceOnUse">
      <feOffset dx="8.65" dy="8.65"/>
      <feGaussianBlur result="blur-2" stdDeviation="8.65"/>
      <feFlood flood-color="#000" flood-opacity=".1"/>
      <feComposite in2="blur-2" operator="in"/>
      <feComposite in="SourceGraphic"/>
    </filter>
  </defs>
  <g id="_圖層_1-2" data-name="圖層 1">
    <g>
      <g class="cls-5">
        <path class="cls-8" d="M217.26,284.88c-1.01-1.22-6.96-9.12-15.58-15.51-8.61-6.39-7.82-16.22-8.68-23.62-.86-7.39-1.94-20.46-3.81-29.79-1.87-9.33-8.18-22.9-13.93-34.02-5.74-11.13-3.73-26.85-3.37-40.77.36-13.93-1.44-18.02-6.75-26.2-5.31-8.18-32.3-15.36-38.48-19.1-6.17-3.73-3.09-13.93-3.09-13.93,2.94-3.45,7.03-17.16,7.03-17.16,2.01.57,2.43,0,2.43,0,3.16-1.65,1.99-7.82,2.06-9.19.07-1.36.82-1,1.11-4.09.29-3.09-2.66-2.06-2.66-2.06,3.36-34.37-24.44-29.89-24.44-29.89,0,0-27.8-4.48-24.44,29.89,0,0-2.95-1.02-2.67,2.06.29,3.09,1.04,2.73,1.11,4.09.07,1.36-1.1,7.54,2.06,9.19,0,0,.42.57,2.43,0,0,0,4.09,13.71,7.03,17.16,0,0,3.09,10.19-3.09,13.93-6.17,3.73-33.17,10.91-38.48,19.1-5.31,8.18-7.11,12.27-6.75,26.2.36,13.93,2.37,29.65-3.37,40.77-5.74,11.13-12.06,24.69-13.93,34.02-1.87,9.33-2.94,22.4-3.8,29.79-.86,7.39-.07,17.23-8.69,23.62-8.61,6.39-14.57,14.28-15.58,15.51-1,1.22-1.79,3.08.79,3.66,2.58.57,5.1-1.29,5.53-1.79.43-.5,3.09-2.73,4.16-2.87,0,0-.29,3.09-.5,4.77-.21,1.69-.14,3.62-.65,6.28-.5,2.66-1.58,7.54-2.01,9.55-.43,2.01-3.66,9.91-.07,9.98,0,0,1.15.29,3.16-4.52,2.01-4.81,3.23-11.92,4.67-12.71,0,0,.29-.29-.5,3.16-.79,3.44-3.73,11.56-3.66,14.07.07,2.51.22,2.87,1.79,3.08,1.58.22,2.44-4.38,3.09-6.39.65-2.01,4.38-12.64,5.81-14.36,0,0-2.01,4.66-2.15,6.6-.14,1.94-3.95,13.87-1.29,14.15,2.66.28,3.52-4.96,4.09-6.68.57-1.72,4.23-13.64,4.23-13.64,0,0-1.15,4.88-1.01,6.53.14,1.65-1.44,10.41,1.15,10.77,2.58.36,5.82-8.83,6.18-10.49.36-1.65,1.64-6.7,3.22-8.92,1.58-2.22,1.56-16.65,1.71-19.45.14-2.8-.53-12.25,3.99-17.93,4.52-5.67,12.78-32.43,13.79-35.95,1-3.52,7.5-20.41,7.36-29.46-.14-9.04.43-19.01.79-20.02.36-1.01.86,3.66,1.94,6.39,1.08,2.73,4.45,15.87,2.08,24.77-2.37,8.9-6.32,16.08-7.97,31.44-1.65,15.36-11.92,50.39-9.69,66.26,2.23,15.86,5.1,28.43,7.47,39.48,2.37,11.06,8.18,33.6,8.33,40.41.14,6.82.07,21.18-2.08,32.74-2.15,11.56-4.52,29.14-1.29,44.58,3.23,15.43,7.11,32.23,7.9,37.76.79,5.53-2.22,11.7-.86,13.07,1.36,1.36-5.64,8.71-6.58,10.14-.93,1.44-11.15,8.45-9.14,12.76,0,0,.36.43,1,.36,0,0-.65,3.16,3.02,2.94,0,0,.07,4.74,4.52,1.37,0,0,.79,5.1,5.74,1.65,0,0,5.38,5.31,9.4,1.79,4.02-3.52,3.09-7.11,5.67-10.05,2.58-2.94,5.38-9.91,5.1-15.5,0,0,.61-3.43,2.48-6.09,1.87-2.66-1.6-11.91-.53-15.64,1.08-3.73-.08-16.53.35-19.98.43-3.44,4.23-30.22,4.45-34.38.21-4.16-3.81-32.45-.79-39.19,3.02-6.75,3.88-21.82,4.31-25.77.43-3.95.07-20.89,1.36-25.63,1.29-4.74,3.66-30.51,4.59-35.75.93-5.24.3-23.19.3-24.76s.69-2.8,3.41-2.8,3.41,1.22,3.41,2.8-.63,19.52.3,24.76c.93,5.24,3.3,31.01,4.59,35.75,1.29,4.74.93,21.68,1.36,25.63.43,3.95,1.29,19.02,4.31,25.77,3.02,6.75-1,35.03-.79,39.19.22,4.16,4.02,30.94,4.45,34.38.43,3.45.36,12.21,1.43,15.94,1.08,3.73-3.63,14.2-1.77,16.86,1.87,2.66,2.63,8.91,2.63,8.91-.29,5.6,2.51,12.56,5.1,15.5,2.58,2.94,1.65,6.53,5.67,10.05,4.02,3.52,9.4-1.79,9.4-1.79,4.95,3.44,5.74-1.65,5.74-1.65,4.45,3.37,4.52-1.37,4.52-1.37,3.66.22,3.01-2.94,3.01-2.94.65.07,1.01-.36,1.01-.36,2.01-4.31-8.28-12.16-9.21-13.59-.93-1.43-3.34-6.23-5.15-8.72-3.08-4.24-3.36-5.65-2.22-13.65.79-5.53,4.66-22.32,7.89-37.76,3.23-15.43.86-33.02-1.29-44.58-2.15-11.56-2.23-25.91-2.08-32.74.14-6.82,5.96-29.36,8.33-40.41,2.37-11.05,5.24-23.62,7.47-39.48,2.22-15.86-8.04-50.9-9.69-66.26-1.65-15.36-5.6-22.54-7.97-31.44-2.37-8.9,1-22.04,2.08-24.77,1.08-2.73,1.58-7.39,1.94-6.39.36,1,3.52,7.9,3.38,16.94-.15,9.04,5.31,25.84,6.32,29.36,1,3.52,7.61,35.64,12.13,41.31,4.52,5.67,3.91,16.06,4.05,18.86.14,2.8.13,15.39,1.71,17.61,1.58,2.23,2.86,10.6,3.22,12.25.36,1.65,3.66,6.22,6.25,5.86,2.58-.36,1-9.12,1.15-10.77.14-1.65-1-6.53-1-6.53,0,0,3.66,11.92,4.23,13.64.57,1.72,1.43,6.96,4.09,6.68,2.66-.28-1.15-12.21-1.29-14.15-.14-1.94-2.15-6.6-2.15-6.6,1.43,1.72,5.17,12.35,5.82,14.36.64,2.01,1.51,6.6,3.08,6.39,1.58-.21,1.72-.57,1.79-3.08.07-2.51-2.87-10.63-3.66-14.07-.79-3.45-.5-3.16-.5-3.16,1.43.79,2.66,7.9,4.67,12.71,2.01,4.81,3.16,4.52,3.16,4.52,3.59-.07.36-7.97-.07-9.98-.43-2.01-1.51-6.89-2.01-9.55-.5-2.66-.43-4.59-.65-6.28-.21-1.69-.5-4.77-.5-4.77,1.08.14,3.74,2.37,4.16,2.87.43.5,2.94,2.37,5.53,1.79,2.59-.58,1.8-2.44.79-3.66Z"/>
        <path class="cls-10" d="M113.44,90.28c-.52-.28-.97-1.66-.97-1.66-1.38-.35-2.75-.2-3.42-.09-.67-.12-2.04-.27-3.42.09,0,0-.45,1.38-.97,1.66-.52.28-1.55,1-1.03,1.45.52.44.9,1.17,1.61,1.17s1.09-.11,1.68,0c.35.07,1,.13,1.61.19,0,0,.32.06.52.04.2.02.52-.04.52-.04.61-.06,1.26-.12,1.61-.19.58-.11.97,0,1.68,0s1.1-.72,1.61-1.17c.52-.45-.52-1.17-1.03-1.45Z"/>
        <path class="cls-7" d="M74.94,396.45s-3.8.66-4.17,3c-.37,2.34-.29,3.87,2.08,7.23,2.37,3.36,1.2,10.6,1.5,16.37.29,5.77.73,20.9.66,26.89-.07,5.99,1.53,36.76.66,39.75-.88,3-4.02,19.3,1.1,14.4,5.12-4.9,1.39-32.67,1.39-36.62s-1.02-35.44-1.02-35.44c0,0-1.52-30.4,1.21-32.81,2.73-2.41-1.14-4.53-3.4-2.78Z"/>
        <path class="cls-7" d="M142.39,396.45s3.8.66,4.17,3c.36,2.34.29,3.87-2.08,7.23-2.38,3.36-1.21,10.6-1.5,16.37-.29,5.77-.73,20.9-.66,26.89.08,5.99-1.53,36.76-.66,39.75.88,3,4.02,19.3-1.1,14.4-5.12-4.9-1.39-32.67-1.39-36.62s1.02-35.44,1.02-35.44c0,0,1.52-30.4-1.21-32.81-2.74-2.41,1.14-4.53,3.4-2.78Z"/>
        <path class="cls-10" d="M74.37,387.76s-2.8,5.92-2.43,8.19c.37,2.27,3.87,2.05,5.55,6.07,1.68,4.02,1.61,17.83,1.31,25.14-.29,7.31.37,32.96.29,39.61-.07,6.65.59,20.61-.29,22.51-.88,1.9-7.75,14.03,2.85,12.42,0,0,4.09-2.12,4.75.73.66,2.85,3.51,1.75,3.44-.81-.07-2.56-4.53-20.39-4.02-30.91.51-10.52-.37-38.8.88-49.03,1.24-10.23,3.07-19.8,5.48-23.16,2.41-3.36,2.48-10.09.8-11.04-1.68-.95-8.31-.73-9.96-2.19-1.65-1.46-7.31-.71-8.65,2.49Z"/>
        <path class="cls-10" d="M142.96,387.76s2.8,5.92,2.43,8.19c-.37,2.27-3.87,2.05-5.55,6.07-1.68,4.02-1.61,17.83-1.31,25.14.29,7.31-.37,32.96-.29,39.61.07,6.65-.59,20.61.29,22.51.88,1.9,7.75,14.03-2.85,12.42,0,0-4.09-2.12-4.75.73-.66,2.85-3.51,1.75-3.44-.81.07-2.56,4.53-20.39,4.02-30.91-.51-10.52.36-38.8-.88-49.03-1.24-10.23-3.07-19.8-5.48-23.16-2.41-3.36-2.48-10.09-.8-11.04,1.68-.95,8.31-.73,9.97-2.19,1.65-1.46,7.31-.71,8.65,2.49Z"/>
        <path class="cls-15" d="M85.67,263.62c-.01.16-.1,4.46-.95,6.01-.85,1.55-1.05,4.96,1.7,6.36,2.76,1.41,12.17,3.66,14.63,1.35,2.46-2.31,6.01-3.81,6.66-3.91.65-.1.4-3.71-.35-4.31-.75-.6-5.51-4.06-6.91-2.15-1.4,1.9-.55,3.45-2.16,4-1.6.56-7.97,3.21-8.17-1.7-.2-4.91,2.26-5.81.9-6.36-1.35-.55-5.12-2.59-5.36.7Z"/>
        <path class="cls-15" d="M131.66,263.62c.01.16.1,4.46.95,6.01.85,1.55,1.05,4.96-1.7,6.36-2.75,1.41-12.17,3.66-14.63,1.35-2.46-2.31-6.01-3.81-6.66-3.91-.65-.1-.4-3.71.35-4.31.75-.6,5.51-4.06,6.91-2.15,1.4,1.9.55,3.45,2.16,4,1.6.56,7.97,3.21,8.17-1.7.2-4.91-2.26-5.81-.9-6.36,1.35-.55,5.12-2.59,5.36.7Z"/>
        <path class="cls-10" d="M104.01,164.99s-.92-.43-2.57.49c-1.65.92-7.29,6.4-10.35,6.97-3.06.57-4.96,11.41-1.84,7.18,3.12-4.23,7.35-7.05,9.56-8.94,2.21-1.9,3.31-2.08,4.78-2.51,1.47-.43,1.84-2.88.43-3.19Z"/>
        <path class="cls-10" d="M104.5,173.32s-1.84,1.41-4.17,2.39c-2.33.98-13.54,6.43-14.76,8.15-1.23,1.72-1.95,5.51,1.32,3.55,3.27-1.96,12.56-8.76,14.9-9.67,2.34-.92,6.57-5.51,2.71-4.41Z"/>
        <path class="cls-10" d="M106.26,181.59s-2.26-1.04-5.08,1.9c-2.82,2.94-6.87,3.86-9.28,7.17-2.42,3.31-7.31,6.19-3.3,6.13,4.01-.06,5.7-5.39,8.41-7.23,2.71-1.84,11.64-5.58,9.25-7.96Z"/>
        <path class="cls-10" d="M104.25,193.64s-4.35-.08-4.7-.67c-.35-.6-.6-1.37.12-1.62.71-.25,4.43-.52,4.83,0,.4.52.71,2.2-.25,2.29Z"/>
        <path class="cls-10" d="M104.64,200.7s-3-.66-3.95-.77c-.94-.11-4.77.31-3.7,1.25,1.08.94,2.29.91,4.29,1.52,2,.62,3.78,1.33,3.89.63.11-.69.55-2.29-.54-2.64Z"/>
        <path class="cls-10" d="M104.46,209.5s-1.31.96-2.67.89c-1.36-.08-5.79-.85-4.9,1.12.89,1.96,6.66,1.79,7.41,1.42.75-.37,2.04-4.58.15-3.43Z"/>
        <path class="cls-10" d="M103.81,219.25s-2.45-.19-3.02-.38c-.58-.19-4.58-1.33-3.85.19.73,1.52.14,2.18.98,2.35.85.17,5.49.62,6.12.27.64-.35.83-2.33-.23-2.43Z"/>
        <path class="cls-10" d="M103.04,228.47s-1.96-.89-2.56-1.29c-.6-.41-3.21-.64-2.93.4.29,1.04,1.96,1.81,2.73,2.12.77.31,3,1.25,3.06.25.06-1,.1-1.04-.31-1.48Z"/>
        <path class="cls-10" d="M112.61,193.64s4.35-.08,4.7-.67c.35-.6.6-1.37-.12-1.62-.71-.25-4.43-.52-4.83,0-.41.52-.71,2.2.25,2.29Z"/>
        <path class="cls-10" d="M112.22,200.7s3-.66,3.95-.77c.95-.11,4.77.31,3.7,1.25s-2.29.91-4.29,1.52c-2,.62-3.78,1.33-3.89.63-.11-.69-.55-2.29.54-2.64Z"/>
        <path class="cls-10" d="M112.39,209.5s1.31.96,2.67.89c1.36-.08,5.79-.85,4.9,1.12-.88,1.96-6.66,1.79-7.41,1.42-.75-.37-2.04-4.58-.15-3.43Z"/>
        <path class="cls-10" d="M113.05,219.25s2.44-.19,3.02-.38c.58-.19,4.58-1.33,3.85.19-.73,1.52-.13,2.18-.98,2.35-.85.17-5.49.62-6.12.27-.64-.35-.83-2.33.23-2.43Z"/>
        <path class="cls-10" d="M113.82,228.47s1.97-.89,2.56-1.29c.6-.41,3.22-.64,2.93.4-.29,1.04-1.96,1.81-2.73,2.12-.77.31-3.01,1.25-3.06.25-.06-1-.1-1.04.31-1.48Z"/>
        <path class="cls-7" d="M63.88,125.31s1.08,2.95,3.14,4.08c2.06,1.13,1.08,3.6,1.79,6.43.71,2.83,12.43,25.95,17.09,15.96,4.67-9.98,5.18-18.56,6.06-19.64.88-1.08.09-7.79,0-8.83-.09-1.04-1.7-4.7-5.18-5.39-3.47-.69-9.02-1.41-9.89,0-.87,1.41-3.01.43-4.06-.22-1.05-.65-6.19-1.85-6.9.54-.72,2.4-3.13,3.69-2.05,7.05Z"/>
        <path class="cls-11" d="M112.65,106.03c-1.09-1.09-3.36.06-3.92.37-.58-.31-2.97-1.46-4.11-.37,0,0-1.04,5.37-.73,6.49,0,0,2.77.56,4.84.49,1.97.08,4.61-.49,4.61-.49.29-1.12-.7-6.49-.7-6.49Z"/>
        <path class="cls-10" d="M67.68,117.45c-.23,0-4.02.22-4.76-.52-.74-.74-1.78-1.28-1.12-1.53.67-.25,2.09-1.29,2.09-1.29,0,0,1.28-2.73-2.3-1.77-3.58.95-4.77,1.92-2.09,4.38,2.68,2.46,2.83,3.65,4.39,3.79,1.56.15,2.6.37,3.12-.37.52-.74,3.35-2.73.67-2.68Z"/>
        <path class="cls-10" d="M65.22,120.65s1.86,1.34,1.04,4.01c-.82,2.68-5.35,5.36-6.84,21.65-1.49,16.29-3.65,38.76-2.23,43,1.41,4.24,5.65,8.18,1.71,10.04-3.94,1.86-3.72-.07-4.91-.45-1.19-.37-3.2.3-4.76.67-1.56.37-4.24-.97-3.35-3.57.89-2.6-.5-2.16-.18-3.42.33-1.26,4.71-4.98,6.05-14.95,1.34-9.97,1.49-24.85,1.79-30.2.3-5.36,3.35-15.77,1.12-20.23-2.23-4.46,1.26-6.24,2.53-6.54,1.26-.3,5.88-2.68,8.03,0Z"/>
        <path class="cls-10" d="M49.82,205.68s1.49-3.72,1.49-4.61,1.04-2.05,2.75-.92c1.71,1.14,4.02.39,3.57,2.18-.45,1.79-8.11,19.94-11.46,33.85-3.35,13.91-8.78,31.24-9.37,31.32-.6.08-.07-.74-.6-1.34-.52-.6-4.02-1.12-2.45-3.57,1.56-2.46,8.26-23.06,9.52-26.86,1.27-3.79,6.85-24.55,6.7-25.89-.15-1.34-.88-2.22-.15-4.17Z"/>
        <path class="cls-10" d="M45.65,206.27s-.34-2.01-.13-3.12c.21-1.12.66-3.82,2.07-3.47,1.41.35,4.05-.03,3.72,1.39-.33,1.42-2.7,3.72-2.91,6.03-.21,2.31.16,7.07-2.29,10.12-2.46,3.05-7.51,18.6-9.15,23.95-1.64,5.36-4.24,19.12-4.09,22.69.15,3.57-2.68-.15-3.27-.45-.59-.3-5.88,1.93-3.94-2.16,1.93-4.09,5.73-13.32,8.26-20.09,2.53-6.77,11.08-32.14,11.75-34.89Z"/>
        <path class="cls-10" d="M21.4,272.18s-2.23-.07-1.79-1.79c.45-1.71,3.5-3.99,4.99-5.01,1.49-1.02,3.57-1.76,4.98-.65,1.41,1.12,4.61,1.34,5.51,1.93.89.59,2.75,1.71,2.31,2.9-.45,1.19-2.08,4.09-2.31,5.06-.22.97-2.53.89-3.94.45-1.41-.45-1.86-.59-3.05-.45-1.19.15-1.34-.3-1.86-.97-.52-.67-.89-1.56-1.71-1.12-.82.45-2.46-.74-3.12-.37Z"/>
        <path class="cls-10" d="M32.71,275.75s-.89,2.23,0,3.72c.89,1.49.35,6.84-.2,7.51-.55.67-2.23,5.13-.2,5.28,2.03.15,2.03-1.12,1.96-2.38-.07-1.26.3-6.92,1.12-7.96.82-1.04,1.49-3.57,1.04-4.46-.45-.89-1.41-3.94-3.72-1.71Z"/>
        <path class="cls-10" d="M31.34,292.28s.04.36,0,2.15c-.04,1.78-.56,3.57-.78,4.39-.22.82-.84,2.46.4,2.6,1.24.15,1.9.07,2.05-2.6.15-2.68.55-4.46.95-5.13.39-.67-.43-2.31-1.1-2.23-.67.08-1.54-.57-1.52.83Z"/>
        <path class="cls-10" d="M30.2,301.46s-.54,4.72-.84,5.46c-.3.74.89,1.27,1.56-.45.67-1.71,1.89-5.43,1.2-5.73-.69-.3-1.76-.68-1.93.71Z"/>
        <path class="cls-10" d="M29.32,307.22s-1.61,4.24,0,4.31c1.61.08,1.29-5.88,0-4.31Z"/>
        <path class="cls-10" d="M28.6,274.95s.17,2.06-.58,2.66c-.74.6,1.35,2.23.49,4.46-.86,2.23-4.16,9.1-3.29,10.2.87,1.1,1.99,1.77,3.29-.53,1.3-2.31.72-6.47,2.31-9.19,1.59-2.72,1.47-5.19,1.59-5.72.12-.54-1.23-3.13-3.81-1.88Z"/>
        <path class="cls-10" d="M25.08,293.01s-.99-.3-.85,1.34c.15,1.64-.07,4.02-.59,4.99-.52.97-1.14,3.42,1.44,3.35,2.58-.08.42-2.01.64-3.2.22-1.19,2.91-6.19,1.93-6.19-.97,0-1.81-.7-2.58-.28Z"/>
        <path class="cls-10" d="M23.69,302.33s-1.17.88-1.25,2.96c-.07,2.08-1.71,3.94-1.04,4.76.67.82,1.82,1.41,2.29-1.11.47-2.53,1.63-3.82,1.83-4.89.2-1.06-.93-3-1.83-1.72Z"/>
        <path class="cls-10" d="M21.7,310.35s-.61.07-.45,1.18c.16,1.12-.21,1.41-.51,2.01-.3.6.89,2.23,1.49.97.6-1.27.56-1.79.95-2.31.39-.52,0-2.96-1.48-1.85Z"/>
        <path class="cls-10" d="M25.52,272.72s-.17,1.44-.77,2.68c-.59,1.25-.67,1.32-.67,3.11s-3.69,10.86-4.52,11.68c-.49.48-.69,1.94-.18,2.69.36.52,1.06.7,2.25,0,2.9-1.72,1.41-3.29,2.23-5.15.82-1.86,1.94-8.41,2.98-9.07,1.03-.67,2-3.41,1.34-3.7-.66-.29-2.66-2.23-2.66-2.23Z"/>
        <path class="cls-10" d="M19.08,293.34s-1.25.34-1.02,1.53c.22,1.19,0,4.05-.6,5.6-.6,1.55-.09,3.48.81,3.11.9-.37.19-.22,1.29-2.82,1.1-2.6.93-4.17,1.68-5.21.76-1.04.95-2.54,0-2.2-.95.34-1.82-.15-2.16,0Z"/>
        <path class="cls-10" d="M17.55,303.3s-.68-.28-.83.74c-.15,1.02-.23,3.92-.6,4.81-.37.89.38,2.2,1.08,1.21.71-.99.18-3.07.85-3.74.67-.67,1.11-3.09.3-3.06l-.81.03Z"/>
        <path class="cls-10" d="M16.02,310.07s-.57.8-.5,1.47c.07.67-.74,1.49-.82,2.01-.07.52.77,1.26,1.32.67.54-.59.25-1,.77-1.69.52-.69.4-3.03-.77-2.45Z"/>
        <path class="cls-10" d="M21.89,272.72c-.1.08-1.9,1.21-1.97,2.68-.08,1.47-.3,4.82-1.86,6.82-1.56,2.01-5.22,6.84-3.35,7.74,1.87.89,2.44-2.01,4.09-4.54,1.65-2.53,4.23-7.27,4.94-8.33.72-1.06,2.34-4.31,1.34-4.37-1-.07-2.31-.69-3.19,0Z"/>
        <path class="cls-10" d="M14.45,289.78s-.85,1.63-1.08,3.51c-.22,1.88-2.75,7.05-.67,7.18,2.08.13,1.55-2.77,2-4.41.45-1.64,2.97-3.81,2.38-4.7-.59-.88-.15-1.11-2.38-1.4"/>
        <path class="cls-10" d="M11.88,300.47s-.45.13-.67,1.77c-.22,1.64-1.64,4.9,0,4.61,1.64-.29.74-1.6,1.86-3.18,1.12-1.58,1.44-3.62.54-3.41-.91.21-1.13.67-1.72.21Z"/>
        <path class="cls-10" d="M10.43,306.84s.11.67,0,1.27c-.11.6-.93,2.01,0,2.31.93.29.04-.41.85-1.18.82-.76,2.05-2.17.6-2.29l-1.45-.11Z"/>
        <path class="cls-10" d="M19.08,271.14s-1.62.74-2.44,1.93c-.82,1.19-6.17,4.46-3.72,6.47,2.45,2.01,1.74-1.04,3.1-2.09,1.36-1.04,3.99-3.06,4.66-3.7.68-.65.31-1.88-1.61-2.62Z"/>
        <path class="cls-10" d="M12.28,278.8s-.92-.08-1.85.89c-.93.97-4.87,2.71-1.82,3.92,0,0,.53.17,1.82-1.84,1.3-2.01,2.09-1.29,2.57-1.56"/>
        <path class="cls-10" d="M7.12,282.56s-1.04.82-1.56,1.39c-.52.58-2.75,2.44-.67,2.51,2.08.07,1.86-.74,2.23-1.41.37-.67,1.19-3.51,0-2.49Z"/>
        <path class="cls-10" d="M76.53,192.01s-2.76-3.18-.41-5.69c2.36-2.51,10.17-10.6,10.62-11.33.45-.73-1.97-2.68-5.78,1.51-3.81,4.18-10.17,7.75-7.22,13.56,2.96,5.8,3.12,3.57,2.79,1.95Z"/>
        <path class="cls-10" d="M80.24,173.6s-7.62,2.73-6.95,6.63c.67,3.91,4.25,4.91,4.16,5.75-.09.84-1.87,3.24-4.72-1.06-2.85-4.3-2.32-11.21,3.75-13,6.07-1.78,4.89,1.13,4,1.73"/>
        <path class="cls-10" d="M79.71,179.79s-1.67-1.62-3.52-3.57c-1.84-1.95-4.52-4.07-2.62-6.02,1.9-1.95,8.48-4.58,8.03-5.64-.45-1.06-1.33-2.51-4.15-.95-2.82,1.56-8.35,3.35-6.45,8.65,1.9,5.3,4.46,9.99,8.65,9.71,0,0,1.4-.84.06-2.18Z"/>
        <path class="cls-10" d="M80.88,170.64s-1.34-.61-3.79-2.79c-2.46-2.18-6.41-3.63-2.57-6.14,3.85-2.5,10.32-4.87,10.16-5.89-.17-1.02-3.61-1.64-5.88-.52-2.27,1.12-9.36,3.63-8.49,7.75.87,4.13,5.3,9.4,8.23,10.1,2.93.7,4.24-.84,2.34-2.51Z"/>
        <path class="cls-10" d="M86.63,163.55s-2.62-.28-5.19-2.29c-2.56-2.01-9.27-5.2-7.59-7.41,1.68-2.21,4.57-4.64,9.32-5.31,4.74-.67,4.11-1.9,3.73-2.23-.38-.34-3.19-1.17-6.53,0-3.34,1.17-12.99,3.46-9.2,9.49,3.79,6.03,9.93,10.82,14.67,10.04,4.74-.78.78-2.29.78-2.29Z"/>
        <path class="cls-10" d="M102.8,152.15s-8.45,4.56-10.84,4.87c-2.39.31-11.1-.93-14.11-3.53-3.01-2.59-10.16-6.74-6.64-11.72,3.53-4.98,15.66-5.29,17.27-5.18,1.61.1,1.51,2.38-2.64,3.01-4.15.62-13.38,3.11-12.34,5.5,1.04,2.39,9.02,9.54,14.98,8.19,5.96-1.35,18.11-8.92,14.32-1.14Z"/>
        <path class="cls-10" d="M102.23,141.47s-5.08,1.45-7.05,2.18c-1.97.73-10.99,1.04-14.62-2.18-3.63-3.21-6.92-3.71-4.4-5.64,2.53-1.93,9.58-3.8,11.65-4.62,2.07-.83,5.7-3.73,5.08-4.05-.62-.31-7.05.62-8.82,1.56-1.76.93-11.92,3.53-11.2,7.67.73,4.15,6.74,10.58,13.69,10.89,6.95.31,13.6-.41,16.24-2.18,2.64-1.76.73-4.01-.58-3.63Z"/>
        <path class="cls-11" d="M92.71,231.12s.13-2.76-1.33-4.28c-1.46-1.52-18.87-7.66-25.79,7.4,0,0-3.57,13.5,4.13,12.5,0,0,3.79-.67,3.9,2.23.11,2.9,2.75,3.79,5.11,4.46,2.36.67,4.93,4.8,4.82,9.93-.11,5.13,3.01,2.93,5.24,2.02,2.23-.91,9.36.34,11.65,4.4,2.3,4.06,6.65,1.87,7.43,1.35.78-.52,2.26-5.8-2.44-6.95-4.7-1.15-13.52-6.06-12.29-12.42,1.23-6.36-2.46-4.57-3.12-5.47-.67-.89,3.12-5.58,4.91-7.03,1.79-1.45-1.72-6.81-2.23-8.15Z"/>
        <path class="cls-10" d="M75.16,285.59s.95-2.7,2.05-5.04c1.1-2.34-.44-3.58-.66-6.8-.22-3.22-1.31-5.99,2.85-8.37,4.16-2.38,6.43-4.5,3-9.69-3.44-5.19-7.02-1.46-8.4,2.34-1.39,3.8-4.02.44-4.9-.29-.88-.73-12.13-1.67-7.6,11.63,4.53,13.3,5.48,17.68,6.72,29.89,1.24,12.2,6.87,38.88,6.94,48.6.07,9.72-.51,25.36-2.41,27.91-1.9,2.56-3.8,14.32,2.63,14.18,6.43-.14,3.95-4.89,10.09-2.05,6.14,2.85,10.52,3.14,10.01-1.24-.51-4.38,2.27-7.89-.37-9.94-2.63-2.04-7.45-7.82-10.16-24.55-2.7-16.74-10.59-62.56-9.79-66.58Z"/>
        <path class="cls-15" d="M77.83,499.82s-1.66,5.28-1.97,6.57c-.31,1.29,1.23.31,2.58,0,1.35-.31,1.04.8,1.96,1.04.92.24,6.14.49,5.47-1.72-.68-2.21.68-2.4,1.23-4.05.55-1.66-7.37-4.73-9.27-1.84Z"/>
        <path class="cls-15" d="M77.16,505.34s-5.71,4.11-5.25,4.91c.46.8,2.92.37,4.82.31,1.9-.06,4.73.98,6.29,1.84,1.57.86,3.04.25,3.16-1.66.12-1.9.92-1.91,1.29-2.89.37-.98-6.64-5.42-10.32-2.52Z"/>
        <path class="cls-10" d="M84.69,511.71s1.41,1.06.57,2.44c-.85,1.38-2.58,3.92-1.94,6.36.64,2.44.42,2.86-.42,2.26-.85-.6-4.59.25-4.17-2.05.42-2.3,1.48-3.29,1.52-4.7.04-1.41-.14-6.18,2.3-6.22,2.44-.04,1.84,1.6,2.16,1.91Z"/>
        <path class="cls-10" d="M79.69,521.22s-1.42.45-1.18,1.8c.25,1.35.19,2.09-.03,2.97s.91,3.5,2.18,1.56c1.27-1.94,2.26-2.54,2.65-3.08.39-.53.25-2.83-.81-3.25-1.06-.42-2.43-.18-2.82,0Z"/>
        <path class="cls-10" d="M79.36,526.8s-1.91-.35-1.98.46c-.07.81-.42.99-.56,2.15-.14,1.17.36,1.98,1.88,1.17,1.52-.81,2.29-1.2,2.15-1.94-.14-.74-1.48-1.84-1.48-1.84Z"/>
        <path class="cls-10" d="M80.03,509.13s-2.03.03-3.24,2.93c-1.22,2.9-5.77,9.36-2.7,9.65,3.07.28,1.71-.35,2.45-2.12.74-1.77,2.75-5.94,3.49-6.57.74-.64,2.47-4.24,0-3.89Z"/>
        <path class="cls-10" d="M75.43,520.98s.96,1.3.25,2.46c-.71,1.17-2.09,4.24-3,2.23-.92-2.01.39-5.27,1.02-5.55.64-.28,1.18.19,1.73.86Z"/>
        <path class="cls-10" d="M74.87,525.49s-1.46,2.86-1.83,2.97c-.37.11-1.87.05-1.16-1.49.71-1.54,2-3.32,2.99-1.48Z"/>
        <path class="cls-10" d="M73.04,529.13s-2.56,2.44-2.66,1.13c-.11-1.31.67-2.83,1.5-2.86.83-.04,1.32.46,1.16,1.73Z"/>
        <path class="cls-10" d="M76.17,509.11s-6.54,9.25-6.36,10.45c.18,1.2,1.2,2.32,1.77,1.43.57-.89,1.79-5.28,4.36-6.9,2.57-1.63,2.46-7.29.23-4.97Z"/>
        <path class="cls-10" d="M69.81,520.69s-1.98,2.79-1.48,3.46c.5.67.39,1.7,1.8,0,1.41-1.7,1.87-3.22,1.27-3.78-.6-.57-1.02-.56-1.59.32Z"/>
        <path class="cls-10" d="M69.53,525.08s-2.4,4.55-3.29,4.12c-.88-.42-.11-3.11,2.33-5.05,2.44-1.94,1.31.27.95.93Z"/>
        <path class="cls-10" d="M73.7,509.79s-5.48,7.76-5.34,8.76c.15,1.01,1.01,1.95,1.48,1.2.47-.75,1.51-4.43,3.66-5.79,2.15-1.36,2.06-6.12.2-4.17Z"/>
        <path class="cls-10" d="M68.36,519.5s-1.66,2.34-1.24,2.9c.42.57.33,1.43,1.51,0,1.19-1.42,1.57-2.69,1.07-3.17-.5-.47-.86-.47-1.34.27Z"/>
        <path class="cls-10" d="M68.12,523.19s-2.02,3.82-2.76,3.46c-.74-.35-.09-2.61,1.96-4.24,2.05-1.63,1.1.23.8.78Z"/>
        <path class="cls-10" d="M71.26,510.16s-4.96,6.33-4.83,7.16c.14.82.91,1.59,1.34.98.43-.61,1.36-3.62,3.31-4.73,1.95-1.11,1.87-5,.18-3.41Z"/>
        <path class="cls-10" d="M66.43,518.1s-1.5,1.91-1.12,2.37c.38.46.29,1.16,1.37,0,1.07-1.16,1.42-2.21.97-2.59-.46-.39-.78-.38-1.21.22Z"/>
        <path class="cls-10" d="M66.22,521.1s-1.83,3.12-2.5,2.83c-.67-.29-.08-2.13,1.77-3.46,1.85-1.33,1,.18.73.63Z"/>
        <path class="cls-10" d="M113.47,231.4s3.9.04,5.13-.58c1.23-.61,5.7-2.67,6.06-1.05.36,1.62,1.16,2.92.65,4.22-.51,1.3-.58,5.49-1.59,5.56-1.01.07-2.74,1.07-3.68,1.6s-3.82,1.69-3.64,6.6c.18,4.91-6.93,6.46-8.52,6.75l.31-23.1s3.7.03,5.28,0Z"/>
        <path class="cls-10" d="M101.16,122.28s-3.6-.52-5.68,0c-2.07.52-17.93,5.3-16.64,7.11,1.29,1.81,7.93,7.62,21.82,4.82,0,0,8.41,1.14,2.13,4.05,0,0-4.83-.62-7.01-.42-2.18.21-5.18,2.07-9.44-.62-4.25-2.7-12.4-4.6-9.64-10.27,2.76-5.66,14.96-7.88,17.33-7.99,2.37-.1,11.23-1.25,7.11,3.32Z"/>
        <path class="cls-10" d="M99.22,125.91s4.87-.93,5.39,0c.52.93,1.45,3.42-2.7,3.32-4.15-.1-16.8,1.87-21.26-5.6-4.46-7.47.52-8.81,2.28-9.85,1.76-1.04,5.29-1.14,5.39,0,.1,1.14-3.63,2.38-4.46,3.11-.83.73-4.15,1.42-1.35,4.29,2.8,2.87,9.54,5.15,16.7,4.74Z"/>
        <path class="cls-10" d="M98.21,119.9s-18.77.1-11.06-11.83c0,0,4.68-6.79,15.38-2.51,0,0,1.76,4.58-4.87,1.57,0,0-7.28.48-6.64,3.94.64,3.46-.81,4.47,7.53,5.71,8.34,1.24,2.28,4.67-.34,3.11Z"/>
        <path class="cls-13" d="M102.8,154.22s-8.15,4.46-9.7,6.33c-1.56,1.87-6.17,2.28-7.81,2.8-1.63.52-1.32,1.14-1.32,2.28s3.84,1.24,5.29,1.56c1.45.31,0,1.45-1.45,2.18-1.45.73-6.64.31-7.16.42-.52.1-2.49,2.9-1.35,3.53,1.14.62,6.85.93,6.74,2.18-.1,1.24,1.14,4.46-5.19,3.53,0,0-2.49-.83-3.01,1.76-.52,2.59,1.87,1.56,3.53,2.28,1.66.72,1.04,1.45.21,1.97-.83.52-1.97,1.45-4.25,0-2.28-1.45-2.79,3.53,1.51,4.98,4.3,1.45.46,2.8-.99,2.38-1.45-.41-1.9-2.18-2.25-1.24-.35.93-1.58,4.05,3.24,3.53,4.82-.52,7.3-9.44,9.17-14.52,1.87-5.08,14.22-20.76,16.13-22.77,1.91-2.01.97-4.47-1.35-3.15Z"/>
        <path class="cls-10" d="M113.32,164.99s.92-.43,2.57.49c1.65.92,7.29,6.4,10.35,6.97,3.06.57,4.96,11.41,1.84,7.18-3.13-4.23-7.35-7.05-9.56-8.94-2.21-1.9-3.31-2.08-4.78-2.51-1.47-.43-1.84-2.88-.43-3.19Z"/>
        <path class="cls-10" d="M112.83,173.32s1.84,1.41,4.17,2.39c2.33.98,13.54,6.43,14.76,8.15,1.23,1.72,1.95,5.51-1.32,3.55-3.27-1.96-12.56-8.76-14.9-9.67-2.34-.92-6.57-5.51-2.71-4.41Z"/>
        <path class="cls-10" d="M112.77,181.59s2.26-1.04,5.08,1.9c2.82,2.94,6.87,3.86,9.29,7.17,2.42,3.31,7.31,6.19,3.3,6.13-4.01-.06-5.7-5.39-8.41-7.23-2.71-1.84-11.64-5.58-9.25-7.96Z"/>
        <path class="cls-7" d="M153.45,125.31s-1.08,2.95-3.14,4.08c-2.06,1.13-1.08,3.6-1.79,6.43-.71,2.83-12.43,25.95-17.1,15.96-4.67-9.98-5.18-18.56-6.06-19.64-.88-1.08-.09-7.79,0-8.83.09-1.04,1.7-4.7,5.18-5.39,3.47-.69,9.02-1.41,9.89,0,.87,1.41,3.01.43,4.06-.22,1.05-.65,6.19-1.85,6.9.54.72,2.4,3.13,3.69,2.06,7.05Z"/>
        <path class="cls-10" d="M149.65,117.45c.24,0,4.02.22,4.76-.52.74-.74,1.79-1.28,1.12-1.53-.67-.25-2.08-1.29-2.08-1.29,0,0-1.28-2.73,2.3-1.77,3.58.95,4.77,1.92,2.09,4.38-2.68,2.46-2.83,3.65-4.39,3.79-1.56.15-2.6.37-3.12-.37-.52-.74-3.35-2.73-.67-2.68Z"/>
        <path class="cls-10" d="M152.11,120.65s-1.86,1.34-1.04,4.01c.82,2.68,5.36,5.36,6.84,21.65,1.49,16.29,3.64,38.76,2.23,43-1.41,4.24-5.65,8.18-1.71,10.04,3.94,1.86,3.72-.07,4.91-.45,1.19-.37,3.2.3,4.76.67,1.56.37,4.24-.97,3.35-3.57-.89-2.6.51-2.16.18-3.42-.33-1.26-4.72-4.98-6.05-14.95-1.34-9.97-1.49-24.85-1.79-30.2-.3-5.36-3.35-15.77-1.12-20.23,2.23-4.46-1.26-6.24-2.53-6.54-1.26-.3-5.88-2.68-8.03,0Z"/>
        <path class="cls-10" d="M167.51,205.68s-1.49-3.72-1.49-4.61-1.04-2.05-2.75-.92c-1.71,1.14-4.02.39-3.57,2.18.45,1.79,8.11,19.94,11.46,33.85,3.35,13.91,8.78,31.24,9.37,31.32.6.08.08-.74.6-1.34.52-.6,4.02-1.12,2.46-3.57-1.56-2.46-8.26-23.06-9.52-26.86-1.27-3.79-6.84-24.55-6.69-25.89.15-1.34.88-2.22.15-4.17Z"/>
        <path class="cls-10" d="M171.68,206.27s.34-2.01.13-3.12c-.21-1.12-.65-3.82-2.07-3.47-1.41.35-4.05-.03-3.72,1.39.33,1.42,2.7,3.72,2.91,6.03.21,2.31-.16,7.07,2.29,10.12,2.46,3.05,7.51,18.6,9.15,23.95,1.64,5.36,4.24,19.12,4.09,22.69-.15,3.57,2.68-.15,3.27-.45.6-.3,5.88,1.93,3.94-2.16-1.93-4.09-5.73-13.32-8.26-20.09-2.53-6.77-11.08-32.14-11.75-34.89Z"/>
        <path class="cls-10" d="M195.93,272.18s2.23-.07,1.79-1.79c-.45-1.71-3.5-3.99-4.98-5.01-1.49-1.02-3.57-1.76-4.98-.65-1.41,1.12-4.61,1.34-5.51,1.93-.89.59-2.75,1.71-2.31,2.9.45,1.19,2.08,4.09,2.31,5.06.22.97,2.53.89,3.94.45,1.41-.45,1.86-.59,3.05-.45,1.19.15,1.34-.3,1.86-.97.52-.67.89-1.56,1.71-1.12.82.45,2.46-.74,3.13-.37Z"/>
        <path class="cls-10" d="M184.62,275.75s.89,2.23,0,3.72c-.89,1.49-.35,6.84.2,7.51.55.67,2.23,5.13.2,5.28-2.03.15-2.03-1.12-1.96-2.38.07-1.26-.3-6.92-1.12-7.96-.82-1.04-1.49-3.57-1.04-4.46.45-.89,1.41-3.94,3.72-1.71Z"/>
        <path class="cls-10" d="M185.99,292.28s-.04.36,0,2.15c.04,1.78.56,3.57.78,4.39.22.82.84,2.46-.4,2.6-1.24.15-1.91.07-2.06-2.6-.15-2.68-.55-4.46-.94-5.13-.39-.67.42-2.31,1.09-2.23.67.08,1.54-.57,1.52.83Z"/>
        <path class="cls-10" d="M187.13,301.46s.54,4.72.84,5.46c.3.74-.89,1.27-1.56-.45-.67-1.71-1.89-5.43-1.21-5.73.68-.3,1.76-.68,1.93.71Z"/>
        <path class="cls-10" d="M188.01,307.22s1.61,4.24,0,4.31c-1.61.08-1.29-5.88,0-4.31Z"/>
        <path class="cls-10" d="M188.73,274.95s-.17,2.06.58,2.66c.75.6-1.35,2.23-.49,4.46.86,2.23,4.16,9.1,3.29,10.2-.87,1.1-1.99,1.77-3.29-.53s-.72-6.47-2.31-9.19c-1.59-2.72-1.47-5.19-1.59-5.72-.12-.54,1.23-3.13,3.81-1.88Z"/>
        <path class="cls-10" d="M192.25,293.01s.99-.3.85,1.34c-.15,1.64.07,4.02.59,4.99.52.97,1.14,3.42-1.44,3.35-2.58-.08-.42-2.01-.64-3.2-.22-1.19-2.91-6.19-1.93-6.19.97,0,1.81-.7,2.58-.28Z"/>
        <path class="cls-10" d="M193.64,302.33s1.17.88,1.24,2.96c.08,2.08,1.71,3.94,1.04,4.76-.67.82-1.82,1.41-2.29-1.11-.47-2.53-1.63-3.82-1.83-4.89-.2-1.06.93-3,1.83-1.72Z"/>
        <path class="cls-10" d="M195.63,310.35s.61.07.45,1.18c-.16,1.12.21,1.41.51,2.01.3.6-.89,2.23-1.49.97-.6-1.27-.56-1.79-.95-2.31-.39-.52,0-2.96,1.48-1.85Z"/>
        <path class="cls-10" d="M191.81,272.72s.17,1.44.77,2.68c.59,1.25.67,1.32.67,3.11s3.69,10.86,4.52,11.68c.49.48.69,1.94.18,2.69-.36.52-1.06.7-2.24,0-2.9-1.72-1.41-3.29-2.23-5.15-.82-1.86-1.94-8.41-2.98-9.07-1.03-.67-2-3.41-1.34-3.7.67-.29,2.66-2.23,2.66-2.23Z"/>
        <path class="cls-10" d="M198.25,293.34s1.24.34,1.02,1.53c-.22,1.19,0,4.05.6,5.6.6,1.55.09,3.48-.81,3.11-.9-.37-.19-.22-1.29-2.82-1.1-2.6-.93-4.17-1.68-5.21-.76-1.04-.95-2.54,0-2.2s1.82-.15,2.16,0Z"/>
        <path class="cls-10" d="M199.78,303.3s.68-.28.83.74c.15,1.02.23,3.92.6,4.81.37.89-.38,2.2-1.08,1.21-.71-.99-.18-3.07-.85-3.74-.67-.67-1.11-3.09-.3-3.06l.81.03Z"/>
        <path class="cls-10" d="M201.31,310.07s.57.8.5,1.47c-.08.67.75,1.49.82,2.01.08.52-.77,1.26-1.31.67-.54-.59-.25-1-.77-1.69-.52-.69-.4-3.03.77-2.45Z"/>
        <path class="cls-10" d="M195.44,272.72c.1.08,1.9,1.21,1.97,2.68.08,1.47.3,4.82,1.86,6.82,1.56,2.01,5.22,6.84,3.35,7.74-1.86.89-2.44-2.01-4.09-4.54-1.65-2.53-4.23-7.27-4.94-8.33-.72-1.06-2.34-4.31-1.34-4.37,1-.07,2.31-.69,3.19,0Z"/>
        <path class="cls-10" d="M202.88,289.78s.85,1.63,1.07,3.51c.22,1.88,2.75,7.05.67,7.18-2.08.13-1.55-2.77-2-4.41-.45-1.64-2.97-3.81-2.38-4.7.59-.88.15-1.11,2.38-1.4"/>
        <path class="cls-10" d="M205.45,300.47s.45.13.67,1.77c.22,1.64,1.64,4.9,0,4.61-1.64-.29-.74-1.6-1.86-3.18-1.12-1.58-1.44-3.62-.54-3.41.91.21,1.13.67,1.72.21Z"/>
        <path class="cls-10" d="M206.9,306.84s-.11.67,0,1.27c.11.6.93,2.01,0,2.31-.93.29-.04-.41-.85-1.18-.82-.76-2.05-2.17-.6-2.29l1.45-.11Z"/>
        <path class="cls-10" d="M198.25,271.14s1.62.74,2.44,1.93,6.17,4.46,3.72,6.47c-2.45,2.01-1.74-1.04-3.1-2.09-1.36-1.04-3.99-3.06-4.66-3.7-.68-.65-.31-1.88,1.61-2.62Z"/>
        <path class="cls-10" d="M205.05,278.8s.92-.08,1.85.89c.93.97,4.87,2.71,1.82,3.92,0,0-.52.17-1.82-1.84-1.3-2.01-2.09-1.29-2.56-1.56"/>
        <path class="cls-10" d="M210.21,282.56s1.04.82,1.56,1.39c.52.58,2.75,2.44.67,2.51-2.08.07-1.86-.74-2.23-1.41-.37-.67-1.19-3.51,0-2.49Z"/>
        <path class="cls-10" d="M140.8,192.01s2.76-3.18.41-5.69c-2.36-2.51-10.17-10.6-10.62-11.33-.45-.73,1.97-2.68,5.78,1.51,3.81,4.18,10.17,7.75,7.22,13.56-2.96,5.8-3.12,3.57-2.79,1.95Z"/>
        <path class="cls-10" d="M137.09,173.6s7.62,2.73,6.95,6.63c-.67,3.91-4.25,4.91-4.16,5.75.09.84,1.87,3.24,4.72-1.06,2.85-4.3,2.32-11.21-3.75-13-6.07-1.78-4.89,1.13-4,1.73"/>
        <path class="cls-10" d="M137.62,179.79s1.67-1.62,3.51-3.57c1.84-1.95,4.52-4.07,2.62-6.02-1.9-1.95-8.48-4.58-8.03-5.64.45-1.06,1.33-2.51,4.15-.95,2.82,1.56,8.35,3.35,6.45,8.65-1.9,5.3-4.46,9.99-8.65,9.71,0,0-1.4-.84-.06-2.18Z"/>
        <path class="cls-10" d="M136.45,170.64s1.34-.61,3.79-2.79c2.45-2.18,6.41-3.63,2.57-6.14-3.85-2.5-10.32-4.87-10.15-5.89.17-1.02,3.61-1.64,5.88-.52,2.27,1.12,9.36,3.63,8.49,7.75-.87,4.13-5.3,9.4-8.23,10.1-2.93.7-4.24-.84-2.35-2.51Z"/>
        <path class="cls-10" d="M130.7,163.55s2.62-.28,5.19-2.29c2.56-2.01,9.27-5.2,7.59-7.41-1.68-2.21-4.58-4.64-9.32-5.31-4.74-.67-4.11-1.9-3.73-2.23.38-.34,3.19-1.17,6.52,0,3.34,1.17,12.99,3.46,9.2,9.49-3.8,6.03-9.93,10.82-14.67,10.04-4.74-.78-.78-2.29-.78-2.29Z"/>
        <path class="cls-10" d="M114.52,152.15s8.45,4.56,10.84,4.87c2.39.31,11.1-.93,14.11-3.53,3.01-2.59,10.16-6.74,6.64-11.72-3.53-4.98-15.66-5.29-17.27-5.18-1.61.1-1.51,2.38,2.64,3.01,4.15.62,13.38,3.11,12.34,5.5-1.03,2.39-9.02,9.54-14.98,8.19-5.96-1.35-18.11-8.92-14.32-1.14Z"/>
        <path class="cls-10" d="M115.1,141.47s5.08,1.45,7.05,2.18c1.97.73,10.99,1.04,14.62-2.18,3.63-3.21,6.92-3.71,4.4-5.64-2.53-1.93-9.58-3.8-11.65-4.62-2.07-.83-5.7-3.73-5.08-4.05.62-.31,7.05.62,8.82,1.56,1.76.93,11.93,3.53,11.2,7.67-.73,4.15-6.74,10.58-13.69,10.89-6.95.31-13.6-.41-16.24-2.18-2.64-1.76-.73-4.01.58-3.63Z"/>
        <path class="cls-11" d="M124.62,231.12s-.13-2.76,1.33-4.28c1.46-1.52,18.87-7.66,25.79,7.4,0,0,3.57,13.5-4.13,12.5,0,0-3.79-.67-3.9,2.23-.11,2.9-2.75,3.79-5.11,4.46-2.36.67-4.93,4.8-4.82,9.93.11,5.13-3.01,2.93-5.25,2.02-2.23-.91-9.36.34-11.65,4.4-2.3,4.06-6.65,1.87-7.43,1.35-.78-.52-2.26-5.8,2.44-6.95,4.7-1.15,13.51-6.06,12.29-12.42-1.23-6.36,2.46-4.57,3.13-5.47s-3.13-5.58-4.91-7.03c-1.79-1.45,1.72-6.81,2.23-8.15Z"/>
        <path class="cls-10" d="M142.17,285.59s-.95-2.7-2.05-5.04c-1.1-2.34.44-3.58.66-6.8.22-3.22,1.31-5.99-2.85-8.37-4.16-2.38-6.43-4.5-3-9.69,3.43-5.19,7.02-1.46,8.4,2.34,1.39,3.8,4.02.44,4.9-.29.88-.73,12.13-1.67,7.6,11.63-4.53,13.3-5.48,17.68-6.72,29.89-1.24,12.2-6.87,38.88-6.94,48.6-.07,9.72.51,25.36,2.41,27.91,1.9,2.56,3.8,14.32-2.63,14.18-6.43-.14-3.95-4.89-10.08-2.05-6.14,2.85-10.52,3.14-10.01-1.24.51-4.38-2.27-7.89.37-9.94,2.63-2.04,7.45-7.82,10.16-24.55,2.7-16.74,10.59-62.56,9.79-66.58Z"/>
        <path class="cls-15" d="M139.5,499.82s1.66,5.28,1.96,6.57c.31,1.29-1.23.31-2.58,0-1.35-.31-1.04.8-1.96,1.04-.92.24-6.14.49-5.47-1.72.68-2.21-.68-2.4-1.23-4.05-.55-1.66,7.37-4.73,9.27-1.84Z"/>
        <path class="cls-15" d="M140.17,505.34s5.71,4.11,5.25,4.91c-.46.8-2.92.37-4.82.31-1.91-.06-4.73.98-6.29,1.84-1.57.86-3.04.25-3.16-1.66-.12-1.9-.92-1.91-1.29-2.89-.37-.98,6.64-5.42,10.32-2.52Z"/>
        <path class="cls-10" d="M132.64,511.71s-1.41,1.06-.57,2.44c.85,1.38,2.58,3.92,1.94,6.36-.64,2.44-.42,2.86.42,2.26.85-.6,4.6.25,4.17-2.05-.42-2.3-1.48-3.29-1.52-4.7-.04-1.41.14-6.18-2.3-6.22-2.44-.04-1.84,1.6-2.15,1.91Z"/>
        <path class="cls-10" d="M137.64,521.22s1.42.45,1.18,1.8c-.25,1.35-.19,2.09.03,2.97.22.88-.91,3.5-2.19,1.56-1.27-1.94-2.26-2.54-2.65-3.08-.39-.53-.25-2.83.81-3.25,1.06-.42,2.43-.18,2.82,0Z"/>
        <path class="cls-10" d="M137.97,526.8s1.91-.35,1.98.46c.07.81.43.99.56,2.15.14,1.17-.36,1.98-1.87,1.17-1.52-.81-2.29-1.2-2.15-1.94.14-.74,1.48-1.84,1.48-1.84Z"/>
        <path class="cls-10" d="M137.3,509.13s2.03.03,3.24,2.93c1.22,2.9,5.77,9.36,2.7,9.65-3.08.28-1.71-.35-2.45-2.12-.73-1.77-2.75-5.94-3.49-6.57-.74-.64-2.47-4.24,0-3.89Z"/>
        <path class="cls-10" d="M141.9,520.98s-.96,1.3-.25,2.46c.71,1.17,2.08,4.24,3,2.23.92-2.01-.39-5.27-1.02-5.55-.64-.28-1.18.19-1.73.86Z"/>
        <path class="cls-10" d="M142.46,525.49s1.46,2.86,1.83,2.97c.36.11,1.87.05,1.16-1.49-.71-1.54-2-3.32-2.99-1.48Z"/>
        <path class="cls-10" d="M144.29,529.13s2.56,2.44,2.66,1.13c.11-1.31-.67-2.83-1.5-2.86-.83-.04-1.32.46-1.16,1.73Z"/>
        <path class="cls-10" d="M141.15,509.11s6.54,9.25,6.36,10.45c-.18,1.2-1.2,2.32-1.77,1.43-.57-.89-1.79-5.28-4.36-6.9-2.57-1.63-2.46-7.29-.24-4.97Z"/>
        <path class="cls-10" d="M147.52,520.69s1.98,2.79,1.48,3.46c-.49.67-.39,1.7-1.8,0-1.41-1.7-1.87-3.22-1.27-3.78.6-.57,1.02-.56,1.59.32Z"/>
        <path class="cls-10" d="M147.8,525.08s2.4,4.55,3.29,4.12c.88-.42.11-3.11-2.33-5.05-2.44-1.94-1.31.27-.96.93Z"/>
        <path class="cls-10" d="M143.63,509.79s5.48,7.76,5.34,8.76c-.15,1.01-1.01,1.95-1.48,1.2-.47-.75-1.5-4.43-3.66-5.79-2.15-1.36-2.06-6.12-.2-4.17Z"/>
        <path class="cls-10" d="M148.97,519.5s1.66,2.34,1.24,2.9c-.42.57-.33,1.43-1.51,0-1.19-1.42-1.57-2.69-1.07-3.17.5-.47.86-.47,1.34.27Z"/>
        <path class="cls-10" d="M149.21,523.19s2.02,3.82,2.76,3.46c.74-.35.09-2.61-1.96-4.24-2.04-1.63-1.1.23-.8.78Z"/>
        <path class="cls-10" d="M146.07,510.16s4.96,6.33,4.83,7.16c-.13.82-.91,1.59-1.34.98-.43-.61-1.36-3.62-3.31-4.73-1.95-1.11-1.87-5-.18-3.41Z"/>
        <path class="cls-10" d="M150.9,518.1s1.5,1.91,1.13,2.37c-.38.46-.3,1.16-1.37,0-1.07-1.16-1.42-2.21-.97-2.59.46-.39.77-.38,1.21.22Z"/>
        <path class="cls-10" d="M151.12,521.1s1.83,3.12,2.5,2.83c.67-.29.08-2.13-1.77-3.46-1.85-1.33-1,.18-.72.63Z"/>
        <path class="cls-10" d="M116.17,122.28s3.6-.52,5.68,0c2.07.52,17.93,5.3,16.64,7.11-1.29,1.81-7.92,7.62-21.82,4.82,0,0-8.41,1.14-2.13,4.05,0,0,4.83-.62,7.01-.42,2.18.21,5.18,2.07,9.44-.62,4.25-2.7,12.4-4.6,9.64-10.27-2.76-5.66-14.96-7.88-17.33-7.99-2.37-.1-11.23-1.25-7.11,3.32Z"/>
        <path class="cls-10" d="M118.11,125.91s-4.87-.93-5.39,0c-.52.93-1.45,3.42,2.7,3.32,4.15-.1,16.8,1.87,21.26-5.6,4.46-7.47-.52-8.81-2.28-9.85-1.76-1.04-5.29-1.14-5.39,0-.1,1.14,3.63,2.38,4.46,3.11.83.73,4.15,1.42,1.35,4.29-2.8,2.87-9.54,5.15-16.7,4.74Z"/>
        <path class="cls-10" d="M119.12,119.9s18.77.1,11.06-11.83c0,0-4.68-6.79-15.38-2.51,0,0-1.76,4.58,4.88,1.57,0,0,7.28.48,6.64,3.94-.65,3.46.81,4.47-7.53,5.71-8.34,1.24-2.28,4.67.35,3.11Z"/>
        <path class="cls-13" d="M114.52,154.22s8.15,4.46,9.7,6.33c1.56,1.87,6.17,2.28,7.81,2.8,1.63.52,1.32,1.14,1.32,2.28s-3.84,1.24-5.29,1.56c-1.45.31,0,1.45,1.45,2.18,1.45.73,6.64.31,7.15.42s2.49,2.9,1.35,3.53c-1.14.62-6.84.93-6.74,2.18.1,1.24-1.14,4.46,5.19,3.53,0,0,2.49-.83,3.01,1.76.52,2.59-1.87,1.56-3.53,2.28-1.66.72-1.04,1.45-.21,1.97.83.52,1.97,1.45,4.25,0,2.28-1.45,2.79,3.53-1.51,4.98-4.3,1.45-.46,2.8.99,2.38,1.45-.41,1.9-2.18,2.25-1.24.35.93,1.58,4.05-3.24,3.53-4.81-.52-7.3-9.44-9.17-14.52-1.87-5.08-14.22-20.76-16.13-22.77-1.91-2.01-.97-4.47,1.35-3.15Z"/>
        <path class="cls-10" d="M97.73,115.37s-13.61-1.81-16.22-2.36c-2.6-.55-10.86.07-12.72,1.18-1.86,1.1-6.32.09-4.46-1.86,1.86-1.95,6.47-1.38,10.86-3.04,4.39-1.66,9.82.87,12.2.87s10.64-.3,11.61.15c.97.45,2.31,1.24,2.16,2.7-.15,1.46-1.76,2.58-3.42,2.36Z"/>
        <path class="cls-10" d="M119.6,115.37s13.61-1.81,16.22-2.36c2.6-.55,10.86.07,12.72,1.18,1.86,1.1,6.32.09,4.46-1.86-1.86-1.95-6.47-1.38-10.86-3.04-4.39-1.66-9.82.87-12.2.87s-10.64-.3-11.61.15c-.97.45-2.31,1.24-2.16,2.7.15,1.46,1.76,2.58,3.42,2.36Z"/>
        <path class="cls-11" d="M105.12,158.09s.22,26.05,0,30.18c-.21,4.13.08,14.17.1,15.73.02,1.56-.65,17.07-.76,19.08-.11,2.01-2.34,10.15,0,11.27,2.34,1.12,13.17,2.6,13.28-.77.11-3.36-.44-6.82-.89-8.94-.45-2.12-.45-5.24-.89-7.37-.45-2.12-.34-5.13-.34-7.81s-.45-10.15-.67-11.61c-.22-1.45-1.12-10.61-1.23-14.01-.11-3.4-.78-20.92-.33-23.26.45-2.34-1.12-4.42-2.12-4.78-1-.35-5.48-2.46-6.15,2.27Z"/>
        <path class="cls-13" d="M125.14,229.78c-.36-1.62-4.84.43-6.06,1.05-1.23.61-5.13.58-5.13.58-1.58.03-5.28,0-5.28,0,0,0-3.7.03-5.29,0,0,0-3.9.04-5.12-.58-1.23-.61-5.7-2.67-6.06-1.05-.36,1.62-1.16,2.92-.65,4.22.51,1.3.58,5.49,1.59,5.56,1.01.07,2.74,1.07,3.68,1.6.94.53,3.41,1.69,3.24,6.6-.16,4.43,5.86,6.12,7.5,6.62v.13s.29-.04.41-.06c.12.02.41.04.41.06v-.13c3.28-.5,8.36-2.19,8.2-6.62-.18-4.91,2.86-6.07,3.8-6.6s2.75-1.53,3.76-1.6c1.01-.07,1.12-4.26,1.63-5.56.51-1.3-.25-2.6-.61-4.22Z"/>
        <path class="cls-13" d="M82.98,388.78s-4.9,2.7-6.72-1.97c-1.83-4.68-3.51-8.4,1.02-9.5,4.53-1.09,6.58-.36,7.23,2.34.66,2.7.66,7.75-1.53,9.14Z"/>
        <path class="cls-13" d="M134.35,388.78s4.9,2.7,6.72-1.97,3.51-8.4-1.02-9.5c-4.53-1.09-6.58-.36-7.23,2.34-.66,2.7-.66,7.75,1.53,9.14Z"/>
        <path class="cls-15" d="M115.4,140.52c0-1.04-1.37-2.11-1.31-4.86.07-2.75-2.58-7.04-.5-9.45,2.08-2.41,4.84-5.7,4.44-6.3-.4-.6-.42-3.52-.25-4.26.17-.74-.93-2.38-1.91-3.12-.97-.74-6.96.83-6.96.83,0,0-5.99-1.57-6.96-.83-.97.74-2.07,2.38-1.9,3.12.17.74.15,3.65-.25,4.26-.4.6,2.36,3.89,4.43,6.3,2.08,2.41-.57,6.7-.5,9.45.07,2.75-1.31,3.82-1.31,4.86s.44,3.86-.17,5.8c-.6,1.94.14,3.19.64,4.36.5,1.17-.18,3.79,2.84,6.7,0,0,1.39,1.94,3.17,1.94s3.17-1.94,3.17-1.94c3.02-2.92,2.33-5.53,2.84-6.7.5-1.17,1.24-2.41.64-4.36-.6-1.94-.17-4.76-.17-5.8Z"/>
        <path class="cls-11" d="M113.44,90.28c-.52-.28-.97-1.66-.97-1.66-1.38-.35-2.75-.2-3.42-.09-.67-.12-2.04-.27-3.42.09,0,0-.45,1.38-.97,1.66-.52.28-1.55,1-1.03,1.45.52.44.9,1.17,1.61,1.17s1.09-.11,1.68,0c.35.07,1,.13,1.61.19,0,0,.32.06.52.04.2.02.52-.04.52-.04.61-.06,1.26-.12,1.61-.19.58-.11.97,0,1.68,0s1.1-.72,1.61-1.17c.52-.45-.52-1.17-1.03-1.45Z"/>
        <path class="cls-10" d="M113.44,94.74c-.52-.28-.97-1.66-.97-1.66-1.38-.35-2.75-.2-3.42-.09-.67-.11-2.04-.27-3.42.09,0,0-.45,1.38-.97,1.66-.52.28-1.55,1-1.03,1.45.52.44.9,1.17,1.61,1.17s1.09-.11,1.68,0c.35.07,1,.13,1.61.19,0,0,.32.06.52.04.2.02.52-.04.52-.04.61-.05,1.26-.12,1.61-.19.58-.11.97,0,1.68,0s1.1-.72,1.61-1.17c.52-.45-.52-1.17-1.03-1.45Z"/>
        <path class="cls-11" d="M113.44,99.2c-.52-.28-.97-1.66-.97-1.66-1.38-.35-2.75-.2-3.42-.09-.67-.11-2.04-.27-3.42.09,0,0-.45,1.38-.97,1.66-.52.28-1.55,1-1.03,1.45.52.44.9,1.17,1.61,1.17s1.09-.11,1.68,0c.35.07,1,.13,1.61.19,0,0,.32.06.52.04.2.02.52-.04.52-.04.61-.05,1.26-.12,1.61-.19.58-.11.97,0,1.68,0s1.1-.72,1.61-1.17c.52-.45-.52-1.17-1.03-1.45Z"/>
        <path class="cls-10" d="M113.44,103.67c-.52-.28-.97-1.66-.97-1.66-1.38-.36-2.75-.2-3.42-.09-.67-.12-2.04-.27-3.42.09,0,0-.45,1.38-.97,1.66-.52.28-1.55,1-1.03,1.45.52.44.9,1.17,1.61,1.17s1.09-.11,1.68,0c.35.07,1,.13,1.61.19,0,0,.32.06.52.04.2.02.52-.04.52-.04.61-.05,1.26-.12,1.61-.19.58-.11.97,0,1.68,0s1.1-.72,1.61-1.17c.52-.44-.52-1.17-1.03-1.45Z"/>
      </g>
      <g>
        <path class="cls-12" d="M559.94,22.61v-4.01h5.48l.8-1.2h5.08c-.09.09-.18.22-.27.4-.27.27-.45.54-.54.8h9.77v4.01h-3.34c-.54,1.43-1.2,2.68-2.01,3.75,1.87.62,3.83,1.29,5.89,2.01l-2.41,3.88c-2.32-1.07-4.68-2.14-7.09-3.21-2.23,1.43-5.75,2.59-10.57,3.48-.09-.18-.18-.45-.27-.8-.27-.54-.67-1.6-1.2-3.21-.27,1.87-1.25,2.9-2.94,3.08-.45.09-1.03.13-1.74.13-.54.09-.98.13-1.34.13,0-.18-.09-.58-.27-1.2-.27-.98-.45-1.74-.54-2.27-.36,1.34-.8,2.76-1.34,4.28-.27-.36-.62-.85-1.07-1.47-.89-1.34-1.61-2.27-2.14-2.81.98-2.5,1.43-6.56,1.34-12.17V1.2h10.03v27.02c2.5-.27,4.55-.62,6.15-1.07l-1.2-.54c-.27.36-.54.67-.8.94l-3.88-1.61c.98-1.07,1.92-2.18,2.81-3.34h-2.41ZM554.06,27.69c.8,0,1.16-.36,1.07-1.07v-4.68h-1.74c-.09,2.59-.31,4.5-.67,5.75h1.34ZM555.13,5.48h-1.61v4.01h1.61v-4.01ZM553.52,16.19v1.61h1.61v-4.01h-1.61v2.41ZM560.08,5.35V1.34h19.93v4.01h-4.95v1.74h4.68v10.03h-19.4V7.09h4.68v-1.74h-4.95ZM564.09,10.97v2.41h1.61v-2.41h-1.61ZM570.25,24.75c.71-.62,1.25-1.34,1.61-2.14h-4.41l-.8,1.07c1.25.45,2.45.8,3.61,1.07ZM569.18,5.35v1.74h1.61v-1.74h-1.61ZM569.18,10.97v2.41h1.61v-2.41h-1.61ZM575.86,10.97h-1.61v2.41h1.61v-2.41Z"/>
        <path class="cls-12" d="M583.22,32.24V1.07h30.5v31.17h-5.08v-1.34h-20.47v1.34h-4.95ZM590.18,8.83v-2.54h3.21l.27-1.07h-5.48v21.81h9.36v-.94h-8.83v-2.54h1.2v-3.48h7.63v-1.07h-7.76v-5.75h17.26v5.75h-4.82v1.07h5.35v2.41h-5.35v1.07h5.75v2.54h-5.75v.94h6.42V5.22h-10.43l-.27,1.07h8.83v3.48h1.2v2.54h-19.13v-2.54h3.48l.27-.94h-2.41ZM593.79,22.47v1.07h3.75v-1.07h-3.75ZM594.46,15.52v1.2h7.89v-1.2h-7.89ZM602.08,8.83h-4.82l-.27.94h5.08v-.94Z"/>
        <path class="cls-12" d="M626.16,32.24h-5.22v-11.5c-.27.27-.71.67-1.34,1.2-.62.54-1.12.98-1.47,1.34-.09-.36-.27-.94-.54-1.74-.62-1.78-1.07-3.08-1.34-3.88,3.03-2.59,5.57-5.57,7.63-8.96h-6.29V3.75h8.56c.54-1.16.98-2.41,1.34-3.75l5.89.54c-.36,1.07-.76,2.14-1.2,3.21h16.72v4.95h-18.86c-1.07,2.14-2.36,4.19-3.88,6.15v17.39ZM635.13,9.77h5.48v5.48h6.82v4.82h-6.82v6.29h8.16v4.55h-21.67v-4.55h8.03v-6.29h-6.96v-4.82h6.96v-5.48Z"/>
        <path class="cls-12" d="M661.08,17.93h1.34c.09-1.25.13-2.59.13-4.01h-1.2v-4.41h1.2c.09-1.25.13-2.54.13-3.88h-1.47V1.2h10.7c0,4.91-.05,11.06-.13,18.46v7.76c0,2.5-1.07,3.79-3.21,3.88-.89.09-2.05.13-3.48.13-.09-.36-.18-.89-.27-1.6-.18-.71-.31-1.2-.4-1.47-.8,1.61-1.61,2.99-2.41,4.15-.09-.09-.18-.22-.27-.4-.89-1.43-1.7-2.63-2.41-3.61h-3.88v2.27h-3.75V2.14h8.83v24.48c.89-1.43,1.43-2.9,1.61-4.41h-1.07v-4.28ZM655.46,7.09v16.72h1.47V7.09h-1.47ZM667.9,26.09v-3.88h-1.87c-.27,1.96-.67,3.7-1.2,5.22h1.74c.89,0,1.34-.45,1.34-1.34ZM667.9,17.93v-4.01h-1.47c0,.54-.05,1.25-.13,2.14v1.87h1.61ZM668.04,5.62h-1.47v3.88h1.47v-3.88ZM681.01,14.58c1.52,1.96,2.23,4.91,2.14,8.83,0,2.59-.98,4.1-2.94,4.55-.62.09-1.38.22-2.27.4l-.67-2.27v6.02h-4.28V1.6h9.9v4.41l-1.87,8.56ZM677.27,6.02v17.12h.8c.8-.09,1.2-.67,1.2-1.74.09-2.41-.53-4.59-1.87-6.55l1.61-8.83h-1.74Z"/>
        <path class="cls-12" d="M709.11,18.86v1.74h7.36v4.41h-7.36v1.87h8.43v4.28h-21.67v-4.28h8.56v-1.87h-7.22v-2.81l-1.61,1.61c-.27-.27-.62-.71-1.07-1.34-.62-.8-1.12-1.38-1.47-1.74v11.37h-4.55v-10.97c-.09.09-.18.22-.27.4-.71.8-1.52,1.65-2.41,2.54-.09-.62-.27-1.61-.53-2.94-.27-1.34-.49-2.32-.67-2.94,2.32-1.78,4.28-4.37,5.89-7.76h-4.82v-4.42h2.41V.8h5.08v5.22h2.41v3.88c-.36.71-.89,1.74-1.61,3.08-.45.8-.76,1.43-.94,1.87v1.47c.98-1.07,1.92-2.23,2.81-3.48l1.47,1.34V1.34h18.86v17.52h-7.09ZM695.33,18.46l2.27,2.14h6.82v-1.74h-7.09v-2.68c-.62.8-1.29,1.56-2.01,2.27ZM702.01,5.75v2.27h2.41v-2.27h-2.41ZM702.01,12.17v2.41h2.41v-2.41h-2.41ZM711.51,5.75h-2.41v2.27h2.41v-2.27ZM709.11,12.17v2.41h2.41v-2.41h-2.41Z"/>
        <path class="cls-12" d="M738,21.4v1.2h-5.35v-1.61c-.09-2.68,1.07-4.86,3.48-6.55,2.32-1.69,3.43-3.3,3.34-4.82-.27-1.87-1.34-2.9-3.21-3.08-2.5,0-4.06,1.65-4.68,4.95l-6.02-1.2c1.07-6.15,4.95-9.14,11.64-8.96,5.53.27,8.52,2.77,8.96,7.49.18,3.03-1.43,5.62-4.82,7.76-2.5,1.7-3.61,3.3-3.34,4.82ZM738.67,31.17h-6.55v-6.15h6.55v6.15Z"/>
      </g>
      <g class="cls-14">
        <g class="cls-6">
          <path class="cls-8" d="M834.96,453.71c-1.81-2.19-12.5-16.37-27.97-27.84-15.46-11.47-14.05-29.13-15.59-42.4-1.55-13.27-3.48-36.73-6.83-53.48-3.35-16.75-14.69-41.11-25-61.08-10.31-19.98-6.7-48.2-6.06-73.2.64-25-2.58-32.35-12.12-47.04-9.54-14.69-57.99-27.58-69.08-34.28-11.08-6.7-5.55-25-5.55-25,5.28-6.19,12.62-30.8,12.62-30.8,3.61,1.03,4.36,0,4.36,0,5.67-2.97,3.57-14.05,3.7-16.5.13-2.45,1.48-1.8,1.99-7.35.52-5.54-4.78-3.7-4.78-3.7,6.04-61.7-43.88-53.65-43.88-53.65,0,0-49.91-8.05-43.88,53.65,0,0-5.3-1.84-4.79,3.7.52,5.54,1.86,4.9,1.99,7.35.13,2.45-1.97,13.53,3.7,16.5,0,0,.76,1.03,4.36,0,0,0,7.34,24.61,12.62,30.8,0,0,5.54,18.3-5.55,25-11.08,6.7-59.54,19.59-69.08,34.28-9.54,14.69-12.76,22.04-12.12,47.04.64,25,4.25,53.22-6.06,73.2-10.31,19.97-21.65,44.33-25,61.08-3.35,16.75-5.28,40.21-6.83,53.48-1.55,13.27-.13,30.93-15.59,42.4-15.46,11.47-26.16,25.64-27.97,27.84-1.8,2.19-3.22,5.54,1.42,6.57,4.64,1.03,9.15-2.32,9.92-3.22.77-.9,5.54-4.9,7.48-5.16,0,0-.52,5.55-.9,8.57-.39,3.03-.26,6.51-1.16,11.27-.9,4.77-2.84,13.53-3.61,17.14-.77,3.61-6.57,17.79-.13,17.91,0,0,2.06.51,5.67-8.12,3.61-8.64,5.8-21.39,8.38-22.81,0,0,.52-.52-.9,5.67-1.42,6.18-6.7,20.76-6.57,25.27.13,4.5.39,5.15,3.22,5.53,2.84.39,4.38-7.86,5.54-11.47,1.16-3.61,7.86-22.68,10.44-25.77,0,0-3.61,8.37-3.87,11.85-.26,3.48-7.09,24.9-2.32,25.4,4.77.5,6.32-8.91,7.35-12,1.03-3.09,7.6-24.48,7.6-24.48,0,0-2.06,8.76-1.8,11.73.26,2.96-2.58,18.69,2.06,19.33,4.64.64,10.45-15.86,11.1-18.83.65-2.96,2.94-12.02,5.78-16.01,2.84-3.99,2.8-29.89,3.06-34.91.26-5.02-.95-22,7.17-32.18,8.12-10.18,22.95-58.23,24.75-64.54,1.8-6.31,13.47-36.65,13.22-52.89-.26-16.24.78-34.13,1.42-35.94.64-1.81,1.55,6.57,3.48,11.47,1.93,4.9,7.99,28.48,3.74,44.46-4.25,15.98-11.34,28.87-14.3,56.45-2.96,27.58-21.39,90.47-17.4,118.95,4,28.48,9.15,51.03,13.4,70.88,4.25,19.85,14.69,60.31,14.95,72.56.26,12.25.13,38.02-3.74,58.77-3.87,20.75-8.12,52.32-2.32,80.03,5.8,27.71,12.76,57.86,14.17,67.79,1.42,9.92-3.99,21.01-1.55,23.46,2.45,2.45-10.13,15.64-11.81,18.21-1.68,2.58-20.02,15.17-16.42,22.9,0,0,.64.77,1.8.64,0,0-1.16,5.67,5.41,5.28,0,0,.13,8.51,8.12,2.45,0,0,1.42,9.15,10.31,2.96,0,0,9.67,9.53,16.88,3.22,7.22-6.31,5.54-12.76,10.18-18.04,4.64-5.29,9.66-17.79,9.15-27.84,0,0,1.09-6.16,4.44-10.93,3.35-4.77-2.88-21.38-.94-28.08,1.93-6.7-.15-29.68.62-35.87.77-6.18,7.6-54.26,7.99-61.73.39-7.48-6.83-58.25-1.42-70.36,5.41-12.11,6.96-39.18,7.73-46.27.77-7.09.13-37.5,2.45-46.01,2.32-8.5,6.57-54.77,8.25-64.18,1.67-9.41.54-41.63.54-44.46s1.24-5.03,6.13-5.03,6.12,2.19,6.12,5.03-1.13,35.05.54,44.46c1.68,9.41,5.93,55.67,8.25,64.18,2.32,8.5,1.68,38.92,2.45,46.01.77,7.09,2.32,34.15,7.73,46.27,5.41,12.12-1.8,62.89-1.42,70.36.39,7.48,7.22,55.55,7.99,61.73.77,6.19.64,21.91,2.57,28.62,1.93,6.7-6.52,25.5-3.17,30.27,3.35,4.77,4.72,16,4.72,16-.51,10.05,4.51,22.55,9.15,27.84,4.64,5.29,2.96,11.73,10.18,18.04,7.22,6.31,16.88-3.22,16.88-3.22,8.89,6.18,10.31-2.96,10.31-2.96,7.99,6.05,8.12-2.45,8.12-2.45,6.57.39,5.41-5.28,5.41-5.28,1.16.13,1.81-.64,1.81-.64,3.61-7.73-14.86-21.82-16.54-24.4-1.68-2.57-6-11.18-9.25-15.65-5.53-7.61-6.04-10.15-3.98-24.51,1.41-9.92,8.37-40.08,14.17-67.79,5.8-27.71,1.54-59.28-2.32-80.03-3.87-20.75-4-46.52-3.74-58.77.26-12.24,10.69-52.71,14.95-72.56,4.26-19.85,9.41-42.4,13.41-70.88,3.99-28.48-14.44-91.37-17.4-118.95-2.96-27.58-10.05-40.47-14.3-56.45-4.25-15.98,1.8-39.56,3.74-44.46,1.93-4.9,2.83-13.27,3.48-11.47.65,1.8,6.31,14.18,6.06,30.41-.26,16.24,9.53,46.4,11.34,52.71,1.8,6.32,13.66,63.99,21.78,74.17,8.12,10.18,7.01,28.83,7.27,33.86.26,5.02.23,27.63,3.06,31.62,2.84,3.99,5.13,19.03,5.78,22,.65,2.97,6.57,11.17,11.22,10.52,4.64-.64,1.8-16.37,2.06-19.33.26-2.97-1.8-11.73-1.8-11.73,0,0,6.57,21.39,7.6,24.48,1.03,3.09,2.58,12.5,7.35,12,4.77-.5-2.06-21.92-2.32-25.4-.26-3.48-3.87-11.85-3.87-11.85,2.58,3.09,9.28,22.17,10.44,25.77,1.16,3.61,2.7,11.86,5.54,11.47,2.84-.38,3.1-1.03,3.22-5.53.13-4.51-5.16-19.08-6.57-25.27-1.42-6.19-.9-5.67-.9-5.67,2.57,1.42,4.77,14.18,8.38,22.81,3.61,8.63,5.67,8.12,5.67,8.12,6.44-.13.65-14.31-.13-17.91-.77-3.61-2.71-12.37-3.61-17.14-.9-4.77-.77-8.24-1.16-11.27-.38-3.03-.9-8.57-.9-8.57,1.93.26,6.71,4.25,7.48,5.16.78.9,5.28,4.25,9.92,3.22,4.64-1.04,3.22-4.38,1.42-6.57Z"/>
          <path class="cls-15" d="M598.71,415.53c-.02.28-.18,8-1.71,10.79-1.53,2.79-1.89,8.9,3.06,11.42,4.95,2.52,21.86,6.57,26.26,2.43,4.41-4.14,10.8-6.84,11.97-7.02,1.17-.18.72-6.66-.63-7.74-1.35-1.08-9.9-7.28-12.41-3.87-2.52,3.42-.99,6.19-3.87,7.19-2.88,1-14.3,5.77-14.66-3.05-.36-8.82,4.05-10.44,1.62-11.43-2.43-.99-9.2-4.66-9.63,1.26Z"/>
          <path class="cls-15" d="M681.28,415.53c.02.28.18,8,1.71,10.79,1.53,2.79,1.89,8.9-3.06,11.42-4.94,2.52-21.86,6.57-26.26,2.43-4.41-4.14-10.8-6.84-11.96-7.02-1.17-.18-.72-6.66.63-7.74,1.35-1.08,9.9-7.28,12.41-3.87,2.52,3.42.99,6.19,3.87,7.19,2.88,1,14.3,5.77,14.66-3.05.36-8.82-4.05-10.44-1.62-11.43,2.43-.99,9.19-4.66,9.62,1.26Z"/>
          <path class="cls-10" d="M631.65,238.47s-1.65-.77-4.62.88c-2.97,1.65-13.09,11.49-18.59,12.51-5.5,1.02-8.91,20.48-3.3,12.89,5.61-7.59,13.2-12.65,17.16-16.06,3.96-3.41,5.95-3.74,8.58-4.51,2.63-.77,3.29-5.17.77-5.72Z"/>
          <path class="cls-10" d="M632.52,253.43s-3.3,2.53-7.48,4.29c-4.18,1.76-24.31,11.54-26.5,14.62-2.2,3.09-3.51,9.88,2.37,6.38,5.88-3.51,22.55-15.72,26.75-17.37,4.2-1.65,11.79-9.9,4.86-7.92Z"/>
          <path class="cls-10" d="M635.67,268.27s-4.05-1.87-9.11,3.41c-5.06,5.28-12.33,6.93-16.67,12.87-4.34,5.94-13.12,11.11-5.93,11,7.2-.11,10.23-9.68,15.09-12.98,4.86-3.3,20.89-10.01,16.62-14.3Z"/>
          <path class="cls-10" d="M632.07,289.9s-7.81-.14-8.43-1.21c-.62-1.07-1.07-2.45.21-2.9,1.28-.45,7.95-.93,8.68,0,.73.93,1.28,3.94-.45,4.11Z"/>
          <path class="cls-10" d="M632.76,302.58s-5.39-1.18-7.09-1.39c-1.69-.21-8.57.55-6.64,2.25,1.93,1.69,4.11,1.63,7.71,2.73,3.59,1.11,6.79,2.38,6.99,1.14.2-1.24.99-4.11-.97-4.73Z"/>
          <path class="cls-10" d="M632.45,318.38s-2.35,1.73-4.79,1.59c-2.44-.14-10.39-1.52-8.8,2.01,1.59,3.53,11.96,3.21,13.31,2.56,1.35-.66,3.67-8.23.28-6.15Z"/>
          <path class="cls-10" d="M631.27,335.87s-4.39-.35-5.43-.69c-1.04-.35-8.23-2.39-6.91.35,1.31,2.73.24,3.9,1.76,4.22,1.52.31,9.85,1.1,10.99.48,1.14-.62,1.48-4.18-.41-4.35Z"/>
          <path class="cls-10" d="M629.89,352.43s-3.53-1.59-4.6-2.32c-1.07-.73-5.77-1.14-5.25.72.52,1.87,3.52,3.25,4.91,3.8,1.39.55,5.39,2.25,5.5.45.1-1.8.17-1.87-.55-2.66Z"/>
          <path class="cls-10" d="M647.07,289.9s7.81-.14,8.43-1.21c.62-1.07,1.07-2.45-.21-2.9-1.28-.45-7.95-.93-8.67,0-.73.93-1.28,3.94.45,4.11Z"/>
          <path class="cls-10" d="M646.38,302.58s5.39-1.18,7.09-1.39c1.7-.21,8.57.55,6.64,2.25s-4.11,1.63-7.71,2.73c-3.59,1.11-6.79,2.38-6.99,1.14-.2-1.24-.99-4.11.97-4.73Z"/>
          <path class="cls-10" d="M646.69,318.38s2.35,1.73,4.79,1.59c2.44-.14,10.39-1.52,8.8,2.01-1.59,3.53-11.96,3.21-13.31,2.56-1.35-.66-3.66-8.23-.28-6.15Z"/>
          <path class="cls-10" d="M647.87,335.87s4.39-.35,5.43-.69c1.04-.35,8.23-2.39,6.91.35-1.31,2.73-.24,3.9-1.76,4.22-1.52.31-9.85,1.1-10.99.48-1.14-.62-1.48-4.18.42-4.35Z"/>
          <path class="cls-10" d="M649.24,352.43s3.53-1.59,4.6-2.32c1.07-.73,5.77-1.14,5.26.72-.52,1.87-3.52,3.25-4.9,3.8-1.38.55-5.4,2.25-5.5.45-.1-1.8-.17-1.87.55-2.66Z"/>
          <path class="cls-10" d="M582.3,286.97s-4.96-5.71-.73-10.22c4.23-4.51,18.26-19.03,19.06-20.33.8-1.3-3.54-4.81-10.38,2.71-6.84,7.51-18.26,13.92-12.95,24.34,5.31,10.42,5.61,6.41,5.01,3.5Z"/>
          <path class="cls-10" d="M588.96,253.93s-13.67,4.9-12.47,11.91c1.2,7.01,7.63,8.82,7.47,10.32-.16,1.5-3.36,5.81-8.47-1.9-5.11-7.71-4.16-20.13,6.74-23.34,10.89-3.2,8.78,2.02,7.19,3.11"/>
          <path class="cls-10" d="M588.01,265.03s-3-2.9-6.31-6.41c-3.3-3.51-8.11-7.31-4.71-10.82,3.41-3.51,15.22-8.22,14.42-10.12-.8-1.9-2.39-4.51-7.45-1.7-5.07,2.8-14.98,6.01-11.58,15.53,3.41,9.52,8.01,17.93,15.52,17.43,0,0,2.52-1.51.1-3.91Z"/>
          <path class="cls-10" d="M590.11,248.61s-2.4-1.1-6.81-5.01c-4.41-3.91-11.51-6.52-4.61-11.02,6.91-4.5,18.53-8.74,18.23-10.58-.3-1.84-6.48-2.94-10.55-.93-4.07,2-16.81,6.51-15.25,13.92,1.56,7.41,9.52,16.88,14.78,18.13,5.26,1.25,7.62-1.5,4.21-4.51Z"/>
          <path class="cls-10" d="M600.43,235.89s-4.71-.5-9.32-4.11c-4.6-3.61-16.63-9.34-13.62-13.3,3.01-3.96,8.21-8.33,16.73-9.53,8.51-1.2,7.37-3.4,6.69-4.01-.68-.6-5.72-2.1-11.72,0-5.99,2.1-23.32,6.21-16.51,17.03,6.81,10.82,17.83,19.43,26.34,18.03,8.52-1.4,1.4-4.11,1.4-4.11Z"/>
          <path class="cls-11" d="M611.35,357.19s.23-4.95-2.39-7.69c-2.62-2.73-33.87-13.75-46.29,13.29,0,0-6.41,24.24,7.41,22.44,0,0,6.81-1.2,7.01,4.01.2,5.21,4.93,6.81,9.18,8.01,4.25,1.2,8.85,8.62,8.65,17.83-.2,9.22,5.41,5.26,9.41,3.63,4.01-1.63,16.8.61,20.92,7.91,4.12,7.29,11.93,3.35,13.34,2.42,1.4-.93,4.05-10.41-4.38-12.48-8.44-2.07-24.26-10.89-22.06-22.31,2.2-11.42-4.41-8.21-5.61-9.82-1.2-1.6,5.61-10.02,8.82-12.62,3.2-2.61-3.08-12.22-4.01-14.62Z"/>
          <path class="cls-10" d="M579.84,454.99s1.71-4.86,3.67-9.05c1.97-4.2-.79-6.43-1.18-12.2-.39-5.77-2.36-10.75,5.12-15.02,7.47-4.27,11.55-8.07,5.38-17.39-6.17-9.31-12.6-2.62-15.09,4.2-2.49,6.82-7.22.78-8.79-.53-1.57-1.31-21.77-3-13.64,20.87,8.13,23.87,9.84,31.74,12.07,53.65,2.23,21.91,12.33,69.8,12.46,87.25.13,17.45-.92,45.52-4.33,50.11-3.41,4.59-6.82,25.71,4.72,25.45,11.55-.26,7.08-8.79,18.11-3.67,11.02,5.12,18.89,5.65,17.97-2.23-.92-7.87,4.07-14.17-.66-17.84-4.72-3.67-13.38-14.03-18.24-44.08-4.85-30.05-19.02-112.31-17.58-119.52Z"/>
          <path class="cls-10" d="M648.63,357.7s7,.07,9.2-1.04c2.2-1.1,10.24-4.8,10.89-1.88.65,2.92,2.08,5.25,1.17,7.58-.91,2.33-1.04,9.85-2.85,9.98-1.81.13-4.92,1.92-6.61,2.87s-6.85,3.03-6.54,11.84c.32,8.81-12.44,11.6-15.3,12.12l.56-41.48s6.64.06,9.48,0Z"/>
          <path class="cls-13" d="M629.47,219.14s-14.63,8.01-17.42,11.36c-2.79,3.35-11.08,4.09-14.01,5.03-2.93.93-2.37,2.05-2.37,4.1s6.89,2.23,9.49,2.79c2.61.56,0,2.61-2.61,3.91-2.61,1.3-11.92.56-12.85.75-.93.19-4.47,5.21-2.42,6.33,2.05,1.12,12.29,1.68,12.1,3.91-.19,2.24,2.05,8-9.31,6.33,0,0-4.47-1.49-5.4,3.16-.93,4.66,3.35,2.79,6.33,4.1,2.98,1.3,1.86,2.61.37,3.54-1.49.93-3.54,2.61-7.64,0-4.1-2.61-5,6.33,2.71,8.94,7.71,2.6.82,5.03-1.78,4.28-2.61-.74-3.41-3.91-4.03-2.23-.62,1.68-2.83,7.26,5.81,6.33,8.64-.93,13.11-16.94,16.47-26.07,3.35-9.12,25.53-37.27,28.96-40.88,3.43-3.62,1.74-8.02-2.42-5.66Z"/>
          <path class="cls-10" d="M648.34,238.47s1.65-.77,4.62.88c2.97,1.65,13.09,11.49,18.59,12.51,5.5,1.02,8.91,20.48,3.3,12.89-5.61-7.59-13.2-12.65-17.16-16.06-3.96-3.41-5.95-3.74-8.58-4.51-2.64-.77-3.29-5.17-.77-5.72Z"/>
          <path class="cls-10" d="M647.46,253.43s3.3,2.53,7.48,4.29c4.18,1.76,24.31,11.54,26.51,14.62,2.2,3.09,3.51,9.88-2.37,6.38-5.88-3.51-22.55-15.72-26.75-17.37-4.2-1.65-11.79-9.9-4.86-7.92Z"/>
          <path class="cls-10" d="M647.37,268.27s4.05-1.87,9.11,3.41c5.06,5.28,12.33,6.93,16.67,12.87,4.34,5.94,13.13,11.11,5.93,11-7.2-.11-10.23-9.68-15.09-12.98-4.86-3.3-20.89-10.01-16.62-14.3Z"/>
          <path class="cls-10" d="M697.69,286.97s4.96-5.71.73-10.22c-4.24-4.51-18.26-19.03-19.06-20.33-.8-1.3,3.54-4.81,10.38,2.71,6.84,7.51,18.26,13.92,12.95,24.34-5.31,10.42-5.61,6.41-5.01,3.5Z"/>
          <path class="cls-10" d="M691.03,253.93s13.68,4.9,12.47,11.91c-1.2,7.01-7.63,8.82-7.47,10.32.16,1.5,3.37,5.81,8.47-1.9,5.11-7.71,4.16-20.13-6.73-23.34-10.89-3.2-8.78,2.02-7.19,3.11"/>
          <path class="cls-10" d="M691.98,265.03s3-2.9,6.31-6.41c3.31-3.51,8.11-7.31,4.71-10.82-3.41-3.51-15.22-8.22-14.42-10.12.8-1.9,2.39-4.51,7.45-1.7s14.98,6.01,11.58,15.53c-3.41,9.52-8.01,17.93-15.52,17.43,0,0-2.52-1.51-.1-3.91Z"/>
          <path class="cls-10" d="M689.88,248.61s2.41-1.1,6.81-5.01c4.41-3.91,11.51-6.52,4.61-11.02-6.9-4.5-18.53-8.74-18.23-10.58.3-1.84,6.48-2.94,10.55-.93,4.07,2,16.81,6.51,15.25,13.92-1.56,7.41-9.52,16.88-14.78,18.13-5.26,1.25-7.62-1.5-4.21-4.51Z"/>
          <path class="cls-10" d="M679.56,235.89s4.71-.5,9.32-4.11c4.6-3.61,16.64-9.34,13.62-13.3-3.02-3.96-8.22-8.33-16.73-9.53-8.51-1.2-7.37-3.4-6.69-4.01.68-.6,5.72-2.1,11.71,0,6,2.1,23.32,6.21,16.52,17.03-6.81,10.82-17.83,19.43-26.34,18.03-8.52-1.4-1.4-4.11-1.4-4.11Z"/>
          <path class="cls-11" d="M668.64,357.19s-.24-4.95,2.39-7.69c2.62-2.73,33.87-13.75,46.29,13.29,0,0,6.41,24.24-7.41,22.44,0,0-6.81-1.2-7.01,4.01-.2,5.21-4.93,6.81-9.18,8.01-4.24,1.2-8.85,8.62-8.65,17.83.2,9.22-5.41,5.26-9.42,3.63-4.01-1.63-16.8.61-20.92,7.91-4.12,7.29-11.93,3.35-13.33,2.42-1.4-.93-4.05-10.41,4.38-12.48,8.44-2.07,24.26-10.89,22.06-22.31-2.2-11.42,4.41-8.21,5.61-9.82,1.2-1.6-5.61-10.02-8.82-12.62-3.2-2.61,3.08-12.22,4.01-14.62Z"/>
          <path class="cls-10" d="M700.15,454.99s-1.71-4.86-3.67-9.05c-1.97-4.2.78-6.43,1.18-12.2.39-5.77,2.36-10.75-5.12-15.02-7.47-4.27-11.54-8.07-5.38-17.39,6.17-9.31,12.6-2.62,15.09,4.2,2.49,6.82,7.21.78,8.79-.53,1.57-1.31,21.78-3,13.64,20.87-8.13,23.87-9.84,31.74-12.07,53.65-2.23,21.91-12.33,69.8-12.46,87.25-.13,17.45.92,45.52,4.33,50.11,3.41,4.59,6.82,25.71-4.72,25.45-11.55-.26-7.08-8.79-18.1-3.67-11.02,5.12-18.89,5.65-17.98-2.23.92-7.87-4.07-14.17.66-17.84,4.72-3.67,13.38-14.03,18.24-44.08,4.85-30.05,19.02-112.31,17.58-119.52Z"/>
          <path class="cls-13" d="M650.51,219.14s14.63,8.01,17.42,11.36c2.79,3.35,11.08,4.09,14.02,5.03,2.93.93,2.37,2.05,2.37,4.1s-6.89,2.23-9.49,2.79c-2.61.56,0,2.61,2.61,3.91,2.61,1.3,11.91.56,12.85.75s4.47,5.21,2.42,6.33c-2.05,1.12-12.29,1.68-12.1,3.91.19,2.24-2.05,8,9.31,6.33,0,0,4.47-1.49,5.4,3.16.93,4.66-3.35,2.79-6.33,4.1-2.98,1.3-1.86,2.61-.37,3.54,1.49.93,3.54,2.61,7.64,0,4.1-2.61,5,6.33-2.71,8.94-7.71,2.6-.82,5.03,1.78,4.28,2.61-.74,3.41-3.91,4.03-2.23.63,1.68,2.83,7.26-5.81,6.33-8.64-.93-13.11-16.94-16.47-26.07-3.35-9.12-25.53-37.27-28.96-40.88-3.43-3.62-1.74-8.02,2.42-5.66Z"/>
          <path class="cls-11" d="M633.62,226.08s.39,46.77,0,54.18c-.38,7.41.14,25.44.18,28.24.04,2.81-1.16,30.65-1.36,34.26-.2,3.61-4.21,18.23,0,20.23,4.21,2,23.64,4.66,23.84-1.38.2-6.04-.8-12.25-1.6-16.05-.8-3.81-.8-9.42-1.6-13.22-.8-3.81-.6-9.21-.6-14.02s-.8-18.23-1.2-20.83c-.4-2.6-2-19.05-2.21-25.15-.2-6.1-1.4-37.55-.6-41.76.8-4.21-2-7.94-3.81-8.58-1.8-.63-9.84-4.42-11.03,4.08Z"/>
          <path class="cls-13" d="M669.57,354.78c-.65-2.92-8.68.78-10.89,1.88-2.2,1.1-9.2,1.04-9.2,1.04-2.85.06-9.48,0-9.48,0,0,0-6.64.06-9.49,0,0,0-6.99.07-9.2-1.04-2.2-1.1-10.24-4.8-10.89-1.88-.65,2.92-2.08,5.25-1.17,7.58.91,2.33,1.04,9.85,2.85,9.98,1.82.13,4.93,1.92,6.61,2.87,1.68.95,6.13,3.03,5.81,11.84-.28,7.96,10.52,11,13.46,11.89v.23s.53-.07.74-.11c.21.04.74.08.74.11v-.23c5.88-.9,15.01-3.94,14.73-11.89-.32-8.81,5.13-10.89,6.81-11.84,1.68-.95,4.93-2.74,6.75-2.87,1.81-.13,2.01-7.65,2.92-9.98.91-2.33-.45-4.67-1.1-7.58Z"/>
        </g>
      </g>
      
      <g id="top">
        <animateTransform attributeName="transform" type="translate"
          values="0 22.31; 0 0; 0 0; 0 22.31"
          keyTimes="0; 0.3077; 0.6923; 1"
          calcMode="spline"
          keySplines=".25,.1,.25,1; 0,0,1,1; .25,.1,.25,1"
          dur="5s" repeatCount="indefinite"/>
        <animate attributeName="opacity"
          values="0; 1; 1; 0"
          keyTimes="0; 0.4; 0.7; 1"
          calcMode="spline"
          keySplines=".25,.1,.25,1; 0,0,1,1; .25,.1,.25,1"
          dur="5s" repeatCount="indefinite"/>
        <line class="cls-2" x1="466.1" y1="296.81" x2="817.79" y2="296.81"/>
        <g>
          <path d="M840.12,308.73l-2.34-2.23c1.56-2.19,2.26-6.13,2.11-11.84v-12.66h9.61v22.97c0,2.03-.94,3.09-2.81,3.16h-1.41c-.7.08-1.25.12-1.64.12-.08-.31-.16-.78-.23-1.41-.16-.63-.27-1.09-.35-1.41h2.23c1.01.08,1.48-.35,1.41-1.29v-4.8h-4.1c0,3.67-.82,6.8-2.46,9.38ZM842.69,284.59v4.8h3.98v-4.8h-3.98ZM842.69,295.96v.94h3.98v-4.92h-3.98v3.98ZM851.95,308.85c-.86-.86-1.64-1.64-2.34-2.34,3.52-3.28,5.27-8.79,5.27-16.52v-.7h-3.87v-2.81h3.98c0-.62.04-1.6.12-2.93v-2.7h2.93c0,2.34-.04,4.22-.12,5.62h7.38c-.08,1.64-.16,5.08-.23,10.31-.16,3.36-.23,5.62-.23,6.8-.08,2.97-1.41,4.45-3.98,4.45-.31,0-.98.04-1.99.12h-1.99c-.16-1.25-.35-2.23-.59-2.93.39,0,1.01.04,1.88.12h1.41c1.48.08,2.23-.78,2.23-2.58.08-2.27.19-6.76.35-13.48h-4.22c-.08.31-.12.59-.12.82.08,8.44-1.88,14.69-5.86,18.75Z"/>
          <path d="M868.94,295.25v-5.27h2.93v-8.09h20.51v8.09h3.05v5.27h-3.16v-2.93h-20.27v2.93h-3.05ZM872.34,308.61v-14.41h19.69v10.43c.08,2.34-1.17,3.55-3.75,3.63-1.09.08-2.74.12-4.92.12-.08-.23-.2-.66-.35-1.29-.16-.63-.27-1.05-.35-1.29.86.08,2.3.12,4.34.12,1.41.08,2.07-.43,1.99-1.52v-.23h-13.59v4.45h-3.05ZM874.92,284.12v5.86h4.8v-3.98h9.61v-1.88h-14.41ZM875.39,296.31v1.99h13.59v-1.99h-13.59ZM875.39,300.17v2.11h13.59v-2.11h-13.59ZM882.66,287.99v1.99h6.68v-1.99h-6.68Z"/>
          <path d="M898.24,285.76v-3.16h27.89v3.16h-13.36v7.15l1.88-2.34c3.12,1.8,6.52,3.91,10.2,6.33l-2.23,2.93c-1.64-1.09-3.87-2.58-6.68-4.45-1.41-1.01-2.46-1.76-3.16-2.23v15.35h-3.63v-22.73h-10.9Z"/>
          <path d="M928.83,298.77l-.7-2.46h1.41l2.81-4.34c-.7-.55-1.8-1.41-3.28-2.58-.78-.55-1.37-.98-1.76-1.29l1.52-1.88,1.17.82c1.41-2.58,2.46-4.69,3.16-6.33l2.7.94c-.78,1.33-1.84,3.09-3.16,5.27-.39.63-.7,1.09-.94,1.41l1.88,1.52c.94-1.56,1.88-3.05,2.81-4.45l2.34,1.05c-.86,1.33-2.46,3.71-4.8,7.15-.78,1.17-1.37,2.03-1.76,2.58l3.05-.23-.82-2.11,1.99-.59c.08.23.23.59.47,1.05.78,1.88,1.37,3.36,1.76,4.45l-2.11.82c-.08-.47-.23-.9-.47-1.29h-1.29v10.66h-2.58v-10.55c-.47.08-.86.12-1.17.12s-.66.04-1.05.12c-.55,0-.94.04-1.17.12ZM929.76,307.56l-2.11-.35c.62-2.5,1.09-4.73,1.41-6.68l1.88.23c0,.23-.04.55-.12.94-.23,1.64-.59,3.59-1.05,5.86ZM938.32,292.91v-2.34h11.6l.23-1.76h-7.27l-.12.7h-2.81l1.76-8.79h2.81l-.35,1.88h9.61l-1.05,7.97h3.4v2.34h-7.38c-.39.23-.86.55-1.41.94-.31.23-.55.39-.7.47.7.78,1.25,1.56,1.64,2.34,1.8-1.09,3.48-2.23,5.04-3.4l1.76,1.99-2.46,1.64c.39,2.97,1.68,5.39,3.87,7.27-.47.86-.94,1.76-1.41,2.7-2.42-2.19-3.95-5.08-4.57-8.67l-1.29.7c.39,1.41.59,3.01.59,4.8.08,2.97-1.25,4.45-3.98,4.45-.86.08-1.84.12-2.93.12-.23-1.17-.43-2.03-.59-2.58.55.08,1.44.12,2.7.12,1.48.08,2.19-.66,2.11-2.23,0-.7-.04-1.33-.12-1.88-2.03,2.11-4.57,3.83-7.62,5.16-.39-.7-.74-1.25-1.05-1.64l-1.52.23c-.08-.23-.2-.62-.35-1.17-.39-1.56-.74-2.81-1.05-3.75l1.76-.47c.47,1.64.94,3.2,1.41,4.69,3.05-1.25,5.74-2.97,8.09-5.16-.08-.16-.16-.39-.23-.7-.16-.31-.27-.55-.35-.7-1.72,1.56-3.95,2.89-6.68,3.98-.31-.78-.63-1.48-.94-2.11,2.42-.78,4.69-1.91,6.8-3.4-.23-.39-.51-.74-.82-1.05-1.17.55-2.81,1.21-4.92,1.99-.16-.39-.43-.94-.82-1.64-.08-.31-.16-.51-.23-.59,2.81-.7,5.04-1.52,6.68-2.46h-6.8ZM950.74,284.71h-7.03l-.35,1.99h7.03l.35-1.99Z"/>
        </g>
      </g>

      <g id="mid">
        <g>
          <line class="cls-3" x1="466.1" y1="319.12" x2="472.1" y2="319.12"/>
          <line class="cls-4" x1="483.82" y1="319.12" x2="805.93" y2="319.12"/>
          <line class="cls-3" x1="811.79" y1="319.12" x2="817.79" y2="319.12"/>
        </g>
        <g>
          <path class="cls-13" d="M349.73,333.82c-3.2-.55-5.86-1.29-7.97-2.23-2.19,1.01-5.04,1.91-8.55,2.7-.08-.23-.27-.66-.59-1.29-.23-.55-.43-.98-.59-1.29,2.81-.47,5.16-.98,7.03-1.52-1.02-.86-1.99-1.8-2.93-2.81-.08.08-.2.2-.35.35-.47.39-1.17.94-2.11,1.64-.16-.23-.43-.55-.82-.94-.39-.47-.66-.78-.82-.94v3.28c.08,1.88-.82,2.85-2.7,2.93h-1.05c-.55.08-.98.12-1.29.12v-.23c-.23-1.09-.47-1.92-.7-2.46h1.88c.94,0,1.37-.35,1.29-1.05v-5.39h-2.93c0,3.67-.74,6.87-2.23,9.61-.7-.78-1.41-1.52-2.11-2.23,1.33-2.03,1.95-5.51,1.88-10.43v-14.18h7.97v19.92c2.42-1.64,4.26-3.44,5.51-5.39h-2.81v-7.73l-.82.82c-.31-.47-.86-1.21-1.64-2.23l-.12-.12c2.19-1.88,3.83-4.14,4.92-6.8l2.93.47c-.08.16-.23.43-.47.82-.16.39-.31.7-.47.94h11.02v2.46h-12.54c-.16.23-.39.59-.7,1.05-.23.31-.43.59-.59.82h12.66v9.49h-8.32c-.16.23-.35.51-.59.82-.31.47-.55.82-.7,1.05h9.49v2.46c-1.17,1.48-2.54,2.77-4.1,3.87,1.01.31,2.81.62,5.39.94.39.08.66.12.82.12-.16.31-.39.82-.7,1.52-.23.47-.39.82-.47,1.05ZM326.52,309.91v4.92h2.93v-4.92h-2.93ZM326.52,321.63v.59h2.93v-4.92h-2.93v4.34ZM337.42,314.48v1.88h8.67v-1.88h-8.67ZM337.42,318v1.99h8.67v-1.99h-8.67ZM345.63,326.08h-7.27c.94,1.17,2.11,2.11,3.52,2.81,1.41-.86,2.66-1.8,3.75-2.81Z"/>
          <path class="cls-13" d="M352.42,319.75v-2.58h4.34c-.86-1.33-1.68-2.54-2.46-3.63l2.46-1.17c.94,1.17,1.8,2.38,2.58,3.63l-2.34,1.17h4.22c.39-.7.98-1.76,1.76-3.16.39-.78.66-1.33.82-1.64l2.7.94c-.7,1.25-1.45,2.54-2.23,3.87h4.22v2.58h-16.05ZM353.24,312.14v-2.58h5.86v-3.28h3.16v3.28h5.51v2.58h-14.53ZM354.06,333.93v-11.48h12.89v11.37h-2.93v-1.76h-7.03v1.88h-2.93ZM356.99,325.03v4.69h7.03v-4.69h-7.03ZM369.77,334.17v-26.37h10.43v2.81l-2.81,7.73c2.34,2.27,3.48,4.65,3.4,7.15.08,3.28-1.29,5-4.1,5.16-.55.08-1.52.12-2.93.12-.16-1.09-.35-2.11-.59-3.05h2.46c1.48.08,2.23-.74,2.23-2.46,0-2.11-1.13-4.3-3.4-6.56l2.7-8.09h-4.57v23.55h-2.81Z"/>
          <path class="cls-13" d="M383.95,326.2v-14.53h10.9v-5.62h3.4v5.62h10.9v14.41h-3.28v-1.52h-7.62v9.73h-3.4v-9.73h-7.62v1.64h-3.28ZM387.23,314.71v6.8h7.62v-6.8h-7.62ZM405.86,314.71h-7.62v6.8h7.62v-6.8Z"/>
          <path class="cls-13" d="M413.01,324.21l-.82-2.58,1.76-.12,2.81-4.22-5.04-3.87,1.64-1.88c.23.16.55.35.94.59,1.09-1.95,2.11-3.94,3.05-5.98l2.81.94c-1.25,2.27-2.58,4.45-3.98,6.56.7.47,1.37.94,1.99,1.41.94-1.41,1.8-2.81,2.58-4.22l2.34,1.29c-2.42,3.75-4.49,6.84-6.21,9.26l3.05-.23-.94-2.23,1.99-.59c.94,2.34,1.68,4.34,2.23,5.98l-1.99.7v-.23c-.08-.39-.23-.82-.47-1.29-.55,0-1.09.04-1.64.12v10.78h-2.58v-10.66l-.82.12c-1.02.08-1.92.2-2.7.35ZM414.42,333.11c-.39-.08-.86-.16-1.41-.23-.31-.08-.55-.12-.7-.12.47-2.03.86-4.22,1.17-6.56l1.99.23c-.31,2.58-.66,4.8-1.05,6.68ZM421.45,330.77c-.08-.16-.2-.47-.35-.94-.23-.86-.63-2.11-1.17-3.75l1.64-.47c.08.31.23.78.47,1.41.16.31.51,1.25,1.05,2.81,1.72-1.25,2.85-2.93,3.4-5.04h-3.05v-2.46h5.74v2.46c-.55,3.13-2.5,5.82-5.86,8.09-.16-.47-.43-1.09-.82-1.88-.08-.16-.16-.27-.23-.35l-.82.12ZM424.02,320.1v-11.48h4.57c.23-.86.43-1.72.59-2.58l3.16.35-.82,2.23h7.38v11.48h-5.86v.82c.47,1.33,1.01,2.58,1.64,3.75,1.33-1.17,2.58-2.34,3.75-3.52l1.99,1.76c-.31.23-.82.66-1.52,1.29-.39.31-1.33,1.09-2.81,2.34,1.17,1.33,2.77,2.58,4.8,3.75-.63.78-1.13,1.56-1.52,2.34-3.05-1.8-5.16-3.94-6.33-6.45v4.45c0,1.95-.98,2.97-2.93,3.05-.94.08-2.03.12-3.28.12,0-.08-.04-.23-.12-.47-.08-1.02-.2-1.76-.35-2.23h2.34c1.17.08,1.72-.39,1.64-1.41v-9.61h-6.33ZM426.84,310.96v2.46h9.38v-2.46h-9.38ZM426.84,315.3v2.46h9.38v-2.46h-9.38Z"/>
        </g>
      </g>

      <g id="bottom">
        <animateTransform attributeName="transform" type="translate"
          values="0 -22.76; 0 0; 0 0; 0 -22.76"
          keyTimes="0; 0.3077; 0.6923; 1"
          calcMode="spline"
          keySplines=".25,.1,.25,1; 0,0,1,1; .25,.1,.25,1"
          dur="5s" repeatCount="indefinite"/>
        <animate attributeName="opacity"
          values="0; 1; 1; 0"
          keyTimes="0; 0.4; 0.7; 1"
          calcMode="spline"
          keySplines=".25,.1,.25,1; 0,0,1,1; .25,.1,.25,1"
          dur="5s" repeatCount="indefinite"/>
        <line class="cls-2" x1="466.1" y1="341.88" x2="817.79" y2="341.88"/>
        <g>
          <path d="M838.94,341.63v-5.27h2.93v-8.09h20.51v8.09h3.05v5.27h-3.16v-2.93h-20.27v2.93h-3.05ZM842.34,354.99v-14.41h19.69v10.43c.08,2.34-1.17,3.55-3.75,3.63-1.09.08-2.74.12-4.92.12-.08-.23-.2-.66-.35-1.29-.16-.63-.27-1.05-.35-1.29.86.08,2.3.12,4.34.12,1.41.08,2.07-.43,1.99-1.52v-.23h-13.59v4.45h-3.05ZM844.92,330.5v5.86h4.8v-3.98h9.61v-1.88h-14.41ZM845.39,342.69v1.99h13.59v-1.99h-13.59ZM845.39,346.55v2.11h13.59v-2.11h-13.59ZM852.66,334.37v1.99h6.68v-1.99h-6.68Z"/>
          <path d="M895.31,336.83c-.23-.16-.59-.31-1.05-.47-.7-.39-1.64-.9-2.81-1.52,0,.78-.08,1.99-.23,3.63-.08.63-.12,1.09-.12,1.41-.23,2.34-1.76,3.52-4.57,3.52h-2.23c-1.02.08-1.8.12-2.34.12-.08-.55-.23-1.29-.47-2.23-.08-.23-.12-.39-.12-.47.86.08,2.3.12,4.34.12,1.41,0,2.15-.55,2.23-1.64.16-.62.23-1.33.23-2.11h-7.85c-.63,3.59-3.98,6.06-10.08,7.38-.16-.31-.43-.74-.82-1.29-.31-.47-.55-.82-.7-1.05,5.08-.94,7.85-2.62,8.32-5.04h-3.63v-1.99c-1.41.78-2.81,1.48-4.22,2.11-.16-.47-.51-1.09-1.05-1.88-.16-.31-.27-.55-.35-.7,3.12-1.09,5.98-2.81,8.55-5.16l2.34,1.76c-1.56,1.33-3.05,2.46-4.45,3.4h17.11c-2.03-1.17-3.95-2.81-5.74-4.92h-7.85v-2.7h9.38v.12c2.81,3.13,5.98,5.31,9.49,6.56-.08.16-.2.39-.35.7-.23.55-.55,1.33-.94,2.34ZM868.12,354.4v-2.46h2.93v-7.38h22.27v7.38h2.93v2.46h-28.12ZM874.1,346.9v5.04h3.52v-5.04h-3.52ZM880.43,346.9v5.04h3.52v-5.04h-3.52ZM890.16,346.9h-3.4v5.04h3.4v-5.04Z"/>
          <path d="M898.24,353.47v-2.93h10.78v-23.2h3.63v8.44h11.25v3.16h-11.25v11.6h13.48v2.93h-27.89Z"/>
          <path d="M928.83,345.15l-.7-2.46h1.41l2.81-4.34c-.7-.55-1.8-1.41-3.28-2.58-.78-.55-1.37-.98-1.76-1.29l1.52-1.88,1.17.82c1.41-2.58,2.46-4.69,3.16-6.33l2.7.94c-.78,1.33-1.84,3.09-3.16,5.27-.39.63-.7,1.09-.94,1.41l1.88,1.52c.94-1.56,1.88-3.05,2.81-4.45l2.34,1.05c-.86,1.33-2.46,3.71-4.8,7.15-.78,1.17-1.37,2.03-1.76,2.58l3.05-.23-.82-2.11,1.99-.59c.08.23.23.59.47,1.05.78,1.88,1.37,3.36,1.76,4.45l-2.11.82c-.08-.47-.23-.9-.47-1.29h-1.29v10.66h-2.58v-10.55c-.47.08-.86.12-1.17.12s-.66.04-1.05.12c-.55,0-.94.04-1.17.12ZM929.76,353.94l-2.11-.35c.62-2.5,1.09-4.73,1.41-6.68l1.88.23c0,.23-.04.55-.12.94-.23,1.64-.59,3.59-1.05,5.86ZM938.32,339.29v-2.34h11.6l.23-1.76h-7.27l-.12.7h-2.81l1.76-8.79h2.81l-.35,1.88h9.61l-1.05,7.97h3.4v2.34h-7.38c-.39.23-.86.55-1.41.94-.31.23-.55.39-.7.47.7.78,1.25,1.56,1.64,2.34,1.8-1.09,3.48-2.23,5.04-3.4l1.76,1.99-2.46,1.64c.39,2.97,1.68,5.39,3.87,7.27-.47.86-.94,1.76-1.41,2.7-2.42-2.19-3.95-5.08-4.57-8.67l-1.29.7c.39,1.41.59,3.01.59,4.8.08,2.97-1.25,4.45-3.98,4.45-.86.08-1.84.12-2.93.12-.23-1.17-.43-2.03-.59-2.58.55.08,1.44.12,2.7.12,1.48.08,2.19-.66,2.11-2.23,0-.7-.04-1.33-.12-1.88-2.03,2.11-4.57,3.83-7.62,5.16-.39-.7-.74-1.25-1.05-1.64l-1.52.23c-.08-.23-.2-.62-.35-1.17-.39-1.56-.74-2.81-1.05-3.75l1.76-.47c.47,1.64.94,3.2,1.41,4.69,3.05-1.25,5.74-2.97,8.09-5.16-.08-.16-.16-.39-.23-.7-.16-.31-.27-.55-.35-.7-1.72,1.56-3.95,2.89-6.68,3.98-.31-.78-.63-1.48-.94-2.11,2.42-.78,4.69-1.91,6.8-3.4-.23-.39-.51-.74-.82-1.05-1.17.55-2.81,1.21-4.92,1.99-.16-.39-.43-.94-.82-1.64-.08-.31-.16-.51-.23-.59,2.81-.7,5.04-1.52,6.68-2.46h-6.8ZM950.74,331.08h-7.03l-.35,1.99h7.03l.35-1.99Z"/>
        </g>
      </g>

      <g>
        <rect class="cls-10" x="450.88" y="43.98" width="377.92" height="53.99" rx="26.99" ry="26.99"/>
        <g>
          <path class="cls-12" d="M475.25,71.82v-5.27h2.93v-8.09h20.51v8.09h3.05v5.27h-3.16v-2.93h-20.27v2.93h-3.05ZM478.65,85.18v-14.41h19.69v10.43c.08,2.34-1.17,3.55-3.75,3.63-1.09.08-2.74.12-4.92.12-.08-.23-.2-.66-.35-1.29-.16-.63-.27-1.05-.35-1.29.86.08,2.3.12,4.34.12,1.41.08,2.07-.43,1.99-1.52v-.23h-13.59v4.45h-3.05ZM481.23,60.69v5.86h4.8v-3.98h9.61v-1.88h-14.41ZM481.7,72.88v1.99h13.59v-1.99h-13.59ZM481.7,76.74v2.11h13.59v-2.11h-13.59ZM488.96,64.56v1.99h6.68v-1.99h-6.68Z"/>
          <path class="cls-12" d="M531.62,67.02c-.23-.16-.59-.31-1.05-.47-.7-.39-1.64-.9-2.81-1.52,0,.78-.08,1.99-.23,3.63-.08.63-.12,1.09-.12,1.41-.23,2.34-1.76,3.52-4.57,3.52h-2.23c-1.02.08-1.8.12-2.34.12-.08-.55-.23-1.29-.47-2.23-.08-.23-.12-.39-.12-.47.86.08,2.3.12,4.34.12,1.41,0,2.15-.55,2.23-1.64.16-.62.23-1.33.23-2.11h-7.85c-.63,3.59-3.98,6.06-10.08,7.38-.16-.31-.43-.74-.82-1.29-.31-.47-.55-.82-.7-1.05,5.08-.94,7.85-2.62,8.32-5.04h-3.63v-1.99c-1.41.78-2.81,1.48-4.22,2.11-.16-.47-.51-1.09-1.05-1.88-.16-.31-.27-.55-.35-.7,3.12-1.09,5.98-2.81,8.55-5.16l2.34,1.76c-1.56,1.33-3.05,2.46-4.45,3.4h17.11c-2.03-1.17-3.95-2.81-5.74-4.92h-7.85v-2.7h9.38v.12c2.81,3.13,5.98,5.31,9.49,6.56l-.35.7c-.23.55-.55,1.33-.94,2.34ZM504.43,84.6v-2.46h2.93v-7.38h22.27v7.38h2.93v2.46h-28.12ZM510.41,77.1v5.04h3.52v-5.04h-3.52ZM516.74,77.1v5.04h3.52v-5.04h-3.52ZM526.46,77.1h-3.4v5.04h3.4v-5.04Z"/>
          <path class="cls-12" d="M534.55,83.66v-2.93h10.78v-23.2h3.63v8.44h11.25v3.16h-11.25v11.6h13.48v2.93h-27.89Z"/>
          <path class="cls-12" d="M565.14,75.34l-.7-2.46h1.41l2.81-4.34c-.7-.55-1.8-1.41-3.28-2.58-.78-.55-1.37-.98-1.76-1.29l1.52-1.88,1.17.82c1.41-2.58,2.46-4.69,3.16-6.33l2.7.94c-.78,1.33-1.84,3.09-3.16,5.27-.39.63-.7,1.09-.94,1.41l1.88,1.52c.94-1.56,1.88-3.05,2.81-4.45l2.34,1.05c-.86,1.33-2.46,3.71-4.8,7.15-.78,1.17-1.37,2.03-1.76,2.58l3.05-.23-.82-2.11,1.99-.59c.08.23.23.59.47,1.05.78,1.88,1.37,3.36,1.76,4.45l-2.11.82c-.08-.47-.23-.9-.47-1.29h-1.29v10.66h-2.58v-10.55c-.47.08-.86.12-1.17.12s-.66.04-1.05.12c-.55,0-.94.04-1.17.12ZM566.07,84.13l-2.11-.35c.62-2.5,1.09-4.73,1.41-6.68l1.88.23c0,.23-.04.55-.12.94-.23,1.64-.59,3.59-1.05,5.86ZM574.63,69.48v-2.34h11.6l.23-1.76h-7.27l-.12.7h-2.81l1.76-8.79h2.81l-.35,1.88h9.61l-1.05,7.97h3.4v2.34h-7.38c-.39.23-.86.55-1.41.94-.31.23-.55.39-.7.47.7.78,1.25,1.56,1.64,2.34,1.8-1.09,3.48-2.23,5.04-3.4l1.76,1.99-2.46,1.64c.39,2.97,1.68,5.39,3.87,7.27-.47.86-.94,1.76-1.41,2.7-2.42-2.19-3.95-5.08-4.57-8.67l-1.29.7c.39,1.41.59,3.01.59,4.8.08,2.97-1.25,4.45-3.98,4.45-.86.08-1.84.12-2.93.12-.23-1.17-.43-2.03-.59-2.58.55.08,1.44.12,2.7.12,1.48.08,2.19-.66,2.11-2.23,0-.7-.04-1.33-.12-1.88-2.03,2.11-4.57,3.83-7.62,5.16-.39-.7-.74-1.25-1.05-1.64l-1.52.23c-.08-.23-.2-.62-.35-1.17-.39-1.56-.74-2.81-1.05-3.75l1.76-.47c.47,1.64.94,3.2,1.41,4.69,3.05-1.25,5.74-2.97,8.09-5.16-.08-.16-.16-.39-.23-.7-.16-.31-.27-.55-.35-.7-1.72,1.56-3.95,2.89-6.68,3.98-.31-.78-.63-1.48-.94-2.11,2.42-.78,4.69-1.91,6.8-3.4-.23-.39-.51-.74-.82-1.05-1.17.55-2.81,1.21-4.92,1.99-.16-.39-.43-.94-.82-1.64-.08-.31-.16-.51-.23-.59,2.81-.7,5.04-1.52,6.68-2.46h-6.8ZM587.05,61.28h-7.03l-.35,1.99h7.03l.35-1.99Z"/>
          <path class="cls-12" d="M596.42,77.1v-2.81h10.43v-3.75h3.28v3.75h10.43v2.81h-10.43v3.98h12.42v2.7h-28.12v-2.7h12.42v-3.98h-10.43ZM595.25,61.63v-2.81h26.48v2.81h-13.36c-1.48,1.8-3.4,3.95-5.74,6.45l12.07-.47c-1.09-1.17-2.23-2.27-3.4-3.28l2.34-1.76c1.95,1.56,4.65,4.02,8.09,7.38l-2.58,2.11-1.99-1.99c-2.97.16-7.42.39-13.36.7-3.83.16-6.45.27-7.85.35l-.47-2.7,3.05-.12c2.42-2.81,4.26-5.04,5.51-6.68h-8.79Z"/>
          <path class="cls-12" d="M626.42,85.3l-2.34-2.23c1.56-2.19,2.27-6.13,2.11-11.84v-12.66h9.61v22.97c0,2.03-.94,3.09-2.81,3.16h-1.41c-.7.08-1.25.12-1.64.12-.08-.31-.16-.78-.23-1.41-.16-.63-.27-1.09-.35-1.41h2.23c1.01.08,1.48-.35,1.41-1.29v-4.8h-4.1c0,3.67-.82,6.8-2.46,9.38ZM629,61.16v4.8h3.98v-4.8h-3.98ZM629,72.53v.94h3.98v-4.92h-3.98v3.98ZM638.26,85.42c-.86-.86-1.64-1.64-2.34-2.34,3.52-3.28,5.27-8.79,5.27-16.52v-.7h-3.87v-2.81h3.98c0-.62.04-1.6.12-2.93v-2.7h2.93c0,2.34-.04,4.22-.12,5.62h7.38c-.08,1.64-.16,5.08-.23,10.31-.16,3.36-.23,5.62-.23,6.8-.08,2.97-1.41,4.45-3.98,4.45-.31,0-.98.04-1.99.12h-1.99c-.16-1.25-.35-2.23-.59-2.93.39,0,1.01.04,1.88.12h1.41c1.48.08,2.23-.78,2.23-2.58.08-2.27.19-6.76.35-13.48h-4.22c-.08.31-.12.59-.12.82.08,8.44-1.88,14.69-5.86,18.75Z"/>
          <path class="cls-12" d="M655.25,71.82v-5.27h2.93v-8.09h20.51v8.09h3.05v5.27h-3.16v-2.93h-20.27v2.93h-3.05ZM658.65,85.18v-14.41h19.69v10.43c.08,2.34-1.17,3.55-3.75,3.63-1.09.08-2.74.12-4.92.12-.08-.23-.2-.66-.35-1.29-.16-.63-.27-1.05-.35-1.29.86.08,2.3.12,4.34.12,1.41.08,2.07-.43,1.99-1.52v-.23h-13.59v4.45h-3.05ZM661.23,60.69v5.86h4.8v-3.98h9.61v-1.88h-14.41ZM661.7,72.88v1.99h13.59v-1.99h-13.59ZM661.7,76.74v2.11h13.59v-2.11h-13.59ZM668.96,64.56v1.99h6.68v-1.99h-6.68Z"/>
          <path class="cls-12" d="M684.55,62.33v-3.16h27.89v3.16h-13.36v7.15l1.88-2.34c3.12,1.8,6.52,3.91,10.2,6.33l-2.23,2.93c-1.64-1.09-3.87-2.58-6.68-4.45-1.41-1.01-2.46-1.76-3.16-2.23v15.35h-3.63v-22.73h-10.9Z"/>
          <path class="cls-12" d="M715.14,75.34l-.7-2.46h1.41l2.81-4.34c-.7-.55-1.8-1.41-3.28-2.58-.78-.55-1.37-.98-1.76-1.29l1.52-1.88,1.17.82c1.41-2.58,2.46-4.69,3.16-6.33l2.7.94c-.78,1.33-1.84,3.09-3.16,5.27-.39.63-.7,1.09-.94,1.41l1.88,1.52c.94-1.56,1.88-3.05,2.81-4.45l2.34,1.05c-.86,1.33-2.46,3.71-4.8,7.15-.78,1.17-1.37,2.03-1.76,2.58l3.05-.23-.82-2.11,1.99-.59c.08.23.23.59.47,1.05.78,1.88,1.37,3.36,1.76,4.45l-2.11.82c-.08-.47-.23-.9-.47-1.29h-1.29v10.66h-2.58v-10.55c-.47.08-.86.12-1.17.12s-.66.04-1.05.12c-.55,0-.94.04-1.17.12ZM716.07,84.13l-2.11-.35c.62-2.5,1.09-4.73,1.41-6.68l1.88.23c0,.23-.04.55-.12.94-.23,1.64-.59,3.59-1.05,5.86ZM724.63,69.48v-2.34h11.6l.23-1.76h-7.27l-.12.7h-2.81l1.76-8.79h2.81l-.35,1.88h9.61l-1.05,7.97h3.4v2.34h-7.38c-.39.23-.86.55-1.41.94-.31.23-.55.39-.7.47.7.78,1.25,1.56,1.64,2.34,1.8-1.09,3.48-2.23,5.04-3.4l1.76,1.99-2.46,1.64c.39,2.97,1.68,5.39,3.87,7.27-.47.86-.94,1.76-1.41,2.7-2.42-2.19-3.95-5.08-4.57-8.67l-1.29.7c.39,1.41.59,3.01.59,4.8.08,2.97-1.25,4.45-3.98,4.45-.86.08-1.84.12-2.93.12-.23-1.17-.43-2.03-.59-2.58.55.08,1.44.12,2.7.12,1.48.08,2.19-.66,2.11-2.23,0-.7-.04-1.33-.12-1.88-2.03,2.11-4.57,3.83-7.62,5.16-.39-.7-.74-1.25-1.05-1.64l-1.52.23c-.08-.23-.2-.62-.35-1.17-.39-1.56-.74-2.81-1.05-3.75l1.76-.47c.47,1.64.94,3.2,1.41,4.69,3.05-1.25,5.74-2.97,8.09-5.16-.08-.16-.16-.39-.23-.7-.16-.31-.27-.55-.35-.7-1.72,1.56-3.95,2.89-6.68,3.98-.31-.78-.63-1.48-.94-2.11,2.42-.78,4.69-1.91,6.8-3.4-.23-.39-.51-.74-.82-1.05-1.17.55-2.81,1.21-4.92,1.99-.16-.39-.43-.94-.82-1.64-.08-.31-.16-.51-.23-.59,2.81-.7,5.04-1.52,6.68-2.46h-6.8ZM737.05,61.28h-7.03l-.35,1.99h7.03l.35-1.99Z"/>
          <path class="cls-12" d="M745.84,77.33v-14.53h10.9v-5.62h3.4v5.62h10.9v14.41h-3.28v-1.52h-7.62v9.73h-3.4v-9.73h-7.62v1.64h-3.28ZM749.12,65.85v6.8h7.62v-6.8h-7.62ZM767.75,65.85h-7.62v6.8h7.62v-6.8Z"/>
          <path class="cls-12" d="M774.9,75.34l-.82-2.58,1.76-.12,2.81-4.22-5.04-3.87,1.64-1.88c.23.16.55.35.94.59,1.09-1.95,2.11-3.94,3.05-5.98l2.81.94c-1.25,2.27-2.58,4.45-3.98,6.56.7.47,1.37.94,1.99,1.41.94-1.41,1.8-2.81,2.58-4.22l2.34,1.29c-2.42,3.75-4.49,6.84-6.21,9.26l3.05-.23-.94-2.23,1.99-.59c.94,2.34,1.68,4.34,2.23,5.98l-1.99.7v-.23c-.08-.39-.23-.82-.47-1.29-.55,0-1.09.04-1.64.12v10.78h-2.58v-10.66l-.82.12c-1.02.08-1.92.2-2.7.35ZM776.31,84.24c-.39-.08-.86-.16-1.41-.23-.31-.08-.55-.12-.7-.12.47-2.03.86-4.22,1.17-6.56l1.99.23c-.31,2.58-.66,4.8-1.05,6.68ZM783.34,81.9c-.08-.16-.2-.47-.35-.94-.23-.86-.63-2.11-1.17-3.75l1.64-.47c.08.31.23.78.47,1.41.16.31.51,1.25,1.05,2.81,1.72-1.25,2.85-2.93,3.4-5.04h-3.05v-2.46h5.74v2.46c-.55,3.13-2.5,5.82-5.86,8.09-.16-.47-.43-1.09-.82-1.88-.08-.16-.16-.27-.23-.35l-.82.12ZM785.92,71.24v-11.48h4.57c.23-.86.43-1.72.59-2.58l3.16.35-.82,2.23h7.38v11.48h-5.86v.82c.47,1.33,1.01,2.58,1.64,3.75,1.33-1.17,2.58-2.34,3.75-3.52l1.99,1.76c-.31.23-.82.66-1.52,1.29-.39.31-1.33,1.09-2.81,2.34,1.17,1.33,2.77,2.58,4.8,3.75-.63.78-1.13,1.56-1.52,2.34-3.05-1.8-5.16-3.94-6.33-6.45v4.45c0,1.95-.98,2.97-2.93,3.05-.94.08-2.03.12-3.28.12,0-.08-.04-.23-.12-.47-.08-1.02-.2-1.76-.35-2.23h2.34c1.17.08,1.72-.39,1.64-1.41v-9.61h-6.33ZM788.73,62.1v2.46h9.38v-2.46h-9.38ZM788.73,66.43v2.46h9.38v-2.46h-9.38Z"/>
        </g>
      </g>
      <g>
        <path class="cls-9" d="M332.34,258.04c27.06,0,48.8-22.79,47.08-50.23-1.47-23.33-20.35-42.36-43.67-44-20.39-1.43-38.26,10.1-46.2,27.19-5.18,11.15-16.25,18.37-28.55,18.37H82.09c-2.65,0-5.1-1.14-7.13-2.85-1.29-1.09-3.08-1.61-4.98-1.16-2.03.47-3.68,2.12-4.15,4.15-.86,3.72,1.94,7.03,5.51,7.03,1.31,0,2.51-.45,3.46-1.19,2.27-1.78,4.95-2.98,7.84-2.98h178.36c12.08,0,23.35,6.81,28.31,17.83,7.38,16.41,23.87,27.84,43.03,27.84Z"/>
        <g>
          <path class="cls-10" d="M309.36,220.45c-.5-.61-1-1.17-1.5-1.67.89-1.39,1.28-3.8,1.17-7.25v-10.17h5.5v16.58c0,1.28-.61,1.97-1.83,2.08h-1.67c0-.06-.03-.14-.08-.25-.11-.78-.22-1.31-.33-1.58h1.33c.55,0,.83-.25.83-.75v-4h-1.92c0,2.72-.5,5.05-1.5,7ZM310.86,203.2v3.33h1.92v-3.33h-1.92ZM310.86,211.7h1.92v-3.33h-1.92v3.33ZM315.36,213.95v-1.67h3.5c.33-.5.61-.94.83-1.33l2.08.17c-.06.11-.17.28-.33.5-.17.28-.31.5-.42.67h7.08v1.67h-2.33c-.45,1.17-1.06,2.17-1.83,3,.55.22,1.39.56,2.5,1,.72.22,1.25.42,1.58.58l-1,1.75c-.72-.39-1.83-.92-3.33-1.58-.61-.28-1.06-.5-1.33-.67-1.45,1-3.67,1.8-6.67,2.42-.06-.11-.14-.28-.25-.5-.06-.28-.25-.75-.58-1.42,2.33-.33,4.14-.75,5.42-1.25-.22-.11-.58-.28-1.08-.5-.5-.17-.89-.3-1.17-.42l-.42.58-1.67-.67c.61-.72,1.19-1.5,1.75-2.33h-2.33ZM315.61,203.12v-1.75h12.25v1.75h-3.5v1.75h3.25v5.75h-11.75v-5.75h3.17v-1.75h-3.42ZM317.53,206.54v2.5h1.75v-2.5h-1.75ZM319.03,215.12c.33.11.83.28,1.5.5.61.28,1.08.47,1.42.58.72-.61,1.28-1.36,1.67-2.25h-3.75c-.11.17-.28.42-.5.75-.17.17-.28.31-.33.42ZM320.86,203.12v1.75h1.75v-1.75h-1.75ZM320.86,206.54v2.5h1.75v-2.5h-1.75ZM325.94,206.54h-1.83v2.5h1.83v-2.5Z"/>
          <path class="cls-10" d="M336.11,220.37v-19.16h18.41v19.16h-2.08v-.92h-14.25v.92h-2.08ZM340.02,211.95v-3.42h10.58v3.42h-3.58v1h3.92v1.17h-3.92v1.08h4.58v1.25h-4.58v1.42h5.42v-14.91h-14.25v14.91h6.83v-1.42h-6.08v-1.25h1.17v-2.25h4.92v-1h-5ZM339.03,207.54v-1.17h2.83l.33-1.08h-2v-1.17h2.33l.33-1.08h1.92l-.25,1.08h5.75v2.25h1.42v1.17h-12.66ZM341.86,214.12v1.08h3.17v-1.08h-3.17ZM342.02,209.62v1.17h6.58v-1.17h-6.58ZM348.36,205.29h-4.25l-.25,1.08h4.5v-1.08Z"/>
        </g>
      </g>
    </g>
  </g>
</svg>